<svg xmlns="http://www.w3.org/2000/svg" xmlns:xlink="http://www.w3.org/1999/xlink" width="175.6" height="184.7">
  <defs>
    <path id="a" fill-rule="evenodd" d="M34.9 44h81a5 5 0 0 1 5 5v82.5a5 5 0 0 1-5 5h-81a5 5 0 0 1-5-5V49a5 5 0 0 1 5-5z"/>
    <mask id="b" x="0" y="0" maskContentUnits="userSpaceOnUse" maskUnits="userSpaceOnUse">
      <path fill="#fff" d="M0 0h175.6v184.7H0z"/>
      <use xlink:href="#a"/>
    </mask>
  </defs>
  <path fill="#F8EEE5" fill-rule="evenodd" d="M21.4 135.6c-16.7-18-10.3-29.1-7.1-34.8C20 90 32.8 97.2 52.4 76.2 72 55.3 59.3 52.4 82 42.7c22.7-9.7 24.9 13.4 44.3 6.6 19.5-6.8 40.5 10.2 35.6 24.8-4.9 14.7-14.6 34.8-29.7 33.1-15.1-1.6-17.5-.2-26 6.5-8.6 6.7-2.8 16.9-10 26.3-6 7.6-21.4 11.2-27.6 0-6.2-11-17.9-7.6-25.3-2.8-7.3 4.8-18.5 2-21.8-1.6z"/>
  <use xlink:href="#a" fill="#FFF"/>
  <use xlink:href="#a" fill-opacity="0" stroke="#E6DCCA" stroke-width="4" mask="url(#b)"/>
  <path fill="#646363" fill-rule="evenodd" d="M58.8 130.8c1 .2 2.2.2 3.3 0a11.3 11.3 0 0 0 5-2.2l.5-.4c1.2.4 2.5.4 3.7 0a9 9 0 0 0 5-3.8A6.5 6.5 0 0 0 80 126a5.6 5.6 0 0 0 5.1-2.6c1.8 1 5.1 1.8 9.6-.4.7-.3 1-1 .7-1.7a1.3 1.3 0 0 0-1.8-.6c-4.6 2.2-7.3.5-8 0a1.5 1.5 0 0 0-2.4.8c-.3 1.2-1.6 2-3 2-1 0-2.3-.8-2.8-1.8a1.4 1.4 0 0 0-1.5-.8 1.5 1.5 0 0 0-1.3 1.2c-.4 1.8-2.3 3.3-4 3.8l-1.1.1a6.7 6.7 0 0 0 .8-2.8 6.8 6.8 0 0 0-2-5 3.7 3.7 0 0 0-3-1c-1 0-1.7.5-2.3 1.3a5.1 5.1 0 0 0-.6 4 8.4 8.4 0 0 0 2.8 4.4 8.3 8.3 0 0 1-5.8 1.5 6.8 6.8 0 0 1-4.7-3.9 13.8 13.8 0 0 1-1.1-7.2c0-.7-.5-1.4-1.2-1.4a1.3 1.3 0 0 0-1.4 1.2 16.3 16.3 0 0 0 1.4 8.6 9.4 9.4 0 0 0 6.5 5.2zm6.2-10.9a.7.7 0 0 1 .5-.3c.2 0 .6 0 1 .4a4 4 0 0 1 1 3c0 .7-.2 1.4-.5 2a6 6 0 0 1-2.2-3.2 3 3 0 0 1 .2-1.9z"/>
  <path fill="#1793A4" fill-rule="evenodd" d="M64 93a2.1 2.1 0 0 1-2-2.1v-14c0-7.4 5.8-13.4 13-13.4 7 0 12.9 6 12.9 13.4v13.6a2.1 2.1 0 0 1-2 2.1 2.1 2.1 0 0 1-2.1-2.1V76.9c0-5-4-9.1-8.9-9.1a9 9 0 0 0-8.9 9v14a2 2 0 0 1-2 2.2z"/>
  <ellipse cx="74.7" cy="93.2" fill="#1793A4" rx="15.4" ry="15.1"/>
  <path fill="#FFF" fill-rule="evenodd" d="M76.6 94a3 3 0 0 0 1-2.9 2.9 2.9 0 0 0-2.2-2.3 2.9 2.9 0 0 0-3.3 2.9 3 3 0 0 0 1.1 2.3c.1 0 .2.3.1.4L71.8 97c-.2.4 0 .8.5.8h5.2c.4 0 .7-.4.5-.8l-1.5-2.6a.3.3 0 0 1 0-.4z"/>
  <circle cx="37.6" cy="50.8" r="2.3" fill="#F0622E"/>
  <circle cx="44" cy="50.8" r="2.3" fill="#FFCC5A"/>
  <circle cx="50.4" cy="50.8" r="2.3" fill="#16A81C"/>
  <g transform="rotate(13 124.3 92.3)">
    <path fill="#1793A4" fill-rule="evenodd" d="m107.6 123.8-3.7 2.6c-.7.5-1.6 0-1.5-.9l.7-4.4c.2-1.4.6-2.8 1.4-4l34.8-57.3a3.5 3.5 0 0 1 4.8-1.2 3.5 3.5 0 0 1 1.2 4.7l-34.9 57.4a10 10 0 0 1-2.8 3z"/>
    <rect width="2.3" height="6.9" x="138.5" y="62.5" fill="#FFF" rx="0" ry="0" transform="rotate(-59 139.7 66)"/>
  </g>
  <path fill="#78AF71" fill-rule="evenodd" d="M144.5 49.9A20 20 0 0 1 124.8 70c-10.9 0-19.7-9-19.7-20 0 7.8 6.3 14.3 14 14.3 7.8 0 14.1-6.5 14.1-14.4V47h-5.6l11.2-11.5L150.1 47h-5.6v3z"/>
</svg>
