<svg xmlns="http://www.w3.org/2000/svg" xmlns:xlink="http://www.w3.org/1999/xlink" width="109" height="90">
  <defs>
    <path id="a" d="M0 0h109v90H0z"/>
    <mask id="b" maskContentUnits="userSpaceOnUse" maskUnits="userSpaceOnUse">
      <path d="M0 0h109v90H0z"/>
      <use xlink:href="#a" fill="#fff"/>
    </mask>
  </defs>
  <use xlink:href="#a" fill="none"/>
  <g fill-rule="evenodd" mask="url(#b)">
    <path fill="#F8EEE5" d="M52.5 8A39.9 39.9 0 0 1 72 4.4c7.9-.1 5.9 11 17.4 13.7 11.5 2.8 12.6 7.5 11.5 15.2-1.2 7.8-30 .8-30 14-.2 13.3-5.8 21.2-15.8 20-10-1.1-20.6-23-37.3-17.3C1 55.7-2 42 1 36.8c3-5.2 5.9-8.1 11.3-9 5.5-.8 13.3-1.6 14-11.1.5-9.5 7.2-10.9 12-8.7 4.8 2 12.7.7 14.2 0z"/>
    <path fill="#FFF" d="M70.6 63.8h-32a.8.8 0 0 1-.7-.8V6.7c0-.4.4-.7.8-.7h31.9c.4 0 .8.3.8.7V63c0 .4-.4.8-.8.8z"/>
    <path fill="#F4BB8C" d="M68.6 55H40.8a1 1 0 0 1-1-1V15.7a1 1 0 0 1 1-1h24.4l2.4 2.3 2 2v35a1 1 0 0 1-1 1z"/>
    <path fill="#FFF" d="M65 32.2H44.5a.5.5 0 0 1-.6-.5c0-.3.3-.6.6-.6H65a.5.5 0 1 1 0 1.1zm0-3.6H44.5a.5.5 0 0 1-.6-.6c0-.3.3-.5.6-.5H65a.5.5 0 1 1 0 1zm0 7H44.5a.5.5 0 0 1-.6-.6c0-.3.3-.5.6-.5H65a.5.5 0 1 1 0 1zm0 3.3H44.4a.5.5 0 0 1-.5-.5c0-.3.2-.6.5-.6H65a.5.5 0 1 1 0 1.1zm0 3.4H44.4a.5.5 0 0 1-.5-.6c0-.3.2-.5.5-.5H65a.5.5 0 1 1 0 1zm-8.2 3.3H44.4a.5.5 0 0 1-.5-.5c0-.3.2-.6.5-.6h12.4c.3 0 .5.3.5.6s-.2.5-.5.5z"/>
    <path fill="#579A95" d="M36.6 3h36c1 0 1.8.8 1.8 1.7V70c0 1-.8 1.7-1.7 1.7h-36a1.7 1.7 0 0 1-1.8-1.7V4.8c0-1 .8-1.7 1.7-1.7zm33.8 60.8c.6 0 1-.5 1-1V7c0-.6-.4-1-1-1H39a1 1 0 0 0-1 1v55.7c0 .6.4 1 1 1h31.4z"/>
    <path fill="#F2F2F2" d="M58 69.6h-6.6a.8.8 0 0 1-.8-.8v-2.2c0-.4.4-.7.8-.7H58c.5 0 .8.3.8.7v2.2c0 .4-.3.8-.8.8z"/>
    <path fill="#D3B99F" d="m70 68.9-3.4-7.7a176.2 176.2 0 0 1-3-7.2s1.6 10.2 1.8 11.3c.6 2.8 3.5 5 5.4 7l5.7 5.3a23 23 0 0 1-1.2-1.3c-1.9-2.4-4-4.7-5.3-7.4z"/>
    <path fill="#F2D4B3" d="M95 71.1c-2.4-2.7-.3-8.6-1.8-11.8-1.1-2.3-3-8.7-5.9-9.3-1.3-.3-2.1.5-3.3-.7-1.3-1.4-2.2.1-3.6-.3-1.3-.3-1.8-2.3-3.4-1-1 .4-1.6 1.2-2.8.5-1-.6-1.8-1.6-3-.7-.9.3-1.3 1.2-2.4.7-.9-.4-1.4-2-1.8-2.8l-5.2-10.1c-.4-1-1-2.6-2-3.1-3-1.7-2.6 3.7-2.1 5.2l3.4 9.6a190.7 190.7 0 0 0 5.5 14l3.4 7.6c1.2 2.7 3.5 5 5.3 7.4a16.1 16.1 0 0 0 4.9 4.1c2 1.3 15.2 18.6 15.2 18.6l13.6-8S96 72.1 95 71z"/>
    <path fill="#FFF" d="M57.9 33.1s.5 2 1.2 2.1c.7.1 2.3-.6 2.3-.6-.4-.8-.8-1.8-1.5-2.2a3.2 3.2 0 0 0-.4-.1c-.6.1-1.3.4-1.6.9z"/>
    <path fill="#579A95" d="M58.8 29.1a.4.4 0 0 1-.7-.3v-2.7a.4.4 0 1 1 .8 0v2.7a.4.4 0 0 1-.1.3zm-2.6 2.5a.4.4 0 0 1-.5 0l-1.8-1.8a.4.4 0 1 1 .6-.5l1.7 1.7c.2.2.2.5 0 .6zM53.8 34a.4.4 0 0 1-.3.2H51a.4.4 0 0 1 0-.9h2.5a.4.4 0 0 1 .3.7zm9.3-4-1.7 1.7a.4.4 0 1 1-.6-.6l1.7-1.7a.4.4 0 1 1 .6.5zm2.7 3.8a.4.4 0 0 1-.3.1h-2.4a.4.4 0 0 1 0-.8h2.4a.4.4 0 0 1 .3.7z"/>
  </g>
</svg>
