<svg xmlns="http://www.w3.org/2000/svg" xmlns:xlink="http://www.w3.org/1999/xlink" width="99" height="66.8">
  <defs>
    <path id="a" d="M0 0h99v66.8H0z"/>
    <mask id="b" maskContentUnits="userSpaceOnUse" maskUnits="userSpaceOnUse">
      <path d="M0 0h99v66.8H0z"/>
      <use xlink:href="#a" fill="#fff"/>
    </mask>
  </defs>
  <use xlink:href="#a" fill="none"/>
  <g fill-rule="evenodd" mask="url(#b)">
    <path fill="#F8EEE5" d="M51.3 7.7a39 39 0 0 1 19.1-3.4c7.7-.2 5.7 10.6 17 13.3 11.3 2.7 12.4 7.2 11.3 14.8-1.2 7.5-29.3.7-29.4 13.6-.2 12.9-5.6 20.5-15.4 19.4-9.9-1.1-20.1-22.3-36.5-16.8S-2 40.9 1 35.8c2.8-5.1 5.8-8 11-8.7 5.4-.8 13-1.7 13.6-11 .6-9.1 7.2-10.4 11.9-8.4 4.7 2.1 12.3.8 13.8 0z"/>
    <path fill="#FFF" d="M69 59H37.8a.7.7 0 0 1-.7-.7V3.5c0-.4.3-.7.7-.7H69c.4 0 .8.3.8.7v54.6c0 .4-.4.8-.8.8z"/>
    <path fill="#F4BB8C" d="M67.1 50.4H40a1 1 0 0 1-1-1v-37c0-.5.4-1 1-1h23.9l2.3 2.3 2 2v33.8c0 .5-.4 1-1 1z"/>
    <path fill="#FFF" d="M63.5 28.4h-20a.5.5 0 0 1-.6-.5c0-.3.3-.6.6-.6h20c.3 0 .6.3.6.6s-.3.5-.6.5zm0-3.6h-20a.5.5 0 0 1-.6-.5c0-.3.3-.5.6-.5h20c.3 0 .6.2.6.5s-.3.5-.6.5zm0 6.8h-20a.5.5 0 0 1-.6-.5c0-.3.3-.5.6-.5h20c.3 0 .6.2.6.5s-.3.5-.6.5zm0 3.3h-20a.5.5 0 0 1-.6-.6c0-.3.3-.5.6-.5h20c.3 0 .6.3.6.6s-.3.5-.6.5zm0 3.2h-20a.5.5 0 0 1-.6-.5c0-.3.3-.5.6-.5h20c.3 0 .6.2.6.5s-.3.5-.6.5zm-8 3.3h-12a.5.5 0 0 1-.6-.5c0-.3.3-.6.5-.6h12.1c.3 0 .6.3.6.6s-.3.5-.6.5z"/>
    <path fill="#579A95" d="M35.8 0h35.3c.9 0 1.6.7 1.6 1.6v63.5c0 1-.7 1.7-1.6 1.7H35.8c-.9 0-1.6-.8-1.6-1.7V1.6c0-.9.7-1.6 1.6-1.6zm33 59a1 1 0 0 0 1-1V3.9a1 1 0 0 0-1-1H38.1a1 1 0 0 0-1 1V58a1 1 0 0 0 1 1H69z"/>
    <path fill="#F2F2F2" d="M56.7 64.7h-6.5a.7.7 0 0 1-.7-.8v-2.1c0-.4.3-.7.8-.7h6.5c.4 0 .7.3.7.7v2.1c0 .4-.4.7-.8.7z"/>
  </g>
</svg>
