<svg xmlns="http://www.w3.org/2000/svg" xmlns:xlink="http://www.w3.org/1999/xlink" width="123.3" height="85">
  <defs>
    <path id="a" fill-rule="evenodd" d="m65.6 67.9-31.9-.2c-.6 0-1.1-.5-1.1-1.1l.2-43.5c0-.7.5-1.2 1.1-1.2l28 .1 2.6 2.7 2.4 2.4-.2 39.6c0 .7-.5 1.2-1.1 1.2z"/>
    <path id="b" fill-rule="evenodd" d="M51.9 68 20 67.9c-.6 0-1.1-.6-1.1-1.2l.2-43.5c0-.6.5-1.2 1.1-1.2l28 .2 2.6 2.6 2.4 2.4-.2 39.6c0 .7-.5 1.2-1.1 1.2z"/>
    <path id="c" fill-rule="evenodd" d="m35.4 67.9-31.9-.2c-.6 0-1.1-.5-1.1-1.1l.1-43.5c0-.7.6-1.2 1.2-1.2l28 .1 2.6 2.7 2.4 2.4-.2 39.6c0 .7-.5 1.2-1.1 1.2z"/>
  </defs>
  <path fill="#FFF" fill-rule="evenodd" d="M75 78.7c-10 6.3-15.7-2-21.4-1.8-5.8.1-20.5 7.3-22.6-8.3C29 53 39 53.2 27.2 40s2-31.8 20-33.4C65.5 5 62.3 19 76.2 9.5c14-9.5 22.4 10 17 21.9-5.4 11.9 8.7 13.3 8.3 19C101.1 56 97.2 66 90 68c-7.2 2-11 8.3-14.8 10.6z"/>
  <path fill="#3C667F" fill-rule="evenodd" d="M62.2 49.6c.3-.3.5-.7.5-1.1v-6.8a1.6 1.6 0 0 0-1.7-1.6h-6.7c-1 0-1.7.7-1.7 1.6v6.8c0 .9.8 1.6 1.7 1.6H61c.4 0 .8-.2 1.1-.5z" opacity=".7"/>
  <path fill="#3C667F" fill-rule="evenodd" d="M97.8 46.1c.6-.6.6-1.6 0-2.3l-9.3-9.2a1.6 1.6 0 0 0-1.2-.5c-1 0-1.7.7-1.7 1.6V40H66.3c-.9 0-1.6.8-1.6 1.7v6.7c0 1 .7 1.7 1.7 1.7h19.2v4.2a1.7 1.7 0 0 0 2.9 1.2l9.3-9.4z"/>
  <use xlink:href="#a" fill="#FFF"/>
  <use xlink:href="#a" fill-opacity="0" stroke="#F4BB8C" stroke-dasharray="0 0 0 0"/>
  <path fill="#C99975" fill-rule="evenodd" d="m61.9 22 5 5.1h-4c-.5 0-1-.5-1-1.2v-3.8z" opacity=".8"/>
  <use xlink:href="#b" fill="#FFF"/>
  <use xlink:href="#b" fill-opacity="0" stroke="#F4BB8C" stroke-dasharray="0 0 0 0"/>
  <path fill="#C99975" fill-rule="evenodd" d="m48.2 22.2 5 5h-3.9c-.6 0-1.1-.5-1.1-1.1v-4z" opacity=".8"/>
  <use xlink:href="#c" fill="#FFF"/>
  <use xlink:href="#c" fill-opacity="0" stroke="#F4BB8C" stroke-dasharray="0 0 0 0"/>
  <path fill="#C99975" fill-rule="evenodd" d="m31.6 22 5 5.1h-3.8c-.7 0-1.2-.5-1.2-1.2v-3.8z" opacity=".8"/>
  <path fill="#F4BB8C" fill-rule="evenodd" d="M122.2 68H90.3c-.6 0-1.1-.6-1.1-1.2V23.3c0-.7.5-1.2 1.1-1.2h28l2.7 2.7 2.3 2.4v39.6c0 .6-.5 1.1-1.1 1.1z"/>
  <path fill="#C99975" fill-rule="evenodd" d="m118.3 22.1 5 5h-3.9c-.6 0-1.1-.5-1.1-1v-4z" opacity=".8"/>
  <path fill="#F4BB8C" fill-rule="evenodd" d="M61.5 42 38 41.9a.6.6 0 0 1-.6-.7c0-.3.3-.6.7-.6l23.4.2c.3 0 .6.2.6.6a.6.6 0 0 1-.6.6zm0-4.2-23.4-.1c-.4 0-.7-.3-.7-.6s.3-.6.7-.6h23.4c.3 0 .6.4.6.7 0 .3-.3.6-.6.6zm0 8L38 45.7c-.3 0-.6-.3-.6-.6s.3-.6.6-.6h23.5c.3 0 .6.3.6.7a.6.6 0 0 1-.6.6zm0 3.8L38 49.5c-.3 0-.6-.3-.6-.6s.3-.6.6-.6h23.5a.6.6 0 0 1 0 1.3zm0 3.8H38c-.4 0-.6-.4-.6-.7s.2-.6.6-.6h23.4a.6.6 0 0 1 0 1.3z"/>
  <path fill="#F4BB8C" fill-rule="evenodd" d="M47.8 42H24.3a.6.6 0 1 1 0-1.3l23.5.2c.3 0 .6.2.6.6a.6.6 0 0 1-.6.6zm0-4-23.4-.2a.6.6 0 1 1 0-1.2h23.4c.4 0 .6.4.6.7a.6.6 0 0 1-.6.6zm0 7.9-23.5-.1c-.3 0-.6-.3-.6-.6s.3-.6.6-.6h23.5a.6.6 0 0 1 0 1.3zm0 3.8-23.5-.1c-.3 0-.6-.3-.6-.6s.3-.6.6-.6h23.5c.3 0 .6.4.6.7s-.3.6-.6.6zm0 3.8H24.2a.6.6 0 0 1-.6-.7c0-.3.2-.6.6-.6l23.4.1c.4 0 .6.3.6.6s-.2.6-.6.6z"/>
  <path fill="#F4BB8C" fill-rule="evenodd" d="m31.3 42-23.5-.1a.6.6 0 0 1-.6-.7c0-.3.3-.6.6-.6l23.5.2c.3 0 .6.2.6.6 0 .3-.3.6-.6.6zm0-4.2-23.5-.1c-.3 0-.6-.3-.6-.6s.3-.6.6-.6h23.5c.3 0 .6.4.6.7 0 .3-.3.6-.6.6zm0 8-23.5-.1c-.3 0-.6-.3-.6-.7s.3-.6.6-.6l23.4.2a.6.6 0 0 1 .7.6c0 .3-.3.6-.6.6zm0 3.8-23.5-.1c-.4 0-.6-.3-.6-.6s.3-.6.6-.6h23.4a.6.6 0 0 1 0 1.3z"/>
  <path fill="#FFF" fill-rule="evenodd" d="M118 42H94.6a.6.6 0 1 1 0-1.2H118a.6.6 0 1 1 0 1.2zm0-4.1H94.6a.6.6 0 1 1 0-1.3H118a.6.6 0 1 1 0 1.3zm0 8H94.6a.6.6 0 1 1 0-1.3H118a.6.6 0 1 1 0 1.2zm0 3.8H94.6a.6.6 0 1 1 0-1.3H118a.6.6 0 0 1 .6.7.6.6 0 0 1-.6.6zm0 3.8H94.6a.6.6 0 1 1 0-1.3H118a.6.6 0 1 1 0 1.3zm-9.3 3.8H94.5a.6.6 0 1 1 0-1.2h14.2a.6.6 0 1 1 0 1.2z"/>
  <path fill="#F4BB8C" fill-rule="evenodd" d="m31.2 53.4-23.4-.1c-.4 0-.6-.3-.6-.6s.2-.6.6-.6h23.4a.6.6 0 0 1 0 1.3zm-9.3 3.8H7.7a.6.6 0 0 1-.6-.7c0-.3.3-.6.6-.6H22a.6.6 0 0 1 .6.7c0 .3-.3.6-.6.6zm16.5.1H24.3a.6.6 0 0 1-.6-.7c0-.3.2-.6.6-.6h14.1c.3 0 .6.4.6.7a.6.6 0 0 1-.6.6z"/>
  <path fill="#F4BB8C" fill-rule="evenodd" d="M52.1 57.2H38a.6.6 0 0 1-.6-.7c0-.3.2-.6.6-.6h14c.3 0 .6.3.6.7a.6.6 0 0 1-.6.6z"/>
  <path fill="#3C667F" fill-rule="evenodd" d="M49.9 49.6c.3-.3.4-.7.4-1.1v-6.8a1.6 1.6 0 0 0-1.7-1.6H42c-1 0-1.7.7-1.7 1.6v6.8c0 .9.8 1.6 1.7 1.6h6.8a2 2 0 0 0 1.2-.5z" opacity=".3"/>
</svg>
