<svg xmlns="http://www.w3.org/2000/svg" xmlns:xlink="http://www.w3.org/1999/xlink" width="110.3" height="86">
  <defs>
    <path id="a" d="M0 0h110.3v86H0z"/>
    <mask id="b" maskContentUnits="userSpaceOnUse" maskUnits="userSpaceOnUse">
      <path d="M0 0h110.3v86H0z"/>
      <use xlink:href="#a" fill="#fff"/>
    </mask>
  </defs>
  <use xlink:href="#a" fill="none"/>
  <g mask="url(#b)">
    <path fill="#F8EEE5" fill-rule="evenodd" d="M57.2 7.3c6.8-3.9 12.7-4 21.3-4.2 8.5-.2 6.3 13 18.9 16.4 12.5 3.3 13.8 8.9 12.5 18.1-1.3 9.3-32.6 1-32.7 16.8C77 70.3 71 79.7 60 78.3c-11-1.4-22.4-27.5-40.7-20.7C1.1 64.3-2 48 1.1 41.8c3.2-6.2 6.4-9.7 12.3-10.7 6-1 14.5-2 15.2-13.4.6-11.3 7.9-13 13.2-10.3 5.2 2.5 13.7.9 15.4 0z"/>
    <path fill="#D2F1F9" fill-rule="evenodd" d="M73.4 52h-41V2.3c0-.9.7-1.5 1.4-1.5H72c.8 0 1.4.6 1.4 1.5V52z"/>
    <rect width="46.3" height="3.1" x="29.7" y="52" fill="#4E6F6C" rx="0" ry="0"/>
    <path fill="#4E6F6C" fill-rule="evenodd" d="M29.7 56H76c.4 0 .7-.4.7-.8V52c0-.4-.3-.7-.7-.7H29.7c-.4 0-.7.3-.7.7v3.2c0 .4.3.8.7.8zm45.7-1.6h-45v-1.6h45v1.6z"/>
    <path fill="#579A95" fill-rule="evenodd" d="M32.5 47s15-6.3 40.9-5v10h-41v-5z"/>
    <path fill="#FFF0B3" fill-rule="evenodd" d="M33.1 2.3V15c1.2.6 2.4 1 3.7 1 4.7 0 8.5-4.2 8.5-9.4 0-1.9-.5-3.7-1.4-5.2h-10c-.5 0-.8.3-.8.8z"/>
    <path fill="#EFEFEF" fill-rule="evenodd" d="M52.4 13.2a2 2 0 0 0-.1-1.8 1.6 1.6 0 0 0-2.4-.6 2 2 0 0 0-.3-.9 1.6 1.6 0 0 0-2.2-.6 2 2 0 0 0-1.7-1c-1.2 0-2.1 1-2.1 2.2h-.2c-1.1 0-2 1-2 2.3 0 1.3.9 2.3 2 2.3h9.5s.3-1-.5-2zm.6-3.5A2 2 0 0 1 53 8a1.6 1.6 0 0 1 2.4-.5c0-.3 0-.6.3-1A1.6 1.6 0 0 1 58 6a2 2 0 0 1 1.7-1c1.2 0 2.1 1 2.1 2.2h.2c1.1 0 2 1 2 2.3 0 1.3-.9 2.3-2 2.3h-9.5s-.3-1 .4-2z"/>
    <path fill="#4E6F6C" fill-rule="evenodd" d="M72 0H42.7a9 9 0 0 1 1.2 1.5H72c.4 0 .7.4.7.8v49H33V15a8.5 8.5 0 0 1-1.3-.9V52c0 .5.3.8.7.8h40.9c.4 0 .7-.3.7-.8V2.3C74 1 73 0 72 0z"/>
    <path fill="#4E6F6C" fill-rule="evenodd" d="M33.1 15.1V2.3c0-.5.3-.8.7-.8h10a9.3 9.3 0 0 0-1-1.5h-8.9c-1.1 0-2 1-2 2.3v11.9l1.3 1zM53 52.8c-.4 0-.7-.3-.7-.8V.8c0-.5.3-.8.7-.8.4 0 .7.3.7.8V52c0 .5-.3.8-.7.8z"/>
    <path fill="#F4BB8C" fill-rule="evenodd" d="M95.5 86H65.2c-.6 0-1.1-.5-1.1-1.2V39.2c0-.7.5-1.2 1-1.2h26.7l2.6 2.8 2.2 2.5v41.5c0 .7-.5 1.2-1 1.2z"/>
    <path fill="#FFF" fill-rule="evenodd" d="M91.5 58.9H69.3c-.3 0-.6-.4-.6-.7 0-.4.3-.6.6-.6h22.3c.4 0 .6.3.6.6 0 .4-.2.7-.5.7zm0-4.4H69.3c-.3 0-.6-.3-.6-.7 0-.3.3-.6.6-.6h22.3c.4 0 .6.3.6.7 0 .3-.2.6-.5.6zm0 8.4H69.2c-.4 0-.6-.4-.6-.7 0-.4.3-.6.6-.6h22.3c.4 0 .6.3.6.6 0 .4-.2.7-.6.7zm0 4H69.2c-.4 0-.6-.4-.6-.7 0-.4.2-.6.6-.6h22.3c.4 0 .6.3.6.6 0 .4-.2.7-.6.7zm0 4H69.2c-.4 0-.6-.4-.6-.7 0-.4.2-.6.6-.6h22.3c.4 0 .6.3.6.6 0 .4-.3.7-.6.7zm-8.9 4H69.2c-.4 0-.6-.4-.6-.7 0-.4.2-.7.6-.7h13.4c.4 0 .6.4.6.7 0 .4-.2.6-.6.6z"/>
  </g>
</svg>
