<svg xmlns="http://www.w3.org/2000/svg" width="113.3" height="84.7">
  <path fill="#F8EEE5" fill-rule="evenodd" d="M59.3 12.3C66 8.4 72 8.3 80.6 8.1c8.5-.2 6.3 13 18.9 16.4 12.5 3.3 13.8 8.9 12.5 18.1-1.3 9.3-32.6 1-32.7 16.8C79 75.3 73 84.7 62 83.3c-11-1.4-22.4-27.5-40.6-20.7C3.2 69.3 0 53 3.2 46.8c3.2-6.2 6.4-9.7 12.3-10.7 6-1 14.5-2 15.2-13.4.6-11.3 8-13 13.2-10.4a22 22 0 0 0 15.4 0z"/>
  <path fill="#FFF" fill-rule="evenodd" d="M65.3 70.3H37a1 1 0 0 1-1-1V15.5c0-.5.5-1 1-1h28.3c.5 0 .9.5.9 1v53.8c0 .5-.4 1-1 1z"/>
  <path fill="#F4BB8C" fill-rule="evenodd" d="M86.2 51.9H52.6c-.7 0-1.2-.6-1.2-1.3V1.3c0-.7.5-1.3 1.2-1.3h29.5l2.8 3 2.5 2.7v44.9c0 .7-.6 1.3-1.2 1.3z"/>
  <path fill="#FFF" fill-rule="evenodd" d="M81.8 22.6H57c-.3 0-.6-.4-.6-.8s.3-.7.6-.7h24.8c.3 0 .6.4.6.8 0 .3-.3.6-.6.6zm0-4.8H57c-.3 0-.6-.3-.6-.7 0-.4.3-.7.6-.7h24.8c.3 0 .6.4.6.8 0 .3-.3.6-.6.6zm0 9H57c-.3 0-.6-.3-.6-.7 0-.3.3-.6.6-.6h24.8c.3 0 .6.3.6.7 0 .4-.3.7-.6.7zm0 4.4H57c-.3 0-.6-.3-.6-.7 0-.4.3-.7.6-.7h24.8c.3 0 .6.3.6.7 0 .4-.3.7-.6.7zm0 4.3H57c-.3 0-.6-.3-.6-.7 0-.4.3-.7.6-.7h24.7c.4 0 .7.3.7.7 0 .4-.3.7-.7.7zm-9.9 4.3H57c-.3 0-.6-.3-.6-.7 0-.4.3-.7.6-.7h15c.3 0 .6.4.6.7 0 .4-.3.7-.7.7z"/>
  <path fill="#579A95" fill-rule="evenodd" d="M35 11.7h32.4c.8 0 1.5.7 1.5 1.6v63c0 1-.7 1.7-1.5 1.7H34.9c-.8 0-1.5-.7-1.5-1.6V13.3c0-.9.7-1.6 1.5-1.6zm30.3 58.6c.5 0 1-.4 1-1V15.5c0-.5-.4-1-1-1H37.1a1 1 0 0 0-1 1v53.8c0 .5.5 1 1 1h28.3z"/>
  <path fill="#F2F2F2" fill-rule="evenodd" d="M54 76h-5.5a1 1 0 0 1-1-1v-1.7c0-.5.4-1 1-1H54c.5 0 .9.5.9 1V75c0 .6-.4 1-1 1z"/>
</svg>
