<svg xmlns="http://www.w3.org/2000/svg" xml:space="preserve" viewBox="0 0 511.999 511.999">
  <path d="M22.557 25.675h462.337v402.231H22.557z" style="fill:#9cd8ff"/>
  <path d="M22.557 25.675h233.795v402.231H22.557z" style="fill:#fff"/>
  <path d="M509.809 419.138 354.688 111.899a16.622 16.622 0 0 0-29.677.001L169.506 419.903a16.617 16.617 0 0 0 .682 16.202 16.62 16.62 0 0 0 14.156 7.911h311.033c9.181 0 16.622-7.442 16.622-16.622a16.537 16.537 0 0 0-2.19-8.256z" style="fill:#4ea4d9"/>
  <path d="m262.98 419.138-112.599-223.02a16.623 16.623 0 0 0-29.676 0L7.719 419.902a16.617 16.617 0 0 0 .682 16.202 16.618 16.618 0 0 0 14.156 7.911h225.991c9.18 0 16.622-7.442 16.622-16.622a16.526 16.526 0 0 0-2.19-8.255z" style="fill:#4ea4d9"/>
  <circle cx="192.572" cy="119.39" r="55.961" style="fill:#c27526"/>
  <path d="M136.606 119.391c0 30.906 25.055 55.961 55.961 55.961V63.43c-30.907 0-55.961 25.054-55.961 55.961z" style="fill:#f7dc4d"/>
  <path d="M339.862 102.769h-.008a16.626 16.626 0 0 0-14.842 9.131L169.507 419.903a16.617 16.617 0 0 0 .682 16.202 16.62 16.62 0 0 0 14.156 7.911h155.516V102.769h.001zm-204.308 84.218h-.007a16.624 16.624 0 0 0-14.841 9.131L7.719 419.902a16.617 16.617 0 0 0 .682 16.202 16.618 16.618 0 0 0 14.156 7.911h112.996V186.987h.001z" style="fill:#6ebbeb"/>
  <path d="M477.063.011H34.916C15.664.011 0 15.674 0 34.926v442.146c0 19.253 15.664 34.916 34.916 34.916h442.146c19.253 0 34.916-15.664 34.916-34.916V34.926C511.979 15.674 496.315.011 477.063.011zM34.916 33.255h442.146c.922 0 1.672.75 1.672 1.671v370.682H33.244V34.926c0-.921.75-1.671 1.672-1.671z" style="fill:#005a95"/>
  <path d="M257.088 405.607H33.244V34.926c0-.922.75-1.671 1.672-1.671h222.171V.011H34.916C15.664.011 0 15.674 0 34.926v442.146c0 19.253 15.664 34.916 34.916 34.916h222.171V405.607z" style="fill:#31aaef"/>
  <path d="m386.456 174.819-31.768-62.92a16.622 16.622 0 0 0-29.677.001l-68.809 136.286 130.254-73.367z" style="fill:#d5ebed"/>
  <path d="M339.862 201.063v-98.294h-.008a16.626 16.626 0 0 0-14.842 9.131l-68.809 136.286 83.659-47.123z" style="fill:#fff"/>
  <path d="m182.998 260.72-32.617-64.602a16.623 16.623 0 0 0-29.676 0l-42.232 83.649 104.525-19.047z" style="fill:#a6e7ed"/>
  <path d="M135.554 269.364v-82.378h-.007a16.624 16.624 0 0 0-14.841 9.131l-42.232 83.649 57.08-10.402z" style="fill:#fff"/>
</svg>
