<svg xmlns="http://www.w3.org/2000/svg" xml:space="preserve" width="800" height="800" viewBox="0 0 512 512">
  <path d="M511.998 455.735v33.758H478.24l-33.758-49.478z" style="fill:#ffe777"/>
  <path d="M478.24 455.735v33.758H0v-33.758l240.29-22.505z" style="fill:#fff1b1"/>
  <path d="M511.998 421.977v33.758H478.24l-22.506-60.73z" style="fill:#fedc3d"/>
  <path d="M478.24 421.977v33.758H0v-33.758l240.29-33.758zM512 22.507v399.47h-33.758l-78.769-199.735 78.769-199.735z" style="fill:#ffe777"/>
  <path d="M478.242 22.507v33.758l-78.769 165.977 78.769 165.977v33.758H.002V22.507z" style="fill:#fff1b1"/>
  <path d="M33.76 56.265v241.933l222.241 33.758 222.241-33.758V56.265z" style="fill:#81e3e2"/>
  <path d="M256.001 101.275v90.022c24.857 0 45.011-20.154 45.011-45.011s-20.154-45.011-45.011-45.011z" style="fill:#fe5f1a"/>
  <path d="M256.001 101.275c6.211 0 11.253 20.154 11.253 45.011s-5.041 45.011-11.253 45.011c-24.857 0-45.011-20.154-45.011-45.011s20.154-45.011 45.011-45.011z" style="fill:#fe834d"/>
  <path d="M478.236 352.402 346.698 247.741l97.786 16.699 33.759 33.759z" style="fill:#027372"/>
  <path d="m427.175 264.437-60.053-43.602-77.363 43.605-43.054 43.053 99.318 80.726h132.219v-57.988z" style="fill:#02acab"/>
  <path d="m444.484 264.44-16.215 1.406-61.147-29.141v-49.628z" style="fill:#eee"/>
  <path d="m289.759 264.44 77.363-77.363 60.053 77.36z" style="fill:#fff"/>
  <path d="M346.023 388.219h-45.011L124.457 247.741l97.786 16.699z" style="fill:#027372"/>
  <path d="m204.934 264.437 96.078 123.782H33.76v-90.021l33.758-33.758 77.363-43.605z" style="fill:#02acab"/>
  <path d="m222.243 264.44-16.215 1.406-61.147-29.141v-49.628z" style="fill:#eee"/>
  <path d="m67.518 264.44 77.363-77.363 60.053 77.36z" style="fill:#fff"/>
</svg>
