<svg xmlns="http://www.w3.org/2000/svg" width="125" height="125" fill="none">
  <path fill="#78E0ED" d="M40.1 18.2H37v3.2h3v-3.2Zm13.3-.2h-3.1v3.2h3.1V18ZM67 18h-3v3.2h3V18ZM26.2 31.8H23v3.3h3.2v-3.3Zm13.6 0h-3.2v3.3h3.2v-3.3Zm13.6 0h-3.1v3.3h3.1v-3.3Zm13.6 0h-3v3.3h3v-3.3Zm13.7 0h-3.2v3.3h3.2v-3.3ZM26.2 45.6H23v3.2h3.2v-3.2Zm13.6 0h-3.2v3.2h3.2v-3.2Zm13.6 0h-3.1v3.2h3.1v-3.2Zm13.6 0h-3v3.2h3v-3.2Zm13.7 0h-3.2v3.2h3.2v-3.2ZM26.2 59.4H23v3.3h3.2v-3.3Zm13.6 0h-3.2v3.3h3.2v-3.3Zm13.6 0h-3.1v3.3h3.1v-3.3Zm13.6 0h-3v3.3h3v-3.3Zm13.7 0h-3.2v3.3h3.2v-3.3ZM39.8 73.2h-3.2v3.3h3.2v-3.3Zm13.6 0h-3.1v3.3h3.1v-3.3Zm13.6 0h-3v3.3h3v-3.3Z"/>
  <path fill="#CFE5DC" fill-rule="evenodd" d="M22.8 67.7c-9.2 4.1-14.2 9-16.8 12.5-4.3 5.6-3.8 10.5-3.6 16A14 14 0 0 0 12 109c9.3 3 28.5-3 22.5-13.2-3.2-5.4-5-10.5-1.4-22.3 1.7-6-.4-10.1-10.3-5.8Z" clip-rule="evenodd"/>
  <path fill="#FCC" fill-rule="evenodd" d="M122.1 53.2c-2.3-3.2-7.4-8.3-10.6-11.5-5.1-5.3-11-2.1-13 3.7-4 11.8 8.7 20.5 19.1 18.2 5.6-1.2 8.4-5.2 4.5-10.4Z" clip-rule="evenodd"/>
  <path fill="#E8E7F8" fill-rule="evenodd" d="M31 62c0 13.8 15.2 30.4 27.6 36.6 12 6.1 18.5-4 16.6-14.6-1-5.4-4-11.2-5.7-14.2-1.2-2-3.2-6.3-5.5-10.3-3.6-6-8.1-11.2-15.4-12.8-9.8-2.2-17.7 6-17.7 15.2Z" clip-rule="evenodd"/>
  <path fill="#1A174F" d="m6.4 100.8 2.7.8 1.9.5a14 14 0 0 0 5.7 1c4.6-.1 8-1 10-2.3.3 0 .7 0 1-.3.3-.2.4-.5.4-1v-.2a10 10 0 0 0 2.5 1.5c2.1 1 7.3 1.4 12.7-3.4l.4-.6v-.6l-.4-2.8c-.5-2.7-.7-4.2-1-7.8l-.2-5.3L42 78c0-.5.1-.9.5-1.2 1.9-.3 4-.3 5.8-.3 1.6 0 3.2 0 4.4-.2a43 43 0 0 0-.7 9.4v2c-.1 2-.8 4.6-2.6 5.6l-.2.2-.1-.4c-1.1-5.6-1.6-11-1.4-15.4 0-.2-.1-.4-.3-.4-.2 0-.3.1-.3.3a94 94 0 0 0-.2 15V99l-.1-.4a4 4 0 0 0-.7-1.1c-.5-.5-1.1-.3-1.7-.2l-.9.2-.3.1v.3c.1.6-.4 1.1-.8 1.6l-.1.1s-1.4 1.6-.8 2.7c.3.7 1.5 1 3.3.8.5 0 1.2-.5 1.8-.9l.7-.5c1.2 0 2.8.3 4.6.6 2.5.4 5.7.9 9 .9a54 54 0 0 0 18.6-3.7c3.8 1.7 10.4 3 14.4 2.5 2-.3 4.1-.9 5.9-1.9h5.3v.7c.1.2.2.2.4.2 1.4 0 3-.3 4.5-.4l4.4-.5c1.5-.1 5.2-.4 5.4-.6.2-.4-.1-.6-.1-.6h-.4l-5 .5c-1.1 0-2.4.2-3.7.4.7-.4 1.2-1.3 1.2-2s-.2-1.2-.7-1.5c-1-.7-2 .2-2.9 1l-.9.7-.3.2-.3.2v-.9a57.8 57.8 0 0 0-.8-8c1-.4 2.4-.5 2.8-.5v.3l-.1 1.3a9 9 0 0 0 .2 4.3c0 .2.2.3.4.2l.2-.4c-.3-1.7.2-3.5.7-5.3l.2-.7v-.3l-.3-.1h-.5l.1-1.9a70.5 70.5 0 0 0 .6-7.3 91.6 91.6 0 0 1 1-13 .3.3 0 0 0-.3 0c-1.9.9-4.2 1.5-6.2 1.7-.2 0-.3.1-.3.3l.4 10a4688 4688 0 0 0 .4 11l-.3.1-.6.5c-.3.6-.1 1.2 0 1.8a25 25 0 0 1 1.7 6.4l-.5 1.3c-.2.3-.6.2-1 .2H101l1.7-1.4c.1-.1.3-.3.3-.5l-.1-.8c-.6-1.1-.4-2.7-.3-4.1.1-1.5.3-3-.2-4.3l.1-.4c.2-.7 0-1.4 0-2.1v-.2a29 29 0 0 1-.2-6.6v-3c0-3.2.1-5.5.5-8.8 3.5.2 7-.8 9.4-2.6 0 0 .2-.2.1-.3 0-1.1-.3-2.2-.5-3.2s-.5-2.1-.6-3.2v-.4l.7 2.5c.1.5.3 1.1.7 1.6.2.4.9.4 1.6.5h.9l-2 .6s-.2.2-.1.4c.4 1.3.8 2.5.5 3.5v.3l.3.2c.7 0 2.1 0 2.9-.4.5-.3.7-.7.8-1.3a4 4 0 0 0-.8-2.5h.2c.2.1.3 0 .4 0v-.4c-1.8-4.2-2.6-8.7-3.4-13.1L112 38.8c0-.2 0-.3-.2-.3h-.3c-.9.6-1.2 1.7-1.3 2.8a10 10 0 0 0-.3 2.5c0-2.5.3-4.8.8-7 0 0 0-.3-.2-.3h-.1a2 2 0 0 0 1-1.6c.1-.6 0-1.2-.3-1.9a38 38 0 0 0-3.8-8.2c-1.2-1.2-2.7-1.7-4-1.4-2.6.7-4.6 4.1-5.4 5.6-1 1.7-2.7 6-3 8.2-.7 1.3-1.4 2.9-1.8 4.6-.6 2.1-.8 4.3-1 6.5l-.3 2.6a57.1 57.1 0 0 1-2.5 11h1.5c-.5.8-1 1.6-.8 2.6 0 1.6 1 2.6 2 2.7.5 0 1-.2 1.1-.7v-.1c-.1-1.2 0-3.5.6-4.3v-.4l-.2-.2-1.5-.2a36 36 0 0 0 4.5-15.9 60.5 60.5 0 0 1-3.1 18.1l.3.2c2 0 4 .8 6 1.6a43.5 43.5 0 0 0 2.4.7l.1-.2c.3-3.3.8-5.8 1.3-8.4l.5-2.7a140 140 0 0 1-1.8 11.7c-2.5-.2-5-1-7.2-1.7-.4-.3-.8-.4-1.2-.3-.2 0-.3.1-.3.3l.2.3h.1l.9.3c.3.4.8 1.3 1.2 3.5.4 3 .6 6 .8 8.7.1 2.8.3 5.6.7 8.6l.3 1.7v.5c-.1-.1-.3-.2-.4 0-.1 0-.2 0-.3.2 0 .3 0 .7.2 1l.8.5c.2 1 .2 2 .2 2.7 0 3-.8 4.9-2.2 5.8-.2.1-.8.5-.6 1 .1.4.8.6 2.7.6-1.3.6-2.8 1-4.3 1.2-3.7.4-9.6-.6-13.4-2.2.3-.2.6-.3.7-.5h.8c.3-.2.6-.4.7-.7.2-.5 0-1.3-.5-2l-.6-1.4c-.2-1.5-.4-3.4.3-5.2a33.3 33.3 0 0 0 1.3-11c0-3 0-5.3.5-8.3.3-1.7.4-3.9-.3-5.7l.2.1c.1 0 .3 0 .4-.2l.2-.7.3.3c-.3 1-.5 2.3-.5 2.6 0 .2 0 .3.2.4a2 2 0 0 0 1.9-.2c1-.7 1.3-2.3 1.4-3 .1-.7 0-1.4-.2-2l.3-.4a47.2 47.2 0 0 0 1.1-13.7c0-3.3-.6-8-1.5-10.8-1-3-2.7-3.7-5.4-4.6l-.4-.2c-.2 0-.4 0-.6-.2-.5-.3-.8-.7-1-1a6 6 0 0 1-.4-1.8v-.2l.4-.6c.7-1.9.1-4.3-1.5-5.7a4.6 4.6 0 0 0-4.7-1c-.5.3-1 .6-1.3 1a6 6 0 0 1-1.3.7c-.4.2-.8.4-1 .9v.3c-.3 0-.8 0-1 .4a1 1 0 0 0 0 1.2c.2.4.8.7 1.5.7 0 1-.2 2.1-.4 3.1 0 .2 0 .3.2.4l.7.4v.2c-.1.2-.3.5 0 .8l.1.5c0 .7.3 1.1 1.5 1.3 2.2.4 4.5-1.5 5.3-3.5.5-1 .3-2.5-.2-3-.2-.1-.6-.4-1.3 0-.4.2-.6.6-.8.9a3 3 0 0 0-.8-2.2c-.4-.5-1-.8-1.8-.8-.6 0-1 .4-1.5.7l-.4.3-.2-.7c.6 0 1-.2 1.3-.5h.2v-.1c1.2-.7 2.7-1.6 3.9-1.2 2 .5 2.1 2.4 2.3 4.4v1.2c-.2.4-.4 1-.4 1.4 0 1.2 1.2 1.8 2.3 2.1l.9.7a6.4 6.4 0 0 1-7.9 1.6l-.6-.2V34c0-.1 0-.2-.2-.3-.8-.3-1.8.1-2.3.7l-.1.1-.6.3a8 8 0 0 0-2.6 2.9c-1.9 3-2.6 6.8-3.3 10l-1 5.8-.1.2-1.1 5.8v.4h.4c.3 0 .5-.2.8-.3a8 8 0 0 0-1 1.8c-.4.8-.5 1.5-.1 2.1.6 1.3 2.4 1.5 2.5 1.6 0 0 .2 0 .3-.2.3-.3.5-1 .5-2a4 4 0 0 0 .6-2.1c0-2.1 1-5 2-7.7l.9-2.7-.1 1.3c-.3 3.5-.5 6.8-1.1 10v.2l.3.1a48.7 48.7 0 0 1 10.3-.4c-3.1.7-6.3 1-9.5.6-.2 0-.4.1-.4.3-.4 2.3 0 4.6.5 6.8a61 61 0 0 1 1 8.8c0 1.6 0 3.2.3 4.9l.1 1.8c.3 3 .4 5 2.7 7.5a23.2 23.2 0 0 0 1.6 1.5c-.8 0-1.8-.2-2.2-.7a.3.3 0 0 0-.5 0c-.1 0-.2.2-.1.3.3 1.1 0 1.4-.7 2l-1 1c-.4.6-.8 2-.2 2.6 1.2 1.1 5.6.2 6 0 .9-.5 1.2-1.6 1.1-2.5a4 4 0 0 0 1.6 1.9l.7.5a45.4 45.4 0 0 1-26.8 2.5c-1.8-.2-3.4-.5-4.7-.5l-1.1.6-1.4.7c-1.5.2-2.5 0-2.7-.4-.3-.5.3-1.5.7-1.9.5-.6 1-1.2 1-1.9l.8-.2c.5 0 .9-.2 1 0 .2.1.4.6.6 1 .4.8.6 1.4 1 1.5h.3l.1-.3v-7.6l-.2-6.3a79 79 0 0 0 1 7c.1.3.2.7.5 1 0 .2 0 .2.2.3l-.1.7c-.2 1-.3 2-.2 3 0 1.3.6 2.6 1.7 2.7.5 0 1-.2 1.4-.6.6-.7.9-1.9.8-3l-.7-5c0-.1-.2-.3-.4-.3h-.1c.8-1.2 1-3 1.1-4.4v-1.9c0-3.3 0-6.6.9-9.8v-.3l-.4-.1c-1.3.2-3 .2-4.8.2a79.5 79.5 0 0 0 .6-.1v-.3c.2-2.5 0-6-.2-9.7-.2-3-.4-6.2-.4-9.2a76.1 76.1 0 0 0 .5 6 55.1 55.1 0 0 1 .4 13.1h.3a25.8 25.8 0 0 1 7.3-.4v-.3c0-4-.7-7.2-1.5-10.3l-.7-3c.4.9.8 2 1.2 3.6 0 .1.2.3.3.2.2 0 .3-.1.3-.3a7 7 0 0 1 1-3.2 10.6 10.6 0 0 0 .8-7l-1-5.1a305 305 0 0 1-1.1-5.4h-.3c-.8 0-2.2.3-2.9.2l-.3.1v.3l.4 1.6-.8-1.9c0-.2-.2-.3-.4-.3a5 5 0 0 0-1.9 1.6l.8-2.3.2-.3c.6.6 1.5 1.3 3 1.2 1.1 0 2-.6 2.7-1.5a3 3 0 0 0 .5-2.7c0-.4-.5-1-1.2-1.3-.4-.2-1-.3-1.8 0a6 6 0 0 0 2.7-3l-.1-.3h-.3c-1.6.4-2.5-1.5-3.4-3.5-.7-1.6-1.5-3.4-2.8-3.9-2-.8-5 .3-5.8 2.2-1 2-.5 5 .2 6.3v1c-2.7-.4-4.1.4-4.4 2.4l.1 1.3v.9c.1.8.4 1.6.6 2.3l.3.8a46.2 46.2 0 0 0 .6 3.7c-.2-2-1.4-6-1.4-6.2 0-.2-.2-.3-.4-.3-2.2.4-2.6 5.8-2.7 9.1v.5A486.8 486.8 0 0 1 36 68.8h.3c1.2-.4 2.4-.6 3.7-.4v.4l.2.5H40c-.4-.4-1-.9-3.8 0-.2.1-.3.3-.2.4.2 1.3.5 3 1.5 3.6.5.3 1 .3 1.6.2a83.3 83.3 0 0 1-.2 3.8h.3l2.2-.5c-.2.3-.3.7-.2 1.1v2.4l.3 5.2c.3 3.7.5 5.2 1 8a317 317 0 0 1 .2 3.3c-5.2 4.5-10 4.2-12 3.3a8 8 0 0 1-4.9-6.3c0-.2-.2-.3-.3-.3-1.2.1-2.5-.2-3.6-.7a3 3 0 0 1 1.7 0l.6.2c.6.3 1.4.6 1.8 0 .2-.2.4-1.3 1-5.5l.6-4.8a55.8 55.8 0 0 0-.3-22.2l.4-.1c.2 0 .3-.2.3-.4-.2-1.3.2-2.3.7-3.4l.6-1.7.1-.2c.6-.7.8-1.8.6-2.9-.2-.9-.8-2-1.3-2.8l-.1-.7-2.1-9V39c0-.2 0-.5-.3-.7-.4-.4-1.4-.6-6 .7-1.4.5-3.6.8-5.7 0a5.3 5.3 0 0 1-3.2-4.5 4 4 0 0 1 1.5-3.2c.2.3.4.5.7.6.6.4 1.2.6 1.9.8l.8.2c.8.4 1.7.6 2.8.8.5.5 1 .8 1.5 1 1.5.7 3.3.7 5.7-.2h.5l-.1.5c-.2.9-.1 1.8.3 2.5l.3.2.3-.1c.8-.8 2.3-1 3-.7.6.3 1.8.8 2.5.8 1.5 0 2.6-1.9 2.7-2.6 0-.5 0-1-.2-1.2-.4-.5-1-.6-1.3-.6H34l.1-.4c.3-.7.6-1.6 0-2.4-.2-.2-.5-.5-.8-.5-.4.1-.5.5-.6 1-.2.6-.4 1.3-.8 1.6-.6.5-1.6.7-2.5.9l-.7.1-.7.1.3-.2c.2-.1.3-.3.2-.5-.1-.1-.3-.2-.5-.1l-2 .9-1.3-.1-1-.1 1-.3.2-.3c0-.8-.5-1.7-1.2-2.1.3 0 .5 0 .7-.2.4-.3.7-.8 1-1.3.3-.5.6-1 1-1.1.2 0 .3 0 .4-.2V28c-.6-1-.6-2.1-.3-2.8.2-.3.3-.6.3-1 .8 0 1.4-.3 2-1l.1-.3s0-.2-.2-.2c-.5-.2-1-.8-1.4-1.5-.8-1-1.8-2.5-4.2-3a4 4 0 0 0-3 .8c-.7-.1-1.7.2-2.5.7-1 .9-1.6 2.4-1.3 4l.1.7c.2.9.4 1.8-.1 2.3l-.5.4c-1.2-.3-2-.1-2.5.7-.3.4-.9 1.4-1 2.4-1.3 1.9-2 4-2 6.2A84 84 0 0 1 11.7 58h.4c1.3-.8 3.9-1.4 7.2-.4a19 19 0 0 0 7.2.9l.1 1.3a20 20 0 0 1-9-.8c-1.4-.5-3-1.1-4.4-.4-1 .5-1.7 1.7-1.8 3.1a12 12 0 0 0 .3 3.6c1.2 6.3 1.1 11.4 1 16.8a293 293 0 0 0 .2 14.4c0 .2 0 .3.2.3l.8.4-.5.3v4.1c.1 0 .3.1.4 0 1.3-.4 3.3-.4 4.4.7l-1.5.1c-2 .1-3.8-.5-5.6-1l-1.8-.5-2.8-.9c-.6-.1-.6.6-.2.7Zm104.8-3a2 2 0 0 1-1.2 1.5c-.6.3-1.3.3-2 .3l-1.2.1v-.4l.6-.4.3-.3 1-.8c.8-.7 1.4-1.3 2-.9.4.2.5.4.5.8Zm-5.1 2v.5h-.3l.3-.5Zm-.7-21.8-.3-9.6a19 19 0 0 0 5.5-1.4c-.7 4.2-1 8.2-1.1 12v.1l-.3 4.4-.2 2.9-.2 1.9c-.5 0-1.8.1-3 .5V88l-.4-10Zm.2 14.7v.5l-.6-2c-.1-.4-.2-.8 0-1 0-.2.1-.3.3-.4l.3 3Zm3.8-3.2V89h.1l-.1.4v.1Zm-12 10c-.7 0-1-.1-1.3-.2l.3-.1c2.2-1.5 2.5-4.3 2.5-6.4l-.1-2.5h1.3c.7-.1 1.4-.5 1.8-1.1.3 1 .2 2.2 0 3.3a10 10 0 0 0 .4 4.6v.5c-.8.7-1.7 1.4-2.7 2h-2.1Zm2.2-10.2c.6 0 1.1-.2 1.7-.4-.4.4-.8.7-1.4.7a3 3 0 0 1-1.2 0v-.3h1Zm2-10.3c-.1 2.3-.2 4.5.2 6.8v.1c0 .6.2 1.3 0 2-.8.4-1.5.6-2.3.7h-1l-.1-.9L98 86c-.4-2.9-.6-5.7-.8-8.4a67 67 0 0 0-.8-8.8 9.2 9.2 0 0 0-.8-3c2 .5 4.2 1.1 6.5 1.4a61.7 61.7 0 0 0-.6 11.8ZM98 89.3l-.2-.2h.1v.2Zm-6.7-28H90a57.8 57.8 0 0 0 2.7-12.9c.2-2.1.5-4.3 1-6.4.3-1.2.7-2.3 1.2-3.4.2 1 .6 2 1.2 2.8v.1a40 40 0 0 1-5 19.8Zm1.6.9c-.5 1.1-.5 3.2-.4 4.2l-.4.2c-.5 0-1.3-.8-1.4-2-.1-1 .4-1.8 1-2.6.3 0 .8 0 1.2.2Zm12.3-16.7-.3-.2c-.2 0-.4.2-.4.3a94 94 0 0 1-1.6 11.8c-.5 2.5-1 4.8-1.3 8a41 41 0 0 1-1.6-.7c-1.9-.8-3.8-1.6-5.8-1.7a51 51 0 0 0 2.7-20.9c.4.3.9.5 1.4.6h.3c.1-.2.1-.3 0-.4-.8-2.8.2-6.2 2.5-7.9l1.4 5c0 .2.2.3.4.3l.3-.3a10 10 0 0 0-.4-5.2h.4c1 0 2-.4 3-1.2v.1l-.2.3c-.6 1.6-1.2 3.2-1.2 4.8 0 2 1.1 4.3 3 4.6.2 0 .3 0 .4-.2v-.3c-.2-1-.6-2.4-.3-3.6.2-.7.7-1.3 1.3-1.5l.9-.2a36.3 36.3 0 0 0-.1 15.1c.1 2 .4 4 .6 5.9 0 1.1.3 2.2.5 3.2l.6 3a13.8 13.8 0 0 1-8.7 2.3l.8-5a84 84 0 0 0 1.4-16Zm1.5-13.8-.4.1c-.9 1.1-2 1.8-3 1.8a2 2 0 0 1-.8-.2c-.5-1.8-1-3.8-.3-5.6.3-1 1.2-1.7 2.2-2a2 2 0 0 1 1.8.4c.4.3.6.8.8 1.4.4 1.5 0 3-.3 4.1Zm.8 10.3c-1.4-.6-2-2.3-2-3.7 0-1.2.3-2.4.8-3.8a4 4 0 0 0 1.3 1.8c.2.2.6.4 1 .4-.7.4-1.1 1-1.3 1.8a7 7 0 0 0 .2 3.5Zm-5.9-8.3.4.2c.3 1.1.6 2.4.7 3.6l-1-3.7ZM110 36a2 2 0 0 1-2-.1c-.6-.6-1-1.4-1.1-2.5V33c.8-1.8 1.4-3.8.9-5.7a4 4 0 0 0-1-1.7c-.7-.6-1.5-.8-2.5-.6a4 4 0 0 0-2.6 2.5 8.7 8.7 0 0 0 0 5.3v-.2c-.4-.4-.5-.8-.4-1.3 0-.2-.1-.4-.3-.4-.2 0-.4.1-.4.3-.2 1-1.2 1.7-2.1 2.3l-.6.5a8 8 0 0 0-1.9 1.8c.6-2.2 1.8-5.1 2.6-6.5.8-1.4 2.7-4.7 5.1-5.2l.6-.1c.9 0 1.8.4 2.6 1.2.9 1 1.4 2.1 2 3.3a72.2 72.2 0 0 1 2 6.3c0 .4-.4.8-.9 1Zm-11.7-1.3.6-.4c.7-.5 1.4-1 1.9-1.7a3 3 0 0 0 .7 1l-.2.1A7.8 7.8 0 0 0 98 42c-1.6-.7-2.3-2.7-2.2-4.3v-.1a10 10 0 0 1 2.5-2.9Zm18 27.6-.4-.4c-.3-.3-.8-.3-1.5-.4-.7 0-1.1 0-1.2-.2-.3-.4-.4-.9-.6-1.4l-1.9-7.7c-.3-4.3-.2-7.7.3-10.7 0-.7.2-1.4.6-1.9l1.8 10c.8 4.2 1.6 8.6 3.2 12.7h-.4Zm-2.4 1c.6-.2 1.3-.3 2-.3.6.7 1.2 1.7 1 2.5 0 .3-.1.5-.4.7-.5.3-1.4.4-2.1.3a9 9 0 0 0-.5-3.2ZM76.4 95.8l-.2-.3a5 5 0 0 0-.8-1.1c1.2-.8 1-2.8 1-3.7l-.2-2c-.5-4.6-1-9.4-1-14 0-2.1.4-4.1 1-6.4l.5 9.6.5 11.5v2.5h-.1l-.2.2-.2.8c-.2 1.2-.4 2-.4 2.9Zm8-39.8-.2-.6a28.6 28.6 0 0 1-.5-4.3l.7 4.9Zm1 7.1v.1Zm.2-2.1-.7-.2h-.2l.1-.9c.2.4.6.8.9 1l.1.2-.2-.1Zm-.5 3c.4 0 .8-.3 1-.6 0-.1.1-.6-.4-1a.6.6 0 0 0-.5 0l-.4.5.2-1.4.3.1c.4.2.8.4 1.3.4.2.4.3 1 .2 1.7 0 .5-.3 1.9-1.1 2.4-.3.2-.7.2-1 .2 0-.8.2-1.7.4-2.3Zm1-3.6c-.5-.5-1-.8-1-1.6 0-3-.5-6.2-1-9.2l-.3-1.6.4-3.2 1-6.8c.2-1.7 0-3-.5-3.7.9.6 1.4 1.5 1.9 2.7.9 3 1.3 8 1.4 10.6a46.8 46.8 0 0 1-1 13.6 7 7 0 0 0-.8-.8ZM84.5 38l-1 6.9v.8c-.5-3.3-.8-7.4.5-11.2.5.6.7 1.8.5 3.5Zm-1-4.2c-1.6 4.3-1.2 9-.6 12.7L83 48a22.4 22.4 0 0 0 .5 7.6L84 58c.1 1.6 0 3.3-.4 4.8a3.2 3.2 0 0 0-2.2-1.5 4.4 4.4 0 0 0-1.7 0 49.7 49.7 0 0 0-11.9.1c.6-3 .9-6.4 1-9.6.5-5.8.9-11.8 3.6-16.8l.6.2a7 7 0 0 0 9-2.2c.7.1 1 .3 1.5.5l-.1.1Zm-5 28.6 1.3-.2a4 4 0 0 1 2.1 1.1c1.5 1.7 1.5 4.6 1.1 6.8-.5 3-.5 5.3-.6 8.3l-.1 5.4c-.1 1-.7 4.5-1.1 5.5-.4 1-.6 2.3-.5 3.7l-.3-.1c-.8 0-1.7-.3-2.5-.6v-3l-.5-11.5-.6-11.5c0-.1 0-.3-.2-.3s-.4 0-.4.2a24.5 24.5 0 0 0-1.7 8.5c0 4.7.5 9.4 1 14v.3l.2 1.8c0 .8.2 2.6-.8 3l-1.1-1-.8-.8c-2.1-2.2-2.3-4.3-2.5-7l-.2-1.9-.3-4.8c0-2.3-.2-4.7-.6-7l-.4-2a18 18 0 0 1-.5-6.1c3.2.2 6.4 0 9.6-.8h.3Zm.4 34.2A9.1 9.1 0 0 1 78 93c.7.3 1.5.5 2.2.5l.7 1.4.2 1.5c0 .4.2.8 0 1.2 0 .1 0 .3-.2.4-.6 0-1.5-.5-2-1.4Zm-1.5-3.2c0 1 .3 2.2 1 3.6a3 3 0 0 0 1.9 1.6l-.6.2c-.5-.2-.9-.4-1.2-.7-1.7-1.3-1.6-2.3-1.1-4.7Zm-2.2 5.2c-.4.2-4.4 1-5.3.2-.2-.3 0-1.2.3-1.6l1-1c.5-.5 1-1 1-1.8.7.3 1.8.5 2.6.4l.8 1c.4 1 .3 2.5-.4 2.8Zm6.5-36.4c.8.3 1.6 1 1.6 2a4.3 4.3 0 0 0-1.6-2Zm-10-27c-1.1 2.1-2 4.6-2.4 7.6 0-1.8 0-3.6.7-5.8.1-.5.3-1.1.7-1.6l1-.2ZM64.9 61c0 .2 0 .5-.2.9l-.2-.6c-.3-.5-.7-.4-.8-.4-.2 0-.3.2-.3.3-.1.4 0 .7.4 1.3l.2.4c0 .2.1.3.2.3 0 .6 0 1-.2 1.3-.5 0-1.5-.4-1.8-1-.2-.5-.2-1 0-1.6.8-1.5 1.5-2.3 2.2-2.3h.6l-.1 1.4Zm0-2c-.7-.6-1.6-.2-2.4.2h-.2l1-5.2 1.1-5.9c.7-3.2 1.4-6.9 3.2-9.9.6-1 1.3-1.7 2-2.3l-.3.8c-.7 2.5-.7 4.7-.7 6.7s0 3.9-.6 6.2l-1.2 3.5a38.2 38.2 0 0 0-1.9 6ZM82 97c.2.4.2.7.1.8l-.2.2v-1.1ZM71 26.5l.7-.5c.4-.2.8-.5 1.2-.5.5 0 1 .2 1.3.5.5.6.6 1.4.5 2.6l.1.3h.4c.4-.1.6-.4.8-.7.1-.3.3-.6.6-.8h.5c.3.3.4 1.4 0 2.2-.7 1.7-2.7 3.4-4.5 3.1-1-.1-1-.3-1-.6s0-.6-.2-1v-.6c0-.4-.3-.6-.7-.8l.3-3.2Zm7.7 3.6.4 1a1 1 0 0 1-.4-.8v-.2Zm-2.4-7.5h-.7c-1.3 0-2.6.7-3.6 1.3l-.2.1c-.4.2-.7.4-1 .4h-.2v-.2l.6-.4 1.3-.8a6 6 0 0 1 1.2-.8 4 4 0 0 1 4 .8 4.6 4.6 0 0 1 1.4 4.6c-.2-2.1-.3-4.3-2.8-5Zm-7 2.6c.1-.1.2-.2.5-.2h.3l.2 1c-.4 0-.8-.2-1-.4v-.4Zm-18.8 75c-.7 0-1-1-1.1-2-.1-.9 0-1.9.2-2.8v-.5c.5 0 1 0 1.4-.4l.4-.5.5 3.5c.2.9 0 1.8-.5 2.4a1 1 0 0 1-1 .4Zm.7-7.7c0 .6-.2 1.2-.6 1.5a1 1 0 0 1-.9.2v-.3a5 5 0 0 0 1.5-1.5ZM39.3 72Zm12-29.4a6.8 6.8 0 0 1 2.1-2.6c1-.7 1.8-.6 2.3-.4.5.2.8.6.8.9.2.7 0 1.4-.4 2-.5.8-1.3 1.2-2.3 1.2a3 3 0 0 1-2.5-1Zm1.4-3c-.6.5-1.3 1.3-1.9 2.4a4 4 0 0 1-.6-1.5 17 17 0 0 0 2.5-.9Zm-13 35.5c.4-2.4.5-4 0-4.4a.6.6 0 0 0-.4-.2l-.5.2c-.3.4-.2 1.1 0 2v.1a1 1 0 0 1-.7 0c-.8-.6-1-2.1-1.2-2.9 2.2-.7 2.6-.3 2.8-.1l.5.2c.1 0 .5 0 .7-.2.2-.3.2-.6 0-1.2v-.2h.4v-.3c0-3 .4-6 .8-9a32 32 0 0 0-1-16.4l.6.5c.5.3 1.1.5 1.8.6 1.4.3 3.2.7 4.5 3.1l.4.2c.2 0 .3-.2.2-.4-.2-3.2-.8-5.4-3.2-7.5a3 3 0 0 0-4.3.2l.6-.7c.6-.4 1.7-.5 3.3-.3h.2l.1-.3v-.3c.9 1.2 1.8 1.9 2.7 2 1.6.4 2.4-.8 2.9-1.6.6-1.2.8-2.5.9-3.8 0-.9-.4-2.6-1.5-3.6-.8-.6-1.8-.8-2.8-.5-1.5.5-2.4 2-2.7 4.9-.3-1.3-.3-3.2.2-4.4.8-1.7 3.3-2.6 5-2 1 .5 1.8 2.1 2.5 3.7.9 1.9 1.8 3.8 3.4 3.8-1.3 2.2-4.7 3.2-6.1 3.6-.2 0-.3.2-.3.4.2.8.5 1.7 1 2.4l-.3.6a21 21 0 0 0-1.4 4.5 9 9 0 0 0-.5 1.5 63 63 0 0 0-.2 16.4c.2 3.5.4 6.8.3 9.2-1.4-.1-4.6-.2-6.2 1l-2.5.6.1-1.4Zm2.1-35.4c1-.8 2.2-.8 3.1 0 2 1.8 2.6 3.6 3 5.7-1.4-1.6-3-2-4.2-2.2-.7-.2-1.2-.3-1.6-.6-.4-.3-.8-.8-1-1.3 0-.7.3-1.2.7-1.6Zm5.9-8.7c.8-.3 1.5-.2 2.1.4a4 4 0 0 1 1.3 3 9.1 9.1 0 0 1-.8 3.4c-.6 1.1-1.2 1.5-2.1 1.4-1.3-.3-2.2-1.6-2.8-2.6.1-3.3.9-5.2 2.3-5.6Zm5.8 27.8Zm0-4.6-.1 1.1-.1.1a.3.3 0 0 0 0 .6v.2l.1 1.6-.5.6c-.1 0-.2 0-.3.2v.3l1 1.1 1.1 4.7c.7 2.9 1.5 5.9 1.5 9.7-2-.1-4.2 0-6.3.4a65 65 0 0 0-.4-12.5l-.3-3.1c-.3-3.2-.5-7.3.2-11.2a6.6 6.6 0 0 1 2.4-3l1.6 4.6v4.6ZM54 53v.7-.7Zm0 3.3v-.5h1c-.4.3-.7.8-1 1.2v-.7Zm.1 1.6c.5-.7 1.3-1.7 2-1.9h.5c.2 0 .3 0 .4-.2 0-.2 0-.3-.2-.4-.3 0-.5-.1-.8 0l-.3-.2-1.3-.2c.5-1 .4-2.6-.2-4.8l-.2-.6c0-1.7-.3-3.1-.7-4.4.7 0 1.6 0 2.2-.2l1 4.8 1 5.2a13 13 0 0 1 0 3.8c-.1 1-.5 2-.9 2.8l-.6 1.8c-.5-1.6-1-2.6-1.8-3.6l-.2-1.7.1-.2Zm-13.5 9.5Zm.4-11c0 1.3-.3 2.6-.5 4-.4 2.3-.8 4.6-.6 7.1v.2c-1 0-2.2 0-3.2.4.5-5.2.9-10.5 1.2-15.7V52c.2-2.4.5-7.5 2-8.3.2 1 1 4.1 1.2 5.7.2 2.2.1 4.7 0 7ZM19 102l-.6-2.2-.5-2.1c0-.2-.2-.3-.3-.3l-1.2-.2c.9-.1 1.7 0 2.4.5h.4l.1-.4c-1.1-3.6-.8-7.6-.6-11.1l.7-10.9c.2-2.5.3-5 1-7.5v-.1l.8 1.6c.6 1.1 1.3 2.3 1.5 3.6.4 2.2.3 5.3 0 7.3v.6c-.5 3.9-.9 7.5-2.2 11.3l.1.3.4.4-.2.2c-.6 1.2-.4 2.8-.1 3.1l.8.7.7.5.1.2c.7.9 2 2.6 3.5 3-1 .6-3.2 1.4-6.8 1.7v-.2Zm-6.5-36.7c-.2-1.3-.4-2.3-.3-3.4.1-1 .6-2.1 1.5-2.6 1.2-.6 2.5 0 3.8.4l.4.2c2.8 1 6.6 1 9 .6v1.1l.7 5.7a55.5 55.5 0 0 1-.3 15.3l-.7 4.7-.8 5.2c-.2.2-.7 0-1-.2l-.7-.2c-1-.3-2-.2-2.6.2l-.2-.2a55 55 0 0 0 2-11.2l.1-.6c.3-2.1.4-5.3 0-7.6-.2-1.4-1-2.6-1.6-3.8-.4-.8-.9-1.6-1.1-2.3.5-1.8 1-3 1.5-4.3V62c.1-.1 0-.3 0-.4a.3.3 0 0 0-.4 0c-1.8 1.6-2.3 3.1-1.8 5l-.3 1c-.6 2.5-.8 5.1-1 7.6l-.6 11c-.3 3.3-.5 7 .4 10.5a5 5 0 0 0-3.5 0c-.4 0-.8-.2-1.2-.4l-.1-4.8a165.5 165.5 0 0 1 0-9.3c0-5.5.1-10.6-1.1-17Zm8.4-1.6-.4 1.2c0-.4.2-.8.4-1.2ZM15 97.5l2.3.6.4 1.8v.1l.4 1.2a5 5 0 0 0-2.4-.5l-1.4.1V98l.7-.5Zm6.9-1.3-.7-.5a3 3 0 0 1 .2-2.3l.2-.2c1.1.7 2.6 1 4 1 .4 2 1.2 3.5 2.3 4.6-.2 0-.3.2-.3.2-.2.4-.5.6-.9 1h-.2l-.4-.2c-1.3-.1-2.7-2-3.2-2.7l-.2-.2-.8-.7ZM26 39.4l2 9.2.2.7c.5.8 1 2 1.3 2.8v.8c0-.3 0-.6-.2-.8l-.3-1c0-.2-.2-.3-.4-.3-.1 0-.3.2-.3.4a10 10 0 0 1-1.1 4l-2.3.1v-1c.7-2.4 1-4.9.9-6.5-.2-1.5-.8-3.6-1.4-5.7l-.6-1.8c0-.2-.2-.3-.4-.3s-.3.3-.2.4c1 5 1.1 9.5 1 13.7a19 19 0 0 1-.5 1.6c-.3.7-.2 1.3.3 1.5h.4c.7 0 1.4 0 2-.3.5-.2.9-.6 1.2-1.1l1-.3-.4.9c-.5 1-.9 2.1-.8 3.4a27.7 27.7 0 0 1-.2-1.7l-.3-.2c-3 .2-4.7 0-7.4-.9-3.6-1-6.2-.2-7.1.2.5-6-.2-12.3-1-18.6l-.3-2.1a6 6 0 0 0 3.3 3.3c2.2 1 4.6.5 6.2 0 4.4-1.2 5.2-1 5.4-.8v.4Zm.6 16.5a2 2 0 0 1-.4.4l-1.8.3h-.1V56h2.3Zm-1.9-10.2.4 2.1-.1 3c0-2-.2-3.6-.3-5.1Zm4.3 8.1-.2.7-.7.4c.3-.6.5-1.4.7-2.2l.2 1.1Zm-6.2-19.5 1.7.2a5.3 5.3 0 0 1-3.9-.4l2.2.2Zm-6.5-5.5a3 3 0 0 0 .5 2.1 4 4 0 0 0-2-.7h-.2a3 3 0 0 0-1.3.3v-.1a11 11 0 0 1 2.7-2.6l.6.3-.3.7Zm-1.5 2.1c1.3.1 2.3 1 3.3 2-.5 0-1-.2-1.6-.4l-.8-.3-1.7-.7-.4-.4 1.2-.2Zm11.4-3c-.6.2-1 .8-1.3 1.3-.2.4-.5.9-.8 1.1 0 0-.2.1-.8-.1-1.8-.7-4.1-2.6-4.2-3 0 0 0-.2.4-.6l.2.4c0 .1.3.3.6.1.5-.1 1.2-1 1.3-1.7l.5.6h.5l.6-.7 1.5-1.9.1.1 1.5.6c0 .3 0 .5-.2.7-.6 1.1-.2 2.4 0 3Zm-5.7-3.3c.2-.3.4-.4.5-.4.2 0 .2 0 .4.4l-.2-.1h-.3a1 1 0 0 0-.4 0Zm.4.8c-.1.5-.6 1-.7 1L20 26l.3-.3.6-.5v.3ZM17 29l.3-.5.3.1 1.2 1c.8.5 1.5 1 2.5 1.3l2.2.8c.5.1 1 .7 1 1.2-1.3.5-3 .4-4.5-.2-1.4-.5-3.2-2-2.9-3.7Zm4.5-9.4-.3-.2c.7-.5 1.5-.6 2-.5a6 6 0 0 1 3.8 2.8c.4.6.8 1.1 1.3 1.4a2 2 0 0 1-1.2.5c-.2-1.6-1.7-3.3-3-4-.3-.3-.8-.4-1.2-.4-.6 0-1 .2-1.4.4Zm-.3.7c0 .1.1.2.3.2 0 0 .2 0 .2-.2.4-.5 1.5-.5 2-.2 1.2.7 2.4 2 2.7 3.4L25 23l-.4-.2c-.2-.1-.4 0-.5.1-.3.8-1 1.4-1.5 2l-.4.5-.3-.7c-.1-.4-.3-1.1-1-1.1-.8 0-1.5 1.1-1.6 1.9v.2c-.4.4-1.1 1.3-1 1.8.1.6 2.2 2.2 3.8 3l-.9-.2A7 7 0 0 1 19 29l-1.3-1h-.2l.5-1c.2-1 0-1.9 0-2.7l-.2-1.5c0-.8.4-1.8 1-2.3.2-.2.6-.4 1-.3l.4-.1.2-.3c.3.1.4.3.6.5Zm-4 3.4c-.2-1.3.1-2.4.8-3.2a4 4 0 0 0-.7 2.3c0 .6 0 1.1.2 1.6a6 6 0 0 1 0 2.3c0 .3-.3.6-.4.9l-.3-.1.2-.3c.7-.8.5-1.9.3-2.9l-.1-.6Zm2.5 9.7h-.2l-.1-.2.3.2ZM13.5 29l.5-1c.2-.3.6-.4 1-.4L13.6 29Zm20.1 3.8-.2.8c0 .4.5.5.8.5.3 0 .7.1.9.4v.7c0 .5-1 2-2 2-.4 0-1.6-.4-2.1-.7-.3-.2-.7-.3-1.2-.3-.8 0-1.7.3-2.3.8a2.8 2.8 0 0 1 0-2.4 8.6 8.6 0 0 0 2.2-.3c1-.2 2-.4 2.8-1 .6-.5.8-1.3 1-1.9V31l.2.1c.4.5.1 1.2 0 1.7h-.1Z"/>
</svg>
