<svg xmlns="http://www.w3.org/2000/svg" width="125" height="125" fill="none">
  <path fill="#78E0ED" d="M41.1 23.2H38v3.2h3v-3.2Zm13.3-.2h-3.1v3.2h3.1V23ZM68 23h-3v3.2h3V23ZM27.2 36.8H24v3.3h3.2v-3.3Zm13.6 0h-3.2v3.3h3.2v-3.3Zm13.6 0h-3.1v3.3h3.1v-3.3Zm13.6 0h-3v3.3h3v-3.3Zm13.7 0h-3.2v3.3h3.2v-3.3ZM27.2 50.6H24v3.2h3.2v-3.2Zm13.6 0h-3.2v3.2h3.2v-3.2Zm13.6 0h-3.1v3.2h3.1v-3.2Zm13.6 0h-3v3.2h3v-3.2Zm13.7 0h-3.2v3.2h3.2v-3.2ZM27.2 64.4H24v3.3h3.2v-3.3Zm13.6 0h-3.2v3.3h3.2v-3.3Zm13.6 0h-3.1v3.3h3.1v-3.3Zm13.6 0h-3v3.3h3v-3.3Zm13.7 0h-3.2v3.3h3.2v-3.3ZM40.8 78.2h-3.2v3.3h3.2v-3.3Zm13.6 0h-3.1v3.3h3.1v-3.3Zm13.6 0h-3v3.3h3v-3.3Z"/>
  <path fill="#E8E7F8" fill-rule="evenodd" d="M23.6 110.2c5.6-2.7 9.2-12.3 9.2-18.6 0-6.3-5.4-7-9.3-4.2-2 1.5-3.7 3.9-4.6 5.2-.5.9-2 2.5-3 4.3-1.8 2.6-3 5.5-2 8.9 1 4.4 6 6.2 9.7 4.4Z" clip-rule="evenodd"/>
  <path fill="#FCC" d="M105 38c-.3 2.2-.8 4.2-1.3 6.3L103 48l-.3 3.4a283 283 0 0 0-.7 13l-.8 26c0 2.5 0 5-.2 7.4 0 3.4-.7 7.2 2 9.9a5 5 0 0 0 6.9 0 7.7 7.7 0 0 0 2-5.8l-.1-3.4-.2-6.5-.5-13-.4-13-.2-6.5c0-2.2-.3-4.3-.5-6.5-.2-2.6-.2-5.3-.8-7.9a79 79 0 0 1-1.5-7c-.2-1.3-2.7-1.4-2.9 0Z"/>
  <path fill="#CFE5DC" d="M75.4 54.5c-.6.4-1 1-1.2 1.5-.2.6-.4 1.2-.4 1.8-.2.9-.3 1.7-.3 2.6-.2 1.7-.4 3.4-.4 5.1-.2 3.4 0 6.8 0 10.1.3 6.7.8 13.4 1 20.1 0 3.8-.2 7.6-.4 11.4 0 1.5 2 3 4.2 2.9 2.2 0 4.1-1.3 4.1-3 0-3.3-.2-6.7-.4-10L81 87c-.4-6.8-.9-13.5-.9-20.2v-8.6l-.1-1.5c0-.3 0-.7-.3-1.1-.2-.4-.5-.8-1-1.1-.3-.3-1-.5-1.6-.5-.6 0-1.2.2-1.6.5Z"/>
  <path fill="#1A174F" d="m120 108-11 .6.5.6c-.5-24.7 1.3-50.8-.4-74.8-7.9.6-15-2.8-13 8.1v66.7l.6-.6h-7l.6.6c-.7-18.7 1-38.9-.8-57-4 .5-9.5-1-12.8.6 0 18.9.1 37.7.3 56.5l.5-.6h-7l.7.6-.2-37.9c-2.9-1.5-7.8 0-11.3-.5-5.5 4.6-.3 29.1-2 38.5l.7-.6h-7l.6.6-.2-31c-2.8-1.7-7.7-.2-11.2-.6-5.4 3.3-.5 23.9-2 31.7l.6-.6h-7l.6.6c-.3-12 3.2-15.8-11.3-14.2-4.7.5-1 10.3-2 14.3l.5-.6c-3.6 1-16.1-1.1-16 1.8 15.6-.8 18 2.8 16.6-14.9l-.6.6h12.2l-.6-.7c.8 7.6-3.6 16.6 7.6 14.2 1.7-9.7.8-21.2 1.3-31.5l-1 .5 11.8-.1-.6-.6.1 31c1.7 1.6 5.3.2 7.6.6 1.6-12 0-24.8.6-37.4V72c0-.3.5 0 .5 0 4 0 10.5 1 11 0 .4-1-.8-.7-.7-.6.2.1.2 25.3.2 37.9 1.6 1 6.6 1 8.2 0l-.3-56.5-.6.6h12.2l-.6-.7.3 56.4c1.3 1.3 6.7 1 8.1 0v-74l-.5.6 12.3-.2-.6-.6-.1 74.1c.3 1.4 14.4.8 11.7-1Zm-.7-94.6-.2-.2c-.2-.2-.5-.3-.8-.1l-9.4 5-1.3.6c-.3.2-.4.4-.3.6.2.2.6.3.9.2l8.1-4.3a109 109 0 0 1-15 13c-6.8 4.9-14.1 9.4-21.9 13.7A276.3 276.3 0 0 1 5.6 69c-.8.2-.4 1 .3.8a180 180 0 0 0 22-5.3 278.4 278.4 0 0 0 72-34.1c6.2-4.4 12-9 16.9-14.2l-2.1 4.8-.5 1c-.2.6 1 .8 1.2.3 1-2.6 2.2-5.1 3.3-7.7l.5-1v-.2Z"/>
</svg>
