<svg xmlns="http://www.w3.org/2000/svg" width="125" height="125" fill="none">
  <path fill="#78E0ED" d="M78.56 49.6h-3.15v3.25h3.15V49.6Zm13.29-.2H88.7v3.25h3.15V49.4Zm13.62 0h-3.16v3.25h3.16V49.4ZM78.2 63.22h-3.15v3.24h3.15v-3.24Zm13.65 0H88.7v3.24h3.15v-3.24Zm13.62 0h-3.16v3.24h3.16v-3.24Zm13.64 0h-3.15v3.24h3.15v-3.24ZM78.2 77h-3.15v3.24h3.15V77Zm13.65 0H88.7v3.24h3.15V77Zm13.62 0h-3.16v3.24h3.16V77Zm13.64 0h-3.15v3.24h3.15V77ZM64.59 90.8h-3.16v3.25h3.16v-3.24Zm13.61 0h-3.15v3.25h3.15v-3.24Zm13.65 0H88.7v3.25h3.15v-3.24Zm13.62 0h-3.16v3.25h3.16v-3.24Zm13.64 0h-3.15v3.25h3.15v-3.24ZM78.2 104.62h-3.15v3.24h3.15v-3.24Zm13.65 0H88.7v3.24h3.15v-3.24Zm13.62 0h-3.16v3.24h3.16v-3.24Z"/>
  <path fill="#CFE5DC" fill-rule="evenodd" d="M12.81 40.8a26.83 26.83 0 0 0 2.36 16.42c2.78 5.66 7.42 8.44 12.55 11.72 4.43 2.83 11.31 4.87 16.4 2.8C51.62 68.68 56.38 55 44 51.88c-6.49-1.65-11.9-3.8-20.68-12.9-4.43-4.57-9.27-6-10.52 1.84v-.01Z" clip-rule="evenodd"/>
  <path fill="#FCC" fill-rule="evenodd" d="M76.43 78.79c-2.3-.22-6.59.02-9.23.15-4.35.2-5.22 4.04-3.44 7.23 3.57 6.41 12.44 4.18 15.49-1.3 1.62-2.94 1-5.73-2.82-6.08Z" clip-rule="evenodd"/>
  <path fill="#E8E7F8" fill-rule="evenodd" d="M59.94 24.2c.88-5.65-7.82-13.08-15.31-16.15-7.32-2.99-12.11.9-11.6 5.29.28 2.25 1.85 4.76 2.77 6.02.64.88 1.58 2.74 2.83 4.45a13.93 13.93 0 0 0 9 5.89c6.1 1.28 11.72-1.7 12.3-5.48v-.01Z" clip-rule="evenodd"/>
  <mask id="a" width="69" height="113" x="21" y="6" fill="#000" maskUnits="userSpaceOnUse">
    <path fill="#fff" d="M21 6h69v113H21z"/>
    <path d="M88.93 60.32a11.29 11.29 0 0 0-.17-1.35c-.29-1.57-.9-3.35-1.83-5.28-1.02-2.13-1.98-4.6-.39-6.9a13.8 13.8 0 0 0 1.93-4.22c.41-1.55.6-3.2.51-4.78-.17-3.5-1.55-6.5-3.86-8.44-2.1-1.76-3.15-3.16-3.13-5.93a8.9 8.9 0 0 0-2.14-5.68 19.33 19.33 0 0 0-4.6-4.01c-4.24-2.77-7.34-4.58-10.59-5.62A23.15 23.15 0 0 0 59.4 7.1a41.61 41.61 0 0 0-6.5.06c-2.17.17-4 .58-5.45 1.22a7.18 7.18 0 0 0-2.78 2.03c-.2.26-.38.54-.53.82-.65.23-1.15.5-1.5.82a6.05 6.05 0 0 0-2.06 4 9.8 9.8 0 0 0 .59 4.17c.36 1.05.83 2.01 1.24 2.76-2.2-2.38-3.2-4.71-3-6.93a7.26 7.26 0 0 1 2.03-4.18 9.4 9.4 0 0 1 1.77-1.5l1.32-.79-1.5.33c-3.2.69-5.64 1.6-7.7 2.85a24.7 24.7 0 0 0-4.1 3.14A19.31 19.31 0 0 0 28 19.92a14.14 14.14 0 0 0-1.82 4.72c-.31 1.75-.25 3.52.2 5.27.3 1.17.56 2.35.8 3.5a24.4 24.4 0 0 0-2.54 3.34c-1.46 2.29-2.5 4.7-2.57 6.02v.06c-.08 1.29-.2 3.44.59 6.34a25.9 25.9 0 0 0 4.4 8.6c-.72 2.63-1.57 5.38-2.32 7.81-1.14 3.67-2.03 6.57-2.1 7.88-.07 1.17.11 2.52.5 3.72a7.15 7.15 0 0 0 2.27 3.46 5.22 5.22 0 0 0 3 1.1 9.36 9.36 0 0 0 .12 3.12c.17.8.45 1.55.82 2.23a7.1 7.1 0 0 0 7.71 3.63 9.42 9.42 0 0 0 3.83-1.68 8.84 8.84 0 0 0 3.43-4.53c0 2.13-.45 4.24-.82 5.98-.12.57-.24 1.12-.32 1.6-1.3 7.38-1.96 9-5.7 17.48l-.06.14.46.2.06-.14c1.93-4.38 2.98-6.77 3.76-9.12a56.36 56.36 0 0 0 1.97-8.47L44 90.6l.02-.09c.24-1.16.52-2.46.68-3.85.19-1.66.16-3.09-.07-4.38a9.4 9.4 0 0 0-.69-3.42c-.21-.54-.44-1-.63-1.34l.76.34c.91.37 2.32.81 3.87.84l1.18.02-1.07-.5c-.02-.02-2.48-1.17-5.14-2.98-2.42-1.65-5.5-4.18-6.4-6.9a601.33 601.33 0 0 0-2.9-8.5c-.25-.75-.59-1.48-.95-2.26-.84-1.85-1.7-3.75-1.47-5.63.27-2.16 1.72-4.66 2.1-5.29.6.25 2.33.94 4.4 1.23 1.5.2 2.9.16 4.13-.13a7.5 7.5 0 0 0 3.9-2.24.3.3 0 0 0 .08-.24c0-.1-.02-.3-.92-1.17-.43-.42-.87-.8-.92-.85-1.54-1.18-3.56-1.57-6.01-1.16-.59.1-1.24.32-1.93.55-1.34.45-2.73.92-3.77.56-.5-.17-.86-.45-1.09-.82a1.95 1.95 0 0 1-.2-1.35v-.01c0-.01.12-1.01.82-1.96.95-1.3 2.45-1.91 4.47-1.84 4.68.17 8.96 1.04 9.55 1.16.17.17.7.7 1.26 1.48a8.31 8.31 0 0 1 1.62 3.53c.28 1.84 0 3.85-.26 5.79l-.17 1.24a169.22 169.22 0 0 1-.66 4.66c-.16.9-.28 1.62-.08 2.25.23.7.81 1.2 1.9 1.63.28.1.54.21.8.32a22.54 22.54 0 0 0-.88.21 11.5 11.5 0 0 0-1.54-.95c-1-.5-1.66-.59-2-.27-.28.27-.44.8-.2 1.26.19.33.65.73 1.82.73.5 0 1.12-.08 1.8-.22.3.2.57.43.83.67.37.32.55.69.56 1.1 0 .87-.84 1.68-.85 1.69l-.15.14.1.18c.03.04.6.96 1.81 1.02h.09l.07-.05c.7-.49 1.62-.96 1.92-.86.13.04.28.06.46.1.67.1 1.9.3 4.76 1.76a18.3 18.3 0 0 1-7.31-.36l-.08-.03-.08.03s-.72.27-2 .46c-1.2.17-3.15.32-5.65 0l-.63-.08.4.5c.03.02.6.71 1.65 1.46a9.8 9.8 0 0 0 4.55 1.8 81.86 81.86 0 0 0 2.53.24c.12.14.3.4.4.76.22.8-.06 1.75-.8 2.77l-.02.04-.02.04c0 .03-.22.74-.31 1.64-.13 1.24.04 2.2.5 2.83.4.57 1.02.87 1.84.9h.2c2.84 0 5.47-1.67 7.17-3.07a22.45 22.45 0 0 0 5.24-6.24 29.17 29.17 0 0 0 3.32-8.39c.47-1.88.95-3.82 1.6-5.67l.12-.36c.31-.87.66-1.86.83-2.87.2-1.2.1-2.16-.3-2.95-1.29-2.48-2.1-3.17-2.14-3.2l-.18-.15-.17.17a7.36 7.36 0 0 1-3.36 1.8c-1.93.47-5.04.37-8.91-2.67a40.21 40.21 0 0 1 3.1-2.05c2.5-1.27 5.17-.69 7.22-.04l.16.06c.74.23 1.5.48 2.2.48.38 0 .7-.07.99-.22.5-.27.87-.76 1.1-1.5.19-.6.2-1.23.04-1.86-.13-.5-.37-1-.7-1.5a6.76 6.76 0 0 0-2.17-1.98 8.27 8.27 0 0 0-3.29-.67c-1.25-.04-2.36 0-3.65.03-1.9.05-4.27.11-8.03-.03a30 30 0 0 1-10-2.43 22.18 22.18 0 0 1-5.1-3.06 14.28 14.28 0 0 1-3.7-4.45c.14-.38.18-.64.2-.72.48-1.5.73-2.8.73-3.83a4 4 0 0 0-.45-2.03c-.44-.72-1.03-.83-1.06-.83l-.09-.02-.08.05c-.65.4-1.03 1.1-1.1 2.03-.04.64.07 1.18.09 1.26A12.5 12.5 0 0 0 34.82 26a6.9 6.9 0 0 1-.47.98 10.5 10.5 0 0 1-3.93 3.71c-.94.55-1.89 1.32-2.83 2.28a83.04 83.04 0 0 0-.74-3.19c-1.82-7.17 3.32-13.27 8.75-16.59a22.1 22.1 0 0 1 6.35-2.51 8.88 8.88 0 0 0-2.25 2.74 6.9 6.9 0 0 0-.79 2.58c-.26 2.86 1.32 5.84 4.71 8.86l.1.1.35-.33-.08-.11c-.02-.02-1.5-1.99-2.35-4.46-1.13-3.28-.68-5.85 1.33-7.64.22-.2.52-.38.89-.54a4.54 4.54 0 0 0-.23 1.7c.1 1.6.4 3.1.9 4.44a11.3 11.3 0 0 0 2.38 3.84 15.84 15.84 0 0 0 5.61 3.78c2.01.84 4.14 1.36 6.4 1.91h.01l.86.22c2.44.6 4.92.53 7.32.47 1.88-.05 3.82-.1 5.72.17l.63.1c.54 2.03.72 4.16.9 6.22.1 1.36.22 2.77.44 4.13a7.22 7.22 0 0 0 1.21 3.21 3.1 3.1 0 0 0 3.13 1.25c.67-.1 1.44-.5 2.12-1.1a4.52 4.52 0 0 0 1.36-1.96c.49-1.68-.15-3.59-.78-5.25-.4-1.04-.88-1.97-1.44-2.78a9.87 9.87 0 0 0-4.47-3.53c-.64-.26-1.33-.46-2.07-.62a24.21 24.21 0 0 0-4.3-8.16 23.98 23.98 0 0 0-6.76-5.88 28.12 28.12 0 0 0-11-3.49c-1.32-.11-2.6-.11-3.83 0-.75.07-1.98.18-3.13.47l.23-.3c1.38-1.73 4.02-2.76 7.87-3.05a49.4 49.4 0 0 1 3.8-.16c7.27 0 11.22 2.07 18.23 6.64 4.36 2.84 6.55 5.96 6.52 9.27-.04 2.97 1.09 4.46 3.3 6.32 4.83 4.04 4.58 12.08 1.33 16.77a5.16 5.16 0 0 0-.89 3.74c.17 1.3.72 2.58 1.24 3.66.33.68.61 1.34.86 1.98a13.2 13.2 0 0 0-1.96-2.16c-.65-.58-1.66-1-2.84-1.2a7.41 7.41 0 0 0-3.05.1 10.46 10.46 0 0 0-4.51 2.87 9.43 9.43 0 0 0-2.58 4.69c-.09.48-.14 1.3-.03 2.16.08.67.3 1.57.83 2.08.56.53 1.13 1 1.69 1.42a8.17 8.17 0 0 0-3.35 3.85 4.86 4.86 0 0 0-.25 3.92c.2.46.5.87.9 1.22.42.35.93.64 1.54.84a9.3 9.3 0 0 0 2.97.48c1.22 0 2.45-.22 3.66-.64l-.32.2c-4.42 2.5-7.47 3.7-16.41 3.74a18.8 18.8 0 0 0-6.06.96 14.7 14.7 0 0 0-4.72 2.69c-2.57 2.18-4.56 5.32-6.09 9.61-.4 1.12-.66 2.23-.78 3.29-.12 1-.1 1.97.03 2.87a6.89 6.89 0 0 0 2.05 4.13 5.04 5.04 0 0 0 2.77 1.3 5.9 5.9 0 0 0 3.3-.59 5.62 5.62 0 0 0 2.05-1.51c.43-.54.69-1.14.79-1.84.17-1.27-.23-2.62-.61-3.94-.31-1.07-.6-2.08-.6-3 .01-2.82 1.68-7.77 7.8-8.5.7-.08 1.37-.12 2.02-.12 4.83 0 8.37 2.3 11.06 7.13 3.06 5.48 4.28 16.61 1.03 25.75l-.05.14.47.17.06-.14c.78-2.2 1.33-4.61 1.64-7.16.3-2.37.37-4.8.22-7.23-.27-4.64-1.34-8.93-2.93-11.78-1.6-2.86-3.45-4.83-5.67-6.02-2.23-1.2-4.82-1.6-7.9-1.24-1.47.18-2.77.6-3.9 1.24a8.34 8.34 0 0 0-2.55 2.26 9.49 9.49 0 0 0-1.8 5.5c-.01 1 .3 2.09.62 3.15.36 1.26.74 2.56.59 3.72-.18 1.27-1.01 2.24-2.56 2.97-2.02.95-4.03.72-5.51-.64-1.69-1.54-2.88-4.9-1.16-9.74.78-2.19 1.7-4.12 2.75-5.72a16.6 16.6 0 0 1 3.6-4.02 14.16 14.16 0 0 1 4.51-2.38c1.66-.52 3.51-.8 5.53-.8 4.38-.03 7.47-.32 10-.96a25.4 25.4 0 0 0 6.65-2.85c.54-.3 1.03-.71 1.45-1.22a10.73 10.73 0 0 0 4.17-3.54 17.6 17.6 0 0 0 3.03-11.08Zm-7.7 7.3a9 9 0 0 1-5.37-1.7c.48-.2.99-.37 1.52-.48a4.75 4.75 0 0 1 3 .23c.79.36 1.4.98 1.83 1.84-.32.06-.65.1-.97.11Zm-5.9-1.44a9.84 9.84 0 0 0 5.93 1.95 8.8 8.8 0 0 0 1.15-.14c.37.99.48 2.17.3 3.36a6.72 6.72 0 0 1-1.31 3.19 11.2 11.2 0 0 1-3.75 1.06c-1.34.13-2.6 0-3.77-.4a3.33 3.33 0 0 1-2.13-1.79c-.42-.96-.34-2.2.24-3.5.39-.85.87-1.6 1.45-2.24.55-.6 1.18-1.1 1.9-1.49ZM83 72.46c.44-1.55.4-3.22-.1-4.6a8.65 8.65 0 0 0 2.38-1.06 11.5 11.5 0 0 0 2.41-2.1c.23-.26.42-.54.59-.85a17.86 17.86 0 0 1-.8 3.3 16.52 16.52 0 0 1-2 3.97 10.32 10.32 0 0 1-3.13 2.9c.27-.48.49-1 .65-1.56Zm-.29-5.06a4.5 4.5 0 0 0-1.8-2.03 4.5 4.5 0 0 0-2.28-.57 8.2 8.2 0 0 0-3.26.8 18.2 18.2 0 0 1-1.83-1.54c-.44-.41-.61-1.21-.68-1.8a7.3 7.3 0 0 1 .03-1.98c.53-3.01 3.61-6.29 6.72-7.16 1.55-.43 4.16-.13 5.43 1 .85.74 1.6 1.59 2.15 2.45a7.3 7.3 0 0 1 1.1 2.68v.02c.08.46.12.93.15 1.41a5.2 5.2 0 0 1-1.13 3.69 9.57 9.57 0 0 1-4.6 3.03Zm-22.8-40.12-.87-.22c-4.53-1.1-8.45-2.07-11.76-5.55-1.9-1.99-2.95-4.67-3.14-7.96v-.02s-.05-.36.03-.86c.06-.35.17-.69.32-1.02 1.22-.39 2.66-.52 3.53-.6 4.6-.42 10.04.86 14.54 3.43 4.95 2.83 9.07 8 10.74 13.5l-.4-.07a24.46 24.46 0 0 0-3.52-.22c-.77 0-1.54.02-2.28.04-2.37.07-4.81.13-7.19-.45ZM22.56 42.8c.07-1.24 1.07-3.56 2.5-5.78a24.9 24.9 0 0 1 2.24-3 72.16 72.16 0 0 1 1.45 14.34c0 2.01-.5 4.88-1.53 8.78a24.38 24.38 0 0 1-4.27-8.8c-.57-2.46-.46-4.35-.4-5.48l.01-.06Zm12.57-16.22c.37.67.81 1.32 1.31 1.93 1.39 1.7 3.25 3.2 5.53 4.45a29.05 29.05 0 0 0 6.47 2.55c1.98.52 4 .84 5.7.9 3.78.15 6.15.08 8.06.03 1.29-.03 2.4-.06 3.63-.02a7.8 7.8 0 0 1 3.07.61c.56.27.8.52.8.52v.02l.03.02s.63.5 1.15 1.27c.69 1 .89 1.98.6 2.9-.19.61-.47 1-.85 1.2-.72.38-1.78.04-2.8-.29h-.03l-.13-.05c-1.46-.46-2.67-.7-3.8-.73a7.58 7.58 0 0 0-3.8.8 42.22 42.22 0 0 0-2.94 1.92c-.53.37-.58.43-.6.55 0 .1.03.18.1.23a14.33 14.33 0 0 0 5.43 2.9 8.27 8.27 0 0 0 6.83-1.12c.34-.22.6-.43.76-.58.29.32.95 1.14 1.85 2.88.8 1.57.02 3.8-.55 5.42l-.13.36a60.9 60.9 0 0 0-1.6 5.71l-.4 1.55c-.64 2.5-1.81 4.8-2.88 6.72a22.82 22.82 0 0 1-4.84 5.86c-1.69 1.45-4.3 3.2-7.12 3.2l-.2-.01c-.65-.02-1.13-.25-1.44-.68-.37-.51-.5-1.33-.42-2.38a8.6 8.6 0 0 1 .3-1.61c.44-.63.73-1.24.86-1.81.11-.49.1-.95-.01-1.37a2.4 2.4 0 0 0-.41-.83c.04-.27-.23-.32-.4-.35l-1.02-.2.25.2c-.45-.04-1.05-.1-1.79-.19a9.32 9.32 0 0 1-5.39-2.59c2.24.22 4 .08 5.1-.08 1.09-.16 1.76-.36 2.02-.45a17.78 17.78 0 0 0 8.2.21l.65-.15-.6-.32c-3.4-1.8-4.8-2.03-5.56-2.16a3.1 3.1 0 0 1-.4-.08c-.31-.1-.8.03-1.48.4-.35.19-.66.4-.8.48a1.83 1.83 0 0 1-1.2-.62c.3-.32.86-1.06.85-1.9 0-.55-.25-1.05-.73-1.47l-.52-.44a16 16 0 0 1 1.14-.25l.29.13c.7.34.93.45 1.77.38.43-.03.74-.18.83-.42a.41.41 0 0 0-.08-.43c-.18-.22-.6-.33-1.25-.33h-.03c-.41 0-.9.05-1.46.14-.3-.14-.77-.35-1.47-.63-.93-.36-1.43-.76-1.6-1.3-.17-.52-.05-1.17.1-2v-.01l.13-.83c.21-1.41.39-2.68.53-3.86.05-.4.1-.8.17-1.23.27-1.98.55-4.02.26-5.94a8.97 8.97 0 0 0-1.71-3.75c-.7-.96-1.38-1.59-1.38-1.6l-.05-.04-.07-.02c-.05 0-4.64-1-9.7-1.18a6.57 6.57 0 0 0-3.13.57c-.71.34-1.3.84-1.77 1.47a5.1 5.1 0 0 0-.92 2.2c-.1.64 0 1.2.27 1.68.29.48.74.83 1.36 1.04.3.1.63.15 1 .15.99 0 2.1-.38 3.1-.7.67-.24 1.3-.45 1.85-.54 2.3-.38 4.2-.02 5.62 1.07.05.03.47.41.88.8.47.47.66.7.73.8-2.19 2.3-5.28 2.42-7.5 2.12a17.08 17.08 0 0 1-4.45-1.28l-.2-.1-.12.2c-.02.03-.5.77-1.03 1.84-.48.99-1.1 2.46-1.27 3.84-.26 2.02.64 4 1.51 5.9.35.77.69 1.5.93 2.21.84 2.38 1.8 5.24 2.89 8.5a10.4 10.4 0 0 0 2.64 3.94 26.65 26.65 0 0 0 3.97 3.23 42.87 42.87 0 0 0 4.01 2.4 11.52 11.52 0 0 1-3.93-1.44l-1.32-.84.98 1.21a9.1 9.1 0 0 1 1.17 2.24 8.63 8.63 0 0 0-1.62-2.01 8.7 8.7 0 0 0-4.52-2.02c.13-.83.11-1.71-.05-2.62a12.96 12.96 0 0 0-1.5-3.85c-1.41-2.56-3.68-5.66-6.75-9.23a38.73 38.73 0 0 1-1.5-1.84c1.12-4.14 1.66-7.18 1.66-9.3a72.27 72.27 0 0 0-1.54-14.8 13.53 13.53 0 0 1 2.96-2.42 12.8 12.8 0 0 0 2.65-2.02 9.35 9.35 0 0 0 1.8-2.54ZM51.9 59.5c.84-.08 1.26 0 1.43.08-.06.02-.17.06-.33.07-.53.04-.76 0-1.1-.15ZM33.72 75.8a6.95 6.95 0 0 1 1.97-.26c.36 0 .73.03 1.1.07a6.1 6.1 0 0 1-1.46 2.8 9.1 9.1 0 0 1-4.1 2.43c-.79.25-1.54.39-2.23.41.24-1.2.72-2.29 1.4-3.18a6.35 6.35 0 0 1 3.32-2.27Zm-6.28-17.53c.4.52.83 1.04 1.27 1.56 3.05 3.54 5.3 6.61 6.68 9.14a12.16 12.16 0 0 1 1.46 3.7c.1.57.19 1.46.04 2.45a8.46 8.46 0 0 0-3.32.2 6.96 6.96 0 0 0-3.8 2.77 8.22 8.22 0 0 0-1.29 3.16 4.8 4.8 0 0 1-2.77-1.01c-1.95-1.53-2.7-4.57-2.58-6.76.07-1.24 1-4.26 2.08-7.75.72-2.32 1.53-4.93 2.23-7.46Zm1.4 24.22a9 9 0 0 1 .07-.73c.77-.02 1.6-.16 2.47-.44 1.6-.5 2.9-1.21 3.9-2.12a6.72 6.72 0 0 0 2.03-3.52c1.7.3 3.28 1 4.26 1.9a8.06 8.06 0 0 1 2.55 4.76c0 .3-.02.6-.06.9-.26 2.08-1.43 3.9-3.48 5.4a8.54 8.54 0 0 1-4.99 1.7c-.89 0-1.74-.16-2.51-.48-2.75-1.14-4.41-4.03-4.24-7.37Zm5.94-63.4c.14.05.4.2.63.57.42.7.71 2.22-.34 5.45v.05l-.03.12c-.48-1.1-.8-2.26-.94-3.47v-.03s-.12-.53-.08-1.12c.05-.73.31-1.26.77-1.57Zm13.86 40.54c-.85.15-1.51.16-1.99.05-.41-.1-.57-.3-.62-.4a.57.57 0 0 1 .1-.64c.03-.03.1-.05.2-.05.27 0 .71.14 1.23.4.34.18.7.4 1.08.64Zm25.37-31c3.59.84 6 2.98 7.36 6.56.6 1.58 1.2 3.4.76 4.92-.16.56-.6 1.18-1.2 1.72-.61.55-1.29.9-1.86.99-.17.02-.34.04-.5.04a2.6 2.6 0 0 1-2.15-1.1 6.74 6.74 0 0 1-1.12-2.98 53.92 53.92 0 0 1-.44-4.09c-.17-2-.34-4.06-.85-6.06Z"/>
  </mask>
  <path fill="#1A174F" d="M88.93 60.32a11.29 11.29 0 0 0-.17-1.35c-.29-1.57-.9-3.35-1.83-5.28-1.02-2.13-1.98-4.6-.39-6.9a13.8 13.8 0 0 0 1.93-4.22c.41-1.55.6-3.2.51-4.78-.17-3.5-1.55-6.5-3.86-8.44-2.1-1.76-3.15-3.16-3.13-5.93a8.9 8.9 0 0 0-2.14-5.68 19.33 19.33 0 0 0-4.6-4.01c-4.24-2.77-7.34-4.58-10.59-5.62A23.15 23.15 0 0 0 59.4 7.1a41.61 41.61 0 0 0-6.5.06c-2.17.17-4 .58-5.45 1.22a7.18 7.18 0 0 0-2.78 2.03c-.2.26-.38.54-.53.82-.65.23-1.15.5-1.5.82a6.05 6.05 0 0 0-2.06 4 9.8 9.8 0 0 0 .59 4.17c.36 1.05.83 2.01 1.24 2.76-2.2-2.38-3.2-4.71-3-6.93a7.26 7.26 0 0 1 2.03-4.18 9.4 9.4 0 0 1 1.77-1.5l1.32-.79-1.5.33c-3.2.69-5.64 1.6-7.7 2.85a24.7 24.7 0 0 0-4.1 3.14A19.31 19.31 0 0 0 28 19.92a14.14 14.14 0 0 0-1.82 4.72c-.31 1.75-.25 3.52.2 5.27.3 1.17.56 2.35.8 3.5a24.4 24.4 0 0 0-2.54 3.34c-1.46 2.29-2.5 4.7-2.57 6.02v.06c-.08 1.29-.2 3.44.59 6.34a25.9 25.9 0 0 0 4.4 8.6c-.72 2.63-1.57 5.38-2.32 7.81-1.14 3.67-2.03 6.57-2.1 7.88-.07 1.17.11 2.52.5 3.72a7.15 7.15 0 0 0 2.27 3.46 5.22 5.22 0 0 0 3 1.1 9.36 9.36 0 0 0 .12 3.12c.17.8.45 1.55.82 2.23a7.1 7.1 0 0 0 7.71 3.63 9.42 9.42 0 0 0 3.83-1.68 8.84 8.84 0 0 0 3.43-4.53c0 2.13-.45 4.24-.82 5.98-.12.57-.24 1.12-.32 1.6-1.3 7.38-1.96 9-5.7 17.48l-.06.14.46.2.06-.14c1.93-4.38 2.98-6.77 3.76-9.12a56.36 56.36 0 0 0 1.97-8.47L44 90.6l.02-.09c.24-1.16.52-2.46.68-3.85.19-1.66.16-3.09-.07-4.38a9.4 9.4 0 0 0-.69-3.42c-.21-.54-.44-1-.63-1.34l.76.34c.91.37 2.32.81 3.87.84l1.18.02-1.07-.5c-.02-.02-2.48-1.17-5.14-2.98-2.42-1.65-5.5-4.18-6.4-6.9a601.33 601.33 0 0 0-2.9-8.5c-.25-.75-.59-1.48-.95-2.26-.84-1.85-1.7-3.75-1.47-5.63.27-2.16 1.72-4.66 2.1-5.29.6.25 2.33.94 4.4 1.23 1.5.2 2.9.16 4.13-.13a7.5 7.5 0 0 0 3.9-2.24.3.3 0 0 0 .08-.24c0-.1-.02-.3-.92-1.17-.43-.42-.87-.8-.92-.85-1.54-1.18-3.56-1.57-6.01-1.16-.59.1-1.24.32-1.93.55-1.34.45-2.73.92-3.77.56-.5-.17-.86-.45-1.09-.82a1.95 1.95 0 0 1-.2-1.35v-.01c0-.01.12-1.01.82-1.96.95-1.3 2.45-1.91 4.47-1.84 4.68.17 8.96 1.04 9.55 1.16.17.17.7.7 1.26 1.48a8.31 8.31 0 0 1 1.62 3.53c.28 1.84 0 3.85-.26 5.79l-.17 1.24a169.22 169.22 0 0 1-.66 4.66c-.16.9-.28 1.62-.08 2.25.23.7.81 1.2 1.9 1.63.28.1.54.21.8.32a22.54 22.54 0 0 0-.88.21 11.5 11.5 0 0 0-1.54-.95c-1-.5-1.66-.59-2-.27-.28.27-.44.8-.2 1.26.19.33.65.73 1.82.73.5 0 1.12-.08 1.8-.22.3.2.57.43.83.67.37.32.55.69.56 1.1 0 .87-.84 1.68-.85 1.69l-.15.14.1.18c.03.04.6.96 1.81 1.02h.09l.07-.05c.7-.49 1.62-.96 1.92-.86.13.04.28.06.46.1.67.1 1.9.3 4.76 1.76a18.3 18.3 0 0 1-7.31-.36l-.08-.03-.08.03s-.72.27-2 .46c-1.2.17-3.15.32-5.65 0l-.63-.08.4.5c.03.02.6.71 1.65 1.46a9.8 9.8 0 0 0 4.55 1.8 81.86 81.86 0 0 0 2.53.24c.12.14.3.4.4.76.22.8-.06 1.75-.8 2.77l-.02.04-.02.04c0 .03-.22.74-.31 1.64-.13 1.24.04 2.2.5 2.83.4.57 1.02.87 1.84.9h.2c2.84 0 5.47-1.67 7.17-3.07a22.45 22.45 0 0 0 5.24-6.24 29.17 29.17 0 0 0 3.32-8.39c.47-1.88.95-3.82 1.6-5.67l.12-.36c.31-.87.66-1.86.83-2.87.2-1.2.1-2.16-.3-2.95-1.29-2.48-2.1-3.17-2.14-3.2l-.18-.15-.17.17a7.36 7.36 0 0 1-3.36 1.8c-1.93.47-5.04.37-8.91-2.67a40.21 40.21 0 0 1 3.1-2.05c2.5-1.27 5.17-.69 7.22-.04l.16.06c.74.23 1.5.48 2.2.48.38 0 .7-.07.99-.22.5-.27.87-.76 1.1-1.5.19-.6.2-1.23.04-1.86-.13-.5-.37-1-.7-1.5a6.76 6.76 0 0 0-2.17-1.98 8.27 8.27 0 0 0-3.29-.67c-1.25-.04-2.36 0-3.65.03-1.9.05-4.27.11-8.03-.03a30 30 0 0 1-10-2.43 22.18 22.18 0 0 1-5.1-3.06 14.28 14.28 0 0 1-3.7-4.45c.14-.38.18-.64.2-.72.48-1.5.73-2.8.73-3.83a4 4 0 0 0-.45-2.03c-.44-.72-1.03-.83-1.06-.83l-.09-.02-.08.05c-.65.4-1.03 1.1-1.1 2.03-.04.64.07 1.18.09 1.26A12.5 12.5 0 0 0 34.82 26a6.9 6.9 0 0 1-.47.98 10.5 10.5 0 0 1-3.93 3.71c-.94.55-1.89 1.32-2.83 2.28a83.04 83.04 0 0 0-.74-3.19c-1.82-7.17 3.32-13.27 8.75-16.59a22.1 22.1 0 0 1 6.35-2.51 8.88 8.88 0 0 0-2.25 2.74 6.9 6.9 0 0 0-.79 2.58c-.26 2.86 1.32 5.84 4.71 8.86l.1.1.35-.33-.08-.11c-.02-.02-1.5-1.99-2.35-4.46-1.13-3.28-.68-5.85 1.33-7.64.22-.2.52-.38.89-.54a4.54 4.54 0 0 0-.23 1.7c.1 1.6.4 3.1.9 4.44a11.3 11.3 0 0 0 2.38 3.84 15.84 15.84 0 0 0 5.61 3.78c2.01.84 4.14 1.36 6.4 1.91h.01l.86.22c2.44.6 4.92.53 7.32.47 1.88-.05 3.82-.1 5.72.17l.63.1c.54 2.03.72 4.16.9 6.22.1 1.36.22 2.77.44 4.13a7.22 7.22 0 0 0 1.21 3.21 3.1 3.1 0 0 0 3.13 1.25c.67-.1 1.44-.5 2.12-1.1a4.52 4.52 0 0 0 1.36-1.96c.49-1.68-.15-3.59-.78-5.25-.4-1.04-.88-1.97-1.44-2.78a9.87 9.87 0 0 0-4.47-3.53c-.64-.26-1.33-.46-2.07-.62a24.21 24.21 0 0 0-4.3-8.16 23.98 23.98 0 0 0-6.76-5.88 28.12 28.12 0 0 0-11-3.49c-1.32-.11-2.6-.11-3.83 0-.75.07-1.98.18-3.13.47l.23-.3c1.38-1.73 4.02-2.76 7.87-3.05a49.4 49.4 0 0 1 3.8-.16c7.27 0 11.22 2.07 18.23 6.64 4.36 2.84 6.55 5.96 6.52 9.27-.04 2.97 1.09 4.46 3.3 6.32 4.83 4.04 4.58 12.08 1.33 16.77a5.16 5.16 0 0 0-.89 3.74c.17 1.3.72 2.58 1.24 3.66.33.68.61 1.34.86 1.98a13.2 13.2 0 0 0-1.96-2.16c-.65-.58-1.66-1-2.84-1.2a7.41 7.41 0 0 0-3.05.1 10.46 10.46 0 0 0-4.51 2.87 9.43 9.43 0 0 0-2.58 4.69c-.09.48-.14 1.3-.03 2.16.08.67.3 1.57.83 2.08.56.53 1.13 1 1.69 1.42a8.17 8.17 0 0 0-3.35 3.85 4.86 4.86 0 0 0-.25 3.92c.2.46.5.87.9 1.22.42.35.93.64 1.54.84a9.3 9.3 0 0 0 2.97.48c1.22 0 2.45-.22 3.66-.64l-.32.2c-4.42 2.5-7.47 3.7-16.41 3.74a18.8 18.8 0 0 0-6.06.96 14.7 14.7 0 0 0-4.72 2.69c-2.57 2.18-4.56 5.32-6.09 9.61-.4 1.12-.66 2.23-.78 3.29-.12 1-.1 1.97.03 2.87a6.89 6.89 0 0 0 2.05 4.13 5.04 5.04 0 0 0 2.77 1.3 5.9 5.9 0 0 0 3.3-.59 5.62 5.62 0 0 0 2.05-1.51c.43-.54.69-1.14.79-1.84.17-1.27-.23-2.62-.61-3.94-.31-1.07-.6-2.08-.6-3 .01-2.82 1.68-7.77 7.8-8.5.7-.08 1.37-.12 2.02-.12 4.83 0 8.37 2.3 11.06 7.13 3.06 5.48 4.28 16.61 1.03 25.75l-.05.14.47.17.06-.14c.78-2.2 1.33-4.61 1.64-7.16.3-2.37.37-4.8.22-7.23-.27-4.64-1.34-8.93-2.93-11.78-1.6-2.86-3.45-4.83-5.67-6.02-2.23-1.2-4.82-1.6-7.9-1.24-1.47.18-2.77.6-3.9 1.24a8.34 8.34 0 0 0-2.55 2.26 9.49 9.49 0 0 0-1.8 5.5c-.01 1 .3 2.09.62 3.15.36 1.26.74 2.56.59 3.72-.18 1.27-1.01 2.24-2.56 2.97-2.02.95-4.03.72-5.51-.64-1.69-1.54-2.88-4.9-1.16-9.74.78-2.19 1.7-4.12 2.75-5.72a16.6 16.6 0 0 1 3.6-4.02 14.16 14.16 0 0 1 4.51-2.38c1.66-.52 3.51-.8 5.53-.8 4.38-.03 7.47-.32 10-.96a25.4 25.4 0 0 0 6.65-2.85c.54-.3 1.03-.71 1.45-1.22a10.73 10.73 0 0 0 4.17-3.54 17.6 17.6 0 0 0 3.03-11.08Zm-7.7 7.3a9 9 0 0 1-5.37-1.7c.48-.2.99-.37 1.52-.48a4.75 4.75 0 0 1 3 .23c.79.36 1.4.98 1.83 1.84-.32.06-.65.1-.97.11Zm-5.9-1.44a9.84 9.84 0 0 0 5.93 1.95 8.8 8.8 0 0 0 1.15-.14c.37.99.48 2.17.3 3.36a6.72 6.72 0 0 1-1.31 3.19 11.2 11.2 0 0 1-3.75 1.06c-1.34.13-2.6 0-3.77-.4a3.33 3.33 0 0 1-2.13-1.79c-.42-.96-.34-2.2.24-3.5.39-.85.87-1.6 1.45-2.24.55-.6 1.18-1.1 1.9-1.49ZM83 72.46c.44-1.55.4-3.22-.1-4.6a8.65 8.65 0 0 0 2.38-1.06 11.5 11.5 0 0 0 2.41-2.1c.23-.26.42-.54.59-.85a17.86 17.86 0 0 1-.8 3.3 16.52 16.52 0 0 1-2 3.97 10.32 10.32 0 0 1-3.13 2.9c.27-.48.49-1 .65-1.56Zm-.29-5.06a4.5 4.5 0 0 0-1.8-2.03 4.5 4.5 0 0 0-2.28-.57 8.2 8.2 0 0 0-3.26.8 18.2 18.2 0 0 1-1.83-1.54c-.44-.41-.61-1.21-.68-1.8a7.3 7.3 0 0 1 .03-1.98c.53-3.01 3.61-6.29 6.72-7.16 1.55-.43 4.16-.13 5.43 1 .85.74 1.6 1.59 2.15 2.45a7.3 7.3 0 0 1 1.1 2.68v.02c.08.46.12.93.15 1.41a5.2 5.2 0 0 1-1.13 3.69 9.57 9.57 0 0 1-4.6 3.03Zm-22.8-40.12-.87-.22c-4.53-1.1-8.45-2.07-11.76-5.55-1.9-1.99-2.95-4.67-3.14-7.96v-.02s-.05-.36.03-.86c.06-.35.17-.69.32-1.02 1.22-.39 2.66-.52 3.53-.6 4.6-.42 10.04.86 14.54 3.43 4.95 2.83 9.07 8 10.74 13.5l-.4-.07a24.46 24.46 0 0 0-3.52-.22c-.77 0-1.54.02-2.28.04-2.37.07-4.81.13-7.19-.45ZM22.56 42.8c.07-1.24 1.07-3.56 2.5-5.78a24.9 24.9 0 0 1 2.24-3 72.16 72.16 0 0 1 1.45 14.34c0 2.01-.5 4.88-1.53 8.78a24.38 24.38 0 0 1-4.27-8.8c-.57-2.46-.46-4.35-.4-5.48l.01-.06Zm12.57-16.22c.37.67.81 1.32 1.31 1.93 1.39 1.7 3.25 3.2 5.53 4.45a29.05 29.05 0 0 0 6.47 2.55c1.98.52 4 .84 5.7.9 3.78.15 6.15.08 8.06.03 1.29-.03 2.4-.06 3.63-.02a7.8 7.8 0 0 1 3.07.61c.56.27.8.52.8.52v.02l.03.02s.63.5 1.15 1.27c.69 1 .89 1.98.6 2.9-.19.61-.47 1-.85 1.2-.72.38-1.78.04-2.8-.29h-.03l-.13-.05c-1.46-.46-2.67-.7-3.8-.73a7.58 7.58 0 0 0-3.8.8 42.22 42.22 0 0 0-2.94 1.92c-.53.37-.58.43-.6.55 0 .1.03.18.1.23a14.33 14.33 0 0 0 5.43 2.9 8.27 8.27 0 0 0 6.83-1.12c.34-.22.6-.43.76-.58.29.32.95 1.14 1.85 2.88.8 1.57.02 3.8-.55 5.42l-.13.36a60.9 60.9 0 0 0-1.6 5.71l-.4 1.55c-.64 2.5-1.81 4.8-2.88 6.72a22.82 22.82 0 0 1-4.84 5.86c-1.69 1.45-4.3 3.2-7.12 3.2l-.2-.01c-.65-.02-1.13-.25-1.44-.68-.37-.51-.5-1.33-.42-2.38a8.6 8.6 0 0 1 .3-1.61c.44-.63.73-1.24.86-1.81.11-.49.1-.95-.01-1.37a2.4 2.4 0 0 0-.41-.83c.04-.27-.23-.32-.4-.35l-1.02-.2.25.2c-.45-.04-1.05-.1-1.79-.19a9.32 9.32 0 0 1-5.39-2.59c2.24.22 4 .08 5.1-.08 1.09-.16 1.76-.36 2.02-.45a17.78 17.78 0 0 0 8.2.21l.65-.15-.6-.32c-3.4-1.8-4.8-2.03-5.56-2.16a3.1 3.1 0 0 1-.4-.08c-.31-.1-.8.03-1.48.4-.35.19-.66.4-.8.48a1.83 1.83 0 0 1-1.2-.62c.3-.32.86-1.06.85-1.9 0-.55-.25-1.05-.73-1.47l-.52-.44a16 16 0 0 1 1.14-.25l.29.13c.7.34.93.45 1.77.38.43-.03.74-.18.83-.42a.41.41 0 0 0-.08-.43c-.18-.22-.6-.33-1.25-.33h-.03c-.41 0-.9.05-1.46.14-.3-.14-.77-.35-1.47-.63-.93-.36-1.43-.76-1.6-1.3-.17-.52-.05-1.17.1-2v-.01l.13-.83c.21-1.41.39-2.68.53-3.86.05-.4.1-.8.17-1.23.27-1.98.55-4.02.26-5.94a8.97 8.97 0 0 0-1.71-3.75c-.7-.96-1.38-1.59-1.38-1.6l-.05-.04-.07-.02c-.05 0-4.64-1-9.7-1.18a6.57 6.57 0 0 0-3.13.57c-.71.34-1.3.84-1.77 1.47a5.1 5.1 0 0 0-.92 2.2c-.1.64 0 1.2.27 1.68.29.48.74.83 1.36 1.04.3.1.63.15 1 .15.99 0 2.1-.38 3.1-.7.67-.24 1.3-.45 1.85-.54 2.3-.38 4.2-.02 5.62 1.07.05.03.47.41.88.8.47.47.66.7.73.8-2.19 2.3-5.28 2.42-7.5 2.12a17.08 17.08 0 0 1-4.45-1.28l-.2-.1-.12.2c-.02.03-.5.77-1.03 1.84-.48.99-1.1 2.46-1.27 3.84-.26 2.02.64 4 1.51 5.9.35.77.69 1.5.93 2.21.84 2.38 1.8 5.24 2.89 8.5a10.4 10.4 0 0 0 2.64 3.94 26.65 26.65 0 0 0 3.97 3.23 42.87 42.87 0 0 0 4.01 2.4 11.52 11.52 0 0 1-3.93-1.44l-1.32-.84.98 1.21a9.1 9.1 0 0 1 1.17 2.24 8.63 8.63 0 0 0-1.62-2.01 8.7 8.7 0 0 0-4.52-2.02c.13-.83.11-1.71-.05-2.62a12.96 12.96 0 0 0-1.5-3.85c-1.41-2.56-3.68-5.66-6.75-9.23a38.73 38.73 0 0 1-1.5-1.84c1.12-4.14 1.66-7.18 1.66-9.3a72.27 72.27 0 0 0-1.54-14.8 13.53 13.53 0 0 1 2.96-2.42 12.8 12.8 0 0 0 2.65-2.02 9.35 9.35 0 0 0 1.8-2.54ZM51.9 59.5c.84-.08 1.26 0 1.43.08-.06.02-.17.06-.33.07-.53.04-.76 0-1.1-.15ZM33.72 75.8a6.95 6.95 0 0 1 1.97-.26c.36 0 .73.03 1.1.07a6.1 6.1 0 0 1-1.46 2.8 9.1 9.1 0 0 1-4.1 2.43c-.79.25-1.54.39-2.23.41.24-1.2.72-2.29 1.4-3.18a6.35 6.35 0 0 1 3.32-2.27Zm-6.28-17.53c.4.52.83 1.04 1.27 1.56 3.05 3.54 5.3 6.61 6.68 9.14a12.16 12.16 0 0 1 1.46 3.7c.1.57.19 1.46.04 2.45a8.46 8.46 0 0 0-3.32.2 6.96 6.96 0 0 0-3.8 2.77 8.22 8.22 0 0 0-1.29 3.16 4.8 4.8 0 0 1-2.77-1.01c-1.95-1.53-2.7-4.57-2.58-6.76.07-1.24 1-4.26 2.08-7.75.72-2.32 1.53-4.93 2.23-7.46Zm1.4 24.22a9 9 0 0 1 .07-.73c.77-.02 1.6-.16 2.47-.44 1.6-.5 2.9-1.21 3.9-2.12a6.72 6.72 0 0 0 2.03-3.52c1.7.3 3.28 1 4.26 1.9a8.06 8.06 0 0 1 2.55 4.76c0 .3-.02.6-.06.9-.26 2.08-1.43 3.9-3.48 5.4a8.54 8.54 0 0 1-4.99 1.7c-.89 0-1.74-.16-2.51-.48-2.75-1.14-4.41-4.03-4.24-7.37Zm5.94-63.4c.14.05.4.2.63.57.42.7.71 2.22-.34 5.45v.05l-.03.12c-.48-1.1-.8-2.26-.94-3.47v-.03s-.12-.53-.08-1.12c.05-.73.31-1.26.77-1.57Zm13.86 40.54c-.85.15-1.51.16-1.99.05-.41-.1-.57-.3-.62-.4a.57.57 0 0 1 .1-.64c.03-.03.1-.05.2-.05.27 0 .71.14 1.23.4.34.18.7.4 1.08.64Zm25.37-31c3.59.84 6 2.98 7.36 6.56.6 1.58 1.2 3.4.76 4.92-.16.56-.6 1.18-1.2 1.72-.61.55-1.29.9-1.86.99-.17.02-.34.04-.5.04a2.6 2.6 0 0 1-2.15-1.1 6.74 6.74 0 0 1-1.12-2.98 53.92 53.92 0 0 1-.44-4.09c-.17-2-.34-4.06-.85-6.06Z"/>
  <path stroke="#1A174F" stroke-width=".4" d="M88.93 60.32a11.29 11.29 0 0 0-.17-1.35c-.29-1.57-.9-3.35-1.83-5.28-1.02-2.13-1.98-4.6-.39-6.9a13.8 13.8 0 0 0 1.93-4.22c.41-1.55.6-3.2.51-4.78-.17-3.5-1.55-6.5-3.86-8.44-2.1-1.76-3.15-3.16-3.13-5.93a8.9 8.9 0 0 0-2.14-5.68 19.33 19.33 0 0 0-4.6-4.01c-4.24-2.77-7.34-4.58-10.59-5.62A23.15 23.15 0 0 0 59.4 7.1a41.61 41.61 0 0 0-6.5.06c-2.17.17-4 .58-5.45 1.22a7.18 7.18 0 0 0-2.78 2.03c-.2.26-.38.54-.53.82-.65.23-1.15.5-1.5.82a6.05 6.05 0 0 0-2.06 4 9.8 9.8 0 0 0 .59 4.17c.36 1.05.83 2.01 1.24 2.76-2.2-2.38-3.2-4.71-3-6.93a7.26 7.26 0 0 1 2.03-4.18 9.4 9.4 0 0 1 1.77-1.5l1.32-.79-1.5.33c-3.2.69-5.64 1.6-7.7 2.85a24.7 24.7 0 0 0-4.1 3.14A19.31 19.31 0 0 0 28 19.92a14.14 14.14 0 0 0-1.82 4.72c-.31 1.75-.25 3.52.2 5.27.3 1.17.56 2.35.8 3.5a24.4 24.4 0 0 0-2.54 3.34c-1.46 2.29-2.5 4.7-2.57 6.02v.06c-.08 1.29-.2 3.44.59 6.34a25.9 25.9 0 0 0 4.4 8.6c-.72 2.63-1.57 5.38-2.32 7.81-1.14 3.67-2.03 6.57-2.1 7.88-.07 1.17.11 2.52.5 3.72a7.15 7.15 0 0 0 2.27 3.46 5.22 5.22 0 0 0 3 1.1 9.36 9.36 0 0 0 .12 3.12c.17.8.45 1.55.82 2.23a7.1 7.1 0 0 0 7.71 3.63 9.42 9.42 0 0 0 3.83-1.68 8.84 8.84 0 0 0 3.43-4.53c0 2.13-.45 4.24-.82 5.98-.12.57-.24 1.12-.32 1.6-1.3 7.38-1.96 9-5.7 17.48l-.06.14.46.2.06-.14c1.93-4.38 2.98-6.77 3.76-9.12a56.36 56.36 0 0 0 1.97-8.47L44 90.6l.02-.09c.24-1.16.52-2.46.68-3.85.19-1.66.16-3.09-.07-4.38a9.4 9.4 0 0 0-.69-3.42c-.21-.54-.44-1-.63-1.34l.76.34c.91.37 2.32.81 3.87.84l1.18.02-1.07-.5c-.02-.02-2.48-1.17-5.14-2.98-2.42-1.65-5.5-4.18-6.4-6.9a601.33 601.33 0 0 0-2.9-8.5c-.25-.75-.59-1.48-.95-2.26-.84-1.85-1.7-3.75-1.47-5.63.27-2.16 1.72-4.66 2.1-5.29.6.25 2.33.94 4.4 1.23 1.5.2 2.9.16 4.13-.13a7.5 7.5 0 0 0 3.9-2.24.3.3 0 0 0 .08-.24c0-.1-.02-.3-.92-1.17-.43-.42-.87-.8-.92-.85-1.54-1.18-3.56-1.57-6.01-1.16-.59.1-1.24.32-1.93.55-1.34.45-2.73.92-3.77.56-.5-.17-.86-.45-1.09-.82a1.95 1.95 0 0 1-.2-1.35v-.01c0-.01.12-1.01.82-1.96.95-1.3 2.45-1.91 4.47-1.84 4.68.17 8.96 1.04 9.55 1.16.17.17.7.7 1.26 1.48a8.31 8.31 0 0 1 1.62 3.53c.28 1.84 0 3.85-.26 5.79l-.17 1.24a169.22 169.22 0 0 1-.66 4.66c-.16.9-.28 1.62-.08 2.25.23.7.81 1.2 1.9 1.63.28.1.54.21.8.32a22.54 22.54 0 0 0-.88.21 11.5 11.5 0 0 0-1.54-.95c-1-.5-1.66-.59-2-.27-.28.27-.44.8-.2 1.26.19.33.65.73 1.82.73.5 0 1.12-.08 1.8-.22.3.2.57.43.83.67.37.32.55.69.56 1.1 0 .87-.84 1.68-.85 1.69l-.15.14.1.18c.03.04.6.96 1.81 1.02h.09l.07-.05c.7-.49 1.62-.96 1.92-.86.13.04.28.06.46.1.67.1 1.9.3 4.76 1.76a18.3 18.3 0 0 1-7.31-.36l-.08-.03-.08.03s-.72.27-2 .46c-1.2.17-3.15.32-5.65 0l-.63-.08.4.5c.03.02.6.71 1.65 1.46a9.8 9.8 0 0 0 4.55 1.8 81.86 81.86 0 0 0 2.53.24c.12.14.3.4.4.76.22.8-.06 1.75-.8 2.77l-.02.04-.02.04c0 .03-.22.74-.31 1.64-.13 1.24.04 2.2.5 2.83.4.57 1.02.87 1.84.9h.2c2.84 0 5.47-1.67 7.17-3.07a22.45 22.45 0 0 0 5.24-6.24 29.17 29.17 0 0 0 3.32-8.39c.47-1.88.95-3.82 1.6-5.67l.12-.36c.31-.87.66-1.86.83-2.87.2-1.2.1-2.16-.3-2.95-1.29-2.48-2.1-3.17-2.14-3.2l-.18-.15-.17.17a7.36 7.36 0 0 1-3.36 1.8c-1.93.47-5.04.37-8.91-2.67a40.21 40.21 0 0 1 3.1-2.05c2.5-1.27 5.17-.69 7.22-.04l.16.06c.74.23 1.5.48 2.2.48.38 0 .7-.07.99-.22.5-.27.87-.76 1.1-1.5.19-.6.2-1.23.04-1.86-.13-.5-.37-1-.7-1.5a6.76 6.76 0 0 0-2.17-1.98 8.27 8.27 0 0 0-3.29-.67c-1.25-.04-2.36 0-3.65.03-1.9.05-4.27.11-8.03-.03a30 30 0 0 1-10-2.43 22.18 22.18 0 0 1-5.1-3.06 14.28 14.28 0 0 1-3.7-4.45c.14-.38.18-.64.2-.72.48-1.5.73-2.8.73-3.83a4 4 0 0 0-.45-2.03c-.44-.72-1.03-.83-1.06-.83l-.09-.02-.08.05c-.65.4-1.03 1.1-1.1 2.03-.04.64.07 1.18.09 1.26A12.5 12.5 0 0 0 34.82 26a6.9 6.9 0 0 1-.47.98 10.5 10.5 0 0 1-3.93 3.71c-.94.55-1.89 1.32-2.83 2.28a83.04 83.04 0 0 0-.74-3.19c-1.82-7.17 3.32-13.27 8.75-16.59a22.1 22.1 0 0 1 6.35-2.51 8.88 8.88 0 0 0-2.25 2.74 6.9 6.9 0 0 0-.79 2.58c-.26 2.86 1.32 5.84 4.71 8.86l.1.1.35-.33-.08-.11c-.02-.02-1.5-1.99-2.35-4.46-1.13-3.28-.68-5.85 1.33-7.64.22-.2.52-.38.89-.54a4.54 4.54 0 0 0-.23 1.7c.1 1.6.4 3.1.9 4.44a11.3 11.3 0 0 0 2.38 3.84 15.84 15.84 0 0 0 5.61 3.78c2.01.84 4.14 1.36 6.4 1.91h.01l.86.22c2.44.6 4.92.53 7.32.47 1.88-.05 3.82-.1 5.72.17l.63.1c.54 2.03.72 4.16.9 6.22.1 1.36.22 2.77.44 4.13a7.22 7.22 0 0 0 1.21 3.21 3.1 3.1 0 0 0 3.13 1.25c.67-.1 1.44-.5 2.12-1.1a4.52 4.52 0 0 0 1.36-1.96c.49-1.68-.15-3.59-.78-5.25-.4-1.04-.88-1.97-1.44-2.78a9.87 9.87 0 0 0-4.47-3.53c-.64-.26-1.33-.46-2.07-.62a24.21 24.21 0 0 0-4.3-8.16 23.98 23.98 0 0 0-6.76-5.88 28.12 28.12 0 0 0-11-3.49c-1.32-.11-2.6-.11-3.83 0-.75.07-1.98.18-3.13.47l.23-.3c1.38-1.73 4.02-2.76 7.87-3.05a49.4 49.4 0 0 1 3.8-.16c7.27 0 11.22 2.07 18.23 6.64 4.36 2.84 6.55 5.96 6.52 9.27-.04 2.97 1.09 4.46 3.3 6.32 4.83 4.04 4.58 12.08 1.33 16.77a5.16 5.16 0 0 0-.89 3.74c.17 1.3.72 2.58 1.24 3.66.33.68.61 1.34.86 1.98a13.2 13.2 0 0 0-1.96-2.16c-.65-.58-1.66-1-2.84-1.2a7.41 7.41 0 0 0-3.05.1 10.46 10.46 0 0 0-4.51 2.87 9.43 9.43 0 0 0-2.58 4.69c-.09.48-.14 1.3-.03 2.16.08.67.3 1.57.83 2.08.56.53 1.13 1 1.69 1.42a8.17 8.17 0 0 0-3.35 3.85 4.86 4.86 0 0 0-.25 3.92c.2.46.5.87.9 1.22.42.35.93.64 1.54.84a9.3 9.3 0 0 0 2.97.48c1.22 0 2.45-.22 3.66-.64l-.32.2c-4.42 2.5-7.47 3.7-16.41 3.74a18.8 18.8 0 0 0-6.06.96 14.7 14.7 0 0 0-4.72 2.69c-2.57 2.18-4.56 5.32-6.09 9.61-.4 1.12-.66 2.23-.78 3.29-.12 1-.1 1.97.03 2.87a6.89 6.89 0 0 0 2.05 4.13 5.04 5.04 0 0 0 2.77 1.3 5.9 5.9 0 0 0 3.3-.59 5.62 5.62 0 0 0 2.05-1.51c.43-.54.69-1.14.79-1.84.17-1.27-.23-2.62-.61-3.94-.31-1.07-.6-2.08-.6-3 .01-2.82 1.68-7.77 7.8-8.5.7-.08 1.37-.12 2.02-.12 4.83 0 8.37 2.3 11.06 7.13 3.06 5.48 4.28 16.61 1.03 25.75l-.05.14.47.17.06-.14c.78-2.2 1.33-4.61 1.64-7.16.3-2.37.37-4.8.22-7.23-.27-4.64-1.34-8.93-2.93-11.78-1.6-2.86-3.45-4.83-5.67-6.02-2.23-1.2-4.82-1.6-7.9-1.24-1.47.18-2.77.6-3.9 1.24a8.34 8.34 0 0 0-2.55 2.26 9.49 9.49 0 0 0-1.8 5.5c-.01 1 .3 2.09.62 3.15.36 1.26.74 2.56.59 3.72-.18 1.27-1.01 2.24-2.56 2.97-2.02.95-4.03.72-5.51-.64-1.69-1.54-2.88-4.9-1.16-9.74.78-2.19 1.7-4.12 2.75-5.72a16.6 16.6 0 0 1 3.6-4.02 14.16 14.16 0 0 1 4.51-2.38c1.66-.52 3.51-.8 5.53-.8 4.38-.03 7.47-.32 10-.96a25.4 25.4 0 0 0 6.65-2.85c.54-.3 1.03-.71 1.45-1.22a10.73 10.73 0 0 0 4.17-3.54 17.6 17.6 0 0 0 3.03-11.08Zm-7.7 7.3a9 9 0 0 1-5.37-1.7c.48-.2.99-.37 1.52-.48a4.75 4.75 0 0 1 3 .23c.79.36 1.4.98 1.83 1.84-.32.06-.65.1-.97.11Zm-5.9-1.44a9.84 9.84 0 0 0 5.93 1.95 8.8 8.8 0 0 0 1.15-.14c.37.99.48 2.17.3 3.36a6.72 6.72 0 0 1-1.31 3.19 11.2 11.2 0 0 1-3.75 1.06c-1.34.13-2.6 0-3.77-.4a3.33 3.33 0 0 1-2.13-1.79c-.42-.96-.34-2.2.24-3.5.39-.85.87-1.6 1.45-2.24.55-.6 1.18-1.1 1.9-1.49ZM83 72.46c.44-1.55.4-3.22-.1-4.6a8.65 8.65 0 0 0 2.38-1.06 11.5 11.5 0 0 0 2.41-2.1c.23-.26.42-.54.59-.85a17.86 17.86 0 0 1-.8 3.3 16.52 16.52 0 0 1-2 3.97 10.32 10.32 0 0 1-3.13 2.9c.27-.48.49-1 .65-1.56Zm-.29-5.06a4.5 4.5 0 0 0-1.8-2.03 4.5 4.5 0 0 0-2.28-.57 8.2 8.2 0 0 0-3.26.8 18.2 18.2 0 0 1-1.83-1.54c-.44-.41-.61-1.21-.68-1.8a7.3 7.3 0 0 1 .03-1.98c.53-3.01 3.61-6.29 6.72-7.16 1.55-.43 4.16-.13 5.43 1 .85.74 1.6 1.59 2.15 2.45a7.3 7.3 0 0 1 1.1 2.68v.02c.08.46.12.93.15 1.41a5.2 5.2 0 0 1-1.13 3.69 9.57 9.57 0 0 1-4.6 3.03Zm-22.8-40.12-.87-.22c-4.53-1.1-8.45-2.07-11.76-5.55-1.9-1.99-2.95-4.67-3.14-7.96v-.02s-.05-.36.03-.86c.06-.35.17-.69.32-1.02 1.22-.39 2.66-.52 3.53-.6 4.6-.42 10.04.86 14.54 3.43 4.95 2.83 9.07 8 10.74 13.5l-.4-.07a24.46 24.46 0 0 0-3.52-.22c-.77 0-1.54.02-2.28.04-2.37.07-4.81.13-7.19-.45ZM22.56 42.8c.07-1.24 1.07-3.56 2.5-5.78a24.9 24.9 0 0 1 2.24-3 72.16 72.16 0 0 1 1.45 14.34c0 2.01-.5 4.88-1.53 8.78a24.38 24.38 0 0 1-4.27-8.8c-.57-2.46-.46-4.35-.4-5.48l.01-.06Zm12.57-16.22c.37.67.81 1.32 1.31 1.93 1.39 1.7 3.25 3.2 5.53 4.45a29.05 29.05 0 0 0 6.47 2.55c1.98.52 4 .84 5.7.9 3.78.15 6.15.08 8.06.03 1.29-.03 2.4-.06 3.63-.02a7.8 7.8 0 0 1 3.07.61c.56.27.8.52.8.52v.02l.03.02s.63.5 1.15 1.27c.69 1 .89 1.98.6 2.9-.19.61-.47 1-.85 1.2-.72.38-1.78.04-2.8-.29h-.03l-.13-.05c-1.46-.46-2.67-.7-3.8-.73a7.58 7.58 0 0 0-3.8.8 42.22 42.22 0 0 0-2.94 1.92c-.53.37-.58.43-.6.55 0 .1.03.18.1.23a14.33 14.33 0 0 0 5.43 2.9 8.27 8.27 0 0 0 6.83-1.12c.34-.22.6-.43.76-.58.29.32.95 1.14 1.85 2.88.8 1.57.02 3.8-.55 5.42l-.13.36a60.9 60.9 0 0 0-1.6 5.71l-.4 1.55c-.64 2.5-1.81 4.8-2.88 6.72a22.82 22.82 0 0 1-4.84 5.86c-1.69 1.45-4.3 3.2-7.12 3.2l-.2-.01c-.65-.02-1.13-.25-1.44-.68-.37-.51-.5-1.33-.42-2.38a8.6 8.6 0 0 1 .3-1.61c.44-.63.73-1.24.86-1.81.11-.49.1-.95-.01-1.37a2.4 2.4 0 0 0-.41-.83c.04-.27-.23-.32-.4-.35l-1.02-.2.25.2c-.45-.04-1.05-.1-1.79-.19a9.32 9.32 0 0 1-5.39-2.59c2.24.22 4 .08 5.1-.08 1.09-.16 1.76-.36 2.02-.45a17.78 17.78 0 0 0 8.2.21l.65-.15-.6-.32c-3.4-1.8-4.8-2.03-5.56-2.16a3.1 3.1 0 0 1-.4-.08c-.31-.1-.8.03-1.48.4-.35.19-.66.4-.8.48a1.83 1.83 0 0 1-1.2-.62c.3-.32.86-1.06.85-1.9 0-.55-.25-1.05-.73-1.47l-.52-.44a16 16 0 0 1 1.14-.25l.29.13c.7.34.93.45 1.77.38.43-.03.74-.18.83-.42a.41.41 0 0 0-.08-.43c-.18-.22-.6-.33-1.25-.33h-.03c-.41 0-.9.05-1.46.14-.3-.14-.77-.35-1.47-.63-.93-.36-1.43-.76-1.6-1.3-.17-.52-.05-1.17.1-2v-.01l.13-.83c.21-1.41.39-2.68.53-3.86.05-.4.1-.8.17-1.23.27-1.98.55-4.02.26-5.94a8.97 8.97 0 0 0-1.71-3.75c-.7-.96-1.38-1.59-1.38-1.6l-.05-.04-.07-.02c-.05 0-4.64-1-9.7-1.18a6.57 6.57 0 0 0-3.13.57c-.71.34-1.3.84-1.77 1.47a5.1 5.1 0 0 0-.92 2.2c-.1.64 0 1.2.27 1.68.29.48.74.83 1.36 1.04.3.1.63.15 1 .15.99 0 2.1-.38 3.1-.7.67-.24 1.3-.45 1.85-.54 2.3-.38 4.2-.02 5.62 1.07.05.03.47.41.88.8.47.47.66.7.73.8-2.19 2.3-5.28 2.42-7.5 2.12a17.08 17.08 0 0 1-4.45-1.28l-.2-.1-.12.2c-.02.03-.5.77-1.03 1.84-.48.99-1.1 2.46-1.27 3.84-.26 2.02.64 4 1.51 5.9.35.77.69 1.5.93 2.21.84 2.38 1.8 5.24 2.89 8.5a10.4 10.4 0 0 0 2.64 3.94 26.65 26.65 0 0 0 3.97 3.23 42.87 42.87 0 0 0 4.01 2.4 11.52 11.52 0 0 1-3.93-1.44l-1.32-.84.98 1.21a9.1 9.1 0 0 1 1.17 2.24 8.63 8.63 0 0 0-1.62-2.01 8.7 8.7 0 0 0-4.52-2.02c.13-.83.11-1.71-.05-2.62a12.96 12.96 0 0 0-1.5-3.85c-1.41-2.56-3.68-5.66-6.75-9.23a38.73 38.73 0 0 1-1.5-1.84c1.12-4.14 1.66-7.18 1.66-9.3a72.27 72.27 0 0 0-1.54-14.8 13.53 13.53 0 0 1 2.96-2.42 12.8 12.8 0 0 0 2.65-2.02 9.35 9.35 0 0 0 1.8-2.54ZM51.9 59.5c.84-.08 1.26 0 1.43.08-.06.02-.17.06-.33.07-.53.04-.76 0-1.1-.15ZM33.72 75.8a6.95 6.95 0 0 1 1.97-.26c.36 0 .73.03 1.1.07a6.1 6.1 0 0 1-1.46 2.8 9.1 9.1 0 0 1-4.1 2.43c-.79.25-1.54.39-2.23.41.24-1.2.72-2.29 1.4-3.18a6.35 6.35 0 0 1 3.32-2.27Zm-6.28-17.53c.4.52.83 1.04 1.27 1.56 3.05 3.54 5.3 6.61 6.68 9.14a12.16 12.16 0 0 1 1.46 3.7c.1.57.19 1.46.04 2.45a8.46 8.46 0 0 0-3.32.2 6.96 6.96 0 0 0-3.8 2.77 8.22 8.22 0 0 0-1.29 3.16 4.8 4.8 0 0 1-2.77-1.01c-1.95-1.53-2.7-4.57-2.58-6.76.07-1.24 1-4.26 2.08-7.75.72-2.32 1.53-4.93 2.23-7.46Zm1.4 24.22a9 9 0 0 1 .07-.73c.77-.02 1.6-.16 2.47-.44 1.6-.5 2.9-1.21 3.9-2.12a6.72 6.72 0 0 0 2.03-3.52c1.7.3 3.28 1 4.26 1.9a8.06 8.06 0 0 1 2.55 4.76c0 .3-.02.6-.06.9-.26 2.08-1.43 3.9-3.48 5.4a8.54 8.54 0 0 1-4.99 1.7c-.89 0-1.74-.16-2.51-.48-2.75-1.14-4.41-4.03-4.24-7.37Zm5.94-63.4c.14.05.4.2.63.57.42.7.71 2.22-.34 5.45v.05l-.03.12c-.48-1.1-.8-2.26-.94-3.47v-.03s-.12-.53-.08-1.12c.05-.73.31-1.26.77-1.57Zm13.86 40.54c-.85.15-1.51.16-1.99.05-.41-.1-.57-.3-.62-.4a.57.57 0 0 1 .1-.64c.03-.03.1-.05.2-.05.27 0 .71.14 1.23.4.34.18.7.4 1.08.64Zm25.37-31c3.59.84 6 2.98 7.36 6.56.6 1.58 1.2 3.4.76 4.92-.16.56-.6 1.18-1.2 1.72-.61.55-1.29.9-1.86.99-.17.02-.34.04-.5.04a2.6 2.6 0 0 1-2.15-1.1 6.74 6.74 0 0 1-1.12-2.98 53.92 53.92 0 0 1-.44-4.09c-.17-2-.34-4.06-.85-6.06Z" mask="url(#a)"/>
</svg>