<svg xmlns="http://www.w3.org/2000/svg" width="125" height="125" fill="none">
  <path fill="#78E0ED" d="M77.6 37.2h-3.4v3.5h3.4v-3.5ZM92 37h-3.4v3.5H92V37Zm14.8 0h-3.4v3.5h3.4V37ZM62.4 52H59v3.5h3.4V52Zm14.8 0h-3.4v3.5h3.4V52ZM92 52h-3.4v3.5H92V52Zm14.8 0h-3.4v3.5h3.4V52Zm14.8 0h-3.4v3.5h3.4V52ZM62.4 67H59v3.5h3.4V67Zm14.8 0h-3.4v3.5h3.4V67ZM92 67h-3.4v3.5H92V67Zm14.8 0h-3.4v3.5h3.4V67Zm14.8 0h-3.4v3.5h3.4V67ZM62.4 82H59v3.5h3.4v-3.6Zm14.8 0h-3.4v3.5h3.4v-3.6ZM92 82h-3.4v3.5H92v-3.6Zm14.8 0h-3.4v3.5h3.4v-3.6Zm14.8 0h-3.4v3.5h3.4v-3.6ZM77.2 97h-3.4v3.5h3.4v-3.6ZM92 97h-3.4v3.5H92v-3.6Zm14.8 0h-3.4v3.5h3.4v-3.6Z"/>
  <path fill="#FCC" fill-rule="evenodd" d="M61.5 98.9c-3.8-.2-10.8 0-15.1.1-7.2.2-8 3.5-4.5 6.2 7 5.6 21.2 3.6 25.3-1 2.1-2.6.7-5-5.7-5.3Z" clip-rule="evenodd"/>
  <path fill="#CFE5DC" fill-rule="evenodd" d="M24.2 85.5c1.4 2.5 3.5 3.8 5 4.5 2.6 1.1 5.2 1 8 .8 2.5-.1 5.8-1 7.2-2.9 2.2-2.6.6-8-5-6.1-3 1-5.7 1.5-11.5.7-3-.4-5.2.3-3.7 3Z" clip-rule="evenodd"/>
  <path fill="#E8E7F8" d="M92.8 81.6c0 2-2.7 4.8-8.4 4.8-5.8 0-14.4-2.8-14.4-4.8s3.2-5 8.9-5 13.9 0 13.9 5Z"/>
  <path stroke="#1A174F" stroke-width=".8" d="M85 103c-4.8 0-9.4-.7-13.7-2 .5.3 1 .7 1.1 1.2.5 1 0 1.9-1.3 2.8-3.3 2.4-9.2 2.9-12.4 3h-.6c-4.5 0-9-.7-11.4-1.7-1-.4-2-1-2.7-1.6-1.5.2-3.2.4-5 .4H.9a.3.3 0 0 1-.3-.2c0-.2.1-.3.3-.3H39c1.6 0 3-.1 4.4-.3-.3-.4-.6-.8-.6-1.3-.1-.7.2-1.4 1-2 1.6-1.4 6.2-2.5 11-2.7 1.5-2.4 1.5-4.8 1.5-5.7V79.8a13958.2 13958.2 0 0 0 0-44.5c-.5-.5-2.8-.5-8.4-.3l-10.2.2c-2.7 0-4.8.2-5.8.5 0 1 .2 2.3.4 3.3.6 3.3 1.8 8 3.3 14l1.4 5.5a442.4 442.4 0 0 0 5.6 21.7c-.1.2-.4.1-1 0l-.7-.3h-.2c-1.1-.3-1.5-.4-1.6-.8a934 934 0 0 0-6.2-29.5l-.5-2.4-.3-1.6A310.6 310.6 0 0 0 33.5 68l.8 11.4c1.8.1 3.6.3 5.1.6 2.4.5 4.2 1.2 5.3 2 .6.6.7 1.4.3 2.4-.5 1.5-2.1 3-4.3 4.2a22.9 22.9 0 0 1-18.5.3c-2.1-1-3.8-2.5-4.7-4-.9-1.3-1-2.7-.5-3.7.4-.7.9-1.6 7.5-23.2 2.6-8.4 4.1-14 5-17.5 1.1-4 1.4-5 1.8-5.2h.2c0-1.1.2-1.8.6-2.1.2-.2.6-.5 10.1-.8l14.4-.3c-.2-1.2-.2-3-.2-5.7v-1.9c0-3.8 0-5.5.3-6.4.3-1.1.9-1.1 1.6-1.1.7 0 1.3 0 1.6 1.2.2 1 .2 3.2.2 7v6.9h.7c12 0 22.9.6 24.3 1.2.9.4 1.3 1.6 1.1 3.8.4.7.7 1.6 1 2.8l.6 1.7c9.4 29 11 33.8 12.1 36.6l.7 2c.7 2 .4 4-.8 5.8a11 11 0 0 1-4.9 3.5 19 19 0 0 1-7 1.3 24 24 0 0 1-9.3-1.8 12 12 0 0 1-5-3.7c-.8-1-1-2-.7-2.8.2-.5.8-.9 1.8-1.2 2-.7 5.5-1.2 9.5-1.4V79c-2.3 0-4.8.3-7.1.8-.5.1-1 .2-1.2 0-.2-.3-.1-.8 0-1.5l.2-.4.6-2.4a350.7 350.7 0 0 0 5.1-19.8 213.5 213.5 0 0 0 4-18.5l-.7-.8c-.7-.7-2-1-4.2-1.2-6.6-.3-14.5-.5-20.1-.5h-.7v57.4c0 2.6.5 4.8 1.3 6.5l3 .7c2.5.8 3.8 1.7 4 2.6 0 .4-.2.8-.5 1-.8.4-2.4.3-4-.7-.5-.3-1.5-1-2.5-2.6a8 8 0 0 1-.3-.5c-1.8-.3-3.8-.4-6-.3 0 .3-.3.5-.5.8-2 2.5-5.4 4.2-9.9 5 .6.4 1.4.8 2.3 1.1a34 34 0 0 0 11.8 1.7c2.5 0 4.8-.3 6.8-.7a14 14 0 0 0 5.3-2.1c1-.7 1.3-1.4 1.2-2-.3-1.2-2.5-2-3.5-2.4h-.1l-.4-.2s-.3 0-.3-.2.1-.3.3-.3l.6.1 1.4.4c.4 0 .7.2 1 .3 4.5 1.4 9.1 2.1 14 2.1h32.2l2.5.3m-65.3-3.9L53 99c-4 .4-7.4 1.3-8.7 2.5-.6.5-.9 1-.8 1.5 0 .4.3.8.8 1.2 1.8-.3 3.4-.7 4.9-1.3a12.4 12.4 0 0 0 5.4-4Zm7.3.4c1 1.5 2 2.2 2.4 2.5 1.4 1 2.8 1 3.4.7.2-.1.3-.3.3-.5-.1-.5-1-1.4-3.6-2.1-.7-.3-1.6-.5-2.5-.6Zm-5.3-1c1.5 0 3 .1 4.3.3a16 16 0 0 1-1.2-6.5 7169.6 7169.6 0 0 1 0-57.4c-1 0-1.8-.2-2.3-.7-.3-.3-.5-.7-.6-1.3-5.2 0-10.2.2-14.3.3-8.6.3-9.8.6-10 .7-.3.2-.4.8-.4 1.5 1.5-.4 4.2-.5 5.8-.6l10.2-.1c6-.2 8.1-.3 8.9.5.3.3.3.7.3 1L57 79.7v12.8c0 1 0 3.3-1.5 5.7h1ZM31.5 36c-.3.5-.8 2.3-1.5 4.8l-5 17.6c-6.7 21.6-7 22.4-7.5 23.2-.5.9-.3 2 .4 3.2 1.6 2.7 6.2 5.6 12.4 5.6 4 0 7.5-.7 10.1-2.1 2-1 3.6-2.5 4.1-3.9.3-.8.2-1.4-.2-1.7-1.6-1.4-5.4-2.4-10-2.6v.3c.2 3.3 0 4-.3 4.3-1.3 1-5 1.2-8 1-3-.1-6.6-.7-7.5-1.7-.1-.2-.4-.7.3-1.4 1.2-1 3-1.7 5.5-2.3a37.5 37.5 0 0 1 9.5-.7L33 68l-.6-7.9a455.4 455.4 0 0 1-.8-14.9c0-.6 0-1 .4-1 .3-.1.4.3.6.8a46.9 46.9 0 0 1 1 4.3c1.2 6.1 4.7 22.4 6 29.5.1.2.4.3 1.3.5h.2l.8.3h.3c-1.3-4.3-2.7-9.5-5.6-21l-1.4-5.5a268.4 268.4 0 0 1-3.8-17.3Zm52.7 44.6c-4 .1-7.5.6-9.4 1.3-1 .4-1.4.8-1.4 1-.3.6 0 1.4.5 2.3 1 1.3 2.7 2.6 5 3.5a23 23 0 0 0 9 1.7c4.9 0 9.4-1.8 11.4-4.6a5.6 5.6 0 0 0 .8-5.3l-.7-2c-1-2.8-2.7-7.5-12.1-36.5l-.6-1.8-.6-1.8c0 .8-.2 1.7-.4 2.7-.7 4-2 9.4-3.4 15l-1.8 7c-1.6 6.6-2.7 10.4-3.3 12.7a176.8 176.8 0 0 0-.8 2.8c0 .4-.2.8-.1 1l.6-.1c2.4-.6 5-.8 7.3-.9A1059.8 1059.8 0 0 1 86 43.7c0-.3 0-.6.4-.6.3 0 .3.3.4.7l.3 1.4v.1l6.5 32.9c.1.3 0 .7-.2 1a1 1 0 0 1-1 .2c-1.5-.2-4.4-.5-7.6-.4v1H87c5.5 0 9.8.6 11.8 1.8.8.4.8.8.7 1.1-.3 1-3.4 1.7-5.3 2-3 .4-6.3.5-9 .2-.6-.1-1-.6-1-1.2v-3.4Zm-52-.5H32c-5.7 0-10.6 1.2-12.8 3-.4.3-.2.5-.2.6.6.7 3.5 1.3 7 1.5 3.7.2 6.8-.2 7.7-1 0 0 .2 0 .2-1V80h-1.5Zm52.5.5-.1 3.4c0 .3.2.6.6.7 2.6.3 6 .2 8.9-.2 3.1-.5 4.7-1.2 4.8-1.6 0-.2-.2-.4-.4-.6-2-1-6.3-1.7-11.6-1.7h-2.2Zm1.1-2a46.3 46.3 0 0 1 7.1.3l.2-.5c-.1-.3-6-29.4-6.6-32.9v-.1l-.1-.9c-.2 1.2-.3 3.3-.5 6.4-.5 8-1 20.6-1.1 27.7h1ZM60.1 34.2h.7c5.6 0 13.5.2 20.1.5 2.4.1 3.7.5 4.6 1.4l.2.2c0-1.4-.2-2.2-.8-2.4-1.2-.6-11.5-1.3-24-1.2H60v1.5Zm-2.9-1.5c.1.4.3.7.5.9.4.4 1 .5 1.9.6v-1.5h-2.4Zm1-15.1c-.6 0-.8 0-1 .7a34 34 0 0 0-.3 6.3v2c0 2.6 0 4.4.2 5.6h2.5v-7c0-3.7 0-5.8-.3-6.8-.2-.8-.4-.8-1-.8Z"/>
</svg>
