<svg xmlns="http://www.w3.org/2000/svg" width="125" height="125" fill="none">
  <path fill="#CFE5DC" fill-rule="evenodd" d="M89.3 46.8c2.8-5 3-9.5 2.6-12.5-.5-4.8-3-8-6-11.8-2.4-3.2-6.8-6.5-11-6.3-6.2.2-13.3 8.8-5.2 14.3 4.3 3 7.6 6 11.5 14.8 2 4.5 5.1 6.8 8 1.5Z" clip-rule="evenodd"/>
  <path fill="#F99" d="M69.6 49.6h-3.2v3.2h3.2v-3.2Zm13.3-.2h-3.2v3.2h3.2v-3.2Zm13.6 0h-3.2v3.2h3.2v-3.2ZM55.6 63.2h-3.2v3.3h3.2v-3.3Zm13.6 0H66v3.3h3.2v-3.3Zm13.7 0h-3.2v3.3h3.2v-3.3Zm13.6 0h-3.2v3.3h3.2v-3.3Zm13.6 0H107v3.3h3.1v-3.3ZM55.6 77h-3.2v3.2h3.2V77Zm13.6 0H66v3.2h3.2V77Zm13.7 0h-3.2v3.2h3.2V77Zm13.6 0h-3.2v3.2h3.2V77Zm13.6 0H107v3.2h3.1V77ZM55.6 90.8h-3.2v3.3h3.2v-3.3Zm13.6 0H66v3.3h3.2v-3.3Zm13.7 0h-3.2v3.3h3.2v-3.3Zm13.6 0h-3.2v3.3h3.2v-3.3Zm13.6 0H107v3.3h3.1v-3.3Zm-40.9 13.8H66v3.3h3.2v-3.3Zm13.7 0h-3.2v3.3h3.2v-3.3Zm13.6 0h-3.2v3.3h3.2v-3.3Z"/>
  <path fill="#FCC" fill-rule="evenodd" d="M31.1 52.1c3-.1 8.2-1.2 11.4-1.8 5.3-1 5.7-6 3-9.5-5.6-7.3-16.1-3-19 4.3-1.4 3.9-.1 7.2 4.6 7Z" clip-rule="evenodd"/>
  <path fill="#E8E7F8" fill-rule="evenodd" d="M66.5 102.5c.7-4 2.1-8.8-3.5-11-5.4-2-12.7-.5-12.3 2.5.2 1.6 0 4.5 0 4.5-.2 2.5-1 2.5 0 3.7 1.4 1.9 3.3 3.4 6.7 4.1 4.5 1 8.7-1.2 9.1-3.8Z" clip-rule="evenodd"/>
  <path fill="#1A174F" d="M60.6 107.8H58l-3.5-.1c-1.6 0-3 0-4-.9-.6-.6-1-1.5-1-2.8v-3.8c-3.6 0-7-.6-9.2-1H40l.2-1.3.3.1c2.5.5 5.7 1 9 1v-6.1c0-2.9 1.9-3 4-3.1 1 0 2-.2 3-.4l-.5-.5c-1-1.1-1.5-2.8-1.3-5.1-1.8 0-4.6-.1-4.7-2.2a31 31 0 0 1 .8-9.6 29.6 29.6 0 0 1 11-15.5c5-4.1 9.8-8.8 7.6-16.2a10 10 0 0 0-12-6.5c-4 1-8.8 4-9.7 14 0 .6-.3 1.1-.9 1.5-1.9 1.6-7.1 1.7-16.4.5-.7 0-1.3-.5-1.7-1.2-.8-1.5-.6-4.3.6-8.3a28.4 28.4 0 0 1 13-18c12-7.3 29.6-6.7 40 1.4 8 6.3 10.6 16.1 7 27.7a25 25 0 0 1-10 13.2l-1.5 1h-.1c-4.7 3.4-10 7.1-10.2 13l.3 4.2c.2 1.3.4 2.5.3 3.8 12.3-2.6 24-.4 36.4 2l.3.1-.3 1.2h-.3c-12.4-2.4-24-4.7-36.2-2a9.7 9.7 0 0 1-1 3.3l.7 1.8c1 3.9.8 12.4-1.7 13.8a12 12 0 0 1-5.3 1Zm-5.1-1.4 2.4.1h.1c2.6.2 5.3.3 7.4-.8.5-.3 1.2-1.9 1.5-4.7a23.5 23.5 0 0 0-.7-8.5c-1.4 2.2-3.4 4-5.9 5.3a22.3 22.3 0 0 1-9.6 2.4v3.8c0 1 .2 1.6.6 2 .5.5 1.7.5 3.1.5h1.1Zm2.6-16-4.7.6c-2.2.2-2.7.3-2.7 1.9v6c3.5-.1 6.5-.9 9-2.2 2.5-1.3 4.6-3.2 5.8-5.4-.1-.2-.3-.2-.4-.2-2.6 0-5.1 0-7-.7Zm7-.5c.4 0 .7 0 1 .3.3-.7.5-1.3.6-2l-1.1.3h-.2L61 89.9h4.1ZM56 83.7c-.2 2 .1 3.5 1 4.5.3.4.8.7 1.4 1a102 102 0 0 0 6.9-1.8l1.7-.5-.3-3.9c-.3-1.4-.5-2.9-.4-4.5.3-6.4 6.1-10.5 10.7-13.8l1.6-1.1A24 24 0 0 0 88 51c3.4-11 1-20.5-6.6-26.4a36 36 0 0 0-38.6-1.3 27 27 0 0 0-10 11c-1.2 2.2-4.5 11.1-3.2 13.6.2.4.5.6.9.6 11.3 1.5 14.5.5 15.4-.2.3-.2.4-.4.4-.7.8-8.3 4.6-13.7 10.6-15 6-1.4 11.8 1.7 13.5 7.3 2.5 8.2-2.6 13.1-8 17.5-4 3.2-8.8 7.9-10.6 14.8-.7 2.8-1 5.8-.7 9.3 0 .9 1.9 1 3.6 1 .6-4 3.6-4 6.5-4h.4c1.6.1 2.6 1.2 3 2.1.5 1 .5 2 0 2.6-.3.4-.9.9-2 .6-1.6-.4-3.7-.3-5.8-.2h-1Zm3.7-1.3c1.4 0 2.4 0 3.3.3.2 0 .7.1.8-.1.2-.2.2-.8 0-1.3-.3-.7-1-1.3-2-1.4h-.5c-2.9 0-4.7 0-5.2 2.6h3.5v-.1Z"/>
</svg>
