<svg xmlns="http://www.w3.org/2000/svg" width="127" height="125" fill="none">
  <path fill="#E8E7F8" fill-rule="evenodd" d="M96.3 71.5c3.2.5 10 1.5 14 1 7-.9 11.8 10.3 8.2 19.4-2.3 5.9-13 13.7-17.2 13.7-6 0-12.6-9.3-13.2-19.8-.6-9.8 2.6-15.1 8.2-14.3Z" clip-rule="evenodd"/>
  <path fill="#CFE5DC" fill-rule="evenodd" d="M30.1 101c2.5-.6 7.7-5 11.5-15.4 3.6-10.2.3-19-4.2-18-2.8.5-7.1 3.6-10 5.4-9.3 5.7-5.4 30 2.7 28Z" clip-rule="evenodd"/>
  <path fill="#FCC" fill-rule="evenodd" d="M83.5 66.6c2.5-.8 6.7-4.6 10-6.7 2.3-1.5 4.4-3.3 5.4-6.2 1.7-5.5.8-11.2-2.2-15.7-2.6-4-5.2-5.3-8.8-3.7-3.2 1.4-6 3.8-7 9.4-1 6-1.3 9-3.9 14-3 6.2 1.7 10.5 6.5 8.9Z" clip-rule="evenodd"/>
  <path fill="#78E0ED" d="M24.4 27.8h-3v3h3v-3Zm12.8-.2h-3v3h3v-3Zm13.1 0h-3v3h3v-3ZM11 40.7H8v3h3v-3Zm13 0h-3v3h3v-3Zm13.2 0h-3v3h3v-3Zm13.1 0h-3v3h3v-3Zm13.1 0h-3v3h3v-3ZM11 53.8H8v3h3v-3Zm13 0h-3v3h3v-3Zm13.2 0h-3v3h3v-3Zm13.1 0h-3v3h3v-3Zm13.1 0h-3v3h3v-3ZM11 66.9H8v3h3v-3Zm13 0h-3v3h3v-3Zm13.2 0h-3v3h3v-3Zm13.1 0h-3v3h3v-3Zm13.1 0h-3v3h3v-3ZM24 80h-3v3h3v-3Zm13.2 0h-3v3h3v-3Zm13.1 0h-3v3h3v-3Z"/>
  <path stroke="#1A174F" stroke-linecap="round" stroke-linejoin="round" stroke-width="1.1" d="M1 95.2c3.8.4 26.5-.3 28.5-.2 1.3-7.2 1.3-13.7.5-17 2.7 2-.9 18.7 0 19 7.6 2.9 26 10.9 28.5 9.6.8-.4 3.3-20-.9-24-1.6-1.4-27.9-5.2-28.6-6-.2-.3 8-4.4 9.5-3.7.7.2 19.3 8 19.9 7.8 2-.8.5-8.5-2.1-9a96 96 0 0 1-16.2-4c2.7-1.2 26.3 3.2 28.4 1.5 1.3-1 .4-3.8.3-5.7-.2-2.2-4.5-1.2-5.6-1.2-6 0-11.8-2.2-17.7-2.2-1.2 0-5.3.4-6.1-.7l-.2-.4c.3-1.2 3.9-.1 4.6 0 4.1 1 8.5.6 12.6 1.6 1 .2 2.2.7 3.3.5 1.5-.4.2-6.5-.2-7.6 0-.3-.4-.6-.3-.8 1.3-1 31.5-3.8 36.2-2.9.1 1.4 1.1 7.8-.3 8.2-8 2-32.8 3.5-35.5 2.5 1.3-3 0-7-1.5-8.4-.7-.7-10-.3-12-.8-.6-.1.6-7.1 0-8.3-.5-1.1-13.7-2-14-1.7-.2.1.5.7.5.8.5.8.8 2.5.7 3.5-.1 1.4-2.4 2.6-1.6 3.6 0 0 5.9 1.7 13.2 2 10.1.5 23.3-.5 30.2-.5 2.7 0 13.5 1.3 14-2 .3-1.6.7-5.3-.2-6.4-4.5-1.2-18.7-1.7-21.5-2.3-1.7-.4-28.6.5-32.1.5-.4 0-2.9-.1-2.9.6 0 .4 10.4 2.1 14.6 1.5 5.5-.9 39-1.2 42.1.8.3.2-.6 5.6-.2 6 2.1-.2 5.7 0 6.4.3 1.3.7.3 5.8.9 6.5-.2.6 3.7 1.1 6 1.6.2 0 .7 4.7-.5 6.5.4-1.2.5-6 0-6-4.8.5-31.5 2.3-32.4 3.4-1 1.3.2 7.3.3 7.8.1.3.9.2 1 .2 2.3 0 21.7-3.8 29.2-5 .3 0 3.3 1.2 5.1 1.4 1.4 2.3.7 7.1.7 7.4 0 0 .3-5.8-.6-6.4-2.2-1.3-17 1.4-20.8 1.8-4.6.6-14.6 1.1-17.5 1.1-2.6 0-5.4.7-8 1.2-.2.1-.7 0-.7.5 0 1.5 1.5 3.5 1.7 5 .2 1.2-.4 3-.4 4.2 0 .5 44-7.9 47.5-7 3.1.8 2.9 16.6 2.1 19.6-.5 1.8-41.7 11.2-44.9 12 0 0 9-13.2 1.1-24.6 0-.5 5.3-1.4 5.9-1 .7.5 7.3 14 0 24.6.1 0 55-1.6 55-1.8"/>
</svg>
