<svg xmlns="http://www.w3.org/2000/svg" width="125" height="125" fill="none">
  <path fill="#F99" d="M71.4 45.6h-3v3.2h3v-3.2Zm13.1-.2h-3.1v3.2h3.1v-3.2Zm13.5 0h-3.2v3.2h3.1v-3.2ZM57.7 59.2h-3.1v3.2h3v-3.2Zm13.3 0h-3v3.2h3v-3.2Zm13.5 0h-3.1v3.2h3.1v-3.2Zm13.5 0h-3.2v3.2h3.1v-3.2Zm13.3 0h-3v3.2h3v-3.2ZM57.7 73h-3.1v3.2h3V73ZM71 73h-3v3.2h3V73Zm13.5 0h-3.1v3.2h3.1V73ZM98 73h-3.2v3.2h3.1V73Zm13.3 0h-3v3.2h3V73ZM57.7 86.8h-3.1V90h3v-3.2Zm13.3 0h-3V90h3v-3.2Zm13.5 0h-3.1V90h3.1v-3.2Zm13.5 0h-3.2V90h3.1v-3.2Zm13.3 0h-3V90h3v-3.2ZM71 100.6h-3v3.2h3v-3.2Zm13.5 0h-3.1v3.2h3.1v-3.2Zm13.5 0h-3.2v3.2h3.1v-3.2Z"/>
  <path fill="#CFE5DC" fill-rule="evenodd" d="M88.9 44.8A33 33 0 0 0 108.6 33c6.4-7.8.7-14.6-7.2-13.8-4.8.5-12.3 2.8-17.2 4.2-16 4.4-9.3 23 4.7 21.4Z" clip-rule="evenodd"/>
  <path fill="#FCC" fill-rule="evenodd" d="M56.3 109.6c3-.8 8-4.4 11.7-6.3 2.7-1.4 5.3-3.1 6.4-5.8 2-5.2 1-10.6-2.5-14.8-3.1-3.8-6.2-5-10.4-3.4a11 11 0 0 0-8.1 8.7c-1.2 5.7-1.7 8.5-4.7 13.3-3.5 5.7 2 9.7 7.6 8.3Z" clip-rule="evenodd"/>
  <path fill="#E8E7F8" fill-rule="evenodd" d="M28.8 76.4A88.3 88.3 0 0 0 23.4 89c-1.8 6.8-10.5 7.8-15 1.7-3-4-4.3-16.2-2.9-20 2.1-5.6 10.2-8.9 17.1-6.3 6.4 2.4 8.6 7 6.2 12Z" clip-rule="evenodd"/>
  <path fill="#1A174F" d="M124.7 16.6c-.4-.4-1-.5-1.4-.2l-2.2 1.2V17c-.1-.6-.7-1-1.2-.9l-47.5 7.2c-.8.1-1.4.7-1.5 1.5-.1.8.3 1.5 1 1.8l10 5 .7-1.6-10-5 42.2-6.3L83.5 31c-.6.2-1 .9-1 1.6v11.7l-1.7.2c-3 .4-6.5.9-9.3 2.4a14 14 0 0 0-4-.3c-4 .3-7.7 1.6-11.2 4a36 36 0 0 0-5.4 5l-18 1.7a700.6 700.6 0 0 0-29.4 3.8 1 1 0 0 0-.7.7c-.2.7.2 1.3 1.8 2.9a192.7 192.7 0 0 0 25.8 19.5c3.9 2.4 5 2.5 5.6 2.3 1.1-.4 1.8-2 3.8-7 2-5.1 5.2-12.8 9.7-19.2l2.2-2.9a169.3 169.3 0 0 1 7.7-.2c2.3.1 2.7.4 2.8.4.2.3.9 1.4 1.9 7a170.3 170.3 0 0 1 2.5 27c0 5.8-.5 6.7-.6 6.7 0 0-.6.5-3.8 1.3a331.3 331.3 0 0 1-34 4.8c-18.2 1.6-21 0-21.3-.3-1.1-1-2-3.8-2.6-6a82 82 0 0 1-1.9-11c-.8-8-1-16.2-.2-19.5v-.3L.7 67v.2a81 81 0 0 0 .1 20.1c.5 4.3 1.1 8.2 1.9 11.2 1 3.6 2 6 3.2 7 .7.6 2.3 1.3 8.4 1.4h.7a332.5 332.5 0 0 0 47.8-5.6c3.5-.9 4.3-1.4 4.6-1.9.5-.5 1-2 1-7.8a169.3 169.3 0 0 0-2.5-27.3c-1.2-6.7-2-7.6-2.4-7.9-.7-.7-2.3-1.2-10-.8 1.2-1.4 2.6-2.5 4-3.5a19.8 19.8 0 0 1 12.1-3.7l-.9 1c-1.5 2-2.1 4.8-1.7 8.3.4 2.1.9 3.8 1.6 4.8 1 1.4 2.2 1.6 3 1.5 1.5-.2 3-1.6 4.2-3.8 1.1-2.1 1.7-4.6 1.5-6.8a7 7 0 0 0-3.4-5.6c2.3-.9 4.9-1.2 7.3-1.5l1.4-.2c.2.4.5.7 1 1a2 2 0 0 0 1.8-.3l8-7 11.3 7.7a1.7 1.7 0 0 0 2.5-.5l17.7-29c.3-.5.2-1-.1-1.4Zm-2.5 2.4-16.6 27c0 .1 0 0 0 0l-11.3-7.6a1.7 1.7 0 0 0-2.1 0L89.3 41a23.8 23.8 0 0 1 8.7-8.5L122.2 19ZM90.8 36.1c-1.9 2-3.4 4.4-4.5 7-.2.5-1.5.8-2.2 1V32.5l34.2-13.4-21 11.8c-2.5 1.3-4.7 3-6.5 5.1ZM73.6 49.8c1 .8 1.7 2.1 1.9 3.8.1 1.8-.4 4-1.3 5.8-.9 1.6-2 2.7-3 2.9-1.1 0-2-1.7-2.5-4.9-.4-3 0-5.3 1.3-7a7 7 0 0 1 1.8-1.6 4 4 0 0 1 1.8 1Zm-24.3 7.8-1.2 1.6c-4.7 6.6-7.8 14.5-9.9 19.7l-1.8 4.3a6.7 6.7 0 0 1-1 1.6c-.2 0-1.4-.4-5.5-3A188 188 0 0 1 5 62.7a814 814 0 0 1 44.3-5Z"/>
</svg>
