<svg xmlns="http://www.w3.org/2000/svg" width="125" height="125" fill="none">
  <path fill="#CFE5DC" fill-rule="evenodd" d="M27.2 100.7c2.4-.6 7.3-5 10.9-15.3 3.5-10.2.3-19-4-18-2.7.6-6.7 3.7-9.5 5.4-8.8 5.7-5 30 2.6 28Z" clip-rule="evenodd"/>
  <path fill="#E8E7F8" fill-rule="evenodd" d="M76 74.7c3 .4 9.3 1.5 13.1 1 6.8-1 11.3 10.2 7.9 19.3-2.2 5.9-12.4 13.6-16.3 13.6-5.7 0-12-9.2-12.7-19.7-.5-9.7 2.6-15 8-14.2Z" clip-rule="evenodd"/>
  <path fill="#FCC" fill-rule="evenodd" d="M87.6 49c2.4-1 6.4-4.7 9.4-6.7 2.3-1.5 4.3-3.3 5.2-6.2 1.7-5.5.8-11.2-2-15.6-2.5-4-5-5.3-8.5-3.7-3 1.3-5.6 3.8-6.5 9.3-1 6-1.3 9-3.7 14-3 6.2 1.6 10.4 6 8.9Z" clip-rule="evenodd"/>
  <path fill="#78E0ED" d="M21.8 27.7H19v3.1h3v-3Zm12.2-.1h-3v3h3v-3Zm12.4 0h-2.9v3h3v-3ZM9 40.6H6.1v3h3v-3Zm12.5 0h-3v3h3v-3Zm12.5 0h-3v3h3v-3Zm12.4 0h-2.9v3h3v-3Zm12.5 0H56v3h2.9v-3ZM9 53.6H6.1v3.1h3v-3Zm12.5 0h-3v3.1h3v-3Zm12.5 0h-3v3.1h3v-3Zm12.4 0h-2.9v3.1h3v-3Zm12.5 0H56v3.1h2.9v-3ZM9 66.7H6.1v3h3v-3Zm12.5 0h-3v3h3v-3Zm12.5 0h-3v3h3v-3Zm12.4 0h-2.9v3h3v-3Zm12.5 0H56v3h2.9v-3ZM21.5 79.8h-3v3h3v-3Zm12.5 0h-3v3h3v-3Zm12.4 0h-2.9v3h3v-3Z"/>
  <path stroke="#1A174F" stroke-width="1.3" d="M80.6 27.3H33.1c-3 0-3.2 4.2-3 6.3 0 19.6-.2 60.3 0 65.9.4 5.6 2.1 6 3 5.5h47.5c6.2 0 6.8-3.7 6.3-5.5v-66c0-6.4-4.2-6.8-6.3-6.2ZM7 107.1l24-4m57-1.4c4.1 1 13.2 1 16.5-6.6 4.1-9.4-6.8 6.6 3 6.6 7.8 0 12.3-2.7 13.5-4"/>
  <path stroke="#1A174F" stroke-width="1.3" d="M36.6 27.2c-.5-1.7 0-6.8 4.3-6.6L92 23.2c1.3.3 3.7 2.2 3.5 7L92 96.5c-.1 1.6-1 4.9-4 4.7h-1.5"/>
  <path stroke="#1A174F" stroke-width="1.3" d="M43 20.7c-.4-1.7 1.6-4.1 4.6-4 4.2.3 35.6 4.4 50.8 6.3 1.2.4 3.5 2.4 2.9 7.2l-8.1 65.9c-.2 1.6-1 5.4-4 5"/>
  <path stroke="#1A174F" stroke-linecap="round" stroke-width="1.3" d="M35 48.1h42m-42 30h42m-42-39h42m-42 30h42m-42-11h42m-42 28h42m-42 9h42"/>
</svg>
