<svg xmlns="http://www.w3.org/2000/svg" width="125" height="125" fill="none">
  <path fill="#78E0ED" d="M69.6 63.6h-3.2v3.2h3.2v-3.2Zm13.3-.2h-3.2v3.2h3.2v-3.2Zm13.6 0h-3.2v3.2h3.2v-3.2ZM55.6 77.2h-3.2v3.3h3.2v-3.3Zm13.6 0H66v3.3h3.2v-3.3Zm13.7 0h-3.2v3.3h3.2v-3.3Zm13.6 0h-3.2v3.3h3.2v-3.3Zm13.6 0H107v3.3h3.1v-3.3ZM55.6 91h-3.2v3.2h3.2V91Zm13.6 0H66v3.2h3.2V91Zm13.7 0h-3.2v3.2h3.2V91Zm13.6 0h-3.2v3.2h3.2V91Zm13.6 0H107v3.2h3.1V91Zm-54.5 13.8h-3.2v3.3h3.2v-3.3Zm13.6 0H66v3.3h3.2v-3.3Zm13.7 0h-3.2v3.3h3.2v-3.3Zm13.6 0h-3.2v3.3h3.2v-3.3Zm13.6 0H107v3.3h3.1v-3.3Zm-40.9 13.8H66v3.3h3.2v-3.3Zm13.7 0h-3.2v3.3h3.2v-3.3Zm13.6 0h-3.2v3.3h3.2v-3.3Z"/>
  <path fill="#E8E7F8" fill-rule="evenodd" d="M57.7 117.5c-2.5-1.1-7.7-3.6-11-4.6-5.7-1.6-7.7-8.2-3.3-11.3 3-2 12.7-2.4 16-1.2 4.8 1.8 8.5 8 7.3 13-1.2 4.7-4.7 6.1-9 4.1Z" clip-rule="evenodd"/>
  <path fill="#CFE5DC" fill-rule="evenodd" d="M118.4 43.2a23 23 0 0 0-7.7-12.8c-4.8-4.2-10.5-5.8-17-7.8-5.5-1.7-13.3-2.5-18-.2-6.8 3.4-7.4 15 6.5 15.9 7.4.5 13.7 1.5 25.8 7.7 6 3 11.6 3.6 10.4-2.8Z" clip-rule="evenodd"/>
  <path fill="#FCC" fill-rule="evenodd" d="M44.8 58.4c2.4-3 6.3-8.8 8.8-12.4 4-6 1.8-8.5-2.5-7.3-8.6 2.5-15.3 15.2-13.9 21.3.8 3.2 3.7 3.4 7.6-1.6Z" clip-rule="evenodd"/>
  <path fill="#1A174F" d="M123.5 48h.3c.2-.2.2-.4 0-.6-8.3-8.4-15-13.3-22-18.4A40 40 0 0 0 89 22.8l-.4-.1c-1.3-.2-3.4-.6-11.1.1a47 47 0 0 1-18.9-1.5l-2.6-.7c-3-.9-3.3-.7-5.9 3.1l-2.7 4.4-.3.4a38 38 0 0 1 5-7.8l.4-.3c0-.1 0-.3-.2-.3 0-.1-.3-.1-.4 0h-.2c-1.5.8-11 5.2-15 6.6-2.3.8-5 1.4-7.5 1.9-2.2.5-4 .8-5.3 1.3-2.5 1-18.8 13.3-21.2 15.5l-.3.3.1.3.4.1c.7-.3 29-9.6 42-12.3h1.5l-2.7.4C41 34.7 1.8 46.6 1.5 46.7c-.3.1-.5.3-.5.6 0 .4.5.8 1.4 1.4 1.2.8 2.9 1.9 3.7 3.5l1.7 3a14 14 0 0 1 2.2 4.2c0 .8.9.8 2.9.8s5.4 0 11 .5c13 1.4 14.3 3 14.3 3 .4.5 1.7.4 6.7-.3 3-.4 6.8-1 9.9-1l3.5-.1 3.3-.1c.4 11 .9 24.4 1 30.9v2.5c0 11.9 0 15.5-4.6 16.2-1.8.3-3.5-.5-4.6-2.2-.7-1-.9-2.3-.5-3 1.2-1.8 1.9-2.9 1.1-3.4a3 3 0 0 0-2.3-.3c-.7.2-1.3.8-1.7 1.7-1 2.4-.4 6 2.8 8.5 1 1 2.6 1.8 4.5 1.8a8 8 0 0 0 4.7-1.6c2.2-1.6 3-3.9 3.2-8.8.2-4-.7-23.7-1.4-39.5l-.1-2.9c3 0 5.4 0 5.8.4.7.6 2 .2 5-.5 2.2-.6 5.3-1.4 9.4-2a60.4 60.4 0 0 1 17-1.4c.6.5 1.2 0 2.2-.8 1.3-1 3.5-2.9 8-4.7a65.8 65.8 0 0 1 12.6-3.9c.1 0 .3-.1.3-.3 0-.1 0-.3-.6-1ZM44.7 33A522 522 0 0 0 4.6 44.7c4.5-3.5 17.6-13.2 19.6-14 1.2-.5 3-1 5.2-1.4 2.4-.5 5.2-1 7.6-1.9.7-.3 9.5-3.9 13.5-5.8-2 2.7-5.1 8.3-5.5 9.7 0 .2-.2.7.1.9.5.1.6 0 2.9-3.7l2.7-4.4c1.7-2.3 3.3-3.3 5-2.8l2.7.8a50 50 0 0 0 19.1 1.5c7.7-.7 9.7-.4 11-.2h.3c1.5.3 7.4 2.5 12.5 6.2A165 165 0 0 1 122 46.8c-1.7-1.6-5-4.3-11-9.2l-2.6-2.1c-1-.8-38.3-1.3-38.6-1.2-.4 0-.4.3-.5.4 0 .3.1.4 2 1 2.7 1 9 3.2 17.9 7.7a68.4 68.4 0 0 1 7 8.2l-1-1.2a43.4 43.4 0 0 0-6.5-7 160 160 0 0 0-21.2-8.7c-1.6.2-3 .7-3.7 1.8-.4.7-.3 1.6.1 2.8 1 2.2 2.3 6 3 8.2l.7 1.7 1 3.8a113 113 0 0 0-6.2-16.5c-.6-1-1.4-2.1-4.5-2.8-3.3-.7-12.7-.8-13.3-.7Zm13.6 28.6-3.5.1c-3.1.1-7 .6-10 1-2.6.4-5.5.8-6 .7-.7-1.2-6.2-2.4-14.9-3.3a89 89 0 0 0-9.6-.6h-3.4c0-.8-1-2.2-2.4-4.8l-1.7-3c-1-1.7-2.7-2.8-4-3.6l-.9-.7c3-1 39.9-12.1 42-12.5l.7-.1a221.8 221.8 0 0 0-18.8 6.7c-.8.6-2.8 2.1-6.5 6.2a37 37 0 0 0-6.3 8.2l.3.2c.2 0 .3 0 1.7-1.7 3-4 8.5-9.1 11.3-11.3 2.8-2.1 19-6.8 20.2-7.1 1.2-.3 6.5-.8 8.2-.6a73.2 73.2 0 0 0-11.9 13 53 53 0 0 0-3.7 12.8l.4.1a97.4 97.4 0 0 1 5.3-12.9l.8-.9c2-2.3 7.4-8.5 9.1-10l.1-.1a4.4 4.4 0 0 1 4.4-1l.7.1v1.9c-.1.7-.2.8 0 1a15.5 15.5 0 0 1 .4 3v1a564.1 564.1 0 0 1 1.1 18.1l-3.1.1Zm-28-21.3c-2 .8-3.7 1.6-4.4 2.2a62.9 62.9 0 0 0 .8-.7l3.7-1.5Zm34.2 64.2c-.2 5.3-1.2 7-3 8.2-2.9 2-5.7 2-8.2 0-3-2.5-3.4-5.6-2.5-7.7.2-.7.6-1.1 1.2-1.3h.5l1 .2c.1.3-.6 1.5-1.2 2.5-.6.8-.4 2.4.5 3.7a5.3 5.3 0 0 0 5.3 2.5c5.4-.8 5.3-4.9 5.2-17v-2.4c0-6.3-.5-19.8-1-31h.6l.1 3c.8 15.7 1.6 35.4 1.5 39.3Zm46.3-52a28.5 28.5 0 0 0-8.2 4.8c-.7.5-1.1.9-1.3.8a56 56 0 0 0-17.5 1.1c-4 .7-7.2 1.5-9.5 2.1-2.1.5-4 1-4.3.7-.4-.4-2-.6-4.6-.6h-1.7L63 45.2c.4-.7.3-1.6.2-2.3V42a.4.4 0 0 0-.6 0c-.2.3-.2.6-.1 1 0 .6.2 1.4-.2 1.9 0 .2-.1.2.6 16.6h-.6a436.6 436.6 0 0 0-1.1-18.2c0-.7-.1-1-.2-1.1v-.4c0-.6-.4-2.5-.5-2.7l.1-.6c.2-1.7.2-2.5-.4-2.7l-.8-.2c-2.7-.8-2.8-.8-5 1.2h-.2A166 166 0 0 0 45 47l-.7 1c-.4.4-1.5 2.8-2.5 5.5a57 57 0 0 1 1.7-4.8c.4-.8 5.2-7 12-13.1.3-.2.3-.5.2-.6-.5-1-9.2.2-9.3.3a387.8 387.8 0 0 1 1-.5c.2-.2.7-.3.6-.7 0-.1 0-.3-.4-.3 3.1 0 8 .2 10.3.7 2.8.6 3.5 1.6 4 2.5l.4.4a110.1 110.1 0 0 1 7.4 23c.5 0 .5-.3.4-2.2-.2-3.7-1.2-7.9-1.7-9.2l-.6-1.7-3-8.3c-.4-1-.4-1.6-.1-2.2.4-.8 1.7-1.1 3-1.4 1.2-.1 15.4 6 20.9 8.7a50 50 0 0 1 6.2 6.8l1 1.2c4.2 4.9 4.4 4.7 4.7 4.4.4-.2.5-.3-2-3.7a64.3 64.3 0 0 0-8.8-10c-9-4.6-15.3-6.8-18-7.8 7.2 0 34.7.7 36.3 1.1l2.6 2.1c3.4 2.8 11 8.8 12.5 10.5a66 66 0 0 0-12.3 3.8Z"/>
</svg>
