<svg xmlns="http://www.w3.org/2000/svg" width="130" height="125" fill="none">
  <path fill="#78E0ED" d="M69.6 49.6h-3.2v3.2h3.2v-3.2Zm13.3-.2h-3.2v3.2h3.2v-3.2Zm13.6 0h-3.2v3.2h3.2v-3.2ZM55.6 63.2h-3.2v3.3h3.2v-3.3Zm13.6 0H66v3.3h3.2v-3.3Zm13.7 0h-3.2v3.3h3.2v-3.3Zm13.6 0h-3.2v3.3h3.2v-3.3Zm13.6 0H107v3.3h3.1v-3.3ZM55.6 77h-3.2v3.2h3.2V77Zm13.6 0H66v3.2h3.2V77Zm13.7 0h-3.2v3.2h3.2V77Zm13.6 0h-3.2v3.2h3.2V77Zm13.6 0H107v3.2h3.1V77ZM55.6 90.8h-3.2v3.3h3.2v-3.3Zm13.6 0H66v3.3h3.2v-3.3Zm13.7 0h-3.2v3.3h3.2v-3.3Zm13.6 0h-3.2v3.3h3.2v-3.3Zm13.6 0H107v3.3h3.1v-3.3Zm-40.9 13.8H66v3.3h3.2v-3.3Zm13.7 0h-3.2v3.3h3.2v-3.3Zm13.6 0h-3.2v3.3h3.2v-3.3Z"/>
  <path fill="#CFE5DC" fill-rule="evenodd" d="M96.1 39.8a23 23 0 0 0-11.5-9.6c-5.9-2.4-11.9-2-18.7-1.9-5.8.2-13.6 2-17.3 5.6-5.5 5.4-2.3 16.4 11.3 12.9a60 60 0 0 1 27.2-1c6.8 1 12.3-.3 9-6Z" clip-rule="evenodd"/>
  <path fill="#FCC" fill-rule="evenodd" d="M102 83c5-.2 14.2-1.3 19.9-2 9.3-1.2 10-6.7 5.2-10.8-9.7-8.2-28.2-3.3-33 4.9-2.7 4.4-.5 8.1 7.9 7.9Z" clip-rule="evenodd"/>
  <path fill="#E8E7F8" fill-rule="evenodd" d="M49.7 54.6c-12-3.2-30.2 8.5-38.6 19.6-8.3 11-1 20 8.6 20.5a38 38 0 0 0 13.7-2.5c2-.8 6.3-1.7 10.3-3.2a23.7 23.7 0 0 0 15-12.7c4.2-9.4-1-19.5-9-21.7Z" clip-rule="evenodd"/>
  <path fill="#1A174F" d="M122.1 74.6a29.2 29.2 0 0 1-16.9 2.7v-1.5c8.7.9 15-1.5 16.9-3.2.6-.5.9-1 .9-1.6 0-.5-.2-.9-.5-1.3-1.7-1.7-7.8-2.7-9.9-2.7h-.5c-2.2 0-4.6 0-8.5 1.3-.2.1-.3.3-.3.5v1c-.8.4-2.1.8-3.9 1v-1.6c3-.6 5.4-1.5 6.9-2.7l.2-.4v-1.5c1.7-.8 2.6-1.7 2.6-2.8 0-1.4-1.8-2.7-5.2-3.6-2.1-2-8.5-2.9-13.5-2.9s-9.3.7-12 1.9V55a11 11 0 0 0 3.2-1.6l.2-.4v-2l1.4-.6c.2 0 .3-.2.3-.4v-3.1c0-.2 0-.3-.2-.4h-.4l-1.1.5a49.4 49.4 0 0 1-.2-2 .4.4 0 0 0-.4 0c-.7.3-1.6.6-2.7.8v-1.5c1.4-.4 2.6-.9 3.3-1.5l.2-.3v-1l.3-.1c1.2-.3 1.8-.8 1.8-1.7 0-.8-1-1.4-2.4-1.5h.2c.2-.1.3-.3.3-.5v-2c.2 0 .3 0 .5-.2.4-.1 1.8-.7 1.8-1.7 0-.8-1-1.2-2.7-1.3.6-.2 1.1-.5 1.5-.9v-.3l.1-3.2c0-.3-.2-.5-.4-.5-.3 0-.5.2-.5.5 0 .1-.8.8-4 1.4 2.3-.5 3.5-1 3.5-2 0-.7-.9-1.2-2.7-1.6h-.1a22 22 0 0 0-3.2-.6h-.1c-2-.2-4.3-.3-6.6-.3-4.9 0-14 .6-14 3 0 .6.5 1.1 1.4 1.5-.6.2-1.4.5-1.4 1.3 0 .6.4 1 1.3 1.5v2.3c0 .2.1.4.3.5l1 .5c-.3 0-.7.1-1 .6v.3l-.1.7V39c.3.5.8 1 1.4 1.3-1.2.2-2 .8-2 1.5 0 .6.5 1 1.8 1.5V45l-1-.4c-.1-.1-.3 0-.4 0l-.2.4v3c-2.1-.3-4.5-.4-7-.4-5.7 0-14.2 1-14.2 3.8 0 2.9 8.4 3.9 14 3.9h.2c1.6 0 4.5-.2 5.7-.4 3-.4 6.6-1.3 6.6-3 0-1-1.5-2-4.4-2.6v-.2c3.8.7 5.5 1.7 5.5 2.3 0 .2 0 .4-.2.5-.2.1-.2.3-.2.5l.3.3a35 35 0 0 0 14.9-.5v2A29.3 29.3 0 0 1 63 55a37.4 37.4 0 0 1-27.1.4c-.2.1-.2.3-.2.5a386.8 386.8 0 0 1 .3 3.8c3.3 1.8 9 2.7 14.6 2.6 5.8-.2 10.4-1.5 12.3-3.6l.2.2c.3 0 .5.2.7.3h-.4c-.2.2-.3.3-.3.5v3c-.4.3-1 .4-1.6.6v-2c0-.3-.2-.5-.4-.5s-.4 0-.5.2c-.7 1.6-4.5 2.8-9.7 3.1a23.8 23.8 0 0 1-11.6-3 13 13 0 0 1-4.2-1.4 90.4 90.4 0 0 1-.2-2.8.4.4 0 0 0-.4 0h-.2c-.5.2-1.3.5-1.3 1.6 0 .6.4 1.2 1.2 1.8v2.5c0 .2.1.3.3.4A37.3 37.3 0 0 0 50.9 65c3.4.2 7 0 9.8-.7v2a35 35 0 0 1-21.1-1.5h-.4c-.2.1-.2.3-.2.4a435 435 0 0 0 .1 3.6l1 .6-2-.8v-2.2L38 66a.4.4 0 0 0-.5 0c-.8.3-1.3.9-1.3 1.6 0 .5.3 1 1 1.6v2.6c0 .2.2.4.3.4a42.4 42.4 0 0 0 21.7 1.2v1.7a32 32 0 0 1-20.9-.8H38l-.2.4v2.4l.2.4a34 34 0 0 0 21.3 2v.4l.1.4.4.1c.8 0 2-.5 2.7-1l.2-.4v-.8a9 9 0 0 0 1.4-.8v1.8c-.5.5-1.2 1-2.2 1.5h-.1l-1.5.6-.6.3-1.3.3H58c-2 .5-4.3.7-6.7.7-5.5 0-10.5-1.3-12.4-3.3a.4.4 0 0 0-.5-.2l-.3.4c-.7 4.3-4.1 8.5-8.9 11-6.8 3.7-14.1 2.7-17.3-2.2 1.4 1.2 3.2 2 5.4 2.2 3.3.4 7-.4 10.5-2.3a19 19 0 0 0 8-7.6c1.7-3 2-6.1.7-8.6-1.2-2.5-3.7-4-7-4.5a18 18 0 0 0-10.6 2.3 17.6 17.6 0 0 0-9.2 10.8v.4l.4.2h2v.1H3.3c-.2 0-.4.2-.4.5 0 .2.2.4.4.4H12c0 1 .2 2 .6 3 2 3.8 8.5 4.2 14.5.9a17 17 0 0 0 6.5-6.3c1.4-2.6 1.6-5 .6-7-1-1.9-3-3-5.8-3.2a16.2 16.2 0 0 0-9 2.6c-.2 0-.2.2-.2.4s.1.4.3.4c2.4.7 4.8.1 6.4-.5l-5.6 6.8c-.6.7-.8 1.3-.6 1.8l.1.2H13v-.1h.5c1.7 0 3.1-.7 4.3-2l3.2-3.6 1-1.3c.2-.1.2-.4 0-.5a.4.4 0 0 0-.4-.3c-1.5.4-2.7 0-3.2-.3h-.5c-2.8 2-4.7 4.5-5.5 7h-1.6c1-3.6 4.3-7.3 8.6-9.6 3.3-1.8 6.9-2.5 10-2.2 3 .4 5.3 1.8 6.4 4 1.1 2.2.9 5-.7 7.8a18.5 18.5 0 0 1-7.5 7.2 17.4 17.4 0 0 1-10 2.2c-3.1-.4-5.4-1.8-6.5-4a7 7 0 0 1-.6-2.3c0-.2-.2-.3-.4-.3-.3 0-.5.1-.5.4a10 10 0 0 0 1.5 5c3.3 5.7 11.3 7 18.6 3 4.7-2.5 8.2-6.7 9.2-11 2.4 2 7.2 3.2 12.5 3.2l4.5-.3C54 84.3 53 85.7 53 87l.3 1.2-.3 1.5c0 2.2 1.8 4.3 5 5.9a28 28 0 0 0 11.7 2.3c8.5 0 15.4-3 16.6-7h8.8c.2 0 .4-.3.4-.6 0-.2-.2-.4-.4-.4H86c-.2 0-.4.1-.4.4C84.9 94 78 97 69.8 97 61.1 97 54 93.8 54 89.8v-.3c2.2 2.7 8.4 4.6 15.6 4.6 9.3 0 16.5-3 16.5-7 0-.8-.3-1.7-1-2.4 6.3.5 13-.4 16.4-2.3 1.4-.8 2.2-1.7 2.5-2.7V78h.3v1.5c0 .2.2.4.4.4 4.4 1 16 .3 18-4.7l-.1-.5a.4.4 0 0 0-.5 0ZM81.3 34.5v.5l-2.8.6v-2.2l3-.7-.2.3v1.5Zm-.2 6.1-2.6.4v-2l2.7-.6-.1.3v2Zm.7 7.4.8-.4v2.1l-.8.3v-2Zm-3.3-15.6v-2a12 12 0 0 0 4-1.2v1.9c-.7.5-2 1-4 1.3Zm2.6 9.2v.6c-.6.5-1.5.9-2.6 1.1V42c.9 0 1.8-.2 2.6-.3Zm.2-4.2-2.8.6v-1.5l2.8-.5v1.4ZM78.5 54v-2l2.4-.8v1.5a9 9 0 0 1-2.4 1.3Zm0-3v-2l2.4-.8v2l-2.4.8Zm0-3v-1.3l2.4-.7v1.2l-2.4.8ZM105 71.7a43.6 43.6 0 0 1-5.6 2v-1.9c2.2-.3 3.7-.8 4.6-1.4l.2-.4v-1c3.5-1 5.8-1 7.8-1h.5c2 0 7.8 1 9.2 2.5l.3.6c0 .2-.2.5-.6.9-2 1.7-8.2 3.8-16.3 3v-3c0-.2 0-.4-.2-.4Zm-40.2 8v-3.3c0-.2 0-.4-.2-.4H64c-.4.5-.9.8-1.5 1.2v-2.5c.8-.4 1.5-.8 2.1-1.3 3.3 1.9 9.4 1 11.2.3.2 0 .3-.2.3-.4v-3s0-.2-.2-.3h-.4c-2.3 1-8.1 1-10.5-.3a.4.4 0 0 0-.5 0c-.5.6-1.1 1.1-2 1.5v-1l1.4-.7.2-.4v-2.9l1.5-.7v2.3c0 .2.2.3.4.4 2.8.8 7.3.7 9.9-.3.2 0 .3-.3.3-.5v-2.8c0-.1 0-.3-.2-.3a.4.4 0 0 0-.4 0 19 19 0 0 1-9 .3V63c2.5.7 8.3.4 9.4-.3.2-.1.2-.3.2-.4V59c0-.2 0-.3-.2-.4h-.4a24 24 0 0 1-10 .9 5.4 5.4 0 0 0-2-1.7c-.2 0-.4-.2-.5-.3a.4.4 0 0 0-.6.1c-1.6 2-6 3.4-11.8 3.6-5.4.1-10.9-.8-14-2.4l-.1-2.4c6 2.8 20 3 26.7-.7 3.8 1 9.8.8 14.2-.5V58c0 .2 0 .4.2.4.1.1.3.1.4 0 2.4-1.3 7-2 12.2-2 3.8 0 7.4.4 10 1.1a56.2 56.2 0 0 0-17.2 0h-.4l-.2.1c-.2 0-5.7 1-5.7 2.8 0 1.1 1.1 2 4 2.8l.5.1c2.5.6 5.7 1 9 1 7 0 14.3-1.6 14.3-4.5v-.3c2.2.7 3.5 1.6 3.5 2.4 0 .6-.6 1.2-1.7 1.7v-1c0-.2-.2-.4-.3-.4-.2-.1-.4 0-.5.2-.6 1.1-3 2.3-3.8 2.7-.2 0-.3.3-.2.6 0 .2.3.3.5.3a25 25 0 0 0 3.4-1v1a16 16 0 0 1-6.2 2.4v-2.1l-.1-.4a38.8 38.8 0 0 1-20.6-1.6c-1.4.3-2.3 1-2.3 1.8s.6 1.5 1.7 2a44 44 0 0 0 20.4 1.4V71a43 43 0 0 1-7.4.5c-6.3 0-11.3-1-13.5-2.5a.4.4 0 0 0-.4 0c-.2.1-.3.3-.3.4v8l-.6-.8a.4.4 0 0 0-.5-.2c-.7.2-1.4.7-1.5 1.5 0 .5.3 1 1 1.5a37 37 0 0 0 23.9 1.3l.2-.4v-3c1.6-.4 3.1-1 4.4-1.7l.5.1v1.4l-.6-.2h-.4l-.2.4v2.2c-.2.7-.8 1.4-2 2-3.5 2-10.8 3-17.2 2.1-3-2.1-8.2-3.4-14.3-3.4-2 0-4 .2-5.9.5l1-1ZM75.3 71v2c-2 .6-7.6 1.2-10.4-.5h-.5c-.5.4-1.1.8-1.8 1.1v-1.3c1-.5 1.8-1 2.4-1.7 2.6 1.2 7.7 1.2 10.3.4Zm-11-8.8h-.2v-2l1.1.2c.1.2.2.5.1.7 0 .3-.3.7-1 1Zm11.1 5a20 20 0 0 1-8.8.2v-1.8c2.8.6 6.7.4 8.8-.3V67ZM66.2 61v-.6c2.6.3 7 .3 9.3-.7V62a21 21 0 0 1-9.2 0H66l-.2.4v2l-1.5.7v-1.9l.6-.3c1-.5 1.4-1.2 1.4-2Zm24.2 2.1a39 39 0 0 1-8.8-.9l-.5-.1c-2.8-.8-3.4-1.5-3.3-1.9 0-.5 2.3-1.4 5-1.9h.6a55.7 55.7 0 0 1 20.1.6l.3.7c0 1.4-4.7 3.5-13.4 3.5Zm-11.6 2a39.5 39.5 0 0 0 19.7 1.6v1.6A43 43 0 0 1 78.4 67c-.8-.3-1.2-.7-1.2-1 0-.1.4-.6 1.6-.9Zm-.4 7.7-.2.4V76c0 .2.1.4.3.5a35.6 35.6 0 0 0 20 1V80a36 36 0 0 1-22.7-1.5c-.5-.3-.6-.5-.6-.6 0 0 .2-.3.6-.5.3.4.7.8 1.3 1.2h.5l.2-.4v-8c2.6 1.4 7.4 2.2 13.2 2.2 2.7 0 5.3-.1 7.5-.4v1.8a34.6 34.6 0 0 1-19.7-1l-.4.1Zm.7 2.9V74a36 36 0 0 0 19.4.8v1.8c-6.2 1.6-14 1.2-19.4-.8Zm24.4-1c-1.2.6-2.6 1.1-4 1.5v-1.7a30 30 0 0 0 4.8-1.8v2a34.5 34.5 0 0 1-.8 0Zm1.7-10.7.4-.4v.2l-.4.2ZM78 28.6c-.3 0-.4.2-.4.5v.5a51.3 51.3 0 0 1-21.5-1.5c0-.7 4.5-2.2 13.2-2.2 2.3 0 4.5.1 6.5.3h.2l3 .6h.1c1.5.3 1.9.7 2 .8-.1.1-.6.6-3.1 1Zm-19.8 4.2a63.6 63.6 0 0 0 19.4.7v2.2c-8.7 1.2-17 .3-20-1.3v-1.8l.6.2Zm-.5 4.5v-.7l.3-.1c.4.8 1.7 1.9 3.9 2.3 3.3.7 10.3 1 15.7.3v2c-9.3.8-19.2-.4-19.9-2.4v-1.4Zm1.2 7.9v-1.6l.4.1a55 55 0 0 0 18.3.8V46a43 43 0 0 1-18.7-.8Zm0 1a44.8 44.8 0 0 0 18.7.7v1.4c-6.6 1.3-15 1-18.7-.7v-1.4Zm2.6 3.2a44 44 0 0 0 16-.2v2.1c-5 1.2-10.3 1.5-13.9.8l.1-.6c0-.9-.9-1.6-2.2-2.1ZM58 47.9c0 .2 0 .3.2.4l.5.2-1.4-.2v-2.7l.7.3v2Zm0-6.6v1c-.8-.3-.9-.5-.9-.5s.2-.3.9-.5Zm5.8 45.2c0 .2 0 .4.2.6l-4.8-1 10-2.5c.2 0 .3-.3.3-.5l-.2-.4c1.6 0 3.2.2 4.7.4l-9 2.3c-.2 0-1.1.4-1.2 1.1Zm14-4.3h-.3l-.9.2-.4.2a33.3 33.3 0 0 0-11.3-.6c-.2 0-.4.2-.4.4s.1.4.3.5l1.5.4-9.2 2.4c-.2 0-.4.2-.4.4s.2.4.4.5l9.1 1.9c.3 0 .5-.1.5-.3.1-.3 0-.5-.2-.6-1.4-.6-1.7-1-1.8-1l.6-.3L76 83.5c3.4.8 5.5 2.1 5.5 3.4 0 2.3-6 4.2-12.8 4.2-6.8 0-12.8-2-12.8-4.2 0-.3.1-.6.4-1 .2-.2.2-.4 0-.6l-.3-.2-.3.1A8 8 0 0 0 54 87c.1-1.4 1.7-3 4.5-4l.2-.1 1.2-.5.8-.2h.4a34.9 34.9 0 0 1 16.7 0Zm-22.7 5c.3 2.7 6 4.9 13.7 4.9 7.6 0 13.7-2.2 13.7-5.2 0-1.2-1-2.2-2.7-3.1l3.8.7c1 .8 1.6 1.7 1.6 2.6 0 1.6-1.6 3.1-4.5 4.2-3 1.2-6.9 1.8-11 1.8-7.5 0-13.9-2-15.4-4.8l.8-1.2Zm66-11c-3.2 3.1-12.2 3.6-15.9 2.9v-.9c5.3 1 11.5-.3 15.8-2ZM83.2 39.6c0 .2 0 .5-1.2.8v-1.3c.9 0 1.2.4 1.3.5Zm.3-5.8c0 .1-.4.5-1.2.8h-.2v-1.2c1 0 1.3.3 1.4.4Zm-6-3.3v2a68.4 68.4 0 0 1-20-1V30a60.4 60.4 0 0 0 20 .7Zm-21-.1v.7l-.4-.3c0-.2.1-.3.5-.4Zm21 7.7c-5.3.7-12.3.4-15.5-.3-2.5-.5-3.4-1.7-3.4-1.9v-.2a50.2 50.2 0 0 0 18.9.8V38Zm0 3.8v1.5a51.8 51.8 0 0 1-18.7-.9v-2c1.5.7 3.7 1 5.7 1.3 3.8.4 8.6.5 13 0ZM60.9 52c0 .5-1.6 1.4-5.8 2h-.2c-1.1.3-4 .5-5.5.5h-.1c-8.2 0-13.2-1.8-13.2-3s5.2-2.9 13.3-2.9c2.5 0 5 .2 7 .5v.7c0 .2.2.4.4.5 3.2.6 4 1.4 4 1.7Zm.7 14v-1.9l1.7-.4v1.8l-1.7.6Zm.2 3.8v1.9l-1.7.5v-1.4c.4 0 .8-.2 1.2-.4.2-.1.3-.3.3-.4v-3l1.7-.5v2.3l-1.2.6c-.2 0-.3.2-.3.5Zm-1.7 5v-1.6l1.6-.6v1.5l-1.6.7Zm0 3.4v-2.4a22 22 0 0 0 1.6-.7v2.5l-1.6.6Zm1.6.4v.2a5 5 0 0 1-1.6.6v-.3l1.6-.5Zm-1-16.2v1l-3.1.5a9 9 0 0 0 3.1-1.5Zm-1.5 8v2a35 35 0 0 1-7.6 1 36 36 0 0 1-13.4-1.9v-1.9a19 19 0 0 0 7.7 1.5c.2 0 .4-.2.5-.5 0-.2-.2-.4-.4-.5a22 22 0 0 1-6.2-2V66c5.7 2.5 14.1 3 20.9 1.4v2.3l-1.1.4c-.2 0-.4.2-.4.5Zm0 5.7v2.3a33 33 0 0 1-8.1 1c-5.1 0-9.8-1-12.5-2.6v-1.4a32.7 32.7 0 0 0 20.6.7Zm-14.5-12a30 30 0 0 1-9.5-1.7v-1.7c1 .5 2.4.9 4 1.2 1.5 1 3.3 1.7 5.5 2.2Zm-10.4-6.2v1l-.3-.5c0-.3 0-.4.3-.5Zm3 9.3v.8l-.2-.4c0-.1 0-.3.2-.4Zm-9.4 4.3c.2-.2.2-.4 0-.6a.4.4 0 0 0-.5-.1s-3.2 1.9-6.5 1.5a15 15 0 0 1 7.4-1.7c2.5 0 4.3 1 5.1 2.7.9 1.6.7 3.7-.6 6a16.2 16.2 0 0 1-6.1 6c-5.6 3-11.5 2.8-13.3-.6-.4-.7-.5-1.6-.5-2.5h8.4c.3 0 .5-.2.5-.4 0-.3-.2-.5-.4-.5s-.7-.2-.8-.5c-.1-.2 0-.6.3-1l7-8.3Zm-14.6 8.8a14 14 0 0 1 4.9-6.2c.7.3 1.6.5 2.4.5l-.3.4c-1 1-2.3 2.7-3.1 3.6a4.8 4.8 0 0 1-3.7 1.7h-.2Z"/>
</svg>
