<svg xmlns="http://www.w3.org/2000/svg" width="125" height="125" fill="none">
  <path fill="#78E0ED" d="M19.6 27.6h-3.2v3.2h3.2v-3.2Zm13.3-.2h-3.2v3.2h3.2v-3.2Zm13.6 0h-3.2v3.2h3.2v-3.2ZM5.6 41.2H2.4v3.3h3.2v-3.3Zm13.6 0H16v3.3h3.2v-3.3Zm13.7 0h-3.2v3.3h3.2v-3.3Zm13.6 0h-3.2v3.3h3.2v-3.3Zm13.6 0H57v3.3h3v-3.3ZM5.6 55H2.4v3.2h3.2V55Zm13.6 0H16v3.2h3.2V55Zm13.7 0h-3.2v3.2h3.2V55Zm13.6 0h-3.2v3.2h3.2V55ZM5.6 68.8H2.4v3.3h3.2v-3.3Zm13.6 0H16v3.3h3.2v-3.3Zm13.7 0h-3.2v3.3h3.2v-3.3Zm13.6 0h-3.2v3.3h3.2v-3.3ZM19.2 82.6H16V86h3.2v-3.3Zm13.7 0h-3.2V86h3.2v-3.3Zm13.6 0h-3.2V86h3.2v-3.3Z"/>
  <path fill="#E8E7F8" fill-rule="evenodd" d="M60.7 37c5.8 7.4 21.4 9.4 31 7 9.3-2.2 8.8-10.5 3.3-15.3-2.8-2.4-7-4.2-9.2-5-1.5-.5-4.4-2-7.4-3-4.6-1.6-9.2-2.3-14 .2A10.8 10.8 0 0 0 60.7 37Z" clip-rule="evenodd"/>
  <path fill="#FCC" fill-rule="evenodd" d="M95.2 91.1c-.9 1.8-2 5.4-2.7 7.6-1.1 3.6 1.7 5.4 4.9 5 6.3-1 7.1-9 3.6-13-2-2.3-4.4-2.6-5.8.4Z" clip-rule="evenodd"/>
  <path fill="#CFE5DC" fill-rule="evenodd" d="M43.5 93.2c-.7 4.5.3 8 1.4 10.1 1.7 3.5 4.5 5.2 7.7 7.3 2.7 1.8 7 3 10 1.8 4.7-1.9 7.7-10.3 0-12.3-4-1-7.2-2.3-12.6-8-2.7-2.8-5.7-3.7-6.5 1Z" clip-rule="evenodd"/>
  <path fill="#1A174F" d="M90.8 89.6a14 14 0 0 0-1-4.6c-.6-1-1.8-2.1-3.2-2-.6 0-1 .3-1.5.5l-.5.2c-.6.3-1.3.3-2.2 0H82c-.6-.2-1.2-.4-1.8-.4-.7 0-1.4.2-2.1.4a17 17 0 0 0-3.6 2.3l-.1.1c-2.3 1.7-4.8 4.1-4.4 7.2.4 2.6 3 4.6 5.5 5 1.4.3 2.6 0 3.2-1 .9-1.1.4-2.7-.2-3.7a9 9 0 0 0-1.3-1.4L77 92l-.3-.3-1-1c1.7.9 3.8 1.4 5.8 1.4h.2c1.3 0 2.6-.2 4-.6.4-.2.7-.3 1-.2.3.1.4.4.4.6 0 .4-.3.9-.8 1.3l-.4.3a5 5 0 0 0-1.2 1c-.4.6-.5 1.3-.5 2a2.9 2.9 0 0 0 2.5 2.5h.5c.7 0 1.2-.1 1.7-.5 1.5-1 1.9-3.4 2-4 .1-1.5.1-3-.1-4.8v-.1Zm-3 3.3a2 2 0 0 0 0-1.7c-.1-.4-.4-.6-.8-.7a2 2 0 0 0-.4-.1l-1.2.2-.3.1c-.6.2-1.2.4-1.8.4-2.5.4-5-.1-7.3-1.3l-.4-.2 4.8.1h3.7c.8.1 1.6.2 2.3-.1.8-.3 1.4-1 1.5-1.7 0-.6-.2-1.2-.8-1.6-.7-.3-1.4-.4-2.1-.4h-3.1c-2 0-4.2.4-6.2 1h-.4l-.1.1-1.6.8c-.3.3-1.2 1-.7 1.7.1.3.4.4.6.5l.2.1 1 .8 1.3 1.3.5.5c1 1 1.8 2 1.8 3.1 0 .5-.2 1-.6 1.3-.4.3-1 .5-1.7.4-1 0-2.2-.5-3.2-1.3a5 5 0 0 1-2-2.8c-.5-2.7 1.8-5 4-6.6v-.1c1-.8 2.1-1.6 3.3-2.1.6-.3 1.3-.5 1.9-.5.6 0 1.2.1 1.7.3h.3c.6.2 1.2.4 2 .3.4 0 .9-.3 1.3-.5l.4-.2c.7-.3 1.3-.3 1.8 0 .5.2 1 .6 1.3 1.2.4.6.5 1.3.7 2l.4 2.2c.2 1.5.2 3 0 4.5 0 1.3-.5 3.2-1.6 3.9a2 2 0 0 1-1.7.2 2 2 0 0 1-1.4-2.7c.2-.5.7-.9 1.2-1.2.5-.4 1-.8 1.3-1.3Zm-13.6-4.4 1.6-.8a26.2 26.2 0 0 1 7.4-1h.2l2.3.1c.8.2 1.2.4 1.3.8v.7c-.3.3-.9.6-1.3.6-.6.2-1.3.1-2 0h-3.4l-6.2-.2-.2.1.3-.3ZM59 61.7l2.3-1 .8-.4c2-.8 4-1.7 6.1-1.8h.3c3.7 0 7 1.8 10.4 3.5l.1.1h.4a.5.5 0 0 0 .4-.5c0-.2-.1-.3-.3-.4-3.2-1.6-6.4-3.4-10.1-3.6a11 11 0 0 0-4.7.6 62.8 62.8 0 0 0-7 3.1c-.6.6-.5 1.4 0 2 .6.6 1.4.5 2.2.3l2.7-.7.5-.1c1.6-.5 3.2-1 4.8-1.1 2.2-.3 4.1 0 5.7.7l1.8 1h.1c.6.4 1.3.8 2 1-.3.1-.5.2-.7.1a3 3 0 0 1-1.6-.7H75a9.2 9.2 0 0 0-2.9-1.8c-2-.6-4.4-.4-7 .8-1.4.6-2.8 1.4-4 2.1-.2.1-.2.3-.3.4 0 .2 0 .3.2.4.8.8 1.9 1 3 .8l1.6-.6.3.3c1.3.5 2.7 1 4.2 1h.2c1.5 0 3-.7 4.3-1.3.2-.1.3-.3.3-.4 0-.2 0-.4-.2-.5a7.6 7.6 0 0 0-6.5-1.4c-.9.2-1.7.6-2.4 1l-1 .5c-.5.3-1.6.7-2.5.3 1.9-1.1 4.1-2.4 6.5-2.7a6.7 6.7 0 0 1 5.1 1.5l1.3.9c1.2.7 2.6.5 3.8-.3 0-.1.2-.3.1-.4 0-.2-.1-.4-.3-.5-1-.3-2-.9-2.9-1.4l-1.2-.7c-1.4-.7-3-1.2-4.5-1.3-2.6-.1-5 .6-7.5 1.3h-.2l-2.2.6H60c-.8.3-1.5.4-1.7 0 0-.2 0-.4.6-.8Zm7.7 3.6 1-.4c1.8-.8 4-.6 5.7.4-1 .5-2 .9-3.1 1h-.1c-1.2 0-2.4-.5-3.5-1Z"/>
  <path fill="#1A174F" d="M99.3 72.2v-1.3c0-1.6-.1-3.2-1.2-4.3a9.3 9.3 0 0 0 1.7-4.2 4 4 0 0 0-1.9-3.9c-1-.6-2.5-.8-4.5-.6a14 14 0 0 0-8.6 4.7l-.1.2a11.1 11.1 0 0 0 2.4 9.8v.2l.5.6c.6.9 1.3 2 1 3.3a3.2 3.2 0 0 1-2.3 2.5c-1.3.4-2.5-.1-3.6-.6l-2-.5a7 7 0 0 0-1.8 0l-.4.1c-1 .2-2.2.4-2.9-.4a2 2 0 0 1 .2-2.7c.8-.7 2.1-1 3.5-.6.3 0 .5-.1.6-.4 0-.2 0-.5-.4-.6a5 5 0 0 0-4.1.6 3 3 0 0 0-1.3 2.6c0 1.2.8 2.2 1.8 2.6 1 .3 2 .1 2.9 0 .4-.2 1-.2 1.4-.2a7 7 0 0 1 2.4.6l1.1.4a86 86 0 0 0-4 .1c-1.3 0-3 .2-4.7.5-3.4.7-6.1 2.3-7.7 4.4-.4.5-.7 1.1-1 2-.3.7-.6 1.3-1.1 1.6-1.1.6-2.4-.7-3.3-1.6 0-.2-.2-.3-.3-.4a51.6 51.6 0 0 1-6.2-7.4c-1.9-2.8-3-5.7-3.7-8.5-.3-1.6-.4-3.2-.3-4.7.1-1.6.5-3.1 1.2-4.8l.8-1.7c.4-.9.8-1.8 1-2.7.6-1.4.8-3 .8-4.8v-1.6c0-2.2 0-4.6 1-6.6.3-.6.7-1.1 1.2-1.6v-.1l1.5-1.4 2.7-1.8c1.8-1.1 3.4-2 5-2.6a9 9 0 0 1-2.8 2.7c-1.4.9-2.8 1.5-4 2-.3 0-.4.2-.4.4 0 .3.2.5.5.5 6.1.8 13 1.6 18.9-1.6.8-.4 1.5-1 2.3-1.5a7 7 0 0 1-2.7 2.8l-.2.2v.3c0 .2 0 .4.3.5a12.5 12.5 0 0 0 12.6-3c-.2 3 1.7 5.8 3.4 8.4 1 1.5 2 3 2.6 4.5.6 1.4.8 2.8.6 4.2 0 .3.1.5.4.6h.4l.2-.4.2-1c0-.2.1-.3 0-.4v-.1c.6-3.3.7-6.5.4-9.7-.3-4.6-1.3-8.4-3-11.5a27.7 27.7 0 0 0-6.5-7.8c-2.5-2-5.4-3.3-8.7-4a40 40 0 0 0-13.4 0 102.1 102.1 0 0 0-13.4 2.8 30.6 30.6 0 0 0-9 5.1c-2 1.7-3.5 3.8-4.8 6.6a34.5 34.5 0 0 0-3 9.4c-.5 2.7-.8 5.6-1 9l-.2 2v.5l-.1 1.4V63c0 2.2.3 4.6.8 7.5v1c.4 1.9.7 4 1.7 5.7a5 5 0 0 0 3.7 2.8 42.4 42.4 0 0 1-3.2 23.2c-.1.3 0 .6.3.7.2.1.3.1.4 0 .1 0 .2 0 .3-.2a41.7 41.7 0 0 0 3.2-23.8c1-.3 1.4-1.2 1.7-2.1v.5c-.6 5.5-1 10.7 1 15.6 1.1 2.8 3 5.2 4.4 6.9a50 50 0 0 0 5.7 5.5 78.2 78.2 0 0 0 13.9 9 37 37 0 0 0 7.8 3l.2.1a6.2 6.2 0 0 0 1.4.3h.4c.6.2 1.2.2 1.7.2h.4c1.3 0 2.6-.3 3.8-.9 2.2-1 4.2-2.8 6-5.5A36.3 36.3 0 0 0 96 103l.2-.6c0-.4.2-.9.4-1.2l.2-.7v-.3l.3-1.1.5-2.3a123.6 123.6 0 0 0 2.3-18.2 30 30 0 0 0-.6-6.5Zm-59.8-7.6c0-.7.4-1.8 1.4-2h.8c.2.3.4.7.4 1.2v1c0 .5 0 1 .2 1.6 0 .3.2.5.4.8.2.3.5.8.4 1l-.4.2h-.8v.2-.1h-.7c-.5 0-1 .2-1.3.6a2 2 0 0 0-.6 1v-2.4c0-.9 0-2 .2-3.2Zm3.7 14.3a10 10 0 0 0-2-4l-1.4-2.7c.3.4.8.6 1.4.7h.9c.6 0 1.2 0 1.6.5.6.6.6 1.6.6 2.4 0 .5 0 1-.2 1.5l-.7 1.4-.2.2Zm50.2-12c-.2.7-1 .8-1.7.8l-.4-.1a3 3 0 0 0 1.9-1.6l.2.2c0 .2.1.5 0 .8Zm-.6-2c-.3 0-.5.2-.5.4 0 .8-1 1.4-1.8 1.4-1 0-1.7-.7-2-1.5 0-.1-.1-.3-.3-.3H88c1.6-.7 3.6-.8 5.3 0h-.4Zm-4.5 14.4a4 4 0 0 0 1.5-3.7c-.2-1.4-1-2.5-1.8-3.6a12 12 0 0 1-2.2-4.1 9.8 9.8 0 0 1 0-4.8c1.7-2 4-3.4 6.8-4 1.6-.3 3-.4 4 0a3 3 0 0 1 2.2 2.8c0 1.7-.9 3.1-1.8 4.6l-.9-.8a8 8 0 0 0-7.2-2.3 6 6 0 0 0-3.2 1.8l-.1.4.2.4c.6.3 1.4.4 2 .1l.3.5-.6-.2c-.2 0-.4 0-.5.2-.2.1-.2.3-.2.5.1.2.2.3.4.3l2.5.8.6.2c.7.3 1.8.5 2.8.2 1-.4 1.5-1.2 1.4-2 0-.6-.2-1-.5-1.3 1.6 1 2.8 2.7 3.7 5l.5 2a35.8 35.8 0 0 1-4.5 16.6 11 11 0 0 0-1.9-5.7 8 8 0 0 0-5.6-2.9c.8-.1 1.5-.5 2.1-1Zm-44.6-7.2c-.4-.2-1-.2-1.5-.2s-1 0-1.4-.2c-.3-.2-.5-.7-.5-1.1 0-.4.2-.8.6-1 .3-.2.7-.2 1.2-.2.6 0 1.3 0 1.8-.6.7-.7.2-1.4-.2-2l-.4-.6c-.2-.5-.1-1-.1-1.6v-1.2c-.2-1-.8-1.7-1.6-1.8-1.1-.2-2.1.4-2.6 1.2-.5.8-.6 1.8-.7 2.7v.6c-.1 1.2-.2 2.4-.1 3.6l.2 1.3v.6c.4 1.3 1.1 2.5 2 3.7l.1.3c.7 1 1.4 2.1 1.7 3.3v.1l-.9-.3c-.7-.4-1.3-1-1.7-1.8-1-1.7-1.3-3.6-1.6-5.5V71a63.6 63.6 0 0 1-.9-11.6l.1-2 .1-1.1.7-6.8a35 35 0 0 1 6.4-16.8c1.8-2 4.3-3.8 7.7-5.3C56 25.6 60 24.9 64 24.2c2.6-.5 5-.8 7-1 2-.1 4.4-.3 6.9 0 3.6.3 6.8 1.3 9.4 2.9 2.9 1.8 5 4.3 6.4 6.3a21 21 0 0 1 2.8 5.2c.6 1.7 1.1 3.6 1.4 5.5.4 2.9.5 6 .3 9.4-.7-1.7-1.7-3.3-2.8-4.8-1-1.7-2.1-3.3-2.8-5a7 7 0 0 1-.1-4.7v-.3l-.3-.3h-.4l-.2.2A11.6 11.6 0 0 1 79.7 42c1.6-1.2 2.7-3 3-4.7 0-.2-.1-.5-.3-.6H82l-.2.1c-1.8 2-4.3 3.5-7.2 4.2-3.1.9-6.5.8-9.2.6-1.2 0-2.4-.2-3.4-.3.8-.4 1.7-.8 2.5-1.4 2-1.3 3.1-2.7 3.5-4.2.1-.2 0-.4-.1-.5a.5.5 0 0 0-.5-.1A33.2 33.2 0 0 0 56 42a13 13 0 0 0-2 7v5c-.2 1.7-.9 3.4-1.4 4.6l-.3.7a16.4 16.4 0 0 0-2 8.8c0 3 .9 6 2.4 8.9 1.2 2.5 3 5 5.5 7.8l3.4 3.6c.7.7 2.2 2.2 3.8 1.4 1-.4 1.5-1.4 1.9-2.4l.5-1a8.7 8.7 0 0 1 3.3-3c2.8-1.7 6.2-2 9.1-2l.8-.1V81v.2c2.7-.1 5.7-.3 8.1 1 2 1 3.1 3.1 3.5 6.2a23 23 0 0 1 .2 2.5v.1l.2.1.1.1h.4l.1-.1V91a36 36 0 0 0 5.2-14c.2 2.8 0 5.7-.3 8.6l-.5 3.6-.2 1-.7 4.3-1 4.4-.2 1v.2l-.3.7-.2.7v.2a37.2 37.2 0 0 1-3.6 8.7c-1.2 2-2.8 4.4-5.2 6a9.2 9.2 0 0 1-6.6 1.4h-.4l-.3-.1H79l-1.6-.5H77a32 32 0 0 1-5.8-2.4 66.5 66.5 0 0 1-13.8-8.8 40 40 0 0 1-5.6-5.2c-1.5-1.7-3.4-4-4.5-6.6-2.2-4.8-1.9-10-1.3-15.4V78c.5-3.9 1-8 .3-12-.2-1.6-.6-3.6-1.8-5.2a4.7 4.7 0 0 0-1.8-1.5l-1.5-.3c-.7 0-1.5.3-2.2.7-.8.6-1.4 1.5-1.9 2.7 0 .3 0 .6.3.7.3 0 .6 0 .7-.4.5-1.3 1.2-2.1 2.1-2.5 1-.4 2.1-.2 3 .6 1.2 1.2 1.7 3 2 4.7.5 3 .4 6.1.2 9.2v-.3c-.3-1.1-.8-2-1.7-2.3Z"/>
</svg>
