<svg xmlns="http://www.w3.org/2000/svg" width="125" height="125" fill="none">
  <path fill="#FCC" d="M50.5 76.5c-7-3-2.5-4.5 9-11 7-2 7.5 2.5 7.5 7.5s-9.5 6.5-16.5 3.5Z"/>
  <path fill="#CFE5DC" fill-rule="evenodd" d="M74 60.3c3.4-.7 10.4-5.4 15.4-16.6 5-11 .5-20.7-5.6-19.6-3.8.6-9.6 4-13.5 6-12.6 6-7.3 32.4 3.6 30.2Z" clip-rule="evenodd"/>
  <path fill="#E8E7F8" fill-rule="evenodd" d="M79 67.8c4.3.5 13.4 1.6 18.8 1.1 9.6-1 16 11.2 11.2 21a38.6 38.6 0 0 1-23.2 14.8c-8.2 0-17.1-10-18-21.5C66.9 72.7 71.4 67 79 67.8Z" clip-rule="evenodd"/>
  <path fill="#F99" d="M31.3 16.2h-3v3h3v-3ZM44 16h-3v3h3v-3Zm13 0h-3v3h3v-3ZM18 29h-3v3h3v-3Zm13 0h-3v3h3v-3Zm13 0h-3v3h3v-3Zm13 0h-3v3h3v-3Zm13 0h-3v3h3v-3ZM18 42h-3v3h3v-3Zm13 0h-3v3h3v-3Zm13 0h-3v3h3v-3Zm13 0h-3v3h3v-3Zm13 0h-3v3h3v-3ZM18 55h-3v3h3v-3Zm13 0h-3v3h3v-3Zm13 0h-3v3h3v-3Zm13 0h-3v3h3v-3Zm13 0h-3v3h3v-3ZM31 68h-3v3h3v-3Zm13 0h-3v3h3v-3Zm13 0h-3v3h3v-3Z"/>
  <path stroke="#1A174F" stroke-linecap="round" stroke-width="1.3" d="M82.8 68.1a2 2 0 0 0-.8-1.9c-2.7-2.1-7-3.2-8.9-5.4-3.4-4.2 8-.3 11.6 1.5 16.2 8 22.9 23.3 26.5 35.3.6 2-.6 4-2.7 4.3-5.5.7-12.6 0-13.5-5.9-1.3-9.3-10.3-19.7-15-17-5 2.7-23.5-.6-24.3-2.7-.3-.8.8-1.3 2.7-1.6M82.8 68c-.2 2.5-4 5.8-9.7 5.8-4.8 0-11.1.1-14.7.8M82.8 68c-2.3 2-7.7 5.4-10.4 4.5-3.5-1.2-17.9-3.3-17.9-1 0 1.9 2.6 2.8 4 3"/>
  <path stroke="#1A174F" stroke-linecap="round" stroke-width="1.3" d="M82.4 67.7c-1.4 1.3-4.8 3.7-7.1 3.5-3-.2-15.5-6-15.7-3.5-.2 2 1.6 2.8 2.5 3"/>
  <path stroke="#1A174F" stroke-width="1.3" d="M73 47.3c1.2 10 1.7 29.3-6.8 26.2"/>
  <path stroke="#1A174F" stroke-width="1.3" d="M92 51a39.9 39.9 0 0 0-37.2 2c-.1 0-.3 0-.3-.2-.8-9.4 4-24.9 17.5-24.9 16.2 0 20.2 16 20.3 23 0 .1-.1.2-.3.1Z"/>
  <path stroke="#1A174F" stroke-width="1.3" d="M71 28c-5.8-1.4-19.9.3-30.7 16.9-.1.1 0 .3.2.3 4-1.1 11.8-1 14 8M74 28c7 0 22.6 2.6 28.8 13.4 0 .2-.1.4-.3.3-3-.7-8.4.3-10.3 9.5"/>
  <mask id="a" width="51" height="49" x="14.6" y="47.4" fill="#000" maskUnits="userSpaceOnUse">
    <path fill="#fff" d="M14.6 47.4h51v49h-51z"/>
    <path d="m32.7 96-1.5-.1h-1.8c-.9 0-1.6 0-2-.5-.4-.3-.6-.8-.6-1.5v-2c-1.9 0-3.7-.3-4.9-.5h-.1v-.7h.3c1.3.3 3 .6 4.7.5v-3.1c0-1.5 1-1.6 2-1.7l1.6-.1-.2-.3c-.6-.6-.8-1.5-.7-2.7-1 0-2.4 0-2.5-1.1 0-2 0-3.6.4-5 1-4 3.6-6.4 5.8-8.2 2.7-2.2 5.2-4.6 4-8.5-.8-2.6-3.5-4-6.3-3.4-2 .5-4.6 2.1-5 7.3 0 .3-.2.6-.5.8-1 .8-3.8 1-8.6.3-.4 0-.7-.3-1-.7-.3-.7-.2-2.2.4-4.3a14.9 14.9 0 0 1 6.8-9.4 19.6 19.6 0 0 1 21 .7c4.2 3.3 5.5 8.5 3.7 14.5-.8 2.7-2.5 4.9-5.3 7l-.8.5c-2.5 1.7-5.3 3.7-5.4 6.8 0 .7 0 1.5.2 2.2 0 .6.2 1.3.1 2a43 43 0 0 1 17.7.8c1 .2 1.9.1 2.8 0l.9-.3a8.6 8.6 0 0 0 6.1-5.7h1v.3a10.2 10.2 0 0 1-11.5 6.3 41 41 0 0 0-17-.7 5 5 0 0 1-.5 1.7l.3 1c.5 2 .4 6.5-.9 7.1-.8.5-1.8.6-2.8.6Zm-2.7-.8h1.3c1.4 0 2.8.2 3.9-.4.2-.2.6-1 .7-2.5a12.3 12.3 0 0 0-.3-4.4c-.7 1.1-1.8 2-3.1 2.7-1.5.8-3.1 1.2-5 1.3v2c0 .5 0 .8.3 1 .3.3.9.3 1.6.3h.6Zm1.4-8.4-2.5.3c-1.2 0-1.4.1-1.4 1v3.1c1.8 0 3.4-.4 4.7-1.1a7.6 7.6 0 0 0 3-2.9H35a11 11 0 0 1-3.6-.4Zm3.6-.3.5.1c.2-.3.3-.6.3-1l-.5.2h-.1l-2.3.6H35Zm-4.8-3.2c-.1 1 0 1.8.5 2.3l.7.5 3.6-1c.4 0 .7 0 1-.2l-.2-2-.2-2.4c.2-3.3 3.2-5.5 5.6-7.2l.8-.6c2.7-2 4.3-4 5-6.5 1.9-5.8.6-10.8-3.4-13.9a19 19 0 0 0-20.2-.7 15 15 0 0 0-5.4 5.8c-.6 1.2-2.3 5.8-1.6 7.2l.4.3c6 .7 7.6.2 8.1-.2l.2-.3c.4-4.4 2.4-7.2 5.6-8 3.1-.6 6.1 1 7 4 1.3 4.2-1.3 6.8-4.1 9.1a14.9 14.9 0 0 0-5.6 7.8c-.4 1.4-.5 3-.4 4.8 0 .5 1 .6 1.9.5.3-2 1.9-2 3.4-2h.2c.9 0 1.4.6 1.6 1.1.3.5.3 1 0 1.4-.1.1-.5.4-1 .3-1-.2-2-.2-3-.1h-.6Zm2-.7 1.6.1h.5V82c-.2-.4-.6-.7-1.1-.7H33c-1.6 0-2.5 0-2.8 1.3h1.9Z"/>
  </mask>
  <path fill="#1A174F" d="m32.7 96-1.5-.1h-1.8c-.9 0-1.6 0-2-.5-.4-.3-.6-.8-.6-1.5v-2c-1.9 0-3.7-.3-4.9-.5h-.1v-.7h.3c1.3.3 3 .6 4.7.5v-3.1c0-1.5 1-1.6 2-1.7l1.6-.1-.2-.3c-.6-.6-.8-1.5-.7-2.7-1 0-2.4 0-2.5-1.1 0-2 0-3.6.4-5 1-4 3.6-6.4 5.8-8.2 2.7-2.2 5.2-4.6 4-8.5-.8-2.6-3.5-4-6.3-3.4-2 .5-4.6 2.1-5 7.3 0 .3-.2.6-.5.8-1 .8-3.8 1-8.6.3-.4 0-.7-.3-1-.7-.3-.7-.2-2.2.4-4.3a14.9 14.9 0 0 1 6.8-9.4 19.6 19.6 0 0 1 21 .7c4.2 3.3 5.5 8.5 3.7 14.5-.8 2.7-2.5 4.9-5.3 7l-.8.5c-2.5 1.7-5.3 3.7-5.4 6.8 0 .7 0 1.5.2 2.2 0 .6.2 1.3.1 2a43 43 0 0 1 17.7.8c1 .2 1.9.1 2.8 0l.9-.3a8.6 8.6 0 0 0 6.1-5.7h1v.3a10.2 10.2 0 0 1-11.5 6.3 41 41 0 0 0-17-.7 5 5 0 0 1-.5 1.7l.3 1c.5 2 .4 6.5-.9 7.1-.8.5-1.8.6-2.8.6Zm-2.7-.8h1.3c1.4 0 2.8.2 3.9-.4.2-.2.6-1 .7-2.5a12.3 12.3 0 0 0-.3-4.4c-.7 1.1-1.8 2-3.1 2.7-1.5.8-3.1 1.2-5 1.3v2c0 .5 0 .8.3 1 .3.3.9.3 1.6.3h.6Zm1.4-8.4-2.5.3c-1.2 0-1.4.1-1.4 1v3.1c1.8 0 3.4-.4 4.7-1.1a7.6 7.6 0 0 0 3-2.9H35a11 11 0 0 1-3.6-.4Zm3.6-.3.5.1c.2-.3.3-.6.3-1l-.5.2h-.1l-2.3.6H35Zm-4.8-3.2c-.1 1 0 1.8.5 2.3l.7.5 3.6-1c.4 0 .7 0 1-.2l-.2-2-.2-2.4c.2-3.3 3.2-5.5 5.6-7.2l.8-.6c2.7-2 4.3-4 5-6.5 1.9-5.8.6-10.8-3.4-13.9a19 19 0 0 0-20.2-.7 15 15 0 0 0-5.4 5.8c-.6 1.2-2.3 5.8-1.6 7.2l.4.3c6 .7 7.6.2 8.1-.2l.2-.3c.4-4.4 2.4-7.2 5.6-8 3.1-.6 6.1 1 7 4 1.3 4.2-1.3 6.8-4.1 9.1a14.9 14.9 0 0 0-5.6 7.8c-.4 1.4-.5 3-.4 4.8 0 .5 1 .6 1.9.5.3-2 1.9-2 3.4-2h.2c.9 0 1.4.6 1.6 1.1.3.5.3 1 0 1.4-.1.1-.5.4-1 .3-1-.2-2-.2-3-.1h-.6Zm2-.7 1.6.1h.5V82c-.2-.4-.6-.7-1.1-.7H33c-1.6 0-2.5 0-2.8 1.3h1.9Z"/>
  <path stroke="#1A174F" stroke-width=".6" d="m32.7 96-1.5-.1h-1.8c-.9 0-1.6 0-2-.5-.4-.3-.6-.8-.6-1.5v-2c-1.9 0-3.7-.3-4.9-.5h-.1v-.7h.3c1.3.3 3 .6 4.7.5v-3.1c0-1.5 1-1.6 2-1.7l1.6-.1-.2-.3c-.6-.6-.8-1.5-.7-2.7-1 0-2.4 0-2.5-1.1 0-2 0-3.6.4-5 1-4 3.6-6.4 5.8-8.2 2.7-2.2 5.2-4.6 4-8.5-.8-2.6-3.5-4-6.3-3.4-2 .5-4.6 2.1-5 7.3 0 .3-.2.6-.5.8-1 .8-3.8 1-8.6.3-.4 0-.7-.3-1-.7-.3-.7-.2-2.2.4-4.3a14.9 14.9 0 0 1 6.8-9.4 19.6 19.6 0 0 1 21 .7c4.2 3.3 5.5 8.5 3.7 14.5-.8 2.7-2.5 4.9-5.3 7l-.8.5c-2.5 1.7-5.3 3.7-5.4 6.8 0 .7 0 1.5.2 2.2 0 .6.2 1.3.1 2a43 43 0 0 1 17.7.8c1 .2 1.9.1 2.8 0l.9-.3a8.6 8.6 0 0 0 6.1-5.7h1v.3a10.2 10.2 0 0 1-11.5 6.3 41 41 0 0 0-17-.7 5 5 0 0 1-.5 1.7l.3 1c.5 2 .4 6.5-.9 7.1-.8.5-1.8.6-2.8.6Zm-2.7-.8h1.3c1.4 0 2.8.2 3.9-.4.2-.2.6-1 .7-2.5a12.3 12.3 0 0 0-.3-4.4c-.7 1.1-1.8 2-3.1 2.7-1.5.8-3.1 1.2-5 1.3v2c0 .5 0 .8.3 1 .3.3.9.3 1.6.3h.6Zm1.4-8.4-2.5.3c-1.2 0-1.4.1-1.4 1v3.1c1.8 0 3.4-.4 4.7-1.1a7.6 7.6 0 0 0 3-2.9H35a11 11 0 0 1-3.6-.4Zm3.6-.3.5.1c.2-.3.3-.6.3-1l-.5.2h-.1l-2.3.6H35Zm-4.8-3.2c-.1 1 0 1.8.5 2.3l.7.5 3.6-1c.4 0 .7 0 1-.2l-.2-2-.2-2.4c.2-3.3 3.2-5.5 5.6-7.2l.8-.6c2.7-2 4.3-4 5-6.5 1.9-5.8.6-10.8-3.4-13.9a19 19 0 0 0-20.2-.7 15 15 0 0 0-5.4 5.8c-.6 1.2-2.3 5.8-1.6 7.2l.4.3c6 .7 7.6.2 8.1-.2l.2-.3c.4-4.4 2.4-7.2 5.6-8 3.1-.6 6.1 1 7 4 1.3 4.2-1.3 6.8-4.1 9.1a14.9 14.9 0 0 0-5.6 7.8c-.4 1.4-.5 3-.4 4.8 0 .5 1 .6 1.9.5.3-2 1.9-2 3.4-2h.2c.9 0 1.4.6 1.6 1.1.3.5.3 1 0 1.4-.1.1-.5.4-1 .3-1-.2-2-.2-3-.1h-.6Zm2-.7 1.6.1h.5V82c-.2-.4-.6-.7-1.1-.7H33c-1.6 0-2.5 0-2.8 1.3h1.9Z" mask="url(#a)"/>
</svg>
