<svg xmlns="http://www.w3.org/2000/svg" width="90" height="90" fill="none">
  <g clip-path="url(#a)">
    <path fill="#F99" d="M20 60.7h-1.3v1H20v-1Zm5.1 0h-1.2v1h1.2v-1Zm5.1 0h-1.1v1h1.1v-1Zm-15.4 4.6h-1.2v1.1h1.2v-1Zm5.2 0h-1.2v1.1H20v-1Zm5.1 0h-1.2v1.1h1.2v-1Zm5.1 0h-1.1v1.1h1.1v-1Zm5.2 0h-1.2v1.1h1.2v-1ZM14.8 70h-1.2v1.1h1.2V70Zm5.2 0h-1.2v1.1H20V70Zm5.1 0h-1.2v1.1h1.2V70Zm5.1 0h-1.1v1.1h1.1V70Zm5.2 0h-1.2v1.1h1.2V70Zm-20.6 4.7h-1.2v1h1.2v-1Zm5.2 0h-1.2v1H20v-1Zm5.1 0h-1.2v1h1.2v-1Zm5.1 0h-1.1v1h1.1v-1Zm5.2 0h-1.2v1h1.2v-1ZM20 79.4h-1.2v1H20v-1Zm5.1 0h-1.2v1h1.2v-1Zm5.1 0h-1.1v1h1.2v-1Zm16-20.2a16.9 16.9 0 1 0 0-33.8 16.9 16.9 0 0 0 0 33.8Z"/>
    <path fill="#1A174F" d="M42.3 78.8c-3.6 0-12-2.1-20.4-5.7-5.9-2.5-16-7.7-17.6-14-1-4.2 1.6-8 8-11.5s9.5-7.7 8.9-12.1c-.8-5.8-7.6-10.6-13.7-12A.5.5 0 0 1 7 23a.5.5 0 0 1 .6-.4c6.5 1.5 13.6 6.6 14.5 12.8.5 3.4-.8 8.5-9.5 13.2-5.8 3.2-8.3 6.7-7.4 10.3 1.6 5.9 11.3 10.8 17 13.3a65 65 0 0 0 20.1 5.6c.3 0 .6.2.6.5s-.3.5-.5.5h-.2ZM55 78a.5.5 0 0 1-.5-.4.5.5 0 0 1 .4-.6 38.2 38.2 0 0 0 31.8-40.2C85.8 23.2 76.2 6.7 52.5 5a.5.5 0 0 1-.5-.5c0-.3.3-.5.6-.5 24.3 1.7 34.2 18.7 35.3 32.7 1.2 16.2-8.5 36-32.7 41.3Z"/>
    <path fill="#1A174F" d="M48.7 9.6a4.7 4.7 0 0 1-4.5-3.1c-.7-2.3.8-4.7 3.2-5.3 2.6-.7 5.1.7 5.8 3 .7 2.3-.8 4.7-3.3 5.3a5 5 0 0 1-1.2.1Zm0-7.5h-1c-1.8.5-3 2.3-2.4 4a3.5 3.5 0 0 0 4.3 2.4c2-.5 3-2.3 2.5-4A3.5 3.5 0 0 0 48.7 2Zm.1 87.9c-.3 0-.6-.2-.6-.5v-28c0-.4.3-.6.6-.6s.6.2.6.5v28c0 .4-.3.6-.6.6Z"/>
    <mask id="b" fill="#fff">
      <path d="m67.8 33.1-.7-.3.8-.4c.6-.3 1-.5 1-.8v-1c0-.5-.3-.8-.6-1a2.5 2.5 0 0 0-1 0l-.8.1.4-.7.5-.8a.8.8 0 0 0 0-.6c-.3-.5-1-1-1.3-1-.3-.2-.6 0-1.1.4-.7.6-.8.6-.9.6l.1-1.3v-.6c0-.2-.1-.4-.4-.5-.4-.2-1.2-.4-1.6-.2-.2 0-.4.3-.6.8l-.5 1-.3-.8c-.1-.5-.3-1-.6-1.1-.4-.1-.9 0-1.2.1l-1 .5v1.9l-.5-.4c-.6-.4-.8-.6-1-.6-.5 0-1 .6-1.3.9a1 1 0 0 0-.3.7c0 .3.2.5.5 1l.4.6H55l-1.1.1-.5 1c0-.3 0-.9-.4-1.3a4 4 0 0 0-1.6-.8c-1-.3-1.5-.6-1.5-.7 0 0 .2-.4 1.7-1.4.7-.4 1-.6 1-.8.3-.4.2-.9-.1-1.6a3.8 3.8 0 0 0-1-1.3c-.2-.2-.7-.1-1.8 0-1.5.2-1.8.2-1.9.1 0 0 0-.3.8-1.9.4-.8.6-1.1.6-1.4 0-.4-.4-.8-1.1-1.3-.2-.2-1-.7-1.5-.7-.3 0-.6.2-1.5 1l-1.1.8-.4.2a12.6 12.6 0 0 1-.1-1.7c0-1 0-1.5-.3-1.8-.1-.3-.5-.5-1-.6-.7-.2-2-.2-2.4 0-.3.3-.5.7-.8 1.7a9.3 9.3 0 0 1-.7 1.7c-.1 0-.4-.4-1.1-1.6-.6-1-.7-1.2-1-1.3-.4-.2-1.3 0-1.6.2-.5.1-1.3.5-1.6 1-.3.4 0 1 .2 2 .3 1 .4 1.6.3 1.6-.3.2-1.6-.5-2-.7-.8-.4-1.3-.7-1.6-.6-.6.1-1.5 1.2-1.9 1.9-.1.3-.2.6 0 .8 0 .2.2.4.6.7l1.2 1.3c.3.5.4.8.3.9-.2.3-1.5.3-2.1.3-1 0-1.6 0-1.9.3a3.9 3.9 0 0 0-.5 2.5c0 .3.2.5.4.7l1.4.6c1.5.6 1.7.8 1.7.9l-1.5 1-1.3 1c-.5.8.4 2.5 1 3 .4.3 1.2.2 2.1 0 .6-.1 1.7-.3 2-.1 0 0 0 .3-.9 1.6-.5.6-.8 1-.7 1.5 0 .4.2 1 .8 1.6.4.3 1 .6 1.8.5.8 0 1.5-.7 2-1.3.3-.3.8-.8 1-.7.3.1.2 1.3.2 1.8 0 .8-.1 1.5.2 1.9.2.3.8.6 1.5.7.3 0 1.4 0 2-.5.4-.3.6-1 .9-1.8.2-.8.4-1.3.5-1.3 0 0 .4.2 1.3 1.8l.6 1 .7.2c.5 0 1-.1 1.4-.3l-.1.1c-.4.4-1 1.4-.8 1.8 0 .3.3.5.8 1l.9 1-1.1.2c-.7 0-1.2 0-1.5.4-.4.5-.3 2.1 0 2.5.2.2.4.3 1.2.4l1 .3h.1l-.8.7-1 1c0 .5.4 1.4.6 1.7.2.4.5.6.7.6l1.4-.2.8-.3h.1v.1l-.3 1c-.3.8-.4 1-.3 1.3l.9.8c.7.5 1 .5 1.2.5.3 0 .5-.3 1-.8l.8-.9.3 1.2c.2.8.3 1.1.6 1.3.3.2.9.3 1 .3h.4c.5 0 .7 0 .9-.3l.3-.9.4-1.4.8.8c.3.4.6.8 1 1 .7.2 1.9-.6 2.1-1.1.1-.3 0-.8-.2-1.5a7.7 7.7 0 0 1-.2-1l.8.3c.8.3 1.3.5 1.6.3.5-.1 1-.9 1.1-1.3.2-.4.2-.7.1-1l-.6-.7c-.2-.2-.8-.9-.8-1.1l1-.1c.5 0 1 0 1.3-.3.3-.4.4-1.4.3-2 0-.4-.2-.6-.4-.7l-.9-.2a6.5 6.5 0 0 1-1.4-.4 5 5 0 0 1 .7-.5c.5-.4 1-.7 1-1 .3-.6 0-1.2-.2-1.4-.1-.2-.6-.8-1.1-.9-.3 0-.6.2-1 .4l-.5.3 1.6-1.9 1-2 .1.3c.2.3.3.7.6.8.4.2 1.2 0 1.6-.2.3-.1.5-.3.6-.5V39a7.5 7.5 0 0 1-.2-1c.2 0 .4.2.5.3.4.3.7.6 1 .6.6 0 1-.4 1.3-.6.3-.3.5-.6.5-1 0-.3-.2-.6-.5-1a6.8 6.8 0 0 1-.5-.6h1.9c.2 0 .4-.3.5-.6a.5.5 0 0 0 .1-.6v-1l-1-.5Zm-16 12a3 3 0 0 1 1 0 3.3 3.3 0 0 1 2.5 1.4l.5 1.3c.2 1 0 2-.5 2.7A3.8 3.8 0 0 1 53 52a4 4 0 0 1-2.7-.3 3.8 3.8 0 0 1-1.6-2 4.5 4.5 0 0 1-.4-2 4.8 4.8 0 0 1 1.7-3l.4-.3.1.2c.2.4.7.7 1.2.6Zm3.9-1.3s-.2.1-.2 0a5 5 0 0 0-3-.8 5 5 0 0 0-1.5.3 19.3 19.3 0 0 0-2.2-3.6l.7.7c.6.7 1.1 1.3 1.7 1.2.6-.2.7-1 1-1.9l.1-.7h1.2l.2 1c.1.8.3 1.6.8 1.9h.3c.6 0 1-.6 1.5-1.2 0-.2.4-.6.4-.6a1 1 0 0 1 1.1.7c0 .2-.2 1-2.1 3Zm0 11.9c-.5-.7-1-1.3-1.6-1.1-.6.1-.8.9-1 2l-.2.6a3.5 3.5 0 0 1-1.2-.2l-.2-.8c-.2-1-.3-1.7-.8-1.8a.6.6 0 0 0-.2 0c-.5 0-1 .5-1.7 1.2l-.4.4c-.1 0-.3 0-.6-.3l-.4-.3.2-.8c.4-1.2.5-1.7.2-2-.3-.5-1-.3-2 0l-.8.3-.2-.2a3.3 3.3 0 0 1-.4-1l.6-.6c.9-.7 1.4-1.1 1.3-1.6-.2-.5-.8-.7-2-1h-.7V47h.9c.8-.1 1.7-.1 2-.8 0-.7-.6-1.3-1.3-2l-.5-.4c0-.2.3-.7.6-1l.3.1c.9.4 2 1 2.7.4.5-.6.1-1.5-.2-2.3l-.2-.7.1-.2a17 17 0 0 1 2.2 3.5 5.8 5.8 0 0 0-2.7 4c0 .5 0 1.5.5 2.4.3.8.9 1.8 2 2.4a4.7 4.7 0 0 0 3.3.4A4.6 4.6 0 0 0 56 51a4.6 4.6 0 0 0 0-5 4 4 0 0 0-3-1.8l-1.4.1a.2.2 0 0 1-.2 0V44a4.2 4.2 0 0 1 1.8-.1 4 4 0 0 1 1.8.6c.4.3 1 .2 1.4-.1l1.5-1.8c.7-1 1-1.6.8-2v-.2c.4.1.9.2 1.2.1l-.3.4a9 9 0 0 1-2 2.2.7.7 0 0 0-.2.6c0 .3.2.4.5.5.6.2 1.3-.2 1.8-.5l.5-.2.4.5.2.5c0 .2-.5.5-.7.7-.6.4-1.2.8-1.1 1.4.1.6 1 .8 2.2 1l.5.1v.2a2.6 2.6 0 0 1 0 1.1h-.8c-.7.1-1.5.1-1.7.7-.3.7.3 1.5 1 2.1l.4.5-.1.2-.6 1-1-.4c-1-.3-1.5-.5-1.8-.2-.4.3-.3.9 0 2l.3.8-.5.4-.6.2-.6-.7Zm7.7-21.3c-.4 0-.7.1-1 .3a2.7 2.7 0 0 1-1.5.6 2.5 2.5 0 0 1-1.3-.3 3.3 3.3 0 0 1-1.4-1.4A2.5 2.5 0 0 1 58 32a3 3 0 0 1 1.1-1.6 3.7 3.7 0 0 1 1.5-.8h.4c.8 0 1.6.2 2.1.7a3.3 3.3 0 0 1 1 4.2h-.7Zm-.5 1 .4-.2c-.4.4-.7.6-1 .6l-.2.1.8-.5Zm2.2-1.6a3.9 3.9 0 0 0 0-1.7 4 4 0 0 0-1.5-2.7 4.6 4.6 0 0 0-3.2-.7c-1.2.2-3 1.3-3.3 3-.2.8 0 1.6.4 2.4a4.2 4.2 0 0 0 1.7 1.7c1 .5 1.9.5 2.8.2-1.4.5-2 2.3-2.3 3.3v.4h-.5l-.4-.2v-.8c0-.7 0-1.3-.3-1.5a.6.6 0 0 0-.4 0c-.3 0-.6.1-1.2.5l-.6.4-.3-.3a1 1 0 0 1-.3-.3l.4-.6c.3-.5.7-1 .5-1.5-.3-.5-1-.5-2-.4h-.3a2.5 2.5 0 0 1-.2-.8l.6-.3c.8-.4 1.2-.7 1.2-1.2s-.5-.8-1.4-1.2l-.4-.2.1-.4.2-.4h.6c1 0 1.4 0 1.7-.3.3-.4 0-1-.6-1.6a7.7 7.7 0 0 1-.3-.6 3 3 0 0 1 .7-.5l.5.3c.7.5 1.2.9 1.6.6.4-.3.4-.9.3-1.8V26a2.8 2.8 0 0 1 .9-.3l.2.6c.2.6.5 1.4 1.1 1.4.6 0 1-.8 1.3-1.5l.2-.4c.2 0 .5 0 .8.2v.2c-.2.8-.3 1.9.4 2.2h.3c.5 0 1-.3 1.5-.6l.4-.3c.2 0 .5.3.6.5l-.4.6c-.4.6-.8 1.2-.5 1.7.3.4 1 .3 1.7.3h.6l.2.7-.6.4c-.7.3-1.3.6-1.3 1-.1.8.7 1 1.4 1.3l.4.2v.2H65l.2-.6Zm.4 1.6c-.3.5.2 1 .6 1.6l.4.5a.9.9 0 0 1-.3.3 1 1 0 0 1-.5.3l-.6-.4c-.5-.4-1-.7-1.5-.5-.5.3-.4 1-.3 2v.3l-.9.3-.1-.5-.3-.5a.7.7 0 0 0-.7-.4.7.7 0 0 0-.4.2c.3-.9.9-1.8 1.6-2a3.7 3.7 0 0 0 2-1.4h1.1v.2ZM39.7 21.2c1.3 0 2.5.2 3.5.7a6.7 6.7 0 0 1 3.7 4c.7 2.3.6 4.1-.2 5.6-.4.8-1.1 1.5-2 2.1a8.8 8.8 0 0 1-6.3 1.3 5.6 5.6 0 0 1-4-3.2 6.2 6.2 0 0 1-.6-3.8A6.2 6.2 0 0 1 35 25a1 1 0 0 0 .1-1 1 1 0 0 0-.9-.7H34a6.1 6.1 0 0 1 2-1.3 9.9 9.9 0 0 1 3.7-.8ZM34 18.8a6.8 6.8 0 0 1-.3-1.2l1.1-.6 1-.2.6.9c.8 1.3 1.4 2.1 2 2.1.6 0 1-.9 1.4-2.3l.5-1.2H42l.5.2.1 1.4c0 1.5.1 2.4.7 2.5.4.2 1-.2 2.4-1.2l1-.7s.4.1.9.5c.5.3.7.6.7.7l-.5 1c-.5 1-1.1 2.2-.7 2.7.4.6 1.5.4 2.7.3a7.4 7.4 0 0 1 1.3-.2l.6 1 .2.7a9 9 0 0 1-.7.5c-1 .7-2.3 1.5-2.2 2.3 0 .7 1 1 2.1 1.4.4.2 1.1.4 1.2.6.3.3 0 1.7-.2 2h-1.4c-1.5.1-2.3.2-2.5.8-.2.5.4 1.2 1.1 2.1a5 5 0 0 1 1 1.3l-.6 1a3.6 3.6 0 0 1-.8.6 6 6 0 0 1-.5-.4 6.7 6.7 0 0 0-3.9-1.6l-1.5.3a9.7 9.7 0 0 1-5.6.3 7.2 7.2 0 0 1-4.7-3.6 8 8 0 0 1-.4-6.5c.3-.7.6-1.5 1.1-2.1h1v.2a7 7 0 0 0-1.5 3.3 7 7 0 0 0 .8 4.4 6.5 6.5 0 0 0 4.6 3.6c1.7.4 3.3 0 4-.1a9.3 9.3 0 0 0 3-1.3 6.8 6.8 0 0 0 2.2-2.4c.9-1.7 1-3.8.2-6.2a7.5 7.5 0 0 0-4.1-4.7 8.8 8.8 0 0 0-3.9-.7 9 9 0 0 0-4 .9 7.1 7.1 0 0 0-2.7 2.1h-2.8l-1-1-.4-.5a4.2 4.2 0 0 1 1.3-1.5l1 .5c.8.5 1.6 1 2.3 1l.6-.3c.7-.5.4-1.6 0-2.7Zm12 22c0-.4 0-.8-.2-1.2-.1-.6-.3-1.3-.2-1.8.2 0 .5.3 1 .9l.8.8a2.5 2.5 0 0 0-.3.4c-.3.3-.1.7.2 1.4.4 1 .4 1.3.3 1.4 0 0-.2.1-1.7-.6a2.1 2.1 0 0 0-.6-.2h-.1c.6-.3.9-.7.9-1.1Zm-.7-4a.7.7 0 0 0-.5.6 5 5 0 0 0 .2 2.4l.2 1-.5.3a3.1 3.1 0 0 1-1.4.4l-.5-.8c-.6-1.1-1.3-2.4-2.2-2.3-.7.1-1 1-1.2 2-.2.5-.4 1.2-.6 1.4-.2.2-.8.3-1.3.2-.6 0-1-.2-1-.3v-1.3c0-1.2.1-2.3-.7-2.7a1 1 0 0 0-.4 0c-.5 0-1 .5-1.5 1-.5.4-1 1-1.5 1-.6 0-1-.2-1.2-.4a1.6 1.6 0 0 1-.5-1l.6-1c.6-.9 1.4-2 .7-2.6-.5-.5-1.6-.3-2.7-.1a5.2 5.2 0 0 1-1.4.1c-.5-.4-1-1.6-.8-1.8l1-.7c1-.6 2-1.2 2-1.9-.1-.7-1.2-1.1-2.4-1.6l-1.2-.5a.4.4 0 0 1 0-.2 3 3 0 0 1 .4-1.7H28c1.2 0 2.5 0 3-.8.1-.4 0-.8-.2-1.3h1.6a9.7 9.7 0 0 0-1 1.9 9 9 0 0 0 .5 7.1 8.1 8.1 0 0 0 5.3 4c2 .6 4.2.5 6.1-.2a3.6 3.6 0 0 1 2.3 0 .8.8 0 0 0-.2-.1Zm8-5 .9.5.8.4a8 8 0 0 1-.8.4c-.5.3-.8.5-.9.8v1c.1.5.3.7.6.9h1.8l-.4.6c-.2.4-.4.7-.4 1 0 .7.8 1.5 1.3 1.5.3 0 .6-.1 1.2-.5.2 0 .3-.2.5-.3v1.4a1.9 1.9 0 0 0-1.4-.2c-.3 0-.6.4-1 .9l-.6.8a4.4 4.4 0 0 1-.3-1.2c-.1-.7-.2-1.2-.6-1.5a2.8 2.8 0 0 0-1.2-.3c-.6 0-1 .1-1.2.4a3 3 0 0 0-.3 1.1 7.9 7.9 0 0 1-.3 1.2 5.8 5.8 0 0 1-.9-.9l-.7-.8a.9.9 0 0 0-.7-.1l-.5.1a7.7 7.7 0 0 0-2.4-2h.1c.8.3 1.5.8 2 1.2.5.4.8.6 1 .5.6 0 1.3-.8 1.4-1 .3-.2.8-.9.8-1.4 0-.5-.4-1-1.1-2l-1-1.1a8 8 0 0 1 1.7-.2c1.1 0 1.7-.1 2-.4.2-.2.4-.6.5-1.1l.1.3Z"/>
    </mask>
    <path stroke="#1A174F" stroke-width="2" d="m67.8 33.1-.7-.3.8-.4c.6-.3 1-.5 1-.8v-1c0-.5-.3-.8-.6-1a2.5 2.5 0 0 0-1 0l-.8.1.4-.7.5-.8a.8.8 0 0 0 0-.6c-.3-.5-1-1-1.3-1-.3-.2-.6 0-1.1.4-.7.6-.8.6-.9.6l.1-1.3v-.6c0-.2-.1-.4-.4-.5-.4-.2-1.2-.4-1.6-.2-.2 0-.4.3-.6.8l-.5 1-.3-.8c-.1-.5-.3-1-.6-1.1-.4-.1-.9 0-1.2.1l-1 .5v1.9l-.5-.4c-.6-.4-.8-.6-1-.6-.5 0-1 .6-1.3.9a1 1 0 0 0-.3.7c0 .3.2.5.5 1l.4.6H55l-1.1.1-.5 1c0-.3 0-.9-.4-1.3a4 4 0 0 0-1.6-.8c-1-.3-1.5-.6-1.5-.7 0 0 .2-.4 1.7-1.4.7-.4 1-.6 1-.8.3-.4.2-.9-.1-1.6a3.8 3.8 0 0 0-1-1.3c-.2-.2-.7-.1-1.8 0-1.5.2-1.8.2-1.9.1 0 0 0-.3.8-1.9.4-.8.6-1.1.6-1.4 0-.4-.4-.8-1.1-1.3-.2-.2-1-.7-1.5-.7-.3 0-.6.2-1.5 1l-1.1.8-.4.2a12.6 12.6 0 0 1-.1-1.7c0-1 0-1.5-.3-1.8-.1-.3-.5-.5-1-.6-.7-.2-2-.2-2.4 0-.3.3-.5.7-.8 1.7a9.3 9.3 0 0 1-.7 1.7c-.1 0-.4-.4-1.1-1.6-.6-1-.7-1.2-1-1.3-.4-.2-1.3 0-1.6.2-.5.1-1.3.5-1.6 1-.3.4 0 1 .2 2 .3 1 .4 1.6.3 1.6-.3.2-1.6-.5-2-.7-.8-.4-1.3-.7-1.6-.6-.6.1-1.5 1.2-1.9 1.9-.1.3-.2.6 0 .8 0 .2.2.4.6.7l1.2 1.3c.3.5.4.8.3.9-.2.3-1.5.3-2.1.3-1 0-1.6 0-1.9.3a3.9 3.9 0 0 0-.5 2.5c0 .3.2.5.4.7l1.4.6c1.5.6 1.7.8 1.7.9l-1.5 1-1.3 1c-.5.8.4 2.5 1 3 .4.3 1.2.2 2.1 0 .6-.1 1.7-.3 2-.1 0 0 0 .3-.9 1.6-.5.6-.8 1-.7 1.5 0 .4.2 1 .8 1.6.4.3 1 .6 1.8.5.8 0 1.5-.7 2-1.3.3-.3.8-.8 1-.7.3.1.2 1.3.2 1.8 0 .8-.1 1.5.2 1.9.2.3.8.6 1.5.7.3 0 1.4 0 2-.5.4-.3.6-1 .9-1.8.2-.8.4-1.3.5-1.3 0 0 .4.2 1.3 1.8l.6 1 .7.2c.5 0 1-.1 1.4-.3l-.1.1c-.4.4-1 1.4-.8 1.8 0 .3.3.5.8 1l.9 1-1.1.2c-.7 0-1.2 0-1.5.4-.4.5-.3 2.1 0 2.5.2.2.4.3 1.2.4l1 .3h.1l-.8.7-1 1c0 .5.4 1.4.6 1.7.2.4.5.6.7.6l1.4-.2.8-.3h.1v.1l-.3 1c-.3.8-.4 1-.3 1.3l.9.8c.7.5 1 .5 1.2.5.3 0 .5-.3 1-.8l.8-.9.3 1.2c.2.8.3 1.1.6 1.3.3.2.9.3 1 .3h.4c.5 0 .7 0 .9-.3l.3-.9.4-1.4.8.8c.3.4.6.8 1 1 .7.2 1.9-.6 2.1-1.1.1-.3 0-.8-.2-1.5a7.7 7.7 0 0 1-.2-1l.8.3c.8.3 1.3.5 1.6.3.5-.1 1-.9 1.1-1.3.2-.4.2-.7.1-1l-.6-.7c-.2-.2-.8-.9-.8-1.1l1-.1c.5 0 1 0 1.3-.3.3-.4.4-1.4.3-2 0-.4-.2-.6-.4-.7l-.9-.2a6.5 6.5 0 0 1-1.4-.4 5 5 0 0 1 .7-.5c.5-.4 1-.7 1-1 .3-.6 0-1.2-.2-1.4-.1-.2-.6-.8-1.1-.9-.3 0-.6.2-1 .4l-.5.3 1.6-1.9 1-2 .1.3c.2.3.3.7.6.8.4.2 1.2 0 1.6-.2.3-.1.5-.3.6-.5V39a7.5 7.5 0 0 1-.2-1c.2 0 .4.2.5.3.4.3.7.6 1 .6.6 0 1-.4 1.3-.6.3-.3.5-.6.5-1 0-.3-.2-.6-.5-1a6.8 6.8 0 0 1-.5-.6h1.9c.2 0 .4-.3.5-.6a.5.5 0 0 0 .1-.6v-1l-1-.5Zm-16 12a3 3 0 0 1 1 0 3.3 3.3 0 0 1 2.5 1.4l.5 1.3c.2 1 0 2-.5 2.7A3.8 3.8 0 0 1 53 52a4 4 0 0 1-2.7-.3 3.8 3.8 0 0 1-1.6-2 4.5 4.5 0 0 1-.4-2 4.8 4.8 0 0 1 1.7-3l.4-.3.1.2c.2.4.7.7 1.2.6Zm3.9-1.3s-.2.1-.2 0a5 5 0 0 0-3-.8 5 5 0 0 0-1.5.3 19.3 19.3 0 0 0-2.2-3.6l.7.7c.6.7 1.1 1.3 1.7 1.2.6-.2.7-1 1-1.9l.1-.7h1.2l.2 1c.1.8.3 1.6.8 1.9h.3c.6 0 1-.6 1.5-1.2 0-.2.4-.6.4-.6a1 1 0 0 1 1.1.7c0 .2-.2 1-2.1 3Zm0 11.9c-.5-.7-1-1.3-1.6-1.1-.6.1-.8.9-1 2l-.2.6a3.5 3.5 0 0 1-1.2-.2l-.2-.8c-.2-1-.3-1.7-.8-1.8a.6.6 0 0 0-.2 0c-.5 0-1 .5-1.7 1.2l-.4.4c-.1 0-.3 0-.6-.3l-.4-.3.2-.8c.4-1.2.5-1.7.2-2-.3-.5-1-.3-2 0l-.8.3-.2-.2a3.3 3.3 0 0 1-.4-1l.6-.6c.9-.7 1.4-1.1 1.3-1.6-.2-.5-.8-.7-2-1h-.7V47h.9c.8-.1 1.7-.1 2-.8 0-.7-.6-1.3-1.3-2l-.5-.4c0-.2.3-.7.6-1l.3.1c.9.4 2 1 2.7.4.5-.6.1-1.5-.2-2.3l-.2-.7.1-.2a17 17 0 0 1 2.2 3.5 5.8 5.8 0 0 0-2.7 4c0 .5 0 1.5.5 2.4.3.8.9 1.8 2 2.4a4.7 4.7 0 0 0 3.3.4A4.6 4.6 0 0 0 56 51a4.6 4.6 0 0 0 0-5 4 4 0 0 0-3-1.8l-1.4.1a.2.2 0 0 1-.2 0V44a4.2 4.2 0 0 1 1.8-.1 4 4 0 0 1 1.8.6c.4.3 1 .2 1.4-.1l1.5-1.8c.7-1 1-1.6.8-2v-.2c.4.1.9.2 1.2.1l-.3.4a9 9 0 0 1-2 2.2.7.7 0 0 0-.2.6c0 .3.2.4.5.5.6.2 1.3-.2 1.8-.5l.5-.2.4.5.2.5c0 .2-.5.5-.7.7-.6.4-1.2.8-1.1 1.4.1.6 1 .8 2.2 1l.5.1v.2a2.6 2.6 0 0 1 0 1.1h-.8c-.7.1-1.5.1-1.7.7-.3.7.3 1.5 1 2.1l.4.5-.1.2-.6 1-1-.4c-1-.3-1.5-.5-1.8-.2-.4.3-.3.9 0 2l.3.8-.5.4-.6.2-.6-.7Zm7.7-21.3c-.4 0-.7.1-1 .3a2.7 2.7 0 0 1-1.5.6 2.5 2.5 0 0 1-1.3-.3 3.3 3.3 0 0 1-1.4-1.4A2.5 2.5 0 0 1 58 32a3 3 0 0 1 1.1-1.6 3.7 3.7 0 0 1 1.5-.8h.4c.8 0 1.6.2 2.1.7a3.3 3.3 0 0 1 1 4.2h-.7Zm-.5 1 .4-.2c-.4.4-.7.6-1 .6l-.2.1.8-.5Zm2.2-1.6a3.9 3.9 0 0 0 0-1.7 4 4 0 0 0-1.5-2.7 4.6 4.6 0 0 0-3.2-.7c-1.2.2-3 1.3-3.3 3-.2.8 0 1.6.4 2.4a4.2 4.2 0 0 0 1.7 1.7c1 .5 1.9.5 2.8.2-1.4.5-2 2.3-2.3 3.3v.4h-.5l-.4-.2v-.8c0-.7 0-1.3-.3-1.5a.6.6 0 0 0-.4 0c-.3 0-.6.1-1.2.5l-.6.4-.3-.3a1 1 0 0 1-.3-.3l.4-.6c.3-.5.7-1 .5-1.5-.3-.5-1-.5-2-.4h-.3a2.5 2.5 0 0 1-.2-.8l.6-.3c.8-.4 1.2-.7 1.2-1.2s-.5-.8-1.4-1.2l-.4-.2.1-.4.2-.4h.6c1 0 1.4 0 1.7-.3.3-.4 0-1-.6-1.6a7.7 7.7 0 0 1-.3-.6 3 3 0 0 1 .7-.5l.5.3c.7.5 1.2.9 1.6.6.4-.3.4-.9.3-1.8V26a2.8 2.8 0 0 1 .9-.3l.2.6c.2.6.5 1.4 1.1 1.4.6 0 1-.8 1.3-1.5l.2-.4c.2 0 .5 0 .8.2v.2c-.2.8-.3 1.9.4 2.2h.3c.5 0 1-.3 1.5-.6l.4-.3c.2 0 .5.3.6.5l-.4.6c-.4.6-.8 1.2-.5 1.7.3.4 1 .3 1.7.3h.6l.2.7-.6.4c-.7.3-1.3.6-1.3 1-.1.8.7 1 1.4 1.3l.4.2v.2H65l.2-.6Zm.4 1.6c-.3.5.2 1 .6 1.6l.4.5a.9.9 0 0 1-.3.3 1 1 0 0 1-.5.3l-.6-.4c-.5-.4-1-.7-1.5-.5-.5.3-.4 1-.3 2v.3l-.9.3-.1-.5-.3-.5a.7.7 0 0 0-.7-.4.7.7 0 0 0-.4.2c.3-.9.9-1.8 1.6-2a3.7 3.7 0 0 0 2-1.4h1.1v.2ZM39.7 21.2c1.3 0 2.5.2 3.5.7a6.7 6.7 0 0 1 3.7 4c.7 2.3.6 4.1-.2 5.6-.4.8-1.1 1.5-2 2.1a8.8 8.8 0 0 1-6.3 1.3 5.6 5.6 0 0 1-4-3.2 6.2 6.2 0 0 1-.6-3.8A6.2 6.2 0 0 1 35 25a1 1 0 0 0 .1-1 1 1 0 0 0-.9-.7H34a6.1 6.1 0 0 1 2-1.3 9.9 9.9 0 0 1 3.7-.8ZM34 18.8a6.8 6.8 0 0 1-.3-1.2l1.1-.6 1-.2.6.9c.8 1.3 1.4 2.1 2 2.1.6 0 1-.9 1.4-2.3l.5-1.2H42l.5.2.1 1.4c0 1.5.1 2.4.7 2.5.4.2 1-.2 2.4-1.2l1-.7s.4.1.9.5c.5.3.7.6.7.7l-.5 1c-.5 1-1.1 2.2-.7 2.7.4.6 1.5.4 2.7.3a7.4 7.4 0 0 1 1.3-.2l.6 1 .2.7a9 9 0 0 1-.7.5c-1 .7-2.3 1.5-2.2 2.3 0 .7 1 1 2.1 1.4.4.2 1.1.4 1.2.6.3.3 0 1.7-.2 2h-1.4c-1.5.1-2.3.2-2.5.8-.2.5.4 1.2 1.1 2.1a5 5 0 0 1 1 1.3l-.6 1a3.6 3.6 0 0 1-.8.6 6 6 0 0 1-.5-.4 6.7 6.7 0 0 0-3.9-1.6l-1.5.3a9.7 9.7 0 0 1-5.6.3 7.2 7.2 0 0 1-4.7-3.6 8 8 0 0 1-.4-6.5c.3-.7.6-1.5 1.1-2.1h1v.2a7 7 0 0 0-1.5 3.3 7 7 0 0 0 .8 4.4 6.5 6.5 0 0 0 4.6 3.6c1.7.4 3.3 0 4-.1a9.3 9.3 0 0 0 3-1.3 6.8 6.8 0 0 0 2.2-2.4c.9-1.7 1-3.8.2-6.2a7.5 7.5 0 0 0-4.1-4.7 8.8 8.8 0 0 0-3.9-.7 9 9 0 0 0-4 .9 7.1 7.1 0 0 0-2.7 2.1h-2.8l-1-1-.4-.5a4.2 4.2 0 0 1 1.3-1.5l1 .5c.8.5 1.6 1 2.3 1l.6-.3c.7-.5.4-1.6 0-2.7Zm12 22c0-.4 0-.8-.2-1.2-.1-.6-.3-1.3-.2-1.8.2 0 .5.3 1 .9l.8.8a2.5 2.5 0 0 0-.3.4c-.3.3-.1.7.2 1.4.4 1 .4 1.3.3 1.4 0 0-.2.1-1.7-.6a2.1 2.1 0 0 0-.6-.2h-.1c.6-.3.9-.7.9-1.1Zm-.7-4a.7.7 0 0 0-.5.6 5 5 0 0 0 .2 2.4l.2 1-.5.3a3.1 3.1 0 0 1-1.4.4l-.5-.8c-.6-1.1-1.3-2.4-2.2-2.3-.7.1-1 1-1.2 2-.2.5-.4 1.2-.6 1.4-.2.2-.8.3-1.3.2-.6 0-1-.2-1-.3v-1.3c0-1.2.1-2.3-.7-2.7a1 1 0 0 0-.4 0c-.5 0-1 .5-1.5 1-.5.4-1 1-1.5 1-.6 0-1-.2-1.2-.4a1.6 1.6 0 0 1-.5-1l.6-1c.6-.9 1.4-2 .7-2.6-.5-.5-1.6-.3-2.7-.1a5.2 5.2 0 0 1-1.4.1c-.5-.4-1-1.6-.8-1.8l1-.7c1-.6 2-1.2 2-1.9-.1-.7-1.2-1.1-2.4-1.6l-1.2-.5a.4.4 0 0 1 0-.2 3 3 0 0 1 .4-1.7H28c1.2 0 2.5 0 3-.8.1-.4 0-.8-.2-1.3h1.6a9.7 9.7 0 0 0-1 1.9 9 9 0 0 0 .5 7.1 8.1 8.1 0 0 0 5.3 4c2 .6 4.2.5 6.1-.2a3.6 3.6 0 0 1 2.3 0 .8.8 0 0 0-.2-.1Zm8-5 .9.5.8.4a8 8 0 0 1-.8.4c-.5.3-.8.5-.9.8v1c.1.5.3.7.6.9h1.8l-.4.6c-.2.4-.4.7-.4 1 0 .7.8 1.5 1.3 1.5.3 0 .6-.1 1.2-.5.2 0 .3-.2.5-.3v1.4a1.9 1.9 0 0 0-1.4-.2c-.3 0-.6.4-1 .9l-.6.8a4.4 4.4 0 0 1-.3-1.2c-.1-.7-.2-1.2-.6-1.5a2.8 2.8 0 0 0-1.2-.3c-.6 0-1 .1-1.2.4a3 3 0 0 0-.3 1.1 7.9 7.9 0 0 1-.3 1.2 5.8 5.8 0 0 1-.9-.9l-.7-.8a.9.9 0 0 0-.7-.1l-.5.1a7.7 7.7 0 0 0-2.4-2h.1c.8.3 1.5.8 2 1.2.5.4.8.6 1 .5.6 0 1.3-.8 1.4-1 .3-.2.8-.9.8-1.4 0-.5-.4-1-1.1-2l-1-1.1a8 8 0 0 1 1.7-.2c1.1 0 1.7-.1 2-.4.2-.2.4-.6.5-1.1l.1.3Z" mask="url(#b)"/>
  </g>
  <defs>
    <clipPath id="a">
      <path fill="#fff" d="M0 0h90v90H0z"/>
    </clipPath>
  </defs>
</svg>
