<svg xmlns="http://www.w3.org/2000/svg" width="125" height="125" fill="none">
  <path fill="#78E0ED" d="M79.6 19.6h-3.2v3.2h3.2v-3.2Zm13.3-.2h-3.2v3.2h3.2v-3.2Zm13.6 0h-3.2v3.2h3.2v-3.2ZM79.2 33.2H76v3.3h3.2v-3.3Zm13.7 0h-3.2v3.3h3.2v-3.3Zm13.6 0h-3.2v3.3h3.2v-3.3Zm13.6 0H117v3.3h3.1v-3.3ZM79.2 47H76v3.2h3.2V47Zm13.7 0h-3.2v3.2h3.2V47Zm13.6 0h-3.2v3.2h3.2V47Zm13.6 0H117v3.2h3.1V47ZM79.2 60.8H76v3.3h3.2v-3.3Zm13.7 0h-3.2v3.3h3.2v-3.3Zm13.6 0h-3.2v3.3h3.2v-3.3Zm13.6 0H117v3.3h3.1v-3.3ZM79.2 74.6H76V78h3.2v-3.3Zm13.7 0h-3.2V78h3.2v-3.3Zm13.6 0h-3.2V78h3.2v-3.3Z"/>
  <path fill="#CFE5DC" fill-rule="evenodd" d="M68.8 10.1a22.5 22.5 0 0 0-14.4-2c-6 1.1-10.2 4.5-15.2 8.2-4.2 3.1-9 8.6-9.5 13.6C29 37.2 38 44.7 46 34.7c4.2-5.3 8.4-9.5 19.7-15 5.7-2.7 9-6.6 3.1-9.6Z" clip-rule="evenodd"/>
  <path fill="#FCC" fill-rule="evenodd" d="M27.7 80c1.5-.1 4.2-.9 5.9-1.3 2.7-.8 3-4.3 1.5-7-2.9-5.3-8.3-2.1-9.8 3.2-.8 2.8-.1 5.3 2.4 5Z" clip-rule="evenodd"/>
  <path fill="#E8E7F8" fill-rule="evenodd" d="M49 98c-.9-8 8.2-18.3 16-22.5 7.5-4.2 12.5 1.2 12 7.3-.3 3.1-2 6.6-3 8.4-.6 1.2-1.5 3.8-2.8 6.2a15 15 0 0 1-9.4 8.2c-6.3 1.8-12.1-2.4-12.7-7.6Z" clip-rule="evenodd"/>
  <mask id="a" width="93" height="119" x="14" y="5" fill="#000" maskUnits="userSpaceOnUse">
    <path fill="#fff" d="M14 5h93v119H14z"/>
    <path d="M103.6 42.3a28.4 28.4 0 0 0-16.8-15.8c-2.9-1-5.8-1.5-8.8-2-2.6-.4-5.3-.6-7.8-1.3-2.2-.7-4.8-2.2-3.8-4.9a7.1 7.1 0 0 1 2.9-3.2v-.3a6 6 0 0 0-5 1.4c-1.4 1.2-2 3-1.8 4.9.2 1 .5 1.8 1 2.6l1 1c.6.6.4 1.3-.2 1.9-.7.7-1.9.8-2.6 1.6-.5.5-.6 1.4-.5 2.1.4 2 2.4 3 4.2 3.3 2 .5 4 .7 6.1 1.2 3.5.9 7.1 2.8 7.8 6.7.2 1.3 0 2.7-1 3.7-1.4 1.4-3.8 1-5.5.5l-7.5-2c-2.3-.4-4.7-.8-7-.5a5 5 0 0 0-3 1c-.6.3-1.2 1-.9 1.8.4.8 1.6 1 2.4 1.2 1.1.3 2.3.5 3.1 1.3A7 7 0 0 0 58 50a4 4 0 0 0-.4.7c-1.1 1-2 2.2-3.3 2.6-.1 0-.2.3 0 .4 1.2.6 2.6-.1 3-1.4l.6-1.4c.8-.6 1.7-1 2.8-1.2l.1.3c-.3 0-.7.2-1 .4-1 .5-1.7 1.2-2.4 2 0 0-.1.1 0 .2 1 1.5 3 2.4 4.8 2.5 2.3.2 4.6-.6 6.5-1.7l.1-.2-.8-1.9 1.3.7a59.5 59.5 0 0 0 7.4 3c.4.2 1 .2 1.3.6.5.6-.5 1.7-1 2-.4.7-1 1.1-1.6 1.7L72.1 63c-.8 1-1.8 1.9-2.6 3-.7.8-1.2 1.9-1.3 3a5 5 0 0 0 1.3 3.2c.8 1 1.7 2 2.4 3.1l.7 1.7a27.9 27.9 0 0 1-4.4 5 60.7 60.7 0 0 1-10.6 7.8c-1.8 1.2-3.9 2-6 2.2a17 17 0 0 1-7-1.6l-.8-.4a9.4 9.4 0 0 1-3.2-2.6l-.9-1.1-.1-.1-2-3c-.3-.6-.5-1.3-.6-2 0-.4.1-.5.6-.6.8-.1 1.4-.4 2.1-1l1.3 2a8 8 0 0 0 3.1 2.4c1.4.6 3 .6 4.5.4 1.5-.1 3.1-.2 4.7-.5 1-.2 2.3-.6 3-1.5.3-.4.6-1 .5-1.5 0-.5-.4-.8-.8-1 .4.2.8.4 1.3.3.6 0 1-.3 1.2-.9l-.1-.2-6-2.3-1.4-.5c-.2 0-.5-.1-.6-.3l-.2-.1-.1-.2-.1-.7v-3h.2c.8 0 1.5-.2 2.3-.4.5 0 1-.2 1.3-.3.7.3 1.2.7 2 .8.6.2 1.3 0 1.9-.4 1.4-.9 1.5-2.8.4-4-.1-.1-.4 0-.3.2.3.8.7 2 .2 2.7-.7.8-2 .5-2.7 0l-.2-.1c.1-.3.1-.5-.1-.8-.5-.6-1.4-1-2-1.2-1.5-.6-3-.7-4.5-.7-.8 0-1.7 0-2.3-.7-.8-.7-.6-1.7-.5-2.7l1-5.8c.3-1.4.8-3.2 0-4.6l-.3.1-.6 5c-.2 1.7-.3 3.5-.8 5-.4 1.3-1.3 2.6-.9 4l.2.3-.2-.1c-.6-.1-1.3 0-1.6.5-.3.7.1 1.4.6 1.8.7.6 1.8.8 2.7.7l.2-.1c.2-.9-.3-1.6-.8-2.2a4 4 0 0 1 2 1.4c.4.5.7 1.2 1.2 1.5h.2l-.5.2a4 4 0 0 0-2.3 2.4c-.3 1.1 0 2.5 1.1 3 .5 0 1-.1 1.4-.4.4-.3.8-1 1.4-1-.4 1-1.5 1.6-2.6 1.4-.7 0-1-.5-1.5-1-.3-.4-.7-.8-1.3-.8-1 0-1.7 1-2.4 1.6-.6.3-1.1.2-1.7.2-.5 0-1 .2-1 .7-.1.3 0 .6.1.9l-.8.2c-.7.2-2.4.7-2.6-.5v-1l-.1-1.2c-.5-2.5-1.2-5-2-7.4-.5-1.8-1.1-3.7-1.8-5.5-.6-1.9-1.4-3.8-1.4-5.8 0-1.7.8-3.3 1.8-4.5l.2-.2 2 1a7.5 7.5 0 0 0 8.3-1v-.3a4 4 0 0 0-.3-.8c.2.3.5.5.9.6 1 .4 2 0 2.3-1.1.3-1.3 0-2.8-.4-4-1-2.4-3.5-4-6.1-4-3.4 0-5.6 2.7-8.7 3.4 0-.6.6-1.1 1.1-1.4l1.6-1a22.7 22.7 0 0 0 6.6-7.4c1.2-2 2-4.2 2.7-6.5l1.8-7.2a49 49 0 0 0 10.7-4c3.5-1.7 6.5-4.1 9.7-6.4a49 49 0 0 1 12.9-7C73.8 7 70.3 9 67 11c-3.3 2.2-6.4 4.8-9.8 6.8a45.3 45.3 0 0 1-11.6 4.8l-1.1.3c1-3.7 2.6-7.5 5.8-9.7a46.5 46.5 0 0 1 9-4.4l5.4-1.4c1-.2 2-.3 2.8-.8l.2-.2v-.3a8 8 0 0 0-3.1.2A35.8 35.8 0 0 0 57.3 9a86 86 0 0 0-12 4.6 51.7 51.7 0 0 0-15.4 12 38.2 38.2 0 0 0-3.4 4.9c-3 2.3-5.8 5-8 8.2a21.3 21.3 0 0 0-1.5 21 44.3 44.3 0 0 0 11.5 14.9 32.8 32.8 0 0 0 6.1 5.2c.2.1.4-.1.3-.3l-6.2-5.2a28.4 28.4 0 0 1-5.5-8.7c-1-2.8-1.5-5.6-1.7-8.6a44.7 44.7 0 0 1 5.2-26.2A39.5 39.5 0 0 1 38.2 25c1.8-.6 3.6-1 5.5-1.4h.2c-1 4.1-1.7 8.5-3.8 12.4a24 24 0 0 1-8.1 9c-.8.4-2.1 1.1-1.7 2.2l.2.2c2.6-.6 4.5-2.6 7-3.3a6.4 6.4 0 0 1 8 6.9c0 .8-.4 1.5-1.4 1.4-.8 0-1.3-.6-1.8-1.2-.7-.9-1.2-1.7-2.2-2.3a5.2 5.2 0 0 0-6 .7L33 51.1c-1 .1-1.9.2-2.8-.1-.2 0-.4.2-.2.3.8.5 1.6.5 2.4.4-.4.3-.7.5-1.2.6-.1 0-.2.4 0 .4.4 0 .7.1 1 .3l-.3.3c-.7 1-1.4 2.2-1.6 3.5-.3 2.9.9 5.5 1.8 8.1a152 152 0 0 1 2 6.6c.6 2 1.3 4.2 1.5 6.3 0 .6-.2 1.4.4 1.9.7.4 1.8.1 2.6 0l.9-.4-1 .7c-.6.2-1.5.1-1.8.7v1.1c.2.8.6 1.4 1 2 .7 1.3 1.2 1.9 2 3l.3.4c1.1 1.3 1.5 2 3 3l1.2.5c2 .8 4.2 1.6 6.4 1.7 2.3 0 4.5-.6 6.4-1.7 2-1.1 3.8-2.5 5.6-3.8a66 66 0 0 0 5.3-4.1c1.6-1.5 3.2-3.1 4.5-5l.3-.3a8.9 8.9 0 0 1 0 4A68.7 68.7 0 0 0 62 90.8a88.6 88.6 0 0 0-17 26.5c-.4.8-.6 1.7-.9 2.6-.3 1-.6 2-1.3 2.7-.2.1.1.4.3.3.6-.6 1-1.6 1.2-2.4l1-3 1.7-3.8a96.9 96.9 0 0 1 12.3-19.3 71 71 0 0 1 13.2-12.3c-.6 2-1.7 3.9-3 5.6l1.3-1.3c1-1.4 1.7-3 2.2-4.7 2.2-1.5 4.6-3 7-4.2 2.3-1 4.6-1.7 7-2.4 4.4-1.3 8.9-2.4 12.7-5.4 3.8-3 5.6-7.7 6-12.5a32 32 0 0 0-2.1-15ZM63.8 6.9c1-.2 2.1-.5 3.2-.4h-.3l-1.5.5-5 1.2H60L63.9 7ZM24.3 35A42.9 42.9 0 0 0 21 54.2a27.1 27.1 0 0 0 5.6 18.1 43 43 0 0 1-8-10c-3.6-6.6-4.9-15-1-21.7a31.8 31.8 0 0 1 8.4-9.2c-.6 1-1.2 2.3-1.7 3.5Zm10.3-9c-2.6 1-5.1 2.5-7.4 4a35.9 35.9 0 0 1 9-10 48.8 48.8 0 0 1 16-8.8l2.6-1a52.2 52.2 0 0 0-6.6 4.3c-1.6 1.8-2.7 4-3.5 6.3L44 23c-3.2.8-6.4 1.5-9.5 2.8Zm-1.8 26.9a4 4 0 0 1 1-.8l.5-.2c-.1.5 0 1 .3 1.4l.7.8-2.5-1.2Zm6 1.3a3 3 0 0 1-2.8 0c-.6-.4-1.5-1.8-1.3-2.3 0 0 1.8-1.2 5-1.3.2 0 .4 0 .7.2.7.3 1.3.7 1.7 1.4l.3.6c0 .2-.2.2-.3.3l-1 .7c-.7.3-1.3.6-2 .7m-2.6-3.8c1.2-.4 1.5-.3 2.2-.2l-2.2.2Zm-2.6-.2a4.6 4.6 0 0 1 7-.4l.8 1a5 5 0 0 0-3-1c-1.6-.6-3.2.3-4.7.9h-.6l.5-.5Zm-2 2 1-.8 1-.4 1-.2h.1l-.5.4c-.8 0-1.6.6-2.1 1.3l-.6-.2Zm24.3 28.2c.3.5 0 1-.2 1.4-.7 1-2 1.4-3.2 1.5-1.5.3-3 .4-4.5.5-1.6.2-3.2.2-4.6-.6a9 9 0 0 1-3-2.9l-.8-1 .6-.6h.5l1.2.3 1.8.5c1 .3 2 .6 3 .6 1.8 0 3.5-.8 5.2-1.2l1.5-.1a5 5 0 0 1 1.6.9c.3.2.8.4 1 .8Zm-15-2c0-.2.2-.3.4-.3.8-.4 1.7-.4 2.5-.2l2 .4 2.7-.1a11 11 0 0 1 4 .3c-2 .2-3.7 1.1-5.5 1.2-1.2 0-2.4-.3-3.5-.6l-1.7-.5-1-.3Zm11.1-7.4-2.3.4v-.1c1-.6 2-.8 3-.5h.2l-.9.2ZM50 71c0-.5.2-1 .5-1.5.7-1 2-.5 2.8 0l1.2 1h-.2l-.6.3a4 4 0 0 0-1.1-.3 4 4 0 0 0-2.4.5H50Zm7.2.3h.4c-.6.4-1.5.5-2.3.2l-1-.4.5-.4c.7.5 1.5.9 2.4.7Zm-3-1.8.5.5v.2a7 7 0 0 0-2-1.5l1.5.8Zm-7.6-14.7v1.9l-.5 2.6c0 .6-.2 1.1-.3 1.7l.2-1.8.6-4.4Zm-1 16c-1 .1-2-.1-2.7-.9-.4-.6-.3-1.3.6-1.3l1 .1c.5.7 1.2 1.4 1 2.2Zm2.2-.2a4 4 0 0 0-1.5-1.6c-.5-.2-1-.5-1.6-.6-1-1.5.2-3 .6-4.4v.6c-.3 1.3-.2 2.5 1 3.1.7.3 1.3.4 2 .4a10.6 10.6 0 0 1 4.2.5H51c-1 .5-1.3 1.6-1.4 2.7a1 1 0 0 1-.7.3c-.5 0-.8-.6-1-1Zm0 6.3c-.8.4-1.6-.3-1.8-1-.2-.7 0-1.6.5-2.1.7-1.2 1.9-1.5 3.1-1.7v3.5c-.8 0-1.2 1-1.8 1.3Zm-8.1 1 .4-.1h1c1 0 1.5-.8 2.2-1.4.6-.5 1.1-.6 1.7 0l1.1 1.1c.8.4 1.7.4 2.5 0 .6-.2 1.1-.6 1.4-1.2.3.2.8.2 1 .4l7 2.6c-.2.5-.8.6-1.3.4l-1.4-.7c-.5-.3-1-.4-1.5-.4a9 9 0 0 0-2.2-.6c-1.8-.3-3.5.2-5.3 0-1.6 0-3.1-.8-4.7-.2l-1.2.8-.4.1-.4.1c-.2-.3-.3-.6 0-1v.1ZM57 52.1c-.4.9-1.2 1.6-2.2 1.4.9-.5 1.6-1.2 2.3-2l-.1.6Zm1.4-2V50c.5-.5 1.1-1 1.7-1.2l.4.5c-.7.2-1.5.4-2.1.8Zm2.5-.8-.4-.7c2.4-.8 4.7 0 6.2 1.8l-1.5-.6a9.8 9.8 0 0 0-4.4-.5Zm.2.5v-.2c1.2 0 2.6 0 3.8.4l2.4 1c.4.6.8 1.3 1 2.1-1.7 1-3.7 1.7-5.8 1.7a6 6 0 0 1-4.8-2.3 8 8 0 0 1 3.1-2.2M102 66.9c-3 4-8 5.8-12.6 7.2a72 72 0 0 0-6.6 2 36.4 36.4 0 0 0-9.7 5.3c.1-1 .2-2 0-3a9 9 0 0 0-1.7-4.2c-.8-1.1-1.9-2-2.5-3.3-.7-1.5-.3-3 .6-4.3.9-1.3 2-2.4 3.1-3.6a37 37 0 0 1 3.3-3.6c.6-.6 1.3-1.2 1.8-1.9.4-.4.9-1.2.6-1.8-.2-.5-.7-.6-1-.7a33 33 0 0 1-2.6-.8c-2.5-1-4.8-2.3-7.2-3.4a6.3 6.3 0 0 0-5.8-2.7c-.5 0-1 .2-1.5.4a4 4 0 0 0-.7-.7c-.8-.5-1.7-.6-2.6-.8-1-.2-3.1-.8-2-2 .8-.8 2-1.1 3-1.3a42.6 42.6 0 0 1 9.7 1c2 .6 4.1 1.4 6.3 1.8 1.4.2 2.9.3 4-.5 2-1.2 2-3.7 1.4-5.6-1-2.8-3.6-4.5-6.3-5.4-1.7-.5-3.5-.9-5.2-1.2-1.8-.3-4.1-.4-5.4-1.8a3 3 0 0 1-.8-2.6c.2-1 1.1-1.4 2-1.8.6-.3 1.3-.8 1.6-1.5.2-.7-.2-1.3-.7-1.8a5.5 5.5 0 0 1-1.5-5 5.2 5.2 0 0 1 3.5-3.8c.7-.2 1.4-.3 2.2-.2-1.7 1.3-3.5 3.3-2.6 5.6.8 1.8 3 2.6 4.7 3 5.6 1.3 11.4 1.4 16.8 3.5a28 28 0 0 1 17.8 25c.4 5-.3 10.5-3.4 14.6Z"/>
  </mask>
  <path fill="#1A174F" d="M103.6 42.3a28.4 28.4 0 0 0-16.8-15.8c-2.9-1-5.8-1.5-8.8-2-2.6-.4-5.3-.6-7.8-1.3-2.2-.7-4.8-2.2-3.8-4.9a7.1 7.1 0 0 1 2.9-3.2v-.3a6 6 0 0 0-5 1.4c-1.4 1.2-2 3-1.8 4.9.2 1 .5 1.8 1 2.6l1 1c.6.6.4 1.3-.2 1.9-.7.7-1.9.8-2.6 1.6-.5.5-.6 1.4-.5 2.1.4 2 2.4 3 4.2 3.3 2 .5 4 .7 6.1 1.2 3.5.9 7.1 2.8 7.8 6.7.2 1.3 0 2.7-1 3.7-1.4 1.4-3.8 1-5.5.5l-7.5-2c-2.3-.4-4.7-.8-7-.5a5 5 0 0 0-3 1c-.6.3-1.2 1-.9 1.8.4.8 1.6 1 2.4 1.2 1.1.3 2.3.5 3.1 1.3A7 7 0 0 0 58 50a4 4 0 0 0-.4.7c-1.1 1-2 2.2-3.3 2.6-.1 0-.2.3 0 .4 1.2.6 2.6-.1 3-1.4l.6-1.4c.8-.6 1.7-1 2.8-1.2l.1.3c-.3 0-.7.2-1 .4-1 .5-1.7 1.2-2.4 2 0 0-.1.1 0 .2 1 1.5 3 2.4 4.8 2.5 2.3.2 4.6-.6 6.5-1.7l.1-.2-.8-1.9 1.3.7a59.5 59.5 0 0 0 7.4 3c.4.2 1 .2 1.3.6.5.6-.5 1.7-1 2-.4.7-1 1.1-1.6 1.7L72.1 63c-.8 1-1.8 1.9-2.6 3-.7.8-1.2 1.9-1.3 3a5 5 0 0 0 1.3 3.2c.8 1 1.7 2 2.4 3.1l.7 1.7a27.9 27.9 0 0 1-4.4 5 60.7 60.7 0 0 1-10.6 7.8c-1.8 1.2-3.9 2-6 2.2a17 17 0 0 1-7-1.6l-.8-.4a9.4 9.4 0 0 1-3.2-2.6l-.9-1.1-.1-.1-2-3c-.3-.6-.5-1.3-.6-2 0-.4.1-.5.6-.6.8-.1 1.4-.4 2.1-1l1.3 2a8 8 0 0 0 3.1 2.4c1.4.6 3 .6 4.5.4 1.5-.1 3.1-.2 4.7-.5 1-.2 2.3-.6 3-1.5.3-.4.6-1 .5-1.5 0-.5-.4-.8-.8-1 .4.2.8.4 1.3.3.6 0 1-.3 1.2-.9l-.1-.2-6-2.3-1.4-.5c-.2 0-.5-.1-.6-.3l-.2-.1-.1-.2-.1-.7v-3h.2c.8 0 1.5-.2 2.3-.4.5 0 1-.2 1.3-.3.7.3 1.2.7 2 .8.6.2 1.3 0 1.9-.4 1.4-.9 1.5-2.8.4-4-.1-.1-.4 0-.3.2.3.8.7 2 .2 2.7-.7.8-2 .5-2.7 0l-.2-.1c.1-.3.1-.5-.1-.8-.5-.6-1.4-1-2-1.2-1.5-.6-3-.7-4.5-.7-.8 0-1.7 0-2.3-.7-.8-.7-.6-1.7-.5-2.7l1-5.8c.3-1.4.8-3.2 0-4.6l-.3.1-.6 5c-.2 1.7-.3 3.5-.8 5-.4 1.3-1.3 2.6-.9 4l.2.3-.2-.1c-.6-.1-1.3 0-1.6.5-.3.7.1 1.4.6 1.8.7.6 1.8.8 2.7.7l.2-.1c.2-.9-.3-1.6-.8-2.2a4 4 0 0 1 2 1.4c.4.5.7 1.2 1.2 1.5h.2l-.5.2a4 4 0 0 0-2.3 2.4c-.3 1.1 0 2.5 1.1 3 .5 0 1-.1 1.4-.4.4-.3.8-1 1.4-1-.4 1-1.5 1.6-2.6 1.4-.7 0-1-.5-1.5-1-.3-.4-.7-.8-1.3-.8-1 0-1.7 1-2.4 1.6-.6.3-1.1.2-1.7.2-.5 0-1 .2-1 .7-.1.3 0 .6.1.9l-.8.2c-.7.2-2.4.7-2.6-.5v-1l-.1-1.2c-.5-2.5-1.2-5-2-7.4-.5-1.8-1.1-3.7-1.8-5.5-.6-1.9-1.4-3.8-1.4-5.8 0-1.7.8-3.3 1.8-4.5l.2-.2 2 1a7.5 7.5 0 0 0 8.3-1v-.3a4 4 0 0 0-.3-.8c.2.3.5.5.9.6 1 .4 2 0 2.3-1.1.3-1.3 0-2.8-.4-4-1-2.4-3.5-4-6.1-4-3.4 0-5.6 2.7-8.7 3.4 0-.6.6-1.1 1.1-1.4l1.6-1a22.7 22.7 0 0 0 6.6-7.4c1.2-2 2-4.2 2.7-6.5l1.8-7.2a49 49 0 0 0 10.7-4c3.5-1.7 6.5-4.1 9.7-6.4a49 49 0 0 1 12.9-7C73.8 7 70.3 9 67 11c-3.3 2.2-6.4 4.8-9.8 6.8a45.3 45.3 0 0 1-11.6 4.8l-1.1.3c1-3.7 2.6-7.5 5.8-9.7a46.5 46.5 0 0 1 9-4.4l5.4-1.4c1-.2 2-.3 2.8-.8l.2-.2v-.3a8 8 0 0 0-3.1.2A35.8 35.8 0 0 0 57.3 9a86 86 0 0 0-12 4.6 51.7 51.7 0 0 0-15.4 12 38.2 38.2 0 0 0-3.4 4.9c-3 2.3-5.8 5-8 8.2a21.3 21.3 0 0 0-1.5 21 44.3 44.3 0 0 0 11.5 14.9 32.8 32.8 0 0 0 6.1 5.2c.2.1.4-.1.3-.3l-6.2-5.2a28.4 28.4 0 0 1-5.5-8.7c-1-2.8-1.5-5.6-1.7-8.6a44.7 44.7 0 0 1 5.2-26.2A39.5 39.5 0 0 1 38.2 25c1.8-.6 3.6-1 5.5-1.4h.2c-1 4.1-1.7 8.5-3.8 12.4a24 24 0 0 1-8.1 9c-.8.4-2.1 1.1-1.7 2.2l.2.2c2.6-.6 4.5-2.6 7-3.3a6.4 6.4 0 0 1 8 6.9c0 .8-.4 1.5-1.4 1.4-.8 0-1.3-.6-1.8-1.2-.7-.9-1.2-1.7-2.2-2.3a5.2 5.2 0 0 0-6 .7L33 51.1c-1 .1-1.9.2-2.8-.1-.2 0-.4.2-.2.3.8.5 1.6.5 2.4.4-.4.3-.7.5-1.2.6-.1 0-.2.4 0 .4.4 0 .7.1 1 .3l-.3.3c-.7 1-1.4 2.2-1.6 3.5-.3 2.9.9 5.5 1.8 8.1a152 152 0 0 1 2 6.6c.6 2 1.3 4.2 1.5 6.3 0 .6-.2 1.4.4 1.9.7.4 1.8.1 2.6 0l.9-.4-1 .7c-.6.2-1.5.1-1.8.7v1.1c.2.8.6 1.4 1 2 .7 1.3 1.2 1.9 2 3l.3.4c1.1 1.3 1.5 2 3 3l1.2.5c2 .8 4.2 1.6 6.4 1.7 2.3 0 4.5-.6 6.4-1.7 2-1.1 3.8-2.5 5.6-3.8a66 66 0 0 0 5.3-4.1c1.6-1.5 3.2-3.1 4.5-5l.3-.3a8.9 8.9 0 0 1 0 4A68.7 68.7 0 0 0 62 90.8a88.6 88.6 0 0 0-17 26.5c-.4.8-.6 1.7-.9 2.6-.3 1-.6 2-1.3 2.7-.2.1.1.4.3.3.6-.6 1-1.6 1.2-2.4l1-3 1.7-3.8a96.9 96.9 0 0 1 12.3-19.3 71 71 0 0 1 13.2-12.3c-.6 2-1.7 3.9-3 5.6l1.3-1.3c1-1.4 1.7-3 2.2-4.7 2.2-1.5 4.6-3 7-4.2 2.3-1 4.6-1.7 7-2.4 4.4-1.3 8.9-2.4 12.7-5.4 3.8-3 5.6-7.7 6-12.5a32 32 0 0 0-2.1-15ZM63.8 6.9c1-.2 2.1-.5 3.2-.4h-.3l-1.5.5-5 1.2H60L63.9 7ZM24.3 35A42.9 42.9 0 0 0 21 54.2a27.1 27.1 0 0 0 5.6 18.1 43 43 0 0 1-8-10c-3.6-6.6-4.9-15-1-21.7a31.8 31.8 0 0 1 8.4-9.2c-.6 1-1.2 2.3-1.7 3.5Zm10.3-9c-2.6 1-5.1 2.5-7.4 4a35.9 35.9 0 0 1 9-10 48.8 48.8 0 0 1 16-8.8l2.6-1a52.2 52.2 0 0 0-6.6 4.3c-1.6 1.8-2.7 4-3.5 6.3L44 23c-3.2.8-6.4 1.5-9.5 2.8Zm-1.8 26.9a4 4 0 0 1 1-.8l.5-.2c-.1.5 0 1 .3 1.4l.7.8-2.5-1.2Zm6 1.3a3 3 0 0 1-2.8 0c-.6-.4-1.5-1.8-1.3-2.3 0 0 1.8-1.2 5-1.3.2 0 .4 0 .7.2.7.3 1.3.7 1.7 1.4l.3.6c0 .2-.2.2-.3.3l-1 .7c-.7.3-1.3.6-2 .7m-2.6-3.8c1.2-.4 1.5-.3 2.2-.2l-2.2.2Zm-2.6-.2a4.6 4.6 0 0 1 7-.4l.8 1a5 5 0 0 0-3-1c-1.6-.6-3.2.3-4.7.9h-.6l.5-.5Zm-2 2 1-.8 1-.4 1-.2h.1l-.5.4c-.8 0-1.6.6-2.1 1.3l-.6-.2Zm24.3 28.2c.3.5 0 1-.2 1.4-.7 1-2 1.4-3.2 1.5-1.5.3-3 .4-4.5.5-1.6.2-3.2.2-4.6-.6a9 9 0 0 1-3-2.9l-.8-1 .6-.6h.5l1.2.3 1.8.5c1 .3 2 .6 3 .6 1.8 0 3.5-.8 5.2-1.2l1.5-.1a5 5 0 0 1 1.6.9c.3.2.8.4 1 .8Zm-15-2c0-.2.2-.3.4-.3.8-.4 1.7-.4 2.5-.2l2 .4 2.7-.1a11 11 0 0 1 4 .3c-2 .2-3.7 1.1-5.5 1.2-1.2 0-2.4-.3-3.5-.6l-1.7-.5-1-.3Zm11.1-7.4-2.3.4v-.1c1-.6 2-.8 3-.5h.2l-.9.2ZM50 71c0-.5.2-1 .5-1.5.7-1 2-.5 2.8 0l1.2 1h-.2l-.6.3a4 4 0 0 0-1.1-.3 4 4 0 0 0-2.4.5H50Zm7.2.3h.4c-.6.4-1.5.5-2.3.2l-1-.4.5-.4c.7.5 1.5.9 2.4.7Zm-3-1.8.5.5v.2a7 7 0 0 0-2-1.5l1.5.8Zm-7.6-14.7v1.9l-.5 2.6c0 .6-.2 1.1-.3 1.7l.2-1.8.6-4.4Zm-1 16c-1 .1-2-.1-2.7-.9-.4-.6-.3-1.3.6-1.3l1 .1c.5.7 1.2 1.4 1 2.2Zm2.2-.2a4 4 0 0 0-1.5-1.6c-.5-.2-1-.5-1.6-.6-1-1.5.2-3 .6-4.4v.6c-.3 1.3-.2 2.5 1 3.1.7.3 1.3.4 2 .4a10.6 10.6 0 0 1 4.2.5H51c-1 .5-1.3 1.6-1.4 2.7a1 1 0 0 1-.7.3c-.5 0-.8-.6-1-1Zm0 6.3c-.8.4-1.6-.3-1.8-1-.2-.7 0-1.6.5-2.1.7-1.2 1.9-1.5 3.1-1.7v3.5c-.8 0-1.2 1-1.8 1.3Zm-8.1 1 .4-.1h1c1 0 1.5-.8 2.2-1.4.6-.5 1.1-.6 1.7 0l1.1 1.1c.8.4 1.7.4 2.5 0 .6-.2 1.1-.6 1.4-1.2.3.2.8.2 1 .4l7 2.6c-.2.5-.8.6-1.3.4l-1.4-.7c-.5-.3-1-.4-1.5-.4a9 9 0 0 0-2.2-.6c-1.8-.3-3.5.2-5.3 0-1.6 0-3.1-.8-4.7-.2l-1.2.8-.4.1-.4.1c-.2-.3-.3-.6 0-1v.1ZM57 52.1c-.4.9-1.2 1.6-2.2 1.4.9-.5 1.6-1.2 2.3-2l-.1.6Zm1.4-2V50c.5-.5 1.1-1 1.7-1.2l.4.5c-.7.2-1.5.4-2.1.8Zm2.5-.8-.4-.7c2.4-.8 4.7 0 6.2 1.8l-1.5-.6a9.8 9.8 0 0 0-4.4-.5Zm.2.5v-.2c1.2 0 2.6 0 3.8.4l2.4 1c.4.6.8 1.3 1 2.1-1.7 1-3.7 1.7-5.8 1.7a6 6 0 0 1-4.8-2.3 8 8 0 0 1 3.1-2.2M102 66.9c-3 4-8 5.8-12.6 7.2a72 72 0 0 0-6.6 2 36.4 36.4 0 0 0-9.7 5.3c.1-1 .2-2 0-3a9 9 0 0 0-1.7-4.2c-.8-1.1-1.9-2-2.5-3.3-.7-1.5-.3-3 .6-4.3.9-1.3 2-2.4 3.1-3.6a37 37 0 0 1 3.3-3.6c.6-.6 1.3-1.2 1.8-1.9.4-.4.9-1.2.6-1.8-.2-.5-.7-.6-1-.7a33 33 0 0 1-2.6-.8c-2.5-1-4.8-2.3-7.2-3.4a6.3 6.3 0 0 0-5.8-2.7c-.5 0-1 .2-1.5.4a4 4 0 0 0-.7-.7c-.8-.5-1.7-.6-2.6-.8-1-.2-3.1-.8-2-2 .8-.8 2-1.1 3-1.3a42.6 42.6 0 0 1 9.7 1c2 .6 4.1 1.4 6.3 1.8 1.4.2 2.9.3 4-.5 2-1.2 2-3.7 1.4-5.6-1-2.8-3.6-4.5-6.3-5.4-1.7-.5-3.5-.9-5.2-1.2-1.8-.3-4.1-.4-5.4-1.8a3 3 0 0 1-.8-2.6c.2-1 1.1-1.4 2-1.8.6-.3 1.3-.8 1.6-1.5.2-.7-.2-1.3-.7-1.8a5.5 5.5 0 0 1-1.5-5 5.2 5.2 0 0 1 3.5-3.8c.7-.2 1.4-.3 2.2-.2-1.7 1.3-3.5 3.3-2.6 5.6.8 1.8 3 2.6 4.7 3 5.6 1.3 11.4 1.4 16.8 3.5a28 28 0 0 1 17.8 25c.4 5-.3 10.5-3.4 14.6Z"/>
  <path fill="#1A174F" d="m103.6 42.3-.3.1.6-.1h-.3Zm-9.6-12-.2.3.2-.3Zm-7.2-3.8-.1.2v-.2Zm-8.8-2v-.3.3Zm-7.8-1.3-.1.2v-.2Zm-3.8-4.9H66h.3Zm2.9-3.2.2.3-.2-.3Zm0-.3v-.3.3Zm-5 1.4.2.2-.2-.2ZM62.5 21h-.3.3Zm1 2.6.3-.2-.2.2Zm1 1 .2-.3-.3.2Zm-.2 1.9.2.2-.2-.2Zm-2.6 1.6.3.2-.3-.2Zm-.5 2.1h.3-.3Zm4.2 3.3-.1.3v-.3Zm6.1 1.2.1-.3v.3Zm7.8 6.7h.3-.3Zm-1 3.7.3.2-.3-.2Zm-5.5.5-.1.3v-.3Zm-7.5-2v.3-.3Zm-7-.5v-.3.3Zm-3 1 .2.2-.2-.3Zm-.9 1.8-.2.1.2-.1Zm2.4 1.2V47v.3Zm3.1 1.3.2.3.4-.2-.3-.3-.3.2ZM58 50l-.2-.2.2.2Zm-.4.7.1.3h.1v-.2l-.2-.1Zm0 0 .1.3-.2-.2Zm-3.3 2.6-.1-.3v.3Zm0 .4v-.3.3Zm3-1.4-.2-.1h.2Zm.6-1.4-.2-.2v.1l.2.1Zm2.8-1.2.3-.1v-.2h-.3v.3Zm.1.3.1.2h.3v-.3h-.4Zm-1 .4-.1-.3.1.3Zm-2.4 2 .2.2-.2-.2Zm0 .2.2-.2-.3.2Zm4.8 2.5v-.3.3Zm6.5-1.7V53v.3Zm.1-.2.3-.1h-.3Zm-.8-1.9.1-.3-.9-.4.5.9.3-.2Zm1.3.7-.1.2.1-.2Zm4.2 2 .1-.3v.2Zm2 .7.2-.3-.1.3Zm1.2.4v-.3.3Zm1.3.5-.3.2.3-.2Zm-1 2 .3.3-.2-.2Zm-1.6 1.7.3.2-.3-.2ZM72.1 63l-.2-.2.2.2Zm-2.6 3 .3.1-.3-.2Zm0 6.2-.3.2.3-.2Zm2.4 3.1.2-.1-.2.1Zm.7 1.7v.3h.4l-.1-.4h-.3Zm0 0 .2.2-.3-.2Zm-4.4 5-.2-.3.2.2Zm-10.6 7.8.2.3-.2-.3Zm-6 2.2v-.3.3Zm-7-1.6-.1.2.1-.2Zm-.8-.4v-.2.2Zm0 0-.2.3h.1V90Zm-3.2-2.6-.2.2.2-.2Zm-.9-1.1-.2.1.2-.1Zm-.1-.1-.2.1v.1l.2-.2Zm-2-3 .3-.2-.3.1Zm-.6-2-.3.1h.3Zm.6-.6v.3-.3Zm2.1-1h.3l-.2-.3-.3.1.2.3Zm1.3 2 .2-.3-.2.2Zm3.1 2.4-.1.3.1-.3Zm4.5.4v.3-.3Zm4.7-.5v-.3.3Zm3-1.5-.3-.2.3.2Zm.5-1.5h.3-.3Zm-.8-1 .1-.3-.3.5.2-.3Zm1.3.3V80v.3Zm1.2-.9h.3-.3Zm-.1-.2.1-.3-.1.3Zm-6-2.3v.3-.3Zm-1.4-.5.1-.3v.3Zm-.6-.3-.2.3.2-.3Zm-.2-.1h-.3v.2l.3-.2Zm-.1-.2v-.3.3Zm0 0h-.4l.1.3h.2v-.3ZM50 75h.3-.3Zm0-3v-.2h-.2v.2h.3Zm.2 0v.4-.3Zm2.3-.4v.3-.3Zm1.3-.3.2-.3h-.2v.3Zm2 .8v-.3.3Zm1.9-.4.2.3-.2-.3Zm.4-4-.2.2.2-.2Zm-.3.2.3-.1-.3.1Zm.2 2.7.2.2-.2-.2Zm-2.7 0 .2-.3-.2.3Zm-.2-.1-.3-.2v.3l.2.1.1-.2Zm-.1-.8.2-.2-.2.2Zm-2-1.2-.2.3.1-.3Zm-4.5-.7v-.3.3Zm-2.3-.7-.2.2.2-.2Zm-.5-2.7.3.1h-.3Zm1-5.8h.3-.3Zm0-4.6.3-.1-.3.1Zm-.3.1H46h.3Zm-.6 5h-.3.3Zm-.8 5h-.3.3Zm-.9 4 .3-.2-.3.1Zm.2.3v.3h.6l-.4-.5-.2.2Zm-.2-.1V68v.3Zm-1.6.5-.3-.1.3.1Zm.6 1.8-.2.2.2-.2Zm2.7.7V71v.3Zm.2-.1h.2-.2Zm-.8-2.2v-.3l-.9-.3.6.8.3-.2Zm2 1.4-.2.1.3-.1Zm1.2 1.5-.1.3.1-.3Zm.2 0v.3l1-.3-1-.2v.2Zm-.5.2v-.3H48l.1.3Zm-2.3 2.4h-.3.3Zm1.1 3v.2-.3Zm2.8-1.5.2-.1v-.2h-.2v.3Zm0 .1.3.1V76l-.3.1Zm-2.6 1.4v.3-.3Zm-1.5-1-.2.2.2-.2Zm-1.3-.8v-.3.3ZM42 77.3l.1.2-.1-.2Zm-1.7.2v.3-.3Zm-1 .7.2.1h-.2Zm.1.9.1.3.3-.1-.1-.4-.3.2Zm-.8.2.1.3v-.3Zm-2.6-.5h.3-.3Zm0-1h-.3.3Zm-.1-1.2h.3-.3Zm-2-7.4h.3-.3ZM32 63.7l.3-.1-.3.1Zm-1.4-5.8h.3-.3Zm1.8-4.5-.2-.3.2.3Zm.2-.2.1-.3h-.3l.2.3Zm2 1-.2.2.1-.3Zm2.8.7v-.3.3Zm5.4-1.8.2.2-.2-.2Zm0-.2h-.2.2Zm-.2-.8.2-.2-.5.3h.3Zm.9.6v-.3.3Zm2.3-1.1h.3-.3Zm-.4-4-.3.2.3-.2Zm-6.1-4v.3-.3ZM30.6 47h-.3v.4h.4V47Zm1.1-1.4-.1-.3.1.3Zm1.6-1 .1.2-.1-.2Zm2.4-2.1-.2-.2.2.2Zm4.2-5.3.3.2-.3-.2Zm2.7-6.5h-.3.3Zm1.8-7.2v-.3H44v.2h.3Zm10.7-4v-.2.3Zm9.7-6.4.1.3-.1-.3ZM75 7.2V7v.2Zm2.8-.8v.2-.2Zm-.1-.4v.3V6ZM67 11.1V11l.1.2ZM57.2 18l-.2-.2.2.2Zm-11.6 4.8v.3-.3Zm-1.1.3h-.3v.4h.4l-.1-.4Zm0 0-.3-.1h.3Zm5.8-9.7-.2-.3.2.3Zm7.2-3.9-.1-.3v.3Zm1.8-.5.1.3V9Zm5.4-1.4v.3-.3Zm2.8-.8-.1-.3.1.3Zm.2-.2-.2-.2.2.2Zm0-.3-.1.3v-.3Zm-3.1.2v.3-.3ZM60 8v-.3.3Zm-2.7 1.2v.3h.1l-.1-.3Zm-4 1.3v.2-.2Zm-16 8.3v.2-.2Zm-7.4 7-.2-.3.2.2Zm-3.4 4.9.2.2-.2-.2Zm-8 8.2.2.1-.2-.1ZM17 59.7h-.3.3Zm11.5 14.9.2-.2-.2.2Zm2.7 2.6-.2.2.2-.2Zm3.4 2.6.2-.2-.2.2Zm.3-.3-.2.2.2-.2Zm-6.2-5.2-.2.2.2-.2Zm-5.5-8.7.3-.1h-.3ZM21.6 57h.3-.3Zm-.1-7.4h-.3.3ZM23.9 37l-.2-.1h.2Zm2.9-6.2-.2-.2.2.2Zm6.5-3.9.1.3-.1-.3Zm4.9-2v.4-.3Zm5.5-1.3v-.3.3Zm.2 0h.3l.2-.5-.5.1v.3ZM40.1 36l-.2-.2.2.2Zm-4.8 6.4L35 42l.2.3ZM32 44.9l-.2-.2.2.2Zm-1.7 2.3h.3-.3Zm.2.2v.3-.3Zm7-3.3.1.3V44Zm7.2 3 .3-.2-.3.2Zm.8 3.9h-.3.3Zm-1.4 1.4v.3-.3Zm-1.8-1.2-.2.2.2-.2ZM40 49l-.2.3.2-.3Zm-3-.6V48v.3Zm-3 1.3-.1-.2.2.2Zm-1 1.4v.3h.1v-.1l-.1-.2Zm-2.8-.1-.1.3V51Zm-.2.3-.1.3.1-.3Zm2.4.4.2.2.7-.6-1 .1v.3Zm-1.2.6v.3h.1v-.3Zm0 .4v-.3.3Zm1 .3.2.2.3-.4-.4-.1-.1.3Zm-.3.3-.2-.2.2.2Zm-1.6 3.5h.3-.3Zm1.8 8.1-.3.1h.3Zm2 6.6h.3-.3Zm1.5 6.3h-.3.3Zm.4 1.9.2-.3-.2.3Zm2.6 0-.1-.4v.3Zm.9-.4.3-.1-.1-.3-.3.1.1.3Zm0 0 .2.3.3-.2-.3-.2-.2.2Zm-1 .7-.2-.3.1.3Zm-1.8.7-.3-.1.3.1Zm0 1.1-.2.1h.3Zm1 2-.3.2.2-.2Zm2 3 .2-.2-.2.1Zm.3.4-.2.1.2-.1Zm3 3-.3.2.2-.3Zm1.2.5-.1.3v-.3Zm0 0 .1-.3h-.1v.3Zm6.4 1.7V92v.3Zm6.4-1.7-.1-.3.1.3Zm5.6-3.8-.2-.2.2.2Zm5.3-4.1-.2-.3.2.3Zm4.5-5h-.2.2Zm.3-.3.3-.1-.2-.6-.3.5.2.2Zm.2 2.2h-.3.3Zm-.2 1.8.1.3h.1v-.2h-.2ZM62 90.8l-.2-.2.2.2Zm-10.8 14.5-.3-.2.3.2Zm-4.3 7.8.3.2-.3-.2Zm-2 4.2h.4-.3Zm-2 5.3.1.2-.2-.2Zm.2.3.2.2-.2-.2Zm1.2-2.4-.3-.1h.3Zm1-3 .2.2-.2-.1Zm1.7-3.8-.2-.2.2.2Zm2.2-4.2.2.2-.2-.2Zm10.1-15 .3.1-.3-.2ZM72.5 82h.3l.2-.8-.7.5.2.3Zm-3 5.6-.2-.2.4.4-.2-.2Zm1.3-1.3.2.2-.2-.2Zm2.2-4.7-.2-.2h-.1v.2h.3Zm7-4.2.2.3-.1-.3Zm7-2.4-.2-.3.1.3Zm12.7-5.4-.2-.2.2.2Zm6-12.5h.4-.3Zm-2.1-15h.3-.6.3ZM63.8 7v-.2.5V7Zm3.2-.4v.2-.5.3Zm-.3 0 .1.3v-.3Zm-1.5.5.1.3V7Zm-5 1.2v.3-.3Zm-.2 0-.1-.2.2.5-.1-.2ZM63.9 7v.3-.6.3ZM24.3 35l.2-.3-.3-.3-.2.4.3.2Zm-3 12h.3-.3Zm-.3 7.3h-.3.3Zm.8 8h.3-.3Zm4.8 10-.2.3.4-.4-.2.2Zm-8-10 .3-.1-.3.1Zm-1-21.6-.3-.1.3.1Zm6.8-8 .2.3-.2-.3Zm1.6-1.2.3.1-.5-.4.2.3ZM24.3 35l-.2.2.3.3.2-.4-.3-.1Zm10.3-9v.3-.6.3Zm-7.4 4h-.3l.5.3-.2-.2Zm1.9-2.7-.2-.2.2.2Zm7-7.3.2.2-.2-.2Zm8-5.3.2.3-.2-.3Zm8-3.5v-.3.3Zm2.7-1 .1.3-.2-.5.1.3Zm-4 2.3-.2-.3.2.3Zm-2.6 2 .2.2-.2-.2Zm-3.5 6.3h.3-.3ZM44 23v.3h.2v-.2L44 23Zm-9.5 2.8v-.3.6-.3Zm-1.7 26.9-.3-.2-.3.3.4.2.2-.3Zm1-.8.2.2-.2-.2Zm.5-.2h.3v-.3h-.3v.3Zm.3 1.4-.3.1.3-.1Zm.7.8-.1.3.3-.5-.2.2Zm.7 0 .2-.2-.2.3Zm-1.3-2.2-.2-.2v.1l.2.1Zm5-1.3v-.3.3Zm.7.2-.2.3.2-.3ZM42 52l.3-.2-.3.2Zm0 1-.2-.3.2.2Zm-1 .6-.2-.3.2.3Zm-7.2-3.3-.3-.2.3.2Zm3.4-1.8v.3-.3Zm3.5 1.4.3-.2-.3.2Zm.9 1-.2.3.4-.4-.2.2Zm-3-1v.3-.3Zm-4.7.9v.2-.2Zm-.6 0-.2-.1-.5.6.8-.1-.1-.3Zm-1.6 1.6-.1-.3-.4.2.3.3.2-.2Zm1.1-1v-.2h-.2l.2.3Zm1-.3V51v.2Zm1-.2v-.3.3Zm.1 0 .2.3-.2-.6v.3Zm-.5.4v.3h.2l-.2-.3Zm-2.1 1.3-.1.2.2.1v.1l-.1-.2Zm-.6-.2-.2.2h.2v-.2Zm24.4 28.1.3-.1-.3-.5-.2.5.2.1ZM56 82l.2.2-.2-.2Zm-3.2 1.5v-.3.3Zm-4.5.5v-.3.3Zm-4.6-.6.1-.2-.1.2Zm-3-2.9.2-.2-.2.2Zm-.8-1-.2-.3-.2.2.2.2.2-.2Zm.6-.6v-.2h-.1l.1.2Zm1.7.3v.3-.3Zm1.8.5v-.3.3Zm3 .6V80v.3Zm5.2-1.2v.3-.3Zm1.5-.1v-.3.3Zm1.6.9-.1.2.1-.2Zm1 .8H56l.2.6.3-.5-.3-.1ZM41 78.5l-.1-.3-.2.1v.2h.3Zm.5-.2-.2-.3.2.3ZM44 78v.3-.3Zm2 .4v.3-.3Zm2.7-.1v.3-.3Zm4 .3v.3-.6.3Zm-5.5 1.2v-.3.3Zm-3.5-.6V79v.3Zm-1.7-.5v.3-.3Zm-1-.3h-.3v.3h.3v-.3Zm11.2-7.3v.3-.3Zm-2.3.4h-.3v.3h.3v-.3Zm0-.1v-.3h-.3v.3h.3Zm0 0-.1-.3.1.3Zm3-.5v.3-.3Zm.2 0v.3l.8-.2-.7-.4-.1.3ZM50 71h-.3v.8l.5-.5-.2-.3Zm.5-1.5.2.2-.2-.2Zm2.8 0 .2-.2-.2.2Zm1.2 1 .2.2.3-.2-.3-.3-.2.2Zm-.2 0-.2-.2.2.3Zm-.6.3v.3h.1v-.3Zm-1.1-.3v.3-.3Zm-2.4.5-.2-.3.2.3Zm7 .3-.1-.2h-.5l.4.5.2-.3Zm.4 0 .2.1-.3-.5v.3Zm-2.3.2-.1.3v-.3Zm-1-.4-.2-.3-.6.3.6.2.1-.2Zm.5-.4.2-.3-.2-.1-.2.2.2.2Zm2.4.7v.3l.6-.2-.4-.3-.2.2Zm-3-2-.2.3.2-.2Zm.5.6.3-.1h-.3Zm0 .2-.2.2.3.2.2-.3-.3-.1Zm-2-1.5v-.3l-.2.6.1-.3Zm-6.1-14h.3-.6.3Zm0 2h-.3.3Zm-.5 2.6h-.3.3Zm-.3 1.7h-.3.6-.3Zm.2-1.8h-.3.3ZM45.6 71v.3h.2V71h-.2Zm-2.7-1 .3-.2-.3.2Zm.6-1.3v-.3.3Zm1 .1.3-.1v-.1h-.2v.2Zm3.3 2h-.2v.2h.2v-.3ZM46.3 69l-.2.3.2-.3Zm-1.6-.6-.3.1.1.1h.1l.1-.2Zm.6-4.4h.3-.3Zm0 0h.3l-.6-.1h.3Zm0 .6h.2-.3Zm1 3.1.2-.2-.1.2Zm2 .4-.1.3v-.3Zm2.9.2v.3-.3Zm1.2.4v.2l.1-.5-.1.3Zm-1.4 0-.1-.3.1.3Zm-1.4 2.6.2.3.1-.1v-.2h-.3Zm-.7.3v-.3.3Zm-1-1 .2-.1v-.2h-.2v.3Zm-.1 6.3.2-.2-.1-.3-.3.2.2.3Zm-1.8-1h.3v-.1H46Zm.5-2.1.2.1-.2-.1Zm3.1-1.7h.3v-.4h-.3v.4Zm0 2h-.3.3Zm0 1.5v.3h.2v-.3h-.3Zm-1.8 1.3-.3.1.2.3.2-.2-.1-.2Zm-8.1 1-.3-.1.4.3-.1-.2Zm.4-.1v-.3.3Zm1 0v.3-.3Zm2.2-1.4-.2-.2.2.2Zm1.7 0 .3-.2-.3.2Zm1.1 1.1-.1.3.1-.3Zm2.5 0v.4-.3Zm1.4-1.2.1-.3-.3-.2-.1.3.3.2Zm1 .4v.2-.2Zm7 2.6.3.1.1-.3h-.3v.2Zm-1.3.4-.1.3v-.3Zm-1.4-.7v-.3.3Zm-1.5-.4-.1.3v-.3Zm-2.2-.6v.3-.3Zm-5.3 0v-.2.3Zm-4.7-.2-.1-.3.1.3Zm-1.2.8.1.2v-.2Zm-.4.1v.3-.3Zm-.4.1-.3.2.2.2h.2l-.1-.4Zm0-1 .3.2-.4-.4.2.3ZM57 52.2h.2-.2Zm-2.2 1.4-.1-.3-.8.4.8.1v-.2Zm2.3-2 .2.3-.2-.2Zm0 0 .3.1-.5-.3.3.2Zm1.3-1.4-.2-.3.3.5-.1-.2Zm0-.1.3.2-.2-.2Zm1.7-1.2.3-.2-.2-.2-.2.1.1.3Zm.4.5v.3h.5l-.2-.4-.3.1Zm.4 0 .2.2.1-.2v-.2l-.3.2Zm-.4-.7v-.3h-.7l.4.5.3-.2Zm0 0v-.3h-.1v.1l.1.2Zm6.2 1.8-.1.2.3-.4-.2.2Zm-1.5-.6v.3-.3Zm-4.4-.5-.2-.2-.6.6.9-.1v-.3Zm.2.3v-.3h-.3v.4h.3Zm3.9.4v-.3.3Zm2.4 1 .2-.2h-.1l-.1.2Zm1 2.1.2.3.2-.1V53l-.3.1Zm-5.8 1.7v-.3.3Zm-4.8-2.3-.2-.2-.2.2.1.2.3-.2Zm3.1-2.2h.3V50l-.4.1.1.3ZM102 66.8h.3V66l-.5.8.2.1ZM89.4 74v.2-.2Zm-6.6 2-.1-.2v.3Zm-7 3.5-.2-.3.2.3ZM73 81.3l-.3-.1-.2.7.6-.4-.1-.2Zm0-3h.3ZM71.5 74l-.2.2.2-.2ZM69 70.8l-.3.1.3-.1Zm.6-4.3.2.1-.2-.1Zm3.1-3.6-.2-.2.2.2Zm3.3-3.6-.2-.2.2.2Zm1.8-1.9.2.2-.2-.2Zm.6-1.8H78v.1l.3-.1ZM74.7 54l.1-.3v.3Zm-7.2-3.4-.3.2.2.1v-.3ZM61.7 48v-.3.3Zm-1.5.4-.2.2.1.2.2-.1v-.3Zm-.7-.7-.2.3.2-.3Zm-2.6-.8v-.3.3Zm-2-2 .3.1-.2-.2Zm3-1.3v.3-.3Zm3.1 0v.2-.3Zm6.5 1v-.2.3Zm6.4 1.8V46v.3Zm4-.5.2.3-.1-.3Zm1.4-5.6h.3-.3ZM73 35v-.3.3Zm-5.2-1.2v-.2.2ZM62.4 32l-.2.2.2-.2Zm-.8-2.6h.3-.3Zm2-1.8-.2-.3.2.3Zm1.6-1.5h-.3.3Zm-.7-1.8.2-.2-.2.2Zm2-8.8-.1-.3v.3Zm2.2-.2.2.2.6-.4-.8-.1v.3Zm-2.6 5.6-.3.1.3-.1Zm4.7 3v.3-.3Zm16.8 3.5.1-.3v.3Zm13 10.3.2-.2-.2.2Zm4.8 14.7h.3-.3ZM102 67h-.3v1l.6-.8-.3-.2Zm1.9-24.7c-2-5-5.5-9-9.8-12.1l-.3.5c4.1 3 7.6 7 9.5 11.8l.6-.2ZM94 30a26 26 0 0 0-7.2-4l-.2.7c2.6.8 4.8 2.1 7 3.8l.4-.5Zm-7-4c-2.9-.9-5.9-1.4-8.8-1.9l-.1.6c3 .5 5.9 1 8.7 2l.2-.6Zm-9-1.7c-2.7-.4-5.3-.6-7.9-1.3l-.1.5c2.6.7 5.3 1 7.9 1.4v-.6ZM70.3 23a6.7 6.7 0 0 1-3-1.6c-.3-.4-.6-.8-.7-1.2-.2-.5-.1-1 0-1.7l-.5-.2c-.2.8-.3 1.4-.1 2 .1.6.5 1.1.9 1.5.8.9 2 1.4 3.2 1.7l.2-.5Zm-3.6-4.5a6.8 6.8 0 0 1 2.8-3l-.4-.5a7.4 7.4 0 0 0-3 3.3l.6.2Zm2.8-3 .2-.5-.4-.4-.1.6a.1.1 0 0 1-.1-.1V15l.4.5Zm-.2-.9A6 6 0 0 0 64 16l.4.4c1.3-1.1 3-1.6 4.7-1.3v-.6ZM64 16a5.8 5.8 0 0 0-1.9 5.1h.6c-.2-1.8.4-3.5 1.7-4.7L64 16Zm-1.8 5a6 6 0 0 0 1.1 2.7l.5-.3a7 7 0 0 1-1-2.5l-.6.1Zm1.1 2.7 1 1 .4-.4c-.4-.3-.7-.6-.9-1l-.5.4Zm1 1c.2.3.3.6.2.8 0 .2-.1.5-.4.7l.4.5c.4-.3.6-.7.6-1.2 0-.4 0-.8-.4-1.2l-.5.4Zm-.2 1.5-1.2.8a4 4 0 0 0-1.4.9l.5.4c.3-.4.7-.6 1.1-.8.5-.2 1-.4 1.4-.8l-.4-.5ZM61.5 28c-.6.6-.7 1.6-.6 2.4l.6-.1c-.1-.7 0-1.4.5-2l-.5-.3Zm-.6 2.4c.5 2.2 2.6 3.1 4.4 3.5l.1-.6c-1.8-.4-3.5-1.2-3.9-3H61Zm4.4 3.5 3 .6 3.2.6.1-.6-3.1-.6-3-.6-.2.6Zm6.2 1.2c3.4.9 6.8 2.8 7.5 6.4h.6c-.7-4.1-4.5-6.1-8-7l-.1.6Zm7.5 6.4c.2 1.3 0 2.6-.9 3.4l.5.5c1-1 1.2-2.6 1-4l-.6.1ZM78 45c-.6.7-1.5 1-2.4 1-1 0-2-.3-2.8-.5l-.2.6c.9.2 2 .4 3 .4s2-.2 2.9-1L78 45Zm-5.2.5-7.5-2-.2.6 7.5 2 .2-.6Zm-7.5-2c-2.3-.4-4.7-.9-7.1-.5v.6a21 21 0 0 1 7 .5v-.6Zm-7.1-.5c-1 0-2.2.3-3.2 1l.4.5c.8-.6 1.8-.8 2.9-1l-.1-.5ZM55 44l-.9.9c-.2.4-.3.8 0 1.3l.5-.2c-.1-.3 0-.6 0-.8.2-.3.5-.6.8-.7L55 44Zm-1 2.2c.3.5.8.8 1.2 1l1.4.4.1-.6-1.2-.3c-.4-.2-.8-.4-.9-.7l-.5.2Zm2.6 1.4c1.2.3 2.3.4 3 1.2l.5-.4c-1-1-2.2-1.1-3.4-1.4v.6Zm3.1.8a5 5 0 0 0-2 1.5l.5.4c.4-.6 1-1 1.8-1.4l-.3-.5Zm-2 1.6-.5.7.6.2c0-.2.2-.4.4-.6l-.5-.3Zm-.3.5-.2.1.4.5-.2-.6Zm-.2.1-.7.8-.8.7a4 4 0 0 1-1.6 1l.2.6a5 5 0 0 0 1.8-1.2l.8-.7.7-.7-.4-.5Zm-3.1 2.6c-.2 0-.3.2-.3.3v.3l.2.2.3-.5v.2l-.2-.5Zm0 .8c1.4.7 2.9 0 3.4-1.5l-.5-.2c-.5 1.1-1.6 1.7-2.7 1.2l-.3.5Zm3.4-1.5c.2-.5.3-1 .6-1.3l-.6-.3-.5 1.4.5.2Zm.5-1.2a6 6 0 0 1 2.7-1.2l-.1-.6a6 6 0 0 0-3 1.3l.4.5Zm2.3-1.4.1.2.6-.1v-.3l-.7.2Zm.3-.1a7 7 0 0 0-1 .4l.2.5 1-.4-.2-.5Zm-1 .4a10 10 0 0 0-2.6 2l.5.5c.7-.8 1.5-1.5 2.4-2l-.3-.5Zm-2.5 2-.2.3v.4l.6-.4v.1l-.4-.3Zm-.1.7a7 7 0 0 0 5.1 2.6v-.6c-1.8-.1-3.5-1-4.6-2.4l-.5.4Zm5.1 2.6a12 12 0 0 0 6.7-1.8l-.3-.5a12 12 0 0 1-6.3 1.7v.6Zm6.7-1.8.2-.2V53l-.6.1.1-.1.3.5Zm.2-.5-.8-2-.6.4c.4.5.7 1.1.8 1.8l.6-.2Zm-1-1.6 1.3.6.3-.5L68 51l-.2.6Zm1.3.6c1.4.7 2.7 1.4 4.2 2l.2-.5-4.1-2-.3.5Zm4.2 2 2 .8.2-.6-2-.7-.2.5Zm2 .8 1.2.3.2-.5-1.1-.4-.2.6Zm1.2.3.4.1.3.1c.2 0 .4.2.4.3l.5-.4c-.2-.3-.5-.4-.7-.5H77l-.3-.1-.2.5Zm1.1.5.1.3c0 .1 0 .3-.2.5l-.8.9.5.4.8-1 .3-.7c0-.3 0-.6-.2-.8l-.5.4Zm-.8 1.7-.9.8-.8.8.5.4.8-.8.8-.8-.4-.4ZM75.2 59 72 62.8l.5.4 3.3-3.7-.5-.4ZM72 62.8l-2.6 3 .5.3 2.6-3-.5-.3Zm-2.6 3c-.7.9-1.3 2-1.4 3.3h.6c0-1.1.6-2 1.3-3l-.5-.3ZM67.9 69a6 6 0 0 0 1.3 3.3l.5-.4a4.7 4.7 0 0 1-1.2-3H68Zm1.3 3.3 1.3 1.5 1.1 1.5.5-.2c-.3-.7-.7-1.2-1.1-1.7-.5-.5-1-1-1.3-1.5l-.5.4Zm2.4 3 .7 1.6.6-.1-.8-1.7-.5.2Zm1 1.3h-.2l-.2.2.6.3h-.2v-.5Zm-.3.2a27.6 27.6 0 0 1-4.3 4.8l.4.4c1.6-1.4 3.1-3 4.4-5l-.5-.2ZM68 81.7a60.4 60.4 0 0 1-5 4.1l.3.5a61 61 0 0 0 5.1-4.2l-.4-.4Zm-5 4.1-2.8 2 .4.4 2.7-1.9-.4-.5Zm-2.8 2a44 44 0 0 1-2.7 1.8l.3.5 2.8-1.9-.4-.4Zm-2.7 1.8a13 13 0 0 1-6 2v.7c2.3-.1 4.4-1 6.3-2.2l-.3-.5Zm-6 2a15 15 0 0 1-6.8-1.5l-.2.5c2.2 1 4.6 1.8 7 1.7v-.6Zm-6.8-1.5-.4-.2-.4-.1-.2.5.4.2.4.1.2-.5Zm-1 0v-.4.6-.3Zm.1-.3a9.1 9.1 0 0 1-3-2.6l-.4.4c.9 1 1.9 2 3.2 2.7l.2-.5Zm-3-2.6L40 86l-.5.3.9 1.2.4-.4ZM40 86l-.2-.2-.4.5.6-.3Zm-.1-.1-2-3-.5.3 2 3 .5-.3Zm-2-3c-.3-.5-.5-1.2-.6-1.7h-.6c0 .7.4 1.4.7 2l.5-.3Zm-.6-1.7V81l.1-.1h.2v-.7a1 1 0 0 0-.7.3c-.2.2-.2.4-.2.7h.6Zm.3-.4c1-.2 1.6-.4 2.3-1l-.4-.5a5 5 0 0 1-2 1l.1.5Zm1.9-1 1.3 1.8.4-.4-1.2-1.8-.5.3Zm1.3 1.8c.8 1 1.9 2 3.2 2.6l.2-.5a7.7 7.7 0 0 1-3-2.5l-.4.4Zm3.2 2.6a9 9 0 0 0 4.6.4V84c-1.5.2-3 .2-4.4-.3l-.2.5Zm4.6.4c1.6-.1 3.2-.2 4.7-.5v-.6c-1.6.3-3.2.4-4.7.5v.6Zm4.7-.5c1.1-.2 2.4-.6 3.2-1.6l-.5-.4c-.6.9-1.7 1.2-2.8 1.4l.1.6Zm3.2-1.6c.4-.4.7-1 .6-1.7h-.6c0 .5-.2 1-.5 1.3l.5.4Zm.6-1.7c-.1-.7-.6-1-1-1.3l-.3.5c.4.2.6.5.7.9l.6-.1Zm-1.3-.8c.5.2 1 .5 1.5.4V80l-1.2-.3-.3.5Zm1.5.4c.7 0 1.3-.4 1.5-1.1l-.6-.1c0 .4-.4.6-.9.6v.6Zm1.5-1.1V79l-.3-.2-.3.5h.6Zm-.3-.6-3-1.1-3-1.2-.2.6 3 1.1 3 1.2.2-.6Zm-6-2.3-.7-.2-.7-.3-.2.6a47.5 47.5 0 0 0 1.4.5l.2-.6Zm-1.4-.5-.3-.1-.3-.1-.3.5.4.2h.3l.2-.5Zm-.6-.2a5 5 0 0 1 0-.1l-.5.4.2.2.3-.5Zm0 .1c0-.2 0-.4-.3-.5l-.2.6v-.1h-.1.6Zm-.4-.2v-.3.6-.3Zm.2-.1V75h-.6v.8l.6-.2Zm0-.6a164.5 164.5 0 0 0 0-3h-.5v1.5l-.1 1.5h.6Zm-.2-2.6v-.6.6Zm.1 0a38 38 0 0 0 2.4-.5l-.2-.6-2.3.5.1.5Zm2.4-.5 1.3-.3-.1-.6-1.4.3.2.6Zm1.1-.3.5.2.4.2 1 .4.2-.6-1-.3-.4-.2-.4-.3-.3.6Zm2 .8a3 3 0 0 0 2.2-.4l-.4-.5c-.5.3-1.1.4-1.7.3l-.2.6Zm2.2-.4a3 3 0 0 0 .4-4.5l-.4.4c1 1.1.9 2.8-.4 3.6l.4.5Zm.4-4.5c-.1-.2-.4-.1-.6 0l-.2.2v.3l.6-.2v.1h-.2l.4-.4Zm-.8.5c.2.4.4.9.4 1.3s0 .8-.2 1.1l.5.4c.4-.5.4-1 .3-1.6 0-.5-.2-1-.4-1.4l-.6.2Zm.2 2.4c-.2.3-.6.4-1 .4s-.9-.2-1.2-.5l-.4.5c.4.3 1 .5 1.6.6.5 0 1.1-.1 1.5-.6l-.5-.4Zm-2.3 0v-.1l-.2-.1-.2.5.2.1.2-.5Zm0 .2V70a1 1 0 0 0-.2-.6l-.4.4v.4l.6.3Zm-.2-1.1c-.3-.4-.6-.6-1-.8l-1.2-.5-.2.6 1.1.4c.3.2.7.4.9.7l.4-.4Zm-2.1-1.3a12 12 0 0 0-4.6-.7v.6c1.5 0 3 .1 4.3.7l.3-.6Zm-4.6-.7c-.8 0-1.6 0-2.1-.6l-.4.5c.7.6 1.7.7 2.5.7v-.6Zm-2.1-.6c-.4-.3-.5-.6-.5-1l.1-1.4-.6-.1-.1 1.5c0 .5.2 1 .7 1.4l.4-.4Zm-.4-2.4 1-5.8-.6-.1-1 5.8.6.1Zm1-5.8c.1-.7.4-1.6.4-2.4A4 4 0 0 0 47 54l-.5.3c.3.6.4 1.3.3 2 0 .9-.2 1.6-.4 2.4h.6Zm0-4.8a.5.5 0 0 0-.6-.2c-.1 0-.3.2-.3.4h.6v.1h-.2l.5-.3Zm-1 .2-.5 5h.6l.6-5H46Zm-.5 5c-.2 1.7-.3 3.4-.8 5l.6.2c.5-1.7.6-3.5.8-5.2h-.6Zm-.8 5-.3.9-.4 1c-.3.6-.4 1.4-.1 2.1l.5-.2c-.2-.5 0-1.1.1-1.7l.4-1 .4-1-.6-.1Zm-.8 4 .1.4.5-.3v-.3l-.6.2Zm.4 0h-.1l-.2.5a1 1 0 0 1 .1 0h.2V68Zm-.2-.1h-1c-.3.1-.7.3-.9.7l.6.3c0-.2.2-.3.5-.4h.7l.1-.6Zm-1.9.7c-.2.4-.1.9 0 1.2l.7 1 .4-.5-.5-.7a.9.9 0 0 1 0-.7l-.6-.3Zm.7 2.1c.8.7 2 1 3 .8l-.2-.6a3 3 0 0 1-2.4-.6l-.4.4Zm2.9.8c.2 0 .4-.1.4-.3l-.5-.2v.6Zm.5-.4c.3-1-.4-1.8-.9-2.4l-.5.4c.6.7 1 1.2.8 1.9l.6.1Zm-1.2-2c.8.4 1.5.7 2 1.3l.4-.3a4.2 4.2 0 0 0-2.2-1.5l-.2.6Zm2 1.3.2.4.2.5.8.8.3-.6c-.2 0-.4-.3-.6-.6l-.2-.4-.3-.4-.5.3Zm1.2 1.7h.2l.2-.5h-.1l-.3.5Zm.2-.5h-.3l-.2.1.2.6h.2l.3-.2-.2-.5Zm-.5.1a4.5 4.5 0 0 0-2.5 2.7l.6.1c.3-1 1.1-1.8 2.1-2.2l-.2-.6Zm-2.5 2.7c-.2.5-.2 1.2 0 1.8a2 2 0 0 0 1.4 1.4l.1-.6c-.5-.1-.8-.5-1-1v-1.5l-.5-.1Zm1.4 3.2c.6.2 1.1 0 1.6-.4l-.4-.5c-.3.3-.7.4-1 .3l-.2.6Zm1.6-.4.3-.3.3-.3.6-.4v-.6c-.4 0-.7.3-1 .5l-.3.4-.3.2.4.5Zm1-1.1.5-.2v-.1l-.6.3Zm0-.2c-.4.9-1.4 1.4-2.4 1.2v.6c1.1.2 2.5-.4 3-1.6l-.6-.2ZM47 77.2c-.5 0-.8-.4-1.3-.9l-.4.4c.4.5.9 1 1.6 1.1l.1-.6Zm-1.3-.9c-.3-.4-.8-.9-1.4-.9v.6c.3 0 .6.3 1 .7l.4-.4Zm-1.5-.9c-.6 0-1 .3-1.5.7l-.6.5-.5.4.3.5.6-.5.6-.5c.4-.3.7-.5 1.1-.5v-.6ZM41.7 77l-.7.2h-.4a6 6 0 0 0-.5 0v.6h.9c.4 0 .7 0 1-.3l-.3-.5Zm-1.6.2c-.5 0-1 .3-1.2 1l.5.1c.1-.3.4-.4.8-.5v-.6Zm-1.2 1c-.1.4 0 .7.2 1l.5-.3-.2-.6-.5-.1Zm.3.6-.4.1-.4.1.2.6.4-.1.4-.1-.2-.6Zm-.8.2c-.3.1-.9.3-1.4.3a1 1 0 0 1-.5-.1l-.3-.4h-.6c.1.5.3.7.6 1l.8.1c.6 0 1.2-.2 1.6-.3l-.2-.6Zm-2.2-.2v-1.1h-.6V79l.6-.1Zm0-1-.1-1.2h-.6l.1 1.2h.6Zm-.1-1.3c-.5-2.5-1.3-5-2-7.4l-.6.2c.8 2.4 1.5 4.9 2 7.4l.6-.2Zm-2-7.4c-.6-1.8-1.1-3.7-1.8-5.5l-.5.2 1.7 5.5.6-.2Zm-1.8-5.5c-.7-2-1.4-3.7-1.4-5.7h-.6c0 2 .8 4 1.5 5.9l.5-.2ZM31 57.9c0-1.6.7-3.1 1.8-4.4l-.5-.3a7.4 7.4 0 0 0-1.9 4.7h.6Zm1.7-4.3.1-.1.1-.1-.4-.4h-.1v.1l.3.5Zm-.1-.1 2 .9.2-.5-2-1-.2.6Zm2 .9c.9.4 1.8.8 2.9.8v-.6c-1 0-1.8-.3-2.7-.8l-.3.6Zm2.9.8c2 .2 4-.6 5.6-1.9l-.4-.4a7.2 7.2 0 0 1-5.2 1.7v.6Zm5.6-2c.1 0 .2-.2.1-.4l-.5.2v-.1l.4.4Zm.1-.4c0-.3-.1-.6-.3-.8l-.5.2.3.8.5-.2Zm-.7-.5c.2.3.6.5 1 .7l.2-.6c-.3 0-.6-.3-.8-.5l-.4.4Zm1 .7c.6.2 1.2.2 1.7 0a2 2 0 0 0 1-1.4l-.6-.1c0 .5-.4.8-.7 1h-1.2l-.2.5Zm2.7-1.4c.3-1.3 0-2.8-.5-4l-.5.2c.5 1.1.7 2.5.4 3.7l.6.1Zm-.5-4a7 7 0 0 0-6.3-4.3v.6c2.5 0 4.8 1.5 5.8 3.9l.5-.3Zm-6.3-4.3c-1.8 0-3.2.7-4.6 1.4-1.4.8-2.7 1.7-4.2 2l.2.6c1.6-.4 3-1.3 4.3-2a8.2 8.2 0 0 1 4.3-1.4v-.6ZM30.9 47c0-.2 0-.4.3-.6l.7-.6-.3-.5-.9.7c-.2.2-.5.6-.4 1h.6Zm1-1.2 1.5-1-.3-.5-1.5 1 .3.5Zm1.5-1a23 23 0 0 0 2.6-2l-.5-.5a16 16 0 0 1-2.4 2l.3.5Zm2.5-2c1.7-1.6 3.1-3.5 4.3-5.4l-.6-.3a24 24 0 0 1-4 5.2l.3.4Zm4.3-5.4c1.2-2 2-4.3 2.7-6.6l-.6-.2c-.6 2.3-1.5 4.5-2.7 6.5l.6.3Zm2.7-6.6.9-3.6c.3-1.3.5-2.5.9-3.7l-.6-.1-.9 3.6-.9 3.6.6.2Zm1.6-7a54 54 0 0 0 10.8-4l-.3-.5c-3.4 1.7-7 3-10.7 3.9l.2.6Zm10.8-4c3.4-1.8 6.5-4.2 9.6-6.4l-.3-.5c-3.2 2.2-6.2 4.6-9.6 6.4l.3.5Zm9.6-6.4a50 50 0 0 1 10.2-5.9L75 7a49.3 49.3 0 0 0-10.3 5.9l.3.5Zm10.2-5.9 2.8-.9-.2-.5c-1 .2-1.9.5-2.8.9l.2.5Zm2.8-.9a.5.5 0 0 0 .3-.5c0-.2-.1-.3-.2-.3a.3.3 0 0 0-.4 0l.2.5h-.1c0-.1-.1-.1 0-.2l.2.5Zm-.3-.9A37 37 0 0 0 66.9 11l.3.5c3.3-2.2 6.8-4 10.6-5.1l-.2-.6ZM66.9 11c-1.7 1-3.3 2.3-5 3.4a80.3 80.3 0 0 1-4.9 3.4l.3.5c1.8-1 3.4-2.2 5-3.4l4.9-3.4-.3-.5ZM57 17.7a45 45 0 0 1-11.5 4.7l.2.6c4-1.1 8-2.6 11.6-4.8l-.3-.5Zm-11.5 4.7-.5.2-.6.1.2.6.5-.1.6-.2-.2-.6Zm-1 .6h.3-.6.3Zm.3 0c1-3.6 2.5-7.3 5.7-9.5L50 13c-3.3 2.3-4.9 6.2-5.9 9.9l.6.2Zm5.7-9.5c2.2-1.5 4.6-2.7 7-3.8l-.2-.6c-2.5 1.2-5 2.4-7.2 4l.4.4Zm7-3.8 2-.5-.2-.6-2 .5.2.6Zm2-.5 5.3-1.4-.1-.6-5.4 1.4.1.6Zm5.3-1.4.7-.1.7-.2a5 5 0 0 0 1.5-.6l-.3-.5a3 3 0 0 1-1.3.5l-.7.2-.7.1v.6Zm2.8-.8.4-.4-.5-.3-.1.1.2.6Zm.4-.4c.1-.1 0-.3 0-.4 0-.1-.1-.3-.3-.3l-.1.6h-.1v-.2l.5.3Zm-.3-.7a7 7 0 0 0-3.2.3l.1.5c1-.2 2-.4 3-.2l.1-.6Zm-3.2.3c-1.6.3-3 .9-4.6 1.4l.3.6a38 38 0 0 1 4.4-1.5l-.1-.5Zm-4.6 1.4-2.7 1.2.2.5 2.8-1.1-.3-.6Zm-2.7 1.2-4 1.3.2.5 4-1.2-.2-.6Zm-4 1.3a68 68 0 0 0-8 3.3l.3.6c2.5-1.3 5.2-2.4 7.9-3.4l-.2-.5Zm-8 3.3a52 52 0 0 0-8.2 5l.4.5c2.5-1.9 5.2-3.5 8-5l-.2-.5Zm-8.2 5c-2.7 2-5.2 4.4-7.3 7l.5.4c2-2.6 4.5-4.9 7.2-6.9l-.4-.5Zm-7.3 7a38.4 38.4 0 0 0-3.4 5l.5.3c1-1.7 2.1-3.3 3.4-4.9l-.5-.4Zm-3.3 5a38 38 0 0 0-8.2 8.2l.5.3c2.2-3 5-5.8 8-8l-.3-.6Zm-8.2 8.2a21.6 21.6 0 0 0-1.4 21.2l.5-.3A21 21 0 0 1 18.7 39l-.5-.3Zm-1.4 21.2c2.5 6 6.9 10.7 11.6 15l.4-.5a44 44 0 0 1-11.5-14.8l-.5.3Zm11.6 15c.8.9 1.7 1.8 2.7 2.6l.4-.5c-1-.8-1.9-1.6-2.7-2.5l-.4.4Zm2.7 2.6c1 1 2.2 1.8 3.5 2.7l.3-.5a33 33 0 0 1-3.4-2.7l-.4.5Zm3.5 2.6c.2.2.5 0 .6 0l.1-.4c0-.1 0-.2-.2-.3l-.3.5v-.2h.1l-.3.4Zm.5-.7a162 162 0 0 1-6-5.2l-.5.4c2 1.8 4.1 3.6 6.2 5.2l.3-.4Zm-6-5.2a28.1 28.1 0 0 1-5.5-8.6l-.6.2c1.3 3.2 3.3 6.2 5.6 8.8l.5-.4Zm-5.5-8.6c-1-2.8-1.5-5.6-1.7-8.5h-.6c.2 3 .6 5.9 1.7 8.7l.6-.2ZM21.9 57a61 61 0 0 1-.1-7.4h-.6v7.5h.7Zm-.1-7.4c.2-4.2 1-8.5 2.4-12.5l-.5-.2a45 45 0 0 0-2.5 12.7h.6Zm2.4-12.5C25 35 26 32.9 27.1 31l-.6-.3c-1.1 2-2 4-2.8 6.2l.5.2Zm2.8-6c2-1.5 4.2-2.8 6.4-4l-.2-.5a39.8 39.8 0 0 0-6.6 4l.4.5Zm6.4-4a41 41 0 0 1 4.9-1.8l-.2-.6c-1.7.5-3.3 1.2-5 2l.3.5Zm4.9-1.8c1.8-.6 3.6-1 5.5-1.4l-.2-.6c-1.8.5-3.7.8-5.5 1.4l.2.6Zm5.4-1.4h.3l-.1-.7h-.2v.7Zm0-.5c-1.2 4.3-1.8 8.6-3.8 12.4l.5.3c2.1-4 2.7-8.3 3.8-12.5l-.5-.2Zm-3.8 12.4a23.7 23.7 0 0 1-4.8 6.3l.4.5c2-1.9 3.6-4 4.9-6.5l-.5-.3ZM35 42.2c-1 .9-2.1 1.7-3.3 2.5l.3.5a22 22 0 0 0 3.4-2.6L35 42Zm-3.3 2.5c-.3.2-1 .5-1.3 1a2 2 0 0 0-.5.7v1l.6-.3v-.5l.3-.6 1.2-.8-.3-.5ZM30 47.3a.5.5 0 0 0 .6.4l-.1-.6-.5.2Zm.6.4a12 12 0 0 0 3.6-1.7c1.2-.6 2.2-1.3 3.4-1.6l-.1-.6c-1.3.4-2.5 1-3.6 1.7s-2.2 1.3-3.4 1.6v.6Zm7-3.3c2.7-.7 5.5.5 6.9 2.8l.5-.3a6.7 6.7 0 0 0-7.5-3.1l.1.6Zm6.9 2.8a6 6 0 0 1 .7 3.7h.6c.2-1.3-.1-2.8-.8-4l-.5.3Zm.7 3.7c0 .4-.1.8-.3 1-.1.2-.4.3-.8.2v.6c.6.1 1 0 1.3-.5.3-.3.4-.8.4-1.2h-.6Zm-1 1.2c-.7 0-1.2-.5-1.7-1l-.4.3c.4.6 1 1.2 2 1.3v-.6Zm-1.7-1c-.6-1-1.2-1.9-2.3-2.5l-.3.6c1 .5 1.5 1.3 2.2 2.2l.4-.4Zm-2.3-2.4c-1-.6-2-.8-3-.7v.6c1 0 1.9.1 2.7.6l.3-.5Zm-3.1-.7a5 5 0 0 0-3.1 1.4l.4.5c.7-.8 1.7-1.2 2.8-1.3L37 48ZM34 49.4 32.7 51l.5.4 1.2-1.5-.4-.4Zm-1 1.4a6 6 0 0 1-2.8-.1l-.1.6c1 .3 2 .2 2.9.1v-.6Zm-2.7-.1h-.4l-.2.3c-.1.1-.1.4.2.6l.3-.5v.1H30l.2-.5Zm-.4.9c.8.5 1.7.5 2.5.4v-.6c-.8.1-1.5 0-2.2-.4l-.3.6Zm2.3-.1c-.3.3-.7.5-1 .6l.1.5c.5 0 1-.3 1.3-.7l-.4-.4Zm-1 .6c-.3 0-.4.2-.4.4s.1.4.4.5v-.6h.2v.1l-.1.1-.1-.5Zm0 .9.9.2.2-.5-1-.3-.1.6Zm.8-.2-.2.1v.2l.4.4.1-.2.1-.1-.4-.4Zm-.3.3c-.8 1-1.5 2.3-1.7 3.7h.6c.2-1.2.8-2.3 1.6-3.3l-.5-.4ZM30 56.8c-.2 1.5 0 2.9.4 4.2l1.4 4 .6-.2-1.4-4a10 10 0 0 1-.4-4H30Zm1.8 8.2 2 6.6.6-.1-2-6.7-.6.2Zm2 6.6c.6 2 1.3 4.1 1.5 6.2h.6c-.2-2.2-1-4.4-1.5-6.3l-.6.1Zm1.5 6.2v1c0 .4.1.8.6 1.1l.3-.5c-.2-.1-.3-.4-.3-.6v-1h-.6Zm.6 2.1c.4.3 1 .3 1.4.3.5 0 1-.2 1.3-.3l-.1-.6-1.2.3c-.5 0-.8 0-1-.2l-.4.5Zm2.7 0c.4 0 .7-.2 1-.3l-.2-.6-1 .3.2.6Zm.9-.6-.3.1a.6.6 0 0 0 .1.2l.4-.4-.2.1Zm-.1-.2-1 .6.1.6c.5-.2.9-.4 1.2-.7l-.3-.5Zm-1 .6-.5.1-.5.1c-.3.1-.8.2-1 .7l.6.2.5-.3h.5l.5-.2-.2-.6Zm-2 .9v1.3l.7-.1-.2-.6v-.4l-.5-.2Zm0 1.3c.3.8.6 1.5 1 2l.5-.2c-.4-.6-.7-1.2-.8-2l-.6.2Zm1 2.1 2 3 .5-.4-2-3-.5.4Zm2 3 .4.3.4-.3-.3-.4-.4.3Zm.4.4c1 1.2 1.5 2 3 3l.3-.5c-1.4-1-1.8-1.6-2.9-3l-.4.5Zm3 3c.4.3.8.4 1.3.6l.2-.6-1.2-.5-.4.5Zm1.4.3v.3-.6.3Zm-.1.3c2 .8 4.2 1.6 6.5 1.7V92a19 19 0 0 1-6.3-1.7l-.2.6Zm6.5 1.7c2.4 0 4.6-.7 6.6-1.8l-.3-.5c-2 1-4 1.8-6.3 1.7v.6Zm6.6-1.8c2-1 3.8-2.4 5.6-3.7l-.4-.5a66 66 0 0 1-5.5 3.7l.3.5Zm5.6-3.7c1.8-1.3 3.6-2.7 5.3-4.2l-.4-.5a65.7 65.7 0 0 1-5.3 4.2l.4.5ZM68 83c1.6-1.5 3.2-3.1 4.5-5l-.4-.3a30.8 30.8 0 0 1-4.5 4.8l.4.5Zm4.5-5a9 9 0 0 0 .3-.3l-.4-.4-.2.2-.1.2.4.4Zm-.2-.5c.2.7.2 1.4.2 2.1h.6c0-.7 0-1.5-.2-2.2l-.6.1Zm.2 2.1c0 .7 0 1.3-.2 1.9l.6.1.2-2h-.6Zm-.1 1.7a69 69 0 0 0-10.7 9.3l.5.5a66 66 0 0 1 10.5-9.3l-.3-.5Zm-10.7 9.3A89 89 0 0 0 51 105.1l.5.4c3.2-5.2 6.8-10 10.9-14.4l-.5-.5ZM51 105.1c-1.5 2.6-3 5.2-4.3 7.9l.6.3c1.3-2.7 2.7-5.3 4.2-7.8l-.5-.4Zm-4.3 7.9-1.9 4.1.6.3c.5-1.4 1.2-2.8 1.9-4.1l-.6-.3Zm-1.9 4.1-.9 2.7.6.2c.3-.9.5-1.8.9-2.6l-.6-.3Zm-.9 2.7-.4 1.4a3 3 0 0 1-.8 1.2l.4.4c.4-.3.7-.8.9-1.3l.5-1.5-.6-.2Zm-1.2 2.6s-.2.2-.1.3l.1.3c.1.2.4.3.7 0l-.4-.4h.1v.2l-.4-.4Zm.7.7c.4-.3.6-.8.8-1.2l.5-1.3-.6-.2c0 .4-.2.8-.4 1.2a3 3 0 0 1-.7 1l.4.5Zm1.3-2.5.5-1.5.4-1.4-.5-.2-.5 1.4-.5 1.5.6.2Zm1-3c.4-1.2 1-2.5 1.7-3.8l-.5-.3c-.6 1.3-1.3 2.6-1.8 4l.5.2Zm1.7-3.8 2.1-4.1-.5-.3-2.1 4.1.5.3Zm2.1-4.1a90.7 90.7 0 0 1 10.2-15l-.5-.5c-4 4.8-7.4 9.8-10.2 15.2l.5.3Zm10.2-15c3.8-4.7 8.2-9 13-12.4l-.3-.5a73.8 73.8 0 0 0-13.2 12.4l.5.4ZM72.2 82c-.5 2-1.7 3.8-3 5.5l.5.3c1.3-1.6 2.5-3.6 3.1-5.7l-.6-.1Zm-2.5 5.9 1.3-1.3-.4-.4-1.3 1.3.4.4Zm1.4-1.3c1-1.5 1.7-3 2.2-4.8l-.6-.1c-.4 1.6-1.2 3.1-2.1 4.5l.5.4Zm2-4.6c2.3-1.6 4.6-3 7-4.2l-.2-.6a48 48 0 0 0-7.1 4.3l.3.5Zm7-4.2c2.3-1 4.6-1.7 6.9-2.4l-.2-.6c-2.3.7-4.6 1.4-6.9 2.4l.3.6Zm6.9-2.4c4.5-1.3 9-2.5 12.8-5.4l-.3-.5c-3.7 2.9-8.2 4-12.7 5.3l.2.6ZM99.8 70c4-3.1 5.8-8 6.3-12.8h-.6a17 17 0 0 1-6 12.3l.3.5Zm6.3-12.8c.4-5-.4-10.4-2.2-15l-.6.2c1.9 4.6 2.6 9.9 2.2 14.8h.6Zm-2.8-15h.6-.6Zm-39.4-35c1-.2 2-.5 3-.4l.1-.6c-1-.1-2.3.2-3.2.5l.1.5Zm3-1h-.3l.2.6h.3l-.2-.6Zm-.3 0-1.5.5.2.6 1.5-.5-.2-.5Zm-1.4.5L60 7.9l.2.6 5-1.2-.1-.6Zm-5 1.2H60v.6a.8.8 0 0 0 .2 0v-.6Zm-.1.6c1.3-.5 2.5-1 3.8-1.3l-.1-.5c-1.4.3-2.6.8-4 1.3l.3.5Zm3.8-1.9v.6-.6ZM24 34.7c-1.6 3.9-2.6 8-3 12.2h.6c.4-4 1.4-8.1 3-12l-.6-.2ZM21 47c-.3 2.4-.4 4.8-.3 7.3h.6c0-2.5 0-4.9.3-7.3H21Zm-.3 7.3c0 2.7.2 5.4.8 8.1l.6-.1c-.6-2.6-.8-5.4-.8-8h-.6Zm.8 8.1c.9 3.7 2.6 7.1 4.9 10.2l.4-.4c-2.2-3-3.8-6.3-4.7-10l-.6.2Zm5.3 9.8c-3-3-5.8-6.3-8-10l-.4.3c2 3.8 4.9 7 8 10.1l.4-.4Zm-8-10c-3.5-6.5-4.7-14.7-1-21.3l-.5-.3c-3.9 6.9-2.6 15.3 1 21.9l.6-.3Zm-1-21.3c1.7-3 4.2-5.7 6.8-8l-.4-.4c-2.6 2.3-5.1 5-6.9 8.1l.5.3Zm6.8-8 1.6-1.2-.4-.5-1.6 1.3.4.5Zm1.1-1.6a38 38 0 0 0-1.7 3.6l.6.2c.5-1.2 1-2.4 1.7-3.5l-.6-.3Zm-1.2 3.5-.4.4.4-.4Zm10-9.1a38.9 38.9 0 0 0-7.5 4.1l.4.5c2.2-1.6 4.7-3 7.3-4l-.3-.6Zm-7 4.5c.5-1 1.2-1.9 1.8-2.8l-.5-.3-1.9 2.8.6.3Zm1.8-2.8c2-2.6 4.4-5 7-7.2l-.4-.4a41 41 0 0 0-7 7.3l.4.3Zm7-7.2c2.5-2 5.1-3.7 8-5.2l-.3-.5a49.1 49.1 0 0 0-8 5.3l.3.4Zm8-5.2a67 67 0 0 1 8-3.5l-.3-.6c-2.7 1-5.4 2.2-8 3.6l.3.5Zm8-3.5a84 84 0 0 1 2.6-1l-.2-.5-2.7.9.2.6Zm2.4-1.5-4 2.2.3.6a52 52 0 0 1 4-2.3l-.3-.5Zm-4 2.2c-1 .6-2 1.2-2.7 2l.5.5c.6-.8 1.6-1.4 2.5-2l-.4-.5Zm-2.7 2a18.9 18.9 0 0 0-3.6 6.5l.6.2c.8-2.3 1.9-4.5 3.4-6.2l-.4-.4Zm-3.6 6.5-.7 2.4.6.2.7-2.4-.6-.2Zm-.5 2.2c-3.2.8-6.4 1.5-9.5 2.8l.3.6c3-1.3 6.1-2 9.3-2.8l-.1-.6Zm-9.4 3.4v-.6.6ZM33 53l1-.8-.3-.5-1.2.9.5.4Zm1-.8h.3v-.7l-.6.2.3.5Zm0-.5c-.1.6.1 1.2.3 1.6l.6-.3c-.2-.3-.4-.8-.3-1.1l-.6-.2Zm.3 1.6.8 1 .4-.5c-.3-.3-.5-.5-.6-.8l-.6.3Zm1 .4a20 20 0 0 1-1.2-.6l-1.2-.6-.3.6 1.3.6 1.3.6.2-.6Zm3.4.1c-.8.4-1.7.4-2.5 0l-.3.5c1 .5 2.1.6 3 0l-.2-.5Zm-2.5 0c-.3-.1-.6-.5-1-1l-.2-.6V52l-.6-.3v.7l.4.7c.3.5.7 1 1.1 1.2l.3-.5Zm-1.5-2 .2.3a3 3 0 0 1 .3-.2l1-.4c.7-.3 2-.7 3.5-.7v-.6a11.5 11.5 0 0 0-5.2 1.4l.2.2Zm4.9-1c.2 0 .4 0 .6.2l.3-.6a4 4 0 0 0-.8-.2l-.1.6Zm.6.2c.7.2 1.3.7 1.6 1.2l.5-.3a4 4 0 0 0-1.8-1.5l-.3.6Zm1.6 1.2.1.2a3 3 0 0 1 .1.2h.7l-.2-.4-.1-.3-.6.3Zm.3.5H42l-.1.1.3.5h.1l.2-.2.2-.4H42Zm-.2.1a2 2 0 0 1-1 .6l.3.6 1-.7-.3-.5Zm-1 .6c-.6.3-1.2.6-1.9.7l.1.6c.8-.2 1.5-.4 2-.7l-.2-.6ZM36.6 51l1.2-.3h.9v-.5h-1a5 5 0 0 0-1.3.2l.2.6Zm-2.5-.3c.8-1 1.9-1.6 3.2-1.7v-.6c-1.5.1-2.7.8-3.7 1.9l.5.4Zm3.2-1.7c1.2 0 2.5.4 3.3 1.3l.5-.4a5 5 0 0 0-3.8-1.5v.6Zm3.3 1.3.8 1 .5-.3-.8-1.1-.5.4Zm1.3.6c-.9-.7-2-1-3.1-1.1v.6c1 0 2 .4 2.7 1l.4-.5Zm-3-1.1a5 5 0 0 0-2.7 0l-2.4.9.3.5 2.3-.8c.8-.2 1.5-.3 2.3 0l.2-.6Zm-5 .9h-.6l.2.7.5-.2-.1-.5Zm-.3.6.5-.6-.5-.4-.4.6.4.4ZM32 52.7c.5-.2 1-.6 1.2-1l-.4-.3-1 .8.2.5Zm1-.8 1.1-.4-.1-.5c-.4 0-.7.2-1 .3v.6Zm1.1-.4h.5l.5-.2-.1-.6-.5.1-.5.2.1.5Zm1-.2v-.6.6Zm-.1-.6-.7.5.5.4.5-.3-.3-.6Zm-.4.4c-1 0-1.8.7-2.4 1.4l.5.4c.6-.7 1.2-1.2 1.9-1.2v-.6Zm-2 1.3-.6-.2-.1.6.5.1.2-.5Zm-.5-.1-.4.4.4-.4Zm24 28.5v.5l-.3.6.5.3.4-.8v-1l-.6.4Zm-.2 1c-.4.5-.8.8-1.4 1-.5.2-1.1.4-1.7.4l.1.6c.6 0 1.2-.2 1.9-.4.6-.3 1.1-.6 1.5-1.2l-.4-.3Zm-3 1.4c-1.5.3-3 .4-4.5.5v.6l4.5-.5v-.6Zm-4.5.5a8 8 0 0 1-4.5-.5l-.3.5a8 8 0 0 0 4.8.6v-.6Zm-4.5-.5a8.7 8.7 0 0 1-2.9-2.9l-.5.4a9.3 9.3 0 0 0 3.1 3l.3-.5ZM41 80.3a24 24 0 0 1-.7-1l-.5.3.7 1 .5-.3Zm-.8-.6.6-.5-.4-.5-.6.5.4.5Zm.5-.5h.4v-.6h-.6l.2.6Zm.4 0 .5.1.6.2.2-.6c-.2 0-.4 0-.6-.2l-.7-.1v.6Zm1.1.3 1 .3.8.2.2-.6-1-.2-.8-.3-.2.6Zm1.8.5c1 .3 2 .6 3 .6V80c-.9 0-1.8-.3-2.8-.6l-.2.6Zm3 .6c1 0 2-.2 2.8-.5l2.6-.7-.1-.6-2.7.7c-.8.3-1.7.5-2.5.5v.6Zm5.4-1.2a5 5 0 0 1 1.4-.1v-.6l-1.5.1v.6Zm1.3-.1 1.6.8.3-.5a9 9 0 0 0-1.7-.9l-.2.6Zm1.6.8.5.3.3.4.5-.3-.5-.5-.5-.4-.3.5Zm1.3.7-.5-.3.5.3Zm-15.2-2 .2-.2h.2l-.3-.6-.2.1-.2.1.3.6Zm.4-.3c.7-.3 1.5-.3 2.4 0l.1-.7a4 4 0 0 0-2.8.2l.3.5Zm2.4 0 2 .3v-.6c-.6 0-1.2-.2-1.9-.4l-.1.6Zm2 .3 2.7-.1V78c-1 0-1.8.2-2.7.1v.6Zm2.7-.1a12 12 0 0 1 3.8.3l.2-.6c-1.3-.4-2.7-.4-4-.3v.6Zm3.9-.3c-1 0-2 .4-2.8.7-.9.2-1.8.5-2.7.5v.6c1 0 2-.3 2.9-.6.9-.2 1.7-.5 2.6-.6v-.6Zm-5.5 1.2c-1.1 0-2.2-.3-3.4-.6l-.1.6c1.1.3 2.3.7 3.6.6v-.6Zm-3.4-.6-.8-.2-.8-.3-.2.6a84.6 84.6 0 0 1 1.7.5l.1-.6Zm-1.6-.5-.5-.1-.5-.2-.1.6.4.1.5.2.2-.6Zm-.8 0h-.6.6ZM52.2 71l-2.2.4v.6l2.4-.4-.2-.6Zm-1.9.7v-.1h-.6v.1h.6Zm-.3-.1v.3h.1l.1-.1-.4-.4a.2.2 0 0 1 .2-.1v.3Zm.2.2c.8-.5 1.8-.7 2.8-.4l.1-.6a4 4 0 0 0-3.2.5l.3.5Zm2.9-.4a.2.2 0 0 1-.1 0l.3-.6H53v.6Zm0-.6h-.4l-.5.2.2.6.4-.1.4-.1-.1-.6Zm-2.8.4c0-.6.2-1 .4-1.4l-.5-.4c-.3.6-.4 1.2-.5 1.7h.6Zm.4-1.4c.3-.4.7-.5 1.1-.5.5 0 1 .3 1.4.6l.3-.5c-.4-.3-1-.6-1.6-.7-.6 0-1.2.1-1.7.7l.5.4Zm2.5 0 1.1 1 .4-.5-1.2-1-.3.6Zm1.1.5-.2.1.3.6.3-.2-.4-.5Zm-.2.1-.5.3.2.5.6-.2-.3-.6Zm-.2.3-1.3-.4v.6l1 .3.3-.5Zm-1.3-.4a4 4 0 0 0-2.6.5l.3.5c.7-.3 1.5-.5 2.2-.4l.1-.6Zm-2.6.5-.2.1.4.5a1.5 1.5 0 0 1 .1 0l-.3-.6Zm7.2 1 .5-.2-.2-.6-.4.2.1.5Zm.2-.7a2 2 0 0 1-2 .2l-.2.6c.8.3 1.8.2 2.6-.4l-.4-.4Zm-2 .2c-.4 0-.7-.2-1-.4l-.3.5 1 .5.3-.6Zm-1 .1c.2 0 .4-.2.6-.4l-.4-.4-.5.3.2.5Zm.2-.4c.8.5 1.6 1 2.6.8V71c-.9.1-1.5-.2-2.2-.7l-.4.5Zm2.8.3-.4.4.4-.4ZM54 69.7a2.5 2.5 0 0 1 .4.3l.6-.1a1 1 0 0 0-.3-.4 3 3 0 0 0-.4-.3l-.3.5Zm.4.3s0 .1 0 0l.6.3V70l-.6.1Zm.5 0a8.9 8.9 0 0 0-2.2-1.6l-.2.6c.7.3 1.3.9 2 1.4l.4-.5Zm-2.4-1 1.5.7.3-.5-1.6-.8-.2.6Zm-6.2-14.1v1.8h.6v-2l-.6.2Zm0 1.8-.5 2.6.6.1.5-2.7h-.6Zm-.5 2.6-.1.8-.2.8.6.1.2-.8.1-.8-.6-.1Zm.3 1.7.1-.9.1-.8h-.6v.8l-.2.8h.6Zm.2-1.7.6-4.5h-.6l-.6 4.4h.6Zm-.8 11.3c-.9 0-1.8-.2-2.3-.9l-.5.4c.7.9 1.9 1.1 2.9 1v-.5Zm-2.3-.9c-.2-.2-.2-.4-.2-.6 0-.1.2-.2.5-.2v-.6c-.6 0-1 .2-1 .6-.2.4 0 .8.2 1.2l.5-.4Zm.3-.8 1 .1.1-.6c-.3 0-.7-.2-1.2-.1v.6Zm.8 0 .7 1c.2.3.3.6.3 1h.5c.1-.5 0-1-.3-1.3l-.7-1-.5.3Zm3.8 1.6a4 4 0 0 0-1.7-1.7l-.3.5c.7.3 1.1.8 1.5 1.5l.5-.3Zm-1.7-1.7-1.6-.7-.2.6c.6.1 1 .3 1.5.6l.3-.5Zm-1.4-.6c-.5-.6-.4-1.3-.2-2 0-.3.2-.6.4-1l.4-1.2-.6-.1c0 .3-.2.7-.4 1l-.4 1.2c-.2.8-.3 1.6.2 2.4l.6-.3Zm.3-4.2h.3-.6.3Zm-.3-.1v.7h.5l.1-.6-.6-.1Zm0 .7a3 3 0 0 0 0 1.9c.1.6.5 1.1 1.3 1.5l.2-.5c-.5-.3-.8-.7-1-1.2a4 4 0 0 1 0-1.7H45Zm1.3 3.4c.6.3 1.3.4 1.9.4v-.6c-.6 0-1.2 0-1.7-.3l-.2.5Zm1.9.4c1 0 2 0 3 .2V68c-1-.2-2-.2-3-.2v.6Zm3 .2 1.1.3.2-.5a11 11 0 0 0-1.2-.4l-.2.6Zm1.3-.2c-.5-.2-1-.2-1.6 0l.2.6c.4-.2.8-.2 1.2 0l.2-.6Zm-1.6 0a2 2 0 0 0-1.2 1.2 5 5 0 0 0-.4 1.7h.6c0-.5.1-1 .3-1.4.2-.5.5-.8 1-1l-.3-.5Zm-1.4 2.7-.6.2v.6l1-.3-.4-.5Zm-.6.2-.4-.3-.4-.5-.5.3.4.6c.2.2.5.5.8.5v-.6Zm-1-1v.6-.6Zm-.3 6.3c-.3.2-.5.1-.8 0l-.5-.8-.6.2c.1.4.4.8.8 1 .4.3 1 .4 1.4.1l-.3-.5Zm-1.3-.8c-.2-.6 0-1.3.4-1.9l-.5-.3c-.4.6-.7 1.5-.5 2.4l.6-.2Zm.4-1.9c.7-1 1.7-1.4 3-1.6l-.1-.5c-1.3.2-2.5.5-3.4 1.8l.5.3Zm2.6-1.8v.5h.6V72h-.6Zm0 .5v1.5h.6v-1.5h-.6Zm0 1.6v1.4h.5v-1.4h-.5Zm.2 1a2 2 0 0 0-1.1.7l-.2.2a10.1 10.1 0 0 1-.6.5l.3.5c.2 0 .4-.2.5-.3l.2-.2.2-.2c.3-.3.5-.5.8-.5l-.1-.6ZM48 76.9l-.5.2.5-.2ZM39.8 78h.4l-.1-.6h-.3s-.2 0-.3.2l.3.4Zm.4 0h.8v-.6h-.9v.6Zm.9 0c.5 0 1-.3 1.3-.6l.6-.4.5-.5-.4-.4-.5.4-.5.4a2 2 0 0 1-1 .5v.6Zm2.4-1.5c.2-.2.5-.3.7-.3.2 0 .4 0 .6.3l.4-.4c-.3-.3-.7-.5-1-.5a2 2 0 0 0-1.1.5l.4.4Zm1.3 0 .5.6.7.6.3-.6a2 2 0 0 1-.5-.4l-.5-.6-.5.4Zm1.2 1.2c.8.4 1.8.4 2.7 0l-.3-.5c-.7.3-1.5.3-2.1 0l-.3.5Zm2.7 0a3 3 0 0 0 1.5-1.4l-.5-.3a2 2 0 0 1-1.3 1.2l.3.6Zm1.1-1.3.6.3.5.1.3-.5-.6-.2-.5-.2-.3.5Zm1.1.4 7 2.7.2-.6-7-2.6-.2.5Zm6.8 2.3-.3.3h-.6l-.2.5h1c.2 0 .6-.2.7-.6l-.6-.2Zm-1 .2-.6-.3-.7-.4-.3.5.7.4.8.4.2-.6Zm-1.3-.7c-.5-.2-1-.4-1.6-.4v.6c.4 0 .9.1 1.3.3l.3-.5Zm-1.5-.4c-.8-.3-1.5-.5-2.3-.6v.6a9 9 0 0 1 2 .6l.3-.6Zm-2.3-.6h-2.7c-.9 0-1.7.2-2.6 0v.7l2.7-.1h2.5l.1-.6Zm-5.3 0h-1.1l-1.2-.3c-.8-.2-1.6-.2-2.5.1l.2.6c.7-.3 1.4-.3 2.2-.1l1.2.2 1.2.2v-.6Zm-4.8-.2-1.3.8.4.5a5 5 0 0 1 1.1-.7l-.2-.6Zm-1.2.8-.4.1.2.6.4-.2-.2-.5Zm-.4.1a4.8 4.8 0 0 0-.4.1l.2.6h.2l.2-.1-.2-.6Zm0 .3a1 1 0 0 1-.2-.4l.1-.2-.3-.5a1 1 0 0 0-.4.8l.2.6.6-.3Zm-.5-1 .5.3-.5-.3ZM56.7 52c-.3.8-1 1.3-1.8 1.2l-.2.5c1.2.3 2.1-.5 2.5-1.5l-.5-.2Zm-1.8 1.7c1-.4 1.7-1.2 2.4-2l-.4-.3c-.7.7-1.4 1.4-2.2 1.8l.2.5Zm2.4-2-.4-.4.4.5Zm-.4-.3-.1.3-.1.3.5.2.1-.3.1-.3-.5-.2Zm1.5-1.3.2.2v-.1l-.3-.4h-.1l.2.3Zm.3 0c.4-.4 1-.8 1.6-1l-.3-.6c-.6.3-1.3.7-1.7 1.3l.4.4Zm1.2-1.1.3.5.6-.3a4 4 0 0 0-.4-.6l-.5.4Zm.5 0c-.7.2-1.5.4-2.2.8l.3.5 2-.7V49Zm.7.1c0-.2-.2-.4-.4-.6l-.5.3.4.6.5-.3Zm-.6-.2h.2l-.4-.5h.1v.5Zm.1 0c2.2-.8 4.4 0 5.9 1.7l.4-.4a6 6 0 0 0-6.5-1.9l.2.6Zm6.2 1.2-1.5-.6-.2.6 1.5.5.2-.5Zm-1.5-.6c-1.4-.5-3-.7-4.5-.5v.6c1.5-.2 3 0 4.3.5l.2-.6Zm-4.2 0-.5-.4.5.4Zm0 .3h.3a6 6 0 0 1 0-.2l-.7.1a2 2 0 0 0 .1.2h.3Zm0 .1c1.2 0 2.5 0 3.7.4l.1-.6c-1.2-.4-2.6-.5-3.9-.4v.6Zm3.7.4 2.3 1 .3-.6-2.5-1-.1.6Zm2.2.9c.5.6.8 1.3 1 2l.7-.2c-.3-.8-.7-1.5-1.2-2.2l-.5.4Zm1.2 1.7c-1.7 1-3.7 1.6-5.7 1.6v.6a12 12 0 0 0 6-1.7l-.3-.5Zm-5.7 1.6a6 6 0 0 1-4.6-2.2l-.5.4a6.6 6.6 0 0 0 5.1 2.4v-.6ZM58 52.7c.9-.9 1.9-1.7 3-2.1l-.2-.6a8.7 8.7 0 0 0-3.2 2.3l.4.4Zm2.6-2.4h.6-.6Zm41.3 16.4c-3 4-7.8 5.6-12.5 7l.2.5c4.6-1.3 9.7-3 12.8-7.2l-.5-.3Zm-12.5 7a117 117 0 0 0-6.6 2l.2.6a72 72 0 0 1 6.6-2l-.2-.6Zm-6.6 2c-2.5 1-4.8 2.1-7 3.5l.2.5c2.3-1.3 4.5-2.5 7-3.4l-.2-.5Zm-7 3.5-3 1.8.3.5a58 58 0 0 1 2.7-1.8l-.3-.5Zm-2.3 2.1c.1-1 .2-2 0-3H73c.1 1 0 2-.1 2.9l.6.1Zm0-3a8.5 8.5 0 0 0-1.7-4.4l-.5.4a8.6 8.6 0 0 1 1.7 4h.6Zm-1.7-4.4-1.4-1.6-1.1-1.6-.6.2c.4.7.8 1.3 1.3 1.8l1.3 1.6.5-.4Zm-2.5-3.2c-.7-1.4-.3-2.8.5-4l-.4-.4c-1 1.4-1.5 3-.7 4.6l.6-.2Zm.5-4 3.1-3.6-.4-.4c-1 1.1-2.2 2.3-3.1 3.6l.4.3Zm3.1-3.6 3.3-3.6-.4-.4a37 37 0 0 0-3.3 3.6l.4.4Zm3.3-3.6c.6-.6 1.3-1.2 1.8-1.9l-.4-.4-1.8 1.9.4.4Zm1.8-1.9c.2-.2.5-.5.6-1 .2-.3.3-.7 0-1.1l-.5.2v.7l-.5.8.4.4Zm.7-2.1c-.1-.3-.4-.5-.6-.7l-.7-.2-.2.6c.3 0 .4 0 .6.2.2 0 .3.2.3.3l.6-.2Zm-1.3-1c-.8-.1-1.7-.4-2.5-.7l-.2.6 2.5.8.2-.6Zm-2.5-.7c-2.5-1-4.7-2.2-7.2-3.4l-.2.6c2.3 1 4.7 2.4 7.2 3.4l.2-.6Zm-7-3.3a6.6 6.6 0 0 0-6.1-2.8v.6a6 6 0 0 1 5.5 2.6l.5-.4Zm-6.1-2.8c-.5 0-1 .2-1.6.4l.2.6 1.5-.4-.1-.6Zm-1.3.5-.8-.7-.3.5.7.6.4-.4Zm-.8-.7c-.8-.5-1.8-.7-2.6-.9l-.2.6c1 .2 1.8.3 2.5.8l.3-.5Zm-2.6-.9c-.5 0-1.2-.3-1.7-.6l-.4-.4s0-.3.3-.6l-.4-.4c-.4.4-.5.8-.5 1.1.1.4.4.7.7.8.5.4 1.4.6 1.8.7l.2-.6ZM55.2 45a3 3 0 0 1 1.2-.7l1.5-.4-.1-.6-1.6.4c-.5.2-1 .5-1.4 1l.4.3Zm2.7-1c1-.3 2-.3 3.1-.2v-.6l-3.2.1.1.6Zm3.1-.2c2.2.2 4.3.7 6.4 1.2l.2-.6c-2.1-.5-4.3-1-6.5-1.2v.6Zm6.4 1.2c1.1.2 2.1.5 3.2.9l3.3.8V46l-3.1-.8-3.2-1-.2.7Zm6.5 1.7c1.3.2 3 .3 4.2-.5l-.3-.5c-1 .6-2.5.6-3.8.4l-.1.6Zm4.2-.5c1-.7 1.6-1.7 1.8-2.7.2-1.1 0-2.3-.3-3.3l-.6.2c.3 1 .5 2 .3 3-.2.9-.6 1.7-1.5 2.3l.3.5Zm1.5-6c-1-3-3.7-4.7-6.5-5.6l-.2.6c2.7.9 5.2 2.5 6.1 5.2l.6-.2Zm-6.5-5.6c-1.8-.5-3.6-.8-5.3-1.1v.5c1.7.3 3.4.6 5 1.2l.3-.6Zm-5.3-1.1c-.9-.2-1.9-.3-2.8-.6a5 5 0 0 1-2.4-1.2l-.4.4a6 6 0 0 0 2.6 1.4c1 .3 2 .4 3 .5v-.5Zm-5.2-1.8c-.6-.6-.9-1.5-.7-2.3l-.6-.1c-.2 1 .2 2 .9 2.8l.4-.4Zm-.7-2.3c0-.4.3-.7.6-1l1.2-.6-.3-.6-1.2.8c-.4.3-.8.7-1 1.3h.7Zm1.8-1.6c.7-.3 1.4-.8 1.7-1.7L65 26c-.2.6-.8 1-1.5 1.3l.3.6Zm1.7-1.7c.2-.4.2-.8 0-1.2l-.7-.9-.4.5.5.7c.1.2.2.4 0 .7l.6.2Zm-.7-2a5.2 5.2 0 0 1-1.5-4.8l-.5-.1c-.4 2 .2 3.9 1.6 5.3l.4-.5Zm-1.5-4.8c.4-1.7 1.7-3 3.4-3.6l-.2-.6a5.5 5.5 0 0 0-3.7 4l.5.2Zm3.4-3.6c.6-.2 1.4-.3 2-.2l.1-.6c-.8-.1-1.6 0-2.3.2l.2.6Zm2-.8c-1 .7-1.9 1.6-2.5 2.6-.6 1-.8 2.2-.3 3.4l.6-.2c-.5-1-.3-2 .3-3 .5-.8 1.3-1.6 2.2-2.3l-.4-.5Zm-2.8 6c.4 1 1.2 1.7 2.1 2.2 1 .5 2 .8 2.9 1v-.6c-.8-.2-1.8-.5-2.6-1-.8-.4-1.5-1-1.8-1.8l-.6.2Zm5 3.2c2.8.6 5.6 1 8.4 1.4 2.9.5 5.7 1 8.3 2l.2-.5c-2.7-1-5.5-1.6-8.4-2L71 23.4l-.1.6Zm16.7 3.4a28 28 0 0 1 12.8 10.3l.5-.4a28.3 28.3 0 0 0-13-10.4l-.3.5Zm12.8 10.3c3 4.2 4.4 9.4 4.8 14.6h.6a30 30 0 0 0-4.9-15l-.5.4Zm4.8 14.6a21 21 0 0 1-3.3 14.3l.5.4a22 22 0 0 0 3.4-14.8h-.6Zm-2.8 14.5h-.6.6Z" mask="url(#a)"/>
</svg>