<svg xmlns="http://www.w3.org/2000/svg" width="127" height="125" fill="none">
  <path fill="#CFE5DC" fill-rule="evenodd" d="M53.7 47.6c2.6-.5 7.8-4 11.6-12.4C69 27 65.6 20 61 20.7c-2.9.4-7.2 3-10.1 4.4-9.3 4.6-5.4 24.1 2.7 22.5Z" clip-rule="evenodd"/>
  <path fill="#FCC" fill-rule="evenodd" d="M34.8 70.7c0 3.6 2.5 10 3.6 14.9.8 3.4 2 6.8 4.4 8.7a12.8 12.8 0 0 0 15 .8c4.4-2.6 6.2-5.8 5.6-11-.4-4.5-2-8.9-6.9-11.4-5.3-2.8-7.9-4-12-8.6-4.9-5.5-10-.1-9.7 6.6Z" clip-rule="evenodd"/>
  <path fill="#F99" d="M19 36.1h-3.1V40h3v-3.8Zm13.1-.1H29v3.7h3v-3.8Zm13.5 0h-3.1v3.7h3v-3.8ZM5.2 52H2v4h3.2v-4Zm13.4 0h-3.1v4h3.1v-4Zm13.5 0H29v4h3v-4Zm13.5 0h-3.1v4h3v-4ZM59 52h-3v4h3v-4ZM5.2 68.2H2V72h3.2v-3.8Zm13.4 0h-3.1V72h3.1v-3.8Zm13.5 0H29V72h3v-3.8Zm13.5 0h-3.1V72h3v-3.8Zm13.4 0h-3V72h3v-3.8ZM5.2 84.3H2v3.8h3.2v-3.8Zm13.4 0h-3.1v3.8h3.1v-3.8Zm13.5 0H29v3.8h3v-3.8Zm13.5 0h-3.1v3.8h3v-3.8Zm13.4 0h-3v3.8h3v-3.8Zm-40.4 16.2h-3.1v3.8h3.1v-3.8Zm13.5 0H29v3.8h3v-3.8Zm13.5 0h-3.1v3.8h3v-3.8Z"/>
  <path fill="#E8E7F8" fill-rule="evenodd" d="M96.6 61c-2.9-1.5-9-4.6-13-5.6-6.8-1.7-8.3-11.8-2.4-17.4 3.8-3.7 16-6 20-4.5 5.6 2 9.4 11.3 7.1 19.5-2 7.6-6.6 10.5-11.7 8Z" clip-rule="evenodd"/>
  <path stroke="#1A174F" stroke-linecap="round" stroke-linejoin="round" stroke-width="1.2" d="M126 85.1H99L84.7 76c-25.3 1-33.6-9.2-33.6-9.2a42.8 42.8 0 0 0 25 7.6c3 0 6-.3 8.8-.9l14 9.7-4-12.8s0 0 0 0c10.2-4.8 17-13.2 17-22.9 0-14.8-16-26.8-35.8-26.8-19.9 0-36 12-36 26.8 0 4 1.3 7.6 3.3 11 22 39-32.2 35.7-32.4 7.4 0-12.2 11-22.5 26-25.7a26.2 26.2 0 0 0 2.4 20.5c2.1 3.8 5.2 7.2 9 10A46.4 46.4 0 0 0 78 79.2a39.3 39.3 0 0 1-31 13.5c-3.1 0-6-.3-8.9-.8l-14 9.6 3.4-11.2H1"/>
</svg>
