<svg xmlns="http://www.w3.org/2000/svg" width="335" height="33" fill="none">
  <path fill="#183163" d="M143 25.8c-4 0-8-.3-11.8-.7a327 327 0 0 1-23-3.1.8.8 0 0 1-.6-1c0-.4.5-.7 1-.6 7.5 1.3 15.1 2.4 22.7 3.2a57.4 57.4 0 0 0 32.8-4l-2.2-1.4a9.9 9.9 0 0 1-3.8-6 5 5 0 0 1 .8-3.6c1.7-2.2 4.8-1.6 6-1.3a6 6 0 0 1 3.2 1.3c2.2 2 2.1 5.8.9 8.2a10 10 0 0 1-2 2.5c5.2 2.2 11 2.4 16.1 2.5 10.2 0 20.4-.7 30.4-2 .4 0 .9.2.9.7 0 .4-.2.8-.7.8a219 219 0 0 1-30.6 2c-5.6 0-11.8-.3-17.4-3-.8.6-1.7 1-2.4 1.4a45.6 45.6 0 0 1-20.3 4.1Zm19.6-17.2c-1.1 0-1.9.3-2.4 1-.5.6-.6 1.4-.5 2.4a8.2 8.2 0 0 0 3.2 5l2.6 1.5c.8-.6 1.6-1.4 2-2.4 1-2 1.1-5-.4-6.3a5 5 0 0 0-2.5-1l-2-.3ZM221 25.8a6.5 6.5 0 0 1-6.6-6.4c0-3.5 3-6.4 6.5-6.4 3.6 0 6.5 2.9 6.5 6.4 0 3.5-3 6.4-6.5 6.4Zm0-11.2c-2.8 0-5 2.1-5 4.8a4.9 4.9 0 1 0 9.8 0c0-2.7-2.2-4.8-4.9-4.8Z"/>
</svg>
