<svg xmlns="http://www.w3.org/2000/svg" width="202" height="200" fill="none">
  <path fill="#F99" d="M15.8 75.4H13v2.9h2.8v-3Zm12.2 0h-2.8v2.9H28v-3Zm12.1 0h-2.8v2.9h2.8v-3ZM3.6 87.7H.8v3h2.8v-3Zm12.2 0H13v3h2.8v-3Zm12.2 0h-2.8v3H28v-3Zm12.1 0h-2.8v3h2.8v-3Zm12.2 0h-2.8v3h2.8v-3ZM3.6 100H.8v3h2.8v-3Zm12.2 0H13v3h2.8v-3Zm12.2 0h-2.8v3H28v-3Zm12.1 0h-2.8v3h2.8v-3Zm12.2 0h-2.8v3h2.8v-3ZM3.6 112.4H.8v2.9h2.8v-3Zm12.2 0H13v2.9h2.8v-3Zm12.2 0h-2.8v2.9H28v-3Zm12.1 0h-2.8v2.9h2.8v-3Zm12.2 0h-2.8v2.9h2.8v-3Zm-36.5 12.3H13v3h2.8v-3Zm12.2 0h-2.8v3H28v-3Zm12.1 0h-2.8v3h2.8v-3Z"/>
  <ellipse cx="86" cy="117.1" fill="#F99" rx="50" ry="49.6"/>
  <path stroke="#1A174F" stroke-width=".5" d="m147.7 130.7 2.9 15.2c.2.8 0 2-.8 2.4l-9.2 10.7-1.7-7.2 3.2-8.5-1.7-9.6"/>
  <mask id="a" width="14" height="34" x="99.3" y="129.5" fill="#000" maskUnits="userSpaceOnUse">
    <path fill="#fff" d="M99.3 129.5h14v34h-14z"/>
    <path fill-rule="evenodd" d="m103.3 130.5-3 15.2c-.2.8 0 1.8.8 2.4l11.4 13.3-.5-9.9-3.2-8.5 1.7-9.6" clip-rule="evenodd"/>
  </mask>
  <path fill="#fff" fill-rule="evenodd" d="m103.3 130.5-3 15.2c-.2.8 0 1.8.8 2.4l11.4 13.3-.5-9.9-3.2-8.5 1.7-9.6" clip-rule="evenodd"/>
  <path fill="#1A174F" d="m100.3 145.7.5.1-.5-.1Zm.8 2.4.4-.4h-.1l-.3.4Zm11.4 13.3-.4.3 1 1.1-.1-1.4h-.5Zm-.5-9.9h.5v-.1l-.5.1Zm-3.2-8.5h-.5v.2l.5-.2Zm-6-12.6-3 15.2 1 .2 3-15.2-1-.2Zm-3 15.1c-.2 1 0 2.3 1 3l.6-.8c-.6-.4-.8-1.2-.6-1.9l-1-.3Zm.9 2.9 11.4 13.3.8-.6-11.4-13.4-.8.7Zm12.3 13-.5-9.9h-1l.5 10 1-.1Zm-.5-10-3.2-8.6-1 .4 3.2 8.5 1-.3Zm-3.2-8.3 1.7-9.6-1-.2-1.7 9.6 1 .2Z" mask="url(#a)"/>
  <path fill="#fff" stroke="#1A174F" stroke-width=".7" d="M140.2 137v21.6h-28.6v-21.8h-.2l-9-4.7a254 254 0 0 1 1.4-4.1l2.6-6.3c.6-1 1.8-2 3-3.1 1.4-1 2.7-2 3.6-2.3l1.1-.3 1.6-.1a44.6 44.6 0 0 1 8.3.5l1.8.2 1.7-.2h.5a133.8 133.8 0 0 1 8-.5l1.7.1c.4 0 .8.2 1 .3l6 5 5 10-9.3 5.4-.2.1v.2Z"/>
  <mask id="b" width="20" height="21" x="116" y="93" fill="#000" maskUnits="userSpaceOnUse">
    <path fill="#fff" d="M116 93h20v21h-20z"/>
    <path fill-rule="evenodd" d="m134.5 106.2.5-5.4c0-1.3-.5-2.6-1.4-3.1-2-1.3-5-3.4-6.8-3.7-4-.2-5 1.3-7.4 2.4a3.7 3.7 0 0 0-2.2 3.3l-.2 6.5 1 3.5 7.4 3.3 8.5-3.3" clip-rule="evenodd"/>
  </mask>
  <path fill="#fff" fill-rule="evenodd" d="m134.5 106.2.5-5.4c0-1.3-.5-2.6-1.4-3.1-2-1.3-5-3.4-6.8-3.7-4-.2-5 1.3-7.4 2.4a3.7 3.7 0 0 0-2.2 3.3l-.2 6.5 1 3.5 7.4 3.3 8.5-3.3" clip-rule="evenodd"/>
  <path fill="#1A174F" d="m134.3 106.2-.6 3.5h.4l.6-3.4h-.4Zm.7-5.4h.4-.4Zm-1.4-3.1-.3.3.3-.3Zm-6.8-3.7.1-.4v.4Zm-7.4 2.4-.2-.4.2.4Zm-2.2 3.3h.4-.4Zm-.2 6.5h-.4v.1h.4Zm1 3.5-.3.1v.2h.2l.2-.3Zm7.4 3.3-.2.4h.3l-.1-.4Zm9.5-6.7.5-5.5h-.8l-.5 5.4h.8Zm.5-5.5c0-1.4-.5-2.9-1.7-3.5l-.3.7c.7.4 1.2 1.5 1.2 2.8h.8Zm-1.6-3.5a62 62 0 0 0-3.5-2.2c-1.2-.7-2.5-1.3-3.4-1.5l-.1.8c.7.1 1.9.7 3.1 1.4a61 61 0 0 1 3.4 2.2l.5-.7Zm-7-3.7c-4.1-.2-5.3 1.4-7.6 2.4l.4.7c2.5-1 3.3-2.5 7.2-2.3v-.8Zm-7.6 2.4c-1.3.6-2.4 2-2.4 3.7h.8c0-1.3.9-2.5 2-3l-.4-.7Zm-2.4 3.7-.2 6.5h.8l.2-6.4h-.8Zm-.2 6.7 1 3.4.9-.2-1.1-3.5-.8.3Zm1.3 3.7 7.3 3.3.4-.8-7.4-3.2-.3.7Zm7.6 3.3 8.5-3.3-.3-.7-8.4 3.2.2.8Z" mask="url(#b)"/>
  <path fill="#fff" stroke="#1A174F" stroke-width=".2" d="M134.6 105.8v-.1l-.5-.5-.1-.2v.2l-.8 3.7h-1v-6.5l-.2-.2h-.4c-1 .5-4.1 2.1-9 2.1-.7 0-1.4-.2-2-.6-.7-.3-1.2-.7-1.6-1v.1h-.4v5.8h-.6l-1-3.7v-.2l-.1.2-.8 1v.1l.5 3.5c0 .2 0 .3.2.5l.3.4 1 .5.2 2.3c0 1.1.5 2 1.3 2.5a26.3 26.3 0 0 0 4.7 3l1.4.2 1.4-.3 1.7-1a21 21 0 0 0 3-2.2c.8-.5 1-1.3 1-2.2v-2l1.4-1.6c.3-.3.3-.6.3-.9v-3Z"/>
  <mask id="c" fill="#fff">
    <path fill-rule="evenodd" d="M141.1 163.8h-31.3c-.7 0-1.4-.8-1.4-1.6v-21.6c0-.8.7-1.6 1.4-1.6h31c.8 0 1.5.8 1.5 1.6v21.6" clip-rule="evenodd"/>
  </mask>
  <path fill="#1A174F" fill-rule="evenodd" d="M141.1 163.8h-31.3c-.7 0-1.4-.8-1.4-1.6v-21.6c0-.8.7-1.6 1.4-1.6h31c.8 0 1.5.8 1.5 1.6v21.6" clip-rule="evenodd"/>
  <path fill="#1A174F" d="M141.1 163.5h-31.3v.6h31.3v-.6Zm-31.3 0c-.2 0-.5-.1-.8-.4-.2-.2-.3-.6-.3-.9h-.6c0 .5.2 1 .5 1.3.3.4.7.6 1.2.6v-.6Zm-1.1-1.3v-21.6h-.6v21.6h.6Zm0-21.6.3-.9c.3-.3.6-.4.8-.4v-.6c-.5 0-.9.3-1.2.6a2 2 0 0 0-.5 1.3h.6Zm1.1-1.3h31v-.6h-31v.6Zm31 0c.3 0 .6.1.8.4.3.3.4.6.4.9h.6c0-.5-.2-1-.5-1.3-.3-.3-.8-.6-1.2-.6v.6Zm1.2 1.3v21.6h.6v-21.6h-.6Z" mask="url(#c)"/>
  <mask id="d" fill="#fff">
    <path fill-rule="evenodd" d="m145.5 169.4.7 6.1-4.6-.5-.7-5.6" clip-rule="evenodd"/>
  </mask>
  <path fill="#fff" fill-rule="evenodd" d="m145.5 169.4.7 6.1-4.6-.5-.7-5.6" clip-rule="evenodd"/>
  <path fill="#1A174F" d="M146.2 175.5v.5l.6.1v-.6h-.6Zm-4.6-.5h-.5v.5h.4l.1-.5Zm3.4-5.5.7 6.1 1-.1-.7-6.1h-1Zm1.3 5.6-4.6-.6-.2 1 4.7.5v-1Zm-4.2-.1-.7-5.7-1 .2.7 5.6 1-.1Z" mask="url(#d)"/>
  <path fill="#1A174F" fill-rule="evenodd" d="m145 168.9.5 6.6s4.1-.8 5.6-.8c1.9-.2 7.2.8 7.7 0 .3-.8-.7-9.6-1-9.8-.4-.6-5.3 2.4-7 3" clip-rule="evenodd"/>
  <path fill="#E6E6E6" fill-rule="evenodd" d="M150.8 172.9c-.2 0-.5-3.2-.5-3.2 0-.3 0-.3.3-.3.2 0 .2 0 .2.3l.3 3.2h-.3Zm-1.9.2-.5-3.2c0-.2 0-.2.2-.2.3 0 .3 0 .3.2l.2 3.2h-.2Z" clip-rule="evenodd"/>
  <mask id="e" fill="#fff">
    <path fill-rule="evenodd" d="m104.5 168-.8 6.2 4.4-.3.7-5.6" clip-rule="evenodd"/>
  </mask>
  <path fill="#fff" fill-rule="evenodd" d="m104.5 168-.8 6.2 4.4-.3.7-5.6" clip-rule="evenodd"/>
  <path fill="#1A174F" d="M103.7 174.2h-.5v.5h.6v-.5Zm4.4-.3v.5h.5v-.4h-.5ZM104 168l-.8 6.2h1l.8-6-1-.2Zm-.2 6.7 4.3-.3v-1l-4.4.3v1Zm4.8-.7.7-5.6-1-.1-.7 5.6 1 .1Z" mask="url(#e)"/>
  <path fill="#1A174F" fill-rule="evenodd" d="m105 167.5-.5 6.7-5.6-1c-2-.3-7.3.7-7.8 0-.2-.9.8-9.7 1.2-10.2.5-.5 5.4 2.4 7 3" clip-rule="evenodd"/>
  <mask id="f" width="56" height="27" x="106.6" y="150.4" fill="#000" maskUnits="userSpaceOnUse">
    <path fill="#fff" d="M106.6 150.4h56v27h-56z"/>
    <path fill-rule="evenodd" d="M155.2 151.8s5.8-3 6.8 6.4c.7 7.7-5.4 9.6-5.4 9.6l-48.2 8.3-.8-9.9" clip-rule="evenodd"/>
  </mask>
  <path fill="#fff" fill-rule="evenodd" d="M155.2 151.8s5.8-3 6.8 6.4c.7 7.7-5.4 9.6-5.4 9.6l-48.2 8.3-.8-9.9" clip-rule="evenodd"/>
  <path fill="#1A174F" d="M155.1 151.6 107.6 166v.4l47.6-14.4v-.4Zm6.9 6.6h.4-.4Zm-5.4 9.6.1.4v-.4Zm-48.2 8.3h-.4v.4h.4v-.4Zm46.8-24.3.2.4.2-.1.6-.2a4 4 0 0 1 2 0c1.3.4 2.9 1.8 3.4 6.4l.8-.1c-.5-4.8-2.3-6.6-4-7a4.7 4.7 0 0 0-3.1.1l-.2.1v.4Zm6.4 6.4c.3 3.8-1 6-2.3 7.4a8 8 0 0 1-2.6 1.7l-.1.1v.4l.2.4a6.7 6.7 0 0 0 1-.4c.5-.4 1.3-.9 2-1.6 1.6-1.5 3-4 2.6-8h-.8Zm-5 9.2-48.3 8.3.1.8 48.3-8.3-.1-.8Zm-47.8 8.7-.8-10-.8.1.8 10 .8-.1Z" mask="url(#f)"/>
  <path fill="#E6E6E6" fill-rule="evenodd" d="M99.1 171.5c.3 0-.2-.2-.2-.2l.5-3.2c0-.3.2-.3.2-.3.3 0 .3.3.3.3m.9 3.7c.3 0-.2-.3-.2-.3l.5-3.2c0-.2.2-.2.2-.2.3 0 .3.2.3.2" clip-rule="evenodd"/>
  <path fill="#fff" fill-rule="evenodd" d="M128.3 151.5c0 .8-1.3 1.6-3 1.6-1.4 0-2.9-.8-2.9-1.6s1.2-1.6 3-1.6" clip-rule="evenodd"/>
  <mask id="g" width="56" height="27" x="89.7" y="149.9" fill="#000" maskUnits="userSpaceOnUse">
    <path fill="#fff" d="M89.7 149.9h56v27h-56z"/>
    <path fill-rule="evenodd" d="M97.6 151.3s-5.8-3-6.8 6.4c-.7 7.7 5.3 9.6 5.3 9.6l47.8 8.5.8-9.8" clip-rule="evenodd"/>
  </mask>
  <path fill="#fff" fill-rule="evenodd" d="M97.6 151.3s-5.8-3-6.8 6.4c-.7 7.7 5.3 9.6 5.3 9.6l47.8 8.5.8-9.8" clip-rule="evenodd"/>
  <path fill="#1A174F" d="m144.8 165.7-47.1-14.6-.2.5 47.1 14.6.2-.5Zm-54-8h-.5.5Zm5.3 9.6-.1.5.1-.5Zm47.8 8.5v.5l.5.1v-.5h-.5Zm-46.3-24.5.2-.4a4.4 4.4 0 0 0-1-.4c-.6-.1-1.5-.2-2.4 0-1.8.5-3.6 2.4-4 7.2h.9c.5-4.5 2.1-5.9 3.4-6.2a3.8 3.8 0 0 1 2.5.2h.1l.3-.4Zm-7.3 6.4c-.4 4 1 6.5 2.5 8a9 9 0 0 0 3.2 2l.1-.4.2-.5H96l-.7-.3c-.5-.3-1.2-.8-1.8-1.4-1.4-1.4-2.6-3.6-2.3-7.3l-1-.1Zm5.8 10.1 47.8 8.5.1-1-47.8-8.5-.1 1Zm48.3 8 .8-9.8h-1l-.8 9.8h1Z" mask="url(#g)"/>
  <path stroke="#1A174F" stroke-linecap="round" stroke-linejoin="round" d="m154.1 50-10.8-5.3c-.8-.4-.6-1.7.3-1.8l52.8-8c.3 0 .5.5.1.6l-40.3 15.8a1 1 0 0 0-.6 1v14.1a1 1 0 0 0 1.6.8l9-7.7a1 1 0 0 1 1 0L180 68c.4.3 1 .2 1.4-.3L201 35.5c.1-.2-.2-.5-.4-.4l-29 16.2a27.2 27.2 0 0 0-11.7 12.9c-2 4.4-4.4 9.4-6 11.3-18.4 21.2-55.5 9-53.9 20.3 2.8 19.2 20-9.8-.2-11-24.3-1.7-53.5 46.9-56.8 48-3.2 1-38-25.7-35.6-26.3 2.5-.5 62.4-8.7 65.7-5.4 3.2 3.2 6.9 43.2 4.3 46.3-2.7 3.3-62 11-67 6.6-5.1-4.4-7.3-33.8-5.6-41.4"/>
</svg>
