<svg xmlns="http://www.w3.org/2000/svg" width="125" height="125" fill="none">
  <path fill="#E8E7F8" fill-rule="evenodd" d="M29.1 69.6c2.7.4 8.3 1.3 11.7.9 5.9-.8 9.9 9 6.9 16.8-2 5.1-10.9 11.9-14.4 11.9-5 0-10.6-8-11.1-17.2-.6-8.5 2.2-13.1 6.9-12.4Z" clip-rule="evenodd"/>
  <path fill="#FCC" fill-rule="evenodd" d="M78.8 46.7c2.1-.8 5.7-4 8.4-5.8a10 10 0 0 0 4.5-5.4c1.5-4.9.7-9.8-1.8-13.7-2.2-3.5-4.4-4.6-7.4-3.2-2.6 1.2-5 3.3-5.8 8.1-.8 5.3-1.2 7.8-3.3 12.3-2.5 5.3 1.5 9 5.4 7.7Z" clip-rule="evenodd"/>
  <path fill="#78E0ED" d="M31.5 28H29v2.7h2.5V28Zm11 0H40v2.7h2.5V28Zm-33 11.4H7V42h2.5v-2.6Zm11 0H18V42h2.5v-2.6Zm11 0H29V42h2.5v-2.6Zm11 0H40V42h2.5v-2.6Zm11 0H51V42h2.5v-2.6Zm-44 11.3H7v2.7h2.5v-2.7Zm11 0H18v2.7h2.5v-2.7Zm11 0H29v2.7h2.5v-2.7Zm11 0H40v2.7h2.5v-2.7Zm11 0H51v2.7h2.5v-2.7Zm-44 11.4H7v2.7h2.5V62Zm11 0H18v2.7h2.5V62Zm11 0H29v2.7h2.5V62Zm11 0H40v2.7h2.5V62Zm11 0H51v2.7h2.5V62Zm-33 11.4H18v2.7h2.5v-2.7Zm11 0H29v2.7h2.5v-2.7Zm11 0H40v2.7h2.5v-2.7ZM20.8 28.2h-2.5v2.6h2.5v-2.6Z"/>
  <path fill="#1A174F" d="M32.5 96.1c-3.8 0-4.8-3-4.9-5.4-.2-4.8-.1-39.7 0-57.5-.2-1.5 0-3.8 1.1-5 .5-.7 1.2-1 2-1h41.9a5 5 0 0 1 4 .7c1.5 1 2.2 2.8 2.2 5.3v57.4c.1.6.3 2-.7 3.5-1 1.3-2.9 2-5.4 2H32.5Zm-1.7-67.7c-.5 0-1 .1-1.2.5-1 1-1 3.2-.8 4.3-.2 17.8-.3 52.7 0 57.4.2 4.4 2.7 4.4 3.7 4.4l40.2-.1c2.1 0 3.7-.5 4.5-1.5a3 3 0 0 0 .4-2.6V33.2c0-2.1-.5-3.6-1.6-4.4-1-.7-2.3-.7-3.2-.5H30.7Z"/>
  <path fill="#1A174F" d="M35.7 40.5c-1.4 0-2.7-.2-3.8-.4l.3-1.1c3.2.7 9.6.8 12.8-3.6a10 10 0 0 1 2-4.7c.3-.1.6-.1.8 0 .3.3.5.7-.7 3.3-.2.7-.6 1.3-1 1.8 0 .6 0 1.2.2 1.6.4 1 1.4 1.6 3 1.6 6.6 0 10.4-2.2 11.4-3.4l.9.8c-1.2 1.3-5.3 3.7-12.3 3.7-2.8 0-3.8-1.4-4.1-2.5l-.1-.5a13 13 0 0 1-9.4 3.4Z"/>
  <path fill="#1A174F" d="M79.4 92.8H78v-1.2h1.2c2.8.2 3-3.5 3-3.5l3-57.8c.2-3.7-1.6-5.2-2.6-5.5l-45-2.3a3 3 0 0 0-2.4 1 5 5 0 0 0-.8 4l-1 .3c-.5-1-.3-3.4.9-5 .8-1 2-1.5 3.4-1.4l45.2 2.3c1.3.3 3.7 2.1 3.4 6.7l-3 57.7c0 1.7-1 4.7-3.9 4.7Z"/>
  <path fill="#1A174F" d="M80.6 92.7h-.4l.2-1.2c1.8.3 2.5-2 2.8-3.8l7.1-57.4c.5-3.8-1.1-5.4-2.1-5.7l-16-2L43.5 19c-1.1 0-2.2.4-2.9 1.2-.4.5-.6 1.1-.5 1.6l-1.1.3a3 3 0 0 1 .7-2.6c1-1 2.4-1.7 3.9-1.6 2.5.2 15.8 1.8 28.7 3.5l16.1 2h.1c1.3.4 3.5 2.4 3 6.9l-7.2 57.4c-.5 4.1-2.3 4.9-3.6 4.9Z"/>
  <path fill="#1A174F" d="M69.5 46.5h-37a.6.6 0 0 1-.6-.6c0-.3.2-.5.6-.5h37c.3 0 .6.2.6.5s-.3.6-.6.6Zm0 24.8h-37a.6.6 0 0 1-.6-.5c0-.3.2-.6.6-.6h37c.3 0 .6.3.6.6s-.3.5-.6.5Zm0-8.3h-37a.6.6 0 0 1-.6-.5c0-.3.2-.6.6-.6h37c.3 0 .6.3.6.6s-.3.6-.6.6Zm0-8.2h-37a.6.6 0 0 1-.6-.6c0-.3.2-.6.6-.6h37c.3 0 .6.3.6.6s-.3.6-.6.6Zm0 24.8h-37a.6.6 0 0 1-.6-.6c0-.3.2-.5.6-.5h37c.3 0 .6.2.6.5 0 .4-.3.6-.6.6Z"/>
  <path fill="#CFE5DC" fill-rule="evenodd" d="M60.9 112c2.8.5 10.1-1.8 19-11.2 8.6-9.2 9.6-20.1 4.6-21.1-3.1-.6-9 .7-12.6 1.3-12 2-20.1 29.6-11 31Z" clip-rule="evenodd"/>
  <path fill="#1A174F" d="M115 111.2c-13.5-5.1-27-8.4-38.7-1.2-3.7 2.3-6.1 3.2-7.4 2.6-1-.5-1.4-2.3-1.8-4.4l-.7-3.6c-.8-2.4-2.7-8.6-5.9-13.5a23 23 0 0 0-2.3-3.1l-.3-.3c-1.1-1.2.1-2.6.7-3.1 1.2-1.1 1.8-1.1 2.4-.7 3.5 2.2 6.5 5 9.5 9l.5.2a419.4 419.4 0 0 1 .7-.5c4.7-7 12.8-16.1 18.1-21.3 1-1 3.4-1.7 4.7-1.2h.1c.7.3 1.1.6 1.2 1 .1.2 0 .5-.2.8-.1.2-17 24.9-20.3 30.6a7.4 7.4 0 0 1-5.7 3.8h-1.2a.6.6 0 0 0-.5.7c0 .4.3.6.6.6a51.3 51.3 0 0 1 1 0l.3-.1c3-.4 5.2-1.9 6.6-4.4 3.3-5.7 20-30.3 20.2-30.5a2 2 0 0 0 .4-1.8c-.2-.8-.9-1.4-2-1.8-1.8-.8-4.7.1-6 1.4-5.3 5.1-13.3 14-18 21-3-3.7-6-6.4-9.3-8.5-1.6-1-3-.1-4 .8-1.7 1.6-2 3.5-.7 4.8a44.7 44.7 0 0 1 9 20c.3 2.4.7 4.5 2.4 5.2 1.7.8 4.3 0 8.6-2.6 11.2-7 24.3-3.8 37.6 1.2l.4-1v-.1Z"/>
  <path fill="#1A174F" d="M43.2 96c3.7 9.3 15.8 11.3 20.8 11.7.4 0 .6-.3.7-.6 0-.3-.3-.6-.6-.6-4.8-.4-16.4-2.2-19.8-10.9-1.8-4.4-1.1-10.1 1.9-16.9 2-4.4 5-9.4 9-14.7h-1.5C43.7 77.5 40 88.3 43.2 96Z"/>
</svg>
