<svg xmlns="http://www.w3.org/2000/svg" width="125" height="125" fill="none">
  <path fill="#78E0ED" d="M69.56 49.6h-3.15v3.25h3.15V49.6Zm13.29-.2H79.7v3.25h3.15V49.4Zm13.62 0H93.3v3.25h3.16V49.4ZM55.59 63.22h-3.16v3.24h3.16v-3.24Zm13.61 0h-3.15v3.24h3.15v-3.24Zm13.65 0H79.7v3.24h3.15v-3.24Zm13.62 0H93.3v3.24h3.16v-3.24Zm13.64 0h-3.15v3.24h3.15v-3.24ZM55.59 77h-3.16v3.24h3.16V77Zm13.61 0h-3.15v3.24h3.15V77Zm13.65 0H79.7v3.24h3.15V77Zm13.62 0H93.3v3.24h3.16V77Zm13.64 0h-3.15v3.24h3.15V77ZM55.59 90.8h-3.16v3.25h3.16v-3.24Zm13.61 0h-3.15v3.25h3.15v-3.24Zm13.65 0H79.7v3.25h3.15v-3.24Zm13.62 0H93.3v3.25h3.16v-3.24Zm13.64 0h-3.15v3.25h3.15v-3.24ZM69.2 104.62h-3.15v3.24h3.15v-3.24Zm13.65 0H79.7v3.24h3.15v-3.24Zm13.62 0H93.3v3.24h3.16v-3.24Z"/>
  <path fill="#CFE5DC" fill-rule="evenodd" d="M102.8 44.2c-6.4.78-10.8 3.97-13.48 6.56-4.33 4.17-5.9 9.37-7.84 15.18-1.65 5.02-2.24 12.2.36 16.55 3.82 6.44 16.17 7.45 16.77-5.3.31-6.69 1.24-12.48 7.47-23.33 3.14-5.46 3.55-10.51-3.29-9.67Z" clip-rule="evenodd"/>
  <path fill="#FCC" fill-rule="evenodd" d="M59.25 38.99c-1 2.2-2.24 6.5-3.02 9.15-1.28 4.36 2.15 6.5 5.86 5.82 7.48-1.39 8.35-10.88 4.06-15.72-2.31-2.58-5.24-2.9-6.9.75Z" clip-rule="evenodd"/>
  <path fill="#E8E7F8" fill-rule="evenodd" d="M43.91 67.66c1.22-12.05-10.7-27.88-20.98-34.42-10.03-6.36-16.6 1.9-15.88 11.26.38 4.79 2.53 10.14 3.79 12.84.87 1.88 2.17 5.83 3.87 9.47 2.63 5.64 6.1 10.5 12.33 12.54 8.36 2.74 16.07-3.6 16.87-11.67v-.02Z" clip-rule="evenodd"/>
  <g clip-path="url(#a)">
    <path fill="#1A174F" d="M2 108.77a68.17 68.17 0 0 0 12.96 1.26 60.34 60.34 0 0 0 12.83-1.32c1.26-.25 2.97-.59 4.57-.88.96.37 2.1.45 3.06.22.34-.08 1.37-.41 1.61-.81a.44.44 0 0 0 .06-.35c-.12-.47-.55-.59-4.64.15a2.6 2.6 0 0 1-.3-.16l.12-.07c.65-.39 1.93-1.15 2.79-2.61.04.22.14.42.29.61.28.34 1.29.99 3.17.99h.1c2.05-.03 2.44-.47 2.54-1.71.07-.87-.29-1.49-.57-1.99l-.16-.29c-.74-1.44-.32-2.85.45-5.41.26-.87.56-1.86.86-3.03.07-.29.22-.68.38-1.1a14.4 14.4 0 0 0 1.2-6.1 9.02 9.02 0 0 0-.75-3.17 7.51 7.51 0 0 1-.6-2.2c-.05-.52-.08-1.01-.06-1.5.46.1.85.07 1.2-.11.88-.43.9-1.46.91-2.08 0-.15 0-.27.02-.37.73-5 1.54-11.71 1.22-15.34v-.05l-.01-.12v-.06l-.21-1.24c.35-.12.64-.31.9-.59 1.03-1.14.5-2.67-.38-5.21a46.59 46.59 0 0 1-2.03-7.37c-.49-2.72-.98-6.18-.38-8.92.49-.22 1.14-.5 1.86-.85a34.03 34.03 0 0 1 5.46-2.18c.67-.2 1.11-.34 1.02-.84-.09-.54-1.04-.91-1.45-1.05-.78-.26-3.5-.96-5.72 1.12a6.63 6.63 0 0 0-1.82 3.25l-.13.06a6.45 6.45 0 0 0-1.66.85c-1.9 1.97-.98 4.96.53 9.91.91 2.96 2.03 6.64 2.9 11.21h-.29c-.27-.53-.62-.9-1.03-1.08-.64-.29-1-.04-1.93.63a8.82 8.82 0 0 0-5.02.84c-.99.48-1.68 1.03-2.29 1.52-.88.7-1.64 1.31-3.02 1.46-.71.08-3.07.02-4.54-1.29-.7-.62-.52-1.85-.28-3.54.27-1.86.6-4.17-.04-6.87-.39-1.64-1.46-5.56-3.03-6.52a1.33 1.33 0 0 0-1.03-.19c-.69.17-1.03.79-1.58 1.83-.36.66-.85 1.57-1.61 2.68a29.85 29.85 0 0 1-6.65 6.97c-.65.47-1.27.88-1.86 1.29l-.04.03c-2.25 1.51-3.87 2.61-3.86 4.2 0 .33.09.52.18.72.08.17.17.39.27.82a6.4 6.4 0 0 1-.21 3.53c-.12-.45-.33-1.01-.89-1.28-.36-.17-.91-.23-1.32.02-.74.46-.68 1.64-.57 2.64a9 9 0 0 1-.24-.69c-.49-1.75-.24-3.75.76-5.95 1.3-2.88 5.49-9.19 6.4-10.11 3.09-3.16 3.81-4.8 4.74-6.89.64-1.45 1.36-3.09 3.1-5.62.87-1.26 2.82-2.39 4.55-3.39 1.72-.99 3.07-1.77 3.26-2.61.1-.42.04-.8-.04-1.12l.1.08a7.15 7.15 0 0 0 2.77 1.49c.64.14 1.61.09 2.63-.87a3.8 3.8 0 0 0 1.09-1.98c.06.46.17.85.34 1.05l.1.14c.56.75 1.11.85 3.09-.07.96-.45 2.33-.65 3.92-.89 2.68-.4 5.71-.85 8.25-2.63l.47-.35-.03.12a5.51 5.51 0 0 0 .62 3.97c.4.63.91 1.03 1.49 1.15 1.01.22 2.05-.3 2.86-1.42.89-1.23.97-2.61 1.04-3.94l.02-.43c.03-.44.08-.94.16-1.52.11.3.19.57.32 1.2.16.82.14 2.11.11 3.37-.02.84-.03 1.64 0 2.29.06.91.09 1.76.11 2.53-.27.74-.5 1.61-.76 2.53-.5 1.82-1.11 4.08-2.27 6.54l-.12.21c-.29.49-.77 1.3-.42 2.06.17.37.47.66.94.92-.14.97-.1 2.07.11 3.55.36 2.5 1.37 3.83 2.17 4.52a6.19 6.19 0 0 0 .91 2.72c.22.4.47.86.74 1.53l.07.17c.16.37.49 1.14.86 2.83l.06.28c.34 1.58.48 2.24 1.15 2.53.47.21.94.06 1.28-.04.24-.08.42-.12.48-.08.1.08.08.37.06.61-.03.38-.06.84.31 1.1.27.19.67.24 1.08.13a2.48 2.48 0 0 0 1.54-1.32c.44-.87.2-1.55 0-2.15-.17-.5-.36-1.01-.24-1.73.11-.68 1.61-2.55 3.51-4.92l.33-.41c.24-.3 1.44-1.91 1.05-3.62a6.3 6.3 0 0 0-2.64-3.96c.63-.1 1.04-.26 1.24-.5.19-.23.21-.52.08-.81a23.83 23.83 0 0 1-2.03-5.55c.17-.36.34-.68.5-.99.41-.78.53-1.04.51-1.27-.07-.58-.34-1-.72-1.11-.28-.09-.58.01-.8.27-.44.51-.54 1.57-.29 3-1.35 2.84-1.51 4.91-.48 6.32a45.69 45.69 0 0 1-7.99-.94c-.89-.23-1.5-.41-1.95-.59.15-.66.38-1.24.64-1.91.19-.49.41-1.04.63-1.7v-.04c.74-2.2 1.31-3.93 1.25-8.04a4.4 4.4 0 0 1 1.14-1.86c.26-.22.49-.12 1.37.64 1 .87 2.38 2.06 4.63 1.87 1.56-.13 2.31-2.36 2.34-3.91.05-2.55-.94-3.59-1.78-4.02a3.22 3.22 0 0 0-3.27.33 3.46 3.46 0 0 0-1.49 2.56l-.05.27c-.33-.96-.7-3.29-.15-4.93.3-.91.86-1.37 1.61-1.33l1.03.01h.04c1.35 0 3.19 0 3.69.65.14.18.17.42.09.74-.13.53.07 1.03.55 1.37.82.58 2.38.64 3.48.19a10.6 10.6 0 0 1-2.1 3.19 8.33 8.33 0 0 0-1.38 1.94c-.29.75-.71 2.14-.24 3.07.2.41.54.69 1.01.82.52.14.92-.3 1.79-1.43 1.47-1.91 2.26-3.22 2.27-3.23a61.53 61.53 0 0 0 1.51-2.64c.39-.72.71-1.28 1.07-1.83.63-.95.88-1.93 1.07-2.72l.07-.27c.22-.06.38-.06.51 0 .39.21 1.19 2.24 1.54 3.51.98 3.55 2.88 4.65 3.5 5.01l.11.06c.81.53 1.47.78 2.26 1.08.45.17.91.34 1.44.58.55.35 1.1.64 1.6.86l.48.3c.18.12.47.23.81.37.56.22 1.51.6 1.65.98.23.6.05 1.04-.19 1.65-.18.45-.38.96-.43 1.6-.11 1.44.49 2.38 1.08 3.28.01.31.04.62.06.92v.05c.08.87.15 1.77-.02 2.87-.25 1.55-.95 2.3-1.85 3.25a13.67 13.67 0 0 0-3.11 4.92c-.8.69-1.41 1.38-1.94 2.19-1.07 1.65-3.33 5.67-1.29 7.25.33.26 1.14.4 2.46.45l.06.42a23.31 23.31 0 0 0 2.37 7.21c.91 1.87 1.57 3.22 1.27 5.81a18.2 18.2 0 0 0 .41 6.51c.38 1.61.42 1.76.85 3.23l.2.67c.54 1.85.63 3.23.7 4.35l.06.83c-.35.69-.79 1.12-1.14 1.48-.42.41-.78.77-.64 1.3.29 1.12 2.62 1.31 4.53 1.28 21.67-.36 18.82-2.15 26.88 3.31.17.12.41.07.53-.1a.38.38 0 0 0-.1-.53c-8.19-5.55-5.5-3.82-27.32-3.44-2.46.04-3.69-.39-3.77-.71-.03-.1.2-.33.44-.57.24-.24.53-.53.82-.91.16.46.42.79.81 1.06 1.06.74 2.8.64 3.65-.21.76-.76.49-1.84.15-3.22-.13-.53-.28-1.13-.38-1.76-.37-2.34.12-3.79.74-5.63.57-1.7 1.22-3.62 1.42-6.75.12-1.8 0-2.55-.12-3.21a6.7 6.7 0 0 1-.05-2.25c.18-1.66.62-3.23 1.33-4.77.72.67 1.38 1.34 1.96 1.94 1.57 1.6 2.51 2.57 3.22 2.01.53-.43.36-1.54-.07-4.02v-.06c-.09-.47-.18-.96-.26-1.47-.21-1.28-.15-2.77-.08-4.51.09-2.13.19-4.54-.16-7.38l-.08-.58v-.05c-.19-1.35-.4-2.88.18-4.75.25-.8.54-1.35.72-1.68l.03-.06c.23-.44.5-1 .76-1.61l.1.33.02.07c.1.34.38 1.08.71 1.67a4.85 4.85 0 0 0 3.28 2.5c.44.07.75.03.93-.13.04-.04.17-.15.17-.34a.53.53 0 0 0-.18-.38c-.13-.13-.44-.44-.69-1.66a5.88 5.88 0 0 1-.14-1.23l.04.1c.64 1.37.96 2.06 1.46 2.84.84 1.32 1.76 2.28 4.47 4.64 1.44 1.25 2.39 2.04 3.09 2.61 1.23 1.02 1.45 1.2 1.75 1.82.66 1.36.75 2.83.81 3.8.06.91.09 1.52.63 1.58.29.03.5-.14.69-.41-.13.99-.13 1.61.33 1.82.19.09.4.07.65-.05a3.7 3.7 0 0 0 1.63-2.26c.09-.35.36-1.43-.94-3.99a17.83 17.83 0 0 0-1.88-2.9l-.21-.27c-1.27-1.68-1.87-2.73-2.46-3.74-.63-1.09-1.22-2.12-2.56-3.78-.93-1.15-1.34-1.52-1.63-1.79a3.03 3.03 0 0 1-.69-.83c-.85-1.32-1.19-2.48-1.56-3.71-.41-1.39-.83-2.82-2.01-4.57-1.32-1.96-1.85-2.03-2.16-1.87a.5.5 0 0 0-.25.27c-.2-2.06-.4-4.14-.64-5.9-.31-2.25-1.03-7.51-4.63-9.03a6.04 6.04 0 0 0-5.77.73c-2.36 1.81-2.16 5.92-2.06 8.12v.06c.03.61.12 1.79.37 3.05-2.04 1.93-4.31 5.73-4.62 6.89-.13.48-.22.96-.26 1.44a3.25 3.25 0 0 1-.35-1.77c.04-.53.21-.96.38-1.38.26-.65.52-1.32.19-2.2a1.46 1.46 0 0 0-.55-.66 3.47 3.47 0 0 0 1.53-.4 4.5 4.5 0 0 0 2.04-2.67c.21-.74.16-1.41-.12-1.87-.46-.76-1.37-.78-2.64-.8a19.36 19.36 0 0 1-4.67-.55c-1.71-.43-2.71-.71-3.22-1.64-1.79-3.25-3.49-5.64-5.05-7.08-1.49-1.38-2.95-.41-3.83.17-.67.44-.92 1.38-.92 2.04 0 .66.2 1.18.56 1.43.42.28.9.13 1.35-.08a7.17 7.17 0 0 1-.89 2.19c-.38.57-.7 1.15-1.1 1.89-.38.68-.84 1.53-1.49 2.61a38.8 38.8 0 0 1-2.22 3.16c-.68.88-.92 1.1-1 1.15a.8.8 0 0 1-.5-.41c-.24-.48-.14-1.39.27-2.45.18-.45.67-1.04 1.26-1.74.39-.46.79-.94 1.17-1.46.02-.02 1.69-2.5 1.11-3.1-.11-.11-.35-.26-.74 0-.8.53-2.38.57-3.08.07-.23-.16-.3-.33-.25-.56.14-.55.06-1.02-.23-1.39-.74-.94-2.63-.94-4.3-.94l-1.04-.01c-.93-.04-2.13.37-2.55 2.55-.39 2.07.16 5.3.95 5.58.19.07.48.03.65-.3.16-.3.21-.63.26-.95.11-.65.21-1.32 1.2-2.07a2.43 2.43 0 0 1 2.45-.25c.92.47 1.39 1.61 1.36 3.32-.02 1.27-.61 3.08-1.63 3.16-1.93.15-3.12-.87-4.07-1.69-.8-.69-1.56-1.34-2.37-.64-.25.22-.48.48-.69.81l-.06-1.07c-.04-.61-.02-1.38 0-2.22.03-1.29.05-2.63-.12-3.53-.15-.78-.25-1.04-.4-1.45-.1-.27-.22-.6-.4-1.22l.16-.86v-.05c.23-1.19.4-2.1.46-2.8.6.12 1.15.06 1.58-.18.56-.31 1.17-1.07.91-2.89-.19-1.32-1.25-2.83-2.34-2.83h-.03c-.27 0-.63.12-1.02.33l-.15-.06c-.32-.1-.71-.01-1.1.24a3.08 3.08 0 0 0-1.3 2.07c-.07.64.26 1.3.62 2.02l.27.55c.21.45.23.57.31 1.01.07.36.17.91.44 1.98l.4 1.49c-.16.9-.35 2.04-.41 3.05l-.02.44c-.07 1.28-.13 2.48-.89 3.53-.29.41-1.09 1.33-2.07 1.12-.46-.1-.8-.5-1-.81a4.75 4.75 0 0 1-.52-3.38c.11-.44.24-.64.53-1.07.21-.31.5-.73.89-1.42.36-.64 1.53-2.77 1.34-3.35a.42.42 0 0 0-.22-.25.36.36 0 0 0-.32 0c-.19.08-.24.23-.35.58-.29.88-1.04 3.22-3.5 4.93-2.4 1.67-5.33 2.11-7.93 2.5-1.65.25-3.07.46-4.13.95-1.77.83-1.91.63-2.15.31l-.12-.16c-.34-.41-.22-2.58-.09-3.07.56-.61.53-1.65.37-2.21-.1-.36-.27-.57-.51-.63a.48.48 0 0 0-.41.09v-.82c0-.47-.07-.94-.2-1.47-.34-1.38-1.11-3.14-2.83-3.69a5.7 5.7 0 0 0-3.77.45c-.56.3-.93.69-1.06 1.13-.12.41-.26.44-.58.52-.66.16-1.27.43-1.54 2.07-.1.58-.05 1.01.04 1.79v.04l.13.77c-.27.14-.45.48-.5.96-.07.73.17 1.75.88 2.26.17.12.69.5 1.11.22.44-.29.23-.81-.05-1.47-.07-.17-.16-.37-.24-.6.16.06.34.08.54 0 .46-.18.5-.68.57-1.37.04-.47.1-1.11.29-1.88.1-.38.35-1.4.58-1.44.04.01.16.15.23.22.2.23.48.54.95.71.78.28 1.48-.07 2.04-.35.49-.25.87-.44 1.24-.28.44.19.68.81.89 1.36.19.5.25.98.3 1.33.04.34.08.62.23.79 0 2.95-.17 4.52-1.14 5.44-.63.59-1.28.82-1.94.68-1.02-.22-1.89-.9-2.47-1.34-.57-.44-.94-.73-1.3-.46-.3.22-.19.59-.1.88.09.28.2.67.12 1.05-.12.51-1.66 1.4-2.9 2.12-1.8 1.04-3.84 2.21-4.8 3.62a30.8 30.8 0 0 0-3.17 5.74c-.89 2.01-1.59 3.6-4.58 6.66-1.04 1.06-5.3 7.57-6.55 10.33-1.07 2.37-1.34 4.55-.8 6.48.24.85.72 1.88 1.15 2.12.15.08.28.07.37.05.43-.13.37-.6.27-1.38-.08-.66-.25-2.03.17-2.29.15-.09.41-.06.58.02.34.16.45.65.54 1.01.08.34.17.73.56.75a.6.6 0 0 0 .48-.24c.43-.51 1.08-2.44.61-4.63a4.07 4.07 0 0 0-.32-.97c-.07-.17-.11-.24-.11-.41 0-1.18 1.47-2.17 3.52-3.55l.05-.03a30.5 30.5 0 0 0 10.36-11.19c.47-.88.73-1.36 1.09-1.44.14-.03.28 0 .45.1.89.55 1.94 2.92 2.68 6.04.61 2.56.28 4.79.02 6.59-.27 1.86-.48 3.33.52 4.22 1.99 1.77 5.1 1.48 5.13 1.48 1.6-.18 2.44-.85 3.41-1.62a10.7 10.7 0 0 1 2.15-1.43 8.1 8.1 0 0 1 3.7-.83 72.73 72.73 0 0 1-5.53 3.52c-2.4 1.4-3.96 2.25-5.78 1.94a6.4 6.4 0 0 1-2.07-.79c-.61-.33-1.13-.61-1.59-.26-.6.46-.29 1.28.28 2.78.38 1 .89 2.36 1.31 4.09 1.04 4.29 2.42 9.69 3.07 11.05.47.99 1.08 1.28 1.54 1.5l.2.1c-.51 1.28-.57 4.11.91 8.11.74 2 1.28 3.31 1.67 4.27.64 1.56.93 2.27 1.16 3.68.68 4.31-2.01 5.92-3.17 6.61-.4.24-.6.36-.63.62a.6.6 0 0 0 .15.46c-1.03.19-2.26.43-3.75.73l-2.39.47a65.78 65.78 0 0 1-23.23-.43l-.02.78-.04-.15Zm85.76-29.82c.33-2.82-.41-4.33-1.34-6.24-.78-1.6-1.75-3.58-2.3-7l-.04-.28h.07c2.1 0 4.5-.21 4.98-.27.36-.04.73-.05 1.09-.03-1.68 3.66-1.04 8.15-.8 9.46.13.69.23 1.01.34 1.32.1.31.2.6.32 1.33.3 1.81.17 2.97 0 4.58a43.44 43.44 0 0 0-.31 4.75v1.06c0 .58 0 1.24-.02 2.33l-.04 1.4c-.11-.7-.27-1.47-.52-2.33l-.2-.67a37.42 37.42 0 0 1-.84-3.18 17.53 17.53 0 0 1-.39-6.24v.01Zm5.15 12.58c.1.66.25 1.28.39 1.83.29 1.18.5 2.04.05 2.49-.59.59-1.91.65-2.67.12-.45-.31-.6-.77-.68-1.41.29-.65.44-1.36.51-4.58.02-1.1.02-1.76.02-2.38v-1.01c.02-2.08.18-3.52.31-4.68a15.6 15.6 0 0 0 0-4.78 6.97 6.97 0 0 0-.36-1.46c-.09-.28-.19-.57-.31-1.21-.17-.92-.91-5.65.84-9.22 1.66.32 3.42 1.31 5.38 3.03a16.2 16.2 0 0 0-1.5 5.22 7.42 7.42 0 0 0 .06 2.47c.1.62.22 1.32.11 3.03-.2 3.03-.83 4.9-1.39 6.55-.63 1.86-1.17 3.47-.77 5.99h.01Zm-1.5-26.99c.45-.72.99-1.33 1.62-1.83a8.63 8.63 0 0 1 6-1.79c.54.09.92.27 1.08.53.34.52-.37 1.52-1.26 2.8-.62.89-1.39 1.98-2.09 3.32-1.91-1.65-3.66-2.64-5.34-3.02l-.01-.01Zm12.06-25.62c-.24-1.4-.74-2.39-1.11-3.11-.19-.37-.44-.88-.36-.96.05-.05.2-.11.44-.11.37 0 .92.14 1.35.51 1.21 1.06 1.14 4.07-.18 8.11l.01-.88a19.3 19.3 0 0 0-.16-3.56h.01Zm3.33 9.88c.14.68.32 1.2.55 1.58-.7-.15-1.85-.7-2.63-2.1a8 8 0 0 1-.67-1.61s-.17-.53-.27-1.09l-.05-.27c.97-2.54 2.94-8.57.58-10.65-.88-.77-2.29-.95-2.86-.35-.45.48-.15 1.07.23 1.83.34.68.81 1.61 1.04 2.9.19 1.1.17 2.28.15 3.42-.02.98-.03 1.9.08 2.78-.37.95-.78 1.84-1.16 2.57l-.03.06c-.18.33-.5.94-.77 1.82-.63 2.04-.4 3.73-.21 5.08v.06l.08.56c.34 2.78.24 5.16.15 7.26-.07 1.77-.14 3.3.08 4.66l.25 1.48v.06c.2 1.07.55 3.07.38 3.28h-.01c-.3 0-1.57-1.3-2.2-1.94l-.03-.03a53.8 53.8 0 0 0-2.13-2.09c.69-1.34 1.46-2.43 2.14-3.4 1.1-1.56 1.89-2.69 1.27-3.65-.29-.44-.84-.75-1.6-.87-1.66-.28-4.54.31-6.6 1.94a7.93 7.93 0 0 0-1.95 2.3 6.78 6.78 0 0 0-1.56 0c-.94.11-3.2.25-5.07.25-.4-3.23-.15-6.15.74-8.68.52-.43 1.05-.81 1.57-1.18 1.47-1.04 2.99-2.13 3.95-4.25a7.18 7.18 0 0 0 .86-3.97 7.2 7.2 0 0 0-1.35-3.32c-.03-.87.06-1.62.28-2.44.29-1.1 2.28-4.39 4.08-6.25a7.46 7.46 0 0 0 1.33 2.83 2.2 2.2 0 0 0 1.73.87h.05a3.33 3.33 0 0 0 2.25-1.12c.26-.34 0-.67-.43-1.2-.29-.35-.68-.83-1.15-1.53l-.3-.45c.3.17.67.3 1.2.29 1.34-.02 2.48-.93 3.14-2.51.37-.89.68-1.89.42-3.11-.38-1.78-.86-3.99-2.76-4.61-1.68-.55-3.88.47-4.71 2.17-.62 1.26-.65 2.47-.12 4.3.09.31.49 1.1 1.04 2.04-.36.07-.77.28-1.22.61a19.52 19.52 0 0 1-.28-2.51v-.06c-.1-2.07-.28-5.91 1.76-7.48a5.25 5.25 0 0 1 5.01-.63c3.2 1.35 3.88 6.31 4.17 8.43.26 1.87.47 4.15.68 6.36v.05c.3 3.13.58 6.09.98 8.13a7.37 7.37 0 0 0-.07 3.35l-.03.03Zm-17.03-1.33c.15-.94.13-1.73.08-2.47.21.45.39 1 .47 1.67.17 1.44-.34 2.57-.79 3.57-.87 1.93-2.24 2.9-3.69 3.93l-.06.04-.48.34a13.11 13.11 0 0 1 2.43-3.44c.94-1.01 1.76-1.88 2.04-3.66v.02Zm6.37-14.18.08.01 1 1.57c.48.72.89 1.22 1.19 1.58l.29.37a2.7 2.7 0 0 1-1.53.7 1.5 1.5 0 0 1-1.18-.6 7.26 7.26 0 0 1-1.28-2.95c.58-.49 1.08-.72 1.41-.68h.02Zm.57-.66a18.27 18.27 0 0 1-1.25-2.33c-.48-1.65-.46-2.66.07-3.75.66-1.36 2.47-2.2 3.79-1.78 1.48.48 1.91 2.45 2.25 4.04.21.96 0 1.76-.38 2.66-.31.75-1.05 2.02-2.47 2.04-.52 0-.79-.18-1.12-.41a3.08 3.08 0 0 0-.89-.47ZM121.18 64c.14-.95.21-1.43-.23-1.55l-.14-.02c-.32 0-.49.36-.73.85-.05.1-.15.31-.25.48l-.04-.59a10.58 10.58 0 0 0-.88-4.08c-.37-.77-.65-.99-1.96-2.08-.69-.57-1.64-1.36-3.07-2.6-2.65-2.3-3.54-3.22-4.33-4.47-.47-.74-.78-1.41-1.42-2.77a8.2 8.2 0 0 1-.49-1.71l.11-.49c.25-1.06.54-2.26.48-3.96a11.63 11.63 0 0 0-.7-3.36v-.02a14.2 14.2 0 0 1 2.75 5.47 14 14 0 0 0 1.65 3.91c.38.59.56.75.83.99.28.25.66.59 1.55 1.7a25.56 25.56 0 0 1 2.5 3.69 31.7 31.7 0 0 0 2.51 3.82l.21.27c.58.76 1.18 1.55 1.81 2.78.78 1.52 1.08 2.68.88 3.45a3.1 3.1 0 0 1-1.17 1.74c-.02-.18 0-.58.14-1.44l-.01-.01Zm-38 .64c-1.39-.05-1.78-.19-1.89-.28-1.25-.97 0-3.96 1.47-6.23.24-.38.51-.73.81-1.07a20.89 20.89 0 0 0-.39 7.57v.01Zm-8.07-41.41c.32-.04.65.38.95.97-.2-.32-.4-.56-.6-.67a1.23 1.23 0 0 0-.57-.14c.08-.13.16-.16.22-.16Zm2.93 5.72c1.1 1.4 2.27 2.64 3.48 3.7a7.4 7.4 0 0 1-.84-.48l-.15-.09c-.53-.31-2.07-1.2-3-4.06.16.38.33.7.51.93Zm-3.02-6.48c-.63.07-.89.59-1.06 1.16l-.31.14-.04.02c-.31.15-.71.33-.83.24-.11-.08-.23-.37-.22-.79 0-.5.18-1.15.57-1.41 1.08-.71 1.91-1.14 2.88-.24 1.5 1.39 3.15 3.7 4.9 6.89.66 1.2 1.84 1.55 3.7 2.02 2.09.52 3.68.55 4.84.57 1.19.02 1.77.05 2 .43.17.28.18.75.04 1.27a3.7 3.7 0 0 1-1.66 2.2c-.96.51-2.33.39-3.96-.34-.51-.31-1-.57-1.48-.8a23.6 23.6 0 0 1-5.75-5.36c-.32-.41-.63-1.31-.97-2.28-.66-1.91-1.34-3.87-2.65-3.72Zm-9.98 16.68.01-.01c.04.05.12.17.16.42-.04.12-.26.56-.41.84-.02-.68.1-1.08.24-1.24v-.01Zm-.32 8.81c-1.14-1.02-1.22-2.68-.27-5.06.38 1.38 1 2.97 1.86 4.75-.1.09-.43.26-1.59.3v.01Zm2.86 4.79c.24 1.06-.33 2.26-.9 2.97l-.33.42c-2.19 2.74-3.52 4.39-3.66 5.27-.15.91.08 1.54.27 2.11.2.56.34.97.05 1.55-.35.68-.84.87-1.04.92-.25.06-.4.02-.44 0-.03-.06-.01-.31 0-.44.03-.4.07-.94-.35-1.27a.89.89 0 0 0-.55-.18c-.23 0-.44.07-.64.13-.28.09-.52.16-.73.07-.31-.14-.44-.72-.71-1.99l-.06-.29a14.5 14.5 0 0 0-.91-2.99l-.06-.13c-.28-.71-.55-1.19-.78-1.62-.3-.55-.55-.99-.71-1.76.9.46 1.93.62 2.86.43a.3.3 0 0 1-.02.09c-.07.31-.17.73-.18 1.25-.03.98.02 1.3.63 2.76.25.58.53 1.05.73 1.37-.04.4-.02.84.06 1.25.09.46.29 1.04.72 1.16.1.03.37.06.61-.21.58-.65.13-1.31-.39-2.08l-.21-.31c.06-.32.18-.56.33-.68.47-.37 1.65-2.41 2.25-4.07.36-.99.24-1.94-.31-2.56-.51-.56-1.31-.76-2.19-.55-.92.23-1.1.33-1.64.63l-.27.15c-.34.19-1.15.45-1.75.13-.29-.16-.49-.3-.64-.42-.24-.18-.47-.35-.79-.27a.78.78 0 0 0-.53.4 6.89 6.89 0 0 1-1.55-3.69 12.72 12.72 0 0 1-.13-3.11c.46.17 1.04.34 1.89.56 1.05.27 5.87 1.03 8.93.95l.38.26a5.5 5.5 0 0 1 2.76 3.77v.02Zm-11.6 1.62.18.13c.17.12.39.29.74.48.89.48 1.98.14 2.48-.13l.28-.15c.52-.29.63-.35 1.45-.55.61-.15 1.12-.04 1.44.31.36.4.42 1.07.16 1.78a14.2 14.2 0 0 1-2 3.72c-.15.11-.27.26-.37.45a6.39 6.39 0 0 1-.31-.65c-.59-1.39-.6-1.59-.57-2.43.02-.45.1-.83.17-1.12.09-.4.16-.71-.08-.94a.53.53 0 0 0-.39-.15c-.11 0-.21.02-.28.04-.34.09-1.56.32-2.84-.53l-.11-.07c0-.08.02-.16.06-.19h-.01Zm-.56-16.81c-.17 2.11-.6 3.4-1.12 4.97v.04c-.22.64-.44 1.18-.63 1.67-.25.64-.48 1.2-.63 1.82-.2-.14-.33-.28-.4-.44-.18-.4.17-.99.38-1.35l.15-.27a38.8 38.8 0 0 0 2.26-6.45l-.01.01Zm-.01-21.75c-.73.12-1.06.09-1.2.06l.02-.03c.13-.19.39-.43.72-.64.29.21.49.47.54.59l-.08.02Zm.13.76c.62-.1.72-.51.73-.68.03-.42-.33-.83-.59-1.07.12-.04.22-.06.3-.07.56 0 1.43 1.05 1.59 2.17.13.9.09 2.02-.82 2.22-.32.07-.65.02-.9-.04-.03-.34-.11-.58-.25-.74a.65.65 0 0 0-.57-.24c-.43.02-.69.16-.79.43-.05.15-.08.44.32.77.14.12.32.23.53.32-.04.6-.18 1.42-.33 2.24-.25-.99-.35-1.51-.41-1.86-.09-.46-.12-.65-.37-1.19l-.27-.55-.02-.04c-.31-.63-.58-1.17-.54-1.58.03-.26.12-.51.26-.75 0 .21.07.35.12.42.27.36.88.43 2 .24h.01Zm-22.62 9.45c.08-.08.15-.17.22-.27l.02.33c0 .39-.09.72-.25.91v-.97h.01Zm-5.21-3.57c-.28-.1-.46-.3-.63-.49-.21-.23-.49-.55-.93-.47-.72.13-.97 1.13-1.19 2.01-.21.83-.27 1.5-.31 2-.02.23-.05.57-.09.7-.1-.05-.28-.21-.34-.27l-.28-.23a8.75 8.75 0 0 1-.18-1v-.04a5.49 5.49 0 0 1-.06-1.58c.21-1.27.56-1.35.96-1.45.38-.09.89-.21 1.14-1.05.07-.23.3-.46.68-.67a4.91 4.91 0 0 1 3.18-.39c1.38.44 2.02 1.96 2.32 3.15l.03.12a2.01 2.01 0 0 0-.96-.97c-.69-.29-1.32.03-1.88.31-.52.26-.97.48-1.44.31l-.02.01Zm-4.34 4.14c.16.5.33.92.47 1.24l.15.37-.06-.04c-.43-.31-.61-1.04-.56-1.56v-.02.01Zm20.04 10.29c.33-.94.81-1.71 1.43-2.29a4.53 4.53 0 0 1 3.19-1.24 5.62 5.62 0 0 1 2.51.62l-.31.09c-.89.27-2.54.78-5.56 2.22-.4.19-.8.38-1.26.58v.02ZM42 83.23l-.14.06c.3.76.61 1.55.69 2.92.14 2.38-.64 4.43-1.15 5.79-.17.46-.32.85-.41 1.17-.3 1.15-.59 2.13-.85 3.01-.79 2.66-1.27 4.26-.4 5.98l.18.32c.24.43.52.91.47 1.54-.06.8-.08.98-1.79 1.01-1.7.04-2.54-.55-2.66-.7-.27-.33-.16-.68.21-1.6.31-.77.7-1.73.78-3.06l.06-.68c.13-1.22.32-2.88-.32-10-.31-3.46-.55-5.73-.71-7.22v-.04c-.14-1.23-.21-1.9-.23-2.38-.04-.64-.11-1.29-.23-1.98.51.02 1.2.07 2.12.3 1.13.28 2.05.7 2.8 1.05l.73.33c-.03.59 0 1.19.06 1.83.11 1.04.38 1.74.65 2.41l.14-.05v-.01Zm.35-23.38c.33.06.67.12.99.16.91 2.38.58 7.83-.31 11.49a45.4 45.4 0 0 1-.91 3.12c-.4 1.26-.76 2.36-.91 3.61l-.43-.19-.06-.03c-.76-.35-1.71-.79-2.92-1.09-1.1-.27-1.87-.3-2.43-.33h-.02a32.75 32.75 0 0 0-.85-3.06l.1-.48c1.15-5.51.71-5.67.35-5.79-.16-.06-.35-.02-.54.1a3.75 3.75 0 0 0-1.43 2.46c-.13 1.02.26 2.29.72 3.75l-.13.57c-.3 1.31-.43 1.91-.01 2.51.32.46.69.61 1.15.67.13.71.22 1.39.25 2.07.03.51.1 1.22.23 2.38v.04c.16 1.5.41 3.76.72 7.26.64 7.04.45 8.73.32 9.87a7.7 7.7 0 0 0-.06.69 6.81 6.81 0 0 1-.25 1.47c.02-.54-.02-1.1-.11-1.68a14.84 14.84 0 0 0-1.21-3.86c-.39-.96-.93-2.26-1.66-4.24-1.66-4.49-1.18-6.77-.96-7.43.37.14.82.15 1.28.03a2.63 2.63 0 0 0 1.84-1.57.5.5 0 0 0-.27-.63c-.51-.24-2.26.13-3.11 1.1l-.27-.14c-.42-.2-.81-.39-1.17-1.13-.62-1.3-1.98-6.65-3.02-10.9-.43-1.77-.96-3.17-1.34-4.19-.27-.71-.67-1.78-.53-1.89.09-.04.49.18.76.32.55.3 1.31.7 2.31.87 2.08.35 3.75-.54 6.3-2.03a71.18 71.18 0 0 0 6.33-4.08c.44.06.85.13 1.25.21l.01-.01ZM34.54 76.5a.67.67 0 0 1-.34-.29c-.16-.23-.17-.47-.03-1.15.12.43.26.92.38 1.44h-.01Zm.04-8.28c0 .45-.1 1.5-.55 3.78a5.69 5.69 0 0 1-.29-2.08c.1-.77.53-1.39.84-1.7ZM32.4 83.21a3.44 3.44 0 0 1 1.81-.79c-.25.36-.66.64-1.13.76a1.6 1.6 0 0 1-.68.03Zm12.11-21.73.03.42a9.9 9.9 0 0 0-.37-1.82h.12l.21 1.2c0 .05 0 .11.02.21l-.01-.01Zm-.36 8.44c-.24 2.3-.56 4.66-.86 6.72-.02.13-.02.28-.03.46-.01.55-.03 1.18-.49 1.41-.21.1-.47.11-.81.01.13-1.27.49-2.38.9-3.66.29-.9.62-1.92.92-3.17.13-.53.25-1.13.36-1.78l.01.01ZM42.78 46.9c.59 3.22 1.44 5.68 2.06 7.48.79 2.27 1.26 3.64.54 4.44-.14.15-.29.26-.47.34-.87-4.61-2.01-8.31-2.92-11.29-1.43-4.68-2.3-7.5-.71-9.15.09-.09.59-.32 1.03-.51-.47 2.79 0 6.09.47 8.69Zm-.28 12.2-.49-.09c.3-.19.36-.16.5-.09.12.05.23.14.34.24l-.35-.06Zm64.36-21.2c.24.73.61 1.84.65 3.14.03.93-.05 1.69-.16 2.36-.24-1.76-.44-3.88-.64-5.96l.15.46Z"/>
  </g>
  <defs>
    <clipPath id="a">
      <path fill="#fff" d="M2 14h121.05v96.03H2z"/>
    </clipPath>
  </defs>
</svg>