<svg xmlns="http://www.w3.org/2000/svg" width="90" height="90" fill="none">
  <path fill="#B3B0E8" d="M16.3 53.4h-1v1h1v-1Zm4.6 0h-1v1h1v-1Zm4.6 0h-1v1h1v-1Zm-13.9 4.3h-1v1h1v-1Zm4.7 0h-1v1h1v-1Zm4.6 0h-1v1h1v-1Zm4.6 0h-1v1h1v-1Zm4.6 0h-1v1h1v-1ZM11.6 62h-1v1h1v-1Zm4.7 0h-1v1h1v-1Zm4.6 0h-1v1h1v-1Zm4.6 0h-1v1h1v-1Zm4.6 0h-1v1h1v-1Zm-18.5 4.2h-1v1h1v-1Zm4.7 0h-1v1h1v-1Zm4.6 0h-1v1h1v-1Zm4.6 0h-1v1h1v-1Zm4.6 0h-1v1h1v-1Zm-13.8 4.3h-1v1h1v-1Zm4.6 0h-1v1h1v-1Zm4.6 0h-1v1h1v-1ZM52.4 57a16.9 16.9 0 1 0 0-33.8 16.9 16.9 0 0 0 0 33.7Z"/>
  <path stroke="#1A174F" stroke-linecap="round" stroke-linejoin="round" d="M46.8 71.4c-9 .2-55.2-14.5-29.4-27.5 18-9.1 5.6-20.7-4.9-22.8m0 0c1.5 3.6 2 7.1.4 9.8C9 37.2-1.2 32.3 1.6 25.6c1.8-4.4 6.3-5.5 11-4.5Zm0 0A66.6 66.6 0 0 0 .5 3.4M57 4c39.3 2.9 40 57.4 2.2 66M56.3 3.5c.5 1.9-.7 3.8-2.6 4.3-2 .5-4-.6-4.6-2.4-.5-1.9.7-3.8 2.6-4.3 2-.5 4 .6 4.6 2.4ZM53 54.2v27.4M46.1 21l-6.5 6.1a2 2 0 0 1-2.8 0c-.7-.7-.7-1.8 0-2.5l6.5-6.1a2 2 0 0 1 2.8 0c.8.7.8 1.8 0 2.5Z"/>
  <path stroke="#1A174F" stroke-linecap="round" stroke-linejoin="round" d="m58 29.8-9 8.5-9-11.5 5.7-5.4 12.4 8.4Zm-9.5 9 10.1-9.4c1-1 2.8-1 3.9 0l.8.8-14 13-.8-.8c-1-1-1-2.6 0-3.6ZM69 48.4l-14.8-9.7 4.3-4 10.4 13.7Z"/>
</svg>
