<svg xmlns="http://www.w3.org/2000/svg" width="91" height="92" fill="none">
  <path fill="#B3B0E8" d="M5.4 25.8h-1v1h1v-1Zm4.3 0h-1v1h1v-1Zm4.3 0h-1v1h1v-1ZM1 30.3H0v1h1v-1Zm4.4 0h-1v1h1v-1Zm4.3 0h-1v1h1v-1Zm4.3 0h-1v1h1v-1Zm4.5 0h-1v1h1v-1ZM1 34.7H0v1h1v-1Zm4.4 0h-1v1h1v-1Zm4.3 0h-1v1h1v-1Zm4.3 0h-1v1h1v-1Zm4.5 0h-1v1h1v-1ZM1 39.1H0v1h1v-1Zm4.4 0h-1v1h1v-1Zm4.3 0h-1v1h1v-1Zm4.3 0h-1v1h1v-1Zm4.5 0h-1v1h1v-1ZM5.4 43.6h-1v1h1v-1Zm4.3 0h-1v1h1v-1Zm4.3 0h-1v1h1v-1Zm27.8 20.3a17 17 0 0 0 16.8-17A16.8 16.8 0 1 0 25 47c0 9.4 7.5 17 16.8 17Z"/>
  <path stroke="#1A174F" stroke-linecap="round" stroke-linejoin="round" d="M90 81.2a20 20 0 0 1-18-2.9 19.5 19.5 0 0 1-5.4-6.8s0 0 0 0m0 0a20.3 20.3 0 0 1-2-10.4c.1-2.4.7-4.7 2.1-6.5 1.5-1.8 3.8-2.9 6-2.4 3.3.8 5 5 4 8.4-.8 3.3-3.2 5.9-5.8 8-1.2.8-2.8 2-4.4 2.9Zm0 0-2.3 1.3A88 88 0 0 1 47 79.9M35.5 82c-56.1 2.8-39-108.3 29.8-74.6"/>
  <path stroke="#1A174F" stroke-linecap="round" stroke-linejoin="round" d="M67.7 13.6c1.9 0 3.4-1.6 3.4-3.6s-1.5-3.6-3.4-3.6c-2 0-3.5 1.6-3.5 3.6s1.5 3.6 3.5 3.6ZM41.2 62.4V91m-13-57.7 6-6.2 22 22.7c.6.5.6 1.3 0 1.8L52 56.1c-.5.5-1.3.5-1.8 0l-22-22.8h0Zm17.6 18.2 6-6.2m-3.3 8.9 6-6.2"/>
  <path stroke="#1A174F" stroke-linecap="round" stroke-linejoin="round" d="m28.2 33.3-2.4-8.7 8.5 2.5m14.5 21.3L31.3 30.2m-4.2-1 3.2-3.3"/>
</svg>
