<svg xmlns="http://www.w3.org/2000/svg" width="125" height="125" fill="none">
  <path fill="#78E0ED" d="M39.6 39.6h-3.2v3.2h3.2v-3.2Zm13.3-.2h-3.2v3.2h3.2v-3.2Zm13.6 0h-3.2v3.2h3.2v-3.2ZM25.6 53.2h-3.2v3.3h3.2v-3.3Zm13.6 0H36v3.3h3.2v-3.3Zm13.7 0h-3.2v3.3h3.2v-3.3Zm13.6 0h-3.2v3.3h3.2v-3.3Zm13.6 0H77v3.3h3v-3.3ZM25.6 67h-3.2v3.2h3.2V67Zm13.6 0H36v3.2h3.2V67Zm13.7 0h-3.2v3.2h3.2V67Zm13.6 0h-3.2v3.2h3.2V67Zm13.6 0H77v3.2h3V67ZM25.6 80.8h-3.2v3.3h3.2v-3.3Zm13.6 0H36v3.3h3.2v-3.3Zm13.7 0h-3.2v3.3h3.2v-3.3Zm13.6 0h-3.2v3.3h3.2v-3.3Zm13.6 0H77v3.3h3v-3.3ZM39.2 94.6H36V98h3.2v-3.3Zm13.7 0h-3.2V98h3.2v-3.3Zm13.6 0h-3.2V98h3.2v-3.3Z"/>
  <path fill="#E8E7F8" fill-rule="evenodd" d="M102 90c-7.3-3.7-20.3-.2-26.8 4.5-6.5 4.6-2.7 10.7 3.5 12.5 3.1 1 7 1 9 .8h7c4.2-.3 8.2-1.3 11-4.6 3.6-4.5 1.4-10.8-3.6-13.2Z" clip-rule="evenodd"/>
  <path fill="#CFE5DC" d="M103.4 11.8a45.6 45.6 0 0 0-18-2.6A58 58 0 0 0 55 14.3a42 42 0 0 0-14.7 12.3c-1.4 1.8-6.5 8.7-4.8 11.2 1.4 2 6.7-.1 16.5-3.2 13.5-4.3 20.3-6.4 27.1-7.1 8.8-1 17.4 0 29 1.4 9.5 1.1 13 2.1 13.8.5 1.5-3.1-7.5-13.1-18.4-17.6Z"/>
  <path fill="#FCC" d="M68.8 65.4c-2.7 2-2.2 4.9-4.9 11a34 34 0 0 1-7.5 11.2 26.3 26.3 0 0 1-13 6.2c-7.7 1.7-13.1 0-13.4 1.4-.2 1.2 3.7 3.2 5.4 4a24 24 0 0 0 9.8 1.8 42 42 0 0 0 14.6-2.7c4.4-1.5 6.6-2.2 9.2-4.1 3.8-3 5-5.8 9.4-12.9 7.5-12.3 11.5-16 10.4-17.8-.8-1.3-3 .3-11.2.8-5.9.4-7-.3-8.8 1v.1Z"/>
  <path fill="#1A174F" d="M119 23.9c-1-1.6-2.7-3.7-4.8-6.2C102.3 7 91 7.1 80.2 7.3h-.5l-.2-5-.1-.2h-1.8V4c.3 1.9.3 2.9 0 3.3-.1.3-.7.4-1.8.5-.8 0-1.7.2-2.9.4-8.9.3-20.4 6.4-26.9 14.3-3.2 4-4.9 8-4.8 11.8l.1.2h.3l.5-.2v.3c1.2 2.4 5.8 4 9.5 4.8A99.5 99.5 0 0 0 79.8 41l1.1 17h-1.2c-2.4.2-4.8.3-7.2.7-1 .2-2 .4-3 1l-.8-.6c-.6-.3-1-.3-1.6 0-1.3.6-2 3-2.7 4.8l-.5 1.5a69.2 69.2 0 0 1-4.3 7.5c-1.2 2-2.6 3.9-3.9 5.7-1.4 2-2.9 4.1-4.2 6.3l-1.3 2.3c-1.2 2.6-2.7 5.6-5.4 5a77 77 0 0 0-8.9.8c-2.2.2-4 .5-5.2.5l-2.8-.1c-1.9-.2-3.8-.4-5.6.4-1 .5-3 1.8-3.6 3.2-1 1.8-.3 4.5.2 6.5l.2.8c1.1 5 .1 8.2-3.3 10.5-1.9 1-3.5.3-5.3-.6a8.8 8.8 0 0 0-6.4-1.4l-.1.1v.4h.2c2.5-.4 4.4.6 6 1.4 2 1 3.7 1.8 5.9.6 3.6-2.4 4.7-6 3.5-11.1l-.2-.8c-.4-2-1-4.5-.3-6.1a9 9 0 0 1 3-2.8c-.3.9-.2 1.4 0 1.8.5.9 2 1.2 3 1a252.7 252.7 0 0 0 16.7 3.5c.2.4 0 .7-.5 1.4l-.1.2-2.7 3.3-2 2.5-.5.6c-.9 1-1.7 2.2-1.7 3.4 0 .7.4 1.4 1 2l.2.1c.6.2 1.1-.3 1.7-1.3.8.5 2.3 1 3.8 1.5l.7.2a53.7 53.7 0 0 1 7.7 3.6c1.3.7 2.7 1.5 4 1.7l-.5 1c-.3.5-.2 1-.1 1.2.2.5.8.7 1.3.7h.2c1.3 0 2.5-2.3 3.8-4.8l1-2.1c1.3-2.3 2.8-4.3 4.2-6.3 2-2.5 3.7-4.9 5-7.8l.4-1.2 7.3-.3c2.2 0 5-.2 7.5.2l.5 8.3c0 .6.2 1.4.6 1.7.3.2.5.3.8.2.1 0 .2-.1.2-.3.3-2 0-4.2-.3-6.3-.2-1-.4-2.2-.4-3.4l.4.1a350.5 350.5 0 0 0 1.6 13.3c.6.3 1.2.4 2 .4a33 33 0 0 0 8-1.7c5.7-1.7 12.8-3.9 18-1.2h.3l.1-.1-.1-.4a15.5 15.5 0 0 0-9.1-1.2c-3.2.4-6.5 1.4-9.4 2.3-4 1.2-7.4 2.2-9.4 1.4l-1.4-12.6h.2c1.5.4 3 .7 4.6.6.6 0 2-.2 2.3-1.4l4.4.5c.5 0 1 0 1.2-.4.2-.3.3-.7.2-1.2 0-.4-.3-.9-.6-1.3-1.2-1.4-2.9-1.3-4.2-1.3l-1.4.1c-1.2-5-2.6-10-4-14.9v-.1c-.8-2.7-1.6-5.5-1.3-8.3.4-3.7 2.7-6.7 4.8-9.6l1.2-1.6c.5-.7 1-1.4 1-2.3.1-.4 0-.8-.1-1.2l-.1-.5c-.2-.6-.6-1-1.1-1.3-1-.4-1.9-.2-2.7 0a66 66 0 0 1-7.2 1l-.9-17.3a97.7 97.7 0 0 0 34.5-10.2 9 9 0 0 0 3-2c.4 0 .6-.2.8-.5.4-.6 0-1.9-1.5-4ZM92.7 97.3H94c1.5-.2 2.8-.1 3.8 1l.5 1-.1.7c-.2.2-.5.2-.7.2l-4.4-.5-.1-1.2-.3-1.2Zm-6-24c-.3 3 .6 5.8 1.4 8.5v.2c1.4 4.8 2.7 9.8 3.9 14.7l-6.5.3-.2-2.1.5.1.8.3c1 .4 2.3 1 3.1.4.4-.3.7-.7.8-1.3.2-1.2-.3-2.4-.8-3.3-2.3-5.2-3.8-10-4.6-14.7l-.1-.7 1-2.6c1-2.6 1-3.2.5-3.4-.2-.2-.6 0-1.5 1v-.3c.5-1.7 1.4-3.1 2.3-4.5l3.8-5.7 1 .3c.5 0 1.2-.1 1.6-.6 0 .7-.5 1.3-.9 1.9l-1.2 1.6c-2.2 3-4.5 6-4.9 9.9Zm-42.1-43 4-3.2h.1c3-2.4 6-5 9.5-6.8a65.5 65.5 0 0 1 16.6-6c2.4-.5 5.2-1.2 7.9-1.2h.2a9 9 0 0 1 6.7 2.5c0 .1-.3.4-1.7.9l-3.2.8-1.3.4a7.1 7.1 0 0 0-4.4 6.2c-7.2.7-13.1 1.5-19 2.9a73.4 73.4 0 0 0-17.5 6.5c0-1 .7-2 2-3h.1Zm35.9-6.2 1 16h-1.2a676.8 676.8 0 0 1-.8-15.7l1-.3Zm.6-.3c10.9-4.2 25.1-5.6 34 .3l.8.8a10 10 0 0 0 2.7 2l.2.1.7.5v.2c-.7 0-2.1-.5-5-2.1a48.5 48.5 0 0 0-12.7-1.9 104 104 0 0 0-20.7 0Zm.4 34.2-1.1-17.2 1.2-.1 1 17.2h-1Zm0 .6h1l.1 1h-1v-1ZM62 107.7l-.6 1.2-1.1 1.9c-.9 1.4-1.7 2.7-2.4 4.1l-.7 1.8c-.3 1.1-.8 2.7-1.3 3-.2.2-.5.2-.8.2.1-.1.3-.2.3-.4.2-.3.1-.8-.3-1.2 2.3-4 6.3-10.7 10.5-17.5h1c-.5 1.2-1.3 2.5-2.5 3.7-.8.8-1.5 2-2 3.2Zm-7 11.5-.4.2h-.1l.3-.6.2.5Zm11.4-20.8-1.1 1.8-17.9 1.4c-1.4.2-2.8.2-3.8-.6a1 1 0 0 1-.3-.5v-.4c.3-.4 1-.7 1.5-.7l21.6-1Zm-.4 1.8.9-1.5c0 .5 0 1-.2 1.5H66Zm18.8-28.5c.9-1 1.3-1.3 1.5-1.4 0 .2-.1.8-.8 2.6l-.7 1.7v-2.9Zm-.4 3.9-.4.6V73l.3-.4c0 1 0 1.9.2 3Zm.2.9c.8 4.8 2.3 9.7 4.7 14.8.4 1 .8 2 .6 3 0 .4-.2.7-.5.9-.6.4-1.7 0-2.6-.4l-.8-.4-.7-.2c-.5-5-.8-10.6-1.2-17l.5-.7Zm-2 21.2c-.3.5-.8.8-1.3 1-.6.1-1.4 0-2-.2h-.4c-2.2-.4-4.5-.4-6.6.2h-.4c-.8.3-1.6.5-2.3.3l.4-.7 12.5-.6Zm-12.3 0a119 119 0 0 1 4.6-7h.3l-.5 1.4v1c.2.7.7 1 1.1 1.2 1.3.5 2.6.8 3.9 1h.3a5 5 0 0 1 1.6.3c.5.2 1 .7 1 1.4v.1l-12.3.5ZM80.7 82h.1l1.7-2.2v.5l.7 13.2a33.8 33.8 0 0 1-7.2-3.4c1.1-3 3-5.5 4.8-8ZM69.3 94.8c5.4-8.6 9.9-15.3 12.9-19.5l.2 3.6-2 2.8c-1.9 2.6-3.8 5.2-5 8.3l-.8.2a121.8 121.8 0 0 0-5 7.5h-2l1.7-2.9Zm14 2.3V97c-.1-1-.9-1.7-1.5-2l-1.7-.3h-.4a17 17 0 0 1-3.7-1c-.3-.1-.7-.3-.8-.7v-.7l.6-1.6c.4 0 1 .3 1.4.6 2 1.2 4 2.1 6 2.9l.2 2.9h-.2Zm.3-19c.3 6 .7 11.2 1.1 16l-1-.4-.6-13.4L83 79l.6-1Zm-.7 0-.2-3.5.7-1c0 1.2 0 2.4.2 3.5l-.7 1Zm3-18.5v.2c1.4-.2 3-.4 4.4 0l.3.2-3.7 5.5a19 19 0 0 0-2.4 4.7l-.2 1.3-.5.6-.6-11.8V60l2.6-.3v-.1Zm-3.3 14-.5-7v-1l-.4-5.3 1-.1v.1l.6 12.5-.7.9Zm2.1 21.1L85 97h-1v-2.6l.9.3Zm-11.3-34c-1 .2-2.3.3-3.3-.5l-.2-.1c1-.5 2-.7 2.7-.8 2.4-.4 4.8-.5 7.1-.6H81v1l-7.6 1Zm0 .7 7.7-1 .5 6.3.5 7.7-1.7 2.4c-2.8 4-6.6 9.9-11 16.8l-2.2 3.7c-.8-2-3-3.2-6.4-3.4l-3.3-.4a47 47 0 0 1-5.4-.6c-2.6-.4-2.7-.9-2.7-1 0 0 0-.3 1.6-1 2.4-.9 3.9-3.7 5-6l.2-.1 3-5.5c2.4-4 4.8-8.2 6.5-12.8l.2-.5c.6-1.9 1.3-3.8 2.7-5 .2-.3.5-.5.8-.6l.4.3c1.2 1 2.5.8 3.7.7ZM22.7 94.8c.3-.3 1-.2 1.2-.1 5 .7 7.7.4 11.3 0 2.3-.4 5.2-.8 9.6-1 4.3.4 7.7 1.1 11.3 1.8l8.2 1.5c1 .2 1.7.5 2.3.8l-21.7 1c-.7 0-1.6.3-2 1v1c0 .3.3.5.5.7 1.1 1 2.6.9 4.2.7 5.7-.5 11.6-1 17.4-1.3-4.1 6.6-8 13.1-10.2 17a35.4 35.4 0 0 0-16.3-6.5h-.1l1-1.7c1-1.7 2.1-3 3-4.2 1.3-1.5 2-2.4 1.8-3.1-.2-.4-.6-.7-1.3-.8h-.5c.2-.3.2-.7 0-1.2-.4-.5-2.6-1-3.1-1H39c-1 0-12.8-2.4-13.6-2.6H25c-.9 0-2.1-.2-2.5-.9-.2-.3-.2-.7 0-1.1Zm20 7.4h.1c.7.1.8.3.8.4.2.4-.7 1.4-1.6 2.5a36.3 36.3 0 0 0-4.1 6.1c-.4 0-.6-.3-.6-.5l.2-.5c.4-.9 1-1.6 1.6-2.3l1.5-2c.2-.2.3-.7.5-1.2.4-1 1-2.5 1.6-2.5Zm-2 2.3-.6 1.1-1.4 1.9-1.7 2.3-.3.9c0 .3.2.7.5.9H37l-.2.6.1.5c-.4.5-.8 1-1.1 1-.5-.5-.8-1-.8-1.6 0-1 .7-2 1.6-3l.4-.5 2-2.6 1.8-2.1-.3.6Zm-2.8 7.6 1.6.5.3.1 5.1 2.1 1 .4a36 36 0 0 1 5.1 2.9l1.1.9-2.3-1.3-.6-.3a56.7 56.7 0 0 0-7.2-3.2l-.8-.3a32 32 0 0 1-3.5-1.4l.2-.4Zm13.4 5.6v-.1l-1.2-1-4-2-1-.3-4.5-2c5 1 9.7 3.1 13.8 6.2l-.5 1a19 19 0 0 1-2.6-1.9v.1Zm2.2 3.7.6-1.2c1 .4 1.6.4 2.2 0l.2-.2c-.7 1.3-1.4 2.3-2 2.3h-.2c-.3 0-.8-.1-.9-.4l.1-.5Zm4.4-4.5.6-1.7a53 53 0 0 1 2.3-4l1.1-2c.3-.3.5-.7.7-1.2.6-1 1.2-2.3 2-3a11 11 0 0 0 2.7-4.2h1l-.4.8c-1.3 2.9-3 5.3-4.9 7.8-1.4 2-3 4-4.2 6.3l-1 2-.5.9.6-1.7Zm9.5-16.7c.2-.6.2-1.2.1-1.8l.7.9.1.8h-.9Zm2-1.9-.4.8v.2l.1.2c1 .4 2 .1 3-.1l.4-.1c2-.6 4.3-.6 6.4-.2h.3c.8.2 1.6.4 2.3.2.8-.2 1.5-.9 1.7-1.6h.3l.1 2.2c-2.6-.3-5.3-.2-7.5-.2l-7.3.4-.1-1a3 3 0 0 0-.4-.8h1.1Zm15.7-.7.1 1.5-.6.5-.1.5H84v-.1l-.1-2.3h1Zm-.7 3.1v.1l.4 3.6c.3 1.9.6 3.9.4 5.8H85c-.3-.3-.5-.9-.5-1.4a626.5 626.5 0 0 1-.2-8v-.1Zm.7-.8.2-.2v.6l-.3-.1.1-.3Zm8.5-40.6c-.2.5-.8.6-1.3.6a3 3 0 0 1-.7-.2l.2-.3c.4-.6.8-1.1 1.3-1 .2 0 .4.1.5.3l.1.1v.5Zm-.5-1.6c-.8 0-1.3.6-1.8 1.4l-.2.4-.5-.2c-1.6-.5-3.2-.3-4.7-.1l-2.6.3v-1a44 44 0 0 0 7.2-1.1c.8-.1 1.6-.3 2.3 0 .2 0 .4.2.5.4H93ZM82 40a653 653 0 0 0-1-15.6 105 105 0 0 1 20.6 0c6.8.5 10 .8 12.5 1.7 2.2 1.2 3.8 2 4.8 2.1A96.2 96.2 0 0 1 82.1 40Zm34.2-15.5-1-.9a29 29 0 0 0-17-4 55 55 0 0 0-18.7 4.2 6.5 6.5 0 0 1 4-5.6l1.3-.3c3.3-.8 5-1.3 5.3-2.1 0-.2 0-.4-.2-.6-4-4.1-10.5-2.6-15.2-1.5h-.1a73 73 0 0 0-16.8 6c-3.4 2-6.5 4.5-9.5 7l-4.1 3.2c-1.7 1.3-2.5 2.5-2.4 3.7h-.1a18 18 0 0 1 4.6-10.8A40.2 40.2 0 0 1 73 8.8a33 33 0 0 1 2.9-.5c1.2-.1 1.9-.2 2.2-.7.5-.6.4-1.6.2-3.7l-.1-1.2h.8l.2 5c0 .1 0 .3.2.3h.9c10.7-.2 21.8-.4 33.5 10.2 6.5 7.5 6.4 9 6.3 9.4v-.1c-.1-.5-.6-.8-1-1h-.2c-1.2-.7-2-1.4-2.6-2Zm-73.7 9.7v-.3A90.2 90.2 0 0 1 79 24.6v.8c.1 3.8.4 8.6.8 14.8a99.2 99.2 0 0 1-20.1-.3c-.6 0-4.2-.3-8.1-1.2-5-1.3-8.2-2.9-9-4.5ZM27.8 94c1 0 2 .2 3 .1l5.2-.5a102 102 0 0 1 9.5-.8c2.6 0 4-2.8 5.2-5.3l1.2-2.3 4.3-6.2 3.9-5.7a60.3 60.3 0 0 0 4.8-9.2c.6-1.7 1.3-4 2.4-4.5h1.1l.5.4-.7.5a12.4 12.4 0 0 0-2.9 5.3l-.2.4c-1.6 4.6-4 8.7-6.3 12.7l-3.1 5.6-.2.2c-1.2 2.3-2.5 4.8-4.7 5.7-1.4.6-2 1-2 1.7.2 1.2 3.7 1.6 8.7 2l3.1.4h.1c3 .2 5 1.1 5.8 2.7-.6-.3-1.3-.6-2.2-.8-3-.4-5.7-1-8.2-1.4-3.5-.7-7-1.4-11.4-1.8-4.4.2-7.4.5-9.7.8a34 34 0 0 1-11.5 0c1.4-.3 2.9-.2 4.3 0Zm58.4 5h-.5l-.2-1.4 6.6-.3.3 1.4.2 1-6.4-.7Zm0 .6 6.2.7c-.4.7-1.4.8-1.7.8-1.5.1-3-.3-4.5-.6h-.4v-.9h.4Z"/>
</svg>
