<svg xmlns="http://www.w3.org/2000/svg" width="125" height="125" fill="none">
  <path fill="#F99" d="M69.6 49.6h-3.2v3.2h3.2v-3.2Zm13.3-.2h-3.2v3.2h3.2v-3.2Zm13.6 0h-3.2v3.2h3.2v-3.2ZM55.6 63.2h-3.2v3.3h3.2v-3.3Zm13.6 0H66v3.3h3.2v-3.3Zm13.7 0h-3.2v3.3h3.2v-3.3Zm13.6 0h-3.2v3.3h3.2v-3.3Zm13.6 0H107v3.3h3.1v-3.3ZM55.6 77h-3.2v3.2h3.2V77Zm13.6 0H66v3.2h3.2V77Zm13.7 0h-3.2v3.2h3.2V77Zm13.6 0h-3.2v3.2h3.2V77Zm13.6 0H107v3.2h3.1V77ZM55.6 90.8h-3.2v3.3h3.2v-3.3Zm13.6 0H66v3.3h3.2v-3.3Zm13.7 0h-3.2v3.3h3.2v-3.3Zm13.6 0h-3.2v3.3h3.2v-3.3Zm13.6 0H107v3.3h3.1v-3.3Zm-40.9 13.8H66v3.3h3.2v-3.3Zm13.7 0h-3.2v3.3h3.2v-3.3Zm13.6 0h-3.2v3.3h3.2v-3.3Z"/>
  <path fill="#CFE5DC" fill-rule="evenodd" d="M16.9 51.6c2.7 9 8 14.4 11.8 17.4 6.4 5 13.2 5.5 21 6.4 6.6.8 15.6-.7 20.2-6 6.9-7.6 4.7-25.9-11.2-22.6a49 49 0 0 1-30.8-3.1c-7.6-2.8-14-1.7-11 8Z" clip-rule="evenodd"/>
  <path fill="#FCC" fill-rule="evenodd" d="M96.9 36.3c2.9-.2 8.1-1.2 11.3-1.8 5.4-1 5.8-6 3-9.6-5.5-7.2-16-3-18.9 4.4-1.5 3.9-.2 7.2 4.6 7Z" clip-rule="evenodd"/>
  <path fill="#E8E7F8" fill-rule="evenodd" d="M24.2 102.8c.7-7-6.2-16-12-19.8-5.8-3.7-9.5 1-9.1 6.4.2 2.8 1.4 5.9 2.1 7.4.5 1.1 1.3 3.4 2.3 5.5 1.5 3.2 3.4 6 7 7.2 4.8 1.6 9.2-2 9.7-6.7Z" clip-rule="evenodd"/>
  <path fill="#1A174F" fill-rule="evenodd" d="M116.3 42a45.5 45.5 0 0 1-1.9-16c-1.3 0-2.5-.3-3.8-.5-3-.4-6-.9-9 .8.9 2.1 1.6 5.4-.1 7.3a3.2 3.2 0 0 1-5.4-1.4c-.7-2.4 1.4-5 3.2-6.5A8 8 0 0 0 98 24a8.8 8.8 0 0 0-8.1-1.7 18 18 0 0 0-8 5.1 54.3 54.3 0 0 1-25.3 16.4 50.3 50.3 0 0 1-30.5-3.4c-2.4-1-4.4-1.1-6-.8-1.2.3-2 1-2.7 1.8-.6.9-1 2-1 3.4 0 2.5 1 5.5 3 8.7 1.9 2.8 5.2 5.9 9 7.6 1.7.8 3.5 1.2 5.2 1.2 0-1 .1-2.1.6-3.3.9-2.4 2.4-3.6 3.8-3.8 2.2-.3 4 1.3 3.8 3.5-.2 1.5-1.3 3.1-4.2 4.5-.6.3-1.3.5-2 .6a9 9 0 0 0 4 4.8c1.8 1.1 4 1.8 6.4 2a17 17 0 0 0 9-2c-.3-1-.5-2.2-.4-3.5.2-2.8 1.4-4.3 2.8-5 2.1-1 4.6.3 4.8 2.7.2 1.5-.6 3.4-3.2 5.3-.6.5-1.2 1-1.9 1.3a7.1 7.1 0 0 0 5 3.4c1 .1 1.9.2 2.8.1a71 71 0 0 0 9-13.2c3.5-6.6 11-2.6 7 4.5a21 21 0 0 1-15 10.4 42 42 0 0 1-23 12.8l-.7.2a53.8 53.8 0 0 0 18 7.9c6.6 1.4 12.8 1 18.3-1.3a29.5 29.5 0 0 0 13.9-12c2.7-4.2 4.7-9.4 6-15.5.9-3.9 1.5-7.6 2.2-11.2 2-11.7 3.7-21.2 9.5-26l1.2 1.4c-5.3 4.3-7 13.5-9 24.9L100.2 67a49.5 49.5 0 0 1-6.3 16 31.1 31.1 0 0 1-14.7 12.7 33.1 33.1 0 0 1-19.4 1.4 58.6 58.6 0 0 1-19.8-9A51.1 51.1 0 0 0 15.4 103a11.4 11.4 0 0 1-4.6 3.1c-2.4.8-4.8.1-6.1-2-.6-1-1-2-1-3.4A6 6 0 0 0 2 96.1c-2.4-3-2.7-5.6-.5-8.8 1-1.6 1-2.8.6-4.5-1.3-4.4.7-7.3 5.2-7.8 11.6-1.6 23.2 5.3 33 11.4.7-.2 1.4-.5 2.2-.6a41 41 0 0 0 20.8-11.1c-.4 0-1 0-1.4-.2a9 9 0 0 1-5.2-2.6l-1.1-1.6a18.8 18.8 0 0 1-9.7 2c-2.7-.2-5.2-1-7.2-2.2a10.4 10.4 0 0 1-4.8-6c-2.1 0-4.2-.5-6.3-1.5a23 23 0 0 1-9.6-8.2 18.2 18.2 0 0 1-3.3-9.6c0-1.7.5-3.2 1.3-4.4.8-1.3 2.1-2 3.7-2.5 1.9-.4 4.2-.2 7 .9 11.6 4.3 21 5.4 29.5 3.3a52.7 52.7 0 0 0 24.4-16 21 21 0 0 1 8.8-5.5 10 10 0 0 1 9.8 2.2c.6.5 1.1 1.2 1.6 2 3.3-2 6.7-1.5 10-1 1.4.2 2.7.4 4 .4.2-1 .5-2 .9-2.9 1.4-3.4 3.3-4.8 5-5.1a3.6 3.6 0 0 1 4.2 4.5c-.5 1.7-2.2 3.6-5.8 4.8-1 .3-2 .4-2.9.5-.2 1.3-.3 2.8-.2 4.4 0 3.2.7 7 2 11l-1.7.5Zm1-20a15 15 0 0 0-.7 2.2c.7 0 1.3-.2 2-.4 3-1 4.3-2.3 4.6-3.5.3-1.4-.7-2.6-2.1-2.4-1.2.2-2.6 1.4-3.8 4.1Zm-17.2 5.4c-1 1-2.8 2.8-2.3 4.3.3 1 1.6 1.4 2.4.6 1-1 .4-3.6 0-5v.1ZM35.4 62.1l1.5-.5c2.2-1 3-2.2 3.2-3.1.1-1-.8-1.7-1.7-1.6-1 .2-1.9 1-2.5 2.7a8 8 0 0 0-.5 2.5Zm21.2 5.6 1.4-1c2-1.5 2.6-2.8 2.5-3.8 0-1.1-1.3-1.6-2.3-1.2-.9.4-1.6 1.5-1.7 3.5-.1 1 0 1.8.1 2.5Zm11.1 4.8.3-.1c4.3-1.2 8.7-4.3 11.4-9 2.8-5-1.5-7.4-4-2.8a77.9 77.9 0 0 1-7.7 11.9Zm-53.5 29.3A52.1 52.1 0 0 1 38 87.1c-9.2-5.7-20-11.8-30.5-10.4-3.4.5-4.6 2.3-3.7 5.6.6 2.2.5 4-.8 6-1.8 2.6-1.5 4.3.4 6.8 1.5 2 2 3 2.1 5.6 0 1 .3 1.8.7 2.5 1 1.5 2.5 1.8 4 1.3a9.5 9.5 0 0 0 4-2.7Z" clip-rule="evenodd"/>
</svg>
