<svg xmlns="http://www.w3.org/2000/svg" width="200" height="200" fill="none">
  <ellipse cx="103.1" cy="116.3" fill="#F99" rx="50" ry="49.6"/>
  <path fill="#F99" d="M36.1 66.4h-2.8v3h2.8v-3Zm12.2 0h-2.8v3h2.8v-3Zm12.2 0h-2.8v3h2.8v-3ZM24 78.8h-3v2.9h3v-3Zm12.1 0h-2.8v2.9h2.8v-3Zm12.2 0h-2.8v2.9h2.8v-3Zm12.2 0h-2.8v2.9h2.8v-3Zm12.2 0h-2.8v2.9h2.8v-3ZM24 91h-3v3h3v-3Zm12.1 0h-2.8v3h2.8v-3Zm12.2 0h-2.8v3h2.8v-3Zm12.2 0h-2.8v3h2.8v-3Zm12.2 0h-2.8v3h2.8v-3ZM24 103.4h-3v3h3v-3Zm12.1 0h-2.8v3h2.8v-3Zm12.2 0h-2.8v3h2.8v-3Zm12.2 0h-2.8v3h2.8v-3Zm12.2 0h-2.8v3h2.8v-3Zm-36.6 12.4h-2.8v2.9h2.8v-3Zm12.2 0h-2.8v2.9h2.8v-3Zm12.2 0h-2.8v2.9h2.8v-3Z"/>
  <mask id="a" width="197" height="101" x="1.4" y="49.4" fill="#000" maskUnits="userSpaceOnUse">
    <path fill="#fff" d="M1.4 49.4h197v101H1.4z"/>
    <path d="M197.6 57.1c-.1.1-22.4 15.8-40.4 27.6.5.4 1 1 1.4 1.6 2.2 3 5 5 7.4 6.7 2.6 2 4.8 3.5 5.3 5.8.4 2.1 0 4.2-1 6a10 10 0 0 1-5 4.2c-1.4.7-3 1.2-4.7 1.6-2.6.7-5.3 1.5-8.2 3.2l-2 1.2-4 2.3c.7 2 .6 3-1 5.7-.4.9-1 1.6-1.7 2.3-1.4 1.2-3 2-4.7 2.5-1.6.5-3.2.5-4.3 0l-.6-.6c-.9-1-.6-1.8.2-2.5.6-.6 1.6-1 2.5-1.5 1-.6 2.2-1.2 2.8-1.9 1-1 3.2-2.6 5.9-4.3l-.5-1.1-1-2.3-.4-1.2a92.3 92.3 0 0 0-7-15.3l-1.5.5c-3 .4-4.3.1-5-1-.5-1-.1-2.6.4-5l.7-.7c-3-2-6.3-1.5-9.7 3.7l-.4.6c-1.3 2-2 3.1.6 7.3a23 23 0 0 0 3.9 4.3c3.3 3.2 7 6.7 7.6 13.4.3 2.6-.6 4.6-1.9 6a14 14 0 0 1-4.7 3.4 11 11 0 0 1-5.8.8c.2.5.3 1 .3 1.6.1 1.3-.1 2.6-1.1 3.5a5.2 5.2 0 0 1-6.6-.2l-.4-.3.4 1.2c.6 1.5.6 2.8.4 3.8-.2 1-.8 1.9-1.4 2.3l-.7.4c-1.3.5-2.8.1-4.5-.7l.1.2.2.7v1c0 .8 0 1.6-.5 2.4-.4.8-1 1.4-2.2 1.6a6 6 0 0 1-.7 0 12 12 0 0 1-5.2-2c.2 1.2 0 2-.5 2.8l-.2.2c-.8.6-2.3.8-4 .6a10.6 10.6 0 0 1-6.4-3.4l-.9-1c-1 1-2.2 2-3 2v.1a4 4 0 0 1-2.4-.6A3.5 3.5 0 0 1 80 144c0-1 .3-2 .8-2.8.9-1.4 2.2-2.5 2.5-2.7.4-.3 1.2-1 1.8-1.8l.8-1.1c0-.5-.2-1.3-.8-2a3.3 3.3 0 0 0-1.8-1.3c-.7-.1-1.6 0-2.4.3a11 11 0 0 0-2.8 1.7L80 136c1.3 1.2 2.2 2.6 1.6 3.7v.1L80 142a3 3 0 0 1-1.6 1c-.6.2-1.5 0-2.2-.4a3.8 3.8 0 0 1-1.7-3.7 8 8 0 0 1 2.4-4.5l-.3-.2-1.8 2.1c-1.1 1.6-1.3 1.7-3.8 1.4h-.4c-.8-.4-1.4-1-1.8-1.9a5 5 0 0 1-.4-2.4c0-.2 0-.5.2-.6.2-.8.6-1.5 1.1-2 .5-.5 1.1-.7 1.8-.7.8 0 2.6 1.3 3.7 2.2l1 .7.3.2 2-2 .3-.3c.2-.3.2-.6.2-.8 0-.4-.2-.7-.5-1a3.1 3.1 0 0 0-2-1 5 5 0 0 0-2 .1c-2.6.7-5 2.5-5.6 2.9l-.3.2a3.4 3.4 0 0 1-4.7-.8v-.1c-.9-1.3-.6-2.7.3-3.9l1.5-1.4.8-.4a42.2 42.2 0 0 0-3.8-4.7l-.3-.2c-1.5-1.1-9.4-6.9-15.7-8.7l-.8-.3-1.4 1.8-.7.4c-2.1.8-7-1.5-11.5-4.5a65.5 65.5 0 0 1-11.4-9.3c-.2-.4 0-.6.3-.7.9-.4 5.3 2 10.5 4.7 4.9 2.5 10.4 5.4 14 6.7a119.5 119.5 0 0 0 9.5-19.4c-.5 0-1-.1-1.4-.3-2.9-1-3.3-2.3-2.9-3.7.4-1 1.2-2 2-2.9l.4-.5c.5-.5 1-.8 1.4-.9.4 0 .8 0 1.1.3.3.2.6.6.8 1a8 8 0 0 1 .2 4.2l-.6 2c1 0 2.1-.5 3.2-.9 2.7-1 5.5-2 9.3 1.1 6.8 5.7 11.2 4.3 16 2.7h.1c-.4 0-1.3 0-2.4.2-3 .3-7.7.8-10.9-1.2A368.6 368.6 0 0 0 59.3 84l-3-1.5C45.5 76.7 8.8 56.9 2.4 51l.6-.6C9.2 56.3 46 76 56.7 82l3 1.5A343.1 343.1 0 0 1 72 91c3 1.9 7.4 1.4 10.4 1.1 1.8-.2 3-.3 3.4.3 3.5-1.1 7.2-2 12.3 0l6.1 2.2a46.9 46.9 0 0 1 17 8.7l-.2-.3c-2.9-4.6-2-5.9-.5-8.1l.4-.6c3.8-5.8 7.5-6.2 10.9-3.9l.4-.2c1.9-1.4 5.3-3.7 9.2-5.4 3.9-1.8 8.2-3 11.9-2 1.1.2 2.2.7 3.2 1.5 18-11.8 40.5-27.7 40.6-27.7l.5.6Zm-41.1 28a194 194 0 0 1-19.1 11.6c3.2 5.3 5.7 12 7 15.4l.4 1.2 1 2.2.4 1.1 3.9-2.3 2-1.2c2.8-1.7 5.6-2.5 8.3-3.2l4.7-1.6a9.2 9.2 0 0 0 4.5-4c1-1.5 1.3-3.4 1-5.3-.5-2-2.5-3.5-5-5.3a31 31 0 0 1-7.6-7l-1.5-1.6ZM135 96.8l1.2-.4a20 20 0 0 0-4.4-5l-.5.4c-.5 2.2-.8 3.7-.4 4.5.4.7 1.6.9 4.1.5Zm2-.7c3.5-1.7 10.7-6.1 18.8-11.4-.8-.6-1.7-1-2.7-1.2-3.5-1-7.7.2-11.4 1.9-3.8 1.7-7.2 4-9 5.3l-.2.2c1.6 1.2 3 3 4.4 5.2Zm8.8 21.7c-2.6 1.6-4.7 3-5.6 4-.7.8-1.9 1.5-3 2-1 .6-1.8 1-2.3 1.5-.5.4-.7.8-.2 1.4l.4.3c.9.5 2.2.5 3.7 0 1.5-.4 3-1.2 4.3-2.3.7-.6 1.3-1.3 1.7-2 1.3-2.3 1.4-3.3 1-4.9ZM125 107.4l-.4-.3.4.6a23.2 23.2 0 0 1 4 12 13 13 0 0 1-.8 4.1c-.4 1-1 1.8-1.6 2.3a5 5 0 0 1-2.6.8c-.9 0-1.8-.2-2.7-.5a8 8 0 0 1-3.6-2.4 54.2 54.2 0 0 0-13.2-13.7 111.7 111.7 0 0 1-8.4-6.3c-.4.6-1 1-1.6 1.3-.4.2-.8 0-1-.3-.3-.2-.4-.6-.4-1v-1c.2-.4.6-.7 1-.7s1 .2 1.7.7v-.5l-.1-.2c-.2-.2-.3-.3-.6-.3a3 3 0 0 0-1 .1 5 5 0 0 0-2.2 1 20.3 20.3 0 0 1-9 4.4c-3.1.6-6.3.4-8.8-.8a8.1 8.1 0 0 1-3-1.8c-.6-.9-.3-1.7 1.7-2.5l.4-.2c2.2-1 5.4-2.4 6.4-4.5 1-2 2.4-3 3.6-3.8-4.3 1.4-8.7 2-15.1-3.3-3.4-2.9-6-2-8.5-1-1.2.5-2.5 1-3.8 1a124.7 124.7 0 0 1-9.5 19.6l.6.2a59.4 59.4 0 0 1 15.9 8.8l.2.1c.5.3 1.4 1.2 2.2 2.3l1.9 2.8.5-.2c1.7-.6 3.5-.5 4.4.8l.4.8c0 .5 0 .9-.3 1.3a3 3 0 0 1-.7.8l-.8.4c-.8.2-1.4.1-2-.2-.4-.3-.8-.8-1.2-1.7l-.6-1-.7.4-1.4 1.2c-.7 1-1 2-.3 3h.1c.3.5.8 1 1.5 1 .6.2 1.3.1 2.1-.4l.2-.1h.1c.6-.5 3-2.3 5.9-3 .7-.2 1.4-.3 2.2-.2a4 4 0 0 1 1.8.7l.7.6c.4.4.6.9.7 1.3 0 .5 0 1-.4 1.5l-.4.4-1.9 1.8.4.3h.1a10 10 0 0 1 3-2c1-.4 2-.5 2.9-.4.9.3 1.7 1 2.2 1.6.8 1 1.1 2 1 2.6-.1.5-.5 1-1 1.6-.6.8-1.5 1.6-1.9 1.8-.3.3-1.5 1.3-2.3 2.6a4 4 0 0 0-.7 2.2c.1 1 .6 1.7 1.1 2 .6.5 1.3.6 2 .5.6 0 1.6-.9 2.5-1.9l-1.7-1.5c-1.1-1-1.7-1.5-1.4-2.4.3-.7.9-1.3 1.6-1.7.7-.3 1.5-.4 2.2-.2.7.2 1.2.4 1.5.8.4.4.6 1 .5 2 0 .7-.8 1.9-1.6 3l1 1.1c.3.4.6.8 1 1a9.8 9.8 0 0 0 4.8 2.1c1.5.2 2.8 0 3.4-.4l.1-.1c.5-.7.5-1.5.1-2.5v-.3a27.7 27.7 0 0 1-7.6-7.3l-.7-1c-.3-.4-.3-.7 0-1h.2c.5 0 1.9.7 3.3 1.9 1 .9 2.2 2 3.1 3.2a29 29 0 0 1 2.2 3.7l2 1.1a8 8 0 0 0 3.7 1.2h.6c.8-.2 1.4-.7 1.7-1.2.3-.6.4-1.4.4-2v-1l-.2-.5a6 6 0 0 0-.5-1 34.4 34.4 0 0 1-8.7-8.3c-.4-.6-.7-1.1-.7-1.5 0-.3 0-.5.3-.6h.2c1.3-.3 3.6 1.6 5.6 4.1 1.6 1.8 3 4 4 5.7 1.7 1 3.4 1.6 4.6 1.1l.6-.3c.4-.3.9-1 1-1.8.2-.9.2-2-.3-3.4-.3-.8-.7-1.8-1.3-2.8a75 75 0 0 1-9.4-9.4l-1-1.5c-.4-.6-.4-1 0-1.2.1-.1.2-.1.4 0 .8.1 2.2 1.5 3.8 3.3a94 94 0 0 1 6.7 8.3l2 1.5c1 .8 2 1.1 3 1.1s2-.3 2.6-.9c.7-.7 1-1.7.9-2.8l-.4-1.8c-.5 0-1-.2-1.6-.4l-1.6-.8c-.4-.4-.7-.8-.7-1.3 0-.4.1-.8.6-1.2 1-.9 1.7-.7 2.4 0 .5.4.9 1.2 1 1.8l.5 1.2c1.8.2 4 .1 5.7-.7a13 13 0 0 0 4.4-3.1 7 7 0 0 0 1.8-5.5c-.6-6.3-4.2-9.8-7.4-12.9Zm-6.4 21.7 1 .3c0-.3-.2-.5-.3-.8a4 4 0 0 0-.9-1.5c-.3-.4-.7-.5-1.3 0-.3.3-.4.5-.4.7 0 .2.2.4.5.6.3.3.8.5 1.4.7Zm-16-5.3a72 72 0 0 0 6.4 6.8 90 90 0 0 0-7.3-8l.9 1.2Zm-3 11c1.5 1.7 3.6 3.7 5.6 5.1a33 33 0 0 0-3-4.2c-1.9-2.2-3.8-3.9-4.8-4 0 .3.3.6.5 1l1.7 2Zm-4.2 7.8c.3.3.8.8 1.5 1.2l-1.5-2.1a16.3 16.3 0 0 0-5-4.6l.4.5c1.3 1.6 3.7 4.3 4.6 5Zm-10.3-.3 1.7 1.6a6 6 0 0 0 1.4-2.6c0-.6 0-1-.2-1.3l-1.3-.6a3 3 0 0 0-1.6.2c-.5.3-1 .7-1.2 1.2-.1.4.3.8 1.2 1.5Zm-7.6-7.4a7.8 7.8 0 0 0-2.4 4.1c0 .7 0 1.3.4 1.8.2.5.6.9 1 1.1.6.4 1.2.5 1.6.4.4-.2.8-.4 1.2-.9l1.5-2.1c.4-.8-.4-1.9-1.5-2.9l-1.8-1.5Zm-1.7-1.1-1.1-.9c-1.1-.8-2.7-2-3.3-2-.4 0-.9.1-1.2.5a3.7 3.7 0 0 0-1 2 4 4 0 0 0 .2 2.1c.3.6.8 1.2 1.3 1.3l.3.1c2.1.3 2.2.1 3.1-1l1.7-2.1Zm-8-8.9-.3.2.5 1c.5.7.7 1.1 1 1.3.4.2.8.2 1.5.1l.4-.2.5-.6c.2-.2.2-.5.2-.8l-.2-.5c-.7-.9-2.2-1-3.6-.5ZM45 110.6c-3.6-1.4-9-4.2-13.7-6.7a80.8 80.8 0 0 0-9.6-4.7c0 .2.2.3.4.5 1.6 1.8 6 5.3 10.5 8.2 4.4 2.8 9 5 10.8 4.3l.4-.2c.4-.3.8-.8 1.2-1.4Zm10.3-20.9.6-2.2a6 6 0 0 0-.1-3.6c-.1-.4-.3-.6-.5-.7-.2-.1-.4-.2-.6-.1-.3 0-.6.2-.9.6l-.4.5c-.7.8-1.5 1.7-1.8 2.6-.3 1 0 2 2.3 2.7l1.4.2ZM97.8 93c-5-1.9-8.6-1-12 .1-.3.4-.8.7-1.5 1.1a9.3 9.3 0 0 0-3.9 3.8c-1.1 2.4-4.5 3.9-6.8 4.9l-.4.2c-1.3.6-1.6 1-1.4 1.3.4.5 1.5 1 2.7 1.6 2.4 1.1 5.4 1.3 8.4.7 3-.6 6-2 8.6-4.2a6 6 0 0 1 2.5-1.2h1.3c.4 0 .8.1 1 .4l.4.7v1l1.1.9c2 1.7 5.3 4 7.2 5.4l1.5 1a52.6 52.6 0 0 1 12 12.9 7 7 0 0 0 3.2 2c.8.3 1.6.5 2.4.5.8 0 1.5-.2 2.1-.7.6-.3 1-1 1.3-1.8.5-1.5.8-2.7.8-4a22.2 22.2 0 0 0-8.9-17c-5-3.9-10-5.6-15.4-7.4-2-.6-4-1.3-6.2-2.2Zm-2.2 10.7-1.4-.6-.2.2v.7l.1.5h.2a3 3 0 0 0 1.3-.9Z"/>
  </mask>
  <path fill="#1A174F" d="M197.6 57.1c-.1.1-22.4 15.8-40.4 27.6.5.4 1 1 1.4 1.6 2.2 3 5 5 7.4 6.7 2.6 2 4.8 3.5 5.3 5.8.4 2.1 0 4.2-1 6a10 10 0 0 1-5 4.2c-1.4.7-3 1.2-4.7 1.6-2.6.7-5.3 1.5-8.2 3.2l-2 1.2-4 2.3c.7 2 .6 3-1 5.7-.4.9-1 1.6-1.7 2.3-1.4 1.2-3 2-4.7 2.5-1.6.5-3.2.5-4.3 0l-.6-.6c-.9-1-.6-1.8.2-2.5.6-.6 1.6-1 2.5-1.5 1-.6 2.2-1.2 2.8-1.9 1-1 3.2-2.6 5.9-4.3l-.5-1.1-1-2.3-.4-1.2a92.3 92.3 0 0 0-7-15.3l-1.5.5c-3 .4-4.3.1-5-1-.5-1-.1-2.6.4-5l.7-.7c-3-2-6.3-1.5-9.7 3.7l-.4.6c-1.3 2-2 3.1.6 7.3a23 23 0 0 0 3.9 4.3c3.3 3.2 7 6.7 7.6 13.4.3 2.6-.6 4.6-1.9 6a14 14 0 0 1-4.7 3.4 11 11 0 0 1-5.8.8c.2.5.3 1 .3 1.6.1 1.3-.1 2.6-1.1 3.5a5.2 5.2 0 0 1-6.6-.2l-.4-.3.4 1.2c.6 1.5.6 2.8.4 3.8-.2 1-.8 1.9-1.4 2.3l-.7.4c-1.3.5-2.8.1-4.5-.7l.1.2.2.7v1c0 .8 0 1.6-.5 2.4-.4.8-1 1.4-2.2 1.6a6 6 0 0 1-.7 0 12 12 0 0 1-5.2-2c.2 1.2 0 2-.5 2.8l-.2.2c-.8.6-2.3.8-4 .6a10.6 10.6 0 0 1-6.4-3.4l-.9-1c-1 1-2.2 2-3 2v.1a4 4 0 0 1-2.4-.6A3.5 3.5 0 0 1 80 144c0-1 .3-2 .8-2.8.9-1.4 2.2-2.5 2.5-2.7.4-.3 1.2-1 1.8-1.8l.8-1.1c0-.5-.2-1.3-.8-2a3.3 3.3 0 0 0-1.8-1.3c-.7-.1-1.6 0-2.4.3a11 11 0 0 0-2.8 1.7L80 136c1.3 1.2 2.2 2.6 1.6 3.7v.1L80 142a3 3 0 0 1-1.6 1c-.6.2-1.5 0-2.2-.4a3.8 3.8 0 0 1-1.7-3.7 8 8 0 0 1 2.4-4.5l-.3-.2-1.8 2.1c-1.1 1.6-1.3 1.7-3.8 1.4h-.4c-.8-.4-1.4-1-1.8-1.9a5 5 0 0 1-.4-2.4c0-.2 0-.5.2-.6.2-.8.6-1.5 1.1-2 .5-.5 1.1-.7 1.8-.7.8 0 2.6 1.3 3.7 2.2l1 .7.3.2 2-2 .3-.3c.2-.3.2-.6.2-.8 0-.4-.2-.7-.5-1a3.1 3.1 0 0 0-2-1 5 5 0 0 0-2 .1c-2.6.7-5 2.5-5.6 2.9l-.3.2a3.4 3.4 0 0 1-4.7-.8v-.1c-.9-1.3-.6-2.7.3-3.9l1.5-1.4.8-.4a42.2 42.2 0 0 0-3.8-4.7l-.3-.2c-1.5-1.1-9.4-6.9-15.7-8.7l-.8-.3-1.4 1.8-.7.4c-2.1.8-7-1.5-11.5-4.5a65.5 65.5 0 0 1-11.4-9.3c-.2-.4 0-.6.3-.7.9-.4 5.3 2 10.5 4.7 4.9 2.5 10.4 5.4 14 6.7a119.5 119.5 0 0 0 9.5-19.4c-.5 0-1-.1-1.4-.3-2.9-1-3.3-2.3-2.9-3.7.4-1 1.2-2 2-2.9l.4-.5c.5-.5 1-.8 1.4-.9.4 0 .8 0 1.1.3.3.2.6.6.8 1a8 8 0 0 1 .2 4.2l-.6 2c1 0 2.1-.5 3.2-.9 2.7-1 5.5-2 9.3 1.1 6.8 5.7 11.2 4.3 16 2.7h.1c-.4 0-1.3 0-2.4.2-3 .3-7.7.8-10.9-1.2A368.6 368.6 0 0 0 59.3 84l-3-1.5C45.5 76.7 8.8 56.9 2.4 51l.6-.6C9.2 56.3 46 76 56.7 82l3 1.5A343.1 343.1 0 0 1 72 91c3 1.9 7.4 1.4 10.4 1.1 1.8-.2 3-.3 3.4.3 3.5-1.1 7.2-2 12.3 0l6.1 2.2a46.9 46.9 0 0 1 17 8.7l-.2-.3c-2.9-4.6-2-5.9-.5-8.1l.4-.6c3.8-5.8 7.5-6.2 10.9-3.9l.4-.2c1.9-1.4 5.3-3.7 9.2-5.4 3.9-1.8 8.2-3 11.9-2 1.1.2 2.2.7 3.2 1.5 18-11.8 40.5-27.7 40.6-27.7l.5.6Zm-41.1 28a194 194 0 0 1-19.1 11.6c3.2 5.3 5.7 12 7 15.4l.4 1.2 1 2.2.4 1.1 3.9-2.3 2-1.2c2.8-1.7 5.6-2.5 8.3-3.2l4.7-1.6a9.2 9.2 0 0 0 4.5-4c1-1.5 1.3-3.4 1-5.3-.5-2-2.5-3.5-5-5.3a31 31 0 0 1-7.6-7l-1.5-1.6ZM135 96.8l1.2-.4a20 20 0 0 0-4.4-5l-.5.4c-.5 2.2-.8 3.7-.4 4.5.4.7 1.6.9 4.1.5Zm2-.7c3.5-1.7 10.7-6.1 18.8-11.4-.8-.6-1.7-1-2.7-1.2-3.5-1-7.7.2-11.4 1.9-3.8 1.7-7.2 4-9 5.3l-.2.2c1.6 1.2 3 3 4.4 5.2Zm8.8 21.7c-2.6 1.6-4.7 3-5.6 4-.7.8-1.9 1.5-3 2-1 .6-1.8 1-2.3 1.5-.5.4-.7.8-.2 1.4l.4.3c.9.5 2.2.5 3.7 0 1.5-.4 3-1.2 4.3-2.3.7-.6 1.3-1.3 1.7-2 1.3-2.3 1.4-3.3 1-4.9ZM125 107.4l-.4-.3.4.6a23.2 23.2 0 0 1 4 12 13 13 0 0 1-.8 4.1c-.4 1-1 1.8-1.6 2.3a5 5 0 0 1-2.6.8c-.9 0-1.8-.2-2.7-.5a8 8 0 0 1-3.6-2.4 54.2 54.2 0 0 0-13.2-13.7 111.7 111.7 0 0 1-8.4-6.3c-.4.6-1 1-1.6 1.3-.4.2-.8 0-1-.3-.3-.2-.4-.6-.4-1v-1c.2-.4.6-.7 1-.7s1 .2 1.7.7v-.5l-.1-.2c-.2-.2-.3-.3-.6-.3a3 3 0 0 0-1 .1 5 5 0 0 0-2.2 1 20.3 20.3 0 0 1-9 4.4c-3.1.6-6.3.4-8.8-.8a8.1 8.1 0 0 1-3-1.8c-.6-.9-.3-1.7 1.7-2.5l.4-.2c2.2-1 5.4-2.4 6.4-4.5 1-2 2.4-3 3.6-3.8-4.3 1.4-8.7 2-15.1-3.3-3.4-2.9-6-2-8.5-1-1.2.5-2.5 1-3.8 1a124.7 124.7 0 0 1-9.5 19.6l.6.2a59.4 59.4 0 0 1 15.9 8.8l.2.1c.5.3 1.4 1.2 2.2 2.3l1.9 2.8.5-.2c1.7-.6 3.5-.5 4.4.8l.4.8c0 .5 0 .9-.3 1.3a3 3 0 0 1-.7.8l-.8.4c-.8.2-1.4.1-2-.2-.4-.3-.8-.8-1.2-1.7l-.6-1-.7.4-1.4 1.2c-.7 1-1 2-.3 3h.1c.3.5.8 1 1.5 1 .6.2 1.3.1 2.1-.4l.2-.1h.1c.6-.5 3-2.3 5.9-3 .7-.2 1.4-.3 2.2-.2a4 4 0 0 1 1.8.7l.7.6c.4.4.6.9.7 1.3 0 .5 0 1-.4 1.5l-.4.4-1.9 1.8.4.3h.1a10 10 0 0 1 3-2c1-.4 2-.5 2.9-.4.9.3 1.7 1 2.2 1.6.8 1 1.1 2 1 2.6-.1.5-.5 1-1 1.6-.6.8-1.5 1.6-1.9 1.8-.3.3-1.5 1.3-2.3 2.6a4 4 0 0 0-.7 2.2c.1 1 .6 1.7 1.1 2 .6.5 1.3.6 2 .5.6 0 1.6-.9 2.5-1.9l-1.7-1.5c-1.1-1-1.7-1.5-1.4-2.4.3-.7.9-1.3 1.6-1.7.7-.3 1.5-.4 2.2-.2.7.2 1.2.4 1.5.8.4.4.6 1 .5 2 0 .7-.8 1.9-1.6 3l1 1.1c.3.4.6.8 1 1a9.8 9.8 0 0 0 4.8 2.1c1.5.2 2.8 0 3.4-.4l.1-.1c.5-.7.5-1.5.1-2.5v-.3a27.7 27.7 0 0 1-7.6-7.3l-.7-1c-.3-.4-.3-.7 0-1h.2c.5 0 1.9.7 3.3 1.9 1 .9 2.2 2 3.1 3.2a29 29 0 0 1 2.2 3.7l2 1.1a8 8 0 0 0 3.7 1.2h.6c.8-.2 1.4-.7 1.7-1.2.3-.6.4-1.4.4-2v-1l-.2-.5a6 6 0 0 0-.5-1 34.4 34.4 0 0 1-8.7-8.3c-.4-.6-.7-1.1-.7-1.5 0-.3 0-.5.3-.6h.2c1.3-.3 3.6 1.6 5.6 4.1 1.6 1.8 3 4 4 5.7 1.7 1 3.4 1.6 4.6 1.1l.6-.3c.4-.3.9-1 1-1.8.2-.9.2-2-.3-3.4-.3-.8-.7-1.8-1.3-2.8a75 75 0 0 1-9.4-9.4l-1-1.5c-.4-.6-.4-1 0-1.2.1-.1.2-.1.4 0 .8.1 2.2 1.5 3.8 3.3a94 94 0 0 1 6.7 8.3l2 1.5c1 .8 2 1.1 3 1.1s2-.3 2.6-.9c.7-.7 1-1.7.9-2.8l-.4-1.8c-.5 0-1-.2-1.6-.4l-1.6-.8c-.4-.4-.7-.8-.7-1.3 0-.4.1-.8.6-1.2 1-.9 1.7-.7 2.4 0 .5.4.9 1.2 1 1.8l.5 1.2c1.8.2 4 .1 5.7-.7a13 13 0 0 0 4.4-3.1 7 7 0 0 0 1.8-5.5c-.6-6.3-4.2-9.8-7.4-12.9Zm-6.4 21.7 1 .3c0-.3-.2-.5-.3-.8a4 4 0 0 0-.9-1.5c-.3-.4-.7-.5-1.3 0-.3.3-.4.5-.4.7 0 .2.2.4.5.6.3.3.8.5 1.4.7Zm-16-5.3a72 72 0 0 0 6.4 6.8 90 90 0 0 0-7.3-8l.9 1.2Zm-3 11c1.5 1.7 3.6 3.7 5.6 5.1a33 33 0 0 0-3-4.2c-1.9-2.2-3.8-3.9-4.8-4 0 .3.3.6.5 1l1.7 2Zm-4.2 7.8c.3.3.8.8 1.5 1.2l-1.5-2.1a16.3 16.3 0 0 0-5-4.6l.4.5c1.3 1.6 3.7 4.3 4.6 5Zm-10.3-.3 1.7 1.6a6 6 0 0 0 1.4-2.6c0-.6 0-1-.2-1.3l-1.3-.6a3 3 0 0 0-1.6.2c-.5.3-1 .7-1.2 1.2-.1.4.3.8 1.2 1.5Zm-7.6-7.4a7.8 7.8 0 0 0-2.4 4.1c0 .7 0 1.3.4 1.8.2.5.6.9 1 1.1.6.4 1.2.5 1.6.4.4-.2.8-.4 1.2-.9l1.5-2.1c.4-.8-.4-1.9-1.5-2.9l-1.8-1.5Zm-1.7-1.1-1.1-.9c-1.1-.8-2.7-2-3.3-2-.4 0-.9.1-1.2.5a3.7 3.7 0 0 0-1 2 4 4 0 0 0 .2 2.1c.3.6.8 1.2 1.3 1.3l.3.1c2.1.3 2.2.1 3.1-1l1.7-2.1Zm-8-8.9-.3.2.5 1c.5.7.7 1.1 1 1.3.4.2.8.2 1.5.1l.4-.2.5-.6c.2-.2.2-.5.2-.8l-.2-.5c-.7-.9-2.2-1-3.6-.5ZM45 110.6c-3.6-1.4-9-4.2-13.7-6.7a80.8 80.8 0 0 0-9.6-4.7c0 .2.2.3.4.5 1.6 1.8 6 5.3 10.5 8.2 4.4 2.8 9 5 10.8 4.3l.4-.2c.4-.3.8-.8 1.2-1.4Zm10.3-20.9.6-2.2a6 6 0 0 0-.1-3.6c-.1-.4-.3-.6-.5-.7-.2-.1-.4-.2-.6-.1-.3 0-.6.2-.9.6l-.4.5c-.7.8-1.5 1.7-1.8 2.6-.3 1 0 2 2.3 2.7l1.4.2ZM97.8 93c-5-1.9-8.6-1-12 .1-.3.4-.8.7-1.5 1.1a9.3 9.3 0 0 0-3.9 3.8c-1.1 2.4-4.5 3.9-6.8 4.9l-.4.2c-1.3.6-1.6 1-1.4 1.3.4.5 1.5 1 2.7 1.6 2.4 1.1 5.4 1.3 8.4.7 3-.6 6-2 8.6-4.2a6 6 0 0 1 2.5-1.2h1.3c.4 0 .8.1 1 .4l.4.7v1l1.1.9c2 1.7 5.3 4 7.2 5.4l1.5 1a52.6 52.6 0 0 1 12 12.9 7 7 0 0 0 3.2 2c.8.3 1.6.5 2.4.5.8 0 1.5-.2 2.1-.7.6-.3 1-1 1.3-1.8.5-1.5.8-2.7.8-4a22.2 22.2 0 0 0-8.9-17c-5-3.9-10-5.6-15.4-7.4-2-.6-4-1.3-6.2-2.2Zm-2.2 10.7-1.4-.6-.2.2v.7l.1.5h.2a3 3 0 0 0 1.3-.9Z"/>
  <path stroke="#1A174F" stroke-width=".4" d="M197.6 57.1c-.1.1-22.4 15.8-40.4 27.6.5.4 1 1 1.4 1.6 2.2 3 5 5 7.4 6.7 2.6 2 4.8 3.5 5.3 5.8.4 2.1 0 4.2-1 6a10 10 0 0 1-5 4.2c-1.4.7-3 1.2-4.7 1.6-2.6.7-5.3 1.5-8.2 3.2l-2 1.2-4 2.3c.7 2 .6 3-1 5.7-.4.9-1 1.6-1.7 2.3-1.4 1.2-3 2-4.7 2.5-1.6.5-3.2.5-4.3 0l-.6-.6c-.9-1-.6-1.8.2-2.5.6-.6 1.6-1 2.5-1.5 1-.6 2.2-1.2 2.8-1.9 1-1 3.2-2.6 5.9-4.3l-.5-1.1-1-2.3-.4-1.2a92.3 92.3 0 0 0-7-15.3l-1.5.5c-3 .4-4.3.1-5-1-.5-1-.1-2.6.4-5l.7-.7c-3-2-6.3-1.5-9.7 3.7l-.4.6c-1.3 2-2 3.1.6 7.3a23 23 0 0 0 3.9 4.3c3.3 3.2 7 6.7 7.6 13.4.3 2.6-.6 4.6-1.9 6a14 14 0 0 1-4.7 3.4 11 11 0 0 1-5.8.8c.2.5.3 1 .3 1.6.1 1.3-.1 2.6-1.1 3.5a5.2 5.2 0 0 1-6.6-.2l-.4-.3.4 1.2c.6 1.5.6 2.8.4 3.8-.2 1-.8 1.9-1.4 2.3l-.7.4c-1.3.5-2.8.1-4.5-.7l.1.2.2.7v1c0 .8 0 1.6-.5 2.4-.4.8-1 1.4-2.2 1.6a6 6 0 0 1-.7 0 12 12 0 0 1-5.2-2c.2 1.2 0 2-.5 2.8l-.2.2c-.8.6-2.3.8-4 .6a10.6 10.6 0 0 1-6.4-3.4l-.9-1c-1 1-2.2 2-3 2v.1a4 4 0 0 1-2.4-.6A3.5 3.5 0 0 1 80 144c0-1 .3-2 .8-2.8.9-1.4 2.2-2.5 2.5-2.7.4-.3 1.2-1 1.8-1.8l.8-1.1c0-.5-.2-1.3-.8-2a3.3 3.3 0 0 0-1.8-1.3c-.7-.1-1.6 0-2.4.3a11 11 0 0 0-2.8 1.7L80 136c1.3 1.2 2.2 2.6 1.6 3.7v.1L80 142a3 3 0 0 1-1.6 1c-.6.2-1.5 0-2.2-.4a3.8 3.8 0 0 1-1.7-3.7 8 8 0 0 1 2.4-4.5l-.3-.2-1.8 2.1c-1.1 1.6-1.3 1.7-3.8 1.4h-.4c-.8-.4-1.4-1-1.8-1.9a5 5 0 0 1-.4-2.4c0-.2 0-.5.2-.6.2-.8.6-1.5 1.1-2 .5-.5 1.1-.7 1.8-.7.8 0 2.6 1.3 3.7 2.2l1 .7.3.2 2-2 .3-.3c.2-.3.2-.6.2-.8 0-.4-.2-.7-.5-1a3.1 3.1 0 0 0-2-1 5 5 0 0 0-2 .1c-2.6.7-5 2.5-5.6 2.9l-.3.2a3.4 3.4 0 0 1-4.7-.8v-.1c-.9-1.3-.6-2.7.3-3.9l1.5-1.4.8-.4a42.2 42.2 0 0 0-3.8-4.7l-.3-.2c-1.5-1.1-9.4-6.9-15.7-8.7l-.8-.3-1.4 1.8-.7.4c-2.1.8-7-1.5-11.5-4.5a65.5 65.5 0 0 1-11.4-9.3c-.2-.4 0-.6.3-.7.9-.4 5.3 2 10.5 4.7 4.9 2.5 10.4 5.4 14 6.7a119.5 119.5 0 0 0 9.5-19.4c-.5 0-1-.1-1.4-.3-2.9-1-3.3-2.3-2.9-3.7.4-1 1.2-2 2-2.9l.4-.5c.5-.5 1-.8 1.4-.9.4 0 .8 0 1.1.3.3.2.6.6.8 1a8 8 0 0 1 .2 4.2l-.6 2c1 0 2.1-.5 3.2-.9 2.7-1 5.5-2 9.3 1.1 6.8 5.7 11.2 4.3 16 2.7h.1c-.4 0-1.3 0-2.4.2-3 .3-7.7.8-10.9-1.2A368.6 368.6 0 0 0 59.3 84l-3-1.5C45.5 76.7 8.8 56.9 2.4 51l.6-.6C9.2 56.3 46 76 56.7 82l3 1.5A343.1 343.1 0 0 1 72 91c3 1.9 7.4 1.4 10.4 1.1 1.8-.2 3-.3 3.4.3 3.5-1.1 7.2-2 12.3 0l6.1 2.2a46.9 46.9 0 0 1 17 8.7l-.2-.3c-2.9-4.6-2-5.9-.5-8.1l.4-.6c3.8-5.8 7.5-6.2 10.9-3.9l.4-.2c1.9-1.4 5.3-3.7 9.2-5.4 3.9-1.8 8.2-3 11.9-2 1.1.2 2.2.7 3.2 1.5 18-11.8 40.5-27.7 40.6-27.7l.5.6Zm-41.1 28a194 194 0 0 1-19.1 11.6c3.2 5.3 5.7 12 7 15.4l.4 1.2 1 2.2.4 1.1 3.9-2.3 2-1.2c2.8-1.7 5.6-2.5 8.3-3.2l4.7-1.6a9.2 9.2 0 0 0 4.5-4c1-1.5 1.3-3.4 1-5.3-.5-2-2.5-3.5-5-5.3a31 31 0 0 1-7.6-7l-1.5-1.6ZM135 96.8l1.2-.4a20 20 0 0 0-4.4-5l-.5.4c-.5 2.2-.8 3.7-.4 4.5.4.7 1.6.9 4.1.5Zm2-.7c3.5-1.7 10.7-6.1 18.8-11.4-.8-.6-1.7-1-2.7-1.2-3.5-1-7.7.2-11.4 1.9-3.8 1.7-7.2 4-9 5.3l-.2.2c1.6 1.2 3 3 4.4 5.2Zm8.8 21.7c-2.6 1.6-4.7 3-5.6 4-.7.8-1.9 1.5-3 2-1 .6-1.8 1-2.3 1.5-.5.4-.7.8-.2 1.4l.4.3c.9.5 2.2.5 3.7 0 1.5-.4 3-1.2 4.3-2.3.7-.6 1.3-1.3 1.7-2 1.3-2.3 1.4-3.3 1-4.9ZM125 107.4l-.4-.3.4.6a23.2 23.2 0 0 1 4 12 13 13 0 0 1-.8 4.1c-.4 1-1 1.8-1.6 2.3a5 5 0 0 1-2.6.8c-.9 0-1.8-.2-2.7-.5a8 8 0 0 1-3.6-2.4 54.2 54.2 0 0 0-13.2-13.7 111.7 111.7 0 0 1-8.4-6.3c-.4.6-1 1-1.6 1.3-.4.2-.8 0-1-.3-.3-.2-.4-.6-.4-1v-1c.2-.4.6-.7 1-.7s1 .2 1.7.7v-.5l-.1-.2c-.2-.2-.3-.3-.6-.3a3 3 0 0 0-1 .1 5 5 0 0 0-2.2 1 20.3 20.3 0 0 1-9 4.4c-3.1.6-6.3.4-8.8-.8a8.1 8.1 0 0 1-3-1.8c-.6-.9-.3-1.7 1.7-2.5l.4-.2c2.2-1 5.4-2.4 6.4-4.5 1-2 2.4-3 3.6-3.8-4.3 1.4-8.7 2-15.1-3.3-3.4-2.9-6-2-8.5-1-1.2.5-2.5 1-3.8 1a124.7 124.7 0 0 1-9.5 19.6l.6.2a59.4 59.4 0 0 1 15.9 8.8l.2.1c.5.3 1.4 1.2 2.2 2.3l1.9 2.8.5-.2c1.7-.6 3.5-.5 4.4.8l.4.8c0 .5 0 .9-.3 1.3a3 3 0 0 1-.7.8l-.8.4c-.8.2-1.4.1-2-.2-.4-.3-.8-.8-1.2-1.7l-.6-1-.7.4-1.4 1.2c-.7 1-1 2-.3 3h.1c.3.5.8 1 1.5 1 .6.2 1.3.1 2.1-.4l.2-.1h.1c.6-.5 3-2.3 5.9-3 .7-.2 1.4-.3 2.2-.2a4 4 0 0 1 1.8.7l.7.6c.4.4.6.9.7 1.3 0 .5 0 1-.4 1.5l-.4.4-1.9 1.8.4.3h.1a10 10 0 0 1 3-2c1-.4 2-.5 2.9-.4.9.3 1.7 1 2.2 1.6.8 1 1.1 2 1 2.6-.1.5-.5 1-1 1.6-.6.8-1.5 1.6-1.9 1.8-.3.3-1.5 1.3-2.3 2.6a4 4 0 0 0-.7 2.2c.1 1 .6 1.7 1.1 2 .6.5 1.3.6 2 .5.6 0 1.6-.9 2.5-1.9l-1.7-1.5c-1.1-1-1.7-1.5-1.4-2.4.3-.7.9-1.3 1.6-1.7.7-.3 1.5-.4 2.2-.2.7.2 1.2.4 1.5.8.4.4.6 1 .5 2 0 .7-.8 1.9-1.6 3l1 1.1c.3.4.6.8 1 1a9.8 9.8 0 0 0 4.8 2.1c1.5.2 2.8 0 3.4-.4l.1-.1c.5-.7.5-1.5.1-2.5v-.3a27.7 27.7 0 0 1-7.6-7.3l-.7-1c-.3-.4-.3-.7 0-1h.2c.5 0 1.9.7 3.3 1.9 1 .9 2.2 2 3.1 3.2a29 29 0 0 1 2.2 3.7l2 1.1a8 8 0 0 0 3.7 1.2h.6c.8-.2 1.4-.7 1.7-1.2.3-.6.4-1.4.4-2v-1l-.2-.5a6 6 0 0 0-.5-1 34.4 34.4 0 0 1-8.7-8.3c-.4-.6-.7-1.1-.7-1.5 0-.3 0-.5.3-.6h.2c1.3-.3 3.6 1.6 5.6 4.1 1.6 1.8 3 4 4 5.7 1.7 1 3.4 1.6 4.6 1.1l.6-.3c.4-.3.9-1 1-1.8.2-.9.2-2-.3-3.4-.3-.8-.7-1.8-1.3-2.8a75 75 0 0 1-9.4-9.4l-1-1.5c-.4-.6-.4-1 0-1.2.1-.1.2-.1.4 0 .8.1 2.2 1.5 3.8 3.3a94 94 0 0 1 6.7 8.3l2 1.5c1 .8 2 1.1 3 1.1s2-.3 2.6-.9c.7-.7 1-1.7.9-2.8l-.4-1.8c-.5 0-1-.2-1.6-.4l-1.6-.8c-.4-.4-.7-.8-.7-1.3 0-.4.1-.8.6-1.2 1-.9 1.7-.7 2.4 0 .5.4.9 1.2 1 1.8l.5 1.2c1.8.2 4 .1 5.7-.7a13 13 0 0 0 4.4-3.1 7 7 0 0 0 1.8-5.5c-.6-6.3-4.2-9.8-7.4-12.9Zm-6.4 21.7 1 .3c0-.3-.2-.5-.3-.8a4 4 0 0 0-.9-1.5c-.3-.4-.7-.5-1.3 0-.3.3-.4.5-.4.7 0 .2.2.4.5.6.3.3.8.5 1.4.7Zm-16-5.3a72 72 0 0 0 6.4 6.8 90 90 0 0 0-7.3-8l.9 1.2Zm-3 11c1.5 1.7 3.6 3.7 5.6 5.1a33 33 0 0 0-3-4.2c-1.9-2.2-3.8-3.9-4.8-4 0 .3.3.6.5 1l1.7 2Zm-4.2 7.8c.3.3.8.8 1.5 1.2l-1.5-2.1a16.3 16.3 0 0 0-5-4.6l.4.5c1.3 1.6 3.7 4.3 4.6 5Zm-10.3-.3 1.7 1.6a6 6 0 0 0 1.4-2.6c0-.6 0-1-.2-1.3l-1.3-.6a3 3 0 0 0-1.6.2c-.5.3-1 .7-1.2 1.2-.1.4.3.8 1.2 1.5Zm-7.6-7.4a7.8 7.8 0 0 0-2.4 4.1c0 .7 0 1.3.4 1.8.2.5.6.9 1 1.1.6.4 1.2.5 1.6.4.4-.2.8-.4 1.2-.9l1.5-2.1c.4-.8-.4-1.9-1.5-2.9l-1.8-1.5Zm-1.7-1.1-1.1-.9c-1.1-.8-2.7-2-3.3-2-.4 0-.9.1-1.2.5a3.7 3.7 0 0 0-1 2 4 4 0 0 0 .2 2.1c.3.6.8 1.2 1.3 1.3l.3.1c2.1.3 2.2.1 3.1-1l1.7-2.1Zm-8-8.9-.3.2.5 1c.5.7.7 1.1 1 1.3.4.2.8.2 1.5.1l.4-.2.5-.6c.2-.2.2-.5.2-.8l-.2-.5c-.7-.9-2.2-1-3.6-.5ZM45 110.6c-3.6-1.4-9-4.2-13.7-6.7a80.8 80.8 0 0 0-9.6-4.7c0 .2.2.3.4.5 1.6 1.8 6 5.3 10.5 8.2 4.4 2.8 9 5 10.8 4.3l.4-.2c.4-.3.8-.8 1.2-1.4Zm10.3-20.9.6-2.2a6 6 0 0 0-.1-3.6c-.1-.4-.3-.6-.5-.7-.2-.1-.4-.2-.6-.1-.3 0-.6.2-.9.6l-.4.5c-.7.8-1.5 1.7-1.8 2.6-.3 1 0 2 2.3 2.7l1.4.2ZM97.8 93c-5-1.9-8.6-1-12 .1-.3.4-.8.7-1.5 1.1a9.3 9.3 0 0 0-3.9 3.8c-1.1 2.4-4.5 3.9-6.8 4.9l-.4.2c-1.3.6-1.6 1-1.4 1.3.4.5 1.5 1 2.7 1.6 2.4 1.1 5.4 1.3 8.4.7 3-.6 6-2 8.6-4.2a6 6 0 0 1 2.5-1.2h1.3c.4 0 .8.1 1 .4l.4.7v1l1.1.9c2 1.7 5.3 4 7.2 5.4l1.5 1a52.6 52.6 0 0 1 12 12.9 7 7 0 0 0 3.2 2c.8.3 1.6.5 2.4.5.8 0 1.5-.2 2.1-.7.6-.3 1-1 1.3-1.8.5-1.5.8-2.7.8-4a22.2 22.2 0 0 0-8.9-17c-5-3.9-10-5.6-15.4-7.4-2-.6-4-1.3-6.2-2.2Zm-2.2 10.7-1.4-.6-.2.2v.7l.1.5h.2a3 3 0 0 0 1.3-.9Z" mask="url(#a)"/>
</svg>
