<svg xmlns="http://www.w3.org/2000/svg" width="201" height="200" fill="none">
  <path fill="#F99" d="M16 95.9h-2.8v2.8H16V96Zm11.8-.2H25v2.8h2.8v-2.8Zm12 0H37v2.8h2.8v-2.8ZM3.6 108H.8v2.8h2.8v-2.9Zm12.1 0h-2.8v2.8h2.8v-2.9Zm12.1 0H25v2.8h2.8v-2.9Zm12 0H37v2.8h2.8v-2.9Zm12.2 0h-3v2.8h3v-2.9ZM3.6 120.1H.8v2.9h2.8v-3Zm12.1 0h-2.8v2.9h2.8v-3Zm12.1 0H25v2.9h2.8v-3Zm12 0H37v2.9h2.8v-3Zm12.2 0h-3v2.9h3v-3ZM3.6 132.4H.8v2.8h2.8v-2.8Zm12.1 0h-2.8v2.8h2.8v-2.8Zm12.1 0H25v2.8h2.8v-2.8Zm12 0H37v2.8h2.8v-2.8Zm12.2 0h-3v2.8h3v-2.8Zm-36.3 12.2h-2.8v2.9h2.8v-3Zm12.1 0H25v2.9h2.8v-3Zm12 0H37v2.9h2.8v-3Z"/>
  <ellipse cx="86.8" cy="121.1" fill="#F99" rx="49.2" ry="49.6"/>
  <mask id="a" width="198" height="153" x="2.1" y="23.4" fill="#000" maskUnits="userSpaceOnUse">
    <path fill="#fff" d="M2.1 23.4h198v153H2.1z"/>
    <path d="M142.1 167.8a73 73 0 0 1-22.5-3.5c1 .7 1.6 1.4 1.9 2.1.7 1.6 0 3.2-2.1 4.8-5.5 4-15.2 4.7-20.5 4.8h-1a55 55 0 0 1-18.8-2.8 18 18 0 0 1-4.5-2.6 64 64 0 0 1-8 .7H3.5a.4.4 0 0 1-.4-.4c0-.3.2-.4.4-.4h63c2.7-.1 5.1-.3 7.4-.6a4 4 0 0 1-1-2c-.3-1.3.3-2.4 1.5-3.4 2.8-2.4 10.3-4.2 18.1-4.5 2.6-4 2.6-8 2.6-9.5V129l.4-73.2c0-.5 0-.8-.3-1-1-1-4.8-.8-14-.6-4.4.1-9.7.3-16.7.3a41 41 0 0 0-9.6 1c0 1.7.4 3.8.7 5.5 1 5.4 3 13.3 5.5 23.4l2.3 9c4.8 19.8 7.1 28.5 9.3 35.8v.6c-.4.3-.8.1-1.7-.1l-1.3-.4h-.3c-1.9-.6-2.5-.7-2.6-1.5-2.2-12-8-39-10.2-49.2l-.8-4-.6-2.6c0 4.1.7 15.5 1.3 24.4a2534.5 2534.5 0 0 0 2.2 32.2c3 .1 6 .5 8.5 1 3.9.8 6.8 2 8.6 3.4 1 .9 1.1 2.3.6 4-1 2.4-3.6 5-7.2 6.9a37.3 37.3 0 0 1-30.4.5 19 19 0 0 1-7.8-6.7c-1.4-2.2-1.6-4.4-.7-6.1.7-1.3 1.4-2.6 12.3-38.7 4.2-14.2 6.7-23.6 8.2-29.2 1.9-6.9 2.3-8.4 3-8.7l.2-.1c0-1.9.4-3 1.1-3.5.3-.2 1-.8 16.7-1.3l23.6-.5c-.4-2-.3-5-.3-9.4v-3.3c0-6.4.1-9.2.5-10.7.5-1.8 1.4-1.8 2.6-1.8 1.1 0 2.1 0 2.6 2 .4 1.8.4 5.3.4 11.7v11.5h1.1a238 238 0 0 1 40.1 2c1.4.6 2 2.6 1.8 6.3.6 1.2 1 2.7 1.7 4.6l.9 3c15.4 48.4 18.2 56.3 20 61l1 3.4c1.2 3.4.7 6.8-1.3 9.6a18 18 0 0 1-8 5.9 31 31 0 0 1-11.6 2.1 39 39 0 0 1-15.2-2.9 19.6 19.6 0 0 1-8.4-6.2c-1.2-1.6-1.5-3.3-1-4.6.2-.8 1.2-1.5 2.9-2.1 3.2-1.2 9-2 15.6-2.2l.1-1.6c-3.8.1-7.9.5-11.8 1.4-.8.2-1.5.2-1.8-.2-.5-.4-.3-1.1 0-2.4l.2-.6 1-4a594 594 0 0 0 8.4-33c2.3-9.3 4.5-18.1 5.7-24.8.4-2.5.7-4.5.7-6.2-.3-.5-.6-1-1-1.3-1.2-1.3-3.2-1.8-7-2-10.7-.5-23.7-.9-33-.9h-1.1v17.7c0 29.2-.2 65.6 0 78.1 0 4.4.7 8 2.2 11 1.8.2 3.4.6 5 1 4 1.3 6.2 2.9 6.4 4.4 0 .7-.2 1.3-.8 1.6-1.3.8-4 .7-6.5-1.1-.8-.6-2.6-1.8-4.2-4.4l-.5-.8c-3-.4-6.3-.6-9.7-.5l-1 1.3a26 26 0 0 1-16.2 8.3 18 18 0 0 0 3.7 2c4 1.8 11.8 2.8 19.4 2.7 4.1 0 8-.5 11.3-1.2 3.7-.8 6.6-2 8.6-3.5 1.6-1.1 2.2-2.2 2-3.2-.5-2-4-3.5-5.7-4l-.2-.1-.6-.2c-.2 0-.5-.1-.5-.5 0-.2.2-.4.4-.4l1 .3c.6 0 1.3.3 2.3.5l1.8.5a72 72 0 0 0 22.8 3.6h53.1c.2 0 4.1.2 4.1.4M92 161l-2.8.3a30 30 0 0 0-14.2 4c-1 .8-1.4 1.7-1.3 2.5 0 .7.5 1.4 1.3 2 3-.4 5.7-1.2 8-2.1a20.5 20.5 0 0 0 9-6.7Zm12 .6v.3a13 13 0 0 0 4 4c2.2 1.6 4.5 1.7 5.5 1.1.3-.2.5-.4.4-.7 0-1-1.6-2.4-5.8-3.7-1.2-.4-2.6-.7-4.2-1Zm-8.7-1.5c2.4 0 4.8.1 7 .4-1.3-3-2-6.5-2-10.7a12185.7 12185.7 0 0 1 0-95.9c-1.7 0-2.8-.4-3.7-1.2-.5-.5-.8-1.2-1-2.1-8.5 0-16.8.2-23.6.4a87 87 0 0 0-16.4 1c-.5.4-.7 1.4-.7 2.6 2.5-.7 7-.9 9.6-1l16.7-.2c10-.3 13.4-.4 14.6.8.5.5.6 1.2.6 1.6l-.3 73.2-.2 21.5c0 1.4 0 5.4-2.3 9.5h1.7ZM54 55.9c-.4.7-1.2 3.6-2.4 8-1.5 5.6-4 15-8.3 29.2-10.9 36.1-11.6 37.5-12.3 38.8-.7 1.5-.5 3.4.7 5.3 2.7 4.5 10.2 9.4 20.4 9.4 6.5 0 12.3-1.3 16.7-3.5 3.4-1.8 5.9-4.2 6.7-6.5.5-1.3.4-2.4-.3-3-2.7-2.2-9-3.8-16.5-4.2v.5c.3 5.4 0 6.7-.6 7.1-2 1.7-8.2 2-13.2 1.8-4.7-.3-10.8-1.2-12.2-3-.2-.3-.7-1.1.5-2.2 2-1.6 5-2.9 9.1-3.8a60.9 60.9 0 0 1 15.5-1.3l-1.2-18.9-1-13.2a771.2 771.2 0 0 1-1.3-24.9c0-1 0-1.7.6-1.8.5 0 .7.5 1 1.5a78.9 78.9 0 0 1 1.5 7.2c2.2 10.2 8 37.2 10.2 49.2 0 .2.5.4 2 .7l.3.1 1.3.4.5.2a783 783 0 0 1-9.2-35.3l-2.3-9.1c-2.5-10-4.5-18-5.5-23.4-.4-2.2-.6-4-.7-5.4Zm86.8 74.3c-6.5.3-12.2 1-15.4 2.2-1.8.7-2.3 1.3-2.4 1.6-.4 1 0 2.4 1 3.8a19 19 0 0 0 8 6c4.3 1.8 9.4 2.8 14.9 2.8 8.1 0 15.5-3 18.8-7.6a9.5 9.5 0 0 0 1.3-8.9l-1.2-3.3c-1.6-4.7-4.4-12.6-20-61l-.8-3-1-3-.6 4.5c-1.2 6.8-3.4 15.6-5.7 24.9l-3 11.7c-2.6 11-4.3 17.5-5.4 21.3l-1 4-.2.7c-.2.6-.4 1.4-.3 1.5h1c4-1 8.2-1.4 12-1.5a1791.7 1791.7 0 0 1 2.8-58.1c0-.5.2-1 .6-1 .5-.1.7.5.8 1.1l.5 2.4v.2c1 5.7 10.6 54.4 10.7 54.8.1.6 0 1.2-.4 1.6-.4.5-1 .6-1.6.5-2.5-.4-7.2-.8-12.5-.7v1.6h3.5c9 0 16.2 1.2 19.5 3 1.3.8 1.3 1.5 1.2 2-.6 1.8-5.7 2.8-8.7 3.2-4.9.7-10.5.8-14.8.3a2 2 0 0 1-1.8-2l.2-5.6Zm-85.5-.9h-.5c-9.4.1-17.5 2-21 5-.7.6-.5.9-.4 1 1 1.2 5.8 2.3 11.6 2.6 6 .3 11-.3 12.6-1.6 0 0 .2-.2.3-1.6v-5.3h-2.6Zm86.4.9-.2 5.7c0 .5.4 1 1 1.1 4.3.5 9.8.4 14.6-.3 5.2-.8 7.7-2 8-2.7 0-.3-.4-.7-.8-.9a46.8 46.8 0 0 0-19-3h-3.6v.1Zm1.8-3.3c4.6 0 8.6.4 11 .7.2 0 .5 0 .7-.3.2-.2.3-.5.2-.8 0-.4-9.7-49-10.7-54.8v-.2l-.3-1.5-.7 10.6c-.9 13.4-1.6 34.4-2 46.3h1.8Zm-42.3-74h1.1c9.3 0 22.3.4 33.1 1 4 .1 6.1.8 7.5 2.1l.5.5c0-2.4-.5-3.8-1.3-4.1-2-.9-19-2.1-39.8-2h-1v2.5h-.1Zm-4.8-2.5c.2.7.5 1.2.8 1.5.6.7 1.6 1 3.1 1v-2.5h-4 .1Zm1.7-25.2c-1 0-1.4 0-1.7 1.2-.4 1.4-.5 4.1-.5 10.5V40c0 4.6 0 7.5.3 9.5h4.1V38c0-6.4 0-9.9-.4-11.6-.3-1.3-.6-1.3-1.8-1.3Z"/>
  </mask>
  <path fill="#1A174F" d="M142.1 167.8a73 73 0 0 1-22.5-3.5c1 .7 1.6 1.4 1.9 2.1.7 1.6 0 3.2-2.1 4.8-5.5 4-15.2 4.7-20.5 4.8h-1a55 55 0 0 1-18.8-2.8 18 18 0 0 1-4.5-2.6 64 64 0 0 1-8 .7H3.5a.4.4 0 0 1-.4-.4c0-.3.2-.4.4-.4h63c2.7-.1 5.1-.3 7.4-.6a4 4 0 0 1-1-2c-.3-1.3.3-2.4 1.5-3.4 2.8-2.4 10.3-4.2 18.1-4.5 2.6-4 2.6-8 2.6-9.5V129l.4-73.2c0-.5 0-.8-.3-1-1-1-4.8-.8-14-.6-4.4.1-9.7.3-16.7.3a41 41 0 0 0-9.6 1c0 1.7.4 3.8.7 5.5 1 5.4 3 13.3 5.5 23.4l2.3 9c4.8 19.8 7.1 28.5 9.3 35.8v.6c-.4.3-.8.1-1.7-.1l-1.3-.4h-.3c-1.9-.6-2.5-.7-2.6-1.5-2.2-12-8-39-10.2-49.2l-.8-4-.6-2.6c0 4.1.7 15.5 1.3 24.4a2534.5 2534.5 0 0 0 2.2 32.2c3 .1 6 .5 8.5 1 3.9.8 6.8 2 8.6 3.4 1 .9 1.1 2.3.6 4-1 2.4-3.6 5-7.2 6.9a37.3 37.3 0 0 1-30.4.5 19 19 0 0 1-7.8-6.7c-1.4-2.2-1.6-4.4-.7-6.1.7-1.3 1.4-2.6 12.3-38.7 4.2-14.2 6.7-23.6 8.2-29.2 1.9-6.9 2.3-8.4 3-8.7l.2-.1c0-1.9.4-3 1.1-3.5.3-.2 1-.8 16.7-1.3l23.6-.5c-.4-2-.3-5-.3-9.4v-3.3c0-6.4.1-9.2.5-10.7.5-1.8 1.4-1.8 2.6-1.8 1.1 0 2.1 0 2.6 2 .4 1.8.4 5.3.4 11.7v11.5h1.1a238 238 0 0 1 40.1 2c1.4.6 2 2.6 1.8 6.3.6 1.2 1 2.7 1.7 4.6l.9 3c15.4 48.4 18.2 56.3 20 61l1 3.4c1.2 3.4.7 6.8-1.3 9.6a18 18 0 0 1-8 5.9 31 31 0 0 1-11.6 2.1 39 39 0 0 1-15.2-2.9 19.6 19.6 0 0 1-8.4-6.2c-1.2-1.6-1.5-3.3-1-4.6.2-.8 1.2-1.5 2.9-2.1 3.2-1.2 9-2 15.6-2.2l.1-1.6c-3.8.1-7.9.5-11.8 1.4-.8.2-1.5.2-1.8-.2-.5-.4-.3-1.1 0-2.4l.2-.6 1-4a594 594 0 0 0 8.4-33c2.3-9.3 4.5-18.1 5.7-24.8.4-2.5.7-4.5.7-6.2-.3-.5-.6-1-1-1.3-1.2-1.3-3.2-1.8-7-2-10.7-.5-23.7-.9-33-.9h-1.1v17.7c0 29.2-.2 65.6 0 78.1 0 4.4.7 8 2.2 11 1.8.2 3.4.6 5 1 4 1.3 6.2 2.9 6.4 4.4 0 .7-.2 1.3-.8 1.6-1.3.8-4 .7-6.5-1.1-.8-.6-2.6-1.8-4.2-4.4l-.5-.8c-3-.4-6.3-.6-9.7-.5l-1 1.3a26 26 0 0 1-16.2 8.3 18 18 0 0 0 3.7 2c4 1.8 11.8 2.8 19.4 2.7 4.1 0 8-.5 11.3-1.2 3.7-.8 6.6-2 8.6-3.5 1.6-1.1 2.2-2.2 2-3.2-.5-2-4-3.5-5.7-4l-.2-.1-.6-.2c-.2 0-.5-.1-.5-.5 0-.2.2-.4.4-.4l1 .3c.6 0 1.3.3 2.3.5l1.8.5a72 72 0 0 0 22.8 3.6h53.1c.2 0 4.1.2 4.1.4M92 161l-2.8.3a30 30 0 0 0-14.2 4c-1 .8-1.4 1.7-1.3 2.5 0 .7.5 1.4 1.3 2 3-.4 5.7-1.2 8-2.1a20.5 20.5 0 0 0 9-6.7Zm12 .6v.3a13 13 0 0 0 4 4c2.2 1.6 4.5 1.7 5.5 1.1.3-.2.5-.4.4-.7 0-1-1.6-2.4-5.8-3.7-1.2-.4-2.6-.7-4.2-1Zm-8.7-1.5c2.4 0 4.8.1 7 .4-1.3-3-2-6.5-2-10.7a12185.7 12185.7 0 0 1 0-95.9c-1.7 0-2.8-.4-3.7-1.2-.5-.5-.8-1.2-1-2.1-8.5 0-16.8.2-23.6.4a87 87 0 0 0-16.4 1c-.5.4-.7 1.4-.7 2.6 2.5-.7 7-.9 9.6-1l16.7-.2c10-.3 13.4-.4 14.6.8.5.5.6 1.2.6 1.6l-.3 73.2-.2 21.5c0 1.4 0 5.4-2.3 9.5h1.7ZM54 55.9c-.4.7-1.2 3.6-2.4 8-1.5 5.6-4 15-8.3 29.2-10.9 36.1-11.6 37.5-12.3 38.8-.7 1.5-.5 3.4.7 5.3 2.7 4.5 10.2 9.4 20.4 9.4 6.5 0 12.3-1.3 16.7-3.5 3.4-1.8 5.9-4.2 6.7-6.5.5-1.3.4-2.4-.3-3-2.7-2.2-9-3.8-16.5-4.2v.5c.3 5.4 0 6.7-.6 7.1-2 1.7-8.2 2-13.2 1.8-4.7-.3-10.8-1.2-12.2-3-.2-.3-.7-1.1.5-2.2 2-1.6 5-2.9 9.1-3.8a60.9 60.9 0 0 1 15.5-1.3l-1.2-18.9-1-13.2a771.2 771.2 0 0 1-1.3-24.9c0-1 0-1.7.6-1.8.5 0 .7.5 1 1.5a78.9 78.9 0 0 1 1.5 7.2c2.2 10.2 8 37.2 10.2 49.2 0 .2.5.4 2 .7l.3.1 1.3.4.5.2a783 783 0 0 1-9.2-35.3l-2.3-9.1c-2.5-10-4.5-18-5.5-23.4-.4-2.2-.6-4-.7-5.4Zm86.8 74.3c-6.5.3-12.2 1-15.4 2.2-1.8.7-2.3 1.3-2.4 1.6-.4 1 0 2.4 1 3.8a19 19 0 0 0 8 6c4.3 1.8 9.4 2.8 14.9 2.8 8.1 0 15.5-3 18.8-7.6a9.5 9.5 0 0 0 1.3-8.9l-1.2-3.3c-1.6-4.7-4.4-12.6-20-61l-.8-3-1-3-.6 4.5c-1.2 6.8-3.4 15.6-5.7 24.9l-3 11.7c-2.6 11-4.3 17.5-5.4 21.3l-1 4-.2.7c-.2.6-.4 1.4-.3 1.5h1c4-1 8.2-1.4 12-1.5a1791.7 1791.7 0 0 1 2.8-58.1c0-.5.2-1 .6-1 .5-.1.7.5.8 1.1l.5 2.4v.2c1 5.7 10.6 54.4 10.7 54.8.1.6 0 1.2-.4 1.6-.4.5-1 .6-1.6.5-2.5-.4-7.2-.8-12.5-.7v1.6h3.5c9 0 16.2 1.2 19.5 3 1.3.8 1.3 1.5 1.2 2-.6 1.8-5.7 2.8-8.7 3.2-4.9.7-10.5.8-14.8.3a2 2 0 0 1-1.8-2l.2-5.6Zm-85.5-.9h-.5c-9.4.1-17.5 2-21 5-.7.6-.5.9-.4 1 1 1.2 5.8 2.3 11.6 2.6 6 .3 11-.3 12.6-1.6 0 0 .2-.2.3-1.6v-5.3h-2.6Zm86.4.9-.2 5.7c0 .5.4 1 1 1.1 4.3.5 9.8.4 14.6-.3 5.2-.8 7.7-2 8-2.7 0-.3-.4-.7-.8-.9a46.8 46.8 0 0 0-19-3h-3.6v.1Zm1.8-3.3c4.6 0 8.6.4 11 .7.2 0 .5 0 .7-.3.2-.2.3-.5.2-.8 0-.4-9.7-49-10.7-54.8v-.2l-.3-1.5-.7 10.6c-.9 13.4-1.6 34.4-2 46.3h1.8Zm-42.3-74h1.1c9.3 0 22.3.4 33.1 1 4 .1 6.1.8 7.5 2.1l.5.5c0-2.4-.5-3.8-1.3-4.1-2-.9-19-2.1-39.8-2h-1v2.5h-.1Zm-4.8-2.5c.2.7.5 1.2.8 1.5.6.7 1.6 1 3.1 1v-2.5h-4 .1Zm1.7-25.2c-1 0-1.4 0-1.7 1.2-.4 1.4-.5 4.1-.5 10.5V40c0 4.6 0 7.5.3 9.5h4.1V38c0-6.4 0-9.9-.4-11.6-.3-1.3-.6-1.3-1.8-1.3Z"/>
  <path fill="#1A174F" d="M119.6 164.3v-.2l-.2.4.2-.2Zm1.9 2.1-.2.1h.2Zm-2.1 4.8-.2-.2.2.2ZM98.9 176v.2-.2Zm-19.8-2.8v.2-.2Zm-4.5-2.6.2-.1h-.1v.1Zm-8 .7v.2-.2Zm0-.8v.2-.2Zm7.3-.6v.2h.4l-.3-.4-.1.2Zm-1-2 .1-.1h-.2Zm1.5-3.4-.1-.2v.2Zm18.1-4.5v.2h.2l-.2-.2Zm2.7-31h.2-.2Zm0-74.2-.1.2.1-.2Zm-14-.6v.2-.2Zm-16.7.3v.2-.2Zm-9.6 1-.1-.2h-.1v.2h.2Zm.7 5.5h.2-.2ZM61 84.4h.2-.2Zm2.3 9-.2.1h.2Zm9.3 35.8h-.2.2Zm0 .6v.1-.1Zm-1.7-.1v-.2.2Zm-1.3-.4v-.2.2Zm-.3 0v.1-.2Zm-2.6-1.5h.2-.2ZM56.6 78.6h-.2.2Zm-.8-4h.2-.2Zm-.6-2.6h.2-.4.2Zm1.3 24.4h.2-.2Zm1 13.2h.2-.2Zm1.2 19h-.2v.2h.2v-.2Zm8.5 1v.2-.2Zm8.6 3.4-.2.2.2-.2Zm.6 4h.2-.2Zm-7.2 6.9.1.1v-.1Zm-30.4.5v.2-.2Zm-7.8-6.7h.2-.2Zm-.7-6.1-.2-.1h.2Zm0 0h.2-.2Zm12.3-38.7h.2-.2Zm8.2-29.2h.2-.2Zm3-8.7v-.2h-.1v.2Zm.2-.1.1.2h.1v-.2H54Zm1.1-3.5.1.1-.1-.1ZM71.8 50v.2-.2Zm23.6-.5v.2h.2v-.2h-.2Zm.2-23.4h-.2.2Zm5.2.2h-.2.2Zm.4 23.2h-.2v.2h.2v-.2Zm1.1 0v.2-.2Zm40.1 2v.2-.1Zm1.8 6.3h-.2.2Zm1.7 4.6h.2-.2Zm.9 3h.2-.2Zm20 61-.3.2.2-.1Zm1 3.4h.3-.2Zm-1.3 9.6.1.2-.1-.2Zm-8 5.9v-.2.2Zm-26.8-.8v-.2.2Zm-8.4-6.2-.2.1h.2Zm-1-4.6h.1-.1Zm2.9-2.1v.2-.2Zm15.6-2.2v.2h.2v-.2h-.2Zm.1-1.6h.2v-.2h-.2v.2Zm-11.8 1.4v.2-.2Zm-1.8-.2-.2.2.2-.2Zm0-2.4h.2-.2Zm.2-.6h-.2.2Zm1-4h-.2.2Zm5.5-21.3h-.2.2Zm3-11.7h.1-.2Zm5.6-24.8h-.2.2Zm.7-6.2h.2l-.2.1Zm-1-1.3v.1-.1Zm-7-2v.2-.2Zm-34.1-.9v-.2h-.2v.2h.2Zm0 17.7h-.2.2Zm0 78.1h.1-.2Zm2.2 11h-.2v.1h.2v-.2Zm5 1v.3-.2Zm6.4 4.4h.2-.2Zm-.8 1.6-.1-.1v.1Zm-6.5-1.1v-.2.2Zm0 0-.2.1.1-.1Zm-4.2-4.4h.2-.2Zm-.5-.8h.2v-.2h-.1v.2Zm-9.7-.5v-.2H93l-.1.1.2.1Zm-1 1.3.2.1h-.2ZM76 170.5v-.2l-.5.1.4.3v-.2Zm3.7 2v-.2.2Zm19.4 2.7v.2-.2Zm11.3-1.2v.2-.2Zm8.6-3.5-.1-.1.1.1Zm2-3.2h-.2.2Zm-5.7-4v-.3.2Zm-.2-.1v-.2.2Zm-.6-.2v.2-.2Zm-.1-1v-.1.2Zm1 .3v.2-.2Zm2.3.6v.2-.2Zm1.8.5.1-.2v.2ZM92 160.9l.1.2.3-.4H92v.2Zm-2.8.3v-.2.2Zm-14.2 4-.2-.2.2.2Zm-1.3 2.5h.2-.2Zm1.3 2-.2.2h.2v-.1Zm8-2.1.1.2v-.2Zm8.5-6-.2-.1.2.1Zm12.4 0v-.3h-.4l.3.3h.1Zm.2.2h-.2.2Zm3.8 4v.2-.2Zm0 0 .2-.1-.1.1Zm5.6 1.1v-.2.2Zm.4-.7h-.2.2Zm-5.8-3.7v.2-.2Zm-5.7-2v.1h.3l-.1-.3-.2.1Zm-2.1-10.8h.2-.2Zm0-78.2h.2-.2Zm0-17.7h.3v-.1h-.2v.1Zm-3.7-1.2-.1.1.1-.1Zm-1-2.1h.1v-.2h-.2v.2Zm-23.6.4v-.2.2ZM55.6 52l-.1-.1v.1Zm-.7 2.6h-.2v.2h.2v-.2Zm9.6-1v-.1.2Zm16.7-.2v.2-.2Zm14.6.8-.1.2.1-.2Zm.3 74.8h.2-.2Zm-2.5 31h-.2l-.2.2h.4v-.2ZM54 56h.2v-.1l-.1-.1-.1.2Zm-2.4 8-.2-.1h.2Zm-8.3 29h.2-.2ZM31 131.9l.2.1-.2-.1Zm0 0h-.2.2Zm.7 5.3h.2-.2Zm37 5.9v-.2.2Zm6.8-6.5h.2-.2Zm-.3-3-.2.2.2-.1Zm-16.5-4.2v-.2h-.2v.2h.2Zm0 .5h.3-.2Zm-.6 7.1.2.2-.2-.2ZM45 138.8v-.2.2Zm-12.2-3-.1.2.1-.1Zm.5-2.2-.2-.1.2.1Zm9.1-3.8v.2-.2Zm12.5-1.3v-.2.2Zm3 0v.2h.2v-.2h-.2Zm-1.2-18.9h-.2.2Zm-1-13.2h.2-.2ZM54.4 76h.2-.2Zm-.1-4.5h.2-.2Zm.6-1.8v-.2.2Zm1 1.5h.1-.2Zm.7 3.2h-.2.2Zm.8 4h-.2.2Zm10.2 49.2h.2-.2Zm2 .7-.1.2v-.2Zm.3.1v-.2.2Zm1.3.4v.2-.2Zm.5.2v.2h.3v-.3h-.3Zm-9.2-35.3h.2-.2Zm-2.3-9.1h.2-.2Zm-5.5-23.4h-.2.2Zm-.7-5.4v-.1l-.3-.2v.4h.3Zm86.8 74.4v.2h.5l-.4-.3-.1.1Zm-15.4 2.2v-.2.2ZM123 134h.2-.2Zm1 3.8h.1-.2Zm8 6v-.3.2Zm33.7-4.8h.2-.2Zm1.3-8.9h.2-.2Zm-1.2-3.3h-.2.2Zm-20-61h-.1.2Zm-.8-3 .2-.1h-.2Zm-1-3 .2-.1h-.4.2Zm-.6 4.5h-.2.2Zm-5.7 24.9h.2-.2Zm-3 11.7h-.1.2Zm-5.4 21.3h.2-.2Zm-1 4h-.3.2Zm-.2.7h-.2.2Zm-.3 1.5-.2.1.1.1.1-.2Zm1 0v-.3.2Zm12-1.5v.2h.3v-.2h-.2Zm2-46.4h-.3.2Zm.6-9.6h-.2.2Zm.2-2.1h.2-.2Zm.6-1v.1-.2Zm.8 1.1h.2-.2Zm.5 2.4h.2-.2Zm0 .2h-.2.2Zm10.7 54.8h.2-.2Zm-.4 1.6.1.2-.1-.2Zm-1.6.5v-.2.2Zm-12.5-.7v-.2h-.2v.2h.2Zm0 1.6h-.2v.2h.2v-.2Zm3.5 0v.2-.2Zm19.5 3v.2-.1Zm1.2 2-.2-.1h.2Zm-8.7 3.2v-.2.2Zm-14.8.3v.2-.2Zm-1.8-2h.2-.2Zm.2-5.6.1-.1-.3-.4v.5h.2Zm-85.5-.9v.2h.2v-.2h-.2Zm-.5 0v-.2.2Zm-21 5-.2-.1.1.1Zm-.4 1-.1.2.1-.2ZM45 138v-.2.2Zm12.6-1.6.1.2v-.2Zm.3-1.6h-.2.2Zm0-4.8h-.2.2Zm0-.5h.2v-.2h-.2v.2Zm-2.6 0v-.3h-.2v.2h.2Zm86.4.8h.2-.2Zm-.2 5.7h.2-.2Zm1 1.1v.2-.2Zm14.6-.3v.1-.1Zm8-2.7h-.2.2Zm-.8-.9.1-.1v.1Zm-19-3v-.2.2Zm-3.6 0v-.1h-.2v.2h.2Zm12.7-2.5v-.2.2Zm1-1 .2-.1h-.2Zm-10.7-55-.2.1h.2Zm0-.1h.2-.2Zm-.3-1.5h.2-.4.2Zm-.7 10.6h.2-.2Zm-2 46.3h-.1v.2h.2v-.2Zm-40.5-74v-.1.4-.2Zm34.2 1v-.3.2Zm7.6 2 .2-.1-.2.1Zm.5.5-.2.1.4.5v-.6h-.2Zm-1.3-4.1-.1.2v-.2Zm-39.8-2v.2-.2Zm-1 0v-.2h-.3v.2h.2Zm0 2.5v.2h.1v-.2h-.2Zm-4.9-2.5h.2v-.2h-.2v.2Zm.8 1.5-.1.2.1-.2Zm3.1 1v.2h.2V53h-.2Zm0-2.5h.2v-.2h-.2v.2Zm-4 0v-.2.4-.2Zm0-24h-.1.2Zm0 23.2H96v.2h.2v-.2Zm4 0v.1h.2v-.2h-.2Zm-.4-23h-.2.2Zm42.2 141c-7.8 0-15.3-1.2-22.5-3.5l-.1.4A73.1 73.1 0 0 0 142 168v-.4Zm-22.7-3.1a5 5 0 0 1 1.9 2l.4-.2c-.4-.8-1-1.5-2-2.2l-.3.4Zm1.9 2c.3.7.3 1.5 0 2.2-.3.8-1 1.5-2 2.3l.2.3a8 8 0 0 0 2.2-2.4 3 3 0 0 0 0-2.6l-.4.2Zm-2 4.5a26 26 0 0 1-10.3 3.9c-3.7.7-7.4.9-10 .9v.4c2.6 0 6.3-.2 10.1-1 3.8-.6 7.6-1.8 10.4-3.9l-.3-.3ZM99 175.8h-1.2v.4H99v-.4Zm-1 0c-7.4 0-14.8-1-18.7-2.8l-.1.4c4 1.7 11.4 2.8 18.7 2.8v-.4ZM79.1 173c-1.5-.6-3.2-1.5-4.4-2.5l-.3.3c1.3 1 3 2 4.6 2.6l.1-.4Zm-4.6-2.6c-2.5.4-5.1.6-8 .7v.4c2.9 0 5.6-.3 8-.7v-.4Zm-8 .7h-63v.4h63v-.4Zm-63.1 0a.2.2 0 0 1-.2-.2h-.4c0 .3.2.6.6.6v-.4Zm-.2-.2c0-.1 0-.2.2-.2v-.4c-.4 0-.6.2-.6.6h.4Zm.2-.2h63v-.4h-63v.4Zm63 0c2.7-.1 5.1-.3 7.4-.6v-.4c-2.3.3-4.7.5-7.3.6v.4Zm7.5-1c-.5-.6-.9-1.2-1-2l-.4.1c.1.8.5 1.6 1.1 2.2l.3-.3Zm-1-2c-.1-1 .3-2 1.5-3l-.2-.4c-1.3 1-1.9 2.3-1.7 3.5h.4Zm1.5-3c1.4-1.3 4-2.3 7.1-3a58 58 0 0 1 11-1.5v-.4c-4 .2-7.9.7-11 1.5-3.3.7-5.9 1.8-7.3 3l.2.3Zm18.2-4.6c2.6-4 2.6-8.2 2.6-9.6h-.4c0 1.4 0 5.4-2.5 9.4l.3.2Zm2.6-9.6V129H95l-.1 21.5h.4Zm0-21.5.4-73.2h-.4L95 129h.4Zm.4-73.2c0-.5 0-.9-.3-1.1l-.3.3.2.8h.4Zm-.3-1.1c-.3-.3-.8-.5-1.5-.6l-2.6-.2-10.1.1v.4c4.6-.1 7.9-.2 10-.1 1.2 0 2 0 2.7.2.6.1 1 .3 1.2.5l.3-.3ZM81.2 54c-4.4.1-9.7.3-16.7.3v.4c7 0 12.3-.2 16.7-.3V54Zm-16.7.3c-4.5 0-8 .4-9.7 1l.1.3a41 41 0 0 1 9.6-.9v-.4Zm-9.8 1.2c0 1.7.4 3.8.7 5.5h.4c-.3-1.8-.7-3.8-.7-5.6h-.4Zm.7 5.5c1 5.5 3 13.4 5.5 23.4h.4c-2.5-10.1-4.5-18-5.5-23.4h-.4Zm5.5 23.4 2.3 9.1h.3l-2.2-9.2-.4.1Zm2.3 9.1a747 747 0 0 0 9.3 35.7h.4a746 746 0 0 1-9.4-35.8l-.3.1Zm9.3 35.7v.4l.3.3.1-.3v-.5l-.4.1Zm0 .4c-.1.1-.2.2-.4.1-.3 0-.6 0-1-.2l-.1.4 1 .2c.3 0 .6 0 .8-.2l-.3-.3Zm-1.4-.1-1.4-.4v.4l1.3.4v-.4Zm-1.4-.4h-.3v.3h.2l.1-.3Zm-.3 0-1.9-.7a1 1 0 0 1-.4-.2l-.1-.4h-.4l.2.6.5.4 2 .6.1-.4Zm-2.4-1.3c-2.2-12-8-39-10.2-49.3l-.4.1c2.2 10.2 8 37.3 10.2 49.2h.4ZM56.8 78.5l-.8-4-.4.2.8 3.9h.4Zm-.8-4-.6-2.6-.4.1.6 2.7.4-.1ZM55 72c0 4.1.7 15.5 1.3 24.4h.4c-.6-9-1.3-20.3-1.3-24.4H55Zm1.3 24.4 1 13.2h.4l-1-13.3h-.4Zm1 13.2 1.2 19h.4l-1.2-19h-.4Zm1.4 19.2c3 .1 5.9.5 8.4 1l.1-.4c-2.6-.5-5.4-.9-8.5-1v.4Zm8.4 1c4 .8 6.9 2 8.5 3.4l.3-.3a20 20 0 0 0-8.7-3.5v.4Zm8.5 3.4c1 .7 1.1 2 .6 3.6l.4.2c.6-1.7.4-3.2-.7-4.1l-.3.3Zm.6 3.6a15 15 0 0 1-7 6.9l.1.3c3.7-1.9 6.3-4.4 7.3-7l-.4-.2Zm-7 6.9a37 37 0 0 1-17 3.6v.4a37 37 0 0 0 17.1-3.7l-.2-.3Zm-17 3.6c-4.8 0-9.4-1-13.3-3l-.2.3c4 2 8.7 3 13.5 3v-.3Zm-13.3-3a18.8 18.8 0 0 1-7.7-6.7l-.4.2c1.6 2.6 4.4 5 8 6.8l.1-.3Zm-7.7-6.7c-1.4-2.2-1.6-4.3-.7-6l-.4-.1c-1 1.8-.7 4 .7 6.3l.4-.2Zm-.7-5.9-.3-.3.3.3Zm0 0c.3-.7.7-1.4 2.3-6.4l10-32.4h-.4a1901 1901 0 0 1-10 32.3c-1.6 5-2 5.7-2.2 6.2l.3.2Zm12.3-38.8C47 78.8 49.5 69.4 51 63.7h-.3c-1.6 5.6-4 15-8.3 29.1l.4.1ZM51 63.7a150.5 150.5 0 0 1 2.5-8c.1-.3.2-.5.4-.5l-.2-.4-.6.6-.6 1.4-1.8 6.8.3.1Zm2.9-8.5h.1l.1-.1-.1-.4h-.2v.5Zm.3-.3c0-1.9.4-2.9 1-3.4l-.2-.3c-.8.6-1.2 1.8-1.2 3.7h.4Zm1-3.4c.1 0 .3-.2 2.5-.5l14-.7V50l-14 .7c-2.2.3-2.5.5-2.7.6l.2.3Zm16.6-1.2 23.6-.5v-.4l-23.6.5v.4Zm23.8-.7c-.4-2-.3-5-.3-9.4h-.4c0 4.4 0 7.4.3 9.5l.4-.1Zm-.3-9.4V37h-.4v3.2h.4Zm0-3.3c0-6.4.1-9.2.5-10.6l-.4-.1a54 54 0 0 0-.5 10.7h.4Zm.5-10.6c.2-1 .5-1.3 1-1.5.3-.2.8-.2 1.4-.2v-.4c-.6 0-1.2 0-1.7.2-.5.3-.9.8-1.1 1.8h.4Zm2.4-1.7c.6 0 1 0 1.4.2.4.2.8.7 1 1.6h.4c-.3-1-.6-1.6-1.2-2-.5-.2-1-.2-1.6-.2v.4Zm2.4 1.8c.2.9.3 2.2.4 4.1v7.6h.4a237.9 237.9 0 0 0-.4-11.8l-.4.1Zm.4 11.7v11.5h.4V38.1h-.4Zm.2 11.7h1.2v-.4h-1.2v.4Zm1.1 0A456.4 456.4 0 0 1 138 51a49 49 0 0 1 4.4.7l.2-.3c-.3-.2-1-.3-1.7-.4a184 184 0 0 0-12-1c-7.2-.5-16.7-.8-26.5-.7v.4Zm40 2c.7.3 1.1.9 1.4 1.9.3 1 .4 2.4.3 4.2h.4c.1-1.8 0-3.3-.3-4.3s-.8-1.8-1.6-2.1l-.2.3ZM144 58c.6 1.2 1 2.7 1.7 4.6l.4-.1c-.6-2-1-3.5-1.7-4.7l-.4.2Zm1.7 4.6.9 3 .4-.2-1-3-.3.2Zm.9 3c15.4 48.4 18.2 56.3 20 61h.3c-1.7-4.8-4.5-12.7-20-61.2l-.3.2Zm20 61 1 3.4.5-.2-1.2-3.3-.4.2Zm1 3.4a10 10 0 0 1-1.3 9.4l.3.3a11 11 0 0 0 1.5-9.9l-.4.2Zm-1.3 9.4a17.8 17.8 0 0 1-7.9 5.8l.2.4a18 18 0 0 0 8-6l-.3-.2Zm-7.9 5.8a30.8 30.8 0 0 1-11.5 2.1v.4c4.2 0 8.2-.7 11.7-2.1l-.2-.4Zm-11.5 2.1c-5.5 0-10.7-1-15.1-2.9l-.2.4c4.5 2 9.8 3 15.3 3v-.5Zm-15.1-2.9a19.4 19.4 0 0 1-8.4-6l-.3.1a20 20 0 0 0 8.5 6.3l.2-.4Zm-8.4-6c-1.1-1.7-1.4-3.3-1-4.6l-.3-.1c-.6 1.4-.2 3.1 1 4.8l.3-.2Zm-1-4.6c.2-.3.4-.7 1-1a8 8 0 0 1 1.8-1l-.1-.3c-.9.3-1.5.6-2 1-.5.3-.9.7-1 1.2l.3.1Zm2.8-2c3.2-1 9-2 15.7-2.1v-.4c-6.6.2-12.5 1-15.8 2.2l.1.4Zm15.8-2.3.1-1.6h-.4v1.6h.3Zm-.1-1.8c-3.8.1-8 .5-11.8 1.4v.4A63 63 0 0 1 141 128v-.4ZM129 129l-1 .1c-.4 0-.6 0-.7-.2l-.3.3c.3.2.6.3 1 .3l1-.1v-.4Zm-1.7-.1c-.2-.2-.2-.4-.2-.8l.3-1.4-.4-.1-.3 1.5c0 .4 0 .8.3 1l.3-.2Zm0-2.2.3-.6-.4-.1-.2.6h.4Zm.3-.6 1-4-.4-.2-1 4 .4.2Zm1-4c1-3.9 2.8-10.3 5.5-21.4h-.4c-2.7 11-4.4 17.4-5.5 21.2l.4.1Zm5.5-21.4L137 89h-.4l-2.9 11.6.4.1ZM137 89c2.3-9.3 4.5-18 5.7-24.8h-.4c-1.2 6.7-3.4 15.4-5.7 24.7l.4.1Zm5.7-24.8c.4-2.4.6-4.5.7-6.2h-.4c0 1.7-.3 3.7-.7 6.1h.4Zm.7-6.3-1-1.4-.3.3 1 1.3.3-.2Zm-1-1.4c-1.3-1.3-3.4-1.8-7.1-2v.4c3.7.2 5.6.7 6.8 2l.3-.4Zm-7.1-2c-10.8-.5-23.8-.9-33-.9v.4c9.2 0 22.2.4 33 .9v-.4Zm-33-.9h-1.2v.4h1.3v-.4Zm-1.4.2v17.7h.4V53.9h-.4Zm0 17.7c0 29.2-.2 65.6 0 78.1h.3v-78h-.3Zm0 78.1c0 4.4.7 8 2.2 11l.4-.2a24.4 24.4 0 0 1-2.3-10.8h-.4Zm2.4 11.1c1.7.3 3.4.7 5 1.2v-.4c-1.5-.5-3.2-.9-5-1.2v.4Zm5 1.2a18 18 0 0 1 4.5 2c1 .7 1.6 1.5 1.7 2.2h.4c-.1-1-.8-1.8-1.9-2.5a16 16 0 0 0-4.7-2.1v.4Zm6.2 4.2c0 .5-.2 1-.7 1.4l.2.3c.6-.4 1-1 .9-1.8h-.4Zm-.7 1.4a4 4 0 0 1-2.7.3 8.8 8.8 0 0 1-3.6-1.5l-.2.4c1.3.9 2.6 1.3 3.8 1.5 1.2.2 2.2 0 2.9-.4l-.2-.3Zm-6.3-1.2-.3.3.3-.3Zm0 0c-.8-.5-2.5-1.7-4.1-4.3l-.4.3c1.7 2.6 3.5 3.8 4.2 4.3l.2-.3Zm-4.1-4.3-.5-.8-.3.2.4.9.4-.3Zm-.6-.9c-3-.4-6.4-.6-9.8-.5v.4c3.4 0 6.7 0 9.7.5v-.4Zm-10-.4-1 1.3.4.2 1-1.2-.4-.3Zm-1 1.3a25 25 0 0 1-16 8.2v.4c7.5-1.3 13-4.1 16.4-8.4l-.3-.2Zm-16.1 8.6a18 18 0 0 0 3.7 2l.1-.4c-1.4-.6-2.7-1.2-3.6-2l-.2.4Zm3.7 2c4 1.8 12 2.8 19.5 2.7v-.4a55 55 0 0 1-19.4-2.7l-.1.4Zm19.5 2.7c4.1 0 8-.5 11.3-1.2v-.4c-3.3.7-7.2 1.1-11.3 1.2v.4Zm11.3-1.2a23 23 0 0 0 8.7-3.5l-.2-.3c-2 1.5-4.9 2.6-8.6 3.4l.1.4Zm8.7-3.5c1.6-1.1 2.4-2.3 2-3.5l-.3.1c.2 1-.4 2-2 3l.3.4Zm2-3.5c0-.5-.4-1-.8-1.5l-1.6-1.2c-1.2-.7-2.5-1.2-3.4-1.5l-.1.4c.8.3 2.1.8 3.3 1.5.6.3 1 .7 1.5 1.1.4.4.7.9.8 1.3h.4Zm-5.8-4.2h-.2v.3l.1.1.1-.4Zm-.2 0-.5-.2-.1.4.5.1.1-.3Zm-.5-.2h-.3v-.3h-.5c0 .3.1.4.3.5l.4.2v-.4Zm-.4-.3.2-.2v-.4c-.3 0-.6.3-.6.6h.4Zm.2-.2 1 .2.1-.3-1.2-.3.1.4Zm1 .2 2.3.6v-.4l-2.2-.5v.3Zm2.3.6 1.8.5.1-.4-1.8-.5-.1.4Zm1.8.5a72.1 72.1 0 0 0 22.8 3.6v-.4c-7.9 0-15.5-1.2-22.7-3.6l-.1.4Zm22.8 3.6h53.1v-.4h-53.1v.4Zm53.1 0a54.6 54.6 0 0 1 4 .4v-.2h.3v-.1h-.1l-.2-.1-.4-.1a24 24 0 0 0-3.6-.3v.4ZM92 160.7l-2.8.3v.4l2.8-.3v-.4Zm-2.8.3c-3.3.3-6.3.8-8.8 1.5-2.5.7-4.4 1.6-5.6 2.5l.3.3c1-.9 3-1.7 5.4-2.4 2.5-.7 5.5-1.2 8.8-1.5v-.4Zm-14.4 4c-1 .9-1.5 1.8-1.3 2.8l.4-.1c-.1-.7.2-1.5 1.2-2.4l-.3-.3Zm-1.3 2.8a4 4 0 0 0 1.3 2.1l.3-.3a3.6 3.6 0 0 1-1.2-2l-.4.2ZM75 170c3-.5 5.7-1.3 8.1-2.2l-.1-.4a38 38 0 0 1-8 2.2v.4Zm8.1-2.2a21 21 0 0 0 8.5-6l-.3-.3c-2 2.5-4.8 4.5-8.3 5.9l.1.4Zm8.5-6 .5-.7-.3-.3-.5.7.3.3Zm12.3-.3-.1.1v.1l.1.2.3-.3v-.1h-.4Zm0 .4a11 11 0 0 0 4 4l.1-.3a12 12 0 0 1-3.8-4l-.3.3Zm4 4 .2-.2-.3.3Zm0 0c1.1.9 2.3 1.3 3.3 1.5 1 .1 1.9 0 2.4-.3l-.2-.4c-.4.3-1.2.4-2.1.3a8 8 0 0 1-3.2-1.3l-.2.3Zm5.7 1.2c.4-.2.6-.5.5-1l-.4.1c0 .2 0 .4-.3.5l.2.4Zm.5-1c0-.5-.5-1.1-1.4-1.8a17 17 0 0 0-4.5-2l-.1.4c2 .7 3.4 1.4 4.3 2 1 .6 1.3 1.1 1.3 1.5h.4Zm-5.9-3.8-4.2-1-.1.4c1.5.3 3 .6 4.2 1l.1-.4Zm-12.9-2.1c2.4 0 4.8.1 7 .4l.1-.4c-2.3-.3-4.7-.4-7-.4v.4Zm7.3.1a26 26 0 0 1-2.1-10.6h-.4c0 4.2.7 7.8 2.1 10.8l.4-.2Zm-2.1-10.6V71.5h-.4v78.2h.4Zm0-78.2V53.8h-.3v17.7h.3Zm-.1-17.9c-1.7 0-2.9-.4-3.6-1.2l-.3.3c.9.9 2.1 1.2 3.9 1.3v-.4Zm-3.6-1.2c-.5-.5-.8-1-1-2l-.5.1a5 5 0 0 0 1.2 2.2l.3-.3Zm-1.3-2.1c-8.4 0-16.7.2-23.5.4v.4l23.5-.4v-.4Zm-23.5.4A260.1 260.1 0 0 0 55.5 52l.2.3.6-.1 2.3-.3 13.4-.7v-.4ZM55.5 52a2 2 0 0 0-.6 1c-.2.5-.2 1-.2 1.7h.4l.1-1.5.5-.9-.2-.3Zm-.6 2.9c2.5-.7 7-.9 9.6-1v-.3a45 45 0 0 0-9.7.9l.1.4Zm9.6-1 16.7-.2v-.4l-16.7.3v.4Zm16.7-.2a184.3 184.3 0 0 1 13.2.1c.6.2 1 .4 1.3.7l.3-.3a3 3 0 0 0-1.5-.7l-2.7-.4c-2.2 0-5.6 0-10.6.2v.4Zm14.5.8c.4.4.5 1 .5 1.4h.4c0-.4 0-1.2-.6-1.7l-.3.3Zm.5 1.4L96 129h.4l.3-73.2h-.4ZM96 129l-.2 21.5h.4l.2-21.5H96Zm-.2 21.5c0 1.4 0 5.4-2.3 9.4l.4.2c2.4-4.1 2.3-8.1 2.3-9.6h-.4Zm-2.1 9.7a61.4 61.4 0 0 0 1.7 0v-.4h-1.8v.4Zm1.7 0v-.4.4ZM53.8 55.7l-.4 1-.5 1.7-1.5 5.4.4.1c.6-2.2 1-4 1.5-5.3a36.2 36.2 0 0 1 .9-2.6l-.4-.3Zm-2.4 8C50 69.5 47.4 79 43.1 93l.4.1c4.3-14 6.8-23.6 8.3-29.2l-.4-.1ZM43.1 93a1109.4 1109.4 0 0 1-12.2 38.8l.3.2a1109.4 1109.4 0 0 0 12.3-38.9h-.4ZM31 131.8l.3.3-.3-.3Zm0 0c-.9 1.6-.6 3.6.6 5.6l.4-.3c-1.2-1.9-1.4-3.7-.7-5l-.4-.2Zm.6 5.6c2.8 4.5 10.4 9.4 20.6 9.4v-.4c-10.1 0-17.6-4.8-20.2-9.3l-.4.3Zm20.6 9.4c6.6 0 12.4-1.3 16.8-3.6l-.2-.3c-4.3 2.2-10 3.5-16.6 3.5v.4Zm16.8-3.6c3.4-1.7 6-4.2 6.8-6.6l-.4-.1c-.8 2.2-3.2 4.6-6.6 6.4l.2.3Zm6.8-6.6c.5-1.3.4-2.4-.4-3l-.3.2c.6.5.8 1.5.3 2.7l.4.1Zm-.4-3a16.8 16.8 0 0 0-6.5-3 51 51 0 0 0-10-1.4v.4c3.7.2 7 .7 9.9 1.4 2.8.7 5 1.7 6.3 2.8l.3-.3Zm-16.8-4.2v.6h.5v-.6h-.5Zm0 .6c.2 2.6.2 4.3 0 5.3 0 1-.3 1.4-.5 1.6l.3.3c.3-.3.5-.8.6-1.8.2-1 .2-2.8 0-5.5h-.3Zm-.5 6.9c-.5.4-1.2.7-2.1 1l-3.3.5c-2.4.3-5.2.3-7.6.2v.4a51.5 51.5 0 0 0 11-.8c1-.2 1.7-.6 2.3-1l-.3-.3Zm-13 1.7a51 51 0 0 1-10.4-1.8 5 5 0 0 1-1.7-1l-.3.2c.4.5 1 .9 1.9 1.2.8.4 1.9.6 3 .9 2.3.5 5 .7 7.4.9v-.4ZM33 135.8c-.1-.2-.3-.5-.3-.8 0-.3.1-.7.7-1.2l-.3-.3c-.6.5-.8 1-.8 1.5s.2.8.4 1l.3-.2Zm.4-2c2-1.6 5-3 9-3.8v-.4c-4.1.9-7.3 2.2-9.3 3.9l.3.3Zm9-3.8a60 60 0 0 1 12.5-1.3v-.4a61 61 0 0 0-12.5 1.3v.4Zm12.5-1.3h3v-.4h-3v.4Zm3.2-.2-1.2-19-.4.1 1.2 19h.4Zm-1.2-19-1-13.1h-.4l1 13.2h.4Zm-1-13.1c-.7-9.7-1-16.2-1.2-20.4h-.4c.2 4.2.5 10.7 1.2 20.4h.4ZM54.6 76l-.1-4.5H54V76h.5Zm-.1-4.5v-1.2l.2-.3.2-.1v-.4l-.5.2-.2.5-.1 1.3h.4Zm.4-1.6h.2l.2.3.3 1h.4c-.1-.5-.2-1-.4-1.2a1 1 0 0 0-.3-.4.7.7 0 0 0-.5-.1v.4Zm.7 1.3.8 3.3.4-.1A79 79 0 0 0 56 71l-.4.1Zm.8 3.3.8 3.9h.4l-.8-4h-.4Zm.8 3.9c2.2 10.2 8 37.3 10.2 49.3l.4-.1c-2.3-12-8-39-10.2-49.3l-.4.1Zm10.2 49.2c0 .2 0 .3.2.3l.4.2 1.5.4v-.4a20.5 20.5 0 0 1-1.7-.5h-.4Zm2 1h.4l.1-.4h-.3l-.1.3Zm.4 0 1.4.4.1-.4-1.4-.4v.4Zm1.4.4.5.2v-.4l-.4-.2-.1.4Zm.7 0a783 783 0 0 1-9.2-35.4l-.4.1a739 739 0 0 0 9.2 35.3h.4Zm-9.2-35.4-2.3-9H60l2.3 9.1h.4Zm-2.3-9A453 453 0 0 1 55 61l-.4.1c1 5.4 3 13.4 5.5 23.4h.4ZM55 61c-.4-2.1-.6-3.9-.7-5.3h-.4c0 1.5.3 3.2.7 5.4h.4Zm-1-5 .2-.4-.2.3Zm86.9 74a60 60 0 0 0-15.5 2.1l.2.4c3.1-1.1 8.9-2 15.3-2.2v-.4Zm-15.5 2.1c-1.8.7-2.3 1.3-2.5 1.7l.4.1c0-.2.5-.7 2.3-1.4l-.2-.4Zm-2.5 1.7c-.4 1.1 0 2.6 1 4l.3-.2c-1-1.4-1.3-2.7-.9-3.7l-.4-.1Zm1 4c1.5 2.3 4.5 4.5 8.1 6l.2-.3a18.8 18.8 0 0 1-8-5.9l-.3.2Zm8.1 6c4.4 1.9 9.5 2.9 15 2.9v-.4a38 38 0 0 1-14.8-2.8l-.2.3Zm15 2.9c8.1 0 15.6-3 19-7.7l-.4-.3c-3.2 4.6-10.5 7.6-18.6 7.6v.4Zm19-7.7a10 10 0 0 0 1.3-9h-.4c1 3.2.6 6.1-1.3 8.7l.4.3Zm1.3-9-1.2-3.4-.4.2 1.2 3.3.4-.1Zm-1.2-3.4c-1.6-4.7-4.4-12.6-20-61h-.3c15.5 48.5 18.3 56.4 20 61.2l.3-.2Zm-20-61-.8-3h-.4l.9 3h.4Zm-.8-3-1-3h-.4l1 3h.4Zm-1.4-3-.6 4.6h.4l.6-4.6h-.4Zm-.6 4.6c-1.2 6.8-3.4 15.5-5.7 24.9h.4c2.3-9.3 4.5-18 5.7-24.8h-.4Zm-5.7 24.9-3 11.7h.5l2.9-11.6-.4-.1Zm-3 11.7c-2.6 11-4.3 17.4-5.4 21.3h.4c1-3.8 2.8-10.2 5.5-21.2l-.4-.1Zm-5.4 21.3-1 4h.3l1.1-4h-.4Zm-1 4-.2.6.4.1.1-.6-.4-.1Zm-.2.6-.2 1-.1.4v.4l.4-.2v-.4l.3-1h-.4Zm-.2 1.8h1.2v-.5a4 4 0 0 1-1 .2l-.2.3Zm1.2 0c4-1 8.1-1.4 12-1.5v-.4c-4 .1-8.1.5-12 1.4v.4Zm12.2-1.7c.3-11.9 1-33 1.8-46.3h-.4c-.8 13.3-1.5 34.4-1.8 46.3h.4Zm1.8-46.3.7-9.6h-.4l-.7 9.5h.4Zm.7-9.6.2-2.2h-.4l-.2 2.1h.4Zm.2-2.2c0-.3 0-.5.2-.6V68h.2v-.5c-.1 0-.3 0-.4.2l-.2.3-.2.7h.4Zm.5-.9h.1l.2.3.2.8.4-.1a4 4 0 0 0-.3-1l-.2-.3a.7.7 0 0 0-.5 0v.3Zm.5 1 .5 2.4h.4l-.5-2.4h-.4Zm.5 2.4v.2h.4v-.2h-.4Zm0 .2c1 5.8 10.6 54.4 10.7 54.9h.4c0-.6-9.7-49.2-10.7-55l-.4.1Zm10.7 54.9c.1.5 0 1-.4 1.4l.3.3a2 2 0 0 0 .5-1.8h-.4Zm-.4 1.4c-.3.4-.8.5-1.3.4l-.1.4c.6.2 1.3 0 1.7-.5l-.3-.3Zm-1.3.4a77 77 0 0 0-12.6-.7v.4c5.3 0 10 .3 12.5.7v-.4Zm-12.8-.5v1.6h.4v-1.6h-.4Zm.2 1.8h3.5v-.4h-3.5v.4Zm3.5 0c4.5 0 8.6.3 11.9.8 3.3.5 5.9 1.3 7.5 2.2l.2-.3c-1.7-1-4.3-1.7-7.6-2.3a83 83 0 0 0-12-.8v.4Zm19.4 3c.6.4 1 .7 1 1 .2.3.2.5.1.7l.4.1v-1c-.3-.4-.6-.7-1.3-1.1l-.2.3Zm1.1 1.7c-.1.4-.5.7-1 1l-2.3 1a36 36 0 0 1-5.2 1v.5c1.5-.2 3.6-.6 5.3-1.1a10 10 0 0 0 2.3-1c.6-.3 1.1-.8 1.3-1.3l-.4-.1Zm-8.5 3c-5 .8-10.4 1-14.8.5v.3c4.3.5 10 .4 14.8-.3v-.4Zm-14.8.5a2 2 0 0 1-1.6-1.9h-.4c0 1.1.8 2.1 2 2.2v-.3Zm-1.6-1.9.2-5.6h-.4l-.2 5.6h.4Zm-.2-5.4.3-.3-.3.3ZM55.3 129h-.4v.4h.4v-.4Zm-.5 0c-4.7 0-9.1.6-12.8 1.4-3.6.9-6.6 2.1-8.4 3.7l.3.3c1.7-1.5 4.6-2.7 8.2-3.6 3.6-.8 8-1.3 12.7-1.4v-.4Zm-21.2 5c-.3.4-.5.6-.5.9l.2.5.3-.3-.1-.2s0-.3.4-.5l-.3-.3Zm-.3 1.4c.2.3.8.6 1.4.9l2.6.8c2.1.4 4.8.7 7.7.9v-.4a46.7 46.7 0 0 1-10-1.6c-.7-.3-1.1-.5-1.3-.8l-.3.3ZM45 138a48.8 48.8 0 0 0 10.9-.8 5 5 0 0 0 1.8-.8l-.2-.3c-.4.3-1 .5-1.7.7-.8.3-1.7.4-2.8.6-2.2.2-5 .3-8 .2v.4Zm12.8-1.6.1-.4.2-1.4h-.4l-.1 1.3-.1.2.3.3Zm.3-1.8v-4.8h-.4v4.8h.4Zm0-4.8v-.5h-.4v.5h.4Zm-.2-.7h-2.6v.3H58v-.3Zm-2.8.1h.4-.4Zm86.4.9-.2 5.7h.4l.2-5.7h-.4Zm-.2 5.7c0 .6.5 1.2 1.2 1.3v-.4a.9.9 0 0 1-.8-1h-.4Zm1.2 1.3c4.3.5 9.8.4 14.6-.4v-.3a60 60 0 0 1-14.6.3v.4Zm14.6-.4a31.7 31.7 0 0 0 7.5-2l.7-.7-.4-.2c0 .2-.2.3-.5.6l-1.5.6c-1.3.5-3.2 1-5.8 1.4v.3Zm8.2-2.7v-.4a1 1 0 0 0-.3-.3c-.2-.2-.4-.4-.6-.4l-.2.3c.2 0 .4.2.5.4l.2.1v.1l.4.2Zm-.9-1.1a21 21 0 0 0-7.5-2.2c-3.3-.5-7.3-.8-11.7-.9v.4c4.4 0 8.4.4 11.7.9a23 23 0 0 1 7.3 2.1l.2-.3Zm-19.2-3h-3.5v.4h3.5v-.5Zm-3.7.2h.4-.4Zm2-3.1c4.6 0 8.6.4 10.9.7v-.4c-2.3-.3-6.2-.7-10.9-.7v.4Zm10.9.7c.3 0 .7 0 1-.3l-.4-.3c-.1.2-.3.3-.6.2v.4Zm1-.3c.2-.3.3-.6.2-1h-.4c0 .3 0 .5-.2.7l.3.3Zm.2-1c0-.5-9.7-49.1-10.7-54.9l-.4.1c1 5.8 10.6 54.4 10.7 54.9l.4-.1ZM145 71.7v-.3h-.4v.3h.4Zm0-.3-.3-1.5h-.4l.3 1.6h.4Zm-.7-1.5-.7 10.7h.4l.7-10.6h-.4Zm-.7 10.7c-.9 13.4-1.6 34.4-2 46.3h.5c.3-11.9 1-33 1.9-46.3h-.4Zm-1.7 46.5h1.6v-.4h-1.8v.4Zm1.7-.4v.4-.4Zm-42.3-73.5h1.1v-.4h-1.3v.4Zm1.1 0c9.3 0 22.3.3 33.1.8v-.4c-10.8-.5-23.8-.8-33-.8v.4Zm33.1.8c4 .2 6 .9 7.4 2.2l.3-.3c-1.5-1.4-3.7-2-7.7-2.3v.4Zm7.4 2.2.4.4.3-.2-.4-.5-.3.3Zm.8.3c0-1.2-.1-2.2-.4-2.9-.2-.7-.5-1.2-1-1.4l-.2.4c.3.1.6.5.9 1.1.2.7.3 1.6.3 2.8h.4Zm-1.4-4.3-1.5-.4-2.8-.3a440 440 0 0 0-35.6-1.3v.4a439.8 439.8 0 0 1 35.6 1.3 48 48 0 0 1 4 .7l.3-.4Zm-39.9-2h-1.2v.4h1.2v-.4Zm-1.3.2V53h.4v-2.7h-.4Zm.1 2.4.2.3-.2-.3Zm-4.9-2.3c.2.7.5 1.2.9 1.6l.3-.3c-.4-.3-.6-.8-.8-1.4h-.4Zm.9 1.6c.7.7 1.7 1 3.2 1v-.4c-1.4 0-2.4-.3-3-1l-.2.4Zm3.4.8v-2.6h-.4V53h.4Zm-.2-2.7h-4l.1.4h4v-.4Zm-4 .4h.1v-.4.4ZM98.2 25h-.7c-.2 0-.4 0-.5.2-.4.2-.6.5-.7 1.1l.4.1c.1-.5.3-.8.5-.9h1V25Zm-2 1.3a158.9 158.9 0 0 0-.5 10.5h.5a158.6 158.6 0 0 1 .5-10.4h-.4ZM95.8 37v3.2h.4v-3.4h-.4Zm0 3.2c0 4.6 0 7.6.3 9.5h.4c-.4-2-.3-5-.3-9.5h-.4Zm.5 9.7h4.1v-.5h-4v.5Zm4.3-.3V38h-.4v11.6h.4Zm0-11.4a238.3 238.3 0 0 0-.4-11.6h-.4c.2.9.3 2.2.4 4v7.6h.4Zm-.4-11.6c-.2-.7-.3-1-.7-1.3L99 25h-1v.4h.7l.4.1.5 1h.4Zm-2-1V25v.4Z" mask="url(#a)"/>
</svg>
