<svg xmlns="http://www.w3.org/2000/svg" width="125" height="128" fill="none">
  <path fill="#78E0ED" d="M22.1 28.2H19v3.2h3v-3.2Zm13.3-.2h-3.1v3.2h3.1V28ZM49 28h-3v3.2h3V28ZM8.2 41.8H5v3.3h3.2v-3.3Zm13.6 0h-3.2v3.3h3.2v-3.3Zm13.6 0h-3.1v3.3h3.1v-3.3ZM8.2 55.6H5v3.2h3.2v-3.2Zm13.6 0h-3.2v3.2h3.2v-3.2Zm13.6 0h-3.1v3.2h3.1v-3.2Zm13.6 0h-3v3.2h3v-3.2ZM8.2 69.4H5v3.3h3.2v-3.3Zm13.6 0h-3.2v3.3h3.2v-3.3Zm13.6 0h-3.1v3.3h3.1v-3.3Zm13.6 0h-3v3.3h3v-3.3ZM21.8 83.2h-3.2v3.3h3.2v-3.3Zm13.6 0h-3.1v3.3h3.1v-3.3Zm13.6 0h-3v3.3h3v-3.3Z"/>
  <path fill="#CFE5DC" fill-rule="evenodd" d="M84.4 119.7a28 28 0 0 0 17-4.2c5.6-3.5 8-8.7 10.9-14.4 2.5-5 3.9-12.4 1.2-17.5-4-7.5-18.9-11-20.8 2.3-1 7-2.7 12.8-11.3 23-4.3 5.1-5.3 10.4 3 10.8Z" clip-rule="evenodd"/>
  <path fill="#FCC" fill-rule="evenodd" d="M58.6 52.5c-.6-1.8-2-5-3-7-1.5-3.3-3.8-3-5-.7-2.2 4.6 1.7 10.8 5.6 11.6 2.1.4 3.4-.8 2.4-3.9Z" clip-rule="evenodd"/>
  <path fill="#E8E7F8" fill-rule="evenodd" d="M102.7 13c-5-6.2-19-6.7-27.8-4-8.5 2.8-8.2 10.3-3.4 14.2a24 24 0 0 0 8.1 3.8c1.4.3 4 1.4 6.6 2.2 4.1 1 8.3 1.4 12.7-1.2 6-3.5 7.2-10.8 3.8-15Z" clip-rule="evenodd"/>
  <mask id="a" width="68" height="121" x="45" y="7" fill="#000" maskUnits="userSpaceOnUse">
    <path fill="#fff" d="M45 7h68v121H45z"/>
    <path d="M111.4 99.8c-2-.7-3.9-1.1-5.7-1.1h-.1a15 15 0 0 0-6.2 1.4c-.7-.3-1.2-.7-1.8-1.1-1.8-1.5-3-3.9-3.5-7-.6-3.7-.3-8.6 1-14.4v-.2h-.6c-.6 3.1-1 6-1.2 8.4a31 31 0 0 0 .3 6.3c.5 3.2 1.8 5.7 3.7 7.3l1.4 1a30.3 30.3 0 0 0-7.4 5.8c-5.1 5.7-9 13.3-11.5 18.4v.1l-.3-1.4c-.5-1.5-1.7-3.2-3.6-5a46.4 46.4 0 0 0-6.5-4.8c-4.9-3.2-10.6-6.1-15.2-8.5a53.5 53.5 0 0 1-5.6-3 15.5 15.5 0 0 1-2-1.3 18.3 18.3 0 0 0 8.9-7.7 9.7 9.7 0 0 0-.3 3l.3 1.3.3.5.2-.5c.6-1.1 1-2.7 1.4-4.7l.5-5.9c.1-4.2-.1-8-.3-9.5-.2-1.9-1-3.1-1.9-4.5-.5-.7-1-1.5-1.3-2.4-.6-1.3-.7-3-.9-4.6l-.2-1.7c-.3-1.9-.6-2.8-1-3l-.4.1c-.6.2-1.1.2-1.5 0-.4-.3-.5-.8-.6-.9a24.2 24.2 0 0 0-1.6-8c0-.5-.2-1-.4-1.4-.4-1.3-1-2.8-1-4.2-.2-1.6.3-2.6 1.4-3.2 1.2-.7 2.4.5 2.7.8l.5.6L50.1 31a29 29 0 0 1 .3-10.6c1-4.1 3-6.8 6-8a6 6 0 0 1 2.2-.5c.7 0 1.6 0 2.1.4.6.5 1.3.7 2 .6l-.8 1s-1.2 1.9-1.7 4.3a9.4 9.4 0 0 0 0 4.3l-.2.2c-1.6 1.5-3 2.8-4 4.1-.8 1.3-1.4 2.4-1.8 3.6-.7 2.3-.5 4.4-.3 6.8l.3 2.3c0 .7.2 1.4.5 2.1-.4.7-.7 1.3-.8 2l-.2.7.6-.5 1-.7 1.5 1.8c0 .7.2 1.5.6 2.3.1.4.1.6 0 .8-.2.4-.8.5-.8.5-1.4.2-2.5.7-3.1 1.7-.7 1-.9 2.2-.7 4 .2 1.5.6 3 1 4.4a38 38 0 0 1 1 5.5c.4 3 .8 6.2 2.4 8.5 1.6 2.3 3.8 4.1 6 5.8l1.3 1.1a32 32 0 0 0 6.7 4.6c.8.5 2 .7 3.1.7.7 0 1.4 0 1.9-.3.8-.3 1.3-.7 1.6-1.4.3-.7.4-1.8.3-2.8-.2-1.1-.6-2-1.2-2.5a3.6 3.6 0 0 1-1.5-3.1c0-.4 0-.4 1-.5.6 0 1.3-.2 2.3-.4 1.2-.3 2.6-1.1 4.3-2.5l2.3-1.9 1.6-1.6-2 1.2c-.6.4-1.8.4-3.6.2-1.4-.1-2.5-.4-2.6-.4l-2.7.1c-3.8.2-6.6.2-8.5.2 1-.3 2-.8 3.3-1.4l3.3-1.8.8.1.8.2s.4.2.6 0c.5-.4.5-1.4 0-3.2a6 6 0 0 0-1.6-3.1l.8-.2.6.2a10.5 10.5 0 0 0 3.5.6c.8 0 1.3-.3 1.5-.8 0-.3 0-.7-.5-1-1-1-2.5-.5-3.5 0l-.5.1-1 .3c-1-.4-1.8-.8-2.3-1.2-.7-.5-1.1-1-1.1-1.8l.3-13.6c0-.8-.4-1.4-1-2l-2-1.2c-1.5-.5-3-.7-3-.7-1.4 0-3 .2-4.5.7a23 23 0 0 0-6.5 3 8 8 0 0 1-.3-.6c1.1-1.8 3-3.2 4.2-4 2.1-1.3 4-1.9 4.1-1.9 2.3-.8 3.7-.7 4.5-.4.8.3 1.2.8 1.2.8l.3.5.2-.6c0-.4.1-.5.2-.5.2 0 1 .8 1.5 2v.2l.5-.3v-.1l-.7-1.1c-.5-.9-1-1.3-1.4-1.2-.2 0-.4.1-.5.4l-1.1-.6c-.6-.2-1.2-.3-2-.3s-1.8.3-2.9.7c0 0-2 .7-4.1 2A14.7 14.7 0 0 0 55 41a72.7 72.7 0 0 0-.8-7.3 10.1 10.1 0 0 1 2.3-6.7c1-1.2 2.2-2.6 3.9-4a7.7 7.7 0 0 0 2.2 3.2 47.2 47.2 0 0 0 12 7.5c2.4 1 4.9 1.2 7.3 1.5 1.8.2 3.7.4 5.5.9a11.7 11.7 0 0 1 7.5 6.3l.2.7a26 26 0 0 0-6.7-3.3c-1.4-.4-2.7-.6-3.9-.6-1.3 0-2.5.4-3.4 1-.8.7-1.2 1.7-1.3 3 0 1.1.2 2.3.7 3.1a5 5 0 0 0 2.4 2.2c.6.2 1.2.4 1.8.4.6 0 1.3-.2 2-.4l1-.4c1.1-.4 2-.7 3-.8 1 0 2 .3 3.2 1 .6.4 1 1.1 1.3 2.1.3.9.4 1.9.4 3.1 0 2-.4 4-.4 4a135.8 135.8 0 0 0-1.2 8.4 14 14 0 0 1-1 5c-.5 1.6-1.6 2.7-2.7 3.9L89 76.3l-3.8 4.9-1.1 1.3 1.4-1a50.4 50.4 0 0 0 9-8.2c1.2-1.7 2-3.2 2.2-4.6a35.8 35.8 0 0 0 .7-7.3c.4.2 1 .4 1.6.2.6-.2 1-.7 1.3-1.6.6-1.8 1.7-6.1 2.4-9l.8-2.8c.4-1.4.3-2.7-.4-3.8a4 4 0 0 0-2.5-2h-.1a3 3 0 0 0-1.8.9l.4-5.2a18.5 18.5 0 0 0 6.5 1h.6V39s.2-1.3.2-3.3c0-1.8 0-4.6-.8-7.7a24 24 0 0 0-3.1-7.5l.8-.8.2-.2-.3-.2s-1-.7-2.9-1.6a23 23 0 0 0-9-5.9s-.6-.2-2.5-.4c-1.7-.2-4.7-.5-9.8-.5-1.4 0-2.8-.6-4-1.2-1.3-.5-2.6-1-4-1.1-1.2-.1-2.4 0-3.6.6-.8.4-1.6 1-2.3 1.6l.5-.8c.5-.8.6-1.3.4-1.6-.1-.3-.4-.3-.5-.3h-.1c-.6.3-1 .7-1.4 1.1a4 4 0 0 0-.6 1.6l-.2 1.4c-.8.3-1.5.2-2.1-.3-.7-.6-1.7-.6-2.5-.6-.9 0-1.8.3-2.3.6a9 9 0 0 0-4.2 3.3c-1 1.4-1.7 3-2.2 5a32 32 0 0 0-.3 10.8l1.2 12.5-1-.6c-.7-.2-1.3-.2-1.9.1a3 3 0 0 0-1.4 1.6c-.3.6-.4 1.3-.3 2.1 0 1.5.6 3 1 4.4.3.5.4 1 .5 1.3l.3.8c.4 1.2 1 3 1.3 7.2 0 0 .2.8.8 1.2.5.3 1.2.4 2 .1.1.1.4.6.7 2.4l.2 1.8c.1 1.6.3 3.4.9 4.7.4 1 .9 1.7 1.4 2.5.8 1.3 1.6 2.5 1.8 4.3A54.3 54.3 0 0 1 55.8 96c-.1-.7 0-1.9.4-3.5v-.1c0-.4.2-.7.3-1L57 89l-1 2a19.6 19.6 0 0 1-9.7 9.1c-.3.1-.3.3-.3.4 0 .3.2.5.7 1l1.6 1 5.6 2.9c4.6 2.3 10.3 5.2 15.2 8.4a46 46 0 0 1 6.4 4.8 12 12 0 0 1 3.5 4.7 4 4 0 0 1-.3 3.2v.2l.4.2.1-.1 1-2c2.6-5 6.4-12.7 11.6-18.4 2.4-2.6 5-4.6 7.6-5.8a14 14 0 0 0 7 .8c2.8-.3 5-1.2 5-1.2l.6-.3-.6-.2Zm-1 .2a21.3 21.3 0 0 1-7.3 1 11 11 0 0 1-3-.6 14.8 14.8 0 0 1 10.4-.4ZM63.9 11.5v-.7c.3-1 .9-1.8 1.8-2.3l-.2.6a14 14 0 0 1-1.6 2.4ZM99 17.2a28.3 28.3 0 0 0-12.5-1.4C82 16 78.2 17 75 17.7c-2.3.5-4.2 1-5.8 1-1.6.1-2.6-.2-3.2-1a10.4 10.4 0 0 1-2.3-5.3l1-.6c1.8-2 4-3 6.2-2.8 1.3.1 2.5.6 3.7 1.1 1.4.6 2.8 1.2 4.3 1.2 5 0 8 .3 9.7.5l2.5.4c3 1.2 5.7 2.9 8 5H99ZM67.2 19l2.1.2c1.6-.1 3.6-.6 6-1 3-.8 6.9-1.6 11.3-2A29.8 29.8 0 0 1 100 18l1.8 2.2-2 2L97 25a10 10 0 0 1-8 3h-2a24 24 0 0 1-11.8-3.4c-3.4-2-6.4-3.4-9.1-4.2-1-.3-1.8-.4-2.4-.4-.6 0-1 .2-1.4.4-.5.4-.6 1-.6 1v.2h.1a30.4 30.4 0 0 0 12.8 7.3c3.2.9 5.2.7 5.2.7a77.3 77.3 0 0 1 15.6-1.1c3 0 5.2.2 6.5.3A35.1 35.1 0 0 1 90 33.6c-2.2.3-4.7-.2-7-.9a52.6 52.6 0 0 1-17.3-7.6l-.5-.4c-.6-.5-1.6-1.3-2.6-1.8a5 5 0 0 0-1.4-.6 2.1 2.1 0 0 0-.6 0 8.7 8.7 0 0 1 0-4c.5-2.3 1.5-4 1.6-4.2l1-1.2.4 1.6a11 11 0 0 0 2 3.6c.4.5.9.8 1.5 1Zm35 .9a21.1 21.1 0 0 0-1-1.4l1.5.9-.5.5Zm-3.6 17.7c0 1.3-.5 6.8-.6 6.8v.2h.5a2 2 0 0 1 1.2-1.4l.8-.3c1 .2 1.7.8 2.2 1.6.5 1 .6 2.2.3 3.5l-.8 2.8-2.4 9a2 2 0 0 1-1 1.2c-.7.2-1.6-.4-1.6-.4l-.6-.4.2.7v1.6c0 1 0 3-.6 6s-3.5 6.2-5.9 8.4a50.2 50.2 0 0 1-3.5 3l2.6-3.4 1.3-1.4c1.1-1.3 2.2-2.4 2.9-4 .6-1.7.8-3.5 1-5.2v-1l1.1-7.5s.4-2 .4-4a12 12 0 0 0-.4-3.2 4 4 0 0 0-1.5-2.4 5.6 5.6 0 0 0-3.5-1.1c-1 0-2 .4-3.2.8l-1 .4c-2.3.8-4.3 0-5.6-2a5 5 0 0 1-.6-2.8c0-1 .5-2 1.1-2.5 2-1.5 4.8-1 6.9-.4 2.5.8 5 2.3 6.6 3.3.2.2.5.2.6 0 .3-.3 0-1-.2-1.5a12.5 12.5 0 0 0-7.8-6.5c-1.8-.5-3.7-.7-5.6-1a27 27 0 0 1-7.2-1.4c-4-1.5-7.8-4-11.8-7.4-1-.9-1.6-1.9-2-3 .4 0 1 .2 1.6.5L65 25l.5.4c2.4 1.8 5.1 3.3 8.4 4.7 2.6 1 5.5 2 9 3 2.4.7 5 1.3 7.3 1a24.7 24.7 0 0 0 8.7-3.1c2.3-1.2 3.8-2.3 3.8-2.3l.5-.4-.6-.1s-3-.3-7.3-.4h-1.9c1.5-.5 2.7-1.3 4-2.5l2.8-2.8 1.9-1.8a22 22 0 0 1 3 7.2 30.7 30.7 0 0 1 .6 10.6c-2 0-3.6-.3-4.7-.5l-2-.6-.4-.2v.4Zm-14-9.3-5 .7s-2 0-5-.7c-2.9-.8-7.4-2.7-12.4-7 0-.2.1-.4.3-.5.5-.3 1.4-.6 3.3 0 2.7.8 5.7 2.2 9 4.2 3 1.8 6.2 2.9 9.9 3.3Zm-30 14.4.3-.6.2.3-.5.3Zm17 13.2c0 1 .6 1.7 1.4 2.3l1.7 1h-.4c-.7-.7-1.4-1-1.4-1l-1.6-.5c-1-.2-1.9-.2-2.4 0-.4.2-.6.5-.7.9-.2.5-.1.9.2 1.2.3.3.9.4 1.6.5a13.4 13.4 0 0 0 4.1-.5c.6.6 1.3 1.6 1.7 3.1.6 2.2.2 2.6.2 2.6h-.1l-.9-.2c-.8-.2-1-.1-1.2 0-.3.2-6 3.4-8.4 3.5h-.1v.5h.1s3.9.3 10.6 0l2.7-.2 2.5.5H84l-1.3 1.1c-1.6 1.3-3 2-4.2 2.4l-2.1.4c-1 0-1.4.1-1.5 1a4.4 4.4 0 0 0 1.6 3.6c.6.3.9 1 1 2 .1 1 0 2-.2 2.6a2 2 0 0 1-1.3 1.1c-1.4.5-3.4.3-4.6-.3a38.2 38.2 0 0 1-6.5-4.6l-1.4-1.1c-2.2-1.7-4.4-3.4-5.9-5.7a19.5 19.5 0 0 1-2.3-8.3 46.9 46.9 0 0 0-1-5.5c-.4-1.4-.8-3-1-4.4-.1-1.6 0-2.8.6-3.6.5-.8 1.5-1.3 2.8-1.5 0 0 .9 0 1.2-.7.2-.4.2-.8 0-1.3-.3-.6-.5-1-.5-1.6 1.5 1.5 3.5 2.5 5.3 2.9a7 7 0 0 0 4.1-.3 6.2 6.2 0 0 0 3.7-4.8c0-.6 0-1.2-.3-1.7a3 3 0 0 0-1-1.1c-.4-.3-1-.6-1.6-.7a13.3 13.3 0 0 0-8 1.4c-.8.5-1.5 1-2 1.7-.4.4-.6.9-.7 1.4l-1-1.4 2.3-1.4c2-1.1 5.2-2.4 8.3-2.2l2.8.6c1.2.5 2.6 1.3 2.6 2.7L71.7 56Zm2 3.5a28 28 0 0 1-3.5.4c-.6 0-1.1-.2-1.3-.4-.2-.2-.2-.4-.1-.7 0-.2.2-.4.4-.5l.8-.1c1.2 0 2.7.6 2.8.6l1 .7Zm-11.1-19c1.7-.5 3.7-.6 5-.3 1 .2 1.9.7 2.2 1.5.5.8.4 1.9-.2 3-1.8 3.4-5 3.3-6.7 3-.9-.2-2-.6-2.9-1.1-.9-.6-1.8-1.2-2.6-2 .1-.6.3-1.1.7-1.6a8 8 0 0 1 4.5-2.5Zm14 18.8a9.3 9.3 0 0 0 .8-.2c1-.4 2.2-1 3-.2l.3.6c0 .1-.4.3-1 .4-.8 0-2-.1-3.2-.6Z"/>
  </mask>
  <path fill="#1A174F" d="M111.4 99.8c-2-.7-3.9-1.1-5.7-1.1h-.1a15 15 0 0 0-6.2 1.4c-.7-.3-1.2-.7-1.8-1.1-1.8-1.5-3-3.9-3.5-7-.6-3.7-.3-8.6 1-14.4v-.2h-.6c-.6 3.1-1 6-1.2 8.4a31 31 0 0 0 .3 6.3c.5 3.2 1.8 5.7 3.7 7.3l1.4 1a30.3 30.3 0 0 0-7.4 5.8c-5.1 5.7-9 13.3-11.5 18.4v.1l-.3-1.4c-.5-1.5-1.7-3.2-3.6-5a46.4 46.4 0 0 0-6.5-4.8c-4.9-3.2-10.6-6.1-15.2-8.5a53.5 53.5 0 0 1-5.6-3 15.5 15.5 0 0 1-2-1.3 18.3 18.3 0 0 0 8.9-7.7 9.7 9.7 0 0 0-.3 3l.3 1.3.3.5.2-.5c.6-1.1 1-2.7 1.4-4.7l.5-5.9c.1-4.2-.1-8-.3-9.5-.2-1.9-1-3.1-1.9-4.5-.5-.7-1-1.5-1.3-2.4-.6-1.3-.7-3-.9-4.6l-.2-1.7c-.3-1.9-.6-2.8-1-3l-.4.1c-.6.2-1.1.2-1.5 0-.4-.3-.5-.8-.6-.9a24.2 24.2 0 0 0-1.6-8c0-.5-.2-1-.4-1.4-.4-1.3-1-2.8-1-4.2-.2-1.6.3-2.6 1.4-3.2 1.2-.7 2.4.5 2.7.8l.5.6L50.1 31a29 29 0 0 1 .3-10.6c1-4.1 3-6.8 6-8a6 6 0 0 1 2.2-.5c.7 0 1.6 0 2.1.4.6.5 1.3.7 2 .6l-.8 1s-1.2 1.9-1.7 4.3a9.4 9.4 0 0 0 0 4.3l-.2.2c-1.6 1.5-3 2.8-4 4.1-.8 1.3-1.4 2.4-1.8 3.6-.7 2.3-.5 4.4-.3 6.8l.3 2.3c0 .7.2 1.4.5 2.1-.4.7-.7 1.3-.8 2l-.2.7.6-.5 1-.7 1.5 1.8c0 .7.2 1.5.6 2.3.1.4.1.6 0 .8-.2.4-.8.5-.8.5-1.4.2-2.5.7-3.1 1.7-.7 1-.9 2.2-.7 4 .2 1.5.6 3 1 4.4a38 38 0 0 1 1 5.5c.4 3 .8 6.2 2.4 8.5 1.6 2.3 3.8 4.1 6 5.8l1.3 1.1a32 32 0 0 0 6.7 4.6c.8.5 2 .7 3.1.7.7 0 1.4 0 1.9-.3.8-.3 1.3-.7 1.6-1.4.3-.7.4-1.8.3-2.8-.2-1.1-.6-2-1.2-2.5a3.6 3.6 0 0 1-1.5-3.1c0-.4 0-.4 1-.5.6 0 1.3-.2 2.3-.4 1.2-.3 2.6-1.1 4.3-2.5l2.3-1.9 1.6-1.6-2 1.2c-.6.4-1.8.4-3.6.2-1.4-.1-2.5-.4-2.6-.4l-2.7.1c-3.8.2-6.6.2-8.5.2 1-.3 2-.8 3.3-1.4l3.3-1.8.8.1.8.2s.4.2.6 0c.5-.4.5-1.4 0-3.2a6 6 0 0 0-1.6-3.1l.8-.2.6.2a10.5 10.5 0 0 0 3.5.6c.8 0 1.3-.3 1.5-.8 0-.3 0-.7-.5-1-1-1-2.5-.5-3.5 0l-.5.1-1 .3c-1-.4-1.8-.8-2.3-1.2-.7-.5-1.1-1-1.1-1.8l.3-13.6c0-.8-.4-1.4-1-2l-2-1.2c-1.5-.5-3-.7-3-.7-1.4 0-3 .2-4.5.7a23 23 0 0 0-6.5 3 8 8 0 0 1-.3-.6c1.1-1.8 3-3.2 4.2-4 2.1-1.3 4-1.9 4.1-1.9 2.3-.8 3.7-.7 4.5-.4.8.3 1.2.8 1.2.8l.3.5.2-.6c0-.4.1-.5.2-.5.2 0 1 .8 1.5 2v.2l.5-.3v-.1l-.7-1.1c-.5-.9-1-1.3-1.4-1.2-.2 0-.4.1-.5.4l-1.1-.6c-.6-.2-1.2-.3-2-.3s-1.8.3-2.9.7c0 0-2 .7-4.1 2A14.7 14.7 0 0 0 55 41a72.7 72.7 0 0 0-.8-7.3 10.1 10.1 0 0 1 2.3-6.7c1-1.2 2.2-2.6 3.9-4a7.7 7.7 0 0 0 2.2 3.2 47.2 47.2 0 0 0 12 7.5c2.4 1 4.9 1.2 7.3 1.5 1.8.2 3.7.4 5.5.9a11.7 11.7 0 0 1 7.5 6.3l.2.7a26 26 0 0 0-6.7-3.3c-1.4-.4-2.7-.6-3.9-.6-1.3 0-2.5.4-3.4 1-.8.7-1.2 1.7-1.3 3 0 1.1.2 2.3.7 3.1a5 5 0 0 0 2.4 2.2c.6.2 1.2.4 1.8.4.6 0 1.3-.2 2-.4l1-.4c1.1-.4 2-.7 3-.8 1 0 2 .3 3.2 1 .6.4 1 1.1 1.3 2.1.3.9.4 1.9.4 3.1 0 2-.4 4-.4 4a135.8 135.8 0 0 0-1.2 8.4 14 14 0 0 1-1 5c-.5 1.6-1.6 2.7-2.7 3.9L89 76.3l-3.8 4.9-1.1 1.3 1.4-1a50.4 50.4 0 0 0 9-8.2c1.2-1.7 2-3.2 2.2-4.6a35.8 35.8 0 0 0 .7-7.3c.4.2 1 .4 1.6.2.6-.2 1-.7 1.3-1.6.6-1.8 1.7-6.1 2.4-9l.8-2.8c.4-1.4.3-2.7-.4-3.8a4 4 0 0 0-2.5-2h-.1a3 3 0 0 0-1.8.9l.4-5.2a18.5 18.5 0 0 0 6.5 1h.6V39s.2-1.3.2-3.3c0-1.8 0-4.6-.8-7.7a24 24 0 0 0-3.1-7.5l.8-.8.2-.2-.3-.2s-1-.7-2.9-1.6a23 23 0 0 0-9-5.9s-.6-.2-2.5-.4c-1.7-.2-4.7-.5-9.8-.5-1.4 0-2.8-.6-4-1.2-1.3-.5-2.6-1-4-1.1-1.2-.1-2.4 0-3.6.6-.8.4-1.6 1-2.3 1.6l.5-.8c.5-.8.6-1.3.4-1.6-.1-.3-.4-.3-.5-.3h-.1c-.6.3-1 .7-1.4 1.1a4 4 0 0 0-.6 1.6l-.2 1.4c-.8.3-1.5.2-2.1-.3-.7-.6-1.7-.6-2.5-.6-.9 0-1.8.3-2.3.6a9 9 0 0 0-4.2 3.3c-1 1.4-1.7 3-2.2 5a32 32 0 0 0-.3 10.8l1.2 12.5-1-.6c-.7-.2-1.3-.2-1.9.1a3 3 0 0 0-1.4 1.6c-.3.6-.4 1.3-.3 2.1 0 1.5.6 3 1 4.4.3.5.4 1 .5 1.3l.3.8c.4 1.2 1 3 1.3 7.2 0 0 .2.8.8 1.2.5.3 1.2.4 2 .1.1.1.4.6.7 2.4l.2 1.8c.1 1.6.3 3.4.9 4.7.4 1 .9 1.7 1.4 2.5.8 1.3 1.6 2.5 1.8 4.3A54.3 54.3 0 0 1 55.8 96c-.1-.7 0-1.9.4-3.5v-.1c0-.4.2-.7.3-1L57 89l-1 2a19.6 19.6 0 0 1-9.7 9.1c-.3.1-.3.3-.3.4 0 .3.2.5.7 1l1.6 1 5.6 2.9c4.6 2.3 10.3 5.2 15.2 8.4a46 46 0 0 1 6.4 4.8 12 12 0 0 1 3.5 4.7 4 4 0 0 1-.3 3.2v.2l.4.2.1-.1 1-2c2.6-5 6.4-12.7 11.6-18.4 2.4-2.6 5-4.6 7.6-5.8a14 14 0 0 0 7 .8c2.8-.3 5-1.2 5-1.2l.6-.3-.6-.2Zm-1 .2a21.3 21.3 0 0 1-7.3 1 11 11 0 0 1-3-.6 14.8 14.8 0 0 1 10.4-.4ZM63.9 11.5v-.7c.3-1 .9-1.8 1.8-2.3l-.2.6a14 14 0 0 1-1.6 2.4ZM99 17.2a28.3 28.3 0 0 0-12.5-1.4C82 16 78.2 17 75 17.7c-2.3.5-4.2 1-5.8 1-1.6.1-2.6-.2-3.2-1a10.4 10.4 0 0 1-2.3-5.3l1-.6c1.8-2 4-3 6.2-2.8 1.3.1 2.5.6 3.7 1.1 1.4.6 2.8 1.2 4.3 1.2 5 0 8 .3 9.7.5l2.5.4c3 1.2 5.7 2.9 8 5H99ZM67.2 19l2.1.2c1.6-.1 3.6-.6 6-1 3-.8 6.9-1.6 11.3-2A29.8 29.8 0 0 1 100 18l1.8 2.2-2 2L97 25a10 10 0 0 1-8 3h-2a24 24 0 0 1-11.8-3.4c-3.4-2-6.4-3.4-9.1-4.2-1-.3-1.8-.4-2.4-.4-.6 0-1 .2-1.4.4-.5.4-.6 1-.6 1v.2h.1a30.4 30.4 0 0 0 12.8 7.3c3.2.9 5.2.7 5.2.7a77.3 77.3 0 0 1 15.6-1.1c3 0 5.2.2 6.5.3A35.1 35.1 0 0 1 90 33.6c-2.2.3-4.7-.2-7-.9a52.6 52.6 0 0 1-17.3-7.6l-.5-.4c-.6-.5-1.6-1.3-2.6-1.8a5 5 0 0 0-1.4-.6 2.1 2.1 0 0 0-.6 0 8.7 8.7 0 0 1 0-4c.5-2.3 1.5-4 1.6-4.2l1-1.2.4 1.6a11 11 0 0 0 2 3.6c.4.5.9.8 1.5 1Zm35 .9a21.1 21.1 0 0 0-1-1.4l1.5.9-.5.5Zm-3.6 17.7c0 1.3-.5 6.8-.6 6.8v.2h.5a2 2 0 0 1 1.2-1.4l.8-.3c1 .2 1.7.8 2.2 1.6.5 1 .6 2.2.3 3.5l-.8 2.8-2.4 9a2 2 0 0 1-1 1.2c-.7.2-1.6-.4-1.6-.4l-.6-.4.2.7v1.6c0 1 0 3-.6 6s-3.5 6.2-5.9 8.4a50.2 50.2 0 0 1-3.5 3l2.6-3.4 1.3-1.4c1.1-1.3 2.2-2.4 2.9-4 .6-1.7.8-3.5 1-5.2v-1l1.1-7.5s.4-2 .4-4a12 12 0 0 0-.4-3.2 4 4 0 0 0-1.5-2.4 5.6 5.6 0 0 0-3.5-1.1c-1 0-2 .4-3.2.8l-1 .4c-2.3.8-4.3 0-5.6-2a5 5 0 0 1-.6-2.8c0-1 .5-2 1.1-2.5 2-1.5 4.8-1 6.9-.4 2.5.8 5 2.3 6.6 3.3.2.2.5.2.6 0 .3-.3 0-1-.2-1.5a12.5 12.5 0 0 0-7.8-6.5c-1.8-.5-3.7-.7-5.6-1a27 27 0 0 1-7.2-1.4c-4-1.5-7.8-4-11.8-7.4-1-.9-1.6-1.9-2-3 .4 0 1 .2 1.6.5L65 25l.5.4c2.4 1.8 5.1 3.3 8.4 4.7 2.6 1 5.5 2 9 3 2.4.7 5 1.3 7.3 1a24.7 24.7 0 0 0 8.7-3.1c2.3-1.2 3.8-2.3 3.8-2.3l.5-.4-.6-.1s-3-.3-7.3-.4h-1.9c1.5-.5 2.7-1.3 4-2.5l2.8-2.8 1.9-1.8a22 22 0 0 1 3 7.2 30.7 30.7 0 0 1 .6 10.6c-2 0-3.6-.3-4.7-.5l-2-.6-.4-.2v.4Zm-14-9.3-5 .7s-2 0-5-.7c-2.9-.8-7.4-2.7-12.4-7 0-.2.1-.4.3-.5.5-.3 1.4-.6 3.3 0 2.7.8 5.7 2.2 9 4.2 3 1.8 6.2 2.9 9.9 3.3Zm-30 14.4.3-.6.2.3-.5.3Zm17 13.2c0 1 .6 1.7 1.4 2.3l1.7 1h-.4c-.7-.7-1.4-1-1.4-1l-1.6-.5c-1-.2-1.9-.2-2.4 0-.4.2-.6.5-.7.9-.2.5-.1.9.2 1.2.3.3.9.4 1.6.5a13.4 13.4 0 0 0 4.1-.5c.6.6 1.3 1.6 1.7 3.1.6 2.2.2 2.6.2 2.6h-.1l-.9-.2c-.8-.2-1-.1-1.2 0-.3.2-6 3.4-8.4 3.5h-.1v.5h.1s3.9.3 10.6 0l2.7-.2 2.5.5H84l-1.3 1.1c-1.6 1.3-3 2-4.2 2.4l-2.1.4c-1 0-1.4.1-1.5 1a4.4 4.4 0 0 0 1.6 3.6c.6.3.9 1 1 2 .1 1 0 2-.2 2.6a2 2 0 0 1-1.3 1.1c-1.4.5-3.4.3-4.6-.3a38.2 38.2 0 0 1-6.5-4.6l-1.4-1.1c-2.2-1.7-4.4-3.4-5.9-5.7a19.5 19.5 0 0 1-2.3-8.3 46.9 46.9 0 0 0-1-5.5c-.4-1.4-.8-3-1-4.4-.1-1.6 0-2.8.6-3.6.5-.8 1.5-1.3 2.8-1.5 0 0 .9 0 1.2-.7.2-.4.2-.8 0-1.3-.3-.6-.5-1-.5-1.6 1.5 1.5 3.5 2.5 5.3 2.9a7 7 0 0 0 4.1-.3 6.2 6.2 0 0 0 3.7-4.8c0-.6 0-1.2-.3-1.7a3 3 0 0 0-1-1.1c-.4-.3-1-.6-1.6-.7a13.3 13.3 0 0 0-8 1.4c-.8.5-1.5 1-2 1.7-.4.4-.6.9-.7 1.4l-1-1.4 2.3-1.4c2-1.1 5.2-2.4 8.3-2.2l2.8.6c1.2.5 2.6 1.3 2.6 2.7L71.7 56Zm2 3.5a28 28 0 0 1-3.5.4c-.6 0-1.1-.2-1.3-.4-.2-.2-.2-.4-.1-.7 0-.2.2-.4.4-.5l.8-.1c1.2 0 2.7.6 2.8.6l1 .7Zm-11.1-19c1.7-.5 3.7-.6 5-.3 1 .2 1.9.7 2.2 1.5.5.8.4 1.9-.2 3-1.8 3.4-5 3.3-6.7 3-.9-.2-2-.6-2.9-1.1-.9-.6-1.8-1.2-2.6-2 .1-.6.3-1.1.7-1.6a8 8 0 0 1 4.5-2.5Zm14 18.8a9.3 9.3 0 0 0 .8-.2c1-.4 2.2-1 3-.2l.3.6c0 .1-.4.3-1 .4-.8 0-2-.1-3.2-.6Z"/>
  <path stroke="#1A174F" stroke-width=".4" d="M111.4 99.8c-2-.7-3.9-1.1-5.7-1.1h-.1a15 15 0 0 0-6.2 1.4c-.7-.3-1.2-.7-1.8-1.1-1.8-1.5-3-3.9-3.5-7-.6-3.7-.3-8.6 1-14.4v-.2h-.6c-.6 3.1-1 6-1.2 8.4a31 31 0 0 0 .3 6.3c.5 3.2 1.8 5.7 3.7 7.3l1.4 1a30.3 30.3 0 0 0-7.4 5.8c-5.1 5.7-9 13.3-11.5 18.4v.1l-.3-1.4c-.5-1.5-1.7-3.2-3.6-5a46.4 46.4 0 0 0-6.5-4.8c-4.9-3.2-10.6-6.1-15.2-8.5a53.5 53.5 0 0 1-5.6-3 15.5 15.5 0 0 1-2-1.3 18.3 18.3 0 0 0 8.9-7.7 9.7 9.7 0 0 0-.3 3l.3 1.3.3.5.2-.5c.6-1.1 1-2.7 1.4-4.7l.5-5.9c.1-4.2-.1-8-.3-9.5-.2-1.9-1-3.1-1.9-4.5-.5-.7-1-1.5-1.3-2.4-.6-1.3-.7-3-.9-4.6l-.2-1.7c-.3-1.9-.6-2.8-1-3l-.4.1c-.6.2-1.1.2-1.5 0-.4-.3-.5-.8-.6-.9a24.2 24.2 0 0 0-1.6-8c0-.5-.2-1-.4-1.4-.4-1.3-1-2.8-1-4.2-.2-1.6.3-2.6 1.4-3.2 1.2-.7 2.4.5 2.7.8l.5.6L50.1 31a29 29 0 0 1 .3-10.6c1-4.1 3-6.8 6-8a6 6 0 0 1 2.2-.5c.7 0 1.6 0 2.1.4.6.5 1.3.7 2 .6l-.8 1s-1.2 1.9-1.7 4.3a9.4 9.4 0 0 0 0 4.3l-.2.2c-1.6 1.5-3 2.8-4 4.1-.8 1.3-1.4 2.4-1.8 3.6-.7 2.3-.5 4.4-.3 6.8l.3 2.3c0 .7.2 1.4.5 2.1-.4.7-.7 1.3-.8 2l-.2.7.6-.5 1-.7 1.5 1.8c0 .7.2 1.5.6 2.3.1.4.1.6 0 .8-.2.4-.8.5-.8.5-1.4.2-2.5.7-3.1 1.7-.7 1-.9 2.2-.7 4 .2 1.5.6 3 1 4.4a38 38 0 0 1 1 5.5c.4 3 .8 6.2 2.4 8.5 1.6 2.3 3.8 4.1 6 5.8l1.3 1.1a32 32 0 0 0 6.7 4.6c.8.5 2 .7 3.1.7.7 0 1.4 0 1.9-.3.8-.3 1.3-.7 1.6-1.4.3-.7.4-1.8.3-2.8-.2-1.1-.6-2-1.2-2.5a3.6 3.6 0 0 1-1.5-3.1c0-.4 0-.4 1-.5.6 0 1.3-.2 2.3-.4 1.2-.3 2.6-1.1 4.3-2.5l2.3-1.9 1.6-1.6-2 1.2c-.6.4-1.8.4-3.6.2-1.4-.1-2.5-.4-2.6-.4l-2.7.1c-3.8.2-6.6.2-8.5.2 1-.3 2-.8 3.3-1.4l3.3-1.8.8.1.8.2s.4.2.6 0c.5-.4.5-1.4 0-3.2a6 6 0 0 0-1.6-3.1l.8-.2.6.2a10.5 10.5 0 0 0 3.5.6c.8 0 1.3-.3 1.5-.8 0-.3 0-.7-.5-1-1-1-2.5-.5-3.5 0l-.5.1-1 .3c-1-.4-1.8-.8-2.3-1.2-.7-.5-1.1-1-1.1-1.8l.3-13.6c0-.8-.4-1.4-1-2l-2-1.2c-1.5-.5-3-.7-3-.7-1.4 0-3 .2-4.5.7a23 23 0 0 0-6.5 3 8 8 0 0 1-.3-.6c1.1-1.8 3-3.2 4.2-4 2.1-1.3 4-1.9 4.1-1.9 2.3-.8 3.7-.7 4.5-.4.8.3 1.2.8 1.2.8l.3.5.2-.6c0-.4.1-.5.2-.5.2 0 1 .8 1.5 2v.2l.5-.3v-.1l-.7-1.1c-.5-.9-1-1.3-1.4-1.2-.2 0-.4.1-.5.4l-1.1-.6c-.6-.2-1.2-.3-2-.3s-1.8.3-2.9.7c0 0-2 .7-4.1 2A14.7 14.7 0 0 0 55 41a72.7 72.7 0 0 0-.8-7.3 10.1 10.1 0 0 1 2.3-6.7c1-1.2 2.2-2.6 3.9-4a7.7 7.7 0 0 0 2.2 3.2 47.2 47.2 0 0 0 12 7.5c2.4 1 4.9 1.2 7.3 1.5 1.8.2 3.7.4 5.5.9a11.7 11.7 0 0 1 7.5 6.3l.2.7a26 26 0 0 0-6.7-3.3c-1.4-.4-2.7-.6-3.9-.6-1.3 0-2.5.4-3.4 1-.8.7-1.2 1.7-1.3 3 0 1.1.2 2.3.7 3.1a5 5 0 0 0 2.4 2.2c.6.2 1.2.4 1.8.4.6 0 1.3-.2 2-.4l1-.4c1.1-.4 2-.7 3-.8 1 0 2 .3 3.2 1 .6.4 1 1.1 1.3 2.1.3.9.4 1.9.4 3.1 0 2-.4 4-.4 4a135.8 135.8 0 0 0-1.2 8.4 14 14 0 0 1-1 5c-.5 1.6-1.6 2.7-2.7 3.9L89 76.3l-3.8 4.9-1.1 1.3 1.4-1a50.4 50.4 0 0 0 9-8.2c1.2-1.7 2-3.2 2.2-4.6a35.8 35.8 0 0 0 .7-7.3c.4.2 1 .4 1.6.2.6-.2 1-.7 1.3-1.6.6-1.8 1.7-6.1 2.4-9l.8-2.8c.4-1.4.3-2.7-.4-3.8a4 4 0 0 0-2.5-2h-.1a3 3 0 0 0-1.8.9l.4-5.2a18.5 18.5 0 0 0 6.5 1h.6V39s.2-1.3.2-3.3c0-1.8 0-4.6-.8-7.7a24 24 0 0 0-3.1-7.5l.8-.8.2-.2-.3-.2s-1-.7-2.9-1.6a23 23 0 0 0-9-5.9s-.6-.2-2.5-.4c-1.7-.2-4.7-.5-9.8-.5-1.4 0-2.8-.6-4-1.2-1.3-.5-2.6-1-4-1.1-1.2-.1-2.4 0-3.6.6-.8.4-1.6 1-2.3 1.6l.5-.8c.5-.8.6-1.3.4-1.6-.1-.3-.4-.3-.5-.3h-.1c-.6.3-1 .7-1.4 1.1a4 4 0 0 0-.6 1.6l-.2 1.4c-.8.3-1.5.2-2.1-.3-.7-.6-1.7-.6-2.5-.6-.9 0-1.8.3-2.3.6a9 9 0 0 0-4.2 3.3c-1 1.4-1.7 3-2.2 5a32 32 0 0 0-.3 10.8l1.2 12.5-1-.6c-.7-.2-1.3-.2-1.9.1a3 3 0 0 0-1.4 1.6c-.3.6-.4 1.3-.3 2.1 0 1.5.6 3 1 4.4.3.5.4 1 .5 1.3l.3.8c.4 1.2 1 3 1.3 7.2 0 0 .2.8.8 1.2.5.3 1.2.4 2 .1.1.1.4.6.7 2.4l.2 1.8c.1 1.6.3 3.4.9 4.7.4 1 .9 1.7 1.4 2.5.8 1.3 1.6 2.5 1.8 4.3A54.3 54.3 0 0 1 55.8 96c-.1-.7 0-1.9.4-3.5v-.1c0-.4.2-.7.3-1L57 89l-1 2a19.6 19.6 0 0 1-9.7 9.1c-.3.1-.3.3-.3.4 0 .3.2.5.7 1l1.6 1 5.6 2.9c4.6 2.3 10.3 5.2 15.2 8.4a46 46 0 0 1 6.4 4.8 12 12 0 0 1 3.5 4.7 4 4 0 0 1-.3 3.2v.2l.4.2.1-.1 1-2c2.6-5 6.4-12.7 11.6-18.4 2.4-2.6 5-4.6 7.6-5.8a14 14 0 0 0 7 .8c2.8-.3 5-1.2 5-1.2l.6-.3-.6-.2Zm-1 .2a21.3 21.3 0 0 1-7.3 1 11 11 0 0 1-3-.6 14.8 14.8 0 0 1 10.4-.4ZM63.9 11.5v-.7c.3-1 .9-1.8 1.8-2.3l-.2.6a14 14 0 0 1-1.6 2.4ZM99 17.2a28.3 28.3 0 0 0-12.5-1.4C82 16 78.2 17 75 17.7c-2.3.5-4.2 1-5.8 1-1.6.1-2.6-.2-3.2-1a10.4 10.4 0 0 1-2.3-5.3l1-.6c1.8-2 4-3 6.2-2.8 1.3.1 2.5.6 3.7 1.1 1.4.6 2.8 1.2 4.3 1.2 5 0 8 .3 9.7.5l2.5.4c3 1.2 5.7 2.9 8 5H99ZM67.2 19l2.1.2c1.6-.1 3.6-.6 6-1 3-.8 6.9-1.6 11.3-2A29.8 29.8 0 0 1 100 18l1.8 2.2-2 2L97 25a10 10 0 0 1-8 3h-2a24 24 0 0 1-11.8-3.4c-3.4-2-6.4-3.4-9.1-4.2-1-.3-1.8-.4-2.4-.4-.6 0-1 .2-1.4.4-.5.4-.6 1-.6 1v.2h.1a30.4 30.4 0 0 0 12.8 7.3c3.2.9 5.2.7 5.2.7a77.3 77.3 0 0 1 15.6-1.1c3 0 5.2.2 6.5.3A35.1 35.1 0 0 1 90 33.6c-2.2.3-4.7-.2-7-.9a52.6 52.6 0 0 1-17.3-7.6l-.5-.4c-.6-.5-1.6-1.3-2.6-1.8a5 5 0 0 0-1.4-.6 2.1 2.1 0 0 0-.6 0 8.7 8.7 0 0 1 0-4c.5-2.3 1.5-4 1.6-4.2l1-1.2.4 1.6a11 11 0 0 0 2 3.6c.4.5.9.8 1.5 1Zm35 .9a21.1 21.1 0 0 0-1-1.4l1.5.9-.5.5Zm-3.6 17.7c0 1.3-.5 6.8-.6 6.8v.2h.5a2 2 0 0 1 1.2-1.4l.8-.3c1 .2 1.7.8 2.2 1.6.5 1 .6 2.2.3 3.5l-.8 2.8-2.4 9a2 2 0 0 1-1 1.2c-.7.2-1.6-.4-1.6-.4l-.6-.4.2.7v1.6c0 1 0 3-.6 6s-3.5 6.2-5.9 8.4a50.2 50.2 0 0 1-3.5 3l2.6-3.4 1.3-1.4c1.1-1.3 2.2-2.4 2.9-4 .6-1.7.8-3.5 1-5.2v-1l1.1-7.5s.4-2 .4-4a12 12 0 0 0-.4-3.2 4 4 0 0 0-1.5-2.4 5.6 5.6 0 0 0-3.5-1.1c-1 0-2 .4-3.2.8l-1 .4c-2.3.8-4.3 0-5.6-2a5 5 0 0 1-.6-2.8c0-1 .5-2 1.1-2.5 2-1.5 4.8-1 6.9-.4 2.5.8 5 2.3 6.6 3.3.2.2.5.2.6 0 .3-.3 0-1-.2-1.5a12.5 12.5 0 0 0-7.8-6.5c-1.8-.5-3.7-.7-5.6-1a27 27 0 0 1-7.2-1.4c-4-1.5-7.8-4-11.8-7.4-1-.9-1.6-1.9-2-3 .4 0 1 .2 1.6.5L65 25l.5.4c2.4 1.8 5.1 3.3 8.4 4.7 2.6 1 5.5 2 9 3 2.4.7 5 1.3 7.3 1a24.7 24.7 0 0 0 8.7-3.1c2.3-1.2 3.8-2.3 3.8-2.3l.5-.4-.6-.1s-3-.3-7.3-.4h-1.9c1.5-.5 2.7-1.3 4-2.5l2.8-2.8 1.9-1.8a22 22 0 0 1 3 7.2 30.7 30.7 0 0 1 .6 10.6c-2 0-3.6-.3-4.7-.5l-2-.6-.4-.2v.4Zm-14-9.3-5 .7s-2 0-5-.7c-2.9-.8-7.4-2.7-12.4-7 0-.2.1-.4.3-.5.5-.3 1.4-.6 3.3 0 2.7.8 5.7 2.2 9 4.2 3 1.8 6.2 2.9 9.9 3.3Zm-30 14.4.3-.6.2.3-.5.3Zm17 13.2c0 1 .6 1.7 1.4 2.3l1.7 1h-.4c-.7-.7-1.4-1-1.4-1l-1.6-.5c-1-.2-1.9-.2-2.4 0-.4.2-.6.5-.7.9-.2.5-.1.9.2 1.2.3.3.9.4 1.6.5a13.4 13.4 0 0 0 4.1-.5c.6.6 1.3 1.6 1.7 3.1.6 2.2.2 2.6.2 2.6h-.1l-.9-.2c-.8-.2-1-.1-1.2 0-.3.2-6 3.4-8.4 3.5h-.1v.5h.1s3.9.3 10.6 0l2.7-.2 2.5.5H84l-1.3 1.1c-1.6 1.3-3 2-4.2 2.4l-2.1.4c-1 0-1.4.1-1.5 1a4.4 4.4 0 0 0 1.6 3.6c.6.3.9 1 1 2 .1 1 0 2-.2 2.6a2 2 0 0 1-1.3 1.1c-1.4.5-3.4.3-4.6-.3a38.2 38.2 0 0 1-6.5-4.6l-1.4-1.1c-2.2-1.7-4.4-3.4-5.9-5.7a19.5 19.5 0 0 1-2.3-8.3 46.9 46.9 0 0 0-1-5.5c-.4-1.4-.8-3-1-4.4-.1-1.6 0-2.8.6-3.6.5-.8 1.5-1.3 2.8-1.5 0 0 .9 0 1.2-.7.2-.4.2-.8 0-1.3-.3-.6-.5-1-.5-1.6 1.5 1.5 3.5 2.5 5.3 2.9a7 7 0 0 0 4.1-.3 6.2 6.2 0 0 0 3.7-4.8c0-.6 0-1.2-.3-1.7a3 3 0 0 0-1-1.1c-.4-.3-1-.6-1.6-.7a13.3 13.3 0 0 0-8 1.4c-.8.5-1.5 1-2 1.7-.4.4-.6.9-.7 1.4l-1-1.4 2.3-1.4c2-1.1 5.2-2.4 8.3-2.2l2.8.6c1.2.5 2.6 1.3 2.6 2.7L71.7 56Zm2 3.5a28 28 0 0 1-3.5.4c-.6 0-1.1-.2-1.3-.4-.2-.2-.2-.4-.1-.7 0-.2.2-.4.4-.5l.8-.1c1.2 0 2.7.6 2.8.6l1 .7Zm-11.1-19c1.7-.5 3.7-.6 5-.3 1 .2 1.9.7 2.2 1.5.5.8.4 1.9-.2 3-1.8 3.4-5 3.3-6.7 3-.9-.2-2-.6-2.9-1.1-.9-.6-1.8-1.2-2.6-2 .1-.6.3-1.1.7-1.6a8 8 0 0 1 4.5-2.5Zm14 18.8a9.3 9.3 0 0 0 .8-.2c1-.4 2.2-1 3-.2l.3.6c0 .1-.4.3-1 .4-.8 0-2-.1-3.2-.6Z" mask="url(#a)"/>
</svg>
