<svg xmlns="http://www.w3.org/2000/svg" width="41" height="49" fill="none">
  <path fill="#1A174F" d="M17.5 48h-3.2c-.9 0-1.6 0-2-.4-.4-.4-.6-.8-.6-1.5v-2c-1.9 0-3.6-.3-4.8-.5h-.2l.1-.7H7c1.3.3 3 .6 4.7.6v-3.2c0-1.5 1-1.5 2-1.6l1.6-.2-.2-.2c-.6-.7-.8-1.5-.7-2.7-1 0-2.4 0-2.4-1.2-.2-1.8 0-3.5.3-5 1-3.8 3.6-6.3 5.8-8 2.6-2.2 5.1-4.6 4-8.4-.9-2.6-3.6-4-6.3-3.4-2 .5-4.6 2.1-5 7.3 0 .3-.2.5-.5.7-1 .8-3.7 1-8.5.3-.4 0-.7-.3-1-.6-.3-.8-.2-2.2.4-4.3l1.3-3.5C3.7 7.1 5.6 5 7.9 3.6a19.4 19.4 0 0 1 20.8.7c4.2 3.3 5.5 8.4 3.7 14.4a13 13 0 0 1-5.2 6.9l-.8.5c-2.5 1.8-5.2 3.7-5.4 6.7l.2 2.3.2 2a45 45 0 0 1 18.9 1h.1v.7H40a45.1 45.1 0 0 0-18.8-1 5 5 0 0 1-.5 1.6l.4 1c.4 2 .4 6.4-1 7.1-.8.5-1.7.6-2.7.6Zm-2.6-.7H16c1.4.2 2.8.2 3.9-.3.3-.2.6-1 .8-2.5a12.2 12.2 0 0 0-.4-4.4c-.7 1.1-1.7 2-3 2.7-1.5.8-3.1 1.2-5 1.3v2c0 .5 0 .8.3 1 .3.3.9.3 1.6.3h.6Zm1.3-8.3-2.4.3c-1.2.1-1.4.2-1.4 1v3.1c1.8 0 3.3-.4 4.7-1.1a7.5 7.5 0 0 0 3-2.8l-.2-.1c-1.4 0-2.7 0-3.7-.4Zm3.7-.3c.1 0 .3 0 .5.2l.3-1-.6.1-2.4.7H20ZM15 35.5c-.1 1.1 0 1.9.5 2.3.1.3.4.4.7.5a53 53 0 0 0 3.6-.9l.9-.2-.2-2-.2-2.4c.2-3.3 3.2-5.4 5.6-7.2l.8-.5c2.7-2 4.3-4 5-6.5 1.8-5.8.6-10.7-3.4-13.8-5.2-4-14-4.3-20.1-.6A14 14 0 0 0 3 9.8C2.5 11.1.8 15.7 1.5 17c0 .2.2.3.4.3 5.9.8 7.6.2 8-.1l.2-.4c.5-4.3 2.4-7.1 5.5-7.8 3.2-.7 6.2.9 7 3.8 1.4 4.2-1.3 6.8-4 9a15 15 0 0 0-5.6 7.8c-.4 1.4-.5 3-.4 4.8 0 .5 1 .5 1.9.5.3-2 1.8-2 3.4-2h.2a2 2 0 0 1 1.6 1c.2.6.2 1.1 0 1.4-.2.2-.5.5-1.1.3-.9-.2-2-.1-3 0h-.5Zm2-.7 1.6.2h.4v-.7c-.1-.4-.5-.7-1-.7h-.3c-1.5 0-2.4 0-2.7 1.3h2Z"/>
</svg>
