<svg xmlns="http://www.w3.org/2000/svg" width="200" height="200" fill="none">
  <path fill="#F99" d="M15.2 96.2h-2.8V99h2.8v-2.8ZM27 96h-2.8v2.9h2.7V96Zm12 0h-2.8v2.9H39V96ZM2.8 108.2H0v3h2.8v-3Zm12.1 0H12v3h2.8v-3Zm12.1 0h-2.8v3h2.7v-3Zm12 0h-2.8v3H39v-3Zm12.1 0h-2.8v3h2.8v-3ZM2.8 120.4H0v3h2.8v-3Zm12.1 0H12v3h2.8v-3Zm12.1 0h-2.8v3h2.7v-3Zm12 0h-2.8v3H39v-3Zm12.1 0h-2.8v3h2.8v-3ZM2.8 132.7H0v2.9h2.8v-3Zm12.1 0H12v2.9h2.8v-3Zm12.1 0h-2.8v2.9h2.7v-3Zm12 0h-2.8v2.9H39v-3Zm12.1 0h-2.8v2.9h2.8v-3ZM14.9 145H12v2.8h2.8v-2.9Zm12.1 0h-2.8v2.8h2.7v-2.9Zm12 0h-2.8v2.8H39v-2.9Z"/>
  <circle cx="92.3" cy="121.7" r="49.2" fill="#F99"/>
  <path fill="#1A174F" d="M173.8 74.1c-.5-2.2-2-3.7-4-4.1-1.7-.4-3.3.2-4.8.8h-.2l-2.7 1.3-2 1.3-.3.2c-.5.4-1 .8-1.2 1.2l-.4-1.5v-2.1l.9-.6c2.9-1.7 5.9-3.5 7.7-6.4a9.7 9.7 0 0 0 1.8-5.4c0-1.6-.8-3.6-3-4.4a7.7 7.7 0 0 0-7.3 1.7V45c0-1.2 0-2.6.2-3.9a24 24 0 0 0-.7-9.6 7.5 7.5 0 0 0-4.7-4.6c-2.4-.9-5.1-.8-7.8-.8h-1.6l-22.7.3h-10.6c-2.8.1-5.7.4-8.1 1.7a9.1 9.1 0 0 0-3 2.5c-1 .9-1.9 2-2.4 3.4-.9 2.6-1.3 5.5-1.4 9.2V63l-.1 11c-.6-1.1-1.3-2.3-2.1-3.2-1.5-1.6-4-3-7-2.4-2.2.6-3.6 2.5-3.6 5.3a21.4 21.4 0 0 0 .4 3.7c.2 1.5.1 3-.2 4.6a56 56 0 0 1-2.4 8.1l-.4 1.3-2.5 6.4a59.1 59.1 0 0 0-4 11.4c-.8 4.4-.8 9-.8 13.4l-.1 5.5a43.8 43.8 0 0 1-3.5 16.3A29.6 29.6 0 0 1 58.3 157l-1.8 1.2a59.8 59.8 0 0 0-11.8 9.8c-3.7 3.7-7.5 7.6-12.5 10-.2.1-.3.4-.1.7l.3.2h.2c5-2.5 8.9-6.3 12.6-10l.5-.4a55 55 0 0 1 11.2-9.2l2.8-1.8c4.7-3.2 8.3-7.5 10.6-12.7 2-4.7 3.2-10 3.5-16.2l.1-6c0-4.5.1-9.1 1-13.6.7-3.3 2-6.4 3.2-9.2a120.1 120.1 0 0 0 4-10.7c.9-2.6 1.8-5.2 2.2-8V77l-.2-.7c-.1-1-.3-2.2-.2-3.2.1-.9.5-2.4 2-3 1.1-.6 2.5-.6 3.9-.2 2.9 1 4.3 4 5.2 6.6l.4.9v1.1l-.1 11.8-.1 11.3a75.4 75.4 0 0 0 1.6 33v.8c-.5 5-1.2 8.6-2.5 11.9v.1c-2.7 0-5.6.3-8.4 1.1-4.9 1.4-8.1 4.3-8.7 7.7-.4 2.2.8 4 2.9 4.6 1.7.4 3.8 0 5.6-.8a19 19 0 0 0 8.3-8.4l1.2-2.5 2.2.1c5.3.5 9.7 1.8 13 3.9a11 11 0 0 1 3.7 3.8 7 7 0 0 1 .2 5.7l-.5 1.2-.4.3c-3.8 2.9-7.7 5.6-11.4 8.2l-3 2-2.7 2-1 .7c-1.5 1-3 2-4.2 3.1a12 12 0 0 0-1.7 2h-.1l-.1.3a1 1 0 0 0 0 1c0 .2.3.4.5.4h.2v.2l.2-.2a11 11 0 0 0 6.3-2.7l4.5-3.4a479.9 479.9 0 0 1 8.6-6.7 22.4 22.4 0 0 0 5.5-6.2 171.2 171.2 0 0 0 18.1-15.5c2.5-2.2 5.8-4.9 9.7-6.8 1.9-1 3.8-1.7 5.8-2.2l1.5-.4c1.5-.3 3-.6 4.3-1.3 1.4-.8 2.1-2 2.8-3.4.8-1.8 1.3-3.5 1.5-5v-.8c0-.5 0-1 .3-1.5.3-.6.9-1 1.5-1.4l.7-.4c1.2-.8 2.5-1.6 3.7-2.6a8 8 0 0 0 2.9-4.6 8 8 0 0 0-.9-5.3 5.9 5.9 0 0 0-7.7-2.4v-.2l-.3-.3-.3-.9c0-.4.7-1 .9-1.2.5-.5 1-.8 1.6-1.2l.8-.5c.9-.6 1.9-1.1 2.6-1.9l1.8-1.5c1.7-1.3 3.4-2.6 3.7-4.8.2-2.6-1.3-5.7-4.2-6.5a7.2 7.2 0 0 0-4.1.3v-.7a2.2 2.2 0 0 0-.6-1.4l-.6-1-.9-1.5 2.2-.8a34.1 34.1 0 0 0 7.3-4.6 20 20 0 0 0 3.5-3.3 5.8 5.8 0 0 0 1.2-5Zm-68.7-45.8c2.4-.7 5-.7 7.7-.7H125a3273.2 3273.2 0 0 0 21.8-.2c3.2 0 6.2 0 8.2 2 1.4 1.2 2.1 3.1 2.3 5.9v5.4l-.2 1.4a101.4 101.4 0 0 0 0 8.7v6.7c-.6 1-1 2.1-1.1 3.5a31.5 31.5 0 0 0 1 13.2V96l-.3.5-.1.2c-.1.3 0 .7.2.9l.2.1a2590.4 2590.4 0 0 1-.2 12.8v3.2c-.1.2 0 .5 0 .8a382 382 0 0 0 .2 14.4 13 13 0 0 1-2.2 6.5c-.8 1-1.9 1.8-3.2 2.4l-2 .4-1.3.4h-.2l-.9.1c-7 .6-14.3.8-21.3 1h-2.6c-6.3.2-12.8.3-18.8-1-1.6-.3-3.2-.7-4.5-1.5a5.1 5.1 0 0 1-2-2.7l.1-3.3.2.5v.2c.5 1.2 1 2.4 1.9 3.4 1 1 2.4 1.4 3.6 1.7a97.2 97.2 0 0 0 21.5 1.7 147.7 147.7 0 0 0 21-1.9c2.3-.5 5-1.2 6.8-3 2-2 2-4.7 1.8-7.4-.3-3.1-.2-6.4-.2-9.6v-2.3l.4-20.3.2-6c0-5.7.2-11.3.3-17V70l.2-15.8v-.5l-.1-3.8v-.3a69.5 69.5 0 0 1-.2-3.8v-6.1c0-1.3 0-2.6-.2-4 0-1-.2-2.2-.8-3.2-1.2-2-3.8-2.5-6.1-2.7a99 99 0 0 0-7.7-.3H122l-12.2-.1c-2.7-.1-5.6 0-7.5 2-1.5 1.5-2 3.7-2.5 5.4-.5 2.1-.9 4.3-1 6.5a81.5 81.5 0 0 0-.1 8.9v10.3a465.8 465.8 0 0 1-1.3 37l-.3 4.3c-.3 4.8-.6 9.7-.5 14.7-.5-5.3-.5-10.6-.4-15.9v-.5l.3-2.2c.6-4.3 1.2-8.7 1.3-13a33.3 33.3 0 0 0-1.4-10l.1-15.2v-3.1l.1-6.8v-9.3c0-1.9.2-3.5.5-5 .3-1.4.6-3.1 1.5-4.5 1.6-2.4 3.9-4.2 6.4-4.8Zm53.7 49.1c.1-.8.3-1.7 1-2.3l2-1.5a22.4 22.4 0 0 1 6.7-2.6 4 4 0 0 1 2.4.7c1.3 1 2.1 3 1.7 4.5-.3 1.4-1.4 2.5-2.5 3.6s-2.4 2-3.6 2.9a40 40 0 0 1-4.6 2.8h-.1c-1.3.7-2.2 1-2.8 1a11.5 11.5 0 0 1-.5-3v-1.1a63.6 63.6 0 0 0 .3-5Zm-62.5 15v-1.8l.1-8c.4 3.2.3 6.6 0 9.8Zm62-34.2a5 5 0 0 1 1.3-1.5 7.2 7.2 0 0 1 4-1.2c1.4 0 2.7.5 3.3 1.6.8 1.5.3 3.3-.2 4.5-.7 1.6-1.7 3-3 4.1-1.2 1.1-2.7 2-4 2.9l-.9.5-.6.4V58.2Zm-1.1 9.2a30.2 30.2 0 0 1 0-5.3v5.3Zm-51.3-36.5c1.2-.3 2.5-.3 3.9-.3l12.7.1 16.4.1h8.2c1.2.1 2.5.2 3.7.5a5 5 0 0 1 2.8 1.6c.7 1 .8 2.1.9 3.2.2 2.4.2 4.8.2 7V45a45.5 45.5 0 0 0 0 4.9V51c.2 2.6.2 5.4.1 8v2.6c0 6.7-.2 13.4-.4 20l-.1 6.7-.3 15.6v1c-.2 5.3-.3 11-.3 16.4v.5l.1 4.3v.8c.2 1.9.3 3.8-.8 5.4-1.5 2.1-4.6 3-6.7 3.3a151.7 151.7 0 0 1-20.6 2 98 98 0 0 1-21.3-1.6c-1.7-.4-3-.8-3.8-1.9-.7-1-1.2-2.4-1.6-3.7l-.1-.5-.6-1.9c-.6-5.6-.7-11.6-.3-18.7l.6-10.3a446.8 446.8 0 0 0 1.1-30V57.2l.1-8.5v-.8c0-2 0-4.3.3-6.4a26 26 0 0 1 1.5-6.5c.3-.8.6-1.6 1.2-2.2a5 5 0 0 1 3-1.9ZM97 127.3v3.3a75.5 75.5 0 0 1-1.7-16 78.7 78.7 0 0 0 1.7 12.7Zm68.3-13.4c1 1.2 1.3 2.8 1.1 4.4-.2 1.5-1 2.8-2.7 4.1l-2 1.5-1 .6-1.2.7a6 6 0 0 0-1.3 1.2v-3.8l-.2-7.9c1.2-.4 1.7-1.1 1.7-2a5 5 0 0 1 1.5-.4c1.6-.2 3 .4 4 1.6Zm-7.3-2v-.1.1Zm6.8-18.4a4 4 0 0 1 2.7 1.4c1 1 1.4 2.5 1.2 3.7-.2 1.2-1.1 2.1-2 2.8l-1.1 1c-.7.4-1.4 1-2 1.6a14 14 0 0 1-2.4 1.6c-1.2.7-2.4 1.4-3.2 2.5V97.5a6 6 0 0 0 3.3-3.4 7 7 0 0 1 3.5-.6Zm-4.7-2.7a22.5 22.5 0 0 1 .4 1l-.1 1.2c-.9.5-1.6 1.1-2.3 1.8v-7h.3l.6 1.2.5.8.6 1Zm-62.6 49.4.4-3.2v.1c.8 1 1.9 1.7 3.3 2.2a36 36 0 0 0 10 1.8c3.6.2 7.2.1 10.7 0h.2a576.4 576.4 0 0 0 21.4-.7c-.3 0-.6.2-.9.4-3 1.4-6.1 3.5-9.5 6.5a183.7 183.7 0 0 0-9 8 96.6 96.6 0 0 1-8.1 6.8 9.3 9.3 0 0 0-2.5-8.5A22.5 22.5 0 0 0 101 148c-1.5-.2-3.4-.5-5.3-.6.7-2.2 1.3-4.6 1.7-7.2Zm-9.1 16a13 13 0 0 1-4.7 2.7c-.7.2-3.1.8-4.5-.4-1.4-1.1-.5-3.2.6-4.6a11 11 0 0 1 4.4-3c2.6-1.2 5.8-1.8 9.4-1.8-1.4 3-3.1 5.3-5.2 7.1Zm6.3 23 4.3-3 1.6-1.1 9.4-6.6a62.2 62.2 0 0 1-5.1 4l-6.3 4.9-1.1.9c-1.5 1.2-3 2.4-4.8 3.2l-1.3.4c1-1 2-1.8 3.3-2.7Z"/>
</svg>
