<svg xmlns="http://www.w3.org/2000/svg" width="92" height="92" fill="none">
  <path fill="#78E0ED" d="M6.7 67h-1v1.1h1v-1Zm4.7 0h-1v1.1h1v-1Zm4.7 0h-1v1.1h1v-1ZM2 71.5H1v1h1v-1Zm4.7 0h-1v1h1v-1Zm4.7 0h-1v1h1v-1Zm4.7 0h-1v1h1v-1Zm4.7 0h-1.1v1h1v-1ZM2 76H1v1h1v-1Zm4.7 0h-1v1h1v-1Zm4.7 0h-1v1h1v-1Zm4.7 0h-1v1h1v-1Zm4.7 0h-1.1v1h1v-1ZM2 80.4H1v1h1v-1Zm4.7 0h-1v1h1v-1Zm4.7 0h-1v1h1v-1Zm4.7 0h-1v1h1v-1Zm4.7 0h-1.1v1h1v-1ZM6.7 84.8h-1v1h1v-1Zm4.7 0h-1v1h1v-1Zm4.7 0h-1v1h1v-1Z"/>
  <path stroke="#1A174F" stroke-linecap="round" stroke-linejoin="round" d="M38.7 62.4V91"/>
  <path fill="#78E0ED" d="M40.4 59.3a16.9 16.9 0 1 0 0-33.8 16.9 16.9 0 0 0 0 33.8Z"/>
  <path stroke="#1A174F" stroke-linecap="round" stroke-linejoin="round" d="M91 69.7a36.8 36.8 0 0 0-20.2 12.7c-2.8 3.2-8.4 2.6-10.4-1-1.3-2.4-.2-5.6 2-7.2 5.2-3.5 9.3-8.3 11.8-13.6 5-10.6 4.4-19.4 0-30.3-1.1-3-2.6-6-5.3-8l-1-.8m0 0c0 2.3-.6 4.6-2.3 6.3-1.9 2-5.5 2.7-7.8 1-2.7-2-1.7-6.4 1.4-8 2.6-1.3 6-.8 8.6.7Zm0 0-.1-1.1a19.8 19.8 0 0 0-9.3-13.8C53.5 3.2 47.2 1.4 41 1A40.5 40.5 0 0 0 7.6 16.5a29.4 29.4 0 0 0-1.4 35.2c3.5 5.8 8.7 10.8 10.8 17.1 3 8.7-2.2 11.6-8.2 13.2"/>
  <path stroke="#1A174F" stroke-linecap="round" stroke-linejoin="round" d="M27.2 44.7 38.6 55c4.2 3.8 11 3.8 15.2 0a9 9 0 0 0 0-13.7l-18-16.2a8.6 8.6 0 0 0-11.2 0 6.7 6.7 0 0 0 0 10.2l18 16.2c2 1.8 5.3 1.8 7.3 0 2-1.9 2-4.9 0-6.7L32.1 28.7c-1-1-2.7-1-3.7 0s-1 2.4 0 3.3l15.5 14"/>
</svg>
