<svg xmlns="http://www.w3.org/2000/svg" width="126" height="125" fill="none">
  <path fill="#8D89DC" d="M17 29.4h-3v3h3v-3Zm12.7-.2h-3v3h3v-3Zm13.1 0h-3v3h3v-3ZM3.5 42.3h-3v3h3v-3Zm13.1 0h-3v3h3v-3Zm13.1 0h-3v3h3v-3Zm13.1 0h-3v3h3v-3Zm13.2 0h-3v3h3v-3ZM3.5 55.4h-3v3h3v-3Zm13.1 0h-3v3h3v-3Zm13.1 0h-3v3h3v-3Zm13.1 0h-3v3h3v-3Zm13.2 0h-3v3h3v-3ZM3.5 68.5h-3v3h3v-3Zm13.1 0h-3v3h3v-3Zm13.1 0h-3v3h3v-3Zm13.1 0h-3v3h3v-3Zm13.2 0h-3v3h3v-3ZM16.6 81.6h-3v3h3v-3Zm13.1 0h-3v3h3v-3Zm13.1 0h-3v3h3v-3Z"/>
  <path fill="#fff" d="M1 21h124v93H1z"/>
  <path fill="#FCC" fill-rule="evenodd" d="M43.9 49.2c-2.1 0-6 .6-8.4 1-4 .7-4.6 5-2.8 8.5 3.6 6.8 11.5 3.5 14-3 1.4-3.4.7-6.4-2.8-6.5Z" clip-rule="evenodd"/>
  <path fill="#CFE5DC" fill-rule="evenodd" d="M21 80.3a11.6 11.6 0 0 1-.8-7.4c.7-3 2.5-5 4.5-7.5 1.7-2.1 4.6-4.4 7.1-4.5 3.8-.2 7.4 4.6 2.1 8.5-2.7 2-5 4-8 9.6-1.5 2.8-3.5 4.4-5 1.3Z" clip-rule="evenodd"/>
  <path fill="#E8E7F8" fill-rule="evenodd" d="M72.2 93.4c1.6-5.6 5.5-9.3 8.6-11.6 5-3.6 10.7-4.8 17.2-6.2 5.6-1.3 13.3-1.5 17.7 1 6.5 3.6 6.1 14.5-7.6 14.5a61 61 0 0 0-26 5.6c-6.1 2.5-11.6 2.7-10-3.3Z" clip-rule="evenodd"/>
  <mask id="a" width="78" height="42" x="47.4" y="57.4" fill="#000" maskUnits="userSpaceOnUse">
    <path fill="#fff" d="M47.4 57.4h78v42h-78z"/>
    <path d="M124.7 84a38 38 0 0 0-14.4-1.6 35.5 35.5 0 0 0-13.7 6L94 90.2l-3.4 2-3.7 2.1c-1.3.8-3 1-4.6 1.1l-1 .1A102.2 102.2 0 0 0 67.6 98H64c-3-.2-6.1-.3-9.1-.8l-4.3-.8c-.3 0-.6 0-.8-.2-.3-.2-.5-.6-.5-1.1-.2-1.4.5-2.3 2.2-2.8 2.5-.7 5.2-.6 7.8-.4h1c3.2.1 6.4 0 9.1-1.4.2-.1.3-.3.2-.4a46 46 0 0 1-17.1-8c-.8-.5-1.6-1-1.8-1.8-.1-.4 0-1 .2-1.4a3 3 0 0 1 1.6-1.3c1.4-.3 3 .4 4.4 1.2h.3c2.9 1.5 6 2.6 9.2 3.2l-.5.3a3 3 0 0 0-1.4 2c-.2 1.5.2 2.7 1.2 3.7.8.7 1.9 1.3 3.4 1.6 3.8.9 6.8 1.3 9.3 1.1 4.3-.3 8-.8 11.5-1.5.2 0 .3-.3.3-.5s-.3-.3-.5-.3c-3.5.8-7 1.3-11.3 1.6-2.4.1-5.4-.2-9.2-1.1a6.6 6.6 0 0 1-3-1.5 3 3 0 0 1-1-2.9c.3-1.4 1.7-2 2.9-2.2 2.6.4 7 .9 7.9.7a1.4 1.4 0 0 0 1-1.1l1.5.1c1 .1 2.2.2 3.3.1 3-.3 6-1.8 9.2-4.5l3.3-3 4-3.7a26.3 26.3 0 0 1 15.2-6l3-.2 2.3-.1h.8c.4 0 .4-.4.4-.4 0-.2 0-.4-.3-.4h-.2a35.4 35.4 0 0 0-2.7-.4L114 63s-3.7-.4-5-.8a20 20 0 0 0-13.7 1.3c-1 .5-1.9 1-2.8 1.3L90 66l-3.1 1a30.4 30.4 0 0 0-2.6.8 3.8 3.8 0 0 0-2-1.8l-.3-.3c0-.6-.2-1.2-.6-1.7l-.6-.5c-.2-.1-.2-.2-.2-.3a7.1 7.1 0 0 0-1.6-3.7 3.3 3.3 0 0 0-3.1-1c-.5.2-1 .4-1.1.8-.4.7 0 1.7.3 2.7l.3.9V64c0 .5 0 1 .2 1.6l.2.7a48 48 0 0 1 .7 2.9c.2.4.5.9 1 1.2l1.3 1.1.8.7c.6.4.8.9.7 1.3-.3.9-1.9.8-2.6.6L77 74c-1.2-.3-2.3-.6-3.5-.7h-.8l-.5-.7-.2-.4c-.5-.7-1.1-1-1.7-1.5-.7-.4-1.2-.7-1.6-1.3l-.3-.5c-.7-1.2-1.5-2.6-3-2.8-.8-.2-1.7 0-2.7.3-.6.3-1 .7-1.2 1.1-.2.7 0 1.3.2 1.7l.6 1.4 1 2.3c.5 1 1.2 1.7 2 2.3l.9 1 .4.4c.9.9 1.7 1.8 2.7 2.5 1 .7 2.2.8 3.3 1l1.6.3 1.7.6c-2.2 0-4.8.2-7.8.5l-1.4-.3a36 36 0 0 1-9.5-3.2c-1.5-.8-3.2-1.6-5-1.2-.8.2-1.5.8-2 1.6-.3.7-.4 1.4-.2 2 .3 1 1.2 1.7 2 2.2 4.8 3 10.1 6.4 16 7.6-1.5.6-3.6 1-7.6.9h-1.1c-2.7-.2-5.4-.3-8 .4-2 .6-3 1.8-2.8 3.6 0 .7.4 1.3.8 1.6l1.2.4a90.9 90.9 0 0 0 14.3 1.6h3c1 0 2-.3 3-.6l1.5-.4a123 123 0 0 1 9.2-1.5l1-.1 3-.4a7 7 0 0 0 1.8-.8l3.8-2.1 3.4-2L97 89l4.3-2.6c3.4-1.7 6.4-2.8 9.2-3.3 1.7-.4 4-.3 7 0l7 1.5c.2 0 .4 0 .5-.2 0-.2 0-.4-.3-.5Zm-50.3-4.3-1.7-.3c-1.1-.2-2.2-.4-3-1-1-.6-1.8-1.5-2.6-2.3l-.5-.5-1-1a7.8 7.8 0 0 1-1.8-2.1l-.9-2.2-.6-1.4c-.1-.4-.3-.8-.2-1.1 0-.3.4-.5.8-.7a4 4 0 0 1 2.3-.3c1.2.2 1.8 1.3 2.5 2.4 0 .2.2.4.3.5.4.8 1.1 1.2 1.8 1.7.6.3 1.1.7 1.5 1.2l.2.3c.2.4.4.8.8 1l1 .2c1.2 0 2.3.3 3.4.6l.8.2a4 4 0 0 0 1.9.1c.8-.1 1.4-.5 1.6-1.2.1-.5.1-1.3-1-2.1l-.8-.7-1.2-1c-.4-.3-.7-.7-.8-1-.2-.3-.2-.7-.3-1l-.1-.8-.3-1-.2-.7-.1-1.4-.1-1.5a8 8 0 0 0-.3-1c-.3-.7-.6-1.6-.4-2 .1-.2.3-.3.6-.4 1-.2 1.9 0 2.4.7 1 1 1.2 2 1.4 3.4l.5.7.5.4c.3.4.4.8.5 1.2 0 .5.4.9.7 1 .7.2 1.3.8 1.7 1.4 0 .2.3.7 1 .4l2.4-.7a25.8 25.8 0 0 0 5.7-2.3l2.8-1.3c2.3-1 4.4-1.6 6.5-1.8 2.3-.2 4.5 0 6.7.5 1.4.4 4.8.8 5 .8l2 .3-2.5.1a31 31 0 0 0-19.7 9.9l-3.2 3a17 17 0 0 1-8.8 4.3c-1 .2-2 0-3.1 0l-1.7-.2-.3-.4c-.5-.5-1.5-.7-2.1-.9Zm1.7 2h.1c0 .2-.3.4-.5.5-.4 0-2.1 0-4-.3l4.4-.2Z"/>
  </mask>
  <path fill="#1A174F" d="M124.7 84a38 38 0 0 0-14.4-1.6 35.5 35.5 0 0 0-13.7 6L94 90.2l-3.4 2-3.7 2.1c-1.3.8-3 1-4.6 1.1l-1 .1A102.2 102.2 0 0 0 67.6 98H64c-3-.2-6.1-.3-9.1-.8l-4.3-.8c-.3 0-.6 0-.8-.2-.3-.2-.5-.6-.5-1.1-.2-1.4.5-2.3 2.2-2.8 2.5-.7 5.2-.6 7.8-.4h1c3.2.1 6.4 0 9.1-1.4.2-.1.3-.3.2-.4a46 46 0 0 1-17.1-8c-.8-.5-1.6-1-1.8-1.8-.1-.4 0-1 .2-1.4a3 3 0 0 1 1.6-1.3c1.4-.3 3 .4 4.4 1.2h.3c2.9 1.5 6 2.6 9.2 3.2l-.5.3a3 3 0 0 0-1.4 2c-.2 1.5.2 2.7 1.2 3.7.8.7 1.9 1.3 3.4 1.6 3.8.9 6.8 1.3 9.3 1.1 4.3-.3 8-.8 11.5-1.5.2 0 .3-.3.3-.5s-.3-.3-.5-.3c-3.5.8-7 1.3-11.3 1.6-2.4.1-5.4-.2-9.2-1.1a6.6 6.6 0 0 1-3-1.5 3 3 0 0 1-1-2.9c.3-1.4 1.7-2 2.9-2.2 2.6.4 7 .9 7.9.7a1.4 1.4 0 0 0 1-1.1l1.5.1c1 .1 2.2.2 3.3.1 3-.3 6-1.8 9.2-4.5l3.3-3 4-3.7a26.3 26.3 0 0 1 15.2-6l3-.2 2.3-.1h.8c.4 0 .4-.4.4-.4 0-.2 0-.4-.3-.4h-.2a35.4 35.4 0 0 0-2.7-.4L114 63s-3.7-.4-5-.8a20 20 0 0 0-13.7 1.3c-1 .5-1.9 1-2.8 1.3L90 66l-3.1 1a30.4 30.4 0 0 0-2.6.8 3.8 3.8 0 0 0-2-1.8l-.3-.3c0-.6-.2-1.2-.6-1.7l-.6-.5c-.2-.1-.2-.2-.2-.3a7.1 7.1 0 0 0-1.6-3.7 3.3 3.3 0 0 0-3.1-1c-.5.2-1 .4-1.1.8-.4.7 0 1.7.3 2.7l.3.9V64c0 .5 0 1 .2 1.6l.2.7a48 48 0 0 1 .7 2.9c.2.4.5.9 1 1.2l1.3 1.1.8.7c.6.4.8.9.7 1.3-.3.9-1.9.8-2.6.6L77 74c-1.2-.3-2.3-.6-3.5-.7h-.8l-.5-.7-.2-.4c-.5-.7-1.1-1-1.7-1.5-.7-.4-1.2-.7-1.6-1.3l-.3-.5c-.7-1.2-1.5-2.6-3-2.8-.8-.2-1.7 0-2.7.3-.6.3-1 .7-1.2 1.1-.2.7 0 1.3.2 1.7l.6 1.4 1 2.3c.5 1 1.2 1.7 2 2.3l.9 1 .4.4c.9.9 1.7 1.8 2.7 2.5 1 .7 2.2.8 3.3 1l1.6.3 1.7.6c-2.2 0-4.8.2-7.8.5l-1.4-.3a36 36 0 0 1-9.5-3.2c-1.5-.8-3.2-1.6-5-1.2-.8.2-1.5.8-2 1.6-.3.7-.4 1.4-.2 2 .3 1 1.2 1.7 2 2.2 4.8 3 10.1 6.4 16 7.6-1.5.6-3.6 1-7.6.9h-1.1c-2.7-.2-5.4-.3-8 .4-2 .6-3 1.8-2.8 3.6 0 .7.4 1.3.8 1.6l1.2.4a90.9 90.9 0 0 0 14.3 1.6h3c1 0 2-.3 3-.6l1.5-.4a123 123 0 0 1 9.2-1.5l1-.1 3-.4a7 7 0 0 0 1.8-.8l3.8-2.1 3.4-2L97 89l4.3-2.6c3.4-1.7 6.4-2.8 9.2-3.3 1.7-.4 4-.3 7 0l7 1.5c.2 0 .4 0 .5-.2 0-.2 0-.4-.3-.5Zm-50.3-4.3-1.7-.3c-1.1-.2-2.2-.4-3-1-1-.6-1.8-1.5-2.6-2.3l-.5-.5-1-1a7.8 7.8 0 0 1-1.8-2.1l-.9-2.2-.6-1.4c-.1-.4-.3-.8-.2-1.1 0-.3.4-.5.8-.7a4 4 0 0 1 2.3-.3c1.2.2 1.8 1.3 2.5 2.4 0 .2.2.4.3.5.4.8 1.1 1.2 1.8 1.7.6.3 1.1.7 1.5 1.2l.2.3c.2.4.4.8.8 1l1 .2c1.2 0 2.3.3 3.4.6l.8.2a4 4 0 0 0 1.9.1c.8-.1 1.4-.5 1.6-1.2.1-.5.1-1.3-1-2.1l-.8-.7-1.2-1c-.4-.3-.7-.7-.8-1-.2-.3-.2-.7-.3-1l-.1-.8-.3-1-.2-.7-.1-1.4-.1-1.5a8 8 0 0 0-.3-1c-.3-.7-.6-1.6-.4-2 .1-.2.3-.3.6-.4 1-.2 1.9 0 2.4.7 1 1 1.2 2 1.4 3.4l.5.7.5.4c.3.4.4.8.5 1.2 0 .5.4.9.7 1 .7.2 1.3.8 1.7 1.4 0 .2.3.7 1 .4l2.4-.7a25.8 25.8 0 0 0 5.7-2.3l2.8-1.3c2.3-1 4.4-1.6 6.5-1.8 2.3-.2 4.5 0 6.7.5 1.4.4 4.8.8 5 .8l2 .3-2.5.1a31 31 0 0 0-19.7 9.9l-3.2 3a17 17 0 0 1-8.8 4.3c-1 .2-2 0-3.1 0l-1.7-.2-.3-.4c-.5-.5-1.5-.7-2.1-.9Zm1.7 2h.1c0 .2-.3.4-.5.5-.4 0-2.1 0-4-.3l4.4-.2Z"/>
  <path stroke="#1A174F" stroke-width=".2" d="M124.7 84a38 38 0 0 0-14.4-1.6 35.5 35.5 0 0 0-13.7 6L94 90.2l-3.4 2-3.7 2.1c-1.3.8-3 1-4.6 1.1l-1 .1A102.2 102.2 0 0 0 67.6 98H64c-3-.2-6.1-.3-9.1-.8l-4.3-.8c-.3 0-.6 0-.8-.2-.3-.2-.5-.6-.5-1.1-.2-1.4.5-2.3 2.2-2.8 2.5-.7 5.2-.6 7.8-.4h1c3.2.1 6.4 0 9.1-1.4.2-.1.3-.3.2-.4a46 46 0 0 1-17.1-8c-.8-.5-1.6-1-1.8-1.8-.1-.4 0-1 .2-1.4a3 3 0 0 1 1.6-1.3c1.4-.3 3 .4 4.4 1.2h.3c2.9 1.5 6 2.6 9.2 3.2l-.5.3a3 3 0 0 0-1.4 2c-.2 1.5.2 2.7 1.2 3.7.8.7 1.9 1.3 3.4 1.6 3.8.9 6.8 1.3 9.3 1.1 4.3-.3 8-.8 11.5-1.5.2 0 .3-.3.3-.5s-.3-.3-.5-.3c-3.5.8-7 1.3-11.3 1.6-2.4.1-5.4-.2-9.2-1.1a6.6 6.6 0 0 1-3-1.5 3 3 0 0 1-1-2.9c.3-1.4 1.7-2 2.9-2.2 2.6.4 7 .9 7.9.7a1.4 1.4 0 0 0 1-1.1l1.5.1c1 .1 2.2.2 3.3.1 3-.3 6-1.8 9.2-4.5l3.3-3 4-3.7a26.3 26.3 0 0 1 15.2-6l3-.2 2.3-.1h.8c.4 0 .4-.4.4-.4 0-.2 0-.4-.3-.4h-.2a35.4 35.4 0 0 0-2.7-.4L114 63s-3.7-.4-5-.8a20 20 0 0 0-13.7 1.3c-1 .5-1.9 1-2.8 1.3L90 66l-3.1 1a30.4 30.4 0 0 0-2.6.8 3.8 3.8 0 0 0-2-1.8l-.3-.3c0-.6-.2-1.2-.6-1.7l-.6-.5c-.2-.1-.2-.2-.2-.3a7.1 7.1 0 0 0-1.6-3.7 3.3 3.3 0 0 0-3.1-1c-.5.2-1 .4-1.1.8-.4.7 0 1.7.3 2.7l.3.9V64c0 .5 0 1 .2 1.6l.2.7a48 48 0 0 1 .7 2.9c.2.4.5.9 1 1.2l1.3 1.1.8.7c.6.4.8.9.7 1.3-.3.9-1.9.8-2.6.6L77 74c-1.2-.3-2.3-.6-3.5-.7h-.8l-.5-.7-.2-.4c-.5-.7-1.1-1-1.7-1.5-.7-.4-1.2-.7-1.6-1.3l-.3-.5c-.7-1.2-1.5-2.6-3-2.8-.8-.2-1.7 0-2.7.3-.6.3-1 .7-1.2 1.1-.2.7 0 1.3.2 1.7l.6 1.4 1 2.3c.5 1 1.2 1.7 2 2.3l.9 1 .4.4c.9.9 1.7 1.8 2.7 2.5 1 .7 2.2.8 3.3 1l1.6.3 1.7.6c-2.2 0-4.8.2-7.8.5l-1.4-.3a36 36 0 0 1-9.5-3.2c-1.5-.8-3.2-1.6-5-1.2-.8.2-1.5.8-2 1.6-.3.7-.4 1.4-.2 2 .3 1 1.2 1.7 2 2.2 4.8 3 10.1 6.4 16 7.6-1.5.6-3.6 1-7.6.9h-1.1c-2.7-.2-5.4-.3-8 .4-2 .6-3 1.8-2.8 3.6 0 .7.4 1.3.8 1.6l1.2.4a90.9 90.9 0 0 0 14.3 1.6h3c1 0 2-.3 3-.6l1.5-.4a123 123 0 0 1 9.2-1.5l1-.1 3-.4a7 7 0 0 0 1.8-.8l3.8-2.1 3.4-2L97 89l4.3-2.6c3.4-1.7 6.4-2.8 9.2-3.3 1.7-.4 4-.3 7 0l7 1.5c.2 0 .4 0 .5-.2 0-.2 0-.4-.3-.5Zm-50.3-4.3-1.7-.3c-1.1-.2-2.2-.4-3-1-1-.6-1.8-1.5-2.6-2.3l-.5-.5-1-1a7.8 7.8 0 0 1-1.8-2.1l-.9-2.2-.6-1.4c-.1-.4-.3-.8-.2-1.1 0-.3.4-.5.8-.7a4 4 0 0 1 2.3-.3c1.2.2 1.8 1.3 2.5 2.4 0 .2.2.4.3.5.4.8 1.1 1.2 1.8 1.7.6.3 1.1.7 1.5 1.2l.2.3c.2.4.4.8.8 1l1 .2c1.2 0 2.3.3 3.4.6l.8.2a4 4 0 0 0 1.9.1c.8-.1 1.4-.5 1.6-1.2.1-.5.1-1.3-1-2.1l-.8-.7-1.2-1c-.4-.3-.7-.7-.8-1-.2-.3-.2-.7-.3-1l-.1-.8-.3-1-.2-.7-.1-1.4-.1-1.5a8 8 0 0 0-.3-1c-.3-.7-.6-1.6-.4-2 .1-.2.3-.3.6-.4 1-.2 1.9 0 2.4.7 1 1 1.2 2 1.4 3.4l.5.7.5.4c.3.4.4.8.5 1.2 0 .5.4.9.7 1 .7.2 1.3.8 1.7 1.4 0 .2.3.7 1 .4l2.4-.7a25.8 25.8 0 0 0 5.7-2.3l2.8-1.3c2.3-1 4.4-1.6 6.5-1.8 2.3-.2 4.5 0 6.7.5 1.4.4 4.8.8 5 .8l2 .3-2.5.1a31 31 0 0 0-19.7 9.9l-3.2 3a17 17 0 0 1-8.8 4.3c-1 .2-2 0-3.1 0l-1.7-.2-.3-.4c-.5-.5-1.5-.7-2.1-.9Zm1.7 2h.1c0 .2-.3.4-.5.5-.4 0-2.1 0-4-.3l4.4-.2Z" mask="url(#a)"/>
  <mask id="b" width="66" height="47" x="1" y="35.3" fill="#000" maskUnits="userSpaceOnUse">
    <path fill="#fff" d="M1 35.3h66v47H1z"/>
    <path d="M66.5 68.5a33.4 33.4 0 0 1-19.9-6.3l-.1.1c-1 .6-2.2.2-3.3-.2l-1.2-.4a7.8 7.8 0 0 0-3.7.2c-.6 0-1.1.2-1.7.3-3 .3-6-.8-8.4-3.1a10.6 10.6 0 0 1-3.5-8.3A11.2 11.2 0 0 1 38.5 41c3 .6 5.4 2.7 6.8 5.6a11 11 0 0 1 0 9.6l-.3.2c-.6-.1-1.2-.4-1.5-.9v-.3c1-2.5 1-4.8 0-7a9.4 9.4 0 0 0-4.3-4.4c-1.8-1-4-1-6-.4s-3.8 2-4.9 3.8a7.8 7.8 0 0 0-1 5.7 9 9 0 0 0 2.9 5 8.4 8.4 0 0 0 11.8-.8h.5c1.2 1.6 2.6 3 4.1 4.3.5-.6.6-1.5.6-2.5 0-.9.2-1.8.6-2.6l1-1.5.9-1.4a4 4 0 0 0-.3-4.1l-.8-1c-.4-.4-.7-.8-1-1.8-.2-.5-.3-1-.3-1.7-.2-1.2-.4-2.5-1-3a7.7 7.7 0 0 0-4.4-2l-1.2-.2c-1.2-.4-2-1-2.6-1.6-.8-.7-1.5-1.2-2.8-1-1.3.1-2 .8-2.9 1.5a6 6 0 0 1-1.8 1.3c-.8.3-1.7.4-2.5.5-1.1.1-2.2.2-3 1a9 9 0 0 0-1.2 4 4.6 4.6 0 0 1-1.3 2.5c-.4.5-.8 1-1 1.6-1 1.8-.9 3.3.2 4.5l.4.4c.7.8 1.3 1.4 1.7 2.6l.4 2.4.2 1.6c.3 1.3 1.9 2 3.2 2l.4.1c1.2.2 1.7.2 3 .8.5.2 1 .6 1.5 1 .7.5 1.4 1 1.9 1.1 1.4.5 3.1-.6 4.7-1.6 1.9-1.1 3.8-2.3 5.5-1.3.8.4 1.4 1.7 2 3l.4.8a117.4 117.4 0 0 1 5 10.4l-.4.1c-1.2 0-3.7-.4-5-.8a31.2 31.2 0 0 1-1.8 3.1l-1 1.7-.3.1a.3.3 0 0 1-.3-.2 19 19 0 0 0-1.9-3.8c-.7-1.1-1.4-2.4-2.5-4.7l-1.4-3.6-.3-.7c-.3-.8-1-1-1.6-1.1a2 2 0 0 0-1.6 1 1552 1552 0 0 0-6 13.3h-.3a14.8 14.8 0 0 1-3.3-5 11 11 0 0 1-4.8.5.3.3 0 0 1-.2-.5c1-2.6 2-4.4 3-6.2A70 70 0 0 0 25 65c-3.2 1.9-7.3 1.3-11.1.8-8.2-1.2-9.4-1-11 0h-.3c.5-.6-.2-.4-.6-.1 3.7-1.4 7.8-1.2 12-.6 4.3.6 8.4 1.2 11.5-1.2h.5c0 .1.1.3 0 .4-1.1 2.8-2.1 4.7-3 6.5-1 1.7-1.8 3.4-2.8 5.7 1.7 0 2.7 0 4.2-.5.2-.1.4 0 .5.1.8 2.1 1.6 3.2 3 4.7A588 588 0 0 0 33.3 68c.3-.7.9-1.2 1.5-1.4l-.6-.1a6 6 0 0 1-2-1.2c-.6-.4-1-.8-1.5-1a6.8 6.8 0 0 0-2.8-.7h-.4c-1.6-.2-3.4-1-3.8-2.7l-.2-1.7c0-.8-.2-1.6-.4-2.2-.3-1-.8-1.5-1.5-2.3a23 23 0 0 1-.4-.5c-1.3-1.4-1.4-3.1-.4-5.2.4-.8.8-1.3 1.2-1.7.5-.7 1-1.2 1-2.2.3-1.6.6-3.3 1.5-4.3 1-1 2.2-1.2 3.4-1.3.8 0 1.6-.2 2.3-.4.6-.3 1.1-.7 1.7-1.2a6 6 0 0 1 3.2-1.7c1.6-.2 2.4.5 3.3 1.2.6.6 1.3 1.1 2.3 1.4l1.2.2c1.3.3 3 .5 4.7 2.1.9.7 1 2.2 1.2 3.5 0 .6.2 1.2.3 1.6.2.9.5 1.1.9 1.5l.8 1a5 5 0 0 1 .4 4.9l-1 1.5a5 5 0 0 0-1 1.4c-.3.6-.4 1.5-.4 2.4-.1 1-.2 2-.8 2.8a27 27 0 0 0 5.2 3c4.1 1.7 10.2 3 14.2 3.4v.3ZM36 66.7c.9 0 1.6.6 2 1.4l.2.7 1.5 3.6c1 2.3 1.7 3.5 2.4 4.6a21 21 0 0 1 1.7 3.4l.6-1 .6-1.2 1.3-2.2.3-.2c1.1.3 3.3.7 4.7.8l-1.6-3.4-3-6-.5-1c-.5-1-1.1-2.3-1.7-2.6-1.4-.8-3 .2-4.8 1.3-1.2.8-2.4 1.5-3.7 1.8Zm5-5.9c.4 0 .8 0 1.3.2l1.3.4c.9.4 1.8.7 2.6.4a24.2 24.2 0 0 1-3.9-4 9.1 9.1 0 0 1-12.5.6 9.7 9.7 0 0 1-3-5.3 8.6 8.6 0 0 1 6.3-10.3c2.3-.8 4.6-.6 6.5.4a10 10 0 0 1 4.6 4.8 9 9 0 0 1 0 7.2l.7.4c1.3-2.8 1.2-6-.1-8.7a9.4 9.4 0 0 0-6.3-5.3c-3.2-.7-6.3 0-8.8 1.8a10 10 0 0 0-4.2 7.5 10 10 0 0 0 3.2 7.7 9.9 9.9 0 0 0 9.6 2.6c.8-.2 1.7-.4 2.6-.4Z"/>
  </mask>
  <path fill="#1A174F" d="M66.5 68.5a33.4 33.4 0 0 1-19.9-6.3l-.1.1c-1 .6-2.2.2-3.3-.2l-1.2-.4a7.8 7.8 0 0 0-3.7.2c-.6 0-1.1.2-1.7.3-3 .3-6-.8-8.4-3.1a10.6 10.6 0 0 1-3.5-8.3A11.2 11.2 0 0 1 38.5 41c3 .6 5.4 2.7 6.8 5.6a11 11 0 0 1 0 9.6l-.3.2c-.6-.1-1.2-.4-1.5-.9v-.3c1-2.5 1-4.8 0-7a9.4 9.4 0 0 0-4.3-4.4c-1.8-1-4-1-6-.4s-3.8 2-4.9 3.8a7.8 7.8 0 0 0-1 5.7 9 9 0 0 0 2.9 5 8.4 8.4 0 0 0 11.8-.8h.5c1.2 1.6 2.6 3 4.1 4.3.5-.6.6-1.5.6-2.5 0-.9.2-1.8.6-2.6l1-1.5.9-1.4a4 4 0 0 0-.3-4.1l-.8-1c-.4-.4-.7-.8-1-1.8-.2-.5-.3-1-.3-1.7-.2-1.2-.4-2.5-1-3a7.7 7.7 0 0 0-4.4-2l-1.2-.2c-1.2-.4-2-1-2.6-1.6-.8-.7-1.5-1.2-2.8-1-1.3.1-2 .8-2.9 1.5a6 6 0 0 1-1.8 1.3c-.8.3-1.7.4-2.5.5-1.1.1-2.2.2-3 1a9 9 0 0 0-1.2 4 4.6 4.6 0 0 1-1.3 2.5c-.4.5-.8 1-1 1.6-1 1.8-.9 3.3.2 4.5l.4.4c.7.8 1.3 1.4 1.7 2.6l.4 2.4.2 1.6c.3 1.3 1.9 2 3.2 2l.4.1c1.2.2 1.7.2 3 .8.5.2 1 .6 1.5 1 .7.5 1.4 1 1.9 1.1 1.4.5 3.1-.6 4.7-1.6 1.9-1.1 3.8-2.3 5.5-1.3.8.4 1.4 1.7 2 3l.4.8a117.4 117.4 0 0 1 5 10.4l-.4.1c-1.2 0-3.7-.4-5-.8a31.2 31.2 0 0 1-1.8 3.1l-1 1.7-.3.1a.3.3 0 0 1-.3-.2 19 19 0 0 0-1.9-3.8c-.7-1.1-1.4-2.4-2.5-4.7l-1.4-3.6-.3-.7c-.3-.8-1-1-1.6-1.1a2 2 0 0 0-1.6 1 1552 1552 0 0 0-6 13.3h-.3a14.8 14.8 0 0 1-3.3-5 11 11 0 0 1-4.8.5.3.3 0 0 1-.2-.5c1-2.6 2-4.4 3-6.2A70 70 0 0 0 25 65c-3.2 1.9-7.3 1.3-11.1.8-8.2-1.2-9.4-1-11 0h-.3c.5-.6-.2-.4-.6-.1 3.7-1.4 7.8-1.2 12-.6 4.3.6 8.4 1.2 11.5-1.2h.5c0 .1.1.3 0 .4-1.1 2.8-2.1 4.7-3 6.5-1 1.7-1.8 3.4-2.8 5.7 1.7 0 2.7 0 4.2-.5.2-.1.4 0 .5.1.8 2.1 1.6 3.2 3 4.7A588 588 0 0 0 33.3 68c.3-.7.9-1.2 1.5-1.4l-.6-.1a6 6 0 0 1-2-1.2c-.6-.4-1-.8-1.5-1a6.8 6.8 0 0 0-2.8-.7h-.4c-1.6-.2-3.4-1-3.8-2.7l-.2-1.7c0-.8-.2-1.6-.4-2.2-.3-1-.8-1.5-1.5-2.3a23 23 0 0 1-.4-.5c-1.3-1.4-1.4-3.1-.4-5.2.4-.8.8-1.3 1.2-1.7.5-.7 1-1.2 1-2.2.3-1.6.6-3.3 1.5-4.3 1-1 2.2-1.2 3.4-1.3.8 0 1.6-.2 2.3-.4.6-.3 1.1-.7 1.7-1.2a6 6 0 0 1 3.2-1.7c1.6-.2 2.4.5 3.3 1.2.6.6 1.3 1.1 2.3 1.4l1.2.2c1.3.3 3 .5 4.7 2.1.9.7 1 2.2 1.2 3.5 0 .6.2 1.2.3 1.6.2.9.5 1.1.9 1.5l.8 1a5 5 0 0 1 .4 4.9l-1 1.5a5 5 0 0 0-1 1.4c-.3.6-.4 1.5-.4 2.4-.1 1-.2 2-.8 2.8a27 27 0 0 0 5.2 3c4.1 1.7 10.2 3 14.2 3.4v.3ZM36 66.7c.9 0 1.6.6 2 1.4l.2.7 1.5 3.6c1 2.3 1.7 3.5 2.4 4.6a21 21 0 0 1 1.7 3.4l.6-1 .6-1.2 1.3-2.2.3-.2c1.1.3 3.3.7 4.7.8l-1.6-3.4-3-6-.5-1c-.5-1-1.1-2.3-1.7-2.6-1.4-.8-3 .2-4.8 1.3-1.2.8-2.4 1.5-3.7 1.8Zm5-5.9c.4 0 .8 0 1.3.2l1.3.4c.9.4 1.8.7 2.6.4a24.2 24.2 0 0 1-3.9-4 9.1 9.1 0 0 1-12.5.6 9.7 9.7 0 0 1-3-5.3 8.6 8.6 0 0 1 6.3-10.3c2.3-.8 4.6-.6 6.5.4a10 10 0 0 1 4.6 4.8 9 9 0 0 1 0 7.2l.7.4c1.3-2.8 1.2-6-.1-8.7a9.4 9.4 0 0 0-6.3-5.3c-3.2-.7-6.3 0-8.8 1.8a10 10 0 0 0-4.2 7.5 10 10 0 0 0 3.2 7.7 9.9 9.9 0 0 0 9.6 2.6c.8-.2 1.7-.4 2.6-.4Z"/>
  <path stroke="#1A174F" stroke-width=".2" d="M66.5 68.5a33.4 33.4 0 0 1-19.9-6.3l-.1.1c-1 .6-2.2.2-3.3-.2l-1.2-.4a7.8 7.8 0 0 0-3.7.2c-.6 0-1.1.2-1.7.3-3 .3-6-.8-8.4-3.1a10.6 10.6 0 0 1-3.5-8.3A11.2 11.2 0 0 1 38.5 41c3 .6 5.4 2.7 6.8 5.6a11 11 0 0 1 0 9.6l-.3.2c-.6-.1-1.2-.4-1.5-.9v-.3c1-2.5 1-4.8 0-7a9.4 9.4 0 0 0-4.3-4.4c-1.8-1-4-1-6-.4s-3.8 2-4.9 3.8a7.8 7.8 0 0 0-1 5.7 9 9 0 0 0 2.9 5 8.4 8.4 0 0 0 11.8-.8h.5c1.2 1.6 2.6 3 4.1 4.3.5-.6.6-1.5.6-2.5 0-.9.2-1.8.6-2.6l1-1.5.9-1.4a4 4 0 0 0-.3-4.1l-.8-1c-.4-.4-.7-.8-1-1.8-.2-.5-.3-1-.3-1.7-.2-1.2-.4-2.5-1-3a7.7 7.7 0 0 0-4.4-2l-1.2-.2c-1.2-.4-2-1-2.6-1.6-.8-.7-1.5-1.2-2.8-1-1.3.1-2 .8-2.9 1.5a6 6 0 0 1-1.8 1.3c-.8.3-1.7.4-2.5.5-1.1.1-2.2.2-3 1a9 9 0 0 0-1.2 4 4.6 4.6 0 0 1-1.3 2.5c-.4.5-.8 1-1 1.6-1 1.8-.9 3.3.2 4.5l.4.4c.7.8 1.3 1.4 1.7 2.6l.4 2.4.2 1.6c.3 1.3 1.9 2 3.2 2l.4.1c1.2.2 1.7.2 3 .8.5.2 1 .6 1.5 1 .7.5 1.4 1 1.9 1.1 1.4.5 3.1-.6 4.7-1.6 1.9-1.1 3.8-2.3 5.5-1.3.8.4 1.4 1.7 2 3l.4.8a117.4 117.4 0 0 1 5 10.4l-.4.1c-1.2 0-3.7-.4-5-.8a31.2 31.2 0 0 1-1.8 3.1l-1 1.7-.3.1a.3.3 0 0 1-.3-.2 19 19 0 0 0-1.9-3.8c-.7-1.1-1.4-2.4-2.5-4.7l-1.4-3.6-.3-.7c-.3-.8-1-1-1.6-1.1a2 2 0 0 0-1.6 1 1552 1552 0 0 0-6 13.3h-.3a14.8 14.8 0 0 1-3.3-5 11 11 0 0 1-4.8.5.3.3 0 0 1-.2-.5c1-2.6 2-4.4 3-6.2A70 70 0 0 0 25 65c-3.2 1.9-7.3 1.3-11.1.8-8.2-1.2-9.4-1-11 0h-.3c.5-.6-.2-.4-.6-.1 3.7-1.4 7.8-1.2 12-.6 4.3.6 8.4 1.2 11.5-1.2h.5c0 .1.1.3 0 .4-1.1 2.8-2.1 4.7-3 6.5-1 1.7-1.8 3.4-2.8 5.7 1.7 0 2.7 0 4.2-.5.2-.1.4 0 .5.1.8 2.1 1.6 3.2 3 4.7A588 588 0 0 0 33.3 68c.3-.7.9-1.2 1.5-1.4l-.6-.1a6 6 0 0 1-2-1.2c-.6-.4-1-.8-1.5-1a6.8 6.8 0 0 0-2.8-.7h-.4c-1.6-.2-3.4-1-3.8-2.7l-.2-1.7c0-.8-.2-1.6-.4-2.2-.3-1-.8-1.5-1.5-2.3a23 23 0 0 1-.4-.5c-1.3-1.4-1.4-3.1-.4-5.2.4-.8.8-1.3 1.2-1.7.5-.7 1-1.2 1-2.2.3-1.6.6-3.3 1.5-4.3 1-1 2.2-1.2 3.4-1.3.8 0 1.6-.2 2.3-.4.6-.3 1.1-.7 1.7-1.2a6 6 0 0 1 3.2-1.7c1.6-.2 2.4.5 3.3 1.2.6.6 1.3 1.1 2.3 1.4l1.2.2c1.3.3 3 .5 4.7 2.1.9.7 1 2.2 1.2 3.5 0 .6.2 1.2.3 1.6.2.9.5 1.1.9 1.5l.8 1a5 5 0 0 1 .4 4.9l-1 1.5a5 5 0 0 0-1 1.4c-.3.6-.4 1.5-.4 2.4-.1 1-.2 2-.8 2.8a27 27 0 0 0 5.2 3c4.1 1.7 10.2 3 14.2 3.4v.3ZM36 66.7c.9 0 1.6.6 2 1.4l.2.7 1.5 3.6c1 2.3 1.7 3.5 2.4 4.6a21 21 0 0 1 1.7 3.4l.6-1 .6-1.2 1.3-2.2.3-.2c1.1.3 3.3.7 4.7.8l-1.6-3.4-3-6-.5-1c-.5-1-1.1-2.3-1.7-2.6-1.4-.8-3 .2-4.8 1.3-1.2.8-2.4 1.5-3.7 1.8Zm5-5.9c.4 0 .8 0 1.3.2l1.3.4c.9.4 1.8.7 2.6.4a24.2 24.2 0 0 1-3.9-4 9.1 9.1 0 0 1-12.5.6 9.7 9.7 0 0 1-3-5.3 8.6 8.6 0 0 1 6.3-10.3c2.3-.8 4.6-.6 6.5.4a10 10 0 0 1 4.6 4.8 9 9 0 0 1 0 7.2l.7.4c1.3-2.8 1.2-6-.1-8.7a9.4 9.4 0 0 0-6.3-5.3c-3.2-.7-6.3 0-8.8 1.8a10 10 0 0 0-4.2 7.5 10 10 0 0 0 3.2 7.7 9.9 9.9 0 0 0 9.6 2.6c.8-.2 1.7-.4 2.6-.4Z" mask="url(#b)"/>
</svg>
