<svg xmlns="http://www.w3.org/2000/svg" width="126" height="125" fill="none">
  <path fill="#78E0ED" d="M22.5 15.3h-3v3h3v-3Zm12.8-.2h-3v3.1h3v-3Zm13.1 0h-3v3.1h3v-3ZM9 28.2H6v3.1h3v-3Zm12.9.3h-3v3h3v-3Zm13.4-.3h-3v3.1h3v-3Zm13.1 0h-3v3.1h3v-3Zm13.1 0h-3v3.1h3v-3ZM9 41.3H6v3h3v-3Zm13.2 0h-3v3h3v-3Zm13.1 0h-3v3h3v-3Zm13.1 0h-3v3h3v-3Zm13.1 0h-3v3h3v-3ZM9 54.4H6v3h3v-3Zm13.2 0h-3v3h3v-3Zm13.1 0h-3v3h3v-3Zm13.1 0h-3v3h3v-3Zm13.1 0h-3v3h3v-3ZM22.2 67.5h-3v3h3v-3Zm13.1 0h-3v3h3v-3Zm13.1 0h-3v3h3v-3Z"/>
  <path fill="#CFE5DC" fill-rule="evenodd" d="M104 70.6c3-.3 9-3 13.4-9.4 4.4-6.2.5-11.6-4.9-11-3.3.4-8.4 2.3-11.7 3.3-11 3.5-6.4 18.4 3.2 17.1Z" clip-rule="evenodd"/>
  <path fill="#FCC" fill-rule="evenodd" d="M89 52.5c2.5-.7 6.7-3.7 9.9-5.4 2.3-1.2 4.5-2.6 5.4-5 1.8-4.4.8-8.9-2-12.5-2.7-3.2-5.3-4.2-9-3-3 1.2-5.9 3.1-6.8 7.5-1 4.9-1.5 7.2-4 11.3-3 4.9 1.7 8.3 6.5 7Z" clip-rule="evenodd"/>
  <path stroke="#1A174F" stroke-width="1.5" d="M98.7 34.7c1.6-3.7 6.9-11 15.4-10.3 10.8.9 0 15.9 0 10.3 0-4.4 7.5-3.8 11.2-3M1 108c12.9-7.3 21-18 14.1-18-6.8 0-2.5 12.9 4.3 7.7L29.7 90m75.4-22.7c-7.5-2.8-6.2-9.3-4.2-12 5-5.9 9.7-3.8 12.4-.7a7.1 7.1 0 0 1 1.4 7c-1.2 4-4 7.7-9.6 5.7Zm-15-17.2-35.5-9.8c-2 .5-5.2 2.4-2.1 5.7l33.3 9c1.3 2 2.7 6-2.2 6.6l-35-9.9c-2 .7-5.5 3-3 7l36.3 9"/>
  <path stroke="#1A174F" stroke-width="1.5" d="M100.4 68.6c-5.3 9.1-15.2 27.6-12.8 28.2 3 .9 13.3-24 15.8-26.1 2.6-2.1-5.5-2.6-5.5-10.3A10 10 0 0 1 108 49.7c2.7 0 11.5 3.6 9 12.4-2.4 9-12.2 8.6-16.7 6.5ZM73.9 20.1c2.2.9 10.4 3.5 16.3 5.4 2.1.7 4 2.4 3.9 4.6 0 1-.2 1.9-.5 2.7-1 3.5-5.1 4.3-8.7 3.3l-25-7c-2.7-.7-5-3.2-4-6a8 8 0 0 1 3.9-4.6c1.8-1 4-.6 5.9 0 16.7 5.5 19.6 1.6 18 0-.9-1-3.5-1.9-6-2.6-2.3-.6-5.7.2-5.3 2.7 0 .6.5 1.2 1.5 1.5Z"/>
  <path stroke="#1A174F" stroke-width="1.5" d="m57.5 21.8 21 5.1c22.8 6.5 23.9 8.7 21 16.8a2870 2870 0 0 0-17.6 50.1 10.9 10.9 0 0 1-12.4 7.7l-32.2-7.7c-10-2.4-9.5-9.3-8.1-12.4a2723 2723 0 0 1 18-50.2c4.8-12.7 9-9.4 10.3-9.4Z"/>
  <path fill="#E8E7F8" fill-rule="evenodd" d="M53.8 75.7c-1.1 2.4-3.6 7.4-4.5 10.7-1.6 5.8-9 6.6-12.8 1.5A27.6 27.6 0 0 1 34 70.8c1.7-4.7 8.6-7.5 14.5-5.3 5.4 2 7.3 6 5.2 10.2Z" clip-rule="evenodd"/>
  <path stroke="#1A174F" stroke-width="1.5" d="M81.6 73.3 46 63.4c-2 .6-5.3 2.5-2.2 5.8l33.3 9c1.3 1.9 2.7 5.9-2.1 6.5L40 75c-2.1.7-5.5 3-3.1 7l36.3 9"/>
</svg>
