<svg xmlns="http://www.w3.org/2000/svg" width="125" height="125" fill="none">
  <path fill="#E8E7F8" fill-rule="evenodd" d="M58.5 108.7c6 1.1 10.4-3.2 10-9-.2-4-2.5-7.2-5.9-9.7l-11.1-9c-1.5-1.3-3.2-2.4-5.5-2.2-4.7.3-7.2 3.1-7.3 7-.3 7.9 11.3 21.3 19.8 22.9Z" clip-rule="evenodd"/>
  <path fill="#FCC" fill-rule="evenodd" d="M90.7 48c-4.2.9-5.4 1-6.8 1-3.8.3-7.2 2.3-9 5.5-3 5-6.4 8.3-6.4 14.4 0 3.9.6 8.4 3 11.2 2.7 3 5.7 4.6 7.8 6.2 4.3 3.3 8.2 2.7 12-1.4a37.8 37.8 0 0 0 8.5-30.3c-1.2-5.6-3.5-7.9-9.2-6.6Z" clip-rule="evenodd"/>
  <path fill="#CFE5DC" fill-rule="evenodd" d="M42.8 51.6a42.6 42.6 0 0 0 21.9-19c6-10.8-3-17.3-12.5-14.4-6 1.8-14.7 6.5-20.6 9.4-19 9.3-6 29.4 11.2 24Z" clip-rule="evenodd"/>
  <path fill="#1A174F" d="M88.7 42c-7.9-.7-15.9-3-25.1-7.6-2.2-1-3.4-1-5.6 0a72.8 72.8 0 0 1-15.5 5.9c-3.5.8-4.2 2.6-4.3 5.4a59 59 0 0 0 4.8 27c3.2 7 7.9 13 14 17.7 1.4 1.2 2.6 1.7 3.8 1.7 1.2 0 2.3-.5 3.8-1.7 6-4.6 10.7-10.4 13.9-17.4 3.2-7 4.9-15 5-23.7h-1.2A49.3 49.3 0 0 1 64 89.5c-2.5 2-3.8 2-6.3 0a45.6 45.6 0 0 1-13.5-17.2 58 58 0 0 1-4.8-26.6c.1-2.4.6-3.6 3.5-4.3a75.2 75.2 0 0 0 15.7-6c1.8-.8 2.7-.8 4.6 0 9.3 4.6 17.5 7 25.6 7.7 1.4.1 2.2.4 2.8 1 .6.6 1 1.8 1 3.5 0 7.1-.8 13.7-2.4 19.7a56.6 56.6 0 0 1-25 33.7c-3.4 2.3-5.5 2.3-8.8 0a60.4 60.4 0 0 1-27-47c-.3-4.7-.3-10 .1-16.3.1-1.6.5-2.6 1.2-3.3.5-.5 1.4-1 3-1.3A87 87 0 0 0 56.9 25a20 20 0 0 1 2.1-1c-.5 1-.7 2.2-.2 3.3.9 1.9 3.7 2.3 5.3.8 1-.9 1.3-2 1-3A86.5 86.5 0 0 0 92.6 34l.2-1.1a85.8 85.8 0 0 1-30-10.5c2-1.2 4.5-2 6.8-1.6.8.2 1.1-1 .3-1.2-2.8-.6-5.8.5-8.2 2a9 9 0 0 0-1.2 1h-.2c-1.1 0-2.3.5-3.7 1.3a88 88 0 0 1-23 8.2c-3.2.7-4.9 1.8-5.1 5.6-1.5 22.4.8 45.6 27.3 64.3 2 1.4 3.5 2 5 2 1.7 0 3.2-.6 5.2-2a57.7 57.7 0 0 0 25.3-34.5c1.6-6 2.4-12.7 2.4-19.9 0-4.4-2-5.4-4.9-5.6ZM63.3 27.3c-.8.8-2 .8-2.8.2-1-.7-.8-2-.3-2.9l.7-.9h.2c.6 0 1.2.2 1.9.5l.6.6c.6.7.4 1.8-.3 2.5Z"/>
</svg>
