<svg xmlns="http://www.w3.org/2000/svg" width="127" height="125" fill="none">
  <path fill="#CFE5DC" fill-rule="evenodd" d="M53.7 44.9c2.5-.5 7.7-4 11.5-12.5 3.7-8.3.4-15.5-4.2-14.7-2.8.5-7.1 3-10 4.5-9.4 4.6-5.4 24.3 2.7 22.7Z" clip-rule="evenodd"/>
  <path fill="#E8E7F8" fill-rule="evenodd" d="M29.5 76.9c3.2.3 10 1.2 14 .8 7-.7 11.9 8.3 8.3 15.7a28.7 28.7 0 0 1-17.3 11.1c-6 0-12.7-7.5-13.4-16-.6-8 2.7-12.3 8.4-11.6Z" clip-rule="evenodd"/>
  <path fill="#FCC" fill-rule="evenodd" d="M90.1 66.8c2.6-.7 6.8-3.8 10-5.5 2.4-1.2 4.6-2.6 5.5-5 1.7-4.5.8-9.1-2.1-12.7-2.7-3.3-5.3-4.3-9-3-3.1 1-6 3-7 7.5-1 5-1.3 7.3-3.9 11.5-3 5 1.7 8.4 6.5 7.2Z" clip-rule="evenodd"/>
  <path fill="#F99" d="M18.5 33.3h-3v3.1h3v-3.1Zm12.7-.2h-3v3.1h3v-3Zm13.1 0h-3v3.1h3v-3ZM5 46.3H2v3.1h3v-3Zm13.1 0h-3v3.1h3v-3Zm13.2 0h-3v3.1h3v-3Zm13 0h-3v3.1h3v-3Zm13.2 0h-3v3.1h3v-3ZM5 59.5H2v3h3v-3Zm13.1 0h-3v3h3v-3Zm13.2 0h-3v3h3v-3Zm13 0h-3v3h3v-3Zm13.2 0h-3v3h3v-3ZM5 72.7H2v3.1h3v-3.1Zm13.1 0h-3v3.1h3v-3.1Zm13.2 0h-3v3.1h3v-3.1Zm13 0h-3v3.1h3v-3.1Zm13.2 0h-3v3.1h3v-3.1ZM18.1 85.9h-3V89h3v-3Zm13.2 0h-3V89h3v-3Zm13 0h-3V89h3v-3Z"/>
  <path stroke="#1A174F" stroke-width="1.3" d="M36.7 43.5c-3 3-2.8 9.4-1.6 12.2 19.1 1.6 48.7 0 63.3 0 6 0 2-9.7 0-12.2a784 784 0 0 1-30.8-25.2c-.7-.6-1.7-.6-2.4 0a704.4 704.4 0 0 0-28.5 25.2Z"/>
  <path stroke="#1A174F" stroke-width="1.3" d="M33 52.6h67.9c3.4 2 1.4 4.8 0 6h-68c-3.7-2.5-1.5-5 0-6Z"/>
  <path stroke="#1A174F" stroke-width="1.3" d="M35.7 87.6v-29h6v29c-3 4-5.2 1.7-6 0Zm19.9.4V58.8h5.9v29c-3 4-5.2 1.7-6 0Zm19.8 0V58.8h6v29c-3 4-5.2 1.7-6 0Zm19.9-.4v-29h5.9v29c-3 4-5.2 1.7-6 0Z"/>
  <path stroke="#1A174F" stroke-width="1.3" d="M67.7 91.7H66m0 0c-12.4 0-32.8-.6-32.5 1.6.3 2.8 68.2 3 67.9 0-.3-2.5-23.3-1.3-35.4-1.7Zm-20.7-7.5c-4.8 1.9-14.3 6.3-14 9 .1 1.8.2 3.8.1 5.6 0 1.4 1.1 2.6 2.5 2.6h67.5c1.4 0 2.5-1.1 2.6-2.5.3-4.8.6-8.2-12.5-14.7H45.4ZM1 81.7c7.2-9 26-6.3 34.4-3.8m5.9 1.3c2.7 1.6 9.3 3.7 14 0m5.9-2.2c2.9-2.8 9.7-8 14-6m6.1 2.9c2.1 2.7 7.7 7.6 13.4 5.6m7.1-2.5c3.6-.7 10.9-3.8 10.9-10.3 0-8.1-9 12.5-2.2 10.3A45.3 45.3 0 0 0 126 64.2"/>
</svg>
