<svg xmlns="http://www.w3.org/2000/svg" width="126" height="125" fill="none">
  <path fill="#F99" d="M83.2 28.3h-3.4v3.4h3.4v-3.4Zm14-.3H94v3.5h3.3V28Zm14.4 0h-3.3v3.5h3.3V28ZM68.4 42.6h-3.3v3.5h3.3v-3.5Zm14.4 0h-3.3v3.5h3.3v-3.5Zm14.4 0H94v3.5h3.3v-3.5Zm14.4 0h-3.3v3.5h3.3v-3.5Zm14.4 0h-3.3v3.5h3.3v-3.5ZM68.4 57.2h-3.3v3.4h3.3v-3.4Zm14.4 0h-3.3v3.4h3.3v-3.4Zm14.4 0H94v3.4h3.3v-3.4Zm14.4 0h-3.3v3.4h3.3v-3.4Zm14.4 0h-3.3v3.4h3.3v-3.4ZM68.4 71.8h-3.3v3.4h3.3v-3.4Zm14.4 0h-3.3v3.4h3.3v-3.4Zm14.4 0H94v3.4h3.3v-3.4Zm14.4 0h-3.3v3.4h3.3v-3.4Zm14.4 0h-3.3v3.4h3.3v-3.4ZM82.8 86.4h-3.3v3.4h3.3v-3.4Zm14.4 0H94v3.4h3.3v-3.4Zm14.4 0h-3.3v3.4h3.3v-3.4Z"/>
  <path fill="#FCC" fill-rule="evenodd" d="M57.9 69.4a16.3 16.3 0 0 0-8.8-4.6c-3.8-.7-7 0-10.3 1.4-3 1.2-6.5 4-7.4 7-1.2 4.6 3.7 11.6 9.7 6.9 3.2-2.5 6.2-4.2 13.8-5.2 3.9-.5 6.3-2.2 3-5.5Z" clip-rule="evenodd"/>
  <path fill="#E8E7F8" fill-rule="evenodd" d="M18.6 85.4c.4 1.3.6 2.4.8 3.7.2 2.2.8 7.6.5 10.1-.3 3-3.6 5-6.4 4.8-2.4-.2-5.7-1.8-7.2-2.8-2-1.4-2.6-3.4-2-5.7.6-2.7 3.2-7.8 6.9-11.6 3.1-3.3 5.7-3 7.4 1.5Z" clip-rule="evenodd"/>
  <path fill="#CFE5DC" fill-rule="evenodd" d="M84.6 19c-4 1.4-7.2 3-9.1 7.8-2 4.7-2.3 9 .5 11.9 2.6 2.6 6.1 3.5 9-1.2 1.4-2.3 4.5-7.8 5.8-11.5 1.9-5.5-1.7-8.7-6.2-7Z" clip-rule="evenodd"/>
  <mask id="a" width="92" height="93" x="0" y="17.2" fill="#000" maskUnits="userSpaceOnUse">
    <path fill="#fff" d="M0 17.2h92v93H0z"/>
    <path d="M76.3 78.8c-4.1 1.8-6.7 3.6-8.7 4.9-3 2-4.5 3-7.8 1.7-5-2-10.4-3.7-15.1-5.3l-2.9-.9c-1.6-.5-2.4-2-2.2-3.2.2-1.1 1.3-1.7 3.2-1.6 2 0 4 .3 6 .5 5.2.7 10.1 1.3 12.8-1.2 1.4-1.2 1.9-2.8 1.4-4.1-.4-1.3-7.9-5.5-9.5-5.7-.4 0-.7.2-.8.6 0 .3.3.6.6.7 1.2.1 8.2 4 8.5 4.8.3.8-.1 1.9-1 2.8-2.3 2-7 1.5-11.9.9l-6-.6c-3.8-.2-4.4 2-4.6 2.7-.3 1.9 1.1 4 3.1 4.7l2.9.9c4.8 1.5 10.1 3.2 15 5.2 4 1.6 5.9.3 9-1.8 2-1.4 4.5-3 8.5-4.8 2.8-1.2 5.1 0 5.8 1.2.4.9 0 1.8-1.2 2.4a223 223 0 0 0-10.1 6.6c-6.6 4.4-9 6-15.6 5.4-3.4-.3-6.9-.3-10.2-.4-6.3-.1-11.8-.2-14.6-2-2.7-1.9-3.2-5.6-3.7-9.2-.5-3.5-1-6.8-3.4-8.6l-.4-.2c.5-.8 1.3-1.5 2.4-2.1 10.5-6.1 11.6-6.7 25.1-5.4 3.8.4 6.2-.7 8-3.6 1.1-1.6 1.9-3.6 2.6-5.4l1.5-3.9a11.8 11.8 0 0 0 9 1.3 18 18 0 0 0 6.3-3.2c2.4-1.9 6-5.5 9.2-14.7a61 61 0 0 0 3.2-19.4c0-.3-.2-.6-.6-.6a31.8 31.8 0 0 0-30 18.1 31.3 31.3 0 0 0-3.1 11c0 .2.2.4.4.5.3 0 .6-.2.6-.5 1-6.7 3.7-12.8 8-17.6a30.7 30.7 0 0 1 23.5-10.3 58 58 0 0 1-2.4 16 35.6 35.6 0 0 1-7.8 15 17 17 0 0 1-5.5 3.7 12 12 0 0 1-6.6 1c-.8-.2-2.6-.6-3.7-1.6a72.4 72.4 0 0 1 7.6-14c2.3-3.2 4.9-6.4 7.6-9.3.2-.2.2-.6 0-.8a.6.6 0 0 0-.9-.1 52.9 52.9 0 0 0-14.2 16.9c-.7 1.2-1.3 2.4-1.8 3.7-.3 1-.6 2.5.2 3.8l-.7 2-.3.5V55a5.4 5.4 0 0 0-2.8-3.5c-1.2-.7-2.5-1-3.8-1.4l-1-.2a12 12 0 0 1-8.3-15.2l-.1-.6a.7.7 0 0 0-.7-.2c-.2 0-.4.2-.5.5a13.3 13.3 0 0 0 6.5 15.8c1.3.6 2.6 1 4 1.3l.8.2c1.3.4 2.8.9 3.8 2 1.8 2.2.3 5-1.6 6.7a15.3 15.3 0 0 1-8.7 4 1 1 0 0 0-.6.5v.6l.6.7c-11.7-1-13.5 0-23.5 5.7a7.5 7.5 0 0 0-2.8 2.7c-1.4-.4-3.1-.4-5.2 0l-4.2.8c-6.2 1.1-9.6 1.7-11.1 4-.8 1.1-1 2.7-.6 4.9l1.2 6.6c2 11.7 2.8 16 5 17.5.4.2.8.4 1.3.4.6.1 1.2 0 2-.1 3.6-1 6.5-1.4 8.9-1.9 4.2-.7 6.5-1.1 7.5-2.7.6-1 .7-2.1.3-4l-2.6-10.7C23 82.8 22 79 22.9 76.4h.2c2 1.5 2.4 4.6 2.9 7.8.5 3.9 1 7.9 4.2 10 3.1 2 8.8 2.2 15.3 2.3 3.3 0 6.7.1 10.1.4 7 .6 9.7-1.2 16.4-5.7a224 224 0 0 1 10-6.4c2.2-1.3 2.3-3 1.7-4.2-1-2-4-3.2-7.4-1.8ZM58.5 62.2l-.3.3c0 .3-.2.5-.3.7-.4.5-.7 1-1.2 1.3a6.1 6.1 0 0 1-4 2c-1 0-2-.3-2.7-.9a16.8 16.8 0 0 0 9.8-6l-1.3 2.6Zm4.3-10.7c0-1 .6-2 1-3 .2-.1.2-.3.3-.4A55 55 0 0 1 71 37.8a81.5 81.5 0 0 0-8.1 13.7ZM23.5 89.7c.8 3 1.7 6.5 2.6 10.6.3 1.5.3 2.5 0 3-.8 1.2-3 1.6-6.8 2.3l-9 1.8c-1 .3-1.7.2-2.3-.1-1.7-1.2-2.5-6-4.4-16.6L2.4 84c-.3-1.9-.2-3.1.4-4 1.2-1.8 4.6-2.4 10.3-3.5l4.2-.7c1.3-.3 2.4-.4 3.4-.3l1 .2c-1 3 .1 7.3 1.8 13.9Z"/>
  </mask>
  <path fill="#1A174F" d="M76.3 78.8c-4.1 1.8-6.7 3.6-8.7 4.9-3 2-4.5 3-7.8 1.7-5-2-10.4-3.7-15.1-5.3l-2.9-.9c-1.6-.5-2.4-2-2.2-3.2.2-1.1 1.3-1.7 3.2-1.6 2 0 4 .3 6 .5 5.2.7 10.1 1.3 12.8-1.2 1.4-1.2 1.9-2.8 1.4-4.1-.4-1.3-7.9-5.5-9.5-5.7-.4 0-.7.2-.8.6 0 .3.3.6.6.7 1.2.1 8.2 4 8.5 4.8.3.8-.1 1.9-1 2.8-2.3 2-7 1.5-11.9.9l-6-.6c-3.8-.2-4.4 2-4.6 2.7-.3 1.9 1.1 4 3.1 4.7l2.9.9c4.8 1.5 10.1 3.2 15 5.2 4 1.6 5.9.3 9-1.8 2-1.4 4.5-3 8.5-4.8 2.8-1.2 5.1 0 5.8 1.2.4.9 0 1.8-1.2 2.4a223 223 0 0 0-10.1 6.6c-6.6 4.4-9 6-15.6 5.4-3.4-.3-6.9-.3-10.2-.4-6.3-.1-11.8-.2-14.6-2-2.7-1.9-3.2-5.6-3.7-9.2-.5-3.5-1-6.8-3.4-8.6l-.4-.2c.5-.8 1.3-1.5 2.4-2.1 10.5-6.1 11.6-6.7 25.1-5.4 3.8.4 6.2-.7 8-3.6 1.1-1.6 1.9-3.6 2.6-5.4l1.5-3.9a11.8 11.8 0 0 0 9 1.3 18 18 0 0 0 6.3-3.2c2.4-1.9 6-5.5 9.2-14.7a61 61 0 0 0 3.2-19.4c0-.3-.2-.6-.6-.6a31.8 31.8 0 0 0-30 18.1 31.3 31.3 0 0 0-3.1 11c0 .2.2.4.4.5.3 0 .6-.2.6-.5 1-6.7 3.7-12.8 8-17.6a30.7 30.7 0 0 1 23.5-10.3 58 58 0 0 1-2.4 16 35.6 35.6 0 0 1-7.8 15 17 17 0 0 1-5.5 3.7 12 12 0 0 1-6.6 1c-.8-.2-2.6-.6-3.7-1.6a72.4 72.4 0 0 1 7.6-14c2.3-3.2 4.9-6.4 7.6-9.3.2-.2.2-.6 0-.8a.6.6 0 0 0-.9-.1 52.9 52.9 0 0 0-14.2 16.9c-.7 1.2-1.3 2.4-1.8 3.7-.3 1-.6 2.5.2 3.8l-.7 2-.3.5V55a5.4 5.4 0 0 0-2.8-3.5c-1.2-.7-2.5-1-3.8-1.4l-1-.2a12 12 0 0 1-8.3-15.2l-.1-.6a.7.7 0 0 0-.7-.2c-.2 0-.4.2-.5.5a13.3 13.3 0 0 0 6.5 15.8c1.3.6 2.6 1 4 1.3l.8.2c1.3.4 2.8.9 3.8 2 1.8 2.2.3 5-1.6 6.7a15.3 15.3 0 0 1-8.7 4 1 1 0 0 0-.6.5v.6l.6.7c-11.7-1-13.5 0-23.5 5.7a7.5 7.5 0 0 0-2.8 2.7c-1.4-.4-3.1-.4-5.2 0l-4.2.8c-6.2 1.1-9.6 1.7-11.1 4-.8 1.1-1 2.7-.6 4.9l1.2 6.6c2 11.7 2.8 16 5 17.5.4.2.8.4 1.3.4.6.1 1.2 0 2-.1 3.6-1 6.5-1.4 8.9-1.9 4.2-.7 6.5-1.1 7.5-2.7.6-1 .7-2.1.3-4l-2.6-10.7C23 82.8 22 79 22.9 76.4h.2c2 1.5 2.4 4.6 2.9 7.8.5 3.9 1 7.9 4.2 10 3.1 2 8.8 2.2 15.3 2.3 3.3 0 6.7.1 10.1.4 7 .6 9.7-1.2 16.4-5.7a224 224 0 0 1 10-6.4c2.2-1.3 2.3-3 1.7-4.2-1-2-4-3.2-7.4-1.8ZM58.5 62.2l-.3.3c0 .3-.2.5-.3.7-.4.5-.7 1-1.2 1.3a6.1 6.1 0 0 1-4 2c-1 0-2-.3-2.7-.9a16.8 16.8 0 0 0 9.8-6l-1.3 2.6Zm4.3-10.7c0-1 .6-2 1-3 .2-.1.2-.3.3-.4A55 55 0 0 1 71 37.8a81.5 81.5 0 0 0-8.1 13.7ZM23.5 89.7c.8 3 1.7 6.5 2.6 10.6.3 1.5.3 2.5 0 3-.8 1.2-3 1.6-6.8 2.3l-9 1.8c-1 .3-1.7.2-2.3-.1-1.7-1.2-2.5-6-4.4-16.6L2.4 84c-.3-1.9-.2-3.1.4-4 1.2-1.8 4.6-2.4 10.3-3.5l4.2-.7c1.3-.3 2.4-.4 3.4-.3l1 .2c-1 3 .1 7.3 1.8 13.9Z"/>
  <path stroke="#1A174F" stroke-width=".6" d="M76.3 78.8c-4.1 1.8-6.7 3.6-8.7 4.9-3 2-4.5 3-7.8 1.7-5-2-10.4-3.7-15.1-5.3l-2.9-.9c-1.6-.5-2.4-2-2.2-3.2.2-1.1 1.3-1.7 3.2-1.6 2 0 4 .3 6 .5 5.2.7 10.1 1.3 12.8-1.2 1.4-1.2 1.9-2.8 1.4-4.1-.4-1.3-7.9-5.5-9.5-5.7-.4 0-.7.2-.8.6 0 .3.3.6.6.7 1.2.1 8.2 4 8.5 4.8.3.8-.1 1.9-1 2.8-2.3 2-7 1.5-11.9.9l-6-.6c-3.8-.2-4.4 2-4.6 2.7-.3 1.9 1.1 4 3.1 4.7l2.9.9c4.8 1.5 10.1 3.2 15 5.2 4 1.6 5.9.3 9-1.8 2-1.4 4.5-3 8.5-4.8 2.8-1.2 5.1 0 5.8 1.2.4.9 0 1.8-1.2 2.4a223 223 0 0 0-10.1 6.6c-6.6 4.4-9 6-15.6 5.4-3.4-.3-6.9-.3-10.2-.4-6.3-.1-11.8-.2-14.6-2-2.7-1.9-3.2-5.6-3.7-9.2-.5-3.5-1-6.8-3.4-8.6l-.4-.2c.5-.8 1.3-1.5 2.4-2.1 10.5-6.1 11.6-6.7 25.1-5.4 3.8.4 6.2-.7 8-3.6 1.1-1.6 1.9-3.6 2.6-5.4l1.5-3.9a11.8 11.8 0 0 0 9 1.3 18 18 0 0 0 6.3-3.2c2.4-1.9 6-5.5 9.2-14.7a61 61 0 0 0 3.2-19.4c0-.3-.2-.6-.6-.6a31.8 31.8 0 0 0-30 18.1 31.3 31.3 0 0 0-3.1 11c0 .2.2.4.4.5.3 0 .6-.2.6-.5 1-6.7 3.7-12.8 8-17.6a30.7 30.7 0 0 1 23.5-10.3 58 58 0 0 1-2.4 16 35.6 35.6 0 0 1-7.8 15 17 17 0 0 1-5.5 3.7 12 12 0 0 1-6.6 1c-.8-.2-2.6-.6-3.7-1.6a72.4 72.4 0 0 1 7.6-14c2.3-3.2 4.9-6.4 7.6-9.3.2-.2.2-.6 0-.8a.6.6 0 0 0-.9-.1 52.9 52.9 0 0 0-14.2 16.9c-.7 1.2-1.3 2.4-1.8 3.7-.3 1-.6 2.5.2 3.8l-.7 2-.3.5V55a5.4 5.4 0 0 0-2.8-3.5c-1.2-.7-2.5-1-3.8-1.4l-1-.2a12 12 0 0 1-8.3-15.2l-.1-.6a.7.7 0 0 0-.7-.2c-.2 0-.4.2-.5.5a13.3 13.3 0 0 0 6.5 15.8c1.3.6 2.6 1 4 1.3l.8.2c1.3.4 2.8.9 3.8 2 1.8 2.2.3 5-1.6 6.7a15.3 15.3 0 0 1-8.7 4 1 1 0 0 0-.6.5v.6l.6.7c-11.7-1-13.5 0-23.5 5.7a7.5 7.5 0 0 0-2.8 2.7c-1.4-.4-3.1-.4-5.2 0l-4.2.8c-6.2 1.1-9.6 1.7-11.1 4-.8 1.1-1 2.7-.6 4.9l1.2 6.6c2 11.7 2.8 16 5 17.5.4.2.8.4 1.3.4.6.1 1.2 0 2-.1 3.6-1 6.5-1.4 8.9-1.9 4.2-.7 6.5-1.1 7.5-2.7.6-1 .7-2.1.3-4l-2.6-10.7C23 82.8 22 79 22.9 76.4h.2c2 1.5 2.4 4.6 2.9 7.8.5 3.9 1 7.9 4.2 10 3.1 2 8.8 2.2 15.3 2.3 3.3 0 6.7.1 10.1.4 7 .6 9.7-1.2 16.4-5.7a224 224 0 0 1 10-6.4c2.2-1.3 2.3-3 1.7-4.2-1-2-4-3.2-7.4-1.8ZM58.5 62.2l-.3.3c0 .3-.2.5-.3.7-.4.5-.7 1-1.2 1.3a6.1 6.1 0 0 1-4 2c-1 0-2-.3-2.7-.9a16.8 16.8 0 0 0 9.8-6l-1.3 2.6Zm4.3-10.7c0-1 .6-2 1-3 .2-.1.2-.3.3-.4A55 55 0 0 1 71 37.8a81.5 81.5 0 0 0-8.1 13.7ZM23.5 89.7c.8 3 1.7 6.5 2.6 10.6.3 1.5.3 2.5 0 3-.8 1.2-3 1.6-6.8 2.3l-9 1.8c-1 .3-1.7.2-2.3-.1-1.7-1.2-2.5-6-4.4-16.6L2.4 84c-.3-1.9-.2-3.1.4-4 1.2-1.8 4.6-2.4 10.3-3.5l4.2-.7c1.3-.3 2.4-.4 3.4-.3l1 .2c-1 3 .1 7.3 1.8 13.9Z" mask="url(#a)"/>
</svg>
