<svg xmlns="http://www.w3.org/2000/svg" width="150" height="150" fill="none">
  <path fill="#FFE5CC" fill-rule="evenodd" d="M134.3 115.7c-8.2 17.5-25.1 10.3-33.5 15.3-8.4 5-22.5 27.7-41.7 6.7-19.2-21-4.5-29-35.3-38.3C-7 90.2-6.4 51.7 18.5 34.2c25-17.6 34.7 5.4 45.4-20 10.6-25.4 43.3-4.2 47.7 17.6 4.4 22 26.6 12.2 32 20.7 5.3 8.5 10 26.4 1.5 35.4s-7.7 21.2-10.8 27.8Z" clip-rule="evenodd"/>
  <path fill="#FFA856" d="M122 119v.5l-.3 12.9c0 .3-.3.5-.5.5h-.3a.5.5 0 0 1-.5-.5l-.4-13v-.4h2Zm23.3 0v.5l-.4 12.9c0 .3-.2.5-.5.5h-.2a.5.5 0 0 1-.6-.5l-.4-13v-.4h2.1Z"/>
  <path fill="#999" d="M145.3 104.2H120v7.4h25.3v-7.4Z"/>
  <path fill="#CC6300" d="M120 119h2v.5h-2v-.5Zm25.3 0v.5h-2v-.5h2Z"/>
  <path fill="#999" d="M145.3 111.6H120v7.4h25.3v-7.4Z"/>
  <path fill="#666" d="M136.3 107.2H129v1.4h7.2v-1.4Zm0 7.4H129v1.4h7.2v-1.4Z"/>
  <path fill="#994A00" d="M145.3 111.5H120v.3h25.3v-.3Z"/>
  <path fill="#86BEA7" d="M132.3 80.7a14 14 0 0 0-1.9-6.9 9.8 9.8 0 0 0-8-4.2c.2 1.9.4 3.7 1.1 5.5a6.5 6.5 0 0 0 4.2 3.7c1.2.3 2.6.3 3.6 1 .4.2.7.5 1 .9Z"/>
  <path fill="#258A62" d="M132.4 88.4c-.2-1.2-.6-2.5-1-3.6-.6-1-1.2-2-2.2-2.5-.8-.5-1.8-.6-2.8-.5-.9.2-1.8.5-2.6.9 3.5.3 7 3.7 8.6 5.7Z"/>
  <path fill="#005231" d="M122.6 83.4c3.6.6 7 2.4 9.8 5a22 22 0 0 0-3.3-4.1 7 7 0 0 0-1.6-1.3c-.8-.4-1.7-.6-2.6-.5-.8 0-1.7.3-2.3.9Zm9.8-5.5c0-1.1 0-2.3.3-3.4.2-1.1.7-2.2 1.6-3 1.3-1.1 3-1.7 4.8-2 1.7-.3 3.5-.5 5.1-1-.7 1.5-1.4 3-2.4 4.4-1 1.4-2.3 2.6-4 3.5-1.7.8-3.8 1.1-5.4 1.5Z"/>
  <path fill="#994A00" d="M132.8 94h-.8v-8.2l.1-10h.7v18.3Z"/>
  <path fill="#86BEA7" d="M140.8 63.6a5.4 5.4 0 0 0-4.7-.1 6.2 6.2 0 0 0-3 3.2 10 10 0 0 0-.8 4l.1 2.5c0 .5.6 0 1-1a22 22 0 0 1 1.7-3.8c1.2-2 3.1-4 5.7-4.8Z"/>
  <path fill="#005231" d="M133 73.5c.6-1.7 1.3-3.3 2.2-4.8 1.3-2 3.2-4 5.6-5.1a4 4 0 0 0-3 .7 8 8 0 0 0-2.3 2c-1.5 2-2.4 4.2-2.9 7.1 0 .6.2.7.4.1Z"/>
  <path fill="#86BEA7" d="M123.5 66c1.5 0 3.1 0 4.6.5a7 7 0 0 1 3.6 1.8c.7.8 1 2 1 3-.1 1-.4 2-.8 3-.9-3.8-5.6-7-8.4-8.4Z"/>
  <path fill="#005231" d="M131.2 75.7a20.6 20.6 0 0 0-7.7-9.8c2 .8 3.9 1.7 5.6 2.8a8 8 0 0 1 1.9 1.6 4 4 0 0 1 1 2.7c0 1 0 2-.8 2.7Z"/>
  <path fill="#86BEA7" d="M143.3 76.5a17 17 0 0 0-4.6-.6c-1.4 0-2.9.1-4 .9-1 .6-1.6 1.5-2 2.5-.3 1-.3 2-.3 3.1 2.1-3.4 7.8-5.3 11-5.9Z"/>
  <path fill="#005231" d="M132.5 84c2.7-3.4 6.5-6 10.8-7.5-2.1.2-4.3.7-6.3 1.3a9 9 0 0 0-2.4 1 5 5 0 0 0-1.9 2.4c-.4.9-.5 1.8-.2 2.7Z"/>
  <path fill="#994A00" d="M132.4 86.6h-.4a6 6 0 0 0-1.6-4.2l.2-.1a6 6 0 0 1 1.8 4.3Z"/>
  <path fill="#3D9773" d="M125.4 74.6c-.1 1.2-.3 2.4 0 3.7 0 1.2.6 2.4 1.5 3.4a8.1 8.1 0 0 0 4.6 2c.7-1.8 0-3.9-1.2-5.4-1.3-1.6-3-2.8-4.9-3.7Z"/>
  <path fill="#86BEA7" d="M131.2 83.6h.3v-.2a23.3 23.3 0 0 1-4.6-6.2c-.2-.3-.4-.3-.1.1 1.1 2.3 2.5 4.4 4.4 6.3Z"/>
  <path fill="#3D9773" d="M131.8 76.4a2.9 2.9 0 0 1-1.3-2.7 5 5 0 0 1 1.1-2.6c.6-.8 1.4-1.4 2.2-1.8.8-.5 4-2.2 4.3-2 .3.2-.2 1.4-.2 1.8a8 8 0 0 1-.5 3.7 6.8 6.8 0 0 1-2.4 3c-1 .8-2.1 1.2-3.2.6Z"/>
  <path fill="#86BEA7" d="M132.6 76.7c.3-2.7 1.6-5 3.5-7.2.4-.5 0-.2 0-.2-2.1 2-3.5 4.6-3.8 7.3h.3Z"/>
  <path fill="#994A00" d="m132.6 89.8-.5.1a6.4 6.4 0 0 1 2.7-4h.2a6 6 0 0 0-2.4 3.9Z"/>
  <path fill="#3D9773" d="M143 80.7c-1.5.3-3.1 0-4.7.2s-3.1 1-4.1 2.2c-1 1.2-1.4 2.9-.7 4.2 1.3.5 2.8.2 4-.5a10 10 0 0 0 3-3c.9-1 1.6-2.2 2.6-3.1Z"/>
  <path fill="#86BEA7" d="M133.5 87v.3h.2l.1-.1a14 14 0 0 1 5.7-4.7c.3-.2.4-.4-.2-.2-2.4 1-4.4 2.8-5.8 4.7Z"/>
  <path fill="#B3B3B3" d="M133 92.4h-7l.7 6.5c.2 1.2.4 3.3.7 4 .4 1.3 1.2 1.3 1.2 1.3h7.7s.8 0 1.2-1.3c.3-.7.5-2.8.7-4l.7-6.5h-6Z"/>
  <path fill="#E6E6E6" d="M133 92.4h-7l.7 6.5.3 2.3c0 .5 6.8 2.9 8.6-2 .6-1.7 1-6.8 1-6.8H133Z"/>
  <path fill="#fff" d="M128.6 104.2h1l-.3-2.4-.4-3.2-.7-6.2h-.8l1.2 11.8Zm7.7-6.4-1.1 6.4h1l.4-2.1.6-4 .6-4 .2-1.7h-.9a127 127 0 0 1-.8 5.4Zm-3.1 6.4h1c.3-4 .1-7.9.5-11.8h-.9l-.3 5.5-.3 6.3Zm-2.4-6.4c0 2.1 0 4.3.2 6.4h1l-.2-6.2-.2-3.6v-2h-1l.1 1.6.1 3.8Z" opacity=".5"/>
  <path fill="#0C528D" fill-rule="evenodd" d="M66.6 79h18.8v20H66.6c-.6 0-1.1-.3-1.5-.9a4 4 0 0 1-.8-2.6v-13c0-2 1-3.5 2.3-3.5Z" clip-rule="evenodd"/>
  <path fill="#0C528D" fill-rule="evenodd" d="M104 82.5v13c0 .5 0 .9-.2 1.3-.3 1.3-1.1 2.3-2.1 2.3H83.5V79h18.2c1.3 0 2.3 1.6 2.3 3.5Z" clip-rule="evenodd"/>
  <path fill="#106EBC" fill-rule="evenodd" d="M66.6 79s-2.8 0-14.2 7.7c0 0-1.6 1.4-1.4 3.4.2 2 6.3 18 6.3 18h9.3L65.1 96s-.4-16 1.5-16.9Zm35.1 0s2.9 0 14.3 7.7c0 0 1.5 1.4 1.3 3.4-.2 2-6.3 18-6.3 18h-9.3l1.6-12.2s.3-16-1.6-16.9Z" clip-rule="evenodd"/>
  <path fill="#106EBC" fill-rule="evenodd" d="M66.6 95.3h18.8V108H66.3c-1-.4-1.2-2.3-1.2-3.5V98c0-1.2.4-2.8 1.5-2.8Z" clip-rule="evenodd"/>
  <path fill="#106EBC" fill-rule="evenodd" d="M103.5 105.8c0 .5 0 1-.2 1.3-.3.6-.8 1-1.6 1H83.5V95.3h17.3c1 0 2.7 0 2.7 1.7v8.8Z" clip-rule="evenodd"/>
  <path fill="#0C528D" fill-rule="evenodd" d="M66.6 108.1h18.8v13.1H57.3c-.6 0-1.1-1-1.1-2.2L51 90s0-2.4 1.4-3.3c1.3-1 4.2-.3 5.1 3 1 3 5.7 17.3 8.8 18.4h.3Z" clip-rule="evenodd"/>
  <path fill="#0C528D" fill-rule="evenodd" d="m117.3 90-5.1 29c0 1.2-.5 2.2-1.2 2.2H83.5v-13h18.2c.5 0 1-.5 1.6-1.1 3-3.5 6.7-14.8 7.5-17.5 1-3.2 3.8-3.8 5.2-3 1.3 1 1.3 3.5 1.3 3.5Z" clip-rule="evenodd"/>
  <path fill="#994A00" fill-rule="evenodd" d="M114.5 133.2h-2.3l-8.2-12h5.9l.1.4.4 1 4 10.6Zm-49.5-12-6.2 9-2 3h-2.2l4-10.6.3-.8.2-.6h6Z" clip-rule="evenodd"/>
  <path fill="#fff" fill-rule="evenodd" d="m59.3 125-1.6 4-1.6 3.5-.4.7h-1.1l4-10.6c.3 0 .6.2.9.6.4.6 0 1.3-.2 1.9Zm55.2 8.2h-1c0-.3-.2-.6-.3-.8l-1.6-3.8c-.6-1.4-2-2.7-2.2-4.3-.1-.6 0-1.1.5-1.5l.5-.2 4 10.6Z" clip-rule="evenodd" opacity=".2"/>
  <path fill="#1A1A1A" fill-rule="evenodd" d="M61 125.6c.2-.9.3-2.2-.3-3-.3-.3-1-.7-1.7-.8l.2-.6H65l-6.2 9c.3-1.5 1.8-3.1 2-4.6Zm51.7 7.6h-.5l-8.2-12h6v.4a2 2 0 0 0-.5.2c-.7.2-1.1.7-1.3 1.4-.4 1.4.3 3.1 1 4.4l2.2 3.4c.2.5.9 1.3 1.3 2.2Z" clip-rule="evenodd" opacity=".2"/>
  <path fill="#1A1A1A" fill-rule="evenodd" d="M63.3 90.2c.8 2.5 0 7-.2 9.5-.4 3.7.6 5 4.3 3.8 2.8-.9 6-2 8.9-2.5 3.3-.5 7.2.4 10.5.6 2.8.1 6.7 1.7 9-.6 2.2-2-1.4-4.5-2.6-6.6-1.5-2.6-1.5-5-2.5-7.6-1.2-3-5-2.6-7.8-2.3-3.9.3-7.5.4-11.3-.4-1.8-.4-3.6-1.2-5.6-.6-2.1.7-1.8 2.3-2.3 4l-.4 2.7Z" clip-rule="evenodd" opacity=".1"/>
  <path fill="#FF9633" fill-rule="evenodd" d="M90.5 90c.6 4.4.4 8.6.4 8.6-3 1-8 .3-11 .8s-14.2 3-14.2 3a43.7 43.7 0 0 0-3.5-15.6c3.6.4 15.9-.7 15.9-.7 8.6-3.2 10.5-3.1 10.5-3.1 1 2 1.5 4.5 1.9 7Z" clip-rule="evenodd"/>
  <path fill="#fff" fill-rule="evenodd" d="M67 92c.5 1.2.1 3.8 2 3 1.2-.6 1.7-2.2 3-2.9 1.3-.8 3-.8 4.4-.9 2.6 0 7-.6 8.8 1.6.6.8 1 3.2 2.5 2 1-.9 1-3 1.1-4 0-1.3.2-3.4-1.1-4-1.3-.7-3.3 0-4.5.3-3.2.6-6.6 1.5-10 1.8a14 14 0 0 1-4.2 0c-.8-.2-3-1-3.4-.1-.5 1 1.2 2.3 1.5 3.2Z" clip-rule="evenodd" opacity=".3"/>
  <path fill="#258A62" fill-rule="evenodd" d="M90.5 90c.6 4.4.4 8.6.4 8.6-3 1-8 .3-11 .8-3 .4-14.2 2.9-14.2 2.9.4-2.7-1.5-9.5-2.7-13.1l.9.9c1.4 1.6 1.5 4 2.4 5.9.5 1.3.8 2.6 2.1 3.3 1.3.8 3.3.2 4.7-.2l4.8-1.4c1.6-.5 3.1-.3 4.7-.1 3 .3 6.8.5 7.7-3 .4-1.5.2-3 .2-4.6Z" clip-rule="evenodd" opacity=".2"/>
  <path fill="#fff" fill-rule="evenodd" d="M81.7 103.3c-2.8-.3-6.8.2-9.9.2-2.4 0-6 .2-6.6 3.3-.4 2.6.4 6.4 2.7 7.5 2.8 1.4 6.4 1.6 9.4 1.8 3.3.1 6.4-.2 9.8-.2 3.5 0 6.4 0 9.7-.6 3.3-.7 5-1.9 5.7-5.2.8-3.8-.5-5.1-4-6-3-.8-5-.8-8-.4-3 .5-5.6-.8-8.2-.7 0 .3 0 .4.2.7l-.8-.4Z" clip-rule="evenodd" opacity=".2"/>
  <path fill="#1A174F" d="M41.1 128.8c-.1-1.6.2-3.3.5-3.4.5 2 3.8 1.5 4.4 5.2v.5c-.2.9-1.2 1.9-2.3 1.9-1.1 0-2.4-1-2.7-2v-.6c0-.5.2-1 .1-1.6Z"/>
  <path fill="#FFCA99" d="M43 88c0 .3.8 8.4.7 12.1-.2 5.5-.5 13-.9 18.4-.2 3.4-1.1 6.4-1.2 6.8-.2.8-.2 2.4-.2 3.3v.5c0 .8.5 1 1.4 1h1.9c.5 0 1.2-.2.9-.9-.5-1.1-1.2-2.6-1-3.4.4-1.7 5.5-16.5 5.7-27.4 0-2.8 1.8-10 2-10.5H43Z"/>
  <path fill="#1A174F" d="M29.7 129.6c.7-1.5 1-3.3.8-3.5-1.2 1.9-4.4.1-6.3 3.5l-.2.6c0 1 .5 2.2 1.6 2.7 1.2.4 2.8-.2 3.4-1l.3-.7.4-1.5Z"/>
  <path fill="#FFCA99" d="M41 88c-.5 9.2-1 10.5-1.8 13-2.7 8.6-8.5 24-8.7 25 0 .8-.6 2.5-1 3.3l-.2.6c-.3.7-.9.8-1.7.5l-2-.8c-.4-.2-1-.6-.5-1.2 1-1 2.3-2 2.6-2.8 1-3.4.6-18.6 5.4-27.1.9-1.6-.7-6.7-1.6-10.8l9.5.2Z"/>
  <path fill="#1A174F" d="M32.2 66.3a10.8 10.8 0 0 1 2.1-4c0-.1.2-.1.2 0v.1a10.3 10.3 0 0 0-2.4 6.9c0 .2-.2.2-.2 0 0-1 0-2 .3-3Z"/>
  <path fill="#FFCA99" d="M30.2 74.8s-.2 3 0 4c-.5 2.3 0 3.3.3 4.3.4 1 1 1.5 1.6 2.1.6.6.8.7.8.2 0-.4-.7-2-.8-2.4v-2s.4.5.5 1.4c.2.7.5.8.6.7v-1c0-.6 0-1.4-.3-2-.1-.5-.6-1.4-.8-1.6.1-2.2.8-4.7.8-4.7l-1.8.6-.9.4Z"/>
  <path fill="#127A87" d="M50.7 45c1 .2 2 .9 2.6 1.6 1.5 1.6.7 3.6 2.4 8 2.1 5.6.2 8.2-.7 8.7-.9.5-1.4.6-3.4-.3.1 2.6.8 4.5 1 7.4C52.9 71 55 95 55 96c0 0-5.7.9-11.3.2-7.5-.9-13.5-.2-13.5-.2l2.5-25c.3-4 1.2-7.2 1.2-7.2-.4.8-1.2 10-2 9.7-3.4 4.7-3-13-2.3-16 .6-2.3-.1-6.2 2.3-9.8 1-1.5 1.7-2.5 2.8-2.7 3-.7 13-.6 16 0Z"/>
  <path fill="#CC6300" d="M49.8 36.5c-.2 2.5-.7 4.6-2.1 8.7-.5 1.1-3-.2-3.4-1.3-1.3-2.5 5.6-9 5.5-7.4Z"/>
  <path fill="#FFCA99" d="M38.3 47.1a18.5 18.5 0 0 0 7 1.2c1 0 2.2-.2 3.3-.7.6-.2 1.1-.6 1.5-1.2.3-.4.5-.9.6-1.4-1.4-.6-3.3-1-4.3-1.3-.5-.1-.9-.6-.9-1.1v-1c1.3 0 2.2-1.1 3-2.4.7-1 1.4-2.2 1.5-3.6v-.2c.2-3.5-1.3-6.2-4.4-6.4-2.8-.2-5.2 2.4-5.8 5.8-.2 1.6.6 4.1.9 4.4v3.3c0 .5-.5.8-1 1.1-.6.4-2.2.7-3 .9H36a6 6 0 0 0-1.3.5s2.4 1.7 3.6 2.1Z"/>
  <path fill="#F66" d="M45.5 42v-.4c-1.8.3-3.6-2.9-3.6-2.9.7 2 1.6 3.6 3.6 3.3Z" opacity=".4"/>
  <path fill="#CC6300" d="m35 45 .1-.2c.2-2 1.8-11.5 5-15a6.9 6.9 0 0 1 9.2-.3c1 .5 1.4 1 1.4 3 0 .5-.1 1.7-.7 3.1l-.2-2.6c0-.7-.4-1.2-.8-1.7-.7.7-1.8.8-2.7 1-1 .5-1.8 1.4-2.2 2.4-.5 1.2-.6 2.6-.6 3.9l-.1 2-.2 2a13.6 13.6 0 0 0 .4 4.6l-1 .2-.5.1-.5-.1h-2.7a5.8 5.8 0 0 1-2.4-.4c-.4-.2-.7-.3-1.2-.3l-.3-.1-.1-.4c0-.4 0-.9.2-1.3Z"/>
  <path fill="#1A174F" d="m54.4 48.4 3.1.6c.2 0 .2.2.2.3L56.3 56c0 .1-.1.2-.3.2l-3.2-.7a.2.2 0 0 1-.1-.2l1.4-6.9s.1-.2.3-.1Z"/>
  <path fill="#E8F1FC" d="M56.8 49.6c.2 0 .3.2.3.3l-.2.8a.3.3 0 0 1-.6-.1l.1-.8c0-.2.3-.3.4-.2Z" opacity=".2"/>
  <path fill="#E8F1FC" d="M56.8 50v-.2h-.1v.2h.1Zm-.1.3s.1 0 0-.1c-.1 0-.1 0 0 .1Zm0 .4v-.2c-.1 0-.2 0-.2.2h.2Z"/>
  <path fill="#FFCA99" d="M55.2 59.7s0-.9.3-1.5l.7-.6s.6-.2.8-.6c.2-.4.8-.3 1-.7.3-.5.3-1.2.2-1.3-.8-1.6-3-2.5-3.4-2.2v.6s-1-.4-1.3-.1c-.1.1-.1.4.2.7 0 0-.7-.3-.8 0-.1 0-.2.4 0 .6 0 0-.5 0-.7.2-.2.2.2.8.2.8.2.4.5.6.5.6l-.2.9c-.2.4 0 .5-.1 1 0 1-.2 1.4-.2 1.4.3.8 2.4 1 2.8.2Z"/>
  <path fill="#106EBC" d="M45.6 62.4Zm-8.1-.1c-.4-1.4-1-2.8-.8-4.3 0 0 .1 0 0 0a10 10 0 0 0 .9 4.3Zm3.5.1V61h.1v1.4Zm-4.1-.2a4.8 4.8 0 0 1-1.5-2.5h.1c.2 1 .7 1.8 1.4 2.5Zm12.9-.3c.3-.4.5-1 .6-1.5 0 .6-.2 1-.5 1.5 0 0-.1 0 0 0Zm-4.5.5Zm7-2.9c-.4-.4-.8-.7-1-1.3h.1c.2.5.6.9 1 1.3Zm3 .2c.4-.2.7-.6.7-1 0-.1 0-.1 0 0 0 .4-.2.9-.7 1Z"/>
  <path fill="#1A174F" d="M36 70.2a63.6 63.6 0 0 0 12.7-19 21.5 21.5 0 0 0 1.7-6.3h.3c-.2 2-.7 3.8-1.5 5.7a57.3 57.3 0 0 1-8.7 14.9 61.8 61.8 0 0 1-4.2 4.8c-.1.2-.3 0-.2-.1Z"/>
  <path fill="#1A174F" d="m30.6 74.7 6.5.2c.3 0 .6-.2.7-.5l.9-5c0-.4-.3-.8-.7-.8h-6.5c-.3 0-.5.2-.6.5L30 74c0 .4.3.8.7.8Z"/>
  <path fill="#1A174F" d="M38 68.7c.2.3 0 .6 0 .9l-.2 1a109.3 109.3 0 0 0 .2-1.9Z"/>
  <path fill="#1A174F" d="M38 69.5c-.6 1-1.6 1.6-2.6 2-.6.2-1.2.4-1.8.4a3.7 3.7 0 0 1-2.4-1c-.3-.3-.4-.6-.4-1v.1c0 .3.2.6.4.8l.7.5c.5.3 1 .5 1.6.5a6.3 6.3 0 0 0 3.2-1c.5-.4 1-.8 1.3-1.3Z"/>
  <path fill="#E8F1FC" d="m33.4 71.2.2.2c.2 0 .3 0 .3-.2a.2.2 0 1 0-.5 0Z"/>
  <path fill="#106EBC" d="M30.1 59.8c0 .2.2.4.4.4.1 0 .3-.2.3-.4s-.2-.3-.3-.3c-.2 0-.4.1-.4.3Zm25.9-.2a.3.3 0 1 0 .6 0 .3.3 0 0 0-.7 0Zm.5.9c-1.2 1-3.1 1.4-4.5.4-.3-.2-.6-.6-.8-1h.1c.3.7 1 1.2 1.6 1.4a4 4 0 0 0 2.4-.2l1.2-.6Zm-22.2.3c-.6.4-1.4.4-2.1.4H31a2 2 0 0 1-1-.4l1 .3h1.2c.7 0 1.4 0 2-.3 0 0 .1 0 0 0Zm0 1.4c-.6.4-1.4.4-2.1.3H31a2 2 0 0 1-1-.3V62l1 .3h1.2c.7.1 1.4.1 2-.3 0 0 .1 0 0 0Zm20.5 32.6c-3.2.4-6.3.6-9.6.3-3-.2-6.2-.7-9.3-.8a26.7 26.7 0 0 0-5.5.3c6.3-1.1 12.6.7 18.9.6a55.6 55.6 0 0 0 5.5-.4Zm-16.1-1.6ZM43.6 73Z"/>
  <path fill="#106EBC" d="M50.5 95c0-1.8.4-3.5.6-5.3 0 1.8-.6 3.5-.5 5.3h-.1Z"/>
</svg>
