<svg xmlns="http://www.w3.org/2000/svg" width="150" height="150" fill="none">
  <path fill="#FFE5CC" fill-rule="evenodd" d="M14.4 112.9c7.6 15.8 23.2 9.2 31 13.7 7.8 4.5 21 25 38.6 6 17.7-19.1 4-26.3 32.4-34.7 28.5-8.4 27.8-43.1 4.7-58.9-23-15.7-32 5-42-17.9-9.8-22.9-40-3.7-44 16C31.1 57 10.6 48.4 5.7 56c-5 7.6-9.2 23.7-1.4 31.8 8 8.2 7.3 19.2 10.1 25Z" clip-rule="evenodd"/>
  <path fill="#994A00" fill-rule="evenodd" d="m68.5 82.3-5-1.5-.7 2.3 4.2 1.3 1.5-2.1Z" clip-rule="evenodd"/>
  <path fill="#C40000" d="m55.6 76.6-1.7 4 10 3.9 1.6-4-10-3.9Z"/>
  <path fill="#F66" fill-rule="evenodd" d="M54.9 66.1s1.7 0 3.1 3.7l1.6 2c.6.7.9 1.7.6 2.7-.3 1.5-1.5 3.7-1.5 3.8l.3 6-9.2-.4s-4.7-15.2 1.6-17.5l3.5-.3Z" clip-rule="evenodd"/>
  <path fill="#994A00" fill-rule="evenodd" d="M68.2 80.5c1.3 0 2.4.8 2.5 2 .1 1.3-.8 2.3-2 2.5-1.3 0-2.4-.8-2.6-2 0-1.3.8-2.3 2.1-2.5Z" clip-rule="evenodd"/>
  <path fill="#999" d="M120.7 97h-10.3v1h10.3v-1Z"/>
  <path fill="#E6E6E6" fill-rule="evenodd" d="M120 98c-.1-.7-.8-1.3-1.5-1.3h-3c-.7 0-1.4.6-1.5 1.3h6Z" clip-rule="evenodd"/>
  <path fill="#333" d="M135.2 95.7h-8V98h8v-2.3Z"/>
  <path fill="#E6E6E6" fill-rule="evenodd" d="M126.7 98h-5.4c5.2-1.5 3.6-5.7 3.5-5.7h1.9V98Z" clip-rule="evenodd"/>
  <path fill="#0C515A" d="M126.7 60h-2.1v32.6h2V60Zm23.1 38H99.1v2h50.7v-2Z"/>
  <path fill="gray" fill-rule="evenodd" d="M126.7 92.6s3.4-4 3.4-16.3c0-9.3-3.4-16.3-3.4-16.3v32.6Z" clip-rule="evenodd"/>
  <path fill="#62AB8D" fill-rule="evenodd" d="M11.2 86.7c1.8-1 3.2-.9 3.2-.9s-.9 1.4-2.4 2.2c-1.4.8-3.1.9-3.1.8 0 0 .9-1.3 2.3-2.1Zm1.9 3.5c1.5.6 2 1.7 2 1.7s-1.5.2-2.7-.3a3.9 3.9 0 0 1-1.9-1.6s1.5-.3 2.6.2ZM12.4 76c2 1.5 2 3.1 2 3.1s-2-.2-3.6-1.4c-1.5-1.2-2-3-2-3a6 6 0 0 1 3.6 1.3Zm1.9-4.2c.7 1.5 1.8 1.8 1.9 1.8 0 0 .1-1.4-.5-2.5a4 4 0 0 0-1.7-1.8s-.2 1.4.3 2.5Zm7 12.6c-.4 1.5.2 2.5.2 2.5s1-1 1.4-2.2c.3-1.2-.2-2.4-.2-2.4s-1 1-1.4 2.1Z" clip-rule="evenodd"/>
  <path fill="gray" fill-rule="evenodd" d="M88 131.8h-.3a.9.9 0 0 1-.7-1.1l4.8-16.5a1 1 0 0 1 1.1-.6c.5.2.8.7.7 1.1l-4.8 16.5a1 1 0 0 1-.9.6Z" clip-rule="evenodd"/>
  <path fill="#B3B3B3" fill-rule="evenodd" d="M83.3 135.3h-.2a.9.9 0 0 1-.7-1.1l5.8-20a1 1 0 0 1 1.1-.6c.5.2.8.7.7 1.1l-5.8 20a1 1 0 0 1-.9.6Zm33.1 0h.2c.5-.2.8-.7.7-1.1l-5.8-20a1 1 0 0 0-1.1-.6c-.5.2-.8.7-.7 1.1l5.8 20c.1.3.5.6.9.6Z" clip-rule="evenodd"/>
  <path fill="gray" fill-rule="evenodd" d="M111.8 131.8h.2c.5-.1.8-.6.7-1.1l-4.8-16.5a1 1 0 0 0-1.1-.6c-.5.2-.8.7-.7 1.1l4.8 16.5c.1.4.5.6.9.6Z" clip-rule="evenodd"/>
  <path fill="#FF9633" fill-rule="evenodd" d="M96.8 109.2c-6.4-1.8-8-7.2-13-22.8-.6-2-3.1-3.5-2.8 1 .3 5 .9 11.4 1.8 16.5.8 3.8.6 11.5 10.6 11.5h17.5c1 0 2.4-.7 2.4-1.7 0-.8-1-1.7-3.5-2.5-7-2-8.2-.7-13-2Z" clip-rule="evenodd"/>
  <path fill="#62AB8D" fill-rule="evenodd" d="M20 92.2c-1.1 1.2-1 2.4-1 2.4a5 5 0 0 0 2.3-1.5c.8-1 .9-2.2.8-2.3 0 0-1.4.5-2.2 1.4Zm2.2-20.4c-1.6 0-2.4 1-2.4 1s1.2.6 2.6.6a4 4 0 0 0 2.3-.8s-1.2-.8-2.5-.8Zm1.8 8c-2-.3-3.2.3-3.2.3s1.3 1 3 1.2c1.7.3 3.3-.3 3.3-.3s-1.4-1-3-1.2Zm-10.2 25.4c1.3 1.6 1.4 3 1.3 3a7 7 0 0 1-2.6-2 6.2 6.2 0 0 1-1.3-2.8s1.6.6 2.6 1.8Zm8.9 7.2c-2 1-2.5 2.1-2.5 2.1s1.6 0 3.2-.6c1.5-.7 2.4-2 2.4-2s-1.7-.1-3.1.5Zm1.1-12.9c-2-.3-3.3.3-3.3.4a6.7 6.7 0 0 0 6.3.8s-1.4-1-3-1.2ZM18.7 85c.5 2 1.6 2.8 1.6 2.8s.4-1.5 0-3.2a6.1 6.1 0 0 0-1.6-2.7s-.4 1.6 0 3.2Zm-9.6 9.3c2.1-.1 3.2-1 3.2-1a6.5 6.5 0 0 0-6.3.5s1.5.6 3.1.5Zm5.2 4.2c.5 2 1.6 2.8 1.7 2.8 0 0 .3-1.6-.1-3.2a6.1 6.1 0 0 0-1.6-2.7s-.4 1.6 0 3.1Zm5.2 7c-.8 1.9-.4 3.2-.4 3.2s1.3-1 2-2.6a6 6 0 0 0 .3-3.1s-1.3 1-1.9 2.5Zm3-36.5c-1.8 1-2.3 2.2-2.3 2.2s1.6 0 3.1-.9a6.2 6.2 0 0 0 2.3-2.2s-1.7 0-3.1.8Zm-6.4-4.5a14 14 0 0 0 1.3 5.7s1.2-3.2 1.2-5.7-1.2-5.8-1.2-5.8-1.3 3.4-1.3 5.8Zm7.4 29.9a13.8 13.8 0 0 0-4.3 3.6s3.2-.5 5.4-1.6c2.1-1.2 4.3-3.6 4.3-3.7 0 0-3.4.6-5.4 1.7Zm1.9-8.9a14 14 0 0 0-4.3 3.7s3.3-.5 5.5-1.7c2-1.1 4.3-3.6 4.2-3.6 0 0-3.3.5-5.4 1.6Zm-3.5-10.6a9.7 9.7 0 0 0-2.5 3s2.2-.7 3.5-1.8c1.3-1 2.6-3 2.5-3 0 0-2.2.8-3.5 1.8Zm-8.2-2.1a5.3 5.3 0 0 1 2.2 2.5 7 7 0 0 1-3.1-1.2 6.2 6.2 0 0 1-2-2.3s1.6.1 3 1Zm-1.8 35.6c2 2.2 2.7 4.8 2.7 4.9 0 0-2.9-1.6-4.5-3.4a16.7 16.7 0 0 1-2.7-4.9s3 1.7 4.5 3.4ZM11 98c2.3 2 3.4 4.4 3.4 4.4s-3.1-1.1-5-2.7A17.2 17.2 0 0 1 6 95.3s3.2 1.2 5 2.7Zm-.4-18.6C13.2 80.8 15 83 15 83c0 .1-3.3-.3-5.5-1.4C7.4 80.4 5 78 5 78s3.4.4 5.5 1.4Z" clip-rule="evenodd"/>
  <path fill="#0D7D50" fill-rule="evenodd" d="m17.3 65.2.7 56.3h-1.3l.6-56.3Z" clip-rule="evenodd"/>
  <path fill="#0D7D50" fill-rule="evenodd" d="m17.4 90.9 8.2-4-8 4.4-.2-.4Zm-.2-6.5L11 80.9l6.6 3-.3.5Zm.1-12 6-2.7-5.8 3.1-.3-.4Zm.4 39 2.8-5.8-2.4 6-.4-.2Zm-1.1-7.1L15.2 98l1.8 6.2h-.4Zm.8-11H8.8l8.6-.4v.4Z" clip-rule="evenodd"/>
  <path fill="#0D7D50" fill-rule="evenodd" d="m20.5 89.4-1-4.9 1.5 4.8h-.5Zm-3.1 9.8 6.6 1.3-6.6-.9v-.4Zm-.2 16.4 6.2-2.4-6 2.9-.2-.5Zm-.2-4.9-4.1-5 4.4 4.7-.3.3Zm.7-31.2 6.5 1.2-6.6-.8.1-.4Zm-.4-6.9 5.2.2-5.2.2v-.4Zm0 23.7 3.6-3.7-3.3 4-.3-.3Z" clip-rule="evenodd"/>
  <path fill="#0D7D50" fill-rule="evenodd" d="m20.7 89.2 1.6-4.8-1.2 4.9-.4-.1ZM17 75.8l-2-4.6 2.4 4.5-.4.1Zm.1 5.8-6-4.8 6.4 4.3-.4.5Zm.1 11.4-4.7-2 4.9 1.6-.2.4Zm0-8.5-5.8 3.1 5.6-3.5.2.4Z" clip-rule="evenodd"/>
  <path fill="#4D4D4D" d="M109.9 121.8h-6.7v1.6h6.7v-1.6Z"/>
  <path fill="#4D4D4D" fill-rule="evenodd" d="m102 134.1 4.6-29.7 4.5 29.7h1.5l-5.3-34.2h-1.5l-5.2 34.2h1.5Z" clip-rule="evenodd"/>
  <path fill="#4D4D4D" d="M146.3 121.8h-6.7v1.6h6.7v-1.6Z"/>
  <path fill="#4D4D4D" fill-rule="evenodd" d="m138.5 134.1 4.5-29.7 4.5 29.7h1.5l-5.3-34.2h-1.5l-5.2 34.2h1.5Z" clip-rule="evenodd"/>
  <path fill="#62AB8D" fill-rule="evenodd" d="M25.6 107.5a13.9 13.9 0 0 0-4.7 3.2s3.3-.2 5.6-1.2c2.2-.9 4.7-3 4.7-3.1 0 0-3.5.2-5.6 1Z" clip-rule="evenodd"/>
  <path fill="#0D7D50" fill-rule="evenodd" d="m17.1 105-5.8-5.2 6.1 5-.3.3Zm.2 6.6 8.8-2.8-8.7 3.3-.1-.5ZM17.2 99l4.7-2.7-4.4 3.1-.3-.4Zm-.5 16.8-4.4-4.8 4.7 4.5-.3.3Zm.5-36.1 4-3.6-3.7 4-.3-.4Zm.1-3.4L13.6 74l3.9 2-.2.3Z" clip-rule="evenodd"/>
  <path fill="#CCC" fill-rule="evenodd" d="M12 134.5h11a8 8 0 0 0 3-6.4c0-3-1.5-7.1-4-9.7h-9c-2.4 2.6-4 6.7-4 9.7a8 8 0 0 0 3.1 6.4Z" clip-rule="evenodd"/>
  <path fill="#994A00" fill-rule="evenodd" d="M38.2 93.1c-.3 1.2-1.5 2-2.7 1.7-1.3-.3-2-1.4-1.8-2.6.3-1.2 1.5-2 2.8-1.7 1.2.3 2 1.4 1.7 2.6Z" clip-rule="evenodd"/>
  <path fill="#994A00" fill-rule="evenodd" d="m37.6 92.8 3-4.2-2-1.3-2.6 3.5 1.6 2Zm4.2 32.2-2.9 4.2-2.8-1.3 3.2-4.7 2.5 1.8Z" clip-rule="evenodd"/>
  <path fill="#0C515A" fill-rule="evenodd" d="m50.6 89-4.8 20-7.8 14.7 3.7 2.7 10.5-15.6 3.6-7.7-5.2-14Z" clip-rule="evenodd"/>
  <path fill="#994A00" fill-rule="evenodd" d="m61 124.7.7 8-3.1.6-.8-8.6h3.1Z" clip-rule="evenodd"/>
  <path fill="#0C515A" fill-rule="evenodd" d="m59 84 3.2 45.1h-4.7l-6.7-34.7s-3-5-1-10.5H59Z" clip-rule="evenodd"/>
  <path fill="#F66" fill-rule="evenodd" d="M58 131.7c.2-.2.4-.3.5-.1.3.2.8.5 1.6.4.8 0 1.4-.4 1.5-.7l.4-.2 4.6 2.3c.3 0 .5.3.6.6.2.3 0 .6-.4.6l-8.5-.4a.6.6 0 0 1-.5-.6l.2-1.6v-.3Zm-22-4.4h.5c.1.4.4.9 1.2 1.2.7.3 1.4.2 1.6 0h.5l3 4c.2.3.3.6.3 1 0 .2-.4.4-.7.2l-7.3-4a.6.6 0 0 1-.2-.9l.9-1.3.2-.2Z" clip-rule="evenodd"/>
  <path fill="#041B2F" fill-rule="evenodd" d="M51 54.7s-1.8-3.7-4.6-1.6c-2 1.5-1 5 2.7 4.7l1.8-3Z" clip-rule="evenodd"/>
  <path fill="#041B2F" fill-rule="evenodd" d="M57.7 59.7s1.5-3.2-1-4.8a5.3 5.3 0 0 0-7.3 1.3c-1.8 2.4.4 5.3.4 5.3l1-2.3 1-1.9 1.6-.9H56l1 .2.7 3Z" clip-rule="evenodd"/>
  <path fill="#994A00" d="M55.4 61.4H52v5h3.5v-5Z"/>
  <path fill="#503116" fill-rule="evenodd" d="M52 63.7s.4 1.4 2 1.6c.5 0 1-.1 1.3-.6l.1-.4c0-.5-1.6-1.3-1.6-1.3l-1.9.7Z" clip-rule="evenodd"/>
  <path fill="#994A00" fill-rule="evenodd" d="M54.3 64.5c-2 0-3.7-1.6-3.7-3.6v-1.8c0-2 1.6-3.6 3.7-3.6 2 0 3.7 1.6 3.7 3.6v1.8c0 2-1.7 3.6-3.7 3.6Z" clip-rule="evenodd"/>
  <path fill="#041B2F" fill-rule="evenodd" d="M51 60.3s5.4-1.1 5.5-3.8c0 0-2.7-1.5-4.6.6-2 2.2-1 3.2-1 3.2Z" clip-rule="evenodd"/>
  <path fill="#041B2F" fill-rule="evenodd" d="M50.6 60.6s.9-4.2 4.7-4c0 0 2.2 0 2.7 3 0 0 .8-4.9-4.1-4.3-4.4.5-3.3 5.3-3.3 5.3Z" clip-rule="evenodd"/>
  <path fill="#994A00" fill-rule="evenodd" d="M51.5 60.8a1.2 1.2 0 0 1-2.5 0c0-.7.6-1.2 1.3-1.2.7 0 1.2.5 1.2 1.2Z" clip-rule="evenodd"/>
  <path fill="#041B2F" fill-rule="evenodd" d="m52.3 59.6-.8 1.7L51 60l1.2-.3Z" clip-rule="evenodd"/>
  <path fill="#994A00" fill-rule="evenodd" d="m52 66.4 4.8 2.3s-1-2.6-2.1-2.9c-1.5-.3-2.8.6-2.8.6Z" clip-rule="evenodd"/>
  <path fill="#F66" d="m49.9 67.5-14 21.8 3.7 2.2 14-21.7-3.7-2.3Z"/>
  <path fill="#333" fill-rule="evenodd" d="m71.6 80-4 3.9-.4-.1-1.1-1.9c-.1-.1 0-.3 0-.4l3.9-3.8h.5l1.2 1.9v.4Z" clip-rule="evenodd"/>
  <path fill="#CCC" fill-rule="evenodd" d="m70 78 1.1 1.8-3.4 3.5-1-1.8 3.4-3.4Z" clip-rule="evenodd"/>
  <path fill="#62AB8D" fill-rule="evenodd" d="m68.4 77.5-.2-.1-1.5-1.4a.3.3 0 0 1 0-.5h.5l1.5 1.4v.5l-.3.1Zm2-.7a.4.4 0 0 1-.4-.4v-2c0-.1.2-.3.4-.3s.4.2.4.4v2c0 .1-.2.3-.4.3Zm1.6.9-.2-.1a.3.3 0 0 1 0-.5l1.4-1.4c.2-.2.4-.2.6 0v.5l-1.5 1.4h-.2Z" clip-rule="evenodd"/>
  <path fill="#333" fill-rule="evenodd" d="M129.3 96.9v-8.5l11.4-9.3-9-10.6-4.2 3.5-2-2.4L132 64l13.2 15.4L132.5 90v7h-3.2Z" clip-rule="evenodd"/>
  <path fill="#0C515A" d="m128 67.4-2.6 2.4 2.3 2.4 2.7-2.3-2.4-2.5Z"/>
  <path fill="#0C515A" fill-rule="evenodd" d="M130.7 66.3c0 .7.5 1.2 1.2 1.2.8 0 1.3-.5 1.3-1.2s-.5-1.2-1.3-1.2c-.6 0-1.2.5-1.2 1.2Zm-.8 23c0 .7.5 1.3 1.2 1.3s1.3-.6 1.3-1.3c0-.6-.6-1.2-1.3-1.2-.7 0-1.2.6-1.2 1.2Z" clip-rule="evenodd"/>
</svg>
