<svg xmlns="http://www.w3.org/2000/svg" width="150" height="150" fill="none">
  <g clip-path="url(#a)">
    <path fill="#FFE5CC" fill-rule="evenodd" d="M111 .1c25 7.6 25 21.2 25.3 28.2.4 13-15.1 13.3-21.8 43.1-6.7 29.9 6.5 25.6-9 46.8-15.6 21.2-30.2 1.1-44.4 18-14.1 16.7-42.7 12.4-46.2-3.7-3.4-16.1-5.4-39.8 9.5-46.5 14.8-6.6 16.2-9.2 20.4-20 4.2-10.8-6.5-17-5-29.5 1.3-10.3 13.6-21.9 25.3-15 11.7 6.9 20.6-2.7 24.8-11C94.1 2 106-1.4 111 0Z" clip-rule="evenodd"/>
    <path fill="#FFA856" d="M52.7 9c2.9-.6 6.9 1.9 7.3 5.5.4 3.6.5 9.8-1.7 10.4-1 .3-4.5-.3-4.5-.3l.4 4.2-6.6-.5 1.5-6S43 10.7 52.7 9Z"/>
    <path fill="#08375E" d="M54.7 13.4c-1 2.4-.4 6.1-1.9 2.8-.6-1.5-1.9-1.2-2.6 0-1 1.4.7 2.9.5 3.4-.2.5-1.9 2.6-2.3 2.6-.4 0-3.8-6.7-1.8-10.9C49 6.8 56.8 7.1 58.3 11c-.7 0-2.5 0-3.6 2.4Z"/>
    <path fill="#08375E" fill-rule="evenodd" d="M59.7 9.3c-1.6-.9-5.5-.2-6.5 1.3 0 0 .3-.2 1.4-.2 8.3.5 5.9 2.9 5.1-1.1Z" clip-rule="evenodd"/>
    <path fill="#FFA856" d="m72.4 81.4-.1 1.2c0 .1-.4 1 0 1.3.4.3.9-1 .9-1l-.4-1.3-.4-.2Zm1.6 1.9.1-.7c0-.4-1-2.8-1.1-3a9 9 0 0 0-1.4-1.4l.6 2.2 1.7 2.9Z"/>
    <path fill="#FFA856" d="m72.9 82.2-.4 1.2s-.5.4-.6.8c-.2.3 0 .6 0 .7L73 84l.5-1.4-.6-.4Z"/>
    <path fill="#FFA856" d="m73.2 82.7-.4 1.5s-.8 1-.6 1.3c0 .3.3.3.3.3l1-1.2-.3-2Z"/>
    <path fill="#FFA856" d="m68.4 73.9 1.3 1.5 2.1 2.7c.4.3 1 1.8 1.3 2.4l.9 2.1c.2 1-.4 3.3-.6 3.4-.1.2-.4-.4-.4-.7v-2.1c0-.4-.7-1.7-1-1.9l-.7-.5-.7.2.3 1.2s1.2 1.3.9 1.6c-.4.4-1.2-.5-1.5-.9-.4-.5-1.3-1.4-1.6-2-.4-.9-1-3.6-1-3.6l-1.3-1.8 2-1.6Z"/>
    <path fill="#127A87" d="m48 44.5 7.2 17 10.7 16 3.9-3.7-7-16.8-2.2-6.8-12.5-5.7Z"/>
    <path fill="#FFA856" d="m24.6 129.7 2.2 2.5 2.4-1.4 1.5-3-4.5-1.7-1.6 3.6Z"/>
    <path fill="#666" d="M58.5 75.3s-11.6 26.5-14 30.4c-1.8 2.6-8.2 16-11.7 23.9l-7.3-3.6a56 56 0 0 1 4.1-14.7c4.8-10.2 8.1-15.6 10-24.1 1.8-8.5 0-18.1 2.2-22.8 2.3-4.6 16.7 11 16.7 11Z"/>
    <path fill="gray" d="M42 69.3s14 27.8 15 30.3.8 8 4.9 16.3c2 4.2 5.2 11.2 7.1 14.5l6.8-1.8c-2-7.8-6.6-24-7.5-27.2-1.3-4.5-6-32-6-32-7.4-1.6-18.5 3.2-20.3 0Z"/>
    <path fill="#FFA856" d="m71.4 135.5 3.3 1.9.3-4.9-1-3.8-4.2 1.4 1.6 5.4Z"/>
    <path fill="#127A87" d="M50 25.4c-2.8.2-5.5 3.2-7.3 8.6-1.5 9.9-1.2 41-4.2 44.3-3 3.4 26 0 26 0S61 31.4 56 27.5c-2-1.7-3.4-2.3-5.9-2.1Z"/>
    <path fill="#F66" d="M70.7 134.2c-.3.2.8 5.7 1.4 5.8.5 0 13.6-4.6 14.1-5.7.3-.5-.8-2.1-1-2.1-5.6.4-10.3-.9-10.3-.9s-1 1-.7 1.6l.3.3s-.5 1-1.4 1.3c-.8.2-1.8-.8-2.4-.3ZM25 128.7c-.3 0-3.3 4.7-3 5.1.4.5 13 6.6 14 6.2.6-.2 1-2.1.7-2.3-4.3-3.7-6.7-8-6.7-8s-1.4 0-1.6.7v.3s-1 .4-1.8 0c-.7-.4-.8-1.9-1.6-2Z"/>
    <path fill="#FFA856" d="M35 83v-5.2l-2.6-1.2v.6s-.6 1.3-.6 1.8l-.3 2.8s-1.7 2.8-1.7 3.2c0 .3.4.3.4.3l2-2.7.3.5-.6 1.4-1.5 2.1c0 .3.3.1.1.7-.2.5.3.6.3.6l2.9-1.8 1.2-3Z"/>
    <path fill="#127A87" d="m31.8 77.5 4.6 1.5 2-19.8s19.6-29 11-30.3c-8.7-1.3-16 26-17.2 28.8-1.2 2.6-.4 19.3-.4 19.3v.5Z"/>
    <path fill="#fff" d="M107.5 41.5c7 0 12.5-5.5 12.5-12.2 0-6.8-5.6-12.3-12.5-12.3S95 22.5 95 29.3c0 6.7 5.6 12.2 12.5 12.2Z"/>
    <path fill="#62AB8D" fill-rule="evenodd" d="m111.7 25.6-5.8 5.8-2.5-2.5a1 1 0 0 0-1.6 0 1 1 0 0 0 0 1.5l3.3 3.3a1.1 1.1 0 0 0 1.6 0l6.5-6.5a1 1 0 0 0 0-1.6 1 1 0 0 0-1.5 0Z" clip-rule="evenodd"/>
    <path fill="#62AB8D" fill-rule="evenodd" d="M94.5 29.7a13 13 0 1 1 26 0 13 13 0 0 1-26 0Zm2.2 0a10.8 10.8 0 1 0 21.6 0 10.8 10.8 0 0 0-21.6 0Z" clip-rule="evenodd"/>
  </g>
  <defs>
    <clipPath id="a">
      <path fill="#fff" d="M0 0h150v150H0z"/>
    </clipPath>
  </defs>
</svg>
