<svg xmlns="http://www.w3.org/2000/svg" width="150" height="150" fill="none">
  <path fill="#FFE5CC" fill-rule="evenodd" d="M28 98.1c7 14.2 21 8.4 28 12.4 7.1 4 19 22.5 35 5.3s3.6-23.6 29.4-31.2c25.7-7.6 25-38.9 4.2-53-20.9-14.3-29 4.4-38-16.2C77.7-5.3 50.4 12 46.8 29.9c-3.6 17.8-22.2 10-26.7 16.9-4.4 7-8.3 21.4-1.2 28.7 7.1 7.3 6.6 17.3 9.1 22.6Z" clip-rule="evenodd"/>
  <path fill="#B3B3B3" d="M104.2 93.8h-9.4V147h9.4V93.8Z"/>
  <path fill="gray" d="M97.2 93.8h-2.4V147h2.4V93.8Z"/>
  <path fill="#A1D0F7" fill-rule="evenodd" d="M59.3 25h61A23.8 23.8 0 0 1 144 48.8v45H59.3V25Z" clip-rule="evenodd"/>
  <path fill="#F66" fill-rule="evenodd" d="M59.3 25a23.8 23.8 0 0 1 23.8 23.8v45H35.5v-45A23.9 23.9 0 0 1 59.3 25Z" clip-rule="evenodd"/>
  <path fill="#08375E" fill-rule="evenodd" d="M59.3 27c12 0 21.8 9.8 21.8 21.8v45H37.5v-45c0-12 9.8-21.8 21.8-21.8Z" clip-rule="evenodd"/>
  <path fill="#fff" fill-rule="evenodd" d="M81.4 93.4h-50l.1-34h49.9v34Z" clip-rule="evenodd"/>
  <path fill="#666" d="M56 80.7v1.5h11.6v-1.4L56 80.7Zm0-5.3V77l14.3.1v-1.5L56 75.4Zm0 2.6v1.6l14.2.2v-1.6L56 78.1Z"/>
  <path fill="#6861D1" fill-rule="evenodd" d="M54.8 80.5c-1.8 0-3.1-.7-4.1-1.1l-.6-.3V79s0-.1 0 0l.8.2c1 .5 2.2 1 4 1 1.7 0 3-.6 4.5-1.2 1.5-.7 3-1.3 4.9-1.3 1.8 0 3.2.7 4.6 1.4 0 0 .1 0 0 0v.2h-.1c-1.4-.7-2.8-1.3-4.6-1.4-2 0-3.4.7-4.8 1.3-1.4.7-2.9 1.3-4.7 1.3Zm0 3.3c-1.8 0-3.1-.7-4.1-1.1l-.6-.3v-.2c.3 0 .5.2.8.3 1 .4 2.2 1 4 1 1.7 0 3-.6 4.5-1.2a8.9 8.9 0 0 1 9.5.1s.1 0 0 0v.1h-.1c-1.4-.6-2.8-1.3-4.6-1.3-2 0-3.4.7-4.8 1.3-1.4.7-2.9 1.3-4.7 1.3Zm-.1 3.2c-1.7 0-3-.6-4-1l-.7-.3v-.1c0-.1 0-.1 0 0l.8.2a9 9 0 0 0 4 1c1.8 0 3.1-.6 4.6-1.2 1.4-.7 3-1.4 4.8-1.3 1.9 0 3.2.6 4.6 1.3 0 0 .2.1.1.2h-.1c-1.4-.6-2.8-1.3-4.6-1.3-2 0-3.4.7-4.8 1.3a11 11 0 0 1-4.7 1.3Z" clip-rule="evenodd"/>
  <path fill="#258A62" fill-rule="evenodd" d="M41.4 65v3.5c0 .2 0 .3-.2.3h-6.7s-.3-.2-.3-.4c0 0-.2-1.4-.2-3.8 0-2.3.2-3.4.2-3.4 0-.2.1-.3.3-.3h6.8l.2.4V65Z" clip-rule="evenodd"/>
  <path fill="#005231" fill-rule="evenodd" d="m40 63.1-1.2.6.5-.7a8 8 0 0 0-1.7.1c.4-.3 1.3-.5 1.7-.5l-1.1-.8c.6 0 1.5.3 1.9.6h.5l-.3.4c0 .2-.1 1.5-.3 1.8.2-.6.1-1.3 0-1.5Zm-3.6 4.4-.7-.4.3-.6-.6.1c-.2-.2-.2-.6-.3-1v1l-.5.2.6.3.5.8v-.5l.7.1Zm.7-4.1-.1.4c.6.1 1.1.4 1.3.5h-1.5l-.2 1v.1l-.3-.8-1 1c.4-1 .8-1.3.8-1.3l-.8-.3h1.1c.3-.4.6-.6.8-.6Zm.8 3.6-.4.5H37v.1l.4.2-.4.2.7-.2h.3v-.3l.5-.5-.6.4c0-.2.1-.2 0-.4Z" clip-rule="evenodd"/>
  <path fill="#fff" fill-rule="evenodd" d="m40 63-1.2.7.6-.8a8 8 0 0 0-1.7.2c.4-.3 1.3-.5 1.8-.6l-1.2-.7a5 5 0 0 1 1.9.6h.6l-.4.3-.2 1.8a3 3 0 0 0-.3-1.5Zm-3.6 4.5a2 2 0 0 1-.6-.5c0-.2 0-.3.2-.5l-.6.1a3 3 0 0 1-.3-1v1l-.4.3.6.3c.1.3.2.5.5.7v-.5h.6Zm.8-4.2-.3.5c.8.1 1.3.5 1.3.5h-1.5c-.2.4-.2 1-.2 1l-.3-.9-1 .9c.4-.8.8-1.2.8-1.2l-.8-.3.7-.1h.5l.8-.4Zm.7 3.7-.4.5-.7.1.4.1-.4.3c.3 0 .6-.1.8-.3h.3v-.2l.5-.6-.6.4V67Z" clip-rule="evenodd"/>
  <path fill="#1A1A1A" fill-rule="evenodd" d="M43.7 63.3V62H45c.4 0 1 .1 1 .6 0 .2-.3.5-.6.5.4.2.6.5.6.8 0 .6-.6.8-1.2.8h-1.2v-1.4Zm1.5-.6c0-.3-.2-.4-.7-.4h-.2v2.1h.3c.5 0 .7-.1.7-.4v-.3c-.2-.2-.4-.2-.7-.2V63l.5-.2v-.2h.1Zm3.6-.7h-.6v1.7l-.2-.4-.8-1.3h-.6v2.7h.6v-2 .3l1.1 1.7h.5V62Zm.8 1.3v-1.2h1c.6 0 1.2 0 1.2.7 0 .6-.4.9-1.4.9h-.2v1h-.7l.1-1.4Zm1.4-.8-.6-.2H50v1h.2c.4 0 .8 0 .8-.5v-.2Zm2.2.9V62h1.1c.5 0 1.2.1 1.2.7s-.5.9-1.4.9h-.3l.1 1h-.7v-1.3Zm1.5-.9-.7-.1h-.2v.9h.1c.4 0 .8 0 .8-.5v-.2Zm.6 2.2 1.2-2.7h.4l1.2 2.8h-.8l-.2-.6h-1l-.2.6h-.6Zm1.7-1-.4-.8-.3.9h.7Zm1.3-1.6v2.7h.7v-2.4h.1c.4 0 .6.1.7.2v.3c0 .3-.2.4-.5.5h-.2L60 65h.8l-.7-1.2c.4-.1.6-.4.6-.7 0-.7-.6-.8-1.1-.8h-1.2V62Zm3.5-.1h-.6v2.8h.7V62Zm.8 1.4-.1-1.3h1.3c.5 0 1 .2 1 .6 0 .3-.3.5-.6.6.5.2.7.4.7.8 0 .5-.6.7-1.2.7h-1.2v-1.4Zm1.5-.6c0-.3-.2-.4-.7-.4h-.3v2.1h.3c.5 0 .7 0 .7-.4V64c-.2-.2-.3-.3-.7-.3v-.4l.6-.1v-.4Zm2.1-.7h.5l1.2 2.8h-.7l-.3-.6h-1l-.2.6h-.6c0-.3 1-2.4 1.1-2.8Zm.6 1.8-.4-1-.4 1h.8Zm1.2-1.1c0 .5.5.7.9.9.3.1.6.2.6.5v.2l-.6.1c-.2 0-.5 0-.8-.3H68v.6l.8.2c.8 0 1.2-.3 1.3-.9 0-.5-.5-.7-.9-.8-.3-.1-.6-.3-.6-.5 0 0 0-.2.4-.2l.7.2h.1v-.6H69c-.6-.1-1 .2-1 .6Zm-22.6 3.4L45 66c-.6 0-.8.5-.8 1s.4.8.8.8c.3 0 .5 0 .7-.3v.5l-.8.2c-.8 0-1.3-.6-1.3-1.3 0-.7.5-1.2 1.4-1.2h.6v.5Zm2.9 1.9-1-2.4H47c-.2.4-1 2.1-1 2.4h.5l.2-.5h.8l.2.6h.6Zm-1.1-1.7.3.8h-.7l.4-.8Zm2.5-.7c.5 0 1 .1 1 .7 0 .4-.1.5-.4.7l.6 1h-.6l-.8-1.3h.2c.2 0 .5-.1.5-.4 0-.4-.3-.4-.6-.4h-.2v2h-.6v-2.2h1v-.1Zm3.8 1.3c0-.7-.4-1.2-1.3-1.2l-1-.1c.2.3.1 1 .1 1.1v1.3h.8c1 0 1.3-.5 1.4-1.2Zm-1.6.9v-1.8c.7 0 1 .2 1 1-.1.6-.3.8-.9.8h-.2Zm2.7-2.1v2.4H54l.1-1.3v-1.1h.6Zm2.4 0v.3h-1.2v.7h.8v.4h-.8v1h-.5v-2.4H57Z" clip-rule="evenodd"/>
  <path fill="#1A1A1A" fill-opacity=".1" d="M79.6 59.1h2.1v34.2h-2.1z"/>
  <path fill="#72B8F3" d="M144 48.8H83v45h61v-45Z"/>
  <path fill="#6861D1" d="M81.4 91.6H6v2.2h75.4v-2.2Z"/>
  <path fill="#86BEA7" fill-rule="evenodd" d="M99.8 4.7H119l-3.8 5.6 3.8 5.4H99.8v-11Z" clip-rule="evenodd"/>
  <path fill="#352E9E" d="M102 4.7h-3v58.6h3V4.7Z"/>
  <path fill="#352E9E" fill-rule="evenodd" d="M101.2 57a6.3 6.3 0 1 1 0 12.6 6.3 6.3 0 0 1 0-12.6Z" clip-rule="evenodd"/>
  <path fill="#72B8F3" fill-rule="evenodd" d="M101.2 61.3c1.1 0 2 .9 2 2s-.9 2-2 2a2 2 0 0 1-2-2c0-1.1 1-2 2-2Z" clip-rule="evenodd"/>
</svg>
