<svg xmlns="http://www.w3.org/2000/svg" width="150" height="150" fill="none">
  <path fill="#FFE5CC" fill-rule="evenodd" d="M132.4 45.2c12.2 18 5.1 26.8 1.6 31.4-6.6 8.6-16.7.7-36.6 16.5-20 15.8-9.2 20-30.3 25.6-21.1 5.6-20-15-37.9-11.5-18 3.4-34-14.2-27.8-26.4 6.2-12.2 17.3-28.6 30.4-25.2 13 3.5 15.3 2.5 23.6-2.2 8.4-4.8 4.7-14.5 12.3-21.7 6.2-6 20.1-7.1 24 3.4 4 10.6 14.7 9 21.8 5.8 7-3.2 16.5.7 19 4.3Z" clip-rule="evenodd"/>
  <path fill="#fff" d="M43.3 77.4C51.4 77.4 58 70.9 58 63c0-8-6.6-14.4-14.7-14.4-8 0-14.7 6.4-14.7 14.4s6.6 14.4 14.7 14.4Z"/>
  <path fill="#62AB8D" fill-rule="evenodd" d="M47.8 58.4 41.2 65l-3-2.9c-.4-.5-1.2-.5-1.7 0s-.5 1.3 0 1.8l3.8 3.7c.2.2.5.4.9.4.3 0 .6-.2.9-.4l7.5-7.4c.5-.5.5-1.3 0-1.8s-1.3-.5-1.8 0Z" clip-rule="evenodd"/>
  <path fill="#62AB8D" fill-rule="evenodd" d="M28 63c0-8.2 6.7-14.8 15-14.8 8.2 0 14.9 6.6 14.9 14.8 0 8.1-6.7 14.7-15 14.7-8.1 0-14.8-6.6-14.8-14.7Zm2.6 0a12.4 12.4 0 0 0 24.8 0c0-6.8-5.6-12.3-12.4-12.3-6.9 0-12.4 5.5-12.4 12.3Z" clip-rule="evenodd"/>
  <path fill="#FFCA99" fill-rule="evenodd" d="m98.4 83.1 2.4 12.4c.2.7 0 1.6-.6 2l-7.5 8.7-1.4-5.9 2.6-7-1.4-7.8M62 83l-2.3 12.3a2 2 0 0 0 .6 2l9.3 10.9-.4-8-2.6-7 1.4-7.9" clip-rule="evenodd"/>
  <path fill="#18A3B4" fill-rule="evenodd" d="M96.6 75a16 16 0 0 0-5.5-4.3c-1.8-.9-10 .2-10.7.2-.8 0-8.8-1-10.6-.2a16 16 0 0 0-5.5 4.4c-1.2 2-3.4 8.5-3.4 8.5l7.5 3.7v17.2h24V87.3l7.6-3.7" clip-rule="evenodd"/>
  <path fill="#FFCA99" fill-rule="evenodd" d="M80.7 73.5c-2.1 0-3.1-1-3.1-2 0-.8.6-1.4 1.4-1.4h3.7c.8 0 1.4.6 1.4 1.5" clip-rule="evenodd"/>
  <path fill="#08375E" fill-rule="evenodd" d="m87.7 61.3.4-4.5c0-1.1-.4-2.2-1.2-2.7-1.6-1-4.2-2.8-5.6-3-3.3-.2-4.1 1-6.1 2a3 3 0 0 0-1.8 2.8l-.2 5.4v2.4l7 3.3 6.3-2.4" clip-rule="evenodd"/>
  <path fill="#FFCA99" fill-rule="evenodd" d="M86.3 66v1.7c0 .6-.2 1.3-.8 1.7-1.2 1-3.8 2.8-5 2.8-1.1 0-3.5-1.5-5-2.6-.5-.4-1-1-1-2l-.1-2-.8-.3-.4-.7-.4-2.8.6-.9.8 3h.6v-4.5c0-.2.2-.2.2-.2.6.4 1.8 1.3 3 1.3 4 0 6.5-1.3 7.3-1.8.2 0 .4 0 .4.2v5.3h1l.6-3 .4.4V64c0 .2 0 .4-.2.6" clip-rule="evenodd"/>
  <path fill="#E6E6E6" fill-rule="evenodd" d="M93 110.1H67.5c-.6 0-1.2-.6-1.2-1.3V91.2c0-.7.6-1.3 1.2-1.3H93c.6 0 1.2.6 1.2 1.3v17.6" clip-rule="evenodd"/>
  <path fill="#FFCA99" fill-rule="evenodd" d="m96.6 114.7.6 5-3.7-.4-.6-4.6" clip-rule="evenodd"/>
  <path fill="#F66" fill-rule="evenodd" d="m96.3 114.3.3 5.4s3.4-.6 4.6-.6c1.6-.2 6 .6 6.4 0a50 50 0 0 0-.8-8c-.4-.5-4.4 1.9-5.8 2.3" clip-rule="evenodd"/>
  <path fill="#0C515A" fill-rule="evenodd" d="M55.3 101.2s-4.8-2.4-5.6 5.2c-.5 6.4 4.4 7.9 4.4 7.9l39.2 7 .6-8.1" clip-rule="evenodd"/>
  <path fill="#E6E6E6" fill-rule="evenodd" d="M101 117.5c-.2 0-.4-2.6-.4-2.6 0-.2 0-.2.2-.2s.2 0 .2.2l.2 2.6h-.2Zm-1.6.3L99 115c0-.2 0-.2.2-.2s.2 0 .2.2l.2 2.7h-.2Z" clip-rule="evenodd"/>
  <path fill="#FFCA99" fill-rule="evenodd" d="m63 113.6-.5 5 3.5-.2.6-4.6" clip-rule="evenodd"/>
  <path fill="#F66" fill-rule="evenodd" d="m63.5 113.2-.4 5.4-4.6-.8c-1.6-.3-6 .6-6.4 0a37 37 0 0 1 1-8.3c.4-.5 4.4 2 5.8 2.4" clip-rule="evenodd"/>
  <path fill="#0C515A" fill-rule="evenodd" d="M104.6 100.3s4.8-2.4 5.6 5.3c.6 6.3-4.4 7.8-4.4 7.8l-39.6 6.8-.6-8.1" clip-rule="evenodd"/>
  <path fill="#E6E6E6" fill-rule="evenodd" d="M58.7 116.5c.2 0-.2-.3-.2-.3l.4-2.6c0-.2.2-.2.2-.2.2 0 .2.2.2.2m.7 3.1c.3 0-.1-.2-.1-.2l.4-2.7c0-.2.2-.2.2-.2.2 0 .2.2.2.2" clip-rule="evenodd"/>
  <path fill="#CCC" fill-rule="evenodd" d="M82.5 100.1c0 .7-1 1.3-2.3 1.3-1.2 0-2.4-.6-2.4-1.3 0-.6 1-1.3 2.4-1.3" clip-rule="evenodd"/>
  <path fill="#333" fill-rule="evenodd" d="M137 120h-.3a.7.7 0 0 1-.4-1l10.9-30-16.5-16-6.6 3.4c-.3.2-.7 0-.9-.3-.1-.4 0-.8.3-1l7-3.6c.3-.1.6 0 .7.1l17.2 16.6c.1.2.2.5.1.8l-11 30.6" clip-rule="evenodd"/>
  <path fill="#0C515A" fill-rule="evenodd" d="m123.8 80.4-3.3-4.9 4.2-3.2c1.2-1 3-.7 4 .6.8 1.4.6 3.3-.7 4.3" clip-rule="evenodd"/>
  <path fill="gray" fill-rule="evenodd" d="m121.2 88.8-9-13.2a6.8 6.8 0 0 1 10 1.7l.5.9a8 8 0 0 1-1.5 10.6Zm22.4 32h-12.3v-.1c0-2 1.4-3.4 3.1-3.4h6c1.8 0 3.2 1.5 3.2 3.4m5.4-30.9c-.8 1-2.1 1-3 .2l-2.8-3c-.9-.7-1-2.1-.2-3 .8-1 2-1 3-.1l2.8 2.8" clip-rule="evenodd"/>
  <path fill="gray" fill-rule="evenodd" d="M145.8 94.7c-1-.4-1.7-1.6-1.4-2.7l1.1-4.1c.4-1.2 1.5-1.8 2.6-1.5 1 .4 1.7 1.6 1.3 2.7l-1 4.1c-.4 1.2-1.5 1.8-2.6 1.5Z" clip-rule="evenodd"/>
  <path fill="#333" fill-rule="evenodd" d="M147.3 90.4c-1 0-1.8-.8-1.8-1.8s.7-2 1.6-2c1 0 1.8.8 1.9 1.8 0 1-.7 2-1.7 2Z" clip-rule="evenodd"/>
</svg>
