<svg xmlns="http://www.w3.org/2000/svg" width="150" height="150" fill="none">
  <g clip-path="url(#a)">
    <path fill="#FFE5CC" fill-rule="evenodd" d="M8.9 113c-15-16-9.2-26-6.4-31.2 5.3-9.5 16.6-3.2 34.2-22 17.5-18.7 6.1-21.3 26.4-30 20.3-8.7 22.3 12 39.7 6 17.4-6.2 36.3 9 31.9 22.2-4.4 13.1-13 31.1-26.6 29.6-13.6-1.5-15.7-.2-23.4 5.8-7.6 6-2.5 15.1-9 23.5-5.2 7-19 10.1-24.6.1-5.6-10-16-6.8-22.6-2.5-6.6 4.3-16.7 1.8-19.6-1.5Z" clip-rule="evenodd"/>
    <path fill="#fff" fill-rule="evenodd" d="M101.7 109.4H3.9a2.9 2.9 0 0 1-2.9-2.9V43.2a3 3 0 0 1 2.9-3h97.8a3 3 0 0 1 2.9 3v63.3a3 3 0 0 1-3 3Z" clip-rule="evenodd"/>
    <path stroke="gray" d="M101.7 109.4H3.9a2.9 2.9 0 0 1-2.9-2.9V43.2a3 3 0 0 1 2.9-3h97.8a3 3 0 0 1 2.9 3v63.3a3 3 0 0 1-3 3Z" clip-rule="evenodd"/>
    <path fill="#fff" fill-rule="evenodd" d="M53.6 46.8a1.5 1.5 0 0 0-.6-2.7c-.9-.1-1.7.6-1.7 1.5 0 .5.2 1 .6 1.2v.2l-.7 1.4c-.1.2 0 .4.2.4h2.7c.2 0 .4-.2.3-.4l-.8-1.4v-.2Z" clip-rule="evenodd"/>
    <path fill="#666" fill-rule="evenodd" d="M104.6 53.8H1V43.2a3 3 0 0 1 2.9-3h97.8a3 3 0 0 1 2.9 3v10.6Z" clip-rule="evenodd"/>
    <path fill="#A1D0F7" fill-rule="evenodd" d="M16.1 71.8a5 5 0 0 1 5-5.1h63.3a5 5 0 0 1 5 5.1 5 5 0 0 1-5 5.2H21.2a5 5 0 0 1-5-5.2Zm0 20.6a5 5 0 0 1 5-5.2h63.3a5 5 0 0 1 5 5.2 5 5 0 0 1-5 5.1H21.2a5 5 0 0 1-5-5.1Z" clip-rule="evenodd"/>
    <path fill="#fff" d="M39.2 93.7c.8 0 1.4-.6 1.4-1.3 0-.8-.6-1.4-1.4-1.4-.7 0-1.3.6-1.3 1.4 0 .7.6 1.3 1.3 1.3Zm5.5 0c.7 0 1.3-.6 1.3-1.3 0-.8-.6-1.4-1.3-1.4-.8 0-1.4.6-1.4 1.4 0 .7.6 1.3 1.4 1.3Zm5.3 0c.8 0 1.4-.6 1.4-1.3 0-.8-.6-1.4-1.3-1.4-.8 0-1.4.6-1.4 1.4 0 .7.6 1.3 1.4 1.3Zm5.5 0c.7 0 1.3-.6 1.3-1.3 0-.8-.6-1.4-1.3-1.4-.8 0-1.4.6-1.4 1.4 0 .7.6 1.3 1.4 1.3Zm5.5 0c.7 0 1.3-.6 1.3-1.3 0-.8-.6-1.4-1.4-1.4-.7 0-1.3.6-1.3 1.4 0 .7.6 1.3 1.3 1.3Zm-7.8-34.2A15 15 0 0 0 68 44.3a15 15 0 0 0-14.8-15.1 15 15 0 0 0-15 15.1 15 15 0 0 0 15 15.2Zm13.1 34.2c.8 0 1.4-.6 1.4-1.3 0-.8-.6-1.4-1.4-1.4-.7 0-1.3.6-1.3 1.4 0 .7.6 1.3 1.3 1.3Z"/>
    <path fill="#fff" fill-rule="evenodd" d="M70.3 73.2h-35c-.8 0-1.4-.6-1.4-1.4 0-.7.6-1.4 1.3-1.4h35.1c.8 0 1.4.7 1.4 1.4 0 .8-.6 1.4-1.4 1.4Z" clip-rule="evenodd"/>
    <path fill="#0C515A" fill-rule="evenodd" d="M47.1 46a1 1 0 0 1-1-1.2v-7.2c0-3.7 3-6.8 6.7-6.8s6.7 3 6.7 6.8v7c0 .6-.5 1.1-1 1.1a1 1 0 0 1-1.1-1v-7c0-2.6-2-4.7-4.6-4.7a4.7 4.7 0 0 0-4.6 4.6v7.2c0 .6-.5 1.1-1.1 1.1Z" clip-rule="evenodd"/>
    <path fill="#62AB8D" d="M52.8 54.7c4.4 0 8-3.7 8-8.2 0-4.6-3.6-8.3-8-8.3a8.2 8.2 0 0 0-8.1 8.3c0 4.5 3.6 8.2 8 8.2Z"/>
    <path fill="#fff" fill-rule="evenodd" d="M53.6 46.6a1.5 1.5 0 0 0-.6-2.7c-.9-.1-1.7.6-1.7 1.5 0 .5.2 1 .6 1.2v.2l-.7 1.4c-.1.1 0 .4.2.4h2.7c.2 0 .4-.3.3-.4l-.8-1.4v-.2Z" clip-rule="evenodd"/>
    <path fill="#FFCA99" fill-rule="evenodd" d="m111.6 86.6 2 10.4c.1.6 0 1.3-.5 1.7l-6.4 7.3-1.1-5 2.1-5.8-1.1-6.6m-25.5-2.2-2 10.4c-.1.6 0 1.3.5 1.7l7.8 9.1-.3-6.7L85 95l1.2-6.6" clip-rule="evenodd"/>
    <path fill="#18A3B4" fill-rule="evenodd" d="M110 79.8c-.8-1.3-3.3-3.1-4.6-3.6-1.5-.8-8.3.1-9 .1-.6 0-7.3-.9-8.8-.1-1.3.5-3.8 2.3-4.7 3.6-1 1.7-2.8 7.1-2.8 7.1l6.3 3.2v14.4h20.2V90.1l6.3-3.2" clip-rule="evenodd"/>
    <path fill="#FFCA99" fill-rule="evenodd" d="M96.8 78.5c-1.9 0-2.7-.9-2.7-1.6 0-.7.5-1.3 1.2-1.3h3.1c.7 0 1.2.6 1.2 1.3" clip-rule="evenodd"/>
    <path fill="#08375E" fill-rule="evenodd" d="m102.6 68.3.3-3.9c0-.9-.3-1.8-1-2.2-1.3-.9-3.5-2.3-4.6-2.5-2.9-.2-3.5.9-5.2 1.6-.8.4-1.5 1.3-1.5 2.4l-.2 4.6v2l5.9 2.7 5.3-2" clip-rule="evenodd"/>
    <path fill="#FFCA99" fill-rule="evenodd" d="M101.4 72.1v1.5c0 .5-.2 1-.7 1.5-1 .9-3.1 2.3-4.1 2.3-1 0-3-1.2-4.2-2.2a2 2 0 0 1-.8-1.6l-.2-1.7-.6-.3c-.2-.2-.4-.4-.4-.6l-.3-2.4.5-.7.7 2.6h.5v-3.9l.1-.1c.5.3 1.5 1 2.5 1 3.4 0 5.5-1 6.2-1.4.1 0 .3 0 .3.2v4.4h.8l.5-2.6.4.4v2c0 .2 0 .3-.2.5" clip-rule="evenodd"/>
    <path fill="#E6E6E6" fill-rule="evenodd" d="M107 109.3H85.7c-.5 0-1-.6-1-1.1V93.4c0-.6.5-1.1 1-1.1H107c.5 0 1 .5 1 1v14.9" clip-rule="evenodd"/>
    <path fill="#FFCA99" fill-rule="evenodd" d="m110 113.1.6 4.2-3.2-.3-.5-3.9" clip-rule="evenodd"/>
    <path fill="#F66" fill-rule="evenodd" d="m109.7 112.8.4 4.5s2.8-.5 3.8-.5c1.3-.2 5 .5 5.3 0 .2-.6-.5-6.6-.6-6.8-.4-.4-3.7 1.7-4.9 2" clip-rule="evenodd"/>
    <path fill="#0C515A" fill-rule="evenodd" d="M75.5 101.8s-4-2-4.7 4.4c-.5 5.3 3.7 6.6 3.7 6.6l32.7 5.8.5-6.8" clip-rule="evenodd"/>
    <path fill="#E6E6E6" fill-rule="evenodd" d="m113.7 115.5-.3-2.2c0-.2 0-.2.2-.2l.1.2.2 2.2h-.2Zm-1.3.2-.3-2.2.1-.2c.2 0 .2 0 .2.2l.2 2.2h-.2Z" clip-rule="evenodd"/>
    <path fill="#FFCA99" fill-rule="evenodd" d="m82 112.2-.6 4.2 3-.2.5-3.8" clip-rule="evenodd"/>
    <path fill="#F66" fill-rule="evenodd" d="m82.3 111.8-.4 4.6-3.8-.7c-1.3-.2-5 .5-5.3 0-.2-.6.5-6.6.8-7 .4-.3 3.7 1.7 4.9 2" clip-rule="evenodd"/>
    <path fill="#0C515A" fill-rule="evenodd" d="M116.7 101s4-2 4.7 4.4c.5 5.3-3.7 6.6-3.7 6.6l-33 5.7-.6-6.8" clip-rule="evenodd"/>
    <path fill="#E6E6E6" fill-rule="evenodd" d="M78.3 114.6c.2 0-.2-.2-.2-.2l.4-2.2.1-.2c.2 0 .2.2.2.2m.7 2.6-.2-.2.3-2.2c0-.2.2-.2.2-.2.2 0 .2.2.2.2" clip-rule="evenodd"/>
    <path fill="#CCC" fill-rule="evenodd" d="M98.3 100.9c0 .5-.9 1-2 1-1 0-2-.5-2-1 0-.6.8-1.1 2-1.1" clip-rule="evenodd"/>
    <path fill="#333" fill-rule="evenodd" d="M139 122.9h-.1a.6.6 0 0 1-.3-.8l9-25.3L134 83.4l-5.5 2.9c-.3.1-.6 0-.8-.3 0-.3 0-.6.3-.8l5.8-3c.2-.2.5-.1.6 0l14.4 14c.1.1.2.4.1.6l-9.2 25.7" clip-rule="evenodd"/>
    <path fill="#0C515A" fill-rule="evenodd" d="m127.5 90.5-2.8-4 3.6-2.8c1-.9 2.5-.6 3.2.5.8 1.2.6 2.8-.5 3.6" clip-rule="evenodd"/>
    <path fill="gray" fill-rule="evenodd" d="m127.6 97.6-7.5-11a5.6 5.6 0 0 1 8.3 1.3l.5.7c2 2.9 1.3 6.9-1.3 9Zm17.4 25.9h-10.3c0-1.6 1.1-3 2.6-3h5c1.5 0 2.7 1.4 2.7 3m4-26c-.6.8-1.7.8-2.4.1l-2.4-2.4a2 2 0 0 1-.1-2.6c.6-.8 1.7-.8 2.4-.1l2.4 2.4" clip-rule="evenodd"/>
    <path fill="gray" fill-rule="evenodd" d="M146.4 101.5a1.9 1.9 0 0 1-1.1-2.3l1-3.4c.2-1 1.2-1.5 2-1.2 1 .3 1.5 1.3 1.2 2.3l-1 3.4c-.2 1-1.2 1.5-2 1.2Z" clip-rule="evenodd"/>
    <path fill="#333" fill-rule="evenodd" d="M148.5 98.5c-.8 0-1.5-.6-1.5-1.5 0-.8.6-1.6 1.4-1.6.8 0 1.5.6 1.5 1.5s-.6 1.6-1.4 1.6Z" clip-rule="evenodd"/>
  </g>
  <defs>
    <clipPath id="a">
      <path fill="#fff" d="M0 0h150v150H0z"/>
    </clipPath>
  </defs>
</svg>
