<svg xmlns="http://www.w3.org/2000/svg" width="150" height="150" fill="none">
  <g clip-path="url(#a)">
    <path fill="#FFE5CC" fill-rule="evenodd" d="M85 124.3c-16.3 9-25.6-2.7-35-2.5-9.4.1-33.4 10.3-36.6-11.8C10 88 26.2 88.2 7 69.7c-19.1-18.5 3.1-45 32.7-47.3 29.5-2.4 24.2 17.4 47 4 22.7-13.5 36.5 14 27.6 31-8.9 16.8 14.1 18.8 13.5 26.8-.5 8-6.9 22.2-18.6 25.1-11.8 3-18.1 11.7-24.3 15Z" clip-rule="evenodd"/>
    <path fill="#0C528D" fill-rule="evenodd" d="M33 44.6h35v37.6H33c-1.2 0-2.3-.7-3-1.8-.9-1.2-1.4-3-1.4-4.8V51.2c0-3.7 2-6.6 4.3-6.6Z" clip-rule="evenodd"/>
    <path fill="#0C528D" fill-rule="evenodd" d="M103 51.2v24.4l-.3 2.3c-.6 2.5-2.2 4.3-4 4.3H64.4V44.6h34.2c2.3 0 4.3 3 4.3 6.6Z" clip-rule="evenodd"/>
    <path fill="#106EBC" fill-rule="evenodd" d="M33 44.6s-5.6 0-27 14.4c0 0-2.8 2.6-2.5 6.3.4 3.8 11.8 33.9 11.8 33.9H33l-3-23s-.6-29.9 3-31.6Zm65.6 0s5.4 0 26.8 14.4c0 0 2.9 2.6 2.5 6.3-.4 3.8-11.8 33.9-11.8 33.9H98.6l3-23s.6-29.9-3-31.6Z" clip-rule="evenodd"/>
    <path fill="#106EBC" fill-rule="evenodd" d="M33 75h35v24.1H32.3c-1.8-.8-2.3-4.3-2.3-6.5V80.4c0-2.3.7-5.4 3-5.4Z" clip-rule="evenodd"/>
    <path fill="#106EBC" fill-rule="evenodd" d="M102 94.8a6 6 0 0 1-.4 2.4 3 3 0 0 1-3 2h-34V75h32.3c1.9 0 5.2 0 5 3.3l.1 16.5Z" clip-rule="evenodd"/>
    <path fill="#0C528D" fill-rule="evenodd" d="M33 99.2h35v24.5H15.4c-1.2 0-2.1-1.9-2.1-4.2L3.6 65.3s0-4.7 2.5-6.3c2.6-1.7 8-.6 9.7 5.5C17.5 70.3 26.5 97 32.3 99h.6Z" clip-rule="evenodd"/>
    <path fill="#0C528D" fill-rule="evenodd" d="m127.9 65.3-9.6 54.1c0 2.4-1 4.3-2.2 4.3H64.5V99.1h34.2c.8 0 1.8-.7 3-2 5.5-6.5 12.6-27.6 14-32.7 1.9-6 7.1-7.2 9.7-5.5 2.6 1.7 2.5 6.4 2.5 6.4Z" clip-rule="evenodd"/>
    <path fill="#994A00" fill-rule="evenodd" d="M122.6 146h-4.3l-15.4-22.3H114l.3.8.6 1.7 7.7 19.9ZM30 123.7l-11.7 17-3.7 5.4h-4.3l7.6-19.8.6-1.6.4-1h11Z" clip-rule="evenodd"/>
    <path fill="#fff" fill-rule="evenodd" d="M19 131c-1 2.3-1.6 4.8-2.8 7.2-1 2.1-2 4.6-3.1 6.7l-.6 1.2h-2.2l7.6-19.8c.6 0 1 .4 1.6 1 .8 1.2 0 2.6-.4 3.7Zm103.6 15h-1.7l-.7-1.3c-1.2-2.3-2-4.6-3-7.1-1.2-2.7-3.6-5.2-4.1-8-.2-1.3-.1-2.2 1-3l.9-.4 7.6 20v-.1Z" clip-rule="evenodd" opacity=".2"/>
    <path fill="#1A1A1A" fill-rule="evenodd" d="M22.3 131.9c.4-1.7.6-4.1-.5-5.5-.6-.6-2-1.4-3.3-1.7l.4-1h11l-11.6 17c.7-3 3.5-6 4-8.8Zm97 14.1h-1L103 123.8h11l.3.8c-.4 0-.8 0-1.1.2a4 4 0 0 0-2.4 2.8c-.8 2.6.5 5.8 1.8 8 1.2 2.3 2.9 4.3 4.2 6.5.5 1 1.6 2.5 2.5 4Z" clip-rule="evenodd" opacity=".2"/>
    <path fill="#1A1A1A" fill-rule="evenodd" d="M26.7 65.6c1.5 4.7 0 13-.4 17.7-.7 7 1.1 9.5 8 7.2 5.3-1.7 11.4-3.9 16.7-4.7 6.2-1 13.4.8 19.7 1.2 5.2.2 12.5 3 17-1.2 4-3.9-2.7-8.5-5-12.3C80 68.5 80 64 78 59c-2.2-5.7-9.2-4.8-14.5-4.3a67 67 0 0 1-21.3-.7c-3.4-.8-6.8-2.2-10.4-1-4 1.3-3.5 4.2-4.4 7.5l-.7 5Z" clip-rule="evenodd" opacity=".1"/>
    <path fill="#FF9633" fill-rule="evenodd" d="M77.6 65.1c1.2 8.4.9 16.2.9 16.2-5.9 1.8-15.1.6-20.8 1.5-5.6.8-26.6 5.5-26.6 5.5.8-5.2-2.8-17.8-5-24.6l-1.5-4.5c6.7.8 29.8-1.4 29.8-1.4C70.4 52 74.1 52 74.1 52c1.8 3.7 2.9 8.5 3.5 13.1Z" clip-rule="evenodd"/>
    <path fill="#fff" fill-rule="evenodd" d="M33.7 68.8c.8 2.3.1 7.2 3.8 5.6 2.2-1 3.1-4 5.4-5.3 2.5-1.5 5.5-1.5 8.4-1.6 4.7 0 13.2-1.2 16.3 3 1.2 1.5 2 6 4.9 3.6 1.9-1.6 1.9-5.4 2-7.5.1-2.3.4-6.3-2-7.5-2.5-1.2-6.2.2-8.5.6-6 1.2-12.4 2.8-18.6 3.4-3 .3-5.3.5-8.2 0-1.4-.3-5.5-2-6.3-.3-.8 1.9 2.3 4.5 2.8 6Z" clip-rule="evenodd" opacity=".3"/>
    <path fill="#258A62" fill-rule="evenodd" d="M77.6 65.1c1.2 8.4.9 16.2.9 16.2-5.9 1.7-15.1.6-20.8 1.5a827 827 0 0 0-26.6 5.4c.8-5.1-2.8-17.8-5-24.6a11 11 0 0 1 1.7 1.7c2.6 3.1 2.9 7.5 4.4 11.1 1 2.4 1.6 4.8 4 6.2 2.5 1.4 6.2.3 8.8-.3l9-2.6c3-1 5.9-.6 8.8-.3 5.6.6 12.7 1 14.4-5.5.7-2.9.4-5.8.4-8.8Z" clip-rule="evenodd" opacity=".2"/>
    <path fill="#fff" fill-rule="evenodd" d="M61.2 90.2c-5.2-.7-12.9.3-18.6.3-4.5 0-11.3.3-12.3 6.2-.8 4.9.7 12 5 14a46 46 0 0 0 17.5 3.3c6.2.3 12.1-.4 18.5-.3 6.5 0 12 0 18.2-1.1 6.1-1.2 9.2-3.5 10.6-9.8 1.5-7-1-9.6-7.5-11.3a33 33 0 0 0-15-.6c-5.6.8-10.4-1.6-15.4-1.3 0 .5.2.8.4 1.3l-1.4-.7Z" clip-rule="evenodd" opacity=".2"/>
    <path fill="#1A1A1A" fill-opacity=".3" fill-rule="evenodd" d="m103.6 100.7-41.5-9.4L68 67.8l41.5 9.4-5.8 23.5Z" clip-rule="evenodd"/>
    <path fill="#fff" fill-rule="evenodd" d="m102 99.5-41.5-9.3 5.8-23.5 41.5 9.4-5.8 23.4Z" clip-rule="evenodd"/>
    <path fill="#666" d="m79.7 85.5-.3 1L89.5 89l.3-1-10.1-2.5Zm.9-3.7-.2 1.1 16 4 .3-1-16-4Zm-.5 1.9-.2 1 16 4 .3-1-16-4Z"/>
    <path fill="#6861D1" fill-rule="evenodd" d="M78.9 85.2c-1.2-.3-2-1-2.6-1.5l-.4-.3v-.1c.2 0 .3.2.5.3.6.5 1.4 1 2.6 1.4 1.2.3 2.3 0 3.4-.1 1-.2 2.2-.4 3.5-.1a7 7 0 0 1 3 1.7v.1a7.2 7.2 0 0 0-3-1.6c-1.4-.4-2.5-.1-3.6 0a8 8 0 0 1-3.4.1Zm-.6 2.2c-1.2-.3-2-1-2.6-1.4-.1-.2-.3-.2-.4-.3v-.1h.1l.4.3c.6.4 1.5 1 2.6 1.4 1.2.3 2.3 0 3.4-.1 1.1-.3 2.3-.5 3.6-.1a7 7 0 0 1 3 1.7v.1h-.1a7.2 7.2 0 0 0-3-1.7c-1.3-.3-2.4 0-3.5.1a8 8 0 0 1-3.5.1Zm-.6 2.3c-1.2-.3-2-1-2.6-1.5l-.4-.2v-.1h.1l.4.2c.6.5 1.4 1.1 2.7 1.5 1.2.3 2.2 0 3.3-.1 1.2-.3 2.3-.5 3.6-.2a7 7 0 0 1 3 1.8v.1h-.1a7.2 7.2 0 0 0-3-1.7c-1.3-.3-2.4 0-3.5.1a8 8 0 0 1-3.5 0v.1Z" clip-rule="evenodd"/>
    <path fill="#258A62" fill-rule="evenodd" d="m72.2 72.2-.5 2.4-.3.2-4.6-1.2s-.2-.1-.2-.3l.5-2.6c.4-1.6.8-2.4.8-2.4 0-.1.1-.2.2-.1l4.7 1.1s.2.2.1.3l-.7 2.6Z" clip-rule="evenodd"/>
    <path fill="#005231" fill-rule="evenodd" d="m71.5 70.6-.9.2.5-.4-1.2-.2h1.3c0-.2-.6-.7-.7-.8.5.1 1 .5 1.2.7h.4s0 .2-.3.3c0 .2-.3 1-.5 1.2.2-.3.3-.8.2-1ZM68.3 73l-.4-.4.3-.3h-.4v-.8l-.3.7h-.3l.4.4c0 .2 0 .4.2.6v-.4l.5.2Z" clip-rule="evenodd"/>
    <path fill="#005231" fill-rule="evenodd" d="m69.5 70.3-.2.3c.4.1.8.4.9.6l-.8-.3H69c0 .3-.2.6-.3.7V71a8 8 0 0 0-1 .5l.8-.7-.5-.4h.5l.3.2.6-.3Zm-.1 2.7-.3.3-.5-.1.3.2h-.3v.1h.7v-.2c.2 0 .3-.1.5-.3l-.5.2.1-.2Z" clip-rule="evenodd"/>
    <path fill="#fff" fill-rule="evenodd" d="m71.5 70.5-.9.3.6-.4-1.2-.2 1.3-.1-.7-.7 1.2.7.4.1-.3.2c0 .2-.3 1-.5 1.2.1-.4.2-.9.1-1ZM68.3 73l-.3-.4.2-.3h-.4v-.7c-.2.2-.2.4-.2.7h-.4c.1.1.2.3.4.3 0 .2 0 .4.2.6V73l.5.1Zm1.3-2.7-.3.2.8.6-.8-.2h-.2c-.2.2-.3.7-.3.7l-.1-.7c-.3 0-.9.4-.9.4l.8-.7-.5-.3h.6l.3.1c.2 0 .5-.2.6-.1Zm-.2 2.6-.3.3h-.5l.3.1-.4.2h.8v-.2l.5-.3-.5.1.1-.2Z" clip-rule="evenodd"/>
    <path fill="#1A1A1A" fill-rule="evenodd" d="m74 71.3.3-.9.9.2c.3.1.6.3.6.6 0 .2-.3.4-.5.3.2.2.4.5.3.7-.1.4-.5.4-1 .3l-.8-.2.3-1Zm1.3-.1c0-.2-.1-.3-.5-.4h-.1l-.4 1.4h.2c.3.2.5.1.6-.1v-.2l-.4-.3v-.3h.4l.1-.1Zm2.6.1h-.5v.4l-.2.7-.1-.3-.3-1-.5-.2-.2 1-.3.9h.5l.3-1.3v.2l.5 1.4.3.1.5-2v.1Zm.3 1.1.1-1 .8.3c.4 0 .8.3.7.7 0 .4-.4.5-1 .3h-.3l-.1.8-.5-.2.3-1Zm1.1-.3-.4-.3h-.2l-.1.6c.3.1.6.1.7-.1V72Zm1.4.9.2-1 .8.3c.3 0 .8.3.6.7 0 .4-.4.5-1 .4H81l-.2.7-.5-.1.3-1Zm1.1-.3c0-.1-.1-.2-.4-.3h-.2l-.1.6h.1c.3.1.6.2.6-.1v-.2Zm.1 1.6 1.3-1.7.3.1.3 2.1-.5-.1v-.5l-.8-.2-.2.5-.4-.1v-.1Zm1.3-.4v-.7l-.5.6.5.1Zm1.2-.9-.2.9-.2 1h.5l.2-1 .1-.6h.2l.4.3v.2c0 .2-.3.2-.5.2h-.2l.4 1.2.5.1-.3-1c.3 0 .5 0 .6-.3.1-.5-.3-.7-.7-.7l-.8-.3Zm2.5.5h-.5l-.2.8-.2 1 .5.1.2-1 .2-.9Zm.3 1.1.1-.9 1 .2c.3 0 .6.3.5.6 0 .2-.2.3-.5.3.3.2.4.4.4.6-.1.4-.6.5-1 .4l-.9-.2c.2-.3.3-.8.3-1Zm1.1-.2c0-.1 0-.3-.4-.3h-.2l-.4 1.4h.2c.4.1.6 0 .6-.1v-.2c0-.2-.1-.2-.4-.3l.1-.3h.4v-.1h.1Zm1.7-.1h.3l.3 2.2h-.5v-.6l-.7-.2-.3.5-.4-.1c0-.2 1-1.5 1.2-1.8Zm0 1.3-.1-.7-.4.6.5.1Zm1-.5c0 .3.2.5.5.7.2.2.4.3.3.5v.1h-.4a.9.9 0 0 1-.5-.3h-.1l-.1.4.5.2c.6.2 1 0 1-.3.1-.4-.2-.6-.4-.8-.2-.1-.4-.2-.4-.4 0 0 0-.2.4-.1.2 0 .3.2.4.3l.2-.4-.5-.2c-.4-.1-.8 0-.9.3Zm-16.2-1.5-.3-.2c-.4 0-.7.3-.7.5-.1.4 0 .7.4.8l.5-.1-.1.4H74a1 1 0 0 1-.7-1.2c.1-.5.6-.7 1.2-.6l.4.2-.1.2Zm1.7 1.9-.3-1.8-.3-.1c-.1.2-1 1.3-1 1.5h.3l.3-.3.5.2v.4l.5.1ZM76 74v.6l-.4-.1.4-.5Zm1.9 0c.3.1.7.3.6.7l-.5.4.3.8-.5-.1-.2-1c.2 0 .4 0 .5-.2 0-.2-.2-.3-.4-.4h-.1l-.2.6-.1.8h-.5l.2-.9c0-.2.2-.6.1-.8l.8.2Zm2.4 1.5c0-.4 0-.8-.7-1l-.6-.2-.2.8c0 .3-.2.6-.3.8l.6.2c.7.2 1 0 1.1-.6ZM79 76l.3-1.2c.5.1.6.3.5.8-.1.4-.3.5-.7.4H79Zm2.3-1-.3.7-.1.9-.5-.1.3-.9.2-.8.4.1Zm1.7.3-.2.2-.8-.2v.5l.5.2-.1.2-.5-.2-.2.8-.4-.1.3-.9.1-.8 1.2.3Z" clip-rule="evenodd"/>
    <path fill="#86BEA7" fill-rule="evenodd" d="M121.8 13c0 6 2.3 11 2.3 11 .2 0 2.4-6 2.4-11 0-4.6-2.4-11-2.4-11s-2.3 6.4-2.3 11Zm13.8 57.3c-4.8 2.7-8 7-8 7 0 .1 6-1 10.2-3.3 4-2.1 8-7 8-7-.1 0-6.4 1.1-10.2 3.3Zm3.6-17c-4.8 2.7-8 7-8 7 0 .2 6-.9 10.2-3.2 4-2.1 8-7 8-7a39 39 0 0 0-10.2 3.2ZM132.6 33c-3 2.5-4.7 5.7-4.7 5.7s4.2-1.4 6.7-3.4c2.3-2 4.6-5.7 4.6-5.7s-4.1 1.5-6.6 3.4Zm-15.3-4c3.3 2.2 4 4.7 4 4.7s-3-.3-5.8-2.1c-2.5-1.8-4-4.5-4-4.6.3 0 3.3.3 5.8 2ZM114 97.2a28 28 0 0 1 5 9.3c-.2 0-5.4-3-8.5-6.4a31.6 31.6 0 0 1-5-9.3s5.6 3.2 8.4 6.4Zm-1.7-20c4.2 3.8 6.3 8.6 6.3 8.6a28 28 0 0 1-9.3-5.2 26.8 26.8 0 0 1-6.3-8.5s6 2.3 9.3 5.1Zm-.9-35.4c5 2.5 8.3 6.5 8.3 6.7 0 .2-6.2-.7-10.3-2.8-4-2.2-8.2-6.8-8.2-6.8 0-.2 6.3.9 10.2 2.9Z" clip-rule="evenodd"/>
    <path fill="#0C515A" fill-rule="evenodd" d="m124.2 14.5 1 107.8H123l1-107.8Z" clip-rule="evenodd"/>
    <path fill="#0C515A" fill-rule="evenodd" d="m124.1 63.7 15.5-7.5-15 8.2-.5-.7Zm-.1-12.5-12-6.8 12.2 6.1-.3.7Z" clip-rule="evenodd"/>
    <path fill="#86BEA7" fill-rule="evenodd" d="M133.7 21.6c-3.4 2-4.3 4.3-4.3 4.5 0 0 3-.2 5.9-1.8a12 12 0 0 0 4.3-4.3c0-.2-3.2 0-6 1.6Z" clip-rule="evenodd"/>
    <path fill="#0C515A" fill-rule="evenodd" d="m124 28.2 11.3-5.2-11 6-.3-.8Z" clip-rule="evenodd"/>
    <path fill="#86BEA7" fill-rule="evenodd" d="M128.3 91.7c-1.4 3.5-.7 6-.7 6s2.3-2 3.6-5c1.2-2.8.9-5.9.7-5.9-.2 0-2.5 2-3.6 4.9Z" clip-rule="evenodd"/>
    <path fill="#0C515A" fill-rule="evenodd" d="m124.9 103 5.2-11.2-4.5 11.6-.7-.3Z" clip-rule="evenodd"/>
    <path fill="#86BEA7" fill-rule="evenodd" d="M118.2 72.4Zm0 0v.6c0 1-.3 3.1.2 5.3 1 3.8 3 5.3 3 5.3s.8-3-.1-6c-.7-3-2.8-5-3-5.2Z" clip-rule="evenodd"/>
    <path fill="#0C515A" fill-rule="evenodd" d="m122.7 89.3-2.7-12 3.4 11.9-.7.2Z" clip-rule="evenodd"/>
    <path fill="#86BEA7" fill-rule="evenodd" d="M114.5 68.3s-1.8 1.6-5.8 2c-2 .1-4-.4-5.2-.7l-.9-.2a13.2 13.2 0 0 1 11.9-1Z" clip-rule="evenodd"/>
    <path fill="#0C515A" fill-rule="evenodd" d="m124.2 68.3-16 .2 16-1v.8Z" clip-rule="evenodd"/>
    <path fill="#86BEA7" fill-rule="evenodd" d="M126.7 52.5c1 3.7 3 5.3 3 5.3s.7-3-.2-6a10 10 0 0 0-3-5.2s-.7 3 .2 5.9Z" clip-rule="evenodd"/>
    <path fill="#0C515A" fill-rule="evenodd" d="m130 60.8-1.7-9.2 2.7 8.9-1 .3Z" clip-rule="evenodd"/>
    <path fill="#86BEA7" fill-rule="evenodd" d="M136.2 80.1c-4-.5-6.1.7-6.1.7a12 12 0 0 0 5.7 2.3c3 .6 6-.5 6-.7 0 0-2.6-1.8-5.6-2.3Z" clip-rule="evenodd"/>
    <path fill="#0C515A" fill-rule="evenodd" d="m124.3 79.6 12.2 2.5-12.3-1.7.1-.8Z" clip-rule="evenodd"/>
    <path fill="#86BEA7" fill-rule="evenodd" d="M134 105c-3.6 1.7-4.6 4-4.6 4s3 .2 6-1.3c3-1.2 4.7-3.7 4.7-3.9-.1 0-3.2-.2-6 1.3Z" clip-rule="evenodd"/>
    <path fill="#0C515A" fill-rule="evenodd" d="m124 111.1 11.5-4.8-11.2 5.7-.3-.9Z" clip-rule="evenodd"/>
    <path fill="#86BEA7" fill-rule="evenodd" d="M117.5 91.1c2.5 3 2.5 5.6 2.5 5.6s-2.8-1.3-4.8-3.8c-2-2.3-2.5-5.3-2.5-5.5 0 .2 2.8 1.4 4.8 3.7Z" clip-rule="evenodd"/>
    <path fill="#0C515A" fill-rule="evenodd" d="m123.4 101.7-7.7-9.8 8.4 9.2-.7.6Z" clip-rule="evenodd"/>
    <path fill="#86BEA7" fill-rule="evenodd" d="M136.7 42.3c-4-.5-6.1.7-6.1.7a12 12 0 0 0 5.7 2.3c3 .6 6-.5 6-.7 0 0-2.5-1.8-5.6-2.3Z" clip-rule="evenodd"/>
    <path fill="#0C515A" fill-rule="evenodd" d="m124.9 41.8 12.2 2.5-12.4-1.7.2-.8Z" clip-rule="evenodd"/>
    <path fill="#86BEA7" fill-rule="evenodd" d="M133.3 27.1c-3 0-4.5 1.7-4.5 1.8 0 0 2.4 1.4 4.9 1.3 2.5 0 4.5-1.7 4.3-1.7 0-.1-2.4-1.4-4.7-1.4Z" clip-rule="evenodd"/>
    <path fill="#0C515A" fill-rule="evenodd" d="m124.2 28.6 9.6.3-9.6.6v-1Z" clip-rule="evenodd"/>
    <path fill="#86BEA7" fill-rule="evenodd" d="M129 66.2c-2 2.3-1.6 4.4-1.6 4.4s2.5-.8 4.1-2.6c1.6-1.8 1.6-4.3 1.6-4.5a9 9 0 0 0-4.1 2.7Z" clip-rule="evenodd"/>
    <path fill="#0C515A" fill-rule="evenodd" d="m124.2 74 6.4-7.1-6 7.7-.5-.6Z" clip-rule="evenodd"/>
    <path fill="#86BEA7" fill-rule="evenodd" d="M131.5 51.2c-.7 3 .4 4.8.4 4.8.2 0 2-1.7 2.5-4.2.5-2.4-.4-4.7-.4-4.7s-2 1.8-2.5 4.1Z" clip-rule="evenodd"/>
    <path fill="#0C515A" fill-rule="evenodd" d="m130.4 60.3 3-9-2.2 9.2-.8-.2Z" clip-rule="evenodd"/>
    <path fill="#86BEA7" fill-rule="evenodd" d="M118.4 27.1c1.3 2.7 3.4 3.4 3.4 3.4s.4-2.7-.7-4.8a8 8 0 0 0-3.4-3.4s-.2 2.7.7 4.8Z" clip-rule="evenodd"/>
    <path fill="#0C515A" fill-rule="evenodd" d="m123.6 34.8-3.8-9 4.5 8.7-.7.3Z" clip-rule="evenodd"/>
    <path fill="#86BEA7" fill-rule="evenodd" d="M118.8 41.2s-.2-3.2-3.8-6a13.7 13.7 0 0 0-6.6-2.7c-.2.2.7 3.7 3.6 5.8 2.8 2.5 6.6 3 6.8 3Z" clip-rule="evenodd"/>
    <path fill="#0C515A" fill-rule="evenodd" d="m123.6 45.9-11-9.3 11.7 8.4-.7.9Z" clip-rule="evenodd"/>
    <path fill="#86BEA7" fill-rule="evenodd" d="M116.3 62.4c2.8 1.3 3.5 3.2 3.5 3.2s-2.7.4-5-.5c-2.1-.9-3.6-3-3.4-3.2 0 0 2.7-.6 4.9.5Z" clip-rule="evenodd"/>
    <path fill="#0C515A" fill-rule="evenodd" d="m124 67.8-9-4 9.2 3.3-.2.7Z" clip-rule="evenodd"/>
    <path fill="#86BEA7" fill-rule="evenodd" d="M112.7 55.5c3.4-2 5.9-1.6 5.9-1.6S117 56.4 114 58c-2.7 1.7-5.8 1.7-5.8 1.7-.1 0 1.7-2.7 4.4-4.3Z" clip-rule="evenodd"/>
    <path fill="#0C515A" fill-rule="evenodd" d="m124 51.4-11 6 10.4-6.7.6.7Zm-.4 39.4-10.8-10 11.5 9.5-.7.5Z" clip-rule="evenodd"/>
    <path fill="#86BEA7" fill-rule="evenodd" d="M139.6 95.4c-5.2 2.2-8.8 6-8.6 6 0 .3 6.1-.3 10.4-2 4.1-1.8 8.8-6.1 8.6-6.1 0 0-6.5.3-10.4 2.1Z" clip-rule="evenodd"/>
    <path fill="#0C515A" fill-rule="evenodd" d="m124 103.4 16.7-5.5-16.4 6.4-.3-.9Zm-.2-24 8.8-5.4-8.3 6.1-.5-.7Zm-.9 32.1-8-9.3 8.7 8.6-.7.7Zm.9-69.2 7.5-7-6.8 7.5-.7-.5Zm.2-6.6-6.8-4.5 7.1 3.8-.3.7Z" clip-rule="evenodd"/>
    <path fill="#B3B3B3" fill-rule="evenodd" d="M114.1 147.3h20.5c3.6-3 5.9-7.3 5.9-12.3a31 31 0 0 0-7.5-18.5h-17.3a31 31 0 0 0-7.5 18.5c0 5 2.3 9.5 6 12.3h-.1Z" clip-rule="evenodd"/>
  </g>
  <defs>
    <clipPath id="a">
      <path fill="#fff" d="M0 0h150v150H0z"/>
    </clipPath>
  </defs>
</svg>
