<svg xmlns="http://www.w3.org/2000/svg" width="150" height="150" fill="none">
  <g clip-path="url(#a)">
    <path fill="#FFE5CC" fill-rule="evenodd" d="M139 46.3c16 17.9 9.5 28.6 6.3 34-6 10.4-18.3 3.3-37.9 23.3-19.6 20-7.2 23.1-29.6 32.2-22.4 9-24-13.5-43.3-7.2C15.3 134.9-5 117.9.1 103.7 5 89.5 15 70.1 29.8 72c14.9 1.9 17.2.5 25.7-5.9s3-16.4 10.3-25.4c6-7.4 21.1-10.6 27 .4 5.9 11 17.5 7.8 24.8 3.2 7.3-4.5 18.2-1.6 21.4 2Z" clip-rule="evenodd"/>
    <path fill="#fff" d="M74.8 57.1a10.3 10.3 0 1 0 0-20.7 10.4 10.4 0 1 0 0 20.7Z"/>
    <path fill="#62AB8D" fill-rule="evenodd" d="M63.1 47a12 12 0 0 1 24 0 12 12 0 0 1-24 0Zm2 0A10 10 0 0 0 85 47c0-5.4-4.4-9.8-10-9.8a9.8 9.8 0 0 0-9.8 9.8Z" clip-rule="evenodd"/>
    <path fill="#62AB8D" fill-rule="evenodd" d="m78.9 43.3-5.3 5.3-2.3-2.3a1 1 0 0 0-1.4 1.4l3 3a1 1 0 0 0 1.4 0l6-6c.4-.4.4-1 0-1.4a1 1 0 0 0-1.4 0Zm59.8 59.1a23 23 0 0 0-8 5.6s5.6-.3 9.6-2c3.7-1.5 8-5.4 8-5.5-.1 0-6 .4-9.6 2ZM114 66.2c3.1-1.8 5.5-1.5 5.5-1.4 0 0-1.5 2.3-4 3.8A11.3 11.3 0 0 1 110 70s1.5-2.4 4-3.8Zm3.4 6.2c2.6 1 3.2 2.9 3.2 2.9s-2.4.4-4.5-.5c-2-.8-3.2-2.8-3.2-2.8s2.4-.4 4.5.4Zm-1.2-24.8c3.2 2.6 3.4 5.4 3.4 5.5 0 0-3.6-.4-6.3-2.5a10 10 0 0 1-3.3-5.4s3.6.4 6.2 2.4Zm3.2-7.2c1.2 2.5 3 3 3.1 3 .1 0 .3-2.3-.7-4.4-1-2-3-3-3-3s-.3 2.5.6 4.4Zm11.9 21.9c-.7 2.7.3 4.3.4 4.3 0 0 1.7-1.6 2.3-3.8.6-2.1-.3-4.2-.3-4.3 0 0-1.8 1.7-2.4 3.8ZM129 75.9c-1.8 2.1-1.6 4-1.5 4 0 .1 2.3-.7 3.8-2.4 1.4-1.7 1.5-4 1.4-4 0 0-2.3.7-3.7 2.4Zm4-35.5c-2.9 0-4.2 1.5-4.2 1.6 0 0 2 1.2 4.4 1.2 2.2-.1 4-1.5 4-1.6 0 0-2.1-1.2-4.3-1.2Zm3.1 13.8c-3.5-.5-5.6.6-5.6.6 0 .1 2.3 1.7 5.2 2.1a10 10 0 0 0 5.5-.6s-2.3-1.7-5-2.1Zm-17.6 44.4c2.3 2.7 2.3 5 2.3 5s-2.6-1-4.5-3.3a11.3 11.3 0 0 1-2.3-5s2.7 1.1 4.5 3.3Zm15.2 12.4c-3.3 1.6-4.3 3.7-4.3 3.7s2.8.1 5.5-1.1c2.6-1.2 4.2-3.5 4.2-3.6 0 0-2.9 0-5.4 1Zm1.9-22.5c-3.5-.5-5.6.6-5.6.7 0 0 2.3 1.6 5.2 2 2.8.5 5.5-.5 5.5-.5 0-.1-2.3-1.7-5-2.2Zm-8.7-25.1c.9 3.5 2.7 4.9 2.8 4.8 0 0 .6-2.7-.1-5.5-.8-2.7-2.7-4.7-2.8-4.7 0 0-.7 2.8 0 5.4Zm-16.4 16.1c3.6-.2 5.4-1.8 5.4-1.8 0-.1-2.6-1.1-5.6-1a11 11 0 0 0-5.2 1.9s2.7 1.1 5.4 1Zm8.9 7.3c.9 3.5 2.8 4.9 2.8 4.8 0 0 .6-2.7-.1-5.5-.8-2.7-2.7-4.8-2.8-4.7 0 0-.6 2.7 0 5.4Zm8.9 12.2c-1.4 3.3-.7 5.5-.7 5.5s2.1-1.7 3.3-4.5c1-2.5.7-5.3.7-5.4 0 0-2.3 1.9-3.3 4.4Zm5.1-63.6c-3.2 1.7-4 3.9-4 4 0 0 2.8-.2 5.4-1.7 2.4-1.3 4-3.8 3.9-3.8 0 0-3 0-5.3 1.5Zm-10.9-7.8a24 24 0 0 0 2.2 10c.1 0 2-5.6 2-10 0-4.3-2-10-2.1-10 0 0-2 5.8-2 10Z" clip-rule="evenodd"/>
    <path fill="#0D7D50" fill-rule="evenodd" d="m124.4 48.2-6.2-4 6.6 3.3-.4.7Z" clip-rule="evenodd"/>
    <path fill="#62AB8D" fill-rule="evenodd" d="M135 79.6a23.8 23.8 0 0 0-7.3 6.4c.1 0 5.6-.9 9.3-3a30 30 0 0 0 7.4-6.3s-5.8 1-9.3 3Zm3.4-15.4a24 24 0 0 0-7.4 6.4c.1 0 5.6-.9 9.3-3a30 30 0 0 0 7.4-6.3s-5.8 1-9.3 3Zm-6-18.5A16.8 16.8 0 0 0 128 51c0 .1 3.7-1.2 6-3a22 22 0 0 0 4.3-5.2s-3.9 1.3-6 3Zm-14-3.6c3 2 3.7 4.3 3.6 4.3 0 0-2.8-.3-5.2-2a10.7 10.7 0 0 1-3.6-4.1s2.9.3 5.2 1.8Zm-3.2 61.9c3.4 4 4.7 8.5 4.7 8.5-.1 0-5-2.7-7.7-5.9-2.7-3-4.8-8.4-4.7-8.4 0 0 5.1 2.8 7.7 5.9Zm-1.5-18c3.9 3.3 5.8 7.6 5.8 7.7-.1 0-5.3-2-8.5-4.8a33 33 0 0 1-5.8-7.7s5.5 2.1 8.5 4.7Zm-.7-32.4c4.6 2.4 7.5 6.1 7.5 6.1 0 .1-5.6-.6-9.4-2.5-3.6-1.9-7.6-6-7.5-6.1 0-.1 5.8.7 9.4 2.5Z" clip-rule="evenodd"/>
    <path fill="#0D7D50" fill-rule="evenodd" d="m124.6 28.9 1 97.9h-2.1l1-98Z" clip-rule="evenodd"/>
    <path fill="#0D7D50" fill-rule="evenodd" d="m124.7 73.5 14-6.7-13.7 7.4-.3-.7Zm-.3-11.2L113.6 56l11.2 5.5-.4.7Zm0-20.9 10.3-4.7-10 5.4-.3-.7Zm.8 67.9 4.8-10.1-4 10.4-.8-.3Zm-2-12.4-2.3-11 3 10.8-.7.2Zm1.4-19.1L110 78l14.7-.9v.8Z" clip-rule="evenodd"/>
    <path fill="#0D7D50" fill-rule="evenodd" d="m130 71-1.7-8.5 2.5 8.2-.8.2Zm-5.3 17 11.2 2.2-11.3-1.4.1-.8Zm-.3 28.7 10.5-4.4-10.2 5-.3-.6Zm-.4-8.7-7.1-8.8 7.6 8.3-.6.5Zm1.2-54.3 11.2 2.2-11.3-1.5.1-.7Zm-.6-12 8.9.3-9 .4v-.7Zm-.1 41.3 6-6.5-5.5 7-.5-.5Z" clip-rule="evenodd"/>
    <path fill="#0D7D50" fill-rule="evenodd" d="m130.3 70.6 2.7-8.4-2 8.6-.7-.2ZM124 47.4l-3.3-8.1 4 7.8-.7.3Zm.1 10-10-8.4 10.7 7.6-.7.8Zm.3 19.8-8.2-3.5 8.5 2.9-.3.6Zm0-14.7-10 5.4 9.6-6.1.4.7Zm-.2 35.8-10-9.2 10.5 8.6-.5.6Zm.2 11.4 15.2-5-14.9 5.7-.3-.7Zm-.1-21.9 8-4.8-7.5 5.4-.5-.6Zm-.8 29.2-7.5-8.5 8 7.9-.5.5Zm.8-62.9 7-6.3-6.5 6.9-.5-.6Z" clip-rule="evenodd"/>
    <path fill="#CCC" fill-rule="evenodd" d="M115.4 149.6h18.8c3.3-2.7 5.3-6.7 5.3-11.3 0-5.2-2.7-12.3-6.9-16.8H117a27.4 27.4 0 0 0-6.9 16.8c0 4.6 2.1 8.6 5.4 11.3Z" clip-rule="evenodd"/>
    <path fill="gray" fill-rule="evenodd" d="M73.7 142.2h.5c1-.3 1.7-1.4 1.4-2.4L65.3 106a2 2 0 0 0-2.5-1.3c-1 .3-1.7 1.3-1.4 2.3l10.4 33.9c.2.8 1 1.3 1.9 1.3Zm-51.7 0h-.6c-1-.3-1.7-1.4-1.4-2.4L30.3 106a2 2 0 0 1 2.5-1.3c1.1.3 1.7 1.3 1.4 2.3L24 140.9a2 2 0 0 1-2 1.3Z" clip-rule="evenodd"/>
    <path fill="#B3B3B3" fill-rule="evenodd" d="m83.6 149.4.6-.1c1-.3 1.7-1.3 1.4-2.3L73 106a2 2 0 0 0-2.5-1.3c-1.1.3-1.7 1.3-1.4 2.3l12.5 41a2 2 0 0 0 1.9 1.4Z" clip-rule="evenodd"/>
    <path fill="#FF9633" fill-rule="evenodd" d="M41.2 95.5c-13.8-3.7-17.5-14.8-28-47-1.4-4-6.8-7-6.3 2 .7 10.3 2 23.7 4 34 1.7 7.9 1.4 23.9 22.9 23.9h38c2.3 0 5.2-1.5 5.2-3.6 0-1.7-2.1-3.6-7.7-5-15-4-17.7-1.6-28-4.3Z" clip-rule="evenodd"/>
    <path fill="#994A00" fill-rule="evenodd" d="M80.7 135.4V147H86l-.8-11.5h-4.5ZM43.2 40.9l-7.1-2.2 3.7-14.6 4.4 1.3-1 15.5Z" clip-rule="evenodd"/>
    <path fill="#994A00" fill-rule="evenodd" d="M45 9.8c-5 .4-7.6 4.7-6.5 11.7 1 6.7 5.6 11.6 9.1 11.3 3.8-.3 6.2-6 6.5-12.5.4-7-3.6-10.8-9-10.5Z" clip-rule="evenodd"/>
    <path fill="#041B2F" fill-rule="evenodd" d="M44.5 20.1c1.2-2.3.9.2 2.6 0 1.7-.2 7-2.5 7.4-3.9.4-1.3-.4-6.2-7.4-7.5-6.4-1.2-10.4 2.7-12 7.6-1.3 4.2 1 9.2 4.2 8.5" clip-rule="evenodd"/>
    <path fill="#041B2F" fill-rule="evenodd" d="M43.7 20.2s-.2 3.7.7 5.2c1 1.4 0-4.6.7-6 .7-1.4-1.4.8-1.4.8Z" clip-rule="evenodd"/>
    <path fill="#994A00" d="M42.6 24.5c.9 0 1.6-1 1.6-2.1s-.7-2-1.6-2c-.9 0-1.6.9-1.6 2s.7 2 1.6 2Z"/>
    <path fill="#041B2F" fill-rule="evenodd" d="M39.4 1c-3.4 1.5-5.8 3.3-4.8 6.3 1 2.9 5 5.2 8.4 3.8 3.4-1.4 4.9-6 3.8-9-1-2.8-4-2.4-7.4-1Z" clip-rule="evenodd"/>
    <path fill="#994A00" fill-rule="evenodd" d="M77.4 76.1c0 1.4-2 3-4.8 3.2-2.6.2-4.3-1.4-4.3-2.8" clip-rule="evenodd"/>
    <path fill="#333" fill-rule="evenodd" d="m79.3 73.2-8.1 8.3c-.4.4-1 .3-1.2-.1l-2.2-4a.7.7 0 0 1 0-.9l8.1-8.1c.4-.3.9-.3 1.1.1l2.4 3.8c.2.3.1.7 0 .9Z" clip-rule="evenodd"/>
    <path fill="#994A00" fill-rule="evenodd" d="m64 124-5 9 4 5.5 5-12.5-4-2Z" clip-rule="evenodd"/>
    <path fill="#1ECBE1" fill-rule="evenodd" d="m76.1 69.2 2.2 3.6-7.2 7.4-2.2-3.7 7.2-7.3Z" clip-rule="evenodd"/>
    <path fill="#F66" fill-rule="evenodd" d="m72.7 68-.6-.3-3-3a.7.7 0 0 1 0-1c.3-.3.8-.3 1 0l3 3c.4.2.4.7 0 1l-.4.2Zm4.1-1.6a.8.8 0 0 1-.8-.7v-4.3c0-.4.3-.7.8-.7.4 0 .7.3.7.7v4.3c0 .4-.3.7-.7.7Zm3.5 1.9-.6-.2a.7.7 0 0 1 0-1l3-3c.3-.4.8-.4 1 0 .4.2.4.7 0 1l-3 3-.4.2Z" clip-rule="evenodd"/>
    <path fill="#0C515A" fill-rule="evenodd" d="M48 80.6c4.6 8 32.3 5.3 36.3 11.2 5.3 7.9-16.6 38.5-16.6 38.5l-7.3-4.4s11.2-21.6 10.7-23.2c-.5-2-31 2.7-39.2-4.7-6.4-5.8-3.2-17.4-3.2-17.4" clip-rule="evenodd"/>
    <path fill="#0C515A" fill-rule="evenodd" d="M45.8 80.6c4 10 37 6.2 41.8 14.9 3.7 7-.1 42.4-.1 42.4l-8.8-.3s0-30.1-1.6-32.1c-1.3-1.6-36.4 2-45.1-4.8-7.6-5.8-3.3-20.1-3.3-20.1" clip-rule="evenodd"/>
    <path fill="#994A00" fill-rule="evenodd" d="m44.2 44 5 30.5-2.4-2.2L67.5 74l2 .1s2-.6 1 1.4c-1 2.1-3.1 2.5-3.1 2.5l-20.8-.3c-1.2 0-2.1-.9-2.4-2v-.2L38 45.4l-.7-3.3 6.4-1.4" clip-rule="evenodd"/>
    <path fill="#900" fill-rule="evenodd" d="M34.4 44.8C33.9 52 38.3 71 45.2 77.5c4.1 3.8 17.8 1.2 17.8 1.2l.6-5.7s-10.2 1.7-12.5-4.7c-2.4-6.4-3.8-23.8-7.3-26.5" clip-rule="evenodd"/>
    <path fill="#C40000" fill-rule="evenodd" d="M36.4 36.7S22.3 58 24.3 81.1c0 0-1.3 4.5 14 4.4 15.3 0 16.3-2.3 16.3-2.3a167.8 167.8 0 0 1-9.2-43.7" clip-rule="evenodd"/>
    <path fill="#994A00" fill-rule="evenodd" d="M41 48.8A197.4 197.4 0 0 0 32.2 65a50.8 50.8 0 0 0-2.5 6.9l-.3 1.5a110.2 110.2 0 0 0-1.5 9.2L26.6 95l-.2 2-3.6-.3v-2a371.6 371.6 0 0 1 1.4-19.2l.4-3.2.3-1.7a36 36 0 0 1 2.5-8l2.5-6c1.7-3.9 3.6-7.6 5.6-11.4l1.6-3 5.5 3.6" clip-rule="evenodd"/>
    <path fill="#C40000" fill-rule="evenodd" d="M43.3 46.5c.7 4.5-9.5 18.1-12 24.4C29 77.3 28 92.1 28 92.1l-5.6-.5s-1-14.7 1.4-24.2 5.7-21 10.8-25.8c2.3-2.2 8 1 8.7 4.9Z" clip-rule="evenodd"/>
    <path fill="#994A00" fill-rule="evenodd" d="M24.7 95.4c-1.3-.3-3.2 2-3.7 5.7-.5 4.1.4 7.4 1.7 7.7 2 .5 5-13 2-13.4Z" clip-rule="evenodd"/>
    <path fill="#994A00" fill-rule="evenodd" d="M26 96.6c.5 0 1.2 1.2 1.4 3.2 0 2-.4 3.7-1 3.8-.9.1-1.8-6.9-.5-7Z" clip-rule="evenodd"/>
    <path fill="#F66" fill-rule="evenodd" d="m96.2 148-2.3-.5-8.4-3.5s-.1 1.6-1.8 1.9c-1.3.2-2.2-.2-2.5-.4H81c-.5 0-1 .9-1 2.1l.1 1.1v1.7h16.7v-1.7m-26.6-3.6-1.5-1.8L64 135s-1 1.2-2.6.3a4 4 0 0 1-1.7-2v-.1c-.5-.4-1.4 0-2.1 1-.3.3-.4.7-.5 1l-1 1.3 13.1 11 1-1.3" clip-rule="evenodd"/>
    <path fill="#994A00" fill-rule="evenodd" d="M75 73.6c0-.6-1.6-.9-3.5-.5-1.8.4-2.9 1.4-2.7 2" clip-rule="evenodd"/>
  </g>
  <defs>
    <clipPath id="a">
      <path fill="#fff" d="M0 0h150v150H0z"/>
    </clipPath>
  </defs>
</svg>
