<svg xmlns="http://www.w3.org/2000/svg" width="150" height="150" fill="none">
  <path fill="#FFE5CC" fill-rule="evenodd" d="M149.8 65c2.2-20.7-16.5-22.5-21.3-31.4-4.7-9-4.9-37.6-33.2-27.5C67 16.3 75.8 31.3 43.6 24.3 11.5 17.4-8.8 54 3.7 83.2 16.3 112.3 37.3 95.6 33 125c35.5-5 31.4-10.5 50 0 15.7-18.4 30.2 5.3 39.5 0s24.5-15.6 21.9-28.3c-2.7-12.8 4.6-24 5.4-31.7Z" clip-rule="evenodd"/>
  <path fill="#E7F3FD" d="M79 129.5c-38.6 0-70-3.2-70-7.2s31.4-7.1 70-7.1c38.7 0 70 3.2 70 7.1 0 4-31.3 7.2-70 7.2Z"/>
  <path fill="#127A87" d="M138.1 62H22v5h116v-5Z"/>
  <path fill="#333" fill-rule="evenodd" d="M40 60.3h-1.4v-11L21.2 34.8l16.7-20 8.3 7-.9 1-7.3-6.2-15 18 17 14.3v11.5Z" clip-rule="evenodd"/>
  <path fill="#333" d="M40 100.8H29.5v2.5H40v-2.5Zm92 0h-10.6v2.5h10.5v-2.5Z"/>
  <path fill="#333" fill-rule="evenodd" d="M104.6 128.6c-.6 0-1.2-.4-1.4-1l-8.6-30.8a1.4 1.4 0 0 1 2.7-.8l8.6 30.8a1.4 1.4 0 0 1-1.3 1.8Zm-6.9-5.4c-.6 0-1.2-.4-1.4-1l-7.1-25.4c-.2-.7.2-1.5 1-1.7.7-.2 1.5.2 1.7 1l7.1 25.4c.2.7-.2 1.5-1 1.7h-.3Z" clip-rule="evenodd"/>
  <path fill="#E6E6E6" fill-rule="evenodd" d="M127.3 47.2c0 1.1-1 2-2 2H65.6a2 2 0 0 1-2-2V16.5c0-1.1.9-2 2-2h59.5c1.2 0 2.1.8 2.1 2v30.7Z" clip-rule="evenodd"/>
  <path fill="#333" fill-rule="evenodd" d="M127.3 44.5v-28c0-1.1-1-2-2-2H65.6a2 2 0 0 0-2 2v28h63.6Z" clip-rule="evenodd"/>
  <path fill="#4D4D4D" d="M125 16.8H66v25.5h59V16.8Z"/>
  <path fill="#0C515A" fill-rule="evenodd" d="M24 34.3a1.8 1.8 0 1 1-1.8-1.8c1 0 1.8.8 1.8 1.8Zm15.6-18.7a1.8 1.8 0 1 1-3.6 0 1.8 1.8 0 0 1 3.6 0Z" clip-rule="evenodd"/>
  <path fill="#333" fill-rule="evenodd" d="m119.6 120.7 7-48 7.1 48h2.4l-8.3-55.2h-2.3l-8.3 55.2h2.4Zm-92 0 7.1-48 7 48h2.5l-8.3-55.2h-2.3l-8.3 55.2h2.3Z" clip-rule="evenodd"/>
  <path fill="#0C515A" d="m43.4 17.2-3.3 3.6 3.7 3.5 3.4-3.6-3.8-3.5Z"/>
  <path fill="#0C515A" fill-rule="evenodd" d="m60.7 27.3-7.5-6.8a6.8 6.8 0 0 0-9.5.3 6.7 6.7 0 0 0 .4 9.5l8 6.7 8.6-9.7Z" clip-rule="evenodd"/>
  <path fill="#333" d="M44.7 58.7H33.2v3.2h11.5v-3.2Z"/>
  <path fill="#333" fill-rule="evenodd" d="M55.5 128.6H55c-.8-.3-1.2-1-1-1.8L62.8 96a1.4 1.4 0 0 1 2.7.8l-8.7 30.8c-.2.6-.7 1-1.3 1Z" clip-rule="evenodd"/>
  <path fill="#CCC" fill-rule="evenodd" d="M99.8 51.6v-2.3H88.7v2.3c0 4.1-4.2 6.2-7.5 7.6h26.7c-3.4-1.4-8-3.6-8-7.6Z" clip-rule="evenodd"/>
  <path fill="#0C515A" fill-rule="evenodd" d="M40.8 49.3c0 1-.8 1.8-1.8 1.8a1.8 1.8 0 1 1 1.8-1.8Z" clip-rule="evenodd"/>
  <path fill="#E6E6E6" d="M107.9 59.2H81.2v2.7h26.7v-2.7Z"/>
  <path fill="#333" fill-rule="evenodd" d="M62.4 123.2H62c-.7-.2-1.2-1-1-1.7L68.2 96c.2-.7 1-1.2 1.7-1 .8.3 1.2 1 1 1.8l-7.2 25.4c-.2.6-.7 1-1.3 1Z" clip-rule="evenodd"/>
  <path fill="#FF9633" fill-rule="evenodd" d="M102 92.1a57.5 57.5 0 0 1-1.2-33.6c0-2.3-2-4.3-4.3-4.3H63.7a4.3 4.3 0 0 0-4 6.2 56 56 0 0 1-1.6 31.7c-.7.7-1 1.5-1 2.2 0 4.2 10.3 7.5 23 7.5s23-3.4 23-7.5c0-.7-.4-1.5-1-2.2Z" clip-rule="evenodd"/>
  <path fill="#0C515A" fill-rule="evenodd" d="M46.9 120.7H32.3l-4-25.2h23.3l-4.7 25.2Z" clip-rule="evenodd"/>
  <path fill="#E6E6E6" fill-rule="evenodd" d="M105.4 20.7H85.5a3.1 3.1 0 0 0-3.1 3.2v11.3c0 1.7 1.4 3.1 3.1 3.1h19.9c1.7 0 3.1-1.4 3.1-3.1V23.9c0-1.8-1.4-3.2-3.1-3.2Zm0 1H85.5a2 2 0 0 0-2 2.2V25l10.8 6c.7.4 1.6.4 2.3 0l10.9-6.2v-1c0-1-1-2-2.1-2Zm1.8 14.5-6.5-6.4 6.8-3.8v9.2c0 .4-.1.7-.3 1Zm-23.5 0a2 2 0 0 1-.2-1v-9l6.7 3.7-6.5 6.3Zm.8.8c.3.2.6.3 1 .3h19.9a2 2 0 0 0 1-.3l-6.6-6.7-2.6 1.5a3.1 3.1 0 0 1-3.4 0L91 30.4 84.5 37Z" clip-rule="evenodd"/>
</svg>
