<svg xmlns="http://www.w3.org/2000/svg" width="150" height="150" fill="none">
  <path fill="#FFE5CC" fill-rule="evenodd" d="M109 52.6c12.6 14 7.5 22.3 5 26.7-4.7 8-14.3 2.5-29.6 18.2s-5.6 18-23 25.2c-17.6 7-19-10.6-33.9-5.7-15 5-30.8-8.3-26.9-19.5 4-11 11.7-26.3 23.2-24.8 11.6 1.5 13.5.4 20-4.6 6.7-5 2.5-12.8 8.1-19.9 4.7-5.8 16.5-8.3 21.1.3 4.6 8.6 13.6 6 19.3 2.5 5.7-3.5 14.3-1.2 16.8 1.6Z" clip-rule="evenodd"/>
  <path fill="#B3B3B3" fill-rule="evenodd" d="M109.1 28.4H69.7c0 4.6-3.6 8.3-8.2 8.4v91.3l.2.2h47.4c.1 0 .2 0 .2-.2V28.6c0-.1 0-.2-.2-.2Z" clip-rule="evenodd"/>
  <path fill="#666" fill-rule="evenodd" d="M149.5 128.3H107V31.2h42.5c.1 0 .2 0 .2.2V128l-.2.2Z" clip-rule="evenodd"/>
  <path fill="#666" fill-rule="evenodd" d="M139.5 90h5V78.3h-5v4.9l-.2.2c-1 .2-2 .2-4 .2h-1.8c-.7 0-1.3.3-.8.5.5.3 4.4.5 6.8.6v5.1Z" clip-rule="evenodd"/>
  <path fill="#fff" fill-rule="evenodd" d="M69.3 31.2a8.5 8.5 0 0 1-5.5 5.2v92H107V31.1H69.3Z" clip-rule="evenodd"/>
  <path fill="#62AB8D" fill-rule="evenodd" d="M64.3 25.5 60 29.7l-1.8-1.8a.8.8 0 0 0-1.1 1.1l2.4 2.3a.8.8 0 0 0 1 0h.1l4.7-4.6c.3-.4.3-.9 0-1.2a.8.8 0 0 0-1.1 0Z" clip-rule="evenodd"/>
  <path fill="#E6E6E6" fill-rule="evenodd" d="M144.6 78.1h-5c-.2 0-.4.1-.4.3v4.8c-.6.2-1.2.2-2.3.2h-3.4c-.5 0-1.2.1-1.3.5 0 .1 0 .4.4.6.5.2 4.4.4 6.6.5v5l.3.2h5c.2 0 .4-.1.4-.3V78.4c0-.2-.2-.3-.3-.3Zm-4.8 11.5h4.5v-11h-4.5v4.2a4 4 0 0 1 2-.5c1.8 0 2.2.6 2.2 1.2v.3c-.3.8-1.5 1.3-3.3 1.3h-.9v4.5ZM133 84h3.9c1 0 1.7 0 2.4-.2l.2-.1s.8-.9 2.4-.9c.7 0 1.5.2 1.5.7v.1c-.2.6-1.2.9-2.7.9-2.3 0-6.8-.3-7.7-.5Z" clip-rule="evenodd"/>
  <path stroke="#E6E6E6" d="m106.9 111.5-43.1 16.7"/>
  <path fill="#E6E6E6" fill-rule="evenodd" d="M106.9 111.8v16.4H64l42.9-16.4Z" clip-rule="evenodd"/>
  <path fill="#62AB8D" fill-rule="evenodd" d="M71.6 80.3c1.6-1 2.9-.8 2.9-.8s-.8 1.3-2.2 2c-1.2.8-2.7.8-2.8.8 0 0 .8-1.3 2.1-2Zm1.8 3.3C74.7 84 75 85 75 85s-1.3.2-2.4-.2c-1-.5-1.7-1.5-1.7-1.6 0 0 1.3-.2 2.4.3Zm-.7-13.2c1.7 1.4 1.9 3 1.8 3 0 0-1.8-.3-3.3-1.4a5.3 5.3 0 0 1-1.7-2.8s1.9.2 3.2 1.2Zm1.7-3.8c.7 1.4 1.6 1.7 1.7 1.7 0 0 .1-1.3-.4-2.4-.5-1-1.6-1.6-1.6-1.6s-.2 1.3.3 2.3Zm6.3 11.6c-.4 1.4.1 2.3.2 2.3 0 0 .9-.8 1.2-2 .3-1.1-.1-2.3-.2-2.3 0 0-1 1-1.2 2Zm-1.3 7.2c-.9 1.2-.8 2.2-.7 2.2 0 0 1.2-.4 2-1.3.7-1 .8-2.1.7-2.2 0 0-1.2.4-2 1.3Zm2.1-18.8c-1.5 0-2.2.8-2.2.9 0 0 1.1.6 2.4.6 1.1 0 2-.8 2-.8s-1-.7-2.2-.7Zm1.7 7.4c-1.9-.4-3 .2-3 .3 0 0 1.2.8 2.8 1 1.4.3 2.8-.2 2.8-.2s-1.2-1-2.6-1.2ZM74 97.4c1.1 1.5 1.2 2.7 1.2 2.7s-1.4-.5-2.4-1.7a5.8 5.8 0 0 1-1.2-2.7s1.4.6 2.4 1.7Zm8 6.6c-1.8.9-2.3 2-2.3 2s1.4 0 2.9-.6a5.9 5.9 0 0 0 2.2-1.9s-1.6 0-2.9.6Zm1-11.9c-2-.3-3 .3-3 .4 0 0 1.2.8 2.7 1 1.5.3 2.9-.2 2.9-.3 0 0-1.2-.9-2.7-1Zm-4.7-13.3c.5 1.8 1.5 2.6 1.5 2.6s.4-1.5 0-3a5.7 5.7 0 0 0-1.5-2.5s-.3 1.5 0 3Zm-8.5 8.5c1.9 0 2.8-1 2.8-1s-1.4-.5-3-.4c-1.4.1-2.7 1-2.7 1s1.4.5 2.9.4Zm4.6 3.9C75 93 76 93.8 76 93.8s.3-1.5 0-3a5.7 5.7 0 0 0-1.5-2.5s-.4 1.5 0 3Zm4.6 6.5c-.6 1.7-.3 2.9-.3 3 0 0 1.2-1 1.7-2.5.6-1.3.4-2.8.4-2.8s-1.2 1-1.7 2.3ZM81.8 64c-1.7.9-2.1 2-2.1 2 0 .1 1.4 0 2.8-.8 1.3-.7 2-2 2-2s-1.5 0-2.7.8ZM76 59.8c0 3 1.2 5.3 1.2 5.3s1.1-3 1.1-5.3c0-2.2-1-5.3-1.1-5.3 0 0-1.1 3.1-1.1 5.3Zm6.6 27.6a12.5 12.5 0 0 0-3.8 3.4s3-.5 4.9-1.6c1.9-1 3.8-3.3 3.8-3.3s-3 .5-4.9 1.5Zm1.8-8.2a12.6 12.6 0 0 0-3.9 3.4s3-.4 5-1.5c1.8-1 3.8-3.3 3.8-3.4 0 0-3 .5-5 1.5Zm-3.2-9.7a8.9 8.9 0 0 0-2.2 2.7s2-.6 3.2-1.6c1.1-1 2.2-2.8 2.2-2.8s-2 .7-3.2 1.7Zm-7.3-2c1.5 1.1 2 2.3 2 2.3a5.7 5.7 0 0 1-4.6-3.3c-.1 0 1.4.2 2.6 1Zm-1.7 32.9c1.8 2 2.5 4.4 2.5 4.4s-2.6-1.4-4-3a15.6 15.6 0 0 1-2.5-4.6s2.7 1.6 4 3.2Zm-.8-9.6c2 1.7 3 4 3 4s-2.7-1-4.4-2.5c-1.6-1.4-3-4-3-4 0-.1 2.8 1 4.4 2.5ZM71 73.6c2.5 1.3 4 3.2 4 3.3 0 0-3-.4-5-1.4-1.8-1-3.9-3.2-3.9-3.2s3 .4 5 1.3Z" clip-rule="evenodd"/>
  <path fill="#0D7D50" fill-rule="evenodd" d="m77.1 60.5.6 51.9h-1.1l.5-51.9Z" clip-rule="evenodd"/>
  <path fill="#0D7D50" fill-rule="evenodd" d="m77.2 84.2 7.4-3.6-7.2 4-.2-.4Zm-.2-6L71.4 75l5.8 2.8-.2.4Zm0-11.1 5.5-2.5-5.2 3-.2-.5Zm.5 36 2.5-5.3-2.1 5.5-.4-.2Zm-1.1-6.5-1.2-5.9 1.6 5.8h-.4Zm.8-10.1h-7.8l7.7-.5v.5Z" clip-rule="evenodd"/>
  <path fill="#0D7D50" fill-rule="evenodd" d="m80 82.8-.9-4.5 1.3 4.4-.4.1Zm-2.8 9 5.9 1.2-6-.7.1-.5ZM77 107l5.5-2.3-5.3 2.7-.2-.4Zm-.2-4.5-3.7-4.7 4 4.4-.3.3Zm.7-28.9 5.8 1.2-5.9-.7v-.5Zm-.4-6.3 4.7.2-4.7.2v-.4Zm0 21.9 3.2-3.4-3 3.6-.2-.2Z" clip-rule="evenodd"/>
  <path fill="#0D7D50" fill-rule="evenodd" d="m80.1 82.6 1.5-4.4-1.1 4.5-.4-.1Zm-3.2-12.3L75 66l2.1 4.2-.3.1Zm.1 5.3-5.4-4.4 5.7 4-.4.4Zm0 10.5-4.2-1.8 4.4 1.5-.2.3Zm0-7.8-5.2 2.9 5-3.3.2.4Z" clip-rule="evenodd"/>
  <path fill="#62AB8D" fill-rule="evenodd" d="M84.5 99.5a9.2 9.2 0 0 0-4.1 3s3-.2 5-1a16 16 0 0 0 4.1-3s-3 .2-5 1Z" clip-rule="evenodd"/>
  <path fill="#0D7D50" fill-rule="evenodd" d="m77 97.3-5.3-4.8 5.5 4.5-.3.3Zm0 6 8-2.6-7.8 3-.1-.4Zm0-11.6 4.2-2.5-4 2.9-.2-.4Zm-.4 15.5-4-4.5 4.3 4.2-.3.3Zm.4-33.3 3.6-3.3-3.3 3.6-.3-.3Zm0-3.2-3.2-2 3.5 1.7-.2.3Z" clip-rule="evenodd"/>
  <path fill="#CCC" fill-rule="evenodd" d="M72.3 124.5h9.9a7.7 7.7 0 0 0 2.8-6c0-2.7-1.5-6.5-3.6-8.9H73a14.6 14.6 0 0 0-3.6 8.9c0 2.4 1.1 4.6 2.8 6Z" clip-rule="evenodd"/>
  <path fill="#999" fill-rule="evenodd" d="M106.8 31H69.3l-.1.4h37.6v96.7H64V36.3l-.5.2v91.6c0 .3.2.5.4.5h42.8c.3 0 .5-.2.5-.5V31.4c0-.3-.2-.5-.5-.5Z" clip-rule="evenodd"/>
  <path fill="#62AB8D" fill-rule="evenodd" d="M52 28.4a9.3 9.3 0 0 1 18.6 0 9.3 9.3 0 0 1-18.6 0Zm1.5 0a7.7 7.7 0 1 0 15.5 0 7.7 7.7 0 0 0-15.5 0Z" clip-rule="evenodd"/>
  <path fill="#FFA856" d="M39.1 38.6c2-.3 4.8 1.4 5 3.9.3 2.5.5 6.7-1 7.2-.7.2-3.2-.3-3.2-.3l.3 3-4.6-.4 1-4.1s-4.1-8 2.5-9.3Z"/>
  <path fill="#08375E" d="M40.6 41.7c-.7 1.7-.4 4.2-1.3 2-.5-1.1-1.4-.9-1.9 0-.6 1 .5 2 .4 2.3-.1.3-1.3 1.8-1.6 1.8-.3 0-2.6-4.6-1.2-7.5 1.5-3.1 7-3 8-.2-.4 0-1.7 0-2.4 1.6Z"/>
  <path fill="#08375E" fill-rule="evenodd" d="M44 38.9c-1.1-.6-3.8-.1-4.5.9l1-.1c5.7.3 4 2 3.5-.8Z" clip-rule="evenodd"/>
  <path fill="#FFA856" d="M52.7 88.6v.9s-.3.7 0 .8c.3.2.6-.7.6-.7l-.3-.8-.3-.2Zm1.1 1.3.2-.5-.9-2c0-.3-1-1-1-1l.5 1.5 1.2 2Z"/>
  <path fill="#FFA856" d="m53 89.2-.2.8-.4.5v.5l.8-.6.3-1-.4-.2Z"/>
  <path fill="#FFA856" d="m53.3 89.5-.3 1s-.5.7-.4 1c0 .2.2.2.2.2l.7-.9-.2-1.3Z"/>
  <path fill="#FFA856" d="m50 83.4.9 1 1.4 2c.3.2.7 1.2.9 1.6l.6 1.5c.2.7-.2 2.2-.3 2.3-.2 0-.3-.3-.3-.5v-1.5l-.7-1.3-.5-.3-.5.1.2.8s.8 1 .6 1.2c-.3.3-.8-.4-1-.6-.3-.4-.9-1-1-1.4-.4-.6-.9-2.5-.9-2.5l-.8-1.3 1.4-1Z"/>
  <path fill="#127A87" d="M36 63.1 40.9 75l7.3 11 2.7-2.6-4.8-11.5-1.5-4.7-8.6-4Z"/>
  <path fill="#FFA856" d="m19.8 122 1.5 1.6 1.7-1 1-2-3.1-1.2-1.1 2.5Z"/>
  <path fill="#666" d="M43.1 84.4s-8 18.3-9.6 21c-1.2 1.7-5.6 11-8 16.4l-5.1-2.5a38 38 0 0 1 2.9-10.1c3.3-7 5.6-10.7 6.8-16.6 1.3-5.9 0-12.5 1.6-15.7 1.6-3.2 11.4 7.5 11.4 7.5Z"/>
  <path fill="gray" d="M31.8 80.3S41.4 99.4 42 101c.7 1.8.6 5.5 3.4 11.3 1.4 2.9 3.6 7.7 5 10L55 121l-5.2-18.7c-.8-3-4.1-22.1-4.1-22.1-5.1-1.1-12.8 2.2-14 0Z"/>
  <path fill="#FFA856" d="m52 126 2.3 1.2.2-3.3-.6-2.7-3 1 1.2 3.7Z"/>
  <path fill="#127A87" d="M37.3 50c-2 .1-3.8 2.2-5 6-1 6.7-.9 28.2-3 30.5-2 2.3 18 0 18 0s-2.4-32.3-6-35c-1.4-1.2-2.3-1.6-4-1.5Z"/>
  <path fill="#F66" d="M51.6 125c-.2.1.5 4 1 4a49 49 0 0 0 9.7-4c.2-.3-.6-1.4-.8-1.4-3.8.3-7-.6-7-.6s-.8.7-.5 1.1l.2.2s-.4.7-1 .9c-.5.1-1.2-.5-1.6-.2ZM20 121.2c-.1 0-2.2 3.2-2 3.5.2.4 9 4.6 9.7 4.3.3-.2.6-1.5.4-1.6-3-2.5-4.6-5.5-4.6-5.5s-1 0-1 .5v.2s-.8.3-1.3 0-.6-1.3-1.1-1.4Z"/>
  <path fill="#FFA856" d="M27 89.7v-3.6l-1.9-.8v.4l-.4 1.2-.2 2-1.1 2.2c0 .2.3.2.3.2l1.3-1.9.2.3-.4 1-1 1.5c0 .2.2 0 0 .5-.1.3.3.4.3.4l2-1.3.8-2Z"/>
  <path fill="#127A87" d="m24.7 86 3.2 1 1.4-13.7s13.5-20 7.5-20.9c-6-1-11 18-11.7 19.8-.9 1.9-.4 13.4-.4 13.4v.3Z"/>
</svg>
