<svg xmlns="http://www.w3.org/2000/svg" width="150" height="150" fill="none">
  <path fill="#FFE5CC" fill-rule="evenodd" d="M15.6 114.7c8.3 16.5 25.1 9.7 33.6 14.4 8.4 4.7 22.6 26.1 41.7 6.2 19.2-20 4.4-27.5 35.2-36.3 30.8-8.8 30-45.2 5-61.7-24.9-16.6-34.6 5.2-45.4-18.8-10.7-24-43.3-3.9-47.6 16.8C33.7 56 11.5 47 6 55 .7 63-4 80 4.6 88.4c8.5 8.5 7.8 20.1 11 26.3Z" clip-rule="evenodd"/>
  <path fill="#0C515A" fill-rule="evenodd" d="M32.7 62a2 2 0 0 1 2.1 2v11c0 1-1 2-2 2a2 2 0 0 1-2.1-2V64c0-1.1.9-2 2-2Zm11.1-11.2c0 1 .7 1.7 1.7 2 4.1.7 7.2 4.1 7.2 8.2v12.7c0 1 1 2 2.1 2a2 2 0 0 0 2-2V61c0-6-4.5-11-10.5-12.1-1.3-.3-2.5.6-2.5 1.9Z" clip-rule="evenodd"/>
  <path fill="#62AB8D" d="M44.7 92.7c8.6 0 15.7-6.7 15.7-14.9S53.4 63 44.7 63 29 69.6 29 77.8c0 8.2 7 14.9 15.7 14.9Z"/>
  <path fill="#fff" fill-rule="evenodd" d="M45.9 77.9c.8-.6 1.3-1.6 1-2.7-.1-1-1-2-2.2-2.2-1.8-.3-3.4 1-3.4 2.7 0 .9.5 1.7 1.2 2.2.1 0 .2.2 0 .4l-1.4 2.4c-.2.3 0 .7.4.7h5.3c.4 0 .7-.4.5-.7l-1.5-2.4c-.1-.2 0-.3 0-.4Z" clip-rule="evenodd"/>
  <path fill="#62AB8D" fill-rule="evenodd" d="M128.4 66.3h-69c4 2 6.8 6 6.8 10.6a12 12 0 0 1-6.8 10.7h69a11 11 0 0 0 11.3-10.7 11 11 0 0 0-11.3-10.6Z" clip-rule="evenodd"/>
  <path fill="#fff" d="M29.2 60.5c8 0 14.7-6.4 14.7-14.4s-6.6-14.4-14.7-14.4-14.7 6.5-14.7 14.4c0 8 6.6 14.4 14.7 14.4Z"/>
  <path fill="#62AB8D" fill-rule="evenodd" d="M33.6 41.6 27 48l-2.9-2.9c-.5-.4-1.3-.4-1.8 0-.4.5-.4 1.3 0 1.8l3.8 3.7c.3.3.6.4 1 .4.2 0 .6-.1.8-.4l7.5-7.4c.5-.5.5-1.3 0-1.7-.5-.5-1.3-.5-1.8 0Z" clip-rule="evenodd"/>
  <path fill="#62AB8D" fill-rule="evenodd" d="M14 46.1a14.8 14.8 0 0 1 29.8 0 15 15 0 0 1-29.8 0Zm2.4 0a12.4 12.4 0 0 0 24.8 0c0-6.7-5.5-12.2-12.4-12.2-6.8 0-12.4 5.5-12.4 12.2Z" clip-rule="evenodd"/>
  <path fill="#fff" d="M81.2 79.4c1.4 0 2.6-1 2.6-2.5 0-1.3-1.2-2.5-2.6-2.5a2.6 2.6 0 0 0-2.6 2.5c0 1.4 1.1 2.5 2.6 2.5Zm8.6 0c1.4 0 2.6-1 2.6-2.5 0-1.3-1.2-2.5-2.6-2.5A2.6 2.6 0 0 0 87 77c0 1.4 1.2 2.5 2.7 2.5Zm8.5 0c1.5 0 2.7-1 2.7-2.5 0-1.3-1.2-2.5-2.7-2.5a2.6 2.6 0 0 0-2.6 2.5c0 1.4 1.2 2.5 2.6 2.5Zm8.7 0c1.4 0 2.6-1 2.6-2.5 0-1.3-1.2-2.5-2.7-2.5a2.6 2.6 0 0 0-2.6 2.5c0 1.4 1.2 2.5 2.6 2.5Zm8.5 0c1.5 0 2.6-1 2.6-2.5 0-1.3-1.1-2.5-2.6-2.5a2.6 2.6 0 0 0-2.6 2.5c0 1.4 1.1 2.5 2.6 2.5Zm8.5 0c1.5 0 2.7-1 2.7-2.5 0-1.3-1.2-2.5-2.6-2.5a2.6 2.6 0 0 0-2.7 2.5c0 1.4 1.2 2.5 2.7 2.5Z"/>
</svg>
