<svg xmlns="http://www.w3.org/2000/svg" width="150" height="150" fill="none">
  <g clip-path="url(#a)">
    <path fill="#FFE5CC" fill-rule="evenodd" d="M15.5 118c26.5 11.5 40 10.5 63.5 8.5 19-22 15.5-16 46-25.7 30.6-9.7 29.8-49.9 5-68-24.7-18.3-34.4 5.7-45-20.8-10.6-26.4-43-4.2-47.3 18.6-4.3 22.8-26.3 12.8-31.6 21.7C.8 61.2-3.8 79.8 4.6 89c8.5 9.4 7.8 22.2 10.9 29Z" clip-rule="evenodd"/>
    <path fill="#E7F3FD" d="M80 131.5c-38.6 0-70-3.2-70-7.2s31.4-7.1 70-7.1c38.7 0 70 3.2 70 7.1 0 4-31.3 7.2-70 7.2Z"/>
    <path fill="#503116" fill-rule="evenodd" d="M107.1 44.3s-1.9-2.7-4.7-1l.4.6s2.7 2.2 4.3.4Z" clip-rule="evenodd"/>
    <path fill="#FF9633" fill-rule="evenodd" d="M89 48.9s2.5 1.2 4.7 1.2c2.1 0-3.7 6.5-3.7 6.5l-1-7.7Z" clip-rule="evenodd"/>
    <path fill="#FFCA99" fill-rule="evenodd" d="m107 42.5-1.8 2.1-2-.2 1.8-2.8 2 1ZM78.7 86.8c0 7.7 13 31.4 13 31.4l2-1.3-10.5-26.3-4.5-3.8Z" clip-rule="evenodd"/>
    <path fill="#FFCA99" fill-rule="evenodd" d="m89.5 87.3-4.2 32h-2.1V86.9l6.3.5Z" clip-rule="evenodd"/>
    <path fill="#503116" fill-rule="evenodd" d="M71.2 65.2s2.9 1.5 4.7-1.4l-.6-.4s-3.4-.6-4.1 1.8Z" clip-rule="evenodd"/>
    <path fill="#FFCA99" fill-rule="evenodd" d="M77.6 69.2s-1 1.9-3.6.7c-2.7-1.3 2-2.6 2-2.6l1.6 1.9Zm-3.3-6.4 2.4 3.2-2.4.4-4-3.6h4Z" clip-rule="evenodd"/>
    <path fill="#FFCA99" fill-rule="evenodd" d="M76.7 66s2.8 1.8.5 3.5C75 71.3 74 65.4 74 65.4l2.7.6Z" clip-rule="evenodd"/>
    <path fill="#FF9633" fill-rule="evenodd" d="M82.2 48.3s-3.5 0-8.2 3c0 0-6.2 3.1-7.7 6a1 1 0 0 0 0 1.1l4.9 6.8s2.2-1 4.7-1.4l-4.6-5s4.4-3 8-4.2l2.9-6.3Zm7.6 6.2s1.7.8 7.1.5c0 0 6.3-.8 8.7-2.8.3-.2.5-.5.5-.9l1-7s-2.4-.2-4.7-1l-.7 5.3s-5.9 2-9.6 1.4l-2.3 4.5Z" clip-rule="evenodd"/>
    <path fill="#0C515A" fill-rule="evenodd" d="M89.8 61.2s3.8 18.7 2.6 29.1c-.2 2.2-15 .5-15 .5s-.4-20.2 2.5-29.2c.7-2 6.3-5.2 6.3-5.2l3.6 4.8Z" clip-rule="evenodd"/>
    <path fill="#0C515A" fill-rule="evenodd" d="m87.2 49.7 2.6 2.5v9l-9.6.4.3-11 6.7-.9Z" clip-rule="evenodd"/>
    <path fill="#FFCA99" fill-rule="evenodd" d="M85.7 50.7c-1 0-2.1-.8-2.1-.8V39.8h3.6v10c0 1-.7 1-1.5 1Z" clip-rule="evenodd"/>
    <path fill="#FFCA99" fill-rule="evenodd" d="m87.2 46-1.5-2.3s-.9 2.6 1.5 3.3v-1Z" clip-rule="evenodd"/>
    <path fill="#FFCA99" d="M85 44.3c-2.5-.6-4-3-3.4-5.6.5-2.5 3-4.1 5.3-3.5 2.5.6 4 3.1 3.4 5.6-.5 2.6-3 4.1-5.3 3.5Z"/>
    <path fill="#FFCA99" fill-rule="evenodd" d="M87.5 46c-1.2 0-2.1-1-2.1-2.3v-3.2l5-.7v3.1a3 3 0 0 1-2.9 3Z" clip-rule="evenodd"/>
    <path fill="#FFCA99" fill-rule="evenodd" d="m90.3 40.8 1 1.5c.1.3 0 .6-.3.6l-1.2.2.5-2.3Z" clip-rule="evenodd"/>
    <path fill="#333" fill-rule="evenodd" d="M86.2 41.3s1.4-.6 1-2.1h4.4s0-5.2-6.2-5c-5.8.4-5.9 9-1.8 9.7l2.6-2.6Z" clip-rule="evenodd"/>
    <path fill="#FFCA99" fill-rule="evenodd" d="M86.2 41.3c0 .7-.6 1.3-1.2 1.3-.7 0-1.3-.6-1.3-1.3 0-.7.6-1.3 1.3-1.3.6 0 1.2.6 1.2 1.3Z" clip-rule="evenodd"/>
    <path fill="#666" fill-rule="evenodd" d="m57 98.7-1.3-.4-4 18.7c0 .8 0 1.1.3 1.2.2 0 .5-.2.7-1l5.7-18.1-1.4-.4Z" clip-rule="evenodd"/>
    <path fill="#333" fill-rule="evenodd" d="M79.3 34.6c.5 1.6 2.4 2.3 4.1 1.7 1.7-.7 2.7-2.4 2.2-4a3.4 3.4 0 0 0-4.2-2c-1.7.6-2.6 2.8-2 4.3Z" clip-rule="evenodd"/>
    <path fill="#FFCA99" fill-rule="evenodd" d="m86.2 48.5 2.7.4v2.8S88 53 85.4 53s-3.2-1.5-3.2-1.5v-3.2h3.2l.8.2Z" clip-rule="evenodd"/>
    <path fill="#FF9633" fill-rule="evenodd" d="M89 48.9v28.3s-.6 4.8 4.7 6.1L93 55l-4-6Zm-6.8-.6v29s-.7 5.8-6 7.1L78 54l4-5.7Z" clip-rule="evenodd"/>
    <path fill="#0C515A" fill-rule="evenodd" d="M85.3 119.4s2.1 2 4.4 2.3c1.6.2 2 .7 2.2 1l-.1.3h-8.2a.4.4 0 0 1-.4-.4v-3.2h2.1Z" clip-rule="evenodd"/>
    <path fill="#0C515A" fill-rule="evenodd" d="M91.7 118.1s-1.3 3.6-3 4.1v.5h2.4c.3 0 .5-.1.7-.4l2.5-3.4v-.6l-.6-1.4-2 1.2Z" clip-rule="evenodd"/>
    <path fill="#FFCA99" fill-rule="evenodd" d="M105 42.5s-1.5-1.2.5-2a10 10 0 0 0 3-2c.2-.3.6-.3.8 0 .3 0 .4.4.3.7-.3 1-1.1 3.1-3.4 3.5l-1.1-.2Z" clip-rule="evenodd"/>
    <path fill="#666" fill-rule="evenodd" d="M33.8 99c0 1.8 2.6 5.4 16.6 5.4 13.9 0 16.7-3.6 16.7-5.4 0-1.8-7.5-1.8-16.7-1.8-9.1 0-16.6 0-16.6 1.8Z" clip-rule="evenodd"/>
    <path fill="#18A3B4" fill-rule="evenodd" d="M33.8 99c0 1.8 7.5 3.3 16.6 3.3 9.2 0 16.7-1.5 16.7-3.3 0-1.8-7.5-3.2-16.7-3.2-9.1 0-16.6 1.4-16.6 3.2Z" clip-rule="evenodd"/>
    <path fill="#127A87" d="M50 100.1c-2.7 0-4.8-.2-4.8-.5 0-.2 2.1-.5 4.7-.5s4.7.3 4.7.5c0 .3-2.1.5-4.7.5Z"/>
    <path fill="#005231" fill-rule="evenodd" d="m53.9 93.7.7-.1c0-.1-1-6.2-1-14.2 0-3 .5-5 1.7-6 1-.7 1.9-.5 2-.5l.1-.7s-1.4-.4-2.6.6c-1.3 1-2 3.3-2 6.6 0 8 1 14.2 1 14.3Z" clip-rule="evenodd"/>
    <path fill="#62AB8D" fill-rule="evenodd" d="m59 76.7.4-1c.1-.3.6-.4.3.3-.8 2.2-1 4.4 2 4 .2-.1 0-.5.3-1 .4-.8 0-1.8-.4-2.5-.2-.5.2-.5.3-.4 1.4 1.8 2.9 2.5 5.4 2.3 0 0-.8-1.2-.8-2.1.1-2.2-1-3.6-3.1-3.3-.1 0-1.4 0-.2-.7 1.1-.6 1.4-.5 1.4-.5s.1-.8-1.6-1.7c-1.4-.8-2.6.4-3.5 1.5 0 0-1 .2-.3-.6.7-.9 1.1-1.3 1.2-1.7.3-1.9-5.6.8-5.5 3.2H56l-.6.4c-.2.1-.5.3-.4.4.3 1.4 2 4.6 3.6 4.6.2 0 .2-.1.2-.2V77l.2-.3Zm-1-6.3c-.1-.2.1-.5.5-.8.3-.3.6-.5.8-.3 0 .2-.2.6-.6.9-.3.2-.7.3-.8.2Zm-.9.2c.4-.5.5-1 .3-1s-.6.3-1 .8-.6 1-.4 1c.2 0 .7-.3 1.1-.8Zm4.1.9c.4-.3.6-.6.4-.8 0-.1-.5 0-.8.3-.4.2-.5.5-.4.7.1.1.5 0 .8-.2Zm1.3.2c-.1-.2 0-.5.3-.7.2-.2.4-.2.6 0 .1.1 0 .5-.2.6-.3.2-.6.3-.7 0Zm-5.4 2.7c-.2-.5-.6-.8-.8-.8-.2.1 0 .6.2 1l.7 1c.2-.1.2-.6 0-1.2Zm8.5.2c0 .2-.3.3-.6.1-.3 0-.5-.3-.5-.5s.3-.2.6-.1c.4 0 .6.3.5.5Zm-7.5-.2c.2 0 .4.2.6.6 0 .3 0 .7-.2.7-.1 0-.4-.2-.5-.6v-.7Zm7.1 3.4s-.5-.1-.8-.5c-.4-.4-.7-.8-.6-1 .2-.2.6 0 1 .5.3.4.5.9.4 1Zm-1.7-1.2c-.2-.3-.5-.4-.6-.3 0 .2 0 .5.3.8.3.2.5.3.6.2.1-.1 0-.4-.3-.7Zm-3.4 0c.2 0 .3.3.3.7 0 .5-.1.9-.3.9l-.2-.8c0-.5 0-.8.2-.9Zm1.2.6c-.2 0-.3.4-.3.7 0 .4.1.7.3.7.1 0 .3-.3.3-.7 0-.4-.2-.7-.3-.7Z" clip-rule="evenodd"/>
    <path fill="#005231" fill-rule="evenodd" d="M64 75.5c-1-1-2.1-2-3.4-2.6a7.3 7.3 0 0 0-4.1-.6l-.7.1.2.1c0 .2-.6.4-.9.6l1.4-.3a7 7 0 0 1 3.9.6c1.3.5 2.5 1.4 3.5 2.4l1.5 1.4c.5.4 1.2.9 1.9 1.2-.7-.4-1.3-.8-1.8-1.4L64 75.5Z" clip-rule="evenodd"/>
    <path fill="#005231" fill-rule="evenodd" d="m60.6 73.3.1-.3.1-.3.2-.5a3.5 3.5 0 0 1 1.6-1.5c.4-.2.7-.2 1-.1-.3 0-.6 0-.9.2l-.8.6a3.4 3.4 0 0 0-.8 1.4v.5h-.5Zm.8 6.3c-.2 0-.3-.3-.4-.5l-.2-.7-.2-1.6c0-.6 0-1.1.2-1.7l.3-1.6.4.2-.5 1.5a14.5 14.5 0 0 0-.2 3.2l.2.7.4.5Zm-4.1-7.1-.1-.2V72l-.1-.5.3-1 .7-.9 1-.7a4 4 0 0 0-.9.8 4 4 0 0 0-.6.9 2 2 0 0 0-.1 1.4v.2l.1.2-.3.1Zm1.2 5-.5-1.3-.5-1.2-.4-1.2-.2-1.2h.4v1.1l.4 1.3c0 .4.3.8.4 1.2l.4 1.3Zm7.4-1.5a5.3 5.3 0 0 0-1.5-1l-.9-.4a2 2 0 0 0-1 0v-.4h1a4.4 4.4 0 0 1 1.7 1.1l.7.8Z" clip-rule="evenodd"/>
    <path fill="#3D9773" fill-rule="evenodd" d="m47.3 78-.8-1.8c0-.3-.6-.5-.2.3l.3.7c.5 1 1.3 2.6 1 3.2-.5.7-2 .4-2.8.3-.3 0-.2-.4-.6-.9-.5-.7-.2-1.8.1-2.6.2-.6-.3-.6-.4-.4-1 2.2-2.6 2.7-5 3.5 0 0 .4-1.3 0-2.4-.5-1.8-.3-4.5 2-4.5.3 0 1.6-.5.1-.7-1.4-.2-1.8 0-1.8 0s-.8-.6.4-1.9c1.2-1.3 4-.5 5.3.2 0 0 1.2-.2-.1-.7l-3-.9c-1.2-.4.7-.7 1.1-.7H44c2.2-.2 5.5-.5 6.3 1.3l-.5.3c-.3.2-.6.3-.5.5 0 .2.3.2.6.3.3.1.6.2.6.4v.1c-.1 1.5-.6 8-2.7 7.4-.5-.1-.1-.2-.5-1Zm-.9-8.6-1.7-.5 2.1.1c1 .1 1.6.3 1.5.5-.2.1-1 0-1.9-.1Zm-1 .1a5 5 0 0 0-1.5-.3h-1l1.5.4h1Zm-2.6 1.9c-.5-.2-1-.4-1-.6H43c.6.1 1 .3 1 .5-.1.2-.7.2-1.2 0Zm-1.3.5c0-.1-.3-.4-.7-.5-.4 0-.8 0-.8.2s.3.5.7.5c.4.1.7 0 .8-.2Zm7.1 2.4c.2-.9.6-1.5.7-1.5.2 0 .1.8-.1 1.7-.3 1-.4 1.6-.6 1.5-.1 0-.2-.8 0-1.7Zm-.9 0c-.1 0-.3.4-.4 1-.1.4 0 .9.1 1 .2 0 .4-.4.5-.9 0-.5 0-1-.2-1Zm-8.4 1.5c0 .2.3.2.6 0 .3-.1.5-.4.4-.7 0-.2-.4-.2-.7 0-.3.1-.4.5-.3.7Zm2.8 1.7c.2-.3.5-.6.7-.4.2.2.1.6 0 1-.3.2-.5.4-.7.2-.2-.1-.2-.5 0-.8ZM40.6 79c.2.1.5-.2.8-.7.3-.5.4-1 .2-1.1-.2-.2-.5.1-.8.7-.3.5-.4 1-.2 1.1Zm5.3-1.8c-.1 0-.3.4-.2 1 0 .4.3.9.4.9.2 0 .2-.3.2-.9-.1-.5-.2-1-.4-1Zm-1.1.8c.1 0 .3.3.3.7 0 .4 0 .7-.2.7s-.4-.3-.4-.7c0-.4.1-.7.3-.7Z" clip-rule="evenodd"/>
    <path fill="#08375E" fill-rule="evenodd" d="M41.2 76.5c1-1.5 2-2.7 3.2-3.8a9.8 9.8 0 0 1 2-1.2 12.4 12.4 0 0 1 3-1c-.1.1-.2.2-.1.3.1.3.7.3 1 .5a11.6 11.6 0 0 0-8.9 5.4l-1.2 1.7-1.3 1.9c.5-.7.9-1.3 1.2-2l1.1-1.8Z" clip-rule="evenodd"/>
    <path fill="#08375E" fill-rule="evenodd" d="M44.5 73.2a2.8 2.8 0 0 0-.5-.7 6 6 0 0 0-.6-.5 4 4 0 0 0-1.3-.7l-1.4-.2a3 3 0 0 0-1.3.3l1.3-.2c.5 0 1 .1 1.4.3.4.2.8.4 1 .7a4.6 4.6 0 0 1 .8.9l.2.3.4-.2Zm.5 7.2c.2 0 .3-.2.3-.5l.2-.7-.1-1.7c0-.7-.1-1.3-.4-2l-1-2-.4.3a9 9 0 0 1 1.1 1.8c.4.7.4 1.3.5 1.9l.2 1.7-.1.7c0 .2-.1.4-.3.5Zm3-9-.1-.4s0-.2-.2-.3c0-.3-.2-.5-.4-.6-.2-.3-.7-.5-1.2-.7l-1.8-.3-1.9-.2 1.9.3c.6 0 1.2.2 1.7.3.4.2.8.4 1 .7a2.9 2.9 0 0 1 .4.8l.1.4h.4Zm-.2 7.3L48 77l.3-1.8.2-2a5 5 0 0 0-.2-1.8l-.4.1.4 1.8-.1 1.9L48 77l-.2 1.7Zm-8.3-1.1.5-1 .7-.7.9-.6 1-.2v-.5c-.5 0-.9.1-1.2.3a4 4 0 0 0-1.5 1.6l-.4 1Zm9.7 15.8c.1-.7 2.5-18.5 2-21 0-1-.4-1.7-1-2-.5-.1-1 .1-1.2.3l.5.6s.3-.2.5-.1c.1 0 .4.3.6 1.3.2 2-1.3 14.4-2 20.8l.6.1Z" clip-rule="evenodd"/>
    <path fill="#258A62" fill-rule="evenodd" d="M51.9 93.3s.8-2.4-.4-10c-.7-4.4 0-5.3.3-5.5.2-.2.6 0 .6 0l.4-.7c-.3-.2-.9-.4-1.4 0-1 .7-1.2 2.7-.6 6.3 1.1 7.4.4 9.7.4 9.7l.7.2Z" clip-rule="evenodd"/>
    <path fill="#0D7D50" fill-rule="evenodd" d="m53.7 82 .6-.7c.2-.2.6-.2.2.3-1.4 1.6-2.3 3.4.4 4l.2-.2.3-.5.3-.2c.3-.2.4-.3.3-2 0-.5.3-.4.3-.2.5 2 1.7 3 3.7 3.7 0 0-.2-1.2.1-2 .6-1.5.4-3.5-1.5-3.8-.2 0-1.2-.6 0-.7l1.3.1s.4-.6-.7-2c-1-1-2.4-.5-3.5 0 0 0-1 0 0-.6.8-.4 1.4-.6 1.5-1 .8-1.5-5-1-5.6.8l.4.1c.3.1.6.2.5.3-.1.2-1 .1-1.1.3-.2 1.4.2 4.5 1.6 5 .2.2.2.1.2 0s0-.3.2-.5l.3-.3Zm.4-5.8c.4-.3.7-.6.5-.8-.1 0-.6.1-1.1.4-.5.3-.8.6-.6.7.1 0 .7 0 1.2-.3Zm.7.1.7-.5h.7c0 .3-.3.5-.7.6-.4.1-.7 0-.7-.1Zm2.4 2c.4 0 .6-.2.6-.4s-.4-.2-.8-.1c-.4 0-.6.3-.6.4 0 .2.4.3.8.2Zm-4.4 1.1c0-.5-.3-1-.4-1-.2 0-.2.5-.2 1 .1.5.2 1 .4 1 .1 0 .3-.5.2-1Zm5.4-.4c0-.2.2-.4.4-.5.3 0 .5 0 .6.2 0 .2-.1.4-.4.5-.3 0-.6 0-.6-.2Zm-4.6.7c.2 0 .4.3.3.7 0 .3-.1.6-.3.6-.2 0-.3-.4-.3-.7 0-.3.2-.6.3-.6Zm6.3 2.8c-.2.2-.4.1-.6 0l-.3-.7h.6c.3.3.4.6.3.7Zm-5.3-.3c.2 0 .2.4 0 .8 0 .4-.3.6-.5.6-.1 0 0-.4 0-.8l.5-.6Zm2.9 1.3c-.1-.3-.3-.6-.5-.5v.7c.2.3.4.5.5.4v-.6Zm-2.1-.3-.5.5v.6c.2 0 .4-.1.5-.4.2-.4.1-.7 0-.7Zm3 1.8s-.3-.2-.5-.7c-.2-.5-.3-.9 0-1 .1 0 .4.2.5.7.2.5.2 1 0 1Z" clip-rule="evenodd"/>
    <path fill="#258A62" fill-rule="evenodd" d="M58.3 82.7a12.7 12.7 0 0 0-2.8-4l-.8-.6a6.7 6.7 0 0 0-2.3-.8l.1.1-.9.2c.4 0 .9 0 1.2.2l1.6.7a6.8 6.8 0 0 1 1.5 1.2c.9 1 1.6 2 2.2 3.2l.8 1.7a7 7 0 0 0 1.1 1.6c-.4-.5-.8-1.1-1-1.7l-.7-1.8Z" clip-rule="evenodd"/>
    <path fill="#258A62" fill-rule="evenodd" d="m56 79.7.3-.3.1-.2c.2 0 .3-.2.4-.3l.9-.5 1-.2c.2 0 .5 0 .7.3-.2-.2-.5-.2-.8-.2-.3 0-.5.1-.8.3a2.7 2.7 0 0 0-1.1.9l-.2.2-.1.2-.3-.2Zm-1.3 5.5-.2-.6V84l.5-1.4.6-1.3.9-1.2.2.2a6 6 0 0 0-.9 1.1 11.6 11.6 0 0 0-1.1 2.6l-.1.6v.6Zm-1.2-7.3v-.3l.1-.2.1-.4c.1-.3.3-.6.6-.8a4 4 0 0 1 1-.4c.2-.2.5-.3 1-.3-.4 0-.7.2-1 .3l-.9.6-.4.7-.1.4v.4h-.4Z" clip-rule="evenodd"/>
    <path fill="#666" fill-rule="evenodd" d="m37.3 101-1.3-.3-4 18.6c0 .8 0 1.2.2 1.2.3.1.5-.2.8-1l5.7-18-1.4-.5Zm27.7-.2 1.4-.2 1.8 19c0 .8 0 1.1-.4 1.2-.2 0-.4-.3-.6-1L63.6 101l1.4-.2Zm-19.7 2.3 1.4-.2s1.2 12.2 1.7 19c.1.8 0 1.2-.3 1.2-.2 0-.4-.3-.6-1L44 103.3l1.4-.2Z" clip-rule="evenodd"/>
    <path fill="#258A62" fill-rule="evenodd" d="M53 82.5v-3.7c0-.3.1-.7.3-1l.3.1A11.5 11.5 0 0 0 53 80v1.2l-.1 1.3Zm6.6 1.3-.4-.8a3.5 3.5 0 0 0-1.1-1.2c-.2-.2-.5-.3-.8-.3l.2-.4.7.4a3.8 3.8 0 0 1 1 1.5l.4.8Z" clip-rule="evenodd"/>
    <path fill="#503116" fill-rule="evenodd" d="M49.4 99.7h4.5c.3 0 .6-.3.7-.6l1.6-8H47l1.7 8c0 .3.4.6.7.6Z" clip-rule="evenodd"/>
    <path fill="#994A00" d="M46.6 90.8h10V92h-10v-1.2Z"/>
    <g clip-path="url(#b)">
      <path fill="#999" d="M131 109c-.5-.1-4.1-1-7-1.2-3.1-.2-6 1.2-6.5.3-.4-.8-.9-1.6-1.4-2-.3-.3-.7-.6-1-1.2-.2-.5-.3-1.2-.6-1.2s-.7 1.1-.7 1.1-.4-.3-.7-.8c-.4-.4-.5-1.3-.8-1-.2.3-.1 2-.1 2s-.6.3-1 .9c-.5.5-.5.9-.7 1.2-.2.3-.6.5-.5.8.2.4 0 .6.4 1 .5.4 1.2.4 1.5 1.2l.8 2.6c.2.6 1.9 2.6 1 4.3-.4 1-2.1 3.2-2.7 4-.5.9-1.1 1.2-.7 1.6.6.5 1.8 0 2.3-1.1.5-1 3.2-2.7 3.5-3 .2-.1.6.6.6 1.6s-.4 1.7-.4 1.7-.8 0-.9.7c0 .7 1.9.5 2 .2.3-.2.7-2.1 1.1-3.6.5-1.5 0-2.7 1.7-2.8 1.7-.1 4.8-.3 5.4.7.6 1 1.2 2.2 1.2 3 0 .4-.6.7-1.1 1.4-.5.7-1.1.1-1.3.8-.3 1 1.7 1 2.4.6.9-.5 1.8-1.5 2.2-2.6.4-1.2.5-2.1 1.4-2 .4.1 1.4.2 2 .8.5.6.3 1.8.3 2-.2.3-.9.3-.7.9.1.7 1.7.4 1.8.2.3-.2.7-1 .3-2.6-.4-1.6-.1-2.5-.7-3.7-.7-1.6-.7-3.7 0-4.5.5-.8 3-1.9 4.4-4.3 1.5-2.4 1.4-5.5.7-6-.6-.4-.7 2.9-1.8 4.6-1.2 1.8-1.8 2-2.8 2.5-1 .5-2.4.8-2.9.8Z"/>
      <path fill="#999" d="M115 106c.3-.2-.2-2-.5-2s-.6.9-.6 1c-.1.4.8 1 1 1Zm-2-1.3-.3-.7-.3-.8a4 4 0 0 0-.1 1.6l.8-.1Z"/>
      <path fill="#A1D0F7" d="M112.4 107s-.3-.4-.6-.3c-.1 0-.4.3-.4.5l.6.3c.2 0 .5-.3.4-.5Z"/>
      <path fill="#666" d="M112 107v-.2s-.2.1-.2.3l.1.2v-.2Z"/>
      <path fill="#503116" d="M110.5 107.8h-.3c0-.1-.1-.1-.2 0v.2c.2 0 .5 0 .5-.2Z"/>
      <path fill="#F8EEE5" d="m110.9 108.1 1 .5.9.6c-.2 0-.6-.4-1-.6l-1-.5Zm-.2.2 1 .5.8.7-.8-.6-1-.6Zm-.1.2.9.6.7.8-.7-.7-.9-.7Z"/>
    </g>
  </g>
  <defs>
    <clipPath id="a">
      <path fill="#fff" d="M150 0H0v150h150z"/>
    </clipPath>
    <clipPath id="b">
      <path fill="#fff" d="M110 101h29v22h-29z"/>
    </clipPath>
  </defs>
</svg>
