<svg xmlns="http://www.w3.org/2000/svg" width="150" height="150" fill="none">
  <path fill="#FFE5CC" fill-rule="evenodd" d="M3.6 101.8C-6.8 85.3 8.4 75 8.7 65.2 9 55.4-2.6 31 25.5 26.3c28.2-4.7 27 12.1 51.4-9 24.4-21 56.6.6 58 31.2 1.5 30.5-23.3 26.3-7.5 49.1s-19.7 38.9-40.6 30.7C66 120 62.2 144 52.1 144c-10-.1-27.7-5.8-30.7-18-3-12-13.9-18-17.8-24.2Z" clip-rule="evenodd"/>
  <path fill="#fff" d="M99.3 150H22.7l-3.7-4.2V87.2l3.7-4.2h76.6l3.7 4.2v58.6l-3.7 4.2Zm-75.7-6h74.8V89H23.6v55Z"/>
  <path fill="#fff" d="M99.4 111.2H22.7v3.7h76.7v-3.7Z"/>
  <path fill="#F99" d="M49.3 94.8h-5.8v16.4h5.8V94.8Z"/>
  <path fill="#F8EEE5" d="M46.4 99.8c.5 0 1-.4 1-1 0-.5-.5-.9-1-.9a1 1 0 0 0-.9 1c0 .5.4.9 1 .9Zm0 8.2c.5 0 1-.4 1-1 0-.4-.5-.9-1-.9a1 1 0 0 0-.9 1c0 .5.4 1 1 1Z"/>
  <path fill="#F99" d="M56.2 95.5H51v15.7h5.2V95.5Z"/>
  <path fill="#FFE5CC" d="M55.7 129.7c-.5 2-2.3 4-4.7 5.3a16.1 16.1 0 0 1-16.3 0 9.6 9.6 0 0 1-4.7-5.3c-.2-.8 26-.8 25.7 0Z"/>
  <path fill="#F8EEE5" d="M56.2 108H51v1.2h5.2v-1.3Z"/>
  <path fill="#F99" d="M42 95.5h-3.5v15.7H42V95.5Z"/>
  <path fill="#F8EEE5" d="M42 103h-3.5v1H42v-1Zm0-5.2h-3.5V99H42v-1.2Zm-1.7 3.7c.3 0 .5-.2.5-.6 0-.3-.2-.5-.5-.5s-.6.2-.6.5c0 .4.3.6.6.6Z"/>
  <path fill="#F99" d="M37.3 96.5h-4.8v14.7h4.8V96.5Z"/>
  <path fill="#F8EEE5" d="M37.3 105h-4.8v1h4.8v-1Zm0 4.2h-4.8v1h4.8v-1Z"/>
  <path fill="#F99" d="m75.4 96-5.7-1.4-3.5 15.2 5.7 1.4 3.5-15.3Z"/>
  <path fill="#F8EEE5" d="m67.2 105.5-.2 1.1 5.7 1.3.2-1.1-5.7-1.3Zm-.5 2.5-.1.4 5.6 1.4.2-.5-5.7-1.3Z"/>
  <path fill="#127A87" d="M36.2 62.3c.7 3.6 1.1 8 1 9.5 0 2.3-1.6 4.2-2 2.7-1.3-3.7.5-8 1-12.2Z"/>
  <path fill="#258A62" d="m37.2 72.6-.1-.3-.2-.2-.2-.2-.1-.2v-.3l-.1-.2-.2-.3-.1-.2v-.2l-.3-.5-.1-.2v-.3l-.2-.2-.1-.3v-.2l-.1-.3v-.2l-.2-.3v-.2l-.1.6.2.6v.2l.1.2.2.3v.2l.1.3.1.2.1.2.1.3.1.2.2.2v.3l.2.2.1.2.2.2v.3l.2.2v.3l.2-.4Zm-1.6-6.7.1.2v.8l.2.3v.5l.1.2.2.5v.3l.1.2.1.3v.5l.2.3.1.2.1.2v.6l.2.2h.3l-.2-.3v-.5l-.2-.3V70l-.1-.3-.1-.2-.2-.2v-.5l-.1-.3V68l-.1-.2-.1-.3-.1-.2V67H36l-.1-.3V66l-.2-.3v-.4.4l-.1.3Z"/>
  <path fill="#62AB8D" d="M28 67.6c1.6 3 2 3.7 3.3 5.5.4.5 3.7 6.2 2 6.3-1.6 0-.5-1.5-2-2.1-2.7-1.3-2.8-4.2-3.3-9.7Z"/>
  <path fill="#258A62" d="M33.2 76.7v-.2l-.4-.2-.2-.1h-.3l-.2-.3h-.5l-.2-.3H31l-.2-.2-.2-.2h-.3l-.2-.2-.5-.3-.1-.2-.4-.4H29v-.2.3h.1l.1.3.3.1.2.1.2.2.2.2.2.2h.3l.2.2.2.1.2.2h.2l.3.1.2.2.2.1h.3l.2.2.2.2h.3l.2.1ZM28.4 72h.1l.3.5.1.3.4.3.1.2.3.2.1.2.2.2.2.1.1.3h.3l.2.2.2.3h.2l.2.3.2.1.2.2.2.1.3.1.4.3.2.2-.1-.4-.2-.2-.2-.1H32l-.2-.3-.2-.2h-.2l-.3-.2-.1-.2-.2-.2-.2-.2-.3-.1-.2-.2-.1-.2-.2-.2-.2-.2-.2-.2-.1-.2-.4-.4-.2-.2V72l-.3-.2-.1-.2v.4Z"/>
  <path fill="#62AB8D" d="M35.4 49c2 6.2 6.5 12.6 4 24.5a20 20 0 0 1-1.4 4.8c-6.1 2.6-1.6-8.1-1-11 1-5.6-1.1-9.9-1.6-18.3Z"/>
  <path fill="#258A62" d="M36.8 59v.5l.1-.3V59l.1-.3v-1.3l.2-.3V55l.1-.3V54l-.2-.6-.1.3v.2l.1.3v.5l-.1.3v.3l.1.2v.3l-.1.3v.5l-.1.2v1.4l-.1.2v.6Zm2.7 12.7-.1.2-.2.2-.2.1-.2.1-.2.3h-.2l-.2.2-.2.2-.2.2h-.3l-.1.3-.2.2-.2.1-.2.2-.2.1-.1.3-.2.2-.3.1-.1.2-.2.3v.2l-.3.2v.2l-.1.3h.2l.1-.2.2-.5.2-.2.2-.2.2-.2v-.2l.3-.2.2-.1.1-.3.2-.2.3-.1.2-.1.2-.2.2-.2.2-.1.2-.2.2-.2.3-.1v-.3h.3l.3-.2v-.2l.1-.3-.2.1ZM38 56.5l-.1.2v.3l-.1.2v.6l-.1.2-.1.3v.3l-.1.2v.5l-.2.3v.2l-.1.3v.2l-.2.3v.7l.2-.1v-.6l.2-.2.1-.5v-.3l.1-.2.1-.3v-.5l.1-.3.2-.2v-.6l.1-.2V56l-.1.2v.3Z"/>
  <path fill="#258A62" d="M35 76.3v-.5l.2-.2v-.3l.1-.2.2-.2.1-.3.2-.1.2-.2.1-.2.2-.2.1-.3.2-.2.2-.1.2-.2.1-.2.1-.3h.3l.1-.3.2-.2.2-.2.2-.1v-.3l.3-.1.2-.2.1-.3.3-.1.1-.2.2-.2.1-.3.2-.1.1-.3.1-.2v-.1l.1-.7v.5l-.2.2-.2.2v.3l-.2.2-.2.1-.2.2-.2.2v.3l-.2.2h-.3l-.2.3-.1.2-.2.2-.2.1-.3.5-.2.2-.2.1-.2.2-.1.2-.2.2-.4.4v.2l-.3.2-.2.2v.3l-.3.4-.2.2v.3l-.1.3v.4Zm2-8.3.1-.2.2-.2.1-.2.1-.3.2-.2.3-.4v-.3l.2-.2.1-.2v-.3l.1-.3.2-.2.2-.2v-.5l.3-.2v-.6l.2-.2v-.2l.2-.3v-.5l.2-.2v-.7l-.2.1v.6l-.2.2v.3l-.1.2v.3l-.2.2v.3l-.1.2-.1.3-.2.2v.3l-.2.2-.1.2v.3l-.2.2-.2.2v.6l-.3.2-.1.2-.2.2v.3l-.1.2-.3.2v.1l-.2.8.2-.3V68Z"/>
  <path fill="#FFF5F5" d="M36.9 60v-.5.5Z"/>
  <path fill="#86BEA7" d="M40.6 58.8c2 3.5 3 6.7 2.4 12.8-.4 3.4-1.5 5.4-2.7 5.7-3.3 1-3.3 1.2-3.1 0 .7-4.4 3-3 3.8-9 .5-3-.2-5-.4-9.5Z"/>
  <path fill="#FFF5F5" d="M42.8 64.5v.1Z"/>
  <path fill="#258A62" d="m42.8 72.7-.2.2-.1.2-.2.2H42l-.2.3-.1.2h-.3l-.3.1-.2.2-.2.2-.2.1h-.3l-.2.2-.2.1-.2.2h-.3l-.2.2-.2.2-.2.2h-.2l-.2.2-.2.2-.2.1-.2.2-.2.1-.2.2v.3l.2-.1.2-.2.2-.2.2-.2h.2l.2-.3.5-.3.2-.1.3-.1.1-.3h.3l.2-.2h.3l.2-.2.2-.2h.3l.1-.2.3-.1.2-.2.2-.1.2-.2.3-.1.1-.2.2-.2.1-.5Zm-1.5-4.5.1-.2.2-.2.2-.2v-.2l.3-.2.1-.2.1-.3.2-.2.1-.2.1-.2v-.3l.2-.2v-.8l-.2.3v.5l-.1.2-.2.3v.2l-.2.2-.1.3-.2.2v.2l-.3.2-.2.2v.3H41v.5l.2-.2Zm.8-6.2v1.1l-.1.3v.2l-.2.3v.5l-.2.2v.8l-.2.2v.3l-.2.2v1-.1l.1-.6.2-.2v-.5l.1-.3.2-.2v-.8l.2-.2.1-.3v-.5l.1-.3.1-.2v-.5L42 62Z"/>
  <path fill="#86BEA7" d="M30.9 64c.8-3.2 2.6-6.9 2.9-10.3 1 7.7-1.7 9.5 0 16.1.3 1.3 2.2 5.5 2.2 7.5 0 1-1.9 1.4-2.6.6-1.8-2-3.8-8.4-2.5-13.8Z"/>
  <path fill="#258A62" d="m35.7 75.4-.2-.2-.2-.2-.1-.3-.2-.1-.3-.1v-.3h-.3l-.2-.3-.1-.2h-.3l-.1-.3-.3-.1-.2-.2-.2-.2-.2-.1-.2-.2-.2-.2-.2-.1-.2-.2-.2-.1-.2-.3-.1-.2h-.3l-.1-.4-.2-.1-.2-.3v.5l.2.1.2.2.2.2.1.2.2.2h.3l.1.3.2.2.2.2.3.1.2.2.2.2.2.2.2.1.2.2.2.2.4.3.2.2.2.2.2.2.2.1.2.2.1.2.2.3.2.1-.1-.4Zm-4.9-10.3v.2l.2.3.1.2.2.2v.3h.3l.2.3v.3h.3v.4l.3.1.2.2.1.2.2.2.2.2.2.1.1.3h.1v-.4l-.2-.2-.2-.2-.3-.1v-.3l-.2-.2-.3-.1-.2-.2v-.3l-.3-.1-.1-.3-.1-.2-.4-.4v-.3l-.2-.2-.2-.2v-.2l-.1.3v.1Zm2.4-8.2v.5l.1.3v1.1l.2.2-.1.3.1.2v.8l.1.3v.9l.2-1.1-.1-.2v-1.3l-.1-.3-.1-.2v-.8l-.1-.3v-1l-.2.6Zm-1.9 6v.3l.3.4v.6l.3.2v.5l.2.2.1.3v.3l.2.2.2.2v.3l.2.2v.2l.3.2.2.2v.3-.5l-.2-.3v-.3l-.2-.2-.2-.2v-.3l-.3-.1V65l-.3-.2v-.2l-.1-.3v-.2l-.2-.3v-.2l-.2-.2v-.8l-.2-.2-.1.3v.2Z"/>
  <path fill="#999" d="M31.3 77.3a7.4 7.4 0 0 0-1.6 4.4c0 3.3 2.8 4.8 6.3 4.8s6.3-1.5 6.3-4.8c0-1.5-.6-3-1.6-4.4h-9.4Z"/>
  <path fill="#1A174F" d="M96.2 26a6 6 0 0 0-5-2.9c-3.9 0-6.1 1.7-7.4 3.6l-.1.2c-2.9 4.4-4.5 7.5-9.5 9.4-12 4.5-9.2 16.7-1.8 21.1 11.7 7 19.2.1 23.2-8.3 6.3-12.9 1.4-22 .6-23.2Z"/>
  <path fill="#1A174F" d="M96.2 26.3c-1-1.6-3-2.8-5-2.8-3.9 0-6.2 1.6-7.4 3.5l-.1.2c-3 4.4-4.5 7.5-9.6 9.5-11.9 4.5-9.2 16.6-1.8 21 11.8 7 19.2.1 23.3-8.2 6.3-13 1.4-22 .6-23.2Z"/>
  <path fill="#62AB8D" d="M83.2 66.1s-2.9 4.5-4 8.5a92 92 0 0 0-1.1 11h24S99.6 69 94.5 67c-5-2.2-11.2-.8-11.2-.8Z"/>
  <path fill="#FFCA99" d="M79.4 73.3s-4.9 9.2-2.9 20.7c1.1 6.2 3.5 15 3.5 15.8 0 .8-1 7.3 1 13.5 1.8 6 4.6 13.5 5 15.9 0 .4-1.4 4.6-1.4 6.3 0 1.7.7 3.3 1.5 3.3s3-1.8 3.1-3.2c.2-1.4.5-2.7.4-5.4 0-3.2-.9-7.1-1.3-17.3-.5-10.2-1-12-.8-13.3.4-5.8 1.1-12.5 1.4-20.6 0 0 1 5.2 2.8 10.8a228 228 0 0 0 4 11.6c.6 1.6.7 6 3.2 13.6 2 6.1 4.4 9.8 4.8 12.9.1 1.7-.5 3.4.4 4.7.8 1.2 1 2.8 1.2 4 .2 1.2 1.8 2.5 2.7 2.5 1 0 1.7-2.2 1.4-3.5-.3-1.3-1.4-3-2.2-7.6-.9-5.3-1-11.4-2.2-18.5-.8-5-1.8-8-1.9-10.6 0-2.6.1-10.7-1-21.4-1-9.2-3.9-14.3-3.9-14.3H79.4Z"/>
  <path fill="#127A87" d="M108.5 126.7c0 .3-.6 1-2 2l-1.2.5-2 .8c-3.8 1-6.8.5-7 .3a663 663 0 0 1-3.3-19.7l-3.4-16.2.3 16.2c.3 5.3 2 19.8 1.7 20.2a16 16 0 0 1-6.4 1.5 16 16 0 0 1-6.9-1.2c-.2-.2-.5-6-.7-11.4v-2.2l-.3-6.4c-.2-2.4-1.1-15.2-1.1-23.8 0-9 4.5-17.1 4.5-17.1 3.4 1.8 8.6 2.2 8.6 2.2s5.6.2 9-1.7c0 0 3.3 5.7 4.9 14 1 5.2 1.2 11 1.5 15.8a298.6 298.6 0 0 0 .5 7.4c.4 2.2 3.4 18.4 3.3 18.8Z"/>
  <path fill="#127A87" d="M97.3 43.2c-3.5-.3-13 .5-17.3 1.1-.6.1 3 19.9 2 23.4l-2 3.8s12 2.4 18.2-.7L94.8 66c.6-2.5 5.2-22.6 2.5-22.8Z"/>
  <path fill="#FFCA99" d="M85.9 38s-.5 11.8 2.5 12c3 .3 3.1-6.9 3.1-7.8l.3-4.8-5.9.6Z"/>
  <path fill="#FFA856" d="M85.9 40.5c1.9 2.1 4.7 1.8 5.7.4l.2-3.5-5.9.6v2.5Z"/>
  <path fill="#FFCA99" d="M97.6 68.8c1.5-.4 7-24-.7-25.7 0 0 .2.6 0 5-.4 5-2 16.1-2 16.1s-6.9-1.5-12.3-1l-4.5 2.5-.7 2.7s1.6 1.5 2 1.5c.3 0-.6-1.3-.6-1.3s.8.8 1 .6c.3-.2-.3-1.3-.3-1.3l3.3-1.6s13.3 3 14.8 2.5Z"/>
  <path fill="#127A87" d="M97 43.1s-.3 0-.4 5c0 2.5-.4 6.7-.9 10.2 1.7-.1 4.1 0 5.8.2 1.2-7.3.5-15.2-4.6-15.4Z"/>
  <path fill="#FFCA99" d="M76.2 49.3c0 5 .6 12.4 4 16.7.9 1.1 2.6-2 2.6-2S81.4 44 80 44.2c-1.3.2-3.8 1-3.8 5Z"/>
  <path fill="#127A87" d="M82.4 59.4c-.5-5.8-1.4-15.2-2.4-15-1.3 0-4.2.9-4.3 5 0 3.2.2 7.7 1.4 11.5a12 12 0 0 1 3.9-1.3c.5 0 1 0 1.4-.2Z"/>
  <path fill="#FFCA99" d="m86.1 39.2-.2 1c-.1.6.1 1.2-.4 1.7-.5.6 1.3 4 1.3 4s.4-1.2.2-2.3c-.2-1 0-3.8.3-4 .2-.2-1.2-.4-1.2-.4Z"/>
  <path fill="#FFCA99" d="M84.5 36.8 83.2 38l-1 1.1s.3 2.2.1 2.6l.1 1c.2.6 1.1 3 1.2 4l-2.2 5.9c-.4.8-2.1 7-2.5 8.7-.2 1 .8 4.7 2 5.2 1 .4 2.3.6 3.4-5.2l2.1-13.5c0-.5.5-1 .6-2 0-1.2-1.2-2.5-1.2-2.5l.8-1.2.7-.1s.8.7 1 .5c.3-.2-.4-.9-.4-.9s.3.3.5 0c.2-.1-1-1.4-1-1.4l-1.8-.8h-.4L83.6 41v-1.7l.6-1.1s1.3-1.2.3-1.4Z"/>
  <path fill="#994A00" d="M87.8 41.6h-.2l-.2-.1h-.1l-.2-.2h-.6a17.7 17.7 0 0 1-1.5 1l.4-.3.3-.2.7-.6a14 14 0 0 1 .7 0l.2.1.2.1.1.1.2.1Z"/>
  <path fill="#994A00" d="m87.8 41.4-.2-.1-.1-.2-.2-.2-.1-.2h-.3l-.3-.1-.6-.2-.3.2-.3.1-.3.2a9 9 0 0 1-.3.2l.3-.2.3-.2.3-.3.2-.2h.1a30 30 0 0 1 1 .3h.2v.1l.2.2.1.2.2.2v.2Z"/>
  <path fill="#FFCA99" d="M84.8 28s-.8 1.6-.8 5c0 3.5.9 5.5 2.6 6.7 1.8 1.1 3.8.6 4.8 0 1.7-1.2 3.5-5.5 3-8.5s-2-9-9.6-3.3Z"/>
  <path fill="#1A174F" d="M87.4 24.5c-.1 0-2.4.8-3.5 3-1.1 2.1 0 5 0 5s.8-1.9 1.5-2c.7-.2 3.4.6 4.5-.4 1-1 2.4-3 2.4-3s-.3 2.6-1.1 3.4c-.8.7 2.4 1.1 3.2.2.8-1 1.2 2.9 1.2 2.9s.4-4.9-2.1-7.4c-2.6-2.5-6-1.7-6-1.7Z"/>
  <path fill="#600" d="M85.1 143s0 1.5 1.2 1.6c1.6 0 2.8-2 3.3-3.5 0 0 .2 4.8-.4 6.2-.6 1.2-2.2 2.7-3.5 2.3-1.3-.2-1.5-2.4-1.4-3.5 0-1 .8-3.2.8-3.2Zm23.1-.3s.3 1-1 1.4c-1.4.5-3-.8-3.6-3.3 0 0-.3 1.5.1 3 .3 1 .9 3.2 1.2 3.8.6 1.3 2.4 2.4 3.8 2.1 1.2-.3 1.2-2 1.1-3.2 0-.8-1.6-3.8-1.6-3.8Z"/>
  <path fill="#0C528D" fill-rule="evenodd" d="M111.3 8c-4.4 0-5.9 2-7 3.8-1.2 2.2 2 4.2 3.4 2.2 1-1.5 2.2-2 3.6-2s3 1.2 3 2.6c0 2-1.3 2.8-3.3 3.5-.8.3-1.5.9-1.5 2V23c0 2.8 4.3 2.6 4.3 0v-1.7a7 7 0 0 0 4.6-7.3c-.3-3.2-3-6-7.1-6Zm-2.2 20.6v.5c0 2.5 4.3 2.5 4.3 0v-.5c0-2.5-4.3-2.5-4.3 0Z" clip-rule="evenodd"/>
</svg>
