<svg xmlns="http://www.w3.org/2000/svg" width="51" height="50" fill="none">
  <g clip-path="url(#a)">
    <path fill="#6861D1" d="M45.7 19c0 .4-.3.7-.5.7-.3 0-.6-.3-.6-.7v-2c0-.3.3-.6.6-.6.2 0 .5.3.5.7v2Zm0-7.8c0 .3-.3.6-.5.6a.6.6 0 0 1-.6-.6v-2c0-.3.3-.6.6-.6.2 0 .5.3.5.6v2Zm4 5c.3.1.4.5.3.7-.2.2-.5.3-.8.1l-1.7-1c-.3-.2-.5-.5-.3-.7.1-.3.5-.3.8-.1l1.7 1Zm-6.7-4c.2.2.3.6.2.8-.1.2-.5.3-.8.1l-1.7-1c-.3-.2-.5-.5-.3-.7.1-.3.5-.3.8-.2l1.7 1Zm6.2-1c.3-.1.6 0 .8.2.1.2 0 .5-.3.7l-1.8 1c-.3.2-.6.1-.7-.1-.2-.3 0-.6.2-.8l1.8-1Zm-6.8 4c.3-.2.6-.2.8 0 .1.3 0 .7-.3.8l-1.7 1c-.3.2-.7.1-.8-.1-.2-.3 0-.6.3-.7l1.7-1Z"/>
    <path fill="#127A87" d="M35.9 15.2a6 6 0 1 1-10.8 5 6 6 0 0 1 10.8-5ZM19.6 35l-4.8-10.6-7.2 3.3 5 10.7c2.2 4.8 6.8 7.5 10.2 5.9a5.5 5.5 0 0 0 2.8-3.3c-2.3-.9-4.6-3-6-6Z"/>
    <path fill="#127A87" d="m5 29.5 9.3-12 9.4-12 5.8 12.7 5.9 12.6-15.2-.7L5 29.5Z"/>
    <path fill="#D0E7FB" d="m19.9 30.2-9.1 4.2A6.9 6.9 0 0 1 5 22l9.1-4.2L20 30.2Zm5.8-25.6L22 6.2l11.7 25.4 3.6-1.7L25.7 4.6Z"/>
    <path stroke="#fff" stroke-miterlimit="10" stroke-width=".5" d="m26 5 11 24"/>
    <path stroke="#fff" stroke-width=".5" d="m14 18 5.7 12.1"/>
  </g>
  <defs>
    <clipPath id="a">
      <path fill="#fff" d="M0 0h50v50H0z"/>
    </clipPath>
  </defs>
</svg>
