<svg xmlns="http://www.w3.org/2000/svg" width="51" height="50" fill="none">
  <g clip-path="url(#a)">
    <path fill="#F8EEE5" d="M16.5 9.2C-.8 12.7-6.1 34.6 12.4 43.8l.6.2c20.4 9 27.8 4.8 32.3-3.8 5.2-10-5-35.8-28.8-31Z"/>
    <path fill="#fff" d="M26.3 16a9.8 9.8 0 1 0-19-4.5 9.8 9.8 0 0 0 19 4.5Z"/>
    <path fill="#CC6300" d="M30.4 28.6c-1.6.4-5.4.8-7.2 1.7-.8.3-1.6.9-1.8 1.7-.3.9.1 2 1 2.4h1.3l-.8.5c-1 .5-1.4 1.4-1 2.7.3.7 1 1.2 1.7 1.3l1.6-.4c-.6.3-1 .8-1.2 1.2-.4.7-.2 1.7.5 2 .4.3.8.3 1.3.2-.4.3-.6.8-.4 1.5.1.5.8 1.3 2 1.3.6 0 6.6-.5 9.2-1.2 7.2-1.4 9.3-6.7 6.5-10-2.5-2.7-7.2-4-8-4.3-1.6-.8-2.4 1.4-4.7-.6ZM25 34.4h-.7.7Z"/>
    <path fill="#127A87" d="m23 21.5-1.5 1 2.5 3.8 1.6-1-2.5-3.8Z"/>
    <path fill="#127A87" d="M33.8 39.7c-1.4.9-3.4.3-4.4-1.4l-6-9.6c-1-1.7-.8-3.8.6-4.7 1.4-.9 3.4-.3 4.4 1.4l6 9.6c1.1 1.7.8 3.8-.6 4.7ZM6.6 13.9c0 2.1.6 4.2 2 6A10.5 10.5 0 1 0 7.7 9s-1.3 2-1.2 4.9Zm15.5 7A8.6 8.6 0 1 1 12 7a8.6 8.6 0 0 1 10 14Z"/>
    <path fill="#CC6300" d="m26.7 37.7 2.5-1.3c.7-.5 2.1-1.4 1.7-2.5-.5-1.1-2.4-.8-2.4-.8s1.4-.7.5-1.7c-.3-.4-1-.4-1.8-.5l-3.3-.3.4 2.7 1.7 3.5.7 1Z"/>
    <path fill="#CC6300" d="m30 43.2 1.3-.8c.8-.4 1.5-1.9 0-2.5-.9-.3-1.2-.1-1.2-.1s1.6-.4 1.2-1.9c-.4-1.5-4.3-.7-4.3-.7l.4 2.5 1.7 3.3.8.2Z"/>
    <path stroke="#503116" stroke-linecap="round" stroke-linejoin="round" stroke-width=".4" d="M24.9 34.2a10 10 0 0 0 3.4-1m-1.7 7.9L30 40m-5-2 3.5-1"/>
    <path fill="#CC6300" d="m34 33.6 2.8.2c-.7-.2.5-3 .5-3s-3-2.4-5-3.3c-1.8-1-3.7-2.4-4-2.3-1.3.6-.4 2.9 1.5 4.1 1.6 1 3.6 4 4.2 4.3Z"/>
    <path stroke="#503116" stroke-linecap="round" stroke-linejoin="round" stroke-width=".4" d="M30.6 43s2.2-.8 1.6-2.5"/>
    <path fill="#CC6300" d="m36.5 40.3 5.5 3a4.9 4.9 0 0 0 7-2.5c1-2.5-.4-5.4-3-6.4l-4.5-1.7s-3.1 1.7-3.6 1.7c-3.7-.7 2.8 2.2 2.8 2.2l-4.2 3.7Z"/>
    <path stroke="#503116" stroke-linecap="round" stroke-linejoin="round" stroke-width=".4" d="M32 31.3c1 1 1.2 1.6 1.8 2.5.8 1.1 2.1 2.6 3.4 2.6"/>
    <path fill="#D0E7FB" d="M17 19.4a5.6 5.6 0 1 0 0-11.3 5.6 5.6 0 0 0 0 11.3Z"/>
    <path stroke="#127A87" stroke-linecap="round" stroke-linejoin="round" stroke-width=".4" d="m14.3 12.8 2.5 3.5 3-5.1"/>
  </g>
  <defs>
    <clipPath id="a">
      <path fill="#fff" d="M0 0h50v50H0z"/>
    </clipPath>
  </defs>
</svg>
