<svg xmlns="http://www.w3.org/2000/svg" width="46" height="50" fill="none">
  <path fill="#D0E7FB" d="M38.4 8.1C35.6 3.5 27.7-6 9 5.4-9.7 16.8 4.5 53 17.7 49.8c14-3.5 11.6-14 23.4-22 9-6.2.2-15-2.7-19.7Z"/>
  <path fill="#fff" d="M37.1 39.5c0 2.7-2.2 5-4.9 5.2L8 45.4V8l29 1v30.5Z"/>
  <path fill="#D0E7FB" d="m35 27.1-22.6.4v-1l22.6-.2v.8Z"/>
  <path fill="#FFE5CC" d="M10.5 27.5h1v-1h-1v1ZM35 28.6l-22.6.4v-1l22.6-.3v.9Zm-24.5.4h1v-1h-1v1ZM35 30l-22.6.5v-1l22.6-.4v.9Zm-24.5.5h1v-1h-1v1Z"/>
  <path fill="#D0E7FB" d="m35 31.4-22.6.6v-1l22.6-.5v.9Z"/>
  <path fill="#FFE5CC" d="M10.5 32h1v-1h-1v1Z"/>
  <path fill="#D0E7FB" d="m35 34.2-24.5.8v-.9l24.5-.8v.9Zm0 1.4-24.5 1v-1l24.5-.9v.9Zm0 1.4-24.5 1v-.9l24.5-1v1Zm0 1.4-24.5 1.2v-1l24.5-1v.8ZM10.5 18.2l24.5.1v1H10.5v-1Zm0-1.6 24.5.2v1l-24.5-.2v-1Zm0-2.6 24.5.5v1.8L10.5 16v-2Zm0 7H35v.5H10.5v-.4Zm0 1 24.5-.1v.4l-24.5.2V22Zm0 .9 24.5-.1v.4l-24.5.2v-.5Zm0 .9 24.5-.2v.5l-24.5.1v-.4Z"/>
  <path fill="#FFE5CC" d="M26.4 42.6 35 42v.5l-8.6.5v-.5Zm-4.2.8-8.6.5v-.5l8.6-.5v.5Z"/>
  <path fill="#FFA856" d="M15.8 13.8h.1c.1 0 .2 0 .2.2v.7s0 .2-.2.2v-1.1Zm-3.3 1.1-.2-.2V14c0-.2 0-.2.2-.2v1Z"/>
  <path fill="#FFCA99" d="M15.2 15.8v.3a1.7 1.7 0 0 1-2 0v-.3h2Z"/>
  <path fill="#F66" d="M17.4 17.8a4.6 4.6 0 0 1-6.4 0l.1-.2c.2-.4.7-.6 1.1-.6h4a1.3 1.3 0 0 1 1.2.8Z"/>
  <path fill="#FFCA99" d="M16 12.3v2.4a1.7 1.7 0 0 1-.8 1.4 1.7 1.7 0 0 1-2 0c-.5-.3-.7-.8-.7-1.4v-2.4h3.4Z"/>
  <path fill="#FFCA99" d="M15.2 16.1v.9a1.7 1.7 0 0 1-2 0v-.9a1.7 1.7 0 0 0 2 0Z"/>
  <path fill="#FFA856" d="M16 13.2v1.5l-.1.5c0-.4 0-.8-.2-1.2-.2-.6-.9-.8-1.7-.8l-1.4-.1c-.3-.1.2-.2 0-.2h-.1v-.5h2.9l.5.8Z"/>
  <path fill="#503116" d="M13 12.7s0 .2.5.3c.5 0 1.7-.4 2 .2.6 1 .3 1.2.5 1.2v-1l.2-.1-.1-1c-.2-.6-.6-.8-.6-.8l.2-.2s-1.9-.7-2.8 0c-.6.4-.6 1-.7 1.3v.7h.1l.1 1.1v-.5c.2-1.1.5-1.2.5-1.2Z"/>
  <path fill="#FFA856" d="M15.2 16.1v.5h-.8c-.4 0-1 0-1.2-.3v-.2a1.7 1.7 0 0 0 2 0Z"/>
</svg>
