<svg xmlns="http://www.w3.org/2000/svg" width="47" height="51" fill="none">
  <path fill="#D0E7FB" stroke="#D0E7FB" d="M17.6 1C3.8 1.4 6 17 4 21.7-4 33.2 5.8 53 12.5 44.9c6.7-8.3 14-.6 23.9 3.3 9.8 4 14-23.8 3.6-29.7C29.6 12.7 31.4.6 17.6 1Z"/>
  <g clip-path="url(#a)">
    <path fill="#E6E6E6" d="m32.4 4.7 1.4-.3L39 46.2 13.8 51 8.5 9.2 10 9l22.5-4.3Z" style="mix-blend-mode:multiply"/>
    <path fill="#fff" d="m31.7 3.9 1.4-.3 5.2 41.8-25.2 4.8L7.9 8.4l1.4-.2 22.4-4.3Z"/>
    <path fill="#E6E6E6" d="M35 6.5H11v42.3h25.6V6.5H35Z" style="mix-blend-mode:multiply"/>
    <path fill="#127A87" d="M34.5 5.8h1.4V48H10.3V5.8h24.2Z"/>
    <path fill="#E6E6E6" d="m12.3 7.5-1 38.5 22.8.8 1-38.4-22.8-.9Z"/>
    <path fill="#fff" d="M34.5 7.8H11.8v38.5h22.7V7.8Z"/>
    <path fill="#E6E6E6" d="M29.6 6.9v-1H17v1c-.6 0-.6.9-.6 1.4v.4c0 .6 0 1.4.7 1.4h4c.1 0 .8.2 1 .4.7.3 1.2.3 1.2.3h.1c.2 0 .5 0 1.2-.3l1-.4h4c.7 0 .7-.8.7-1.4v-.4c0-.6 0-1.5-.8-1.5Zm.5 1.8c0 .8 0 1.1-.5 1.1h-4l-1 .4-1 .3h-.1s-.6 0-1.2-.3l-1-.4h-4c-.5 0-.6-.3-.6-1.1v-.4c0-.7 0-1 .4-1.1V8h12.4v-.9h.1c.5 0 .5.4.5 1.2v.4Z" style="mix-blend-mode:multiply"/>
    <path fill="#08375E" d="M23.3 10.6c-.1 0-.6 0-1.3-.3a8 8 0 0 0-1-.4h-4c-.7 0-.7-.8-.7-1.4V8c0-.6 0-1.4.7-1.4h12.4c.8 0 .8.8.8 1.4v.4c0 .6 0 1.4-.8 1.4h-4l-1 .4a3 3 0 0 1-1.1.3ZM17 7c-.4 0-.5.3-.5 1.1v.4c0 .8 0 1.1.5 1.1h4l1.1.4c.6.3 1.1.3 1.1.3h.1c.1 0 .4 0 1-.3l1.1-.4h4c.5 0 .5-.3.5-1.1V8c0-.8 0-1.1-.5-1.1H17Z"/>
    <path fill="#666" d="M29.3 5.8H17v2h12.4v-2Z"/>
    <path fill="#CCC" d="M29.3 5.8H17v.6h12.4v-.6Z"/>
    <path fill="#B3B3B3" d="M29.3 6.4H17V7h12.4v-.6Z"/>
    <path fill="#E6E6E6" d="M33.2 24.3H13.8v1.5h19.4v-1.5Z"/>
    <path fill="#F99" d="M29 24.3H13.8v1.5H29v-1.5Z"/>
    <path fill="#E6E6E6" d="M33.2 26.5H13.8V28h19.4v-1.4Z"/>
    <path fill="#F99" d="M30.8 26.5h-17V28h17v-1.4Z"/>
    <path fill="#E6E6E6" d="M33.2 28.7H13.8V30h19.4v-1.4Z"/>
    <path fill="#F99" d="M26.7 28.7h-13V30h13v-1.4Z"/>
    <path fill="#CCC" d="M33.2 39.2h-7.6v.3h7.6v-.3Zm0 .7h-7.6v.2h7.6V40Zm0 .6h-7.6v.3h7.6v-.3Zm0-25.8H20.4v.3h12.8v-.3Zm0 .7H20.4v.3h12.8v-.3Zm0 .7H20.4v.3h12.8v-.3Zm-6.8 1.5h-6v.3h6v-.3Zm6.8-.8H20.4v.3h12.8v-.3Zm0 2.2H20.4v.4h12.8v-.3Zm0 .8H20.4v.3h12.8v-.3Zm0 .7H20.4v.3h12.8v-.3ZM26.4 22h-6v.3h6V22Zm6.8-.7H20.4v.3h12.8v-.3Zm0 11H13.6v.3h19.6v-.3Zm0 .7H13.6v.3h19.6V33Zm0 .8H13.6v.3h19.6v-.3Zm-10.4 1.4h-9.2v.3h9.2v-.3Zm10.4-.7H13.6v.3h19.6v-.3Z"/>
    <path fill="#D0E7FB" d="M19.8 14.7h-6.2v7.6h6.2v-7.6Z"/>
  </g>
  <defs>
    <clipPath id="a">
      <path fill="#fff" d="M7.9 3.6H39V51H7.9z"/>
    </clipPath>
  </defs>
</svg>
