<svg xmlns="http://www.w3.org/2000/svg" width="50" height="50" fill="none">
  <g clip-path="url(#a)">
    <path fill="#D0E7FB" d="M30 3.1C16.6.3 8.7 20.3 4.4 28.1c-12.8 20.6 20 25.7 36.5 14.3C57.2 31 43.6 6 30 3.1Z"/>
    <path fill="#127A87" d="M8 11.4h-.3l-6.5 20 .4.2L8 12.2l6.3 19.4.5-.1-6.6-20.2-.2.1Zm40.8 20.1-6.5-20.2-.3.1h-.2l-6.6 20 .5.2L42 12.2l6.4 19.4.4-.1Z"/>
    <path fill="#18A3B4" d="M25 49.1c2.7 0 5-1.4 5-3.2 0-1.8-2.3-3.3-5-3.3s-5 1.5-5 3.3c0 1.8 2.3 3.2 5 3.2Z"/>
    <path fill="#18A3B4" d="M26 6.3h-2v38.8h2V6.3Z"/>
    <path fill="#127A87" d="M35.2 50H14.8a5 5 0 0 1 5-4.9h10.5a5 5 0 0 1 4.9 4.9Z"/>
    <path fill="#18A3B4" d="M25 12.6c1.4 0 2.5-1 2.5-2.5a2.5 2.5 0 0 0-5 0c0 1.4 1.1 2.5 2.5 2.5Z"/>
    <path fill="#127A87" d="M25 11.6c.8 0 1.5-.6 1.5-1.5 0-.8-.7-1.4-1.5-1.4s-1.5.6-1.5 1.4c0 .9.7 1.5 1.5 1.5Zm2.3-5.8C27 6.8 26 7.4 25 7.4c-1 0-2-.6-2.3-1.6-.2-1 .4-2 1-3C24.3 2 25 1 25 0c0 1 .7 2 1.3 2.8.6 1 1.2 2 1 3Z"/>
    <path fill="#18A3B4" d="M11.6 12.6c-1.3 0-2.6-.1-4-.4l.4-1.7a17.5 17.5 0 0 0 9.5-.6c1.8-.5 3.7-1 5.7-.8l-.2 1.7c-1.6-.2-3.3.3-5 .8l-2.2.6a20 20 0 0 1-4.2.4Z"/>
    <path fill="#18A3B4" d="M9.7 11.8c.2-1-.3-1.9-1.3-2-1-.3-1.9.3-2.1 1.2-.3 1 .3 1.9 1.3 2.1 1 .2 1.9-.3 2.1-1.3Z"/>
    <path fill="#127A87" d="M.6 31.7c0 3.4 3.3 6.2 7.4 6.2 4 0 7.4-2.8 7.4-6.2H.6Z"/>
    <path fill="#18A3B4" d="M15.3 30.5H.7c-.4 0-.7.4-.7.8s.3.7.7.7h14.6c.4 0 .7-.3.7-.7 0-.4-.3-.8-.7-.8Zm23.1-17.9c1.3 0 2.6-.1 4-.4l-.4-1.7c-2.4.5-5 .5-7.4 0l-2-.6c-2-.5-3.8-1-5.8-.8l.1 1.7a13 13 0 0 1 5.1.8l2.2.6c1.4.3 2.8.4 4.2.4Z"/>
    <path fill="#18A3B4" d="M42.4 13.1a1.8 1.8 0 1 0-.8-3.4 1.8 1.8 0 1 0 .8 3.4Z"/>
    <path fill="#127A87" d="M42 12.3c.5 0 1-.4 1-.9s-.5-1-1-1a1 1 0 0 0-1 1c0 .5.5 1 1 1Zm-34 0c.5 0 1-.4 1-.9s-.5-1-1-1a1 1 0 0 0-1 1c0 .5.5 1 1 1Zm41.4 19.4c0 3.4-3.3 6.2-7.4 6.2-4 0-7.4-2.8-7.4-6.2h14.8Z"/>
    <path fill="#18A3B4" d="M49.3 30.5H34.7c-.4 0-.7.4-.7.8s.3.7.7.7h14.6c.4 0 .7-.3.7-.7 0-.4-.3-.8-.7-.8Z"/>
  </g>
  <defs>
    <clipPath id="a">
      <path fill="#fff" d="M0 0h50v50H0z"/>
    </clipPath>
  </defs>
</svg>
