<svg xmlns="http://www.w3.org/2000/svg" width="260" height="260" fill="none">
  <path fill="#F7F7FD" d="M260 149c-.6 26.6-17.9 48.6-40.7 60.5-50.8 25.7-121 24.9-173.7 4.4-25.7-10-38-31-43.3-57.7C-7 111.9 11.7 44.3 61.7 41.4c10.6-.7 39.6 9.7 57 .1 17.3-9.6 49.9-20.1 81-.1 30.1 19.3 20.6 44.2 31.7 56 3.7 3.8 7.9 6.2 12 9 15 9 17 26.2 16.6 42.6Z"/>
  <path fill="#F8CD07" d="M141.6 57a52.2 52.2 0 1 1-72.4 62.2c1 32.8 28.4 59 62.1 59a62 62 0 0 0 62.2-61 61.4 61.4 0 0 0-51.9-60.1Z"/>
  <path fill="#A1D0F7" d="M78.5 78c2.1 0 7-.3 11.3 0a3 3 0 0 0 3.2-3c0-.7-.3-1.5-1-2.5-2.5-3.6-7-.1-7 1.7 0 0-.9-2.8-3.7-2.3-2.7.5-1.7 4.6-1.7 4.6s-1-.2-1.5.2c-.7.4-.3 1.4.4 1.4Zm151 64.4c2-.1 7-.3 11.2 0a3 3 0 0 0 3.3-3c0-.7-.3-1.6-1-2.5-2.6-3.7-7-.2-7 1.7 0 0-1-2.8-3.7-2.3-2.8.4-1.8 4.5-1.8 4.5s-.9-.2-1.5.3c-.6.4-.3 1.3.5 1.3Zm-38.8 28.5c-.2-.5-.1-1 .2-1.6.6-.8 1.8-1.5 3.8-1.6 0 0-2.2-9.8 6.3-10.8 8.7-1 9.2 9.2 9.2 9.2s4.9-5.4 7.6 1.2c0 0 5.3-2.7 7.9.5.7 1 .6 2.3 0 3h-35ZM42.2 102.2c-.1-.4 0-1 .3-1.5.6-.8 1.7-1.6 3.7-1.7 0 0-2.2-9.7 6.3-10.7 8.7-1 9.2 9.2 9.2 9.2s5-5.5 7.6 1.2c0 0 5.4-2.7 8 .5.7 1 .5 2.3-.1 3h-35Z"/>
  <path fill="#FBE16A" d="m48.8 140 .3 2.1 2 1-2 1-.3 2.1-1.5-1.5-2.2.3 1-1.9-1-2 2.2.5 1.5-1.6Z"/>
  <path fill="#FFF8F1" d="m166 188.6.3 2.1 2 1-2 1-.3 2.1-1.5-1.5-2.2.3 1-1.9-1-2 2.2.5 1.5-1.6Z"/>
  <path fill="#FBE16A" d="m214.3 99.3.3 2.2 2 1-2 .9-.3 2.1-1.5-1.5-2.1.3 1-1.9-1-1.9 2.1.4 1.5-1.6ZM76.7 198l.5 3.2 3 1.5-3 1.4-.5 3.3-2.3-2.4-3.3.6 1.5-3-1.5-2.9 3.3.6 2.3-2.4ZM40 63.6l.2 2.1 2 1-2 1-.3 2-1.5-1.5-2.1.4 1-2-1-1.9 2.1.4 1.5-1.5Z"/>
  <path fill="#FFF8F1" d="m99.5 112.3-.2 1.3-1.1.5 1.1.6.2 1.3.9-1 1.3.2-.6-1 .6-1.2-1.3.2-1-1Zm112.8 27.1.2 1.3 1.1.6-1.1.5-.2 1.3-1-1-1.2.3.6-1.1-.6-1.2 1.3.3.9-1Zm-14.9 61.4.2 1.3 1.2.6-1.2.5-.2 1.3-.9-1-1.2.3.6-1.1-.6-1.2 1.2.2 1-.9Zm-168.5-18 .1 1.3 1.2.6-1.2.5-.2 1.3-.8-1-1.3.3.6-1.1-.6-1.2 1.3.3.9-1Z"/>
  <path fill="#FBE16A" d="m184.8 58.1-.3 1.9-1.7.8 1.7.9.3 1.9 1.3-1.4 1.9.3-1-1.7 1-1.7-1.9.4-1.3-1.4Z"/>
  <path fill="#A1D0F7" d="M120.7 82.6c1.2 0 1.2-1.8 0-1.8-1.1 0-1.1 1.8 0 1.8Zm-96.2 43.7c1.1 0 1.1-1.8 0-1.8-1.2 0-1.2 1.8 0 1.8ZM147.6 206c1.2 0 1.2-1.8 0-1.8s-1.2 1.8 0 1.8Zm64-126.9c1.2 0 1.2-1.8 0-1.8s-1.2 1.8 0 1.8ZM92.7 56c1.2 0 1.2-1.8 0-1.8-1.1 0-1.1 1.8 0 1.8Zm102.6 130.4c1 0 1-1.5 0-1.5s-1 1.5 0 1.5ZM89 127.7c1 0 1-1.5 0-1.5s-1 1.5 0 1.5Zm-73.9 30.9c1 0 1-1.5 0-1.5s-1 1.5 0 1.5ZM173.2 41.3c1 0 1-1.5 0-1.5s-1 1.5 0 1.5Zm57.9 84.2c1 0 1-1.5 0-1.5s-1 1.5 0 1.5Zm-45.3 38.3c.8 0 .8-1.2 0-1.2s-.8 1.2 0 1.2Zm46.5 20.2c.7 0 .7-1.2 0-1.2-.8 0-.8 1.2 0 1.2ZM10.6 138.6c.7 0 .7-1.1 0-1.1a.6.6 0 0 0 0 1.1Zm120.4-64c.7 0 .7-1.1 0-1.1a.6.6 0 0 0 0 1.1ZM147.3 88c.8 0 .8-1.2 0-1.2-.7 0-.7 1.2 0 1.2ZM58.2 201.5c.7 0 .7-1.2 0-1.2-.8 0-.8 1.2 0 1.2Z"/>
</svg>
