<svg xmlns="http://www.w3.org/2000/svg" width="51" height="50" fill="none">
  <g clip-path="url(#a)">
    <g filter="url(#b)">
      <path fill="#D0E7FB" d="M34.7 49.4 10.8 47c-1.6-.2-2.8-1.5-2.7-3L12 3c.2-1.5 1.6-2.5 3.3-2.4L39.2 3c1.7.2 3 1.5 2.8 3l-4 41c-.2 1.5-1.7 2.6-3.3 2.4Z"/>
    </g>
    <g clip-path="url(#c)">
      <path fill="#FFF8F1" d="M36 19a10.4 10.4 0 0 1-18.3 5.8 10.4 10.4 0 0 1 8.9-17.1c5.7.5 9.9 5.6 9.3 11.3Z"/>
      <path fill="#FFA856" d="M29.4 16.9h.1c.3 0 .5.3.4.5l-.1 1.6c0 .3-.3.4-.5.4h-.1l.2-2.5Zm-7.6 1.8h-.2a.5.5 0 0 1-.4-.5l.2-1.6c0-.3.2-.5.5-.4h.1l-.2 2.5Z"/>
      <path fill="#FFCA99" d="M27.5 21.4v.7a3.9 3.9 0 0 1-4.5-.4v-.8l4.5.5Z"/>
      <path fill="#127A87" d="M32 26.2a10.4 10.4 0 0 1-14.3-1.4l.2-.3a3 3 0 0 1 2.6-1.1l9 .8a3 3 0 0 1 2.5 2Z"/>
      <path fill="#FFCA99" d="m30 13.7-.6 5.4a3.9 3.9 0 0 1-2 3 3.9 3.9 0 0 1-4.4-.4 4 4 0 0 1-1.4-3.4L22 13l7.8.7Z"/>
      <path fill="#FFCA99" d="m27.4 22.1-.2 2a3.9 3.9 0 0 1-4.4-.5l.2-2a4 4 0 0 0 4.4.5Z"/>
      <path fill="#FFA856" d="m29.7 15.7-.3 3.4-.2 1c0-.8 0-1.7-.2-2.6-.3-1.5-1.8-2.2-3.5-2.3-.7 0-2.7-.4-3.3-.6-.5-.2.5-.2 0-.5h-.1v-1l6.6.6a5 5 0 0 1 1 2Z"/>
      <path fill="#503116" d="M23 14s.3.4 1.3.6c1 .2 4-.5 4.6.9 1 2.2.3 2.8.6 2.9.3 0 .5-2.4.5-2.4h.3s.3-1.3 0-2.5a3.2 3.2 0 0 0-1.2-1.8l.6-.3s-4.2-2-6.5-.7c-1.3.8-1.5 2-1.7 2.9-.2.6-.2 1.6-.2 1.6l.3-.2s-.4 2.5 0 2.6l.2-1c.5-2.6 1.3-2.6 1.3-2.6Z"/>
      <path fill="#FFA856" d="M27.4 22.1v1.1H27s-.7-.4-1.4-.3c-1 0-2.1-.3-2.7-.8v-.4a4 4 0 0 0 4.5.4Z"/>
    </g>
    <path fill="#4D4D4D" d="m34.8 41.9-22.6-2.2c-.2 0-.3.1-.4.3 0 .3.1.5.3.5l22.6 2.2c.2 0 .3-.2.4-.4 0-.2-.1-.4-.3-.4Z"/>
    <path stroke="#4D4D4D" stroke-linejoin="round" d="m14 37.3 19.4 2h.3-.3l-19.3-2h-.3.3Z"/>
    <path stroke="#B3B3B3" stroke-linejoin="round" stroke-width="2" d="m17 31.7 14.5 1.6h.2-.2l-14.6-1.6h-.2.2Z"/>
  </g>
  <defs>
    <clipPath id="a">
      <path fill="#fff" d="M0 0h50v50H0z"/>
    </clipPath>
    <clipPath id="c">
      <path fill="#fff" d="m16.2 6.7 20.7 2-2 20.7-20.7-2z"/>
    </clipPath>
    <filter id="b" width="43.9" height="58.8" x="3.1" y="-4.4" color-interpolation-filters="sRGB" filterUnits="userSpaceOnUse">
      <feFlood flood-opacity="0" result="BackgroundImageFix"/>
      <feColorMatrix in="SourceAlpha" result="hardAlpha" values="0 0 0 0 0 0 0 0 0 0 0 0 0 0 0 0 0 0 127 0"/>
      <feOffset/>
      <feGaussianBlur stdDeviation="2.5"/>
      <feComposite in2="hardAlpha" operator="out"/>
      <feColorMatrix values="0 0 0 0 0 0 0 0 0 0 0 0 0 0 0 0 0 0 0.05 0"/>
      <feBlend in2="BackgroundImageFix" result="effect1_dropShadow_2841_22179"/>
      <feBlend in="SourceGraphic" in2="effect1_dropShadow_2841_22179" result="shape"/>
    </filter>
  </defs>
</svg>
