<?xml version="1.0" standalone="no"?>
<!DOCTYPE svg PUBLIC "-//W3C//DTD SVG 1.1//EN" "http://www.w3.org/Graphics/SVG/1.1/DTD/svg11.dtd" >
<svg xmlns="http://www.w3.org/2000/svg">
<metadata>
<json>
<![CDATA[
{
	"fontFamily": "icomoonV2",
	"majorVersion": 3,
	"minorVersion": 0,
	"description": "Font generated by IcoMoon.",
	"version": "Version 3.0",
	"fontId": "icomoonV2",
	"psName": "icomoonV2",
	"subFamily": "Regular",
	"fullName": "icomoonV2"
}
]]>
</json>
</metadata>
<defs>
<font id="icomoonV2" horiz-adv-x="1024">
<font-face units-per-em="1024" ascent="960" descent="-64" />
<missing-glyph horiz-adv-x="1024" />
<glyph unicode="&#x20;" horiz-adv-x="512" d="" />
<glyph unicode="&#xe900;" glyph-name="arrow-up" data-tags="arrow-up" d="M491.126 675.643c5.344 5.338 12.723 8.639 20.874 8.639s15.53-3.301 20.874-8.639v0l403.692-403.692c5.791-5.407 9.401-13.087 9.401-21.611 0-16.314-13.225-29.538-29.538-29.538-8.523 0-16.203 3.61-21.595 9.384l-0.016 0.017-382.818 382.818-382.818-382.818c-5.261-4.912-12.347-7.928-20.137-7.928-16.314 0-29.538 13.225-29.538 29.538 0 7.79 3.016 14.876 7.944 20.154l-0.016-0.017 403.692 403.692z" />
<glyph unicode="&#xe901;" glyph-name="arrow-up-bold" data-tags="arrow-up-bold" d="M512 694.154c11.052-0.001 21.040-4.554 28.191-11.886l0.008-0.008 393.846-403.692c7.112-7.125 11.511-16.961 11.511-27.824 0-21.752-17.633-39.385-39.385-39.385-11.216 0-21.337 4.688-28.51 12.212l-0.015 0.016-365.647 374.784-365.647-374.784c-7.188-7.54-17.309-12.228-28.525-12.228-21.752 0-39.385 17.633-39.385 39.385 0 10.863 4.398 20.699 11.511 27.825l-0.001-0.001 393.846 403.692c7.16 7.34 17.148 11.893 28.199 11.894v0z" />
<glyph unicode="&#xe902;" glyph-name="arrow-right" data-tags="arrow-right" d="M294.203 872.566c5.344 5.338 12.723 8.639 20.874 8.639s15.53-3.301 20.874-8.639v0l403.692-403.692c5.338-5.344 8.639-12.723 8.639-20.874s-3.301-15.53-8.639-20.874v0l-403.692-403.692c-5.261-4.912-12.347-7.928-20.137-7.928-16.314 0-29.538 13.225-29.538 29.538 0 7.79 3.016 14.876 7.944 20.154l-0.016-0.017 382.818 382.818-382.818 382.818c-5.338 5.344-8.639 12.723-8.639 20.874s3.301 15.53 8.639 20.874v0z" />
<glyph unicode="&#xe903;" glyph-name="arrow-right-bold" data-tags="arrow-right-bold" d="M286.878 869.337c7.16 7.339 17.148 11.89 28.199 11.89 10.699 0 20.401-4.266 27.499-11.189l-0.008 0.008 403.692-393.846c7.339-7.16 11.89-17.148 11.89-28.199s-4.552-21.039-11.882-28.192l-0.008-0.008-403.692-393.846c-7.052-6.723-16.621-10.86-27.157-10.86-21.752 0-39.385 17.633-39.385 39.385 0 10.888 4.418 20.744 11.56 27.874l0.001 0.001 374.784 365.647-374.784 365.647c-7.339 7.16-11.89 17.148-11.89 28.199 0 10.699 4.266 20.401 11.189 27.499l-0.008-0.008z" />
<glyph unicode="&#xe904;" glyph-name="arrow-down" data-tags="arrow-down" d="M87.434 665.797c5.344 5.338 12.723 8.639 20.874 8.639s15.53-3.301 20.874-8.639v0l382.818-382.818 382.818 382.818c5.407 5.791 13.087 9.401 21.611 9.401 16.314 0 29.538-13.225 29.538-29.538 0-8.523-3.61-16.203-9.384-21.595l-0.017-0.016-403.692-403.692c-5.344-5.338-12.723-8.639-20.874-8.639s-15.53 3.301-20.874 8.639v0l-403.692 403.692c-5.338 5.344-8.639 12.723-8.639 20.874s3.301 15.53 8.639 20.874v0z" />
<glyph unicode="&#xe905;" glyph-name="arrow-down-bold" data-tags="arrow-down-bold" d="M90.663 673.122c7.090 6.916 16.792 11.181 27.49 11.181 11.051 0 21.039-4.552 28.192-11.882l0.008-0.008 365.647-374.784 365.647 374.784c7.13 7.142 16.986 11.56 27.874 11.56 21.752 0 39.385-17.633 39.385-39.385 0-10.536-4.137-20.105-10.875-27.173l0.015 0.016-393.846-403.692c-7.16-7.339-17.148-11.89-28.199-11.89s-21.039 4.552-28.192 11.882l-0.008 0.008-393.846 403.692c-6.916 7.090-11.181 16.792-11.181 27.49 0 11.051 4.552 21.039 11.882 28.192l0.008 0.008z" />
<glyph unicode="&#xe906;" glyph-name="arrow-left" data-tags="arrow-left" d="M729.797 872.566c5.338-5.344 8.639-12.723 8.639-20.874s-3.301-15.53-8.639-20.874v0l-382.818-382.818 382.818-382.818c5.791-5.407 9.401-13.087 9.401-21.611 0-16.314-13.225-29.538-29.538-29.538-8.523 0-16.203 3.61-21.595 9.384l-0.016 0.017-403.692 403.692c-5.338 5.344-8.639 12.723-8.639 20.874s3.301 15.53 8.639 20.874v0l403.692 403.692c5.344 5.338 12.723 8.639 20.874 8.639s15.53-3.301 20.874-8.639v0z" />
<glyph unicode="&#xe907;" glyph-name="arrow-left-bold" data-tags="arrow-left-bold" d="M737.122 869.337c6.916-7.090 11.181-16.792 11.181-27.49 0-11.051-4.552-21.039-11.882-28.192l-0.008-0.008-374.784-365.647 374.784-365.647c7.54-7.188 12.228-17.309 12.228-28.525 0-21.752-17.633-39.385-39.385-39.385-10.863 0-20.699 4.398-27.825 11.511l0.001-0.001-403.692 393.846c-7.339 7.16-11.89 17.148-11.89 28.199s4.552 21.039 11.882 28.192l0.008 0.008 403.692 393.846c7.090 6.916 16.792 11.181 27.49 11.181 11.051 0 21.039-4.552 28.192-11.882l0.008-0.008z" />
<glyph unicode="&#xe908;" glyph-name="add" data-tags="add" d="M512 881.231c16.314 0 29.538-13.225 29.538-29.538v0-374.154h374.154c16.314 0 29.538-13.225 29.538-29.538s-13.225-29.538-29.538-29.538v0h-374.154v-374.154c0-16.314-13.225-29.538-29.538-29.538s-29.538 13.225-29.538 29.538v0 374.154h-374.154c-16.314 0-29.538 13.225-29.538 29.538s13.225 29.538 29.538 29.538v0h374.154v374.154c0 16.314 13.225 29.538 29.538 29.538v0z" />
<glyph unicode="&#xe909;" glyph-name="add-bold" data-tags="add-bold" d="M512 881.231c21.752 0 39.385-17.633 39.385-39.385v0-354.462h354.462c21.752 0 39.385-17.633 39.385-39.385s-17.633-39.385-39.385-39.385v0h-354.462v-354.462c0-21.752-17.633-39.385-39.385-39.385s-39.385 17.633-39.385 39.385v0 354.462h-354.462c-21.752 0-39.385 17.633-39.385 39.385s17.633 39.385 39.385 39.385v0h354.462v354.462c0 21.752 17.633 39.385 39.385 39.385v0z" />
<glyph unicode="&#xe90a;" glyph-name="cross" data-tags="cross" d="M166.203 793.797c5.344 5.338 12.723 8.639 20.874 8.639s15.53-3.301 20.874-8.639v0l304.049-304.049 304.049 304.049c5.407 5.791 13.087 9.401 21.611 9.401 16.314 0 29.538-13.225 29.538-29.538 0-8.523-3.61-16.203-9.384-21.595l-0.017-0.016-304.049-304.049 304.049-304.049c5.791-5.407 9.401-13.087 9.401-21.611 0-16.314-13.225-29.538-29.538-29.538-8.523 0-16.203 3.61-21.595 9.384l-0.016 0.017-304.049 304.049-304.049-304.049c-5.261-4.912-12.347-7.928-20.137-7.928-16.314 0-29.538 13.225-29.538 29.538 0 7.79 3.016 14.876 7.944 20.154l-0.016-0.017 304.049 304.049-304.049 304.049c-5.338 5.344-8.639 12.723-8.639 20.874s3.301 15.53 8.639 20.874v0z" />
<glyph unicode="&#xe90b;" glyph-name="cross-bold" data-tags="cross-bold" d="M159.232 800.768c7.127 7.125 16.971 11.531 27.845 11.531s20.718-4.407 27.845-11.531l297.078-297.078 297.078 297.078c7.172 7.418 17.212 12.024 28.329 12.024 21.752 0 39.385-17.633 39.385-39.385 0-11.116-4.606-21.157-12.013-28.318l-297.089-297.089 297.078-297.078c6.84-7.075 11.056-16.726 11.056-27.361 0-21.752-17.633-39.385-39.385-39.385-10.635 0-20.286 4.215-27.372 11.066l-297.067 297.067-297.078-297.078c-7.075-6.84-16.726-11.056-27.361-11.056-21.752 0-39.385 17.633-39.385 39.385 0 10.635 4.215 20.286 11.066 27.372l297.067 297.067-297.078 297.078c-7.125 7.127-11.531 16.971-11.531 27.845s4.407 20.718 11.531 27.845v0z" />
<glyph unicode="&#xe90c;" glyph-name="minus" data-tags="minus" d="M78.769 448c0 16.314 13.225 29.538 29.538 29.538v0h807.385c16.314 0 29.538-13.225 29.538-29.538s-13.225-29.538-29.538-29.538v0h-807.385c-16.314 0-29.538 13.225-29.538 29.538v0z" />
<glyph unicode="&#xe90d;" glyph-name="minus-bold" data-tags="minus-bold" d="M78.769 448c0 21.752 17.633 39.385 39.385 39.385v0h787.692c21.752 0 39.385-17.633 39.385-39.385s-17.633-39.385-39.385-39.385v0h-787.692c-21.752 0-39.385 17.633-39.385 39.385v0z" />
<glyph unicode="&#xe90e;" glyph-name="circled-add" data-tags="circled-add" d="M512 54.154c-217.521 0-393.846 176.325-393.846 393.846s176.325 393.846 393.846 393.846c217.521 0 393.846-176.325 393.846-393.846s-176.325-393.846-393.846-393.846zM512 14.769c239.262 0 433.231 193.969 433.231 433.231s-193.969 433.231-433.231 433.231-433.231-193.969-433.231-433.231 193.969-433.231 433.231-433.231zM512 644.923c10.876 0 19.692-8.817 19.692-19.692v0-157.538h157.538c10.876 0 19.692-8.817 19.692-19.692s-8.817-19.692-19.692-19.692v0h-157.538v-157.538c0-10.876-8.817-19.692-19.692-19.692s-19.692 8.817-19.692 19.692v0 157.538h-157.538c-10.876 0-19.692 8.817-19.692 19.692s8.817 19.692 19.692 19.692v0h157.538v157.538c0 10.876 8.817 19.692 19.692 19.692v0z" />
<glyph unicode="&#xe90f;" glyph-name="circled-add-bold" data-tags="circled-add-bold" d="M512 73.846v0c-206.639 0-374.154 167.514-374.154 374.154s167.514 374.154 374.154 374.154v0c206.639 0 374.154-167.514 374.154-374.154s-167.514-374.154-374.154-374.154zM512 14.769c239.262 0 433.231 193.969 433.231 433.231s-193.969 433.231-433.231 433.231-433.231-193.969-433.231-433.231 193.969-433.231 433.231-433.231zM512 654.769c16.314 0 29.538-13.225 29.538-29.538v0-147.692h147.692c16.314 0 29.538-13.225 29.538-29.538s-13.225-29.538-29.538-29.538v0h-147.692v-147.692c0-16.314-13.225-29.538-29.538-29.538s-29.538 13.225-29.538 29.538v0 147.692h-147.692c-16.314 0-29.538 13.225-29.538 29.538s13.225 29.538 29.538 29.538v0h147.692v147.692c0 16.314 13.225 29.538 29.538 29.538v0z" />
<glyph unicode="&#xe910;" glyph-name="circled-minus" data-tags="circled-minus" d="M512 54.154c-217.521 0-393.846 176.325-393.846 393.846s176.325 393.846 393.846 393.846c217.521 0 393.846-176.325 393.846-393.846s-176.325-393.846-393.846-393.846zM512 14.769c239.262 0 433.231 193.969 433.231 433.231s-193.969 433.231-433.231 433.231-433.231-193.969-433.231-433.231 193.969-433.231 433.231-433.231zM315.077 448c0 10.876 8.817 19.692 19.692 19.692v0h354.462c10.876 0 19.692-8.817 19.692-19.692s-8.817-19.692-19.692-19.692v0h-354.462c-10.876 0-19.692 8.817-19.692 19.692v0z" />
<glyph unicode="&#xe911;" glyph-name="circled-minus-bold" data-tags="circled-minus-bold" d="M512 73.846v0c-206.639 0-374.154 167.514-374.154 374.154s167.514 374.154 374.154 374.154v0c206.639 0 374.154-167.514 374.154-374.154s-167.514-374.154-374.154-374.154zM512 14.769c239.262 0 433.231 193.969 433.231 433.231s-193.969 433.231-433.231 433.231-433.231-193.969-433.231-433.231 193.969-433.231 433.231-433.231zM305.231 448c0 16.314 13.225 29.538 29.538 29.538v0h354.462c16.314 0 29.538-13.225 29.538-29.538s-13.225-29.538-29.538-29.538v0h-354.462c-16.314 0-29.538 13.225-29.538 29.538v0z" />
<glyph unicode="&#xe912;" glyph-name="circled-cross" data-tags="circled-cross" d="M512 54.154c-217.521 0-393.846 176.325-393.846 393.846s176.325 393.846 393.846 393.846c217.521 0 393.846-176.325 393.846-393.846s-176.325-393.846-393.846-393.846zM512 14.769c239.262 0 433.231 193.969 433.231 433.231s-193.969 433.231-433.231 433.231-433.231-193.969-433.231-433.231 193.969-433.231 433.231-433.231zM370.058 589.942c3.563 3.562 8.486 5.766 13.922 5.766s10.359-2.203 13.923-5.766l114.097-114.097 114.058 114.097c3.567 3.571 8.496 5.781 13.942 5.781 10.882 0 19.703-8.821 19.703-19.703 0-5.436-2.201-10.358-5.761-13.923v0l-114.097-114.097 114.097-114.058c3.56-3.565 5.761-8.486 5.761-13.922 0-10.882-8.821-19.703-19.703-19.703-5.446 0-10.376 2.209-13.942 5.781v0l-114.058 114.058-114.058-114.097c-3.568-3.568-8.497-5.775-13.942-5.775-10.889 0-19.717 8.828-19.717 19.717 0 5.445 2.207 10.374 5.775 13.942v0l114.097 114.058-114.097 114.058c-3.574 3.565-5.785 8.496-5.785 13.942s2.211 10.377 5.785 13.942v0z" />
<glyph unicode="&#xe913;" glyph-name="circled-cross-bold" data-tags="circled-cross-bold" d="M512 73.846v0c-206.639 0-374.154 167.514-374.154 374.154s167.514 374.154 374.154 374.154v0c206.639 0 374.154-167.514 374.154-374.154s-167.514-374.154-374.154-374.154zM512 14.769c239.262 0 433.231 193.969 433.231 433.231s-193.969 433.231-433.231 433.231-433.231-193.969-433.231-433.231 193.969-433.231 433.231-433.231zM363.126 596.874c5.344 5.338 12.723 8.639 20.874 8.639s15.53-3.301 20.874-8.639v0l107.126-107.126 107.126 107.126c5.407 5.791 13.087 9.401 21.611 9.401 16.314 0 29.538-13.225 29.538-29.538 0-8.523-3.61-16.203-9.384-21.595l-0.017-0.016-107.126-107.126 107.126-107.126c5.791-5.407 9.401-13.087 9.401-21.611 0-16.314-13.225-29.538-29.538-29.538-8.523 0-16.203 3.61-21.595 9.384l-0.016 0.017-107.126 107.126-107.126-107.126c-5.407-5.791-13.087-9.401-21.611-9.401-16.314 0-29.538 13.225-29.538 29.538 0 8.523 3.61 16.203 9.384 21.595l0.017 0.016 107.126 107.126-107.126 107.126c-5.338 5.344-8.639 12.723-8.639 20.874s3.301 15.53 8.639 20.874v0z" />
<glyph unicode="&#xe914;" glyph-name="check" data-tags="check" d="M512 54.154c-217.521 0-393.846 176.325-393.846 393.846s176.325 393.846 393.846 393.846c217.521 0 393.846-176.325 393.846-393.846s-176.325-393.846-393.846-393.846zM512 14.769c239.262 0 433.231 193.969 433.231 433.231s-193.969 433.231-433.231 433.231-433.231-193.969-433.231-433.231 193.969-433.231 433.231-433.231zM683.481 560.404c3.574-3.565 5.785-8.496 5.785-13.942s-2.211-10.377-5.785-13.942v0l-196.923-196.923c-3.565-3.574-8.496-5.785-13.942-5.785s-10.377 2.211-13.942 5.785v0l-98.462 98.462c-3.568 3.568-5.775 8.497-5.775 13.942 0 10.889 8.828 19.717 19.717 19.717 5.445 0 10.374-2.207 13.942-5.775v0l84.519-84.559 182.981 183.020c3.565 3.574 8.496 5.785 13.942 5.785s10.377-2.211 13.942-5.785v0z" />
<glyph unicode="&#xe915;" glyph-name="check-bold" data-tags="check-bold" d="M512 73.846v0c-206.639 0-374.154 167.514-374.154 374.154s167.514 374.154 374.154 374.154v0c206.639 0 374.154-167.514 374.154-374.154s-167.514-374.154-374.154-374.154zM512 14.769c239.262 0 433.231 193.969 433.231 433.231s-193.969 433.231-433.231 433.231-433.231-193.969-433.231-433.231 193.969-433.231 433.231-433.231zM690.412 567.335c5.338-5.344 8.639-12.723 8.639-20.874s-3.301-15.53-8.639-20.874v0l-196.923-196.923c-5.344-5.338-12.723-8.639-20.874-8.639s-15.53 3.301-20.874 8.639v0l-98.462 98.462c-5.791 5.407-9.401 13.087-9.401 21.611 0 16.314 13.225 29.538 29.538 29.538 8.523 0 16.203-3.61 21.595-9.384l0.016-0.017 77.588-77.588 176.049 176.049c5.344 5.338 12.723 8.639 20.874 8.639s15.53-3.301 20.874-8.639v0z" />
<glyph unicode="&#xe916;" glyph-name="tooltip" data-tags="tooltip" d="M512 54.154c-217.521 0-393.846 176.325-393.846 393.846s176.325 393.846 393.846 393.846c217.521 0 393.846-176.325 393.846-393.846s-176.325-393.846-393.846-393.846zM512 14.769c239.262 0 433.231 193.969 433.231 433.231s-193.969 433.231-433.231 433.231-433.231-193.969-433.231-433.231 193.969-433.231 433.231-433.231zM541.538 615.385c0-16.314-13.225-29.538-29.538-29.538s-29.538 13.225-29.538 29.538v0c0 16.314 13.225 29.538 29.538 29.538s29.538-13.225 29.538-29.538v0zM512 487.385c10.876 0 19.692-8.817 19.692-19.692v0-216.615c0-10.876-8.817-19.692-19.692-19.692s-19.692 8.817-19.692 19.692v0 216.615c0 10.876 8.817 19.692 19.692 19.692v0z" />
<glyph unicode="&#xe917;" glyph-name="tooltip-bold" data-tags="tooltip-bold" d="M512 73.846v0c-206.639 0-374.154 167.514-374.154 374.154s167.514 374.154 374.154 374.154v0c206.639 0 374.154-167.514 374.154-374.154s-167.514-374.154-374.154-374.154zM512 14.769c239.262 0 433.231 193.969 433.231 433.231s-193.969 433.231-433.231 433.231-433.231-193.969-433.231-433.231 193.969-433.231 433.231-433.231zM551.385 615.385c0-21.752-17.633-39.385-39.385-39.385s-39.385 17.633-39.385 39.385v0c0 21.752 17.633 39.385 39.385 39.385s39.385-17.633 39.385-39.385v0zM512 497.231c16.314 0 29.538-13.225 29.538-29.538v0-216.615c0-16.314-13.225-29.538-29.538-29.538s-29.538 13.225-29.538 29.538v0 216.615c0 16.314 13.225 29.538 29.538 29.538v0z" />
<glyph unicode="&#xe918;" glyph-name="options" data-tags="options" d="M512 54.154c-217.521 0-393.846 176.325-393.846 393.846s176.325 393.846 393.846 393.846c217.521 0 393.846-176.325 393.846-393.846s-176.325-393.846-393.846-393.846zM512 14.769c239.262 0 433.231 193.969 433.231 433.231s-193.969 433.231-433.231 433.231-433.231-193.969-433.231-433.231 193.969-433.231 433.231-433.231zM551.385 644.923c0-21.752-17.633-39.385-39.385-39.385s-39.385 17.633-39.385 39.385v0c0 21.752 17.633 39.385 39.385 39.385s39.385-17.633 39.385-39.385v0zM551.385 251.077c0-21.752-17.633-39.385-39.385-39.385s-39.385 17.633-39.385 39.385v0c0 21.752 17.633 39.385 39.385 39.385s39.385-17.633 39.385-39.385v0zM551.385 448c0-21.752-17.633-39.385-39.385-39.385s-39.385 17.633-39.385 39.385v0c0 21.752 17.633 39.385 39.385 39.385s39.385-17.633 39.385-39.385v0z" />
<glyph unicode="&#xe919;" glyph-name="options-bold" data-tags="options-bold" d="M512 73.846v0c-206.639 0-374.154 167.514-374.154 374.154s167.514 374.154 374.154 374.154v0c206.639 0 374.154-167.514 374.154-374.154s-167.514-374.154-374.154-374.154zM512 14.769c239.262 0 433.231 193.969 433.231 433.231s-193.969 433.231-433.231 433.231-433.231-193.969-433.231-433.231 193.969-433.231 433.231-433.231zM561.231 251.077c0-27.189-22.041-49.231-49.231-49.231s-49.231 22.041-49.231 49.231v0c0 27.189 22.041 49.231 49.231 49.231s49.231-22.041 49.231-49.231v0zM561.231 448c0-27.189-22.041-49.231-49.231-49.231s-49.231 22.041-49.231 49.231v0c0 27.189 22.041 49.231 49.231 49.231s49.231-22.041 49.231-49.231v0zM561.231 644.923c0-27.189-22.041-49.231-49.231-49.231s-49.231 22.041-49.231 49.231v0c0 27.189 22.041 49.231 49.231 49.231s49.231-22.041 49.231-49.231v0z" />
<glyph unicode="&#xe91a;" glyph-name="error" data-tags="error" d="M512 54.154c-217.521 0-393.846 176.325-393.846 393.846s176.325 393.846 393.846 393.846c217.521 0 393.846-176.325 393.846-393.846s-176.325-393.846-393.846-393.846zM512 14.769c239.262 0 433.231 193.969 433.231 433.231s-193.969 433.231-433.231 433.231-433.231-193.969-433.231-433.231 193.969-433.231 433.231-433.231zM541.538 300.308c0-16.314-13.225-29.538-29.538-29.538s-29.538 13.225-29.538 29.538v0c0 16.314 13.225 29.538 29.538 29.538s29.538-13.225 29.538-29.538v0zM512 654.769c10.876 0 19.692-8.817 19.692-19.692v0-187.077c0-10.876-8.817-19.692-19.692-19.692s-19.692 8.817-19.692 19.692v0 187.077c0 10.876 8.817 19.692 19.692 19.692v0z" />
<glyph unicode="&#xe91b;" glyph-name="error-bold" data-tags="error-bold" d="M512 73.846v0c-206.639 0-374.154 167.514-374.154 374.154s167.514 374.154 374.154 374.154v0c206.639 0 374.154-167.514 374.154-374.154s-167.514-374.154-374.154-374.154zM512 14.769c239.262 0 433.231 193.969 433.231 433.231s-193.969 433.231-433.231 433.231-433.231-193.969-433.231-433.231 193.969-433.231 433.231-433.231zM551.385 300.308c0-21.752-17.633-39.385-39.385-39.385s-39.385 17.633-39.385 39.385v0c0 21.752 17.633 39.385 39.385 39.385s39.385-17.633 39.385-39.385v0zM512 664.615c16.314 0 29.538-13.225 29.538-29.538v0-187.077c0-16.314-13.225-29.538-29.538-29.538s-29.538 13.225-29.538 29.538v0 187.077c0 16.314 13.225 29.538 29.538 29.538v0z" />
<glyph unicode="&#xe91c;" glyph-name="clock" data-tags="clock" d="M512 54.154c-217.521 0-393.846 176.325-393.846 393.846s176.325 393.846 393.846 393.846c217.521 0 393.846-176.325 393.846-393.846s-176.325-393.846-393.846-393.846zM512 14.769c239.262 0 433.231 193.969 433.231 433.231s-193.969 433.231-433.231 433.231-433.231-193.969-433.231-433.231 193.969-433.231 433.231-433.231zM512 684.308c10.876 0 19.692-8.817 19.692-19.692v0-208.463l112.404-112.364c3.568-3.568 5.775-8.497 5.775-13.942 0-10.889-8.828-19.717-19.717-19.717-5.445 0-10.374 2.207-13.942 5.775v0l-118.154 118.154c-3.553 3.562-5.75 8.478-5.75 13.907 0 0.012 0 0.025 0 0.037v-0.002 216.615c0 10.876 8.817 19.692 19.692 19.692v0z" />
<glyph unicode="&#xe91d;" glyph-name="clock-bold" data-tags="clock-bold" d="M512 73.846v0c-206.639 0-374.154 167.514-374.154 374.154s167.514 374.154 374.154 374.154v0c206.639 0 374.154-167.514 374.154-374.154s-167.514-374.154-374.154-374.154zM512 14.769c239.262 0 433.231 193.969 433.231 433.231s-193.969 433.231-433.231 433.231-433.231-193.969-433.231-433.231 193.969-433.231 433.231-433.231zM512 694.154c16.314 0 29.538-13.225 29.538-29.538v0-204.406l109.489-109.489c5.791-5.407 9.401-13.087 9.401-21.611 0-16.314-13.225-29.538-29.538-29.538-8.523 0-16.203 3.61-21.595 9.384l-0.016 0.017-118.154 118.154c-5.347 5.341-8.657 12.72-8.665 20.872v216.616c0 16.314 13.225 29.538 29.538 29.538v0z" />
<glyph unicode="&#xe91e;" glyph-name="chat" data-tags="chat" d="M512 54.154c217.521 0 393.846 176.325 393.846 393.846s-176.325 393.846-393.846 393.846-393.846-176.325-393.846-393.846c0-55.926 11.618-109.017 32.571-157.105 11.815-27.175 15.636-59.471 5.238-90.663l-36.234-108.78c-0.913-2.663-1.441-5.732-1.441-8.924 0-15.661 12.696-28.357 28.357-28.357 3.192 0 6.26 0.527 9.124 1.5l-0.2-0.059 108.898 36.234c31.114 10.437 63.449 6.617 90.585-5.199 48.049-20.874 101.1-32.492 156.948-32.492zM945.231 448c0-239.262-193.969-433.231-433.231-433.231-61.361 0-119.729 12.761-172.623 35.761-19.771 8.586-41.984 10.791-62.464 3.978l-108.859-36.273c-52.972-17.644-103.345 32.689-85.701 85.662l36.234 108.78c6.853 20.48 4.647 42.732-3.978 62.503-22.65 50.736-35.84 109.946-35.84 172.236 0 0.205 0 0.41 0 0.615v-0.032c0 239.262 193.969 433.231 433.231 433.231s433.231-193.969 433.231-433.231zM315.077 546.462c0 10.876 8.817 19.692 19.692 19.692v0h354.462c10.876 0 19.692-8.817 19.692-19.692s-8.817-19.692-19.692-19.692v0h-354.462c-10.876 0-19.692 8.817-19.692 19.692v0zM315.077 349.538c0 10.876 8.817 19.692 19.692 19.692v0h216.615c10.876 0 19.692-8.817 19.692-19.692s-8.817-19.692-19.692-19.692v0h-216.615c-10.876 0-19.692 8.817-19.692 19.692v0z" />
<glyph unicode="&#xe91f;" glyph-name="chat-bold" data-tags="chat-bold" d="M512 73.846c206.639 0 374.154 167.514 374.154 374.154s-167.514 374.154-374.154 374.154c-206.639 0-374.154-167.514-374.154-374.154v0c0-53.169 11.028-103.582 30.917-149.228 13.43-30.838 18.078-68.254 5.908-104.763l-36.234-108.78c-0.371-0.892-0.587-1.928-0.587-3.015 0-0.621 0.070-1.225 0.204-1.805l-0.010 0.054c0.354-1.26 1.142-2.757 2.442-4.096 1.097-1.13 2.48-1.977 4.031-2.426l0.065-0.016c1.063-0.276 2.521-0.394 4.805 0.354l108.859 36.273c36.51 12.209 73.846 7.562 104.684-5.868 43.733-19.489 94.764-30.839 148.445-30.839 0.22 0 0.44 0 0.66 0.001h-0.034zM276.874 54.548l-108.82-36.313c-52.972-17.644-103.345 32.689-85.701 85.662l36.234 108.78c6.853 20.48 4.647 42.732-3.978 62.503-22.65 50.736-35.84 109.946-35.84 172.236 0 0.205 0 0.41 0 0.615v-0.032c0 239.262 193.969 433.231 433.231 433.231s433.231-193.969 433.231-433.231-193.969-433.231-433.231-433.231c-61.361 0-119.729 12.761-172.623 35.761-19.771 8.586-41.984 10.791-62.464 3.978zM305.231 546.462c0 16.314 13.225 29.538 29.538 29.538v0h354.462c16.314 0 29.538-13.225 29.538-29.538s-13.225-29.538-29.538-29.538v0h-354.462c-16.314 0-29.538 13.225-29.538 29.538v0zM305.231 349.538c0 16.314 13.225 29.538 29.538 29.538v0h216.615c16.314 0 29.538-13.225 29.538-29.538s-13.225-29.538-29.538-29.538v0h-216.615c-16.314 0-29.538 13.225-29.538 29.538v0z" />
<glyph unicode="&#xe920;" glyph-name="burger" data-tags="burger" d="M157.538 704c0 10.876 8.817 19.692 19.692 19.692v0h669.538c10.876 0 19.692-8.817 19.692-19.692s-8.817-19.692-19.692-19.692v0h-669.538c-10.876 0-19.692 8.817-19.692 19.692v0zM157.538 448c0 10.876 8.817 19.692 19.692 19.692v0h669.538c10.876 0 19.692-8.817 19.692-19.692s-8.817-19.692-19.692-19.692v0h-669.538c-10.876 0-19.692 8.817-19.692 19.692v0zM157.538 192c0 10.876 8.817 19.692 19.692 19.692v0h669.538c10.876 0 19.692-8.817 19.692-19.692s-8.817-19.692-19.692-19.692v0h-669.538c-10.876 0-19.692 8.817-19.692 19.692v0z" />
<glyph unicode="&#xe921;" glyph-name="burger-bold" data-tags="burger-bold" d="M147.692 704c0 16.314 13.225 29.538 29.538 29.538v0h669.538c16.314 0 29.538-13.225 29.538-29.538s-13.225-29.538-29.538-29.538v0h-669.538c-16.314 0-29.538 13.225-29.538 29.538v0zM147.692 448c0 16.314 13.225 29.538 29.538 29.538v0h669.538c16.314 0 29.538-13.225 29.538-29.538s-13.225-29.538-29.538-29.538v0h-669.538c-16.314 0-29.538 13.225-29.538 29.538v0zM147.692 192c0 16.314 13.225 29.538 29.538 29.538v0h669.538c16.314 0 29.538-13.225 29.538-29.538s-13.225-29.538-29.538-29.538v0h-669.538c-16.314 0-29.538 13.225-29.538 29.538v0z" />
<glyph unicode="&#xe922;" glyph-name="document" data-tags="document" d="M748.308 841.846v0c43.503 0 78.769-35.266 78.769-78.769v-630.154c0-43.503-35.266-78.769-78.769-78.769h-472.615c-43.503 0-78.769 35.266-78.769 78.769v630.154c0 43.503 35.266 78.769 78.769 78.769h472.615zM275.692 881.231c-65.255 0-118.154-52.899-118.154-118.154v0-630.154c0-65.255 52.899-118.154 118.154-118.154v0h472.615c65.255 0 118.154 52.899 118.154 118.154v0 630.154c0 65.255-52.899 118.154-118.154 118.154v0h-472.615zM324.923 625.231c0 10.876 8.817 19.692 19.692 19.692v0h334.769c10.876 0 19.692-8.817 19.692-19.692s-8.817-19.692-19.692-19.692v0h-334.769c-10.876 0-19.692 8.817-19.692 19.692v0zM324.923 448c0 10.876 8.817 19.692 19.692 19.692v0h334.769c10.876 0 19.692-8.817 19.692-19.692s-8.817-19.692-19.692-19.692v0h-334.769c-10.876 0-19.692 8.817-19.692 19.692v0zM324.923 270.769c0 10.876 8.817 19.692 19.692 19.692v0h206.769c10.876 0 19.692-8.817 19.692-19.692s-8.817-19.692-19.692-19.692v0h-206.769c-10.876 0-19.692 8.817-19.692 19.692v0z" />
<glyph unicode="&#xe923;" glyph-name="document-bold" data-tags="document-bold" d="M748.308 822.154v0c32.627 0 59.077-26.45 59.077-59.077v-630.154c0-32.627-26.45-59.077-59.077-59.077h-472.615c-32.627 0-59.077 26.45-59.077 59.077v630.154c0 32.627 26.45 59.077 59.077 59.077h472.615zM275.692 881.231c-65.255 0-118.154-52.899-118.154-118.154v0-630.154c0-65.255 52.899-118.154 118.154-118.154v0h472.615c65.255 0 118.154 52.899 118.154 118.154v0 630.154c0 65.255-52.899 118.154-118.154 118.154v0h-472.615zM315.077 625.231c0 16.314 13.225 29.538 29.538 29.538v0h334.769c16.314 0 29.538-13.225 29.538-29.538s-13.225-29.538-29.538-29.538v0h-334.769c-16.314 0-29.538 13.225-29.538 29.538v0zM315.077 448c0 16.314 13.225 29.538 29.538 29.538v0h334.769c16.314 0 29.538-13.225 29.538-29.538s-13.225-29.538-29.538-29.538v0h-334.769c-16.314 0-29.538 13.225-29.538 29.538v0zM315.077 270.769c0 16.314 13.225 29.538 29.538 29.538v0h206.769c16.314 0 29.538-13.225 29.538-29.538s-13.225-29.538-29.538-29.538v0h-206.769c-16.314 0-29.538 13.225-29.538 29.538v0z" />
<glyph unicode="&#xe924;" glyph-name="bell" data-tags="bell" d="M275.692 605.381l-0.118-39.227v-0.079c0-195.899-16.857-290.895-63.882-374.075h600.891c-47.025 83.141-64 178.176-63.882 374.075v0.118l-0.197 39.345c0 130.481-105.826 236.308-236.386 236.308-0.023 0-0.051 0-0.079 0-130.517 0-236.325-105.794-236.347-236.306v-0.16zM788.086 566.154c-0.197-216.615 21.031-299.874 74.949-381.086 9.058-13.627-0.276-32.453-16.62-32.453h-668.593c-16.345 0-25.679 18.826-16.66 32.453 53.957 81.211 74.988 164.47 74.988 381.086l0.197 39.385c0 152.261 123.471 275.692 275.771 275.692 0.012 0 0.026 0 0.039 0 152.269 0 275.709-123.427 275.732-275.69v-0.002l0.158-39.385zM424.172 99.919c2.63 1.391 5.749 2.207 9.059 2.207 7.567 0 14.137-4.268 17.434-10.528l0.052-0.108c11.695-22.374 34.736-37.382 61.282-37.382s49.588 15.008 61.102 37.002l0.181 0.379c3.349 6.367 9.92 10.635 17.487 10.635 10.877 0 19.694-8.817 19.694-19.694 0-3.309-0.816-6.428-2.259-9.166l0.052 0.108c-18.392-35.11-54.575-58.656-96.256-58.656s-77.864 23.545-95.972 58.061l-0.284 0.595c-1.386 2.626-2.199 5.74-2.199 9.043 0 7.579 4.282 14.159 10.559 17.451l0.108 0.052z" />
<glyph unicode="&#xe925;" glyph-name="bell-bold" data-tags="bell-bold" d="M295.385 605.302l-0.118-39.148v-0.118c0-175.458-13.391-273.172-51.279-354.343h536.3c-37.888 81.132-51.397 178.846-51.279 354.343l-0.197 39.503c0 119.611-97.004 216.615-216.694 216.615-0.023 0-0.051 0-0.079 0-119.641 0-216.632-96.977-216.655-216.613v-0.238zM788.086 566.154c-0.197-216.615 21.031-299.874 74.949-381.086 9.058-13.627-0.276-32.453-16.62-32.453h-668.593c-16.345 0-25.679 18.826-16.66 32.453 53.957 81.211 74.988 164.47 74.988 381.086l0.197 39.385c0 152.261 123.471 275.692 275.771 275.692 0.012 0 0.026 0 0.039 0 152.269 0 275.709-123.427 275.732-275.69v-0.002l0.158-39.385zM419.643 118.587c3.941 2.081 8.614 3.303 13.573 3.303 11.363 0 21.227-6.416 26.168-15.823l0.078-0.162c10.020-19.19 29.776-32.063 52.539-32.063s42.519 12.874 52.384 31.738l0.155 0.326c4.858 10.046 14.972 16.853 26.676 16.853 16.314 0 29.538-13.225 29.538-29.538 0-5.293-1.392-10.261-3.83-14.558l0.076 0.146c-20.067-38.295-59.534-63.974-104.999-63.974s-84.933 25.679-104.689 63.325l-0.31 0.649c-2.071 3.933-3.287 8.595-3.287 13.541 0 11.356 6.409 21.216 15.807 26.16l0.162 0.077z" />
<glyph unicode="&#xe926;" glyph-name="coins" data-tags="coins" d="M250.092 730.86c35.801 19.535 86.567 32.217 143.754 32.217s107.914-12.682 143.754-32.217c36.51-19.929 53.169-44.19 53.169-66.245s-16.66-46.316-53.169-66.245c-35.801-19.535-86.567-32.217-143.754-32.217s-107.914 12.682-143.754 32.217c-36.51 19.929-53.169 44.19-53.169 66.245s16.66 46.316 53.169 66.245zM590.769 587.422v-40.96c0-22.055-16.66-46.316-53.169-66.245l0.979 0.5c-5.071-2.819-10.284-5.415-16.851-8.258-11.5-3.426-22.489-7.365-32.847-11.776-28.081-8.034-60.377-12.682-95.035-12.682-57.186 0-107.953 12.682-143.754 32.217-36.51 19.929-53.169 44.19-53.169 66.245v40.96l-0.237 0.201c10.279-8.915 21.52-16.752 34.541-23.832 42.614-23.237 100.155-37.022 162.619-37.022s120.005 13.785 162.619 37.022l0.997 0.5c12.025 6.581 23.265 14.418 33.307 23.131zM630.154 664.615c0 43.205-31.823 77.982-73.689 100.825-42.654 23.237-100.194 37.022-162.619 37.022-62.464 0-120.005-13.785-162.619-37.022-41.866-22.843-73.689-57.62-73.689-100.825v-393.846c0-43.205 31.823-77.982 73.689-100.825 42.614-23.237 100.155-37.022 162.619-37.022 21.346 0 42.063 1.575 61.794 4.647 43.559-27.569 106.26-44.032 174.513-44.032 62.464 0 120.005 13.785 162.58 37.022 41.905 22.843 73.728 57.62 73.728 100.825v118.154c0 43.205-31.823 77.982-73.728 100.825-42.575 23.237-100.076 37.022-162.58 37.022v177.231zM502.272 423.582c13.306 3.911 24.208 7.904 34.795 12.488l-1.948-0.751c27.917 8.055 59.983 12.687 93.13 12.687 0.67 0 1.339-0.002 2.007-0.006h-0.103c57.186 0 107.953-12.682 143.754-32.217 36.51-19.929 53.169-44.19 53.169-66.245s-16.66-46.316-53.169-66.245c-35.801-19.535-86.567-32.217-143.754-32.217s-107.953 12.682-143.754 32.217c-36.51 19.929-53.169 44.19-53.169 66.245s16.66 46.316 53.169 66.245c4.093 2.32 9.305 4.916 14.646 7.275l1.226 0.483zM416.295 409.206c-13.982-17.329-22.449-37.376-22.449-59.668v-39.385c-57.186 0-107.953 12.682-143.754 32.217-36.51 19.929-53.169 44.19-53.169 66.245v60.652l-0.237 0.201c10.279-8.916 21.519-16.752 34.541-23.832 42.614-23.237 100.155-37.022 162.619-37.022 7.562 0 15.045 0.197 22.449 0.591zM393.846 270.769v-39.385c0-21.78 8.113-41.433 21.504-58.486-7.050-0.394-14.257-0.591-21.504-0.591-57.186 0-107.953 12.682-143.754 32.217-36.51 19.929-53.169 44.19-53.169 66.245v60.652l-0.237 0.201c10.279-8.916 21.519-16.752 34.541-23.832 42.614-23.237 100.155-37.022 162.619-37.022zM433.231 272.345l-0.237 0.201c10.279-8.916 21.519-16.752 34.541-23.832 42.654-23.237 100.155-37.022 162.619-37.022s120.005 13.785 162.58 37.022l0.998 0.499c12.040 6.579 23.293 14.415 33.346 23.132v-40.96c0-22.055-16.66-46.316-53.169-66.245-35.801-19.535-86.567-32.217-143.754-32.217-66.166 0-123.353 16.935-158.917 41.511-26.23 18.117-38.006 38.282-38.006 56.95v40.96z" />
<glyph unicode="&#xe927;" glyph-name="coins-bold" data-tags="coins-bold" d="M254.818 722.235c34.068 18.59 83.18 30.996 139.028 30.996s104.96-12.406 139.028-30.996c35.21-19.22 48.049-40.881 48.049-57.62s-12.839-38.4-48.049-57.62c-34.068-18.59-83.18-30.996-139.028-30.996s-104.96 12.406-139.028 30.996c-35.21 19.22-48.049 40.881-48.049 57.62s12.839 38.4 48.049 57.62zM580.923 567.335v-20.874c0-16.738-12.839-38.4-48.049-57.62-4.569-2.481-9.413-4.884-14.533-7.129-11.461-3.387-22.41-7.326-32.729-11.737l2.386 0.576c-29.325-8.281-60.265-12.712-92.24-12.712-0.672 0-1.344 0.002-1.912 0.005-55.847 0-104.96 12.406-139.028 30.996-35.21 19.22-48.049 40.881-48.049 57.62v20.874l-0.69 0.459c6.219-4.363 12.679-8.407 20.462-12.668 44.308-24.143 103.503-38.203 167.306-38.203s122.998 14.021 167.306 38.203l1.143 0.582c6.669 3.699 13.129 7.729 18.628 11.588zM640 664.615c0 48.522-35.643 85.898-78.848 109.489-44.308 24.182-103.503 38.203-167.306 38.203s-122.998-14.021-167.306-38.203c-43.205-23.631-78.848-60.967-78.848-109.489v-393.846c0-48.522 35.643-85.898 78.848-109.489 44.308-24.182 103.503-38.203 167.306-38.203 20.559 0 40.566 1.457 59.668 4.214 45.371-27.569 108.623-43.599 176.64-43.599 63.803 0 122.998 14.060 167.306 38.203 43.205 23.591 78.848 61.007 78.848 109.489v118.154c0 48.522-35.643 85.898-78.848 109.489-42.023 22.922-97.438 36.746-157.46 38.085v167.503zM505.659 414.287c11.422 3.387 22.41 7.326 32.768 11.737 26.939 7.705 57.879 12.136 89.853 12.136 0.659 0 1.317-0.002 1.975-0.006h-0.102c55.847 0 104.96-12.406 139.028-30.996 35.21-19.22 48.049-40.881 48.049-57.62s-12.839-38.4-48.049-57.62c-34.068-18.59-83.18-30.996-139.028-30.996s-104.96 12.406-139.028 30.996c-35.21 19.22-48.049 40.881-48.049 57.62s12.839 38.4 48.049 57.62c4.569 2.481 9.452 4.884 14.533 7.129zM397.273 398.769c-8.389-14.769-13.273-31.232-13.273-49.231v-29.42c-51.751 1.339-97.122 13.391-129.182 30.878-35.21 19.22-48.049 40.881-48.049 57.62v40.566l-0.692 0.46c6.219-4.363 12.679-8.406 20.463-12.669 44.308-24.143 103.503-38.203 167.306-38.203h3.426zM384 261.041v-29.674c0.059-18.118 4.979-35.090 13.273-49.214h-3.426c-55.847 0-104.96 12.406-139.028 30.996-35.21 19.22-48.049 40.881-48.049 57.62v40.566l-0.692 0.46c6.219-4.363 12.679-8.406 20.463-12.669 42.023-22.922 97.438-36.706 157.46-38.085zM443.077 252.258l-0.691 0.459c6.219-4.363 12.679-8.407 20.462-12.668 44.308-24.143 103.503-38.203 167.306-38.203 63.764 0 122.998 14.060 167.306 38.203 6.814 3.742 13.47 7.798 19.771 12.209v-20.874c0-16.738-12.839-38.4-48.049-57.62-34.068-18.59-83.18-30.996-139.028-30.996-64.67 0-119.847 16.62-153.324 39.778-24.812 17.132-33.753 34.658-33.753 48.837v20.834z" />
<glyph unicode="&#xe928;" glyph-name="no-coins" data-tags="no-coins" d="M939.481 875.481c3.574-3.565 5.785-8.496 5.785-13.942s-2.211-10.377-5.785-13.942v0l-827.077-827.077c-3.568-3.568-8.497-5.775-13.942-5.775-10.889 0-19.717 8.828-19.717 19.717 0 5.445 2.207 10.374 5.775 13.942l131.033 130.993c-33.989 22.607-58.014 53.799-58.014 91.372v393.846c0 43.205 31.823 77.982 73.689 100.825 42.614 23.237 100.155 37.022 162.619 37.022s119.966-13.785 162.619-37.022c41.866-22.843 73.689-57.62 73.689-100.825v-70.617l281.442 281.482c3.565 3.574 8.496 5.785 13.942 5.785s10.377-2.211 13.942-5.785v0zM590.769 554.614v32.807c-10.042-8.714-21.282-16.55-33.307-23.131l-0.997-0.5c-42.614-23.237-100.155-37.022-162.619-37.022s-120.005 13.785-162.619 37.022c-13.021 7.080-24.262 14.917-34.541 23.832l0.237-0.201v-40.96c0-22.055 16.66-46.316 53.169-66.245 35.801-19.535 86.567-32.217 143.754-32.217 34.54 0 66.914 4.647 95.035 12.682 4.332 1.851 8.704 3.584 13.194 5.278l88.694 88.655zM394.24 358.124c1.969 18.865 10.004 36.076 22.055 51.082-7.404-0.394-14.887-0.591-22.449-0.591-62.464 0-120.005 13.785-162.619 37.022-13.022 7.079-24.262 14.916-34.541 23.832l0.237-0.201v-60.652c0-19.614 13.036-40.96 42.063-59.668 27.018-17.447 65.26-30.72 110.001-36.116l45.292 45.292zM314.683 278.489c-37.337 7.562-70.735 20.401-97.004 37.376-7.82 5.031-14.594 10.14-20.967 15.698l0.211-0.18v-60.613c0-20.834 14.966-43.717 47.143-62.858l70.577 70.577zM196.923 664.615c0-22.055 16.66-46.316 53.169-66.245 35.84-19.535 86.567-32.217 143.754-32.217s107.953 12.682 143.754 32.217c36.51 19.929 53.169 44.19 53.169 66.245s-16.66 46.316-53.169 66.245c-35.84 19.535-86.567 32.217-143.754 32.217s-107.953-12.682-143.754-32.217c-36.51-19.929-53.169-44.19-53.169-66.245zM649.964 467.692l0.007 0.084c-0.069-0.669-0.104-1.348-0.104-2.036 0-10.175 7.717-18.547 17.702-19.591 48.089-4.805 89.206-18.629 117.681-37.1 28.83-18.708 41.826-39.936 41.826-59.51 0-22.055-16.66-46.316-53.169-66.245-35.801-19.535-86.567-32.217-143.754-32.217-59.353 0-111.774 13.666-147.692 34.422l0.095-0.051c-2.892 1.669-6.249 2.624-9.828 2.624-10.876 0-19.692-8.817-19.692-19.692 0-7.204 3.869-13.505 9.733-16.988 43.087-24.891 102.597-39.7 167.385-39.7 62.464 0 120.005 13.785 162.58 37.022l0.998 0.499c12.040 6.579 23.293 14.415 33.346 23.132v-40.96c0-22.055-16.66-46.316-53.169-66.245-35.801-19.535-86.567-32.217-143.754-32.217-66.087 0-123.313 16.935-158.956 41.511-19.692 13.666-31.429 28.633-35.84 43.047l-0.038 0.14c-2.516 7.98-9.976 13.767-18.788 13.767-10.878 0-19.696-8.818-19.696-19.696 0-2.066 0.318-4.058 0.87-5.79l0.204-0.725c3.872-11.935 9.874-22.911 17.401-32.279l1.024 0.048c-7.425-0.437-14.909-0.659-22.444-0.659-13.193 0-26.227 0.68-37.46 1.871l0.092-0.009c-0.754 0.088-1.522 0.133-2.3 0.133-10.876 0-19.692-8.817-19.692-19.692 0-10.28 7.878-18.721 18.001-19.62l-1.77 0.148c14.121-1.454 28.452-2.198 42.957-2.198 21.853 0 43.311 1.691 61.922 4.65 43.599-27.569 106.26-44.032 174.513-44.032 62.464 0 120.005 13.785 162.58 37.022 41.905 22.843 73.728 57.62 73.728 100.825v118.154c0 38.361-25.206 70.144-59.786 92.554-34.895 22.646-82.393 37.967-135.168 43.244l0.084-0.007c-0.668 0.068-1.346 0.104-2.032 0.104-10.189 0-18.57-7.738-19.595-17.741z" />
<glyph unicode="&#xe929;" glyph-name="no-coins-bold" data-tags="no-coins-bold" d="M936.566 872.566c5.338-5.344 8.639-12.723 8.639-20.874s-3.301-15.53-8.639-20.874v0l-807.385-807.385c-5.261-4.912-12.347-7.928-20.137-7.928-16.314 0-29.538 13.225-29.538 29.538 0 7.79 3.016 14.876 7.944 20.154l-0.016-0.017 112.916 112.955c-30.641 23.158-52.657 54.43-52.657 92.633v393.846c0 48.522 35.643 85.898 78.848 109.489 44.308 24.182 103.503 38.203 167.306 38.203s122.998-14.021 167.306-38.203c43.205-23.591 78.848-60.967 78.848-109.489v-46.868l254.818 254.818c5.344 5.338 12.723 8.639 20.874 8.639s15.53-3.301 20.874-8.639v0zM580.923 558.671v8.665c-6.302-4.411-12.958-8.468-19.771-12.209-44.308-24.182-103.503-38.203-167.306-38.203s-122.998 14.060-167.306 38.203c-7.783 4.262-14.243 8.305-20.462 12.668l0.69-0.459v-20.874c0-16.738 12.839-38.4 48.049-57.62 34.068-18.59 83.18-30.996 139.028-30.996 33.477 0 64.709 4.45 91.766 12.13 3.584 1.575 7.286 3.033 11.028 4.45l84.283 84.283zM384.906 362.693c1.772 12.879 6.144 24.97 12.406 36.076h-3.466c-63.803 0-122.998 14.060-167.306 38.203-7.784 4.263-14.244 8.306-20.463 12.669l0.692-0.46v-40.566c0-14.927 9.964-33.595 37.573-51.397 24.576-15.872 59.589-28.357 101.1-34.028l39.463 39.503zM295.109 272.857c-31.35 7.956-59.589 19.732-82.826 34.737-2.583 1.662-4.38 2.882-6.155 4.129l0.642-0.427v-40.527c0-14.69 10.004-33.201 35.879-50.334l52.421 52.421zM206.769 664.615c0-16.738 12.839-38.4 48.049-57.62 34.068-18.59 83.18-30.996 139.028-30.996s104.96 12.406 139.028 30.996c35.21 19.22 48.049 40.881 48.049 57.62s-12.839 38.4-48.049 57.62c-34.068 18.59-83.18 30.996-139.028 30.996s-104.96-12.406-139.028-30.996c-35.21-19.22-48.049-40.881-48.049-57.62zM640.158 468.677l0.011 0.126c-0.104-1.010-0.158-2.035-0.158-3.072 0-15.27 11.586-27.833 26.574-29.389 46.907-4.687 86.41-18.117 113.31-35.564 27.412-17.762 37.337-36.391 37.337-51.239 0-16.738-12.839-38.4-48.049-57.62-34.068-18.59-83.18-30.996-139.028-30.996-58.014 0-108.623 13.391-142.769 33.122l0.14-0.076c-4.377 2.562-9.471 4.030-14.909 4.030-16.323 0-29.555-13.232-29.555-29.555 0-10.885 5.885-20.396 14.786-25.6 44.859-25.915 106.142-40.999 172.308-40.999 63.764 0 122.998 14.060 167.306 38.203 6.814 3.742 13.47 7.798 19.771 12.209v-20.874c0-16.738-12.839-38.4-48.049-57.62-34.068-18.59-83.18-30.996-139.028-30.996-64.67 0-119.847 16.62-153.324 39.778-18.59 12.839-28.514 26.23-32.059 37.809l-0.058 0.209c-3.806 11.913-14.967 20.54-28.143 20.54-16.314 0-29.538-13.225-29.538-29.538 0-3.046 0.461-5.984 1.261-8.54l0.206-0.751c2.302-7.248 5.362-14.158 8.813-20.122l0.181 0.001c-1.188-0.011-2.377-0.017-3.568-0.017-12.858 0-25.562 0.664-36.51 1.827l0.127-0.011c-1.013 0.105-2.040 0.159-3.081 0.159-16.319 0-29.549-13.229-29.549-29.549 0-15.279 11.596-27.849 26.595-29.401l-1.812 0.154c14.507-1.518 29.234-2.297 44.143-2.297 21.053 0 41.743 1.552 59.675 4.27 45.371-27.609 108.623-43.599 176.64-43.599 63.764 0 122.998 14.060 167.306 38.203 43.205 23.591 78.848 60.967 78.848 109.489v118.154c0 43.047-28.278 77.509-64.276 100.825-36.51 23.67-85.622 39.385-139.579 44.78l0.125-0.010c-0.995 0.101-2.005 0.153-3.028 0.153-15.282 0-27.854-11.605-29.393-26.609z" />
<glyph unicode="&#xe92a;" glyph-name="download" data-tags="download" d="M512 841.846c10.876 0 19.692-8.817 19.692-19.692v0-533.386l173.135 173.174c3.568 3.568 8.497 5.775 13.942 5.775 10.889 0 19.717-8.828 19.717-19.717 0-5.445-2.207-10.374-5.775-13.942l-206.769-206.769c-3.565-3.574-8.496-5.785-13.942-5.785s-10.377 2.211-13.942 5.785v0l-206.769 206.769c-3.568 3.568-5.775 8.497-5.775 13.942 0 10.889 8.828 19.717 19.717 19.717 5.445 0 10.374-2.207 13.942-5.775v0l173.135-173.174v533.386c0 10.876 8.817 19.692 19.692 19.692v0zM236.308 73.846c0 10.876 8.817 19.692 19.692 19.692v0h512c10.876 0 19.692-8.817 19.692-19.692s-8.817-19.692-19.692-19.692v0h-512c-10.876 0-19.692 8.817-19.692 19.692v0z" />
<glyph unicode="&#xe92b;" glyph-name="download-bold" data-tags="download-bold" d="M512 851.692c16.314 0 29.538-13.225 29.538-29.538v0-509.637l156.357 156.357c5.407 5.791 13.087 9.401 21.611 9.401 16.314 0 29.538-13.225 29.538-29.538 0-8.523-3.61-16.203-9.384-21.595l-0.017-0.016-206.769-206.769c-5.344-5.338-12.723-8.639-20.874-8.639s-15.53 3.301-20.874 8.639v0l-206.769 206.769c-5.791 5.407-9.401 13.087-9.401 21.611 0 16.314 13.225 29.538 29.538 29.538 8.523 0 16.203-3.61 21.595-9.384l0.016-0.017 156.357-156.357v509.637c0 16.314 13.225 29.538 29.538 29.538v0zM236.308 73.846c0 16.314 13.225 29.538 29.538 29.538v0h492.308c16.314 0 29.538-13.225 29.538-29.538s-13.225-29.538-29.538-29.538v0h-492.308c-16.314 0-29.538 13.225-29.538 29.538v0z" />
<glyph unicode="&#xe92c;" glyph-name="send" data-tags="send" d="M886.154 723.692c10.876 0 19.692-8.817 19.692-19.692v0-512c0-10.876-8.817-19.692-19.692-19.692s-19.692 8.817-19.692 19.692v0 512c0 10.876 8.817 19.692 19.692 19.692v0zM498.058 668.711c3.565 3.574 8.496 5.785 13.942 5.785s10.377-2.211 13.942-5.785v0l206.769-206.769c3.574-3.565 5.785-8.496 5.785-13.942s-2.211-10.377-5.785-13.942v0l-206.769-206.769c-3.568-3.568-8.497-5.775-13.942-5.775-10.889 0-19.717 8.828-19.717 19.717 0 5.445 2.207 10.374 5.775 13.942l173.174 173.135h-533.386c-10.876 0-19.692 8.817-19.692 19.692s8.817 19.692 19.692 19.692v0h533.386l-173.174 173.135c-3.574 3.565-5.785 8.496-5.785 13.942s2.211 10.377 5.785 13.942v0z" />
<glyph unicode="&#xe92d;" glyph-name="send-bold" data-tags="send-bold" d="M886.154 733.538c16.314 0 29.538-13.225 29.538-29.538v0-512c0-16.314-13.225-29.538-29.538-29.538s-29.538 13.225-29.538 29.538v0 512c0 16.314 13.225 29.538 29.538 29.538v0zM491.126 675.643c5.344 5.338 12.723 8.639 20.874 8.639s15.53-3.301 20.874-8.639v0l206.769-206.769c5.338-5.344 8.639-12.723 8.639-20.874s-3.301-15.53-8.639-20.874v0l-206.769-206.769c-5.407-5.791-13.087-9.401-21.611-9.401-16.314 0-29.538 13.225-29.538 29.538 0 8.523 3.61 16.203 9.384 21.595l0.017 0.016 156.357 156.357h-509.637c-16.314 0-29.538 13.225-29.538 29.538s13.225 29.538 29.538 29.538v0h509.637l-156.357 156.357c-5.338 5.344-8.639 12.723-8.639 20.874s3.301 15.53 8.639 20.874v0z" />
<glyph unicode="&#xe92e;" glyph-name="location" data-tags="location" d="M512 802.462c-174.012 0-315.077-141.065-315.077-315.077v0c0-103.542 60.416-189.873 133.238-257.772 59.707-55.729 125.243-96.807 168.054-123.668l13.785-8.665 13.785 8.665c42.811 26.821 108.347 67.938 168.054 123.668 72.822 67.899 133.238 154.191 133.238 257.772 0 174.012-141.065 315.077-315.077 315.077v0zM157.538 487.385c0 195.764 158.698 354.462 354.462 354.462s354.462-158.698 354.462-354.462v0c0-119.65-69.75-215.71-145.723-286.602-62.858-58.604-132.49-102.203-175.025-128.866-8.94-5.593-16.699-10.437-22.922-14.572-3.041-2.018-6.776-3.22-10.791-3.22s-7.75 1.202-10.864 3.266l0.073-0.045c-6.223 4.135-13.982 8.98-22.922 14.572-42.535 26.663-112.167 70.262-174.986 128.866-76.052 70.892-145.762 166.991-145.762 286.602zM512 566.154c-43.503 0-78.769-35.266-78.769-78.769s35.266-78.769 78.769-78.769v0c43.503 0 78.769 35.266 78.769 78.769s-35.266 78.769-78.769 78.769v0zM393.846 487.385c0 65.255 52.899 118.154 118.154 118.154s118.154-52.899 118.154-118.154v0c0-65.255-52.899-118.154-118.154-118.154s-118.154 52.899-118.154 118.154v0z" />
<glyph unicode="&#xe92f;" glyph-name="location-bold" data-tags="location-bold" d="M512 792.615c-168.574 0-305.231-136.656-305.231-305.231v0c0-99.525 58.092-183.414 130.087-250.604 58.959-54.981 123.471-95.468 166.361-122.368l8.783-5.514 8.783 5.514c42.89 26.9 107.402 67.387 166.361 122.368 71.995 67.19 130.087 151.079 130.087 250.604 0 168.574-136.656 305.231-305.231 305.231v0zM147.692 487.385c0 201.202 163.106 364.308 364.308 364.308s364.308-163.106 364.308-364.308v0c0-123.668-72.074-222.129-148.874-293.809-63.606-59.313-134.302-103.582-176.758-130.166-8.822-5.514-16.423-10.279-22.489-14.257-4.561-3.027-10.164-4.83-16.187-4.83s-11.626 1.803-16.297 4.898l0.11-0.068c-6.065 3.938-13.666 8.743-22.489 14.257-42.496 26.585-113.152 70.853-176.758 130.206-76.8 71.601-148.874 170.102-148.874 293.77zM512 556.308c-38.065 0-68.923-30.858-68.923-68.923s30.858-68.923 68.923-68.923v0c38.065 0 68.923 30.858 68.923 68.923s-30.858 68.923-68.923 68.923v0zM384 487.385c0 70.692 57.308 128 128 128s128-57.308 128-128v0c0-70.692-57.308-128-128-128s-128 57.308-128 128v0z" />
<glyph unicode="&#xe930;" glyph-name="control" data-tags="control" d="M256 802.462c10.876 0 19.692-8.817 19.692-19.692v0-334.769c0-10.876-8.817-19.692-19.692-19.692s-19.692 8.817-19.692 19.692v0 334.769c0 10.876 8.817 19.692 19.692 19.692v0zM512 802.462c10.876 0 19.692-8.817 19.692-19.692v0-177.231h59.077c10.876 0 19.692-8.817 19.692-19.692s-8.817-19.692-19.692-19.692v0h-157.538c-10.876 0-19.692 8.817-19.692 19.692s8.817 19.692 19.692 19.692v0h59.077v177.231c0 10.876 8.817 19.692 19.692 19.692v0zM768 802.462c10.876 0 19.692-8.817 19.692-19.692v0-334.769c0-10.876-8.817-19.692-19.692-19.692s-19.692 8.817-19.692 19.692v0 334.769c0 10.876 8.817 19.692 19.692 19.692v0zM512 467.692c10.876 0 19.692-8.817 19.692-19.692v0-334.769c0-10.876-8.817-19.692-19.692-19.692s-19.692 8.817-19.692 19.692v0 334.769c0 10.876 8.817 19.692 19.692 19.692v0zM157.538 310.154c0 10.876 8.817 19.692 19.692 19.692v0h157.538c10.876 0 19.692-8.817 19.692-19.692s-8.817-19.692-19.692-19.692v0h-59.077v-177.231c0-10.876-8.817-19.692-19.692-19.692s-19.692 8.817-19.692 19.692v0 177.231h-59.077c-10.876 0-19.692 8.817-19.692 19.692v0zM669.538 310.154c0 10.876 8.817 19.692 19.692 19.692v0h157.538c10.876 0 19.692-8.817 19.692-19.692s-8.817-19.692-19.692-19.692v0h-59.077v-177.231c0-10.876-8.817-19.692-19.692-19.692s-19.692 8.817-19.692 19.692v0 177.231h-59.077c-10.876 0-19.692 8.817-19.692 19.692v0z" />
<glyph unicode="&#xe931;" glyph-name="control-bold" data-tags="control-bold" d="M256 812.308c16.314 0 29.538-13.225 29.538-29.538v0-334.769c0-16.314-13.225-29.538-29.538-29.538s-29.538 13.225-29.538 29.538v0 334.769c0 16.314 13.225 29.538 29.538 29.538v0zM512 812.308c16.314 0 29.538-13.225 29.538-29.538v0-167.385h49.231c16.314 0 29.538-13.225 29.538-29.538s-13.225-29.538-29.538-29.538v0h-157.538c-16.314 0-29.538 13.225-29.538 29.538s13.225 29.538 29.538 29.538v0h49.231v167.385c0 16.314 13.225 29.538 29.538 29.538v0zM768 812.308c16.314 0 29.538-13.225 29.538-29.538v0-334.769c0-16.314-13.225-29.538-29.538-29.538s-29.538 13.225-29.538 29.538v0 334.769c0 16.314 13.225 29.538 29.538 29.538v0zM512 477.538c16.314 0 29.538-13.225 29.538-29.538v0-334.769c0-16.314-13.225-29.538-29.538-29.538s-29.538 13.225-29.538 29.538v0 334.769c0 16.314 13.225 29.538 29.538 29.538v0zM147.692 310.154c0 16.314 13.225 29.538 29.538 29.538v0h157.538c16.314 0 29.538-13.225 29.538-29.538s-13.225-29.538-29.538-29.538v0h-49.231v-167.385c0-16.314-13.225-29.538-29.538-29.538s-29.538 13.225-29.538 29.538v0 167.385h-49.231c-16.314 0-29.538 13.225-29.538 29.538v0zM659.692 310.154c0 16.314 13.225 29.538 29.538 29.538v0h157.538c16.314 0 29.538-13.225 29.538-29.538s-13.225-29.538-29.538-29.538v0h-49.231v-167.385c0-16.314-13.225-29.538-29.538-29.538s-29.538 13.225-29.538 29.538v0 167.385h-49.231c-16.314 0-29.538 13.225-29.538 29.538v0z" />
<glyph unicode="&#xe932;" glyph-name="fullscreen" data-tags="fullscreen" d="M236.308 763.077c-21.752 0-39.385-17.633-39.385-39.385v0-118.154c0-10.876-8.817-19.692-19.692-19.692s-19.692 8.817-19.692 19.692v0 118.154c0 43.503 35.266 78.769 78.769 78.769v0h118.154c10.876 0 19.692-8.817 19.692-19.692s-8.817-19.692-19.692-19.692v0h-118.154zM649.846 782.769c0 10.876 8.817 19.692 19.692 19.692v0h118.154c43.503 0 78.769-35.266 78.769-78.769v0-118.154c0-10.876-8.817-19.692-19.692-19.692s-19.692 8.817-19.692 19.692v0 118.154c0 21.752-17.633 39.385-39.385 39.385v0h-118.154c-10.876 0-19.692 8.817-19.692 19.692v0zM177.231 310.154c10.876 0 19.692-8.817 19.692-19.692v0-118.154c0-21.752 17.633-39.385 39.385-39.385v0h118.154c10.876 0 19.692-8.817 19.692-19.692s-8.817-19.692-19.692-19.692v0h-118.154c-43.503 0-78.769 35.266-78.769 78.769v0 118.154c0 10.876 8.817 19.692 19.692 19.692v0zM846.769 310.154c10.876 0 19.692-8.817 19.692-19.692v0-118.154c0-43.503-35.266-78.769-78.769-78.769v0h-118.154c-10.876 0-19.692 8.817-19.692 19.692s8.817 19.692 19.692 19.692v0h118.154c21.752 0 39.385 17.633 39.385 39.385v0 118.154c0 10.876 8.817 19.692 19.692 19.692v0z" />
<glyph unicode="&#xe933;" glyph-name="fullscreen-bold" data-tags="fullscreen-bold" d="M236.308 753.231c-16.314 0-29.538-13.225-29.538-29.538v0-118.154c0-16.314-13.225-29.538-29.538-29.538s-29.538 13.225-29.538 29.538v0 118.154c0 48.941 39.674 88.615 88.615 88.615v0h118.154c16.314 0 29.538-13.225 29.538-29.538s-13.225-29.538-29.538-29.538v0h-118.154zM640 782.769c0 16.314 13.225 29.538 29.538 29.538v0h118.154c48.941 0 88.615-39.674 88.615-88.615v0-118.154c0-16.314-13.225-29.538-29.538-29.538s-29.538 13.225-29.538 29.538v0 118.154c0 16.314-13.225 29.538-29.538 29.538v0h-118.154c-16.314 0-29.538 13.225-29.538 29.538v0zM177.231 320c16.314 0 29.538-13.225 29.538-29.538v0-118.154c0-16.305 13.233-29.538 29.538-29.538h118.154c16.314 0 29.538-13.225 29.538-29.538s-13.225-29.538-29.538-29.538v0h-118.154c-48.941 0-88.615 39.674-88.615 88.615v0 118.154c0 16.314 13.225 29.538 29.538 29.538v0zM846.769 320c16.314 0 29.538-13.225 29.538-29.538v0-118.154c0-48.941-39.674-88.615-88.615-88.615v0h-118.154c-16.314 0-29.538 13.225-29.538 29.538s13.225 29.538 29.538 29.538v0h118.154c16.314 0 29.538 13.225 29.538 29.538v0 118.154c0 16.314 13.225 29.538 29.538 29.538v0z" />
<glyph unicode="&#xe934;" glyph-name="headset" data-tags="headset" d="M512 763.077c-174.001 0-315.077-141.115-315.077-315.195 0-28.436 2.678-58.407 7.089-88.34 11.417 12.402 25.892 21.817 42.235 27.062l0.694 0.192 28.239 8.862c5.295 1.724 11.388 2.718 17.714 2.718 26.502 0 48.928-17.45 56.414-41.487l0.112-0.418 52.382-172.229c1.625-5.147 2.561-11.067 2.561-17.205 0-25.525-16.187-47.269-38.857-55.526l-0.411-0.131-34.58-12.367c-47.695-17.014-101.218 6.695-117.287 56.162-6.999 19.634-16.019 49.968-24.059 80.698l-2.25 10.123-5.711 21.819c-0.929 3.339-1.77 7.475-2.345 11.695l-0.057 0.515c-12.052 53.839-21.268 112.916-21.268 167.857 0 195.86 158.72 354.58 354.462 354.58s354.462-158.72 354.462-354.58c0-55.060-9.255-114.137-21.268-167.857-0.617-4.729-1.445-8.866-2.52-12.903l0.157 0.693-5.711-21.74-0.039-0.079c-10.282-40.83-19.302-71.164-29.269-101.065l2.96 10.244c-16.069-49.467-69.593-73.177-117.287-56.162l-34.58 12.367c-23.061 8.398-39.232 30.133-39.232 55.644 0 6.143 0.938 12.067 2.677 17.636l-0.113-0.419 52.342 172.229c7.599 24.456 30.025 41.906 56.526 41.906 6.325 0 12.419-0.994 18.132-2.835l-0.418 0.116 28.278-8.862c17.014-5.356 31.626-14.966 42.929-27.254 4.372 29.972 7.050 59.904 7.050 88.34 0 0.023 0 0.051 0 0.079 0 174.020-141.060 315.094-315.075 315.116h-0.002zM806.361 286.72c0.201 1.828 0.315 3.949 0.315 6.096 0 26.313-17.203 48.608-40.975 56.252l-0.418 0.116-28.278 8.901c-1.761 0.572-3.786 0.901-5.889 0.901-8.837 0-16.314-5.821-18.807-13.837l-0.037-0.14-52.382-172.229c-0.545-1.722-0.86-3.702-0.86-5.755 0-8.501 5.386-15.743 12.932-18.501l0.137-0.044 34.658-12.367c28.081-10.043 57.777 4.175 66.56 31.232 10.143 29.192 21.494 69.129 31.093 109.743l1.912 9.592zM217.679 286.72c11.437-50.059 22.788-90.010 35.837-129.186l-2.833 9.811c8.783-27.057 38.479-41.236 66.56-31.232l34.658 12.367c7.683 2.802 13.069 10.044 13.069 18.545 0 2.054-0.314 4.034-0.897 5.895l0.038-0.14-52.382 172.229c-2.53 8.156-10.008 13.977-18.845 13.977-2.103 0-4.128-0.33-6.028-0.94l0.139 0.039-28.278-8.901c-24.173-7.771-41.359-30.057-41.359-56.358 0-2.165 0.116-4.302 0.343-6.407l-0.023 0.261z" />
<glyph unicode="&#xe935;" glyph-name="headset-bold" data-tags="headset-bold" d="M512 753.231c-168.584-0.045-305.231-136.719-305.231-305.31 0-0.014 0-0.028 0-0.042v0.002c0-22.095 1.654-45.174 4.49-68.529 9.61 7.247 20.598 12.997 32.689 16.817l28.278 8.901c6.186 2.017 13.304 3.18 20.694 3.18 30.924 0 57.092-20.366 65.821-48.417l0.131-0.488 52.303-172.268c1.892-6 2.982-12.9 2.982-20.055 0-29.742-18.839-55.085-45.236-64.745l-0.479-0.153-34.658-12.367c-52.539-18.786-112.049 7.286-129.93 62.385-7.040 19.752-16.114 50.27-24.203 81.187l-2.264 10.186-5.711 21.78c-1.142 4.332-1.969 8.665-2.599 12.997-12.091 54.154-21.386 113.822-21.386 169.59 0 201.255 163.092 364.426 364.308 364.426s364.308-163.17 364.308-364.426c0-55.926-9.334-115.594-21.386-169.59-0.591-4.332-1.457-8.665-2.599-12.997l-5.671-21.662v-0.118c-10.368-41.1-19.455-71.617-29.493-101.699l2.987 10.326c-17.881-55.138-77.391-81.172-129.969-62.385l-34.619 12.367c-26.875 9.813-45.714 35.156-45.714 64.898 0 7.155 1.090 14.055 3.113 20.543l-0.131-0.488 52.342 172.268c8.876 28.515 35.031 48.858 65.938 48.858 7.381 0 14.49-1.16 21.157-3.308l-0.488 0.136 28.278-8.862c12.091-3.82 23.079-9.531 32.689-16.778 2.727 20.457 4.354 44.232 4.489 68.361l0.001 0.168c0 0.012 0 0.026 0 0.039 0 168.582-136.652 305.248-305.229 305.27h-0.002zM796.593 288.295c0.134 1.363 0.21 2.946 0.21 4.548 0 21.92-14.326 40.495-34.127 46.87l-0.348 0.097-28.278 8.862c-0.883 0.288-1.9 0.454-2.955 0.454-4.405 0-8.135-2.893-9.392-6.883l-0.019-0.070-52.382-172.268c-0.267-0.852-0.421-1.832-0.421-2.847 0-4.262 2.707-7.891 6.496-9.262l0.069-0.022 34.619-12.367c23.198-8.271 46.946 3.545 53.878 24.97 10.025 28.805 21.266 68.264 30.783 108.39l1.906 9.528zM227.407 288.295c2.284-10.24 4.726-20.283 7.207-30.129 8.35-32.886 17.408-63.015 25.442-87.788 6.932-21.425 30.72-33.28 53.878-24.97l34.658 12.367c3.82 1.412 6.494 5.023 6.494 9.258 0 1.025-0.157 2.013-0.447 2.942l0.019-0.070-52.342 172.229c-1.265 4.078-5.004 6.988-9.422 6.988-1.051 0-2.064-0.165-3.014-0.47l0.070 0.019-28.278-8.862c-20.151-6.472-34.479-25.047-34.479-46.969 0-1.615 0.078-3.211 0.23-4.786l-0.016 0.2z" />
<glyph unicode="&#xe936;" glyph-name="letter" data-tags="letter" d="M827.077 763.077v0c43.503 0 78.769-35.266 78.769-78.769v-472.615c0-43.503-35.266-78.769-78.769-78.769h-630.154c-43.503 0-78.769 35.266-78.769 78.769v472.615c0 43.503 35.266 78.769 78.769 78.769h630.154zM196.923 802.462c-65.255 0-118.154-52.899-118.154-118.154v0-472.615c0-65.255 52.899-118.154 118.154-118.154v0h630.154c65.255 0 118.154 52.899 118.154 118.154v0 472.615c0 65.255-52.899 118.154-118.154 118.154v0h-630.154zM219.766 616.172c3.561 5.461 9.64 9.020 16.55 9.020 3.946 0 7.621-1.161 10.702-3.159l-0.077 0.047 254.425-163.17c3.006-1.955 6.684-3.118 10.634-3.118s7.628 1.163 10.71 3.165l-0.076-0.047 254.425 163.21c3.005 1.958 6.684 3.123 10.634 3.123 10.861 0 19.665-8.804 19.665-19.665 0-6.91-3.564-12.988-8.955-16.495l-0.076-0.046-254.385-163.17c-9.032-5.868-20.079-9.357-31.941-9.357s-22.909 3.489-32.171 9.497l0.23-0.14-254.425 163.131c-5.477 3.54-9.051 9.616-9.051 16.526 0 3.958 1.172 7.642 3.189 10.724l-0.046-0.075z" />
<glyph unicode="&#xe937;" glyph-name="letter-bold" data-tags="letter-bold" d="M827.077 743.385v0c32.627 0 59.077-26.45 59.077-59.077v-472.615c0-32.627-26.45-59.077-59.077-59.077h-630.154c-32.627 0-59.077 26.45-59.077 59.077v472.615c0 32.627 26.45 59.077 59.077 59.077h630.154zM196.923 802.462c-65.255 0-118.154-52.899-118.154-118.154v0-472.615c0-65.255 52.899-118.154 118.154-118.154v0h630.154c65.255 0 118.154 52.899 118.154 118.154v0 472.615c0 65.255-52.899 118.154-118.154 118.154v0h-630.154zM211.495 621.529c5.339 8.202 14.463 13.548 24.836 13.548 5.931 0 11.453-1.748 16.081-4.757l-0.114 0.070 254.385-163.21c1.503-0.978 3.342-1.559 5.317-1.559s3.814 0.581 5.355 1.582l-0.038-0.023 254.425 163.21c4.513 2.939 10.035 4.687 15.966 4.687 10.373 0 19.497-5.347 24.767-13.435l0.070-0.114c2.935-4.503 4.681-10.015 4.681-15.934 0-10.358-5.346-19.467-13.428-24.72l-0.114-0.070-254.425-163.249c-22.686-14.572-51.83-14.572-74.516 0l-254.425 163.249c-8.197 5.322-13.543 14.432-13.543 24.79 0 5.919 1.746 11.431 4.751 16.048l-0.069-0.114z" />
<glyph unicode="&#xe938;" glyph-name="lock" data-tags="lock" d="M728.615 566.154h-29.538v68.923c0 95.311-80.345 167.385-187.077 167.385s-187.077-72.074-187.077-167.385v-68.923h-29.538c-54.351 0-98.462-44.111-98.462-98.462v-275.692c0-54.351 44.111-98.462 98.462-98.462h433.231c54.351 0 98.462 44.111 98.462 98.462v275.692c0 54.351-44.111 98.462-98.462 98.462zM364.308 635.077c0 74.043 62.228 128 147.692 128s147.692-53.957 147.692-128v-68.923h-295.385v68.923zM787.692 192c0-32.689-26.388-59.077-59.077-59.077h-433.231c-32.689 0-59.077 26.388-59.077 59.077v275.692c0 32.689 26.388 59.077 59.077 59.077h433.231c32.689 0 59.077-26.388 59.077-59.077v-275.692zM551.385 369.231c0 21.662-17.723 39.385-39.385 39.385s-39.385-17.723-39.385-39.385c0-14.572 8.271-26.388 19.692-33.477v-64.985c0-11.028 8.665-19.692 19.692-19.692s19.692 8.665 19.692 19.692v64.985c11.422 6.695 19.692 18.905 19.692 33.477z" />
<glyph unicode="&#xe939;" glyph-name="lock-bold" data-tags="lock-bold" d="M725.339 567.424h-19.574v58.759c0 101.849-82.208 176.278-195.734 176.278-113.53 0-195.739-74.429-195.739-176.278v-58.759h-19.574c-58.721 0-109.613-47.008-109.613-109.685v-274.211c0-58.758 46.977-109.682 109.613-109.682h430.62c58.722 0 109.615 47.006 109.615 109.682v274.211c0 58.758-46.978 109.685-109.615 109.685zM373.013 626.183c0 66.594 58.721 117.519 137.018 117.519 78.293 0 137.015-50.925 137.015-117.519v-58.759h-274.033v58.759zM772.317 183.528c0-27.42-19.574-47.006-43.063-47.006h-434.535c-27.403 0-46.977 23.505-46.977 47.006v274.211c0 27.42 23.489 47.009 46.977 47.009h430.62c27.404 0 46.978-23.505 46.978-47.009zM510.031 406.816c-27.404 0-46.978-23.505-46.978-47.006 0-23.505 7.83-27.424 19.574-39.176v-58.758c0-15.671 11.744-31.338 31.315-31.338 19.574 0 31.319 11.752 31.319 31.338v58.758c11.744 7.838 19.574 23.505 19.574 39.176 0 27.42-23.489 47.006-46.978 47.006h-7.826z" />
<glyph unicode="&#xe93a;" glyph-name="play" data-tags="play" d="M357.73 749.489c-72.31 39.818-160.807-12.406-160.807-94.838v-413.302c0-82.393 88.497-134.695 160.807-94.838l431.655 237.686c50.255 27.687 50.255 99.919 0 127.606l-431.695 237.686zM157.538 654.651c0 112.443 120.674 183.65 219.175 129.339l431.655-237.686c77.47-42.693 77.47-153.954 0-196.608l-431.695-237.647c-98.422-54.351-219.136 16.896-219.136 129.3v413.302z" />
<glyph unicode="&#xe93b;" glyph-name="play-bold" data-tags="play-bold" d="M352.965 740.864c-65.772 36.234-146.196-11.303-146.196-86.213v-413.302c0-74.91 80.463-122.447 146.196-86.252l431.655 237.726c43.481 23.946 43.481 86.41 0 110.356l-431.655 237.686zM147.692 654.651c0 119.966 128.748 195.82 233.787 137.964l431.655-237.686c84.244-46.395 84.244-167.463 0-213.858l-431.695-237.686c-105.039-57.856-233.787 17.999-233.787 137.964v413.302z" />
<glyph unicode="&#xe93c;" glyph-name="microphone" data-tags="microphone" d="M512 763.077c-65.255 0-118.154-52.899-118.154-118.154v0-157.538c0-65.255 52.899-118.154 118.154-118.154s118.154 52.899 118.154 118.154v0 157.538c0 65.255-52.899 118.154-118.154 118.154v0zM354.462 644.923c0 87.006 70.532 157.538 157.538 157.538s157.538-70.532 157.538-157.538v0-157.538c0-87.006-70.532-157.538-157.538-157.538s-157.538 70.532-157.538 157.538v0 157.538zM256 507.077c10.876 0 19.692-8.817 19.692-19.692v0c0-130.509 105.799-236.308 236.308-236.308s236.308 105.799 236.308 236.308v0c0 10.876 8.817 19.692 19.692 19.692s19.692-8.817 19.692-19.692v0c-0.003-145.329-112.454-264.393-255.092-274.93l-0.908-0.054v-99.17c0-10.876-8.817-19.692-19.692-19.692s-19.692 8.817-19.692 19.692v0 99.17c-143.546 10.59-255.997 129.654-256 274.983v0c0 10.876 8.817 19.692 19.692 19.692v0z" />
<glyph unicode="&#xe93d;" glyph-name="microphone-bold" data-tags="microphone-bold" d="M512 753.231c-59.817 0-108.308-48.491-108.308-108.308v0-157.538c0-59.817 48.491-108.308 108.308-108.308s108.308 48.491 108.308 108.308v0 157.538c0 59.817-48.491 108.308-108.308 108.308v0zM344.615 644.923c0 92.444 74.941 167.385 167.385 167.385s167.385-74.941 167.385-167.385v0-157.538c0-92.444-74.941-167.385-167.385-167.385s-167.385 74.941-167.385 167.385v0 157.538zM256 516.923c16.314 0 29.538-13.225 29.538-29.538v0c0-125.071 101.39-226.462 226.462-226.462s226.462 101.39 226.462 226.462v0c0 16.314 13.225 29.538 29.538 29.538s29.538-13.225 29.538-29.538v0c0-147.302-111.524-268.556-254.743-283.932l-1.257-0.11v-90.112c0-16.314-13.225-29.538-29.538-29.538s-29.538 13.225-29.538 29.538v0 90.112c-144.476 15.486-256 136.74-256 284.042v0c0 16.314 13.225 29.538 29.538 29.538v0z" />
<glyph unicode="&#xe93e;" glyph-name="pen" data-tags="pen" d="M848.786 655.178l-129.607 129.609c-23.564 23.565-58.915 23.565-82.479 0l-463.451-459.522c-11.783-11.784-15.71-23.568-15.71-43.205v-168.885c0-11.784 7.855-19.637 19.638-19.637h168.885c15.711 0 27.493 3.927 43.203 15.711l459.522 459.523c23.568 23.565 23.568 58.913 0 82.478v3.928zM357.843 140.67c-3.927-3.927-7.855-7.857-11.783-7.857h-149.247v149.248c0 3.927 0 7.853 7.855 11.784l325.987 329.913 157.101-157.101-329.914-329.913v3.927zM817.369 600.193l-102.116-102.115-157.105 157.101 102.116 102.116c7.857 7.855 19.641 7.855 27.494 0l129.611-129.609c7.853-7.855 7.853-19.638 0-27.493z" />
<glyph unicode="&#xe93f;" glyph-name="pen-bold" data-tags="pen-bold" d="M865.768 652.090l-129.985 129.987c-27.179 27.179-69.723 27.179-96.898 0l-460.864-460.864c-13.787-13.785-20.483-29.542-20.483-48.447v-169.377c0-16.152 13.393-29.542 29.542-29.542h169.377c18.907 0 34.663 6.695 48.448 20.484l460.863 460.863c27.179 27.177 27.179 69.718 0 96.897zM363.154 136.082c-3.152-3.151-3.939-3.151-6.697-3.151h-139.834v139.835c0 2.757 0 3.545 3.151 6.695l323.784 324.179 142.986-143.774-323.785-323.785h0.394zM824.017 596.945l-95.323-95.323-142.986 143.772 95.323 95.324c4.332 4.333 9.058 4.333 13.391 0l129.989-129.987c4.332-4.333 4.332-9.060 0-13.392l-0.394-0.394z" />
<glyph unicode="&#xe940;" glyph-name="profil" data-tags="profil" d="M512 802.462c-70.692 0-128-57.308-128-128s57.308-128 128-128v0c70.692 0 128 57.308 128 128s-57.308 128-128 128v0zM344.615 674.462c0 92.444 74.941 167.385 167.385 167.385s167.385-74.941 167.385-167.385v0c0-92.444-74.941-167.385-167.385-167.385s-167.385 74.941-167.385 167.385v0zM196.923 211.692c0 119.633 96.982 216.615 216.615 216.615v0h196.923c119.633 0 216.615-96.982 216.615-216.615v0-19.692c0-76.13-61.716-137.846-137.846-137.846v0h-354.462c-76.13 0-137.846 61.716-137.846 137.846v0 19.692zM413.538 388.923c-97.882 0-177.231-79.349-177.231-177.231v0-19.692c0-54.379 44.083-98.462 98.462-98.462v0h354.462c54.379 0 98.462 44.083 98.462 98.462v0 19.692c0 97.882-79.349 177.231-177.231 177.231v0h-196.923z" />
<glyph unicode="&#xe941;" glyph-name="profil-bold" data-tags="profil-bold" d="M512 792.615c-65.255 0-118.154-52.899-118.154-118.154s52.899-118.154 118.154-118.154v0c65.255 0 118.154 52.899 118.154 118.154s-52.899 118.154-118.154 118.154v0zM334.769 674.462c0 97.882 79.349 177.231 177.231 177.231s177.231-79.349 177.231-177.231v0c0-97.882-79.349-177.231-177.231-177.231s-177.231 79.349-177.231 177.231v0zM187.077 211.692c0 125.071 101.39 226.462 226.462 226.462v0h196.923c125.071 0 226.462-101.39 226.462-226.462v0-19.692c0-81.568-66.124-147.692-147.692-147.692v0h-354.462c-81.568 0-147.692 66.124-147.692 147.692v0 19.692zM413.538 379.077c-92.444 0-167.385-74.941-167.385-167.385v0-19.692c0-48.941 39.674-88.615 88.615-88.615v0h354.462c48.941 0 88.615 39.674 88.615 88.615v0 19.692c0 92.444-74.941 167.385-167.385 167.385v0h-196.923z" />
<glyph unicode="&#xe942;" glyph-name="user-check" data-tags="user-check" d="M452.923 782.769c-65.255 0-118.154-52.899-118.154-118.154s52.899-118.154 118.154-118.154v0c65.255 0 118.154 52.899 118.154 118.154s-52.899 118.154-118.154 118.154v0zM295.385 664.615c0 87.006 70.532 157.538 157.538 157.538s157.538-70.532 157.538-157.538v0c0-87.006-70.532-157.538-157.538-157.538s-157.538 70.532-157.538 157.538v0zM900.096 599.788c3.574-3.565 5.785-8.496 5.785-13.942s-2.211-10.377-5.785-13.942v0l-128-128c-3.565-3.574-8.496-5.785-13.942-5.785s-10.377 2.211-13.942 5.785v0l-68.923 68.923c-3.568 3.568-5.775 8.497-5.775 13.942 0 10.889 8.828 19.717 19.717 19.717 5.445 0 10.374-2.207 13.942-5.775l54.981-55.020 114.058 114.097c3.565 3.574 8.496 5.785 13.942 5.785s10.377-2.211 13.942-5.785v0zM157.538 221.538c0 114.215 92.554 206.769 206.769 206.769h177.231c114.215 0 206.769-92.554 206.769-206.769v-29.538c0-65.255-52.899-118.154-118.154-118.154v0h-354.462c-65.255 0-118.154 52.899-118.154 118.154v0 29.538zM364.308 388.923c-92.444 0-167.385-74.941-167.385-167.385v0-29.538c0-43.503 35.266-78.769 78.769-78.769v0h354.462c43.503 0 78.769 35.266 78.769 78.769v0 29.538c0 92.444-74.941 167.385-167.385 167.385v0h-177.231z" />
<glyph unicode="&#xe943;" glyph-name="user-check-bold" data-tags="user-check-bold" d="M452.923 772.923c-59.817 0-108.308-48.491-108.308-108.308s48.491-108.308 108.308-108.308v0c59.817 0 108.308 48.491 108.308 108.308s-48.491 108.308-108.308 108.308v0zM285.538 664.615c0 92.444 74.941 167.385 167.385 167.385s167.385-74.941 167.385-167.385v0c0-92.444-74.941-167.385-167.385-167.385s-167.385 74.941-167.385 167.385v0zM907.028 606.72c5.338-5.344 8.639-12.723 8.639-20.874s-3.301-15.53-8.639-20.874v0l-128-128c-5.344-5.338-12.723-8.639-20.874-8.639s-15.53 3.301-20.874 8.639v0l-68.923 68.923c-5.791 5.407-9.401 13.087-9.401 21.611 0 16.314 13.225 29.538 29.538 29.538 8.523 0 16.203-3.61 21.595-9.384l0.016-0.017 48.049-48.049 107.126 107.126c5.344 5.338 12.723 8.639 20.874 8.639s15.53-3.301 20.874-8.639v0zM147.692 221.538c0 119.633 96.982 216.615 216.615 216.615v0h177.231c119.633 0 216.615-96.982 216.615-216.615v0-29.538c0-70.692-57.308-128-128-128v0h-354.462c-70.692 0-128 57.308-128 128v0 29.538zM364.308 379.077c-87.006 0-157.538-70.532-157.538-157.538v0-29.538c0-38.046 30.878-68.923 68.923-68.923h354.462c38.065 0 68.923 30.858 68.923 68.923v0 29.538c0 87.006-70.532 157.538-157.538 157.538v0h-177.231z" />
<glyph unicode="&#xe944;" glyph-name="thumb-up" data-tags="thumb-up" d="M449.733 776.153c12.091 13.588 32.020 26.309 62.267 26.309 40.487 0 65.575-27.727 79.478-58.289 13.863-30.523 18.983-68.017 18.983-99.249v-68.923h134.695c0.001 0 0.002 0 0.002 0 66.995 0 121.305-54.31 121.305-121.305 0-13.723-2.279-26.914-6.479-39.215l0.253 0.854-85.15-255.488c-13.444-39.443-50.169-67.308-93.403-67.308-0.006 0-0.012 0-0.018 0h-445.36c-43.503 0-78.769 35.266-78.769 78.769v0 256c0 43.503 35.266 78.769 78.769 78.769v0h113.979l84.007 242.767c1.052 3.242 2.199 5.978 3.539 8.598l-0.152-0.328c3.38 6.889 7.4 12.822 12.12 18.117l-0.069-0.078zM471.788 737.831c-0.098-0.429-0.18-0.732-0.269-1.033l0.032 0.127-88.615-256c-2.755-7.769-10.041-13.233-18.603-13.233-0.009 0-0.018 0-0.027 0h-9.845v-334.769h327.207c0.010 0 0.022 0 0.034 0 25.949 0 47.991 16.73 55.927 39.993l0.123 0.416 85.15 255.449c2.667 7.733 4.207 16.644 4.207 25.915 0 45.243-36.677 81.92-81.92 81.92-0.011 0-0.023 0-0.034 0h-154.386c-10.876 0-19.692 8.817-19.692 19.692v0 88.615c0 27.845-4.726 59.274-15.478 82.944-10.673 23.552-25.009 35.21-43.599 35.21-17.802 0-27.412-6.971-32.847-13.076-3.044-3.447-5.522-7.482-7.233-11.899l-0.092-0.271zM315.077 132.923v334.769h-78.769c-21.752 0-39.385-17.633-39.385-39.385v0-256c0-21.752 17.633-39.385 39.385-39.385v0h78.769z" />
<glyph unicode="&#xe945;" glyph-name="thumb-up-bold" data-tags="thumb-up-bold" d="M442.368 782.73c13.785 15.439 36.313 29.578 69.632 29.578 45.962 0 73.728-31.744 88.418-64.079 14.651-32.217 19.889-71.247 19.889-103.306v-59.077h124.849c89.521 0 152.734-87.71 124.455-172.623l-85.189-255.488c-14.787-43.39-55.186-74.043-102.745-74.043-0.003 0-0.007 0-0.010 0h-445.361c-48.941 0-88.615 39.674-88.615 88.615v0 256c0 48.941 39.674 88.615 88.615 88.615v0h106.969l82.471 238.316c4.077 10.583 9.7 19.687 16.698 27.539l-0.077-0.088zM481.201 734.838c-0.184-0.565-0.318-0.93-0.459-1.292l0.065 0.189-88.615-256c-4.118-11.664-15.040-19.874-27.882-19.889h-0.002v-315.077h317.361c0.001 0 0.001 0 0.002 0 21.624 0 39.992 13.942 46.605 33.327l0.103 0.347 85.189 255.449c2.347 6.805 3.703 14.646 3.703 22.804 0 39.805-32.269 72.074-72.074 72.074-0.014 0-0.028 0-0.042 0h-154.386c-16.314 0-29.538 13.225-29.538 29.538v0 88.615c0 27.018-4.608 56.911-14.572 78.848-9.925 21.819-21.543 29.46-34.658 29.46-14.73 0-21.74-5.553-25.482-9.807-2.151-2.433-3.929-5.26-5.205-8.348l-0.073-0.198-0.039-0.039zM305.231 142.769v315.077h-68.923c-16.314 0-29.538-13.225-29.538-29.538v0-256c0-16.305 13.233-29.538 29.538-29.538h68.923z" />
<glyph unicode="&#xe946;" glyph-name="trash" data-tags="trash" d="M429.962 802.462h164.075c0.006 0 0.012 0 0.017 0 24.426 0 45.389-14.824 54.531-36.352l29.075-69.8c2.996-7.054 9.987-12.002 18.134-12.002 0.005 0 0.009 0 0.013 0h150.961c10.876 0 19.692-8.817 19.692-19.692s-8.817-19.692-19.692-19.692h-60.455l-31.547-441.659-0.023-0.389c-4.51-61.132-55.533-109.329-117.816-109.337h-249.855c-0.009 0-0.018 0-0.027 0-62.289 0-113.32 48.2-117.853 109.726l-31.547 441.659h-60.416c-10.876 0-19.692 8.817-19.692 19.692s8.817 19.692 19.692 19.692h150.959c0.010 0 0.021 0 0.031 0 8.132 0 15.113 4.929 18.166 12.091l29.026 69.711 0.146 0.386c8.996 21.142 29.959 35.966 54.385 35.966 0.006 0 0.012 0 0.016 0zM640 684.308l-27.766 66.639c-3.044 7.183-10.036 12.13-18.183 12.13-0.005 0-0.009 0-0.014 0h-164.076c-0.004 0-0.009 0-0.013 0-8.147 0-15.138-4.947-18.134-12.002l-0.049-0.129-27.766-66.639h256zM746.85 644.923h-469.701l31.35-438.823c3.009-41.029 37.035-73.177 78.57-73.177 0.001 0 0.001 0 0.002 0h249.856c0.001 0 0.001 0 0.002 0 41.535 0 75.562 32.148 78.555 72.918l0.015 0.258 31.35 438.823zM452.923 487.385c0 10.876-8.817 19.692-19.692 19.692s-19.692-8.817-19.692-19.692v0-196.923c0-10.876 8.817-19.692 19.692-19.692s19.692 8.817 19.692 19.692v0 196.923zM610.462 487.385c0 10.876-8.817 19.692-19.692 19.692s-19.692-8.817-19.692-19.692v0-196.923c0-10.876 8.817-19.692 19.692-19.692s19.692 8.817 19.692 19.692v0 196.923z" />
<glyph unicode="&#xe947;" glyph-name="trash-bold" data-tags="trash-bold" d="M429.962 812.308h164.074c0.014 0 0.028 0 0.041 0 28.484 0 52.933-17.279 63.606-42.378l29.050-69.775c1.498-3.527 4.993-6.001 9.067-6.001 0.002 0 0.005 0 0.007 0h150.961c16.314 0 29.538-13.225 29.538-29.538s-13.225-29.538-29.538-29.538h-51.279l-30.878-432.522-0.025-0.422c-4.889-66.228-60.171-118.441-127.648-118.441-0.004 0-0.008 0-0.011 0h-249.855c-0.004 0-0.008 0-0.012 0-67.477 0-122.759 52.213-127.673 118.863l-30.878 432.522h-51.279c-16.314 0-29.538 13.225-29.538 29.538s13.225 29.538 29.538 29.538h150.962c4.051 0.007 7.528 2.46 9.058 6.026l29.026 69.711 0.17 0.451c10.494 24.669 34.953 41.966 63.452 41.966 0.022 0 0.044 0 0.062 0zM625.231 694.154l-22.055 53.012c-1.522 3.592-5.018 6.065-9.091 6.065-0.016 0-0.032 0-0.048 0h-164.074c-0.002 0-0.004 0-0.007 0-4.073 0-7.569-2.474-9.067-6.001l-0.024-0.064-22.095-53.012h226.462zM736.295 635.077h-448.591l30.602-428.308c2.648-35.887 32.414-64 68.747-64 0.006 0 0.013 0 0.019 0h249.855c36.155 0 66.166 27.963 68.766 64l30.602 428.308zM462.769 487.385c0 16.314-13.225 29.538-29.538 29.538s-29.538-13.225-29.538-29.538v0-196.923c0-16.314 13.225-29.538 29.538-29.538s29.538 13.225 29.538 29.538v0 196.923zM620.308 487.385c0 16.314-13.225 29.538-29.538 29.538s-29.538-13.225-29.538-29.538v0-196.923c0-16.314 13.225-29.538 29.538-29.538s29.538 13.225 29.538 29.538v0 196.923z" />
<glyph unicode="&#xe948;" glyph-name="logo" data-tags="logo" d="M984.615 920.615h-945.231v-945.231h945.231v945.231zM1024 960v-1024h-1024v1024h1024zM513.969 231.385c-15.754-23.631-31.508-39.385-47.262-59.077-31.508-7.877-55.138-11.815-86.646-11.815 19.692-7.877 35.446-15.754 55.138-19.692-19.692-15.754-35.446-31.508-55.138-43.323 31.508 7.877 74.831 19.692 106.338 39.385 15.754 0 31.508 0 43.323 3.938-3.938 7.877-3.938 15.754-7.877 27.569 27.569 23.631 51.2 43.323 74.831 66.954-27.569-19.692-47.262-31.508-78.769-47.262-3.938 15.754-3.938 27.569-3.938 43.323zM330.831 164.431c-35.446 11.815-63.015 27.569-90.585 55.138 7.877 23.631 19.692 43.323 35.446 66.954-27.569-3.938-51.2-7.877-74.831-11.815-19.692 35.446-31.508 70.892-39.385 118.154-3.938-51.2-7.877-86.646 0-129.969-23.631-7.877-39.385-11.815-59.077-19.692 27.569-15.754 47.262-27.569 78.769-43.323 15.754-35.446 31.508-59.077 59.077-82.708-7.877 23.631-7.877 39.385-3.938 63.015 27.569-7.877 59.077-11.815 94.523-15.754zM768 696.123c-63.015-35.446-82.708-39.385-149.662-78.769 39.385 43.323 55.138 63.015 78.769 98.462-63.015-7.877-153.6-15.754-216.615-31.508 55.138 31.508 169.354 63.015 228.431 70.892-11.815 19.692-126.031 78.769-153.6 90.585 86.646-7.877 196.923-39.385 248.123-70.892 19.692 7.877 43.323 7.877 78.769 11.815-7.877-15.754-11.815-27.569-47.262-51.2 11.815-27.569-15.754-181.169-35.446-220.554 0 63.015-3.938 145.723-31.508 181.169zM425.354 652.8c-11.815-15.754-23.631-43.323-27.569-55.138 94.523-11.815 165.415-59.077 165.415-59.077-82.708 15.754-122.092 11.815-153.6 7.877-27.569 0-35.446-3.938-35.446-3.938-23.631-47.262-35.446-129.969-35.446-129.969-15.754 35.446-35.446 106.338-35.446 106.338-39.385-23.631-133.908-110.277-133.908-110.277 51.2 102.4 102.4 149.662 102.4 149.662-19.692 19.692-66.954 27.569-98.462 27.569 19.692 7.877 63.015 15.754 98.462 15.754h55.138c35.446 27.569 82.708 51.2 98.462 51.2z" />
<glyph unicode="&#xe949;" glyph-name="view" data-tags="view" d="M511.882 762.998c-207.518 0-327.641-165.022-379.825-260.805-8.746-15.627-13.896-34.291-13.896-54.157 0-19.895 5.165-38.584 14.228-54.799l-0.292 0.57c52.224-95.783 172.426-260.805 379.786-260.805s327.995 165.022 380.219 260.805c8.758 15.636 13.916 34.312 13.916 54.193s-5.158 38.557-14.208 54.764l0.292-0.57c-52.145 95.823-172.702 260.805-380.219 260.805zM97.477 521.019c53.445 98.225 183.729 281.364 414.405 281.364 230.794 0 361.354-183.138 414.838-281.364 11.761-21.065 18.686-46.215 18.686-72.983 0-26.796-6.94-51.972-19.121-73.827l0.395 0.772c-53.524-98.146-184.202-281.364-414.799-281.364-230.558 0-360.842 183.217-414.326 281.364-11.798 21.092-18.746 46.28-18.746 73.091 0 26.753 6.918 51.891 19.062 73.721l-0.395-0.774zM512 585.846c-76.13 0-137.846-61.716-137.846-137.846s61.716-137.846 137.846-137.846v0c76.13 0 137.846 61.716 137.846 137.846s-61.716 137.846-137.846 137.846v0zM334.769 448c0 97.882 79.349 177.231 177.231 177.231s177.231-79.349 177.231-177.231v0c0-97.882-79.349-177.231-177.231-177.231s-177.231 79.349-177.231 177.231v0z" />
<glyph unicode="&#xe94a;" glyph-name="view-bold" data-tags="view-bold" d="M512.118 743.424c-202.161 0-317.282-165.927-364.78-256.473-6.087-11.268-9.664-24.663-9.664-38.895 0-14.261 3.592-27.683 9.921-39.41l-0.218 0.441c47.537-90.585 162.737-256.512 364.702-256.512 204.406 0 318.779 169.905 365.174 259.545 5.556 10.407 8.82 22.762 8.82 35.879s-3.263 25.472-9.023 36.297l0.203-0.418c-46.316 89.639-160.571 259.545-365.135 259.545zM95.035 514.363c48.955 93.42 179.003 288.138 417.083 288.138 240.837 0 369.94-199.286 417.634-291.486 9.715-18.288 15.42-39.985 15.42-63.015s-5.705-44.728-15.778-63.757l0.358 0.741c-47.734-92.16-176.955-291.446-417.634-291.446-237.883 0-368.049 194.718-417.083 288.098-10.354 19.232-16.438 42.087-16.438 66.363s6.084 47.131 16.811 67.123l-0.373-0.76zM512 576c-70.692 0-128-57.308-128-128s57.308-128 128-128v0c70.692 0 128 57.308 128 128s-57.308 128-128 128v0zM324.923 448c0 103.32 83.757 187.077 187.077 187.077s187.077-83.757 187.077-187.077v0c0-103.32-83.757-187.077-187.077-187.077s-187.077 83.757-187.077 187.077v0z" />
<glyph unicode="&#xe94b;" glyph-name="no-view" data-tags="no-view" d="M939.481 847.596l-827.077-827.077c-3.568-3.568-8.497-5.775-13.942-5.775-10.889 0-19.717 8.828-19.717 19.717 0 5.445 2.207 10.374 5.775 13.942l151.591 151.513c-66.402 57.305-111.458 126.070-138.24 175.065l0.395-0.772c-12.172 21.846-19.107 47.009-19.107 73.791s6.935 51.946 18.712 73.019c53.445 98.225 183.69 280.97 414.405 280.97 99.604 0 180.775-34.225 244.933-80.935l154.388 154.427c3.568 3.568 8.497 5.775 13.942 5.775 10.889 0 19.717-8.828 19.717-19.717 0-5.445-2.207-10.374-5.775-13.942zM264.034 227.84l109.489 109.529c-24.192 30.042-38.831 68.666-38.831 110.708 0 97.882 79.349 177.231 177.231 177.231 42.042 0 80.665-14.639 111.050-39.097l-0.342 0.266 106.338 106.338c-57.738 40.802-129.339 69.79-216.694 69.79-207.518 0-327.641-164.628-379.825-260.411-8.755-15.63-13.91-34.3-13.91-54.174s5.156-38.543 14.203-54.744l-0.292 0.57c25.797-47.262 68.884-112.64 131.545-166.006zM512 585.846h0.004c-0.024 0-0.049 0-0.073 0-76.13 0-137.846-61.716-137.846-137.846 0-31.136 10.323-59.861 27.481-82.59l192.985 192.985c-23.001 17.25-51.594 27.451-82.55 27.451zM687.852 425.866c0.064 0.594 0.1 1.282 0.1 1.979 0 10.876-8.817 19.692-19.692 19.692-9.851 0-18.012-7.233-19.463-16.678l-0.014-0.11c-8.125-62.474-57.058-111.408-118.838-119.458l-0.694-0.074c-9.555-1.465-16.788-9.626-16.788-19.477 0-10.876 8.817-19.692 19.692-19.692 0.697 0 1.386 0.036 2.064 0.107l-0.085-0.007c80.352 10.427 143.291 73.367 153.623 152.827l0.095 0.891zM866.343 613.612c-3.639 4.552-9.191 7.443-15.419 7.443-10.876 0-19.692-8.817-19.692-19.692 0-4.49 1.503-8.629 4.032-11.941l-0.035 0.048c19.796-25.384 38.631-53.912 55.173-83.882l1.698-3.355c18.511-34.068 18.511-74.358 0-108.426-52.224-95.783-172.465-260.411-379.825-260.411-0.37-0.001-0.807-0.002-1.245-0.002-40.788 0-80.017 6.674-116.654 18.99l2.581-0.753c-1.84 0.627-3.96 0.989-6.164 0.989-10.878 0-19.697-8.819-19.697-19.697 0-8.674 5.607-16.039 13.394-18.667l0.139-0.041c38.715-12.761 81.25-20.204 127.646-20.204 230.597 0 360.881 182.823 414.405 280.97 11.784 21.085 18.722 46.261 18.722 73.058s-6.939 51.974-19.117 73.831l0.395-0.773c-19.353 35.34-39.335 65.593-61.498 94.064l1.161-1.55z" />
<glyph unicode="&#xe94c;" glyph-name="no-view-bold" data-tags="no-view-bold" d="M512.079 743.424c77.43 0 141.745-24.103 194.56-59.038l-84.874-84.834 0.527-0.368c-30.939 22.643-69.094 36.012-110.371 36.012-103.32 0-187.077-83.757-187.077-187.077 0-41.277 13.368-79.432 35.644-109.845l-90.112-90.112c-59.668 53.012-99.919 116.972-122.998 160.926l0.218-0.441c-6.329 11.727-9.921 25.149-9.921 39.41 0 14.231 3.577 27.627 9.664 38.895 47.498 90.545 162.619 256.473 364.78 256.473zM749.135 726.882c-62.661 43.914-141.312 75.618-237.017 75.618-238.080 0-368.128-194.718-417.083-288.138-10.354-19.232-16.438-42.087-16.438-66.363s6.084-47.131 16.811-67.123l-0.373 0.76c24.537-46.71 67.938-116.263 133.514-175.34l-141.115-141.115c-5.791-5.407-9.401-13.087-9.401-21.611 0-16.314 13.225-29.538 29.538-29.538 8.523 0 16.203 3.61 21.595 9.384l0.016 0.017 807.385 807.385c4.912 5.261 7.928 12.347 7.928 20.137 0 16.314-13.225 29.538-29.538 29.538-7.79 0-14.876-3.016-20.154-7.944l0.017 0.016-145.723-145.644zM579.19 556.977l-176.167-176.167 0.313-0.537c-12.303 19.661-19.415 42.903-19.415 67.806 0 70.692 57.308 128 128 128 24.903 0 48.145-7.112 67.269-19.101zM502.39 288.020l0.016-0.148c1.873-14.509 14.275-25.719 29.294-25.719 1.289 0 2.558 0.083 3.656 0.227l0.941 0.1c83.88 10.903 150.321 77.344 161.324 162.165l-0.011-0.127c0.106 1.018 0.16 2.051 0.16 3.096 0 16.314-13.225 29.538-29.538 29.538-14.776 0-27.019-10.85-29.215-25.182l-0.069-0.645c-7.48-57.36-52.912-102.791-110.917-110.341l-0.148-0.016c-14.509-1.873-25.719-14.275-25.719-29.294 0-1.289 0.083-2.558 0.227-3.656zM829.007 613.455l-0.073-0.053c-7.104-5.394-11.692-13.931-11.692-23.54 0-6.7 2.231-12.879 5.936-17.761 24.379-32.453 41.472-63.842 54.075-88.182l-0.203 0.419c5.76-10.832 9.023-23.194 9.023-36.318s-3.263-25.486-8.82-35.899c-46.395-89.639-160.729-259.545-365.135-259.545h0.069c-0.447-0.002-0.894-0.003-1.342-0.003-37.22 0-73.060 5.907-104.2 16.15l0.209-0.059c-2.886 0.941-5.968 1.45-9.169 1.45-16.321 0-29.551-13.23-29.551-29.551 0-13.12 8.55-24.243 20.591-28.16 37.612-11.973 78.69-18.905 123.392-18.905 240.679 0 369.9 199.286 417.634 291.525l-0.358-0.742c10.067 19.032 15.768 40.729 15.768 63.758s-5.701 44.726-15.41 63.015c-13.785 26.585-32.571 60.889-59.392 96.571l-0.053 0.073c-5.394 7.104-13.931 11.692-23.54 11.692-6.7 0-12.879-2.231-17.761-5.936z" />
<glyph unicode="&#xe94d;" glyph-name="refresh" data-tags="refresh" d="M159.508 485.337c19.54 179.036 169.906 317.121 352.525 317.121 145.99 0 271.368-88.248 325.701-214.309l0.883-2.302h-149.386c-10.876 0-19.692-8.817-19.692-19.692s8.817-19.692 19.692-19.692v0h196.923c10.876 0 19.692 8.817 19.692 19.692v0 216.615c0 10.876-8.817 19.692-19.692 19.692s-19.692-8.817-19.692-19.692v0-162.895c-65.31 132.455-199.383 221.972-354.364 221.972-0.034 0-0.069 0-0.103 0h0.006c-203.54 0-371.003-154.388-391.68-352.414-0.119-0.815-0.188-1.755-0.188-2.712 0-10.876 8.817-19.692 19.692-19.692 10.389 0 18.898 8.044 19.64 18.244l0.004 0.064zM903.68 406.567c0.119 0.815 0.188 1.755 0.188 2.712 0 10.876-8.817 19.692-19.692 19.692-10.389 0-18.898-8.044-19.64-18.244l-0.004-0.064c-19.468-179.105-169.869-317.27-352.54-317.27-146.047 0-271.466 88.317-325.765 214.457l-0.882 2.303h149.425c10.876 0 19.692 8.817 19.692 19.692s-8.817 19.692-19.692 19.692v0h-196.923c-10.876 0-19.692-8.817-19.692-19.692v0-216.615c0-10.876 8.817-19.692 19.692-19.692s19.692 8.817 19.692 19.692v0 162.895c65.31-132.455 199.383-221.972 354.364-221.972 0.034 0 0.069 0 0.103 0h-0.006c203.54 0 371.003 154.388 391.68 352.414z" />
<glyph unicode="&#xe94e;" glyph-name="refresh-bold" data-tags="refresh-bold" d="M169.275 484.313c18.954 174.105 165.165 308.404 342.743 308.404 136.707 0 254.823-79.592 310.539-194.965l0.897-2.059h-134.223c-16.314 0-29.538-13.225-29.538-29.538s13.225-29.538 29.538-29.538v0h196.923c16.314 0 29.538 13.225 29.538 29.538v0 216.615c0 16.314-13.225 29.538-29.538 29.538s-29.538-13.225-29.538-29.538v0-124.416c-72.073 116.722-199.29 193.339-344.402 193.339-0.075 0-0.151 0-0.226 0h0.012c-208.62 0-380.258-158.208-401.487-361.236-0.102-0.921-0.16-1.99-0.16-3.072 0-16.315 13.226-29.541 29.541-29.541 15.233 0 27.773 11.53 29.37 26.339l0.011 0.13zM913.487 405.543c0.102 0.921 0.16 1.99 0.16 3.072 0 16.315-13.226 29.541-29.541 29.541-15.233 0-27.773-11.53-29.37-26.339l-0.011-0.13c-18.954-174.105-165.165-308.404-342.743-308.404-136.707 0-254.823 79.592-310.539 194.965l-0.897 2.059h134.223c16.314 0 29.538 13.225 29.538 29.538s-13.225 29.538-29.538 29.538v0h-196.923c-16.314 0-29.538-13.225-29.538-29.538v0-216.615c0-16.314 13.225-29.538 29.538-29.538s29.538 13.225 29.538 29.538v0 124.455c72.068-116.744 199.297-193.379 344.426-193.379 0.067 0 0.133 0 0.2 0h-0.010c208.62 0 380.258 158.208 401.487 361.236z" />
<glyph unicode="&#xe94f;" glyph-name="wait" data-tags="wait" d="M236.308 861.538c0 10.876 8.817 19.692 19.692 19.692v0h512c10.876 0 19.692-8.817 19.692-19.692s-8.817-19.692-19.692-19.692v0h-10.398c18.671-20.753 30.090-48.354 30.090-78.622 0-0.052 0-0.104 0-0.155v0.008c0-102.833-76.8-218.466-236.426-315.077 159.586-96.61 236.426-212.244 236.426-315.077 0-30.247-11.382-57.895-30.090-78.769h10.398c10.876 0 19.692-8.817 19.692-19.692s-8.817-19.692-19.692-19.692v0h-512c-10.876 0-19.692 8.817-19.692 19.692s8.817 19.692 19.692 19.692v0h10.398c-18.67 20.748-30.090 48.344-30.090 78.607 0 0.057 0 0.114 0 0.171v-0.009c0 102.833 76.8 218.466 236.426 315.077-159.586 96.61-236.426 212.244-236.426 315.077 0 30.247 11.382 57.895 30.090 78.769h-10.398c-10.876 0-19.692 8.817-19.692 19.692v0zM512 470.607c53.878 30.759 97.516 63.015 131.938 95.547h-263.877c34.422-32.492 78.060-64.788 131.938-95.547zM681.196 605.538c46.434 55.532 67.111 110.159 67.111 157.538 0 43.503-35.266 78.769-78.769 78.769v0h-315.077c-43.503 0-78.769-35.266-78.769-78.769v0c0-47.38 20.677-102.006 67.111-157.538h338.393zM492.308 413.814c-118.784-72.074-183.493-151.276-206.651-221.814h452.687c-23.158 70.538-87.828 149.78-206.651 221.814v-123.353c0-10.876-8.817-19.692-19.692-19.692s-19.692 8.817-19.692 19.692v0 123.353zM276.874 152.615c-0.788-6.695-1.182-13.273-1.182-19.692 0-43.503 35.266-78.769 78.769-78.769v0h315.077c43.503 0 78.769 35.266 78.769 78.769v0c0 6.42-0.394 12.997-1.182 19.692h-470.252z" />
<glyph unicode="&#xe950;" glyph-name="wait-bold" data-tags="wait-bold" d="M226.462 851.692c0 16.314 13.225 29.538 29.538 29.538v0h512c0.015 0 0.032 0 0.050 0 16.314 0 29.538-13.225 29.538-29.538 0-13.269-8.749-24.494-20.793-28.222l-0.209-0.056c13.233-20.165 20.953-44.268 20.953-70.183 0-105.314-76.406-211.377-227.249-305.231 150.843-93.854 227.249-199.916 227.249-305.231 0-25.915-7.719-50.018-20.953-70.183 12.253-3.784 21.002-15.009 21.002-28.278 0-16.314-13.225-29.538-29.538-29.538-0.018 0-0.035 0-0.053 0h-511.997c-0.015 0-0.032 0-0.050 0-16.314 0-29.538 13.225-29.538 29.538 0 13.269 8.749 24.494 20.793 28.222l0.209 0.056c-13.131 19.711-20.953 43.936-20.953 69.989 0 0.068 0 0.137 0 0.205v-0.011c0 105.314 76.406 211.377 227.249 305.231-150.843 93.854-227.249 199.916-227.249 305.231 0 25.915 7.719 50.018 20.953 70.183-12.228 3.8-20.953 15.012-20.953 28.263 0 0.005 0 0.011 0 0.016v-0.001zM512 481.95c41.199 23.505 76.675 48.096 109.821 75.412l-1.317-1.053h-217.009c29.696-24.734 65.615-49.625 108.505-74.358zM680.369 615.385c40.606 48.876 58.092 95.823 58.092 137.846 0 38.065-30.858 68.923-68.923 68.923v0h-315.077c-38.065 0-68.923-30.858-68.923-68.923v0c0-42.023 17.487-88.97 58.092-137.846h336.738zM482.462 396.327c-106.102-66.402-163.643-133.632-185.895-194.481h430.868c-22.213 60.849-79.793 128.079-185.895 194.481v-105.866c0-16.314-13.225-29.538-29.538-29.538s-29.538 13.225-29.538 29.538v0 105.866zM285.538 142.769c0-38.046 30.878-68.923 68.923-68.923h315.077c38.065 0 68.923 30.858 68.923 68.923v0h-452.923z" />
<glyph unicode="&#xe951;" glyph-name="send-right" data-tags="send-right" d="M364.583 749.292c-89.403 51.673-187.825-51.83-131.151-137.964l94.523-143.793h205.076c0.371 0.025 0.804 0.039 1.241 0.039 10.811 0 19.574-8.764 19.574-19.574s-8.764-19.574-19.574-19.574c-0.437 0-0.87 0.014-1.3 0.042l0.058-0.003h-205.076l-94.523-143.754c-56.674-86.174 41.748-189.676 131.151-138.004l433.152 250.25c17.754 10.363 29.494 29.322 29.494 51.023s-11.74 40.66-29.215 50.872l-0.279 0.151-433.152 250.289zM293.927 448l-93.342 141.903c-79.281 120.596 58.526 265.531 183.69 193.182l433.191-250.289c65.378-37.77 65.378-131.82 0-169.59l-433.231-250.289c-125.164-72.35-262.932 72.586-183.611 193.182l93.342 141.903z" />
<glyph unicode="&#xe952;" glyph-name="send-right-bold" data-tags="send-right-bold" d="M359.7 740.864c-80.463 46.474-169.078-46.671-118.075-124.18l91.687-139.422h199.759c16.226 0 29.42-13.076 29.42-29.263 0-16.148-13.194-29.302-29.42-29.302h-199.759l-91.687-139.382c-50.964-77.509 37.612-170.693 118.075-124.18l433.191 250.289c14.825 8.64 24.629 24.462 24.629 42.575s-9.805 33.935-24.396 42.449l-0.233 0.126-433.231 250.289zM282.23 448l-89.797 136.586c-84.953 129.182 62.622 284.475 196.766 206.966l433.191-250.289c71.877-41.551 71.877-144.975 0-186.526l-433.191-250.289c-134.105-77.509-281.718 77.785-196.766 206.966l89.797 136.586z" />
</font>
</defs>
</svg>
