<svg xmlns="http://www.w3.org/2000/svg" width="400" height="440" fill="none">
  <g clip-path="url(#a)">
    <rect width="432.5" height="11.8" x="-20" y="315.1" fill="url(#b)" rx="2.9"/>
    <path stroke="gray" stroke-width=".9" d="M341.5 208a33.4 33.4 0 0 0 5.3 30c-6.3-11.1 6.7-23.3 14-28 11.1-4 10.6-20.3 8.9-28 14.6-1.5 15.1-16.6 13.6-24 7.8-4.5 20.9-15 10-21-10.9-6-20.3 8.2-23.6 16-15.5-.6-16.4 16.2-15 24.6-16.3 4.6-15.6 22.2-13.2 30.4Z"/>
    <path stroke="gray" stroke-width=".9" d="M389.6 140.6c-19 24-54.3 76.7-44.4 94.8"/>
    <path stroke="gray" stroke-width=".9" d="M363 160.8c1.8 1.7 4.2 7.6 0 18m1.7 11.6a33 33 0 0 0-16.5 17.4"/>
    <path fill="url(#c)" d="M32 211.8a51 51 0 0 1-4-20c.4-32.4 31.2-58.3 69-58 9.4 0 18.5 1.8 26.7 4.9 9.6 3.6 20.9.6 26.7-7a46.4 46.4 0 0 1 37-17.1c24.4 0 44 16.8 44.2 37.7v.4c0 5 5.3 8.6 11 7.6 2.9-.5 5.9-.8 9-.8 26.7-.4 48.6 18 48.6 41v.6c-.1 8.3 7.9 15 17.5 14.5h2.5c29.5 0 53.5 20.5 53.4 45.8 0 25.2-24.6 54.3-54.1 54.3h-67.3l-202.6-1.3C20.8 314.4 7 288.7 7 264c0-12.7 9.4-24.1 19.4-32.3a17 17 0 0 0 5.5-20Z"/>
    <path fill="#900" d="M72 231.7a2.9 2.9 0 1 0 0 5.8 2.9 2.9 0 0 0 0-5.8Zm0 4.6a1.8 1.8 0 1 1 0-3.5 1.8 1.8 0 0 1 0 3.5Z"/>
    <path fill="#994A00" d="M72.3 232.8h-.1a1.7 1.7 0 0 1 0 3.5h.1a1.8 1.8 0 1 0 0-3.5Z"/>
    <path stroke="#0C528D" stroke-width=".9" d="M62.3 227.6a16.2 16.2 0 0 1-1.5-2.7c-.2-.7-.2-1.2 0-1.6.2-.9.9-1.6 1.6-2.3l.3-.4c.9-1 1.7-2 1.9-3.5 0-.7 0-1.6-.3-2.5a17.5 17.5 0 0 0-2.1-4.4l.7.5.2-.4-.2.4.8.5a18 18 0 0 1 2.8 2c1 .9 1.9 2 2.2 3.3.2.9-.1 1.8-1 2.8a31.2 31.2 0 0 1-3.3 3.7 6.3 6.3 0 0 0-2.1 4.6Z"/>
    <path fill="url(#d)" d="M55.4 229.3c0 6.8 2.7 12.2 7.7 12.2 5.5 0 7.8-5.4 7.8-12.2H55.4Z"/>
    <path fill="#994A00" d="M63.5 239.7c-1.6.5-3 .6-4 .7a6 6 0 0 0 3.6 1.1c5.5 0 7.8-5.4 7.8-12.2 0 0-1 8.7-7.4 10.4Z"/>
    <path fill="#F66" d="m52.8 238.5-2-1.5s-.2.2 0 .4c.1.3-.4.6-.5 1-.1.2 0 .3.2.5v.7c-.3.2-.2.3-.2.3l2.6-.8v-.6Z"/>
    <path fill="url(#e)" d="m52.9 239-2.4.9.1-.3.1-.1c.2-.2.1-.3.1-.4.1-.3.6-.4.7-.6 0-.3-.2-.6-.4-1H51l-.2-.5 2 1.5v.6Z"/>
    <path fill="#fff" stroke="#fff" stroke-width=".2" d="M52.5 238.7v-.2l-.2-.2-.3-.3.7.6v.4l-1.4.5 1.1-.6.3-.2h-.4.2Zm0 0Z" opacity=".3"/>
    <path fill="#F66" d="m58 239.3 2.5-1s.1.3-.1.5c-.3.2.2.7.2 1 0 .4-.2.4-.4.5-.2.1-.3.4-.1.7v.3l-2.2-1.5.2-.5Z"/>
    <path fill="url(#f)" d="m57.9 239.8 2 1.5v-.4c-.2-.3 0-.4 0-.5-.1-.3-.5-.6-.5-.8 0-.2.4-.5.7-.7l.4-.5-2.4.9-.1.3-.1.2Z"/>
    <path fill="#fff" stroke="#fff" stroke-width=".2" d="m58.9 239.9-.5-.2-.1.2.4.4-.7-.6.1-.4 1-.4-.7.5h-.1v.1l.6.4Z" opacity=".3"/>
    <path fill="url(#g)" d="M58.2 239.6c-.2 1-1.5 1.5-3 1.3-1.6-.2-2.7-1.2-2.6-2.1.2-1 1.5-1.6 3-1.4 1.6.3 2.7 1.2 2.6 2.2Z"/>
    <path fill="#F66" d="M58.2 239.6c0-.6-.3-1.2-1-1.6 0 0 .4.2.4.9 0 .5-.4 1-1.5 1.3-1.8.3-3-.3-3-.3.4.5 1.2.9 2 1 1.6.2 3-.4 3-1.3Z"/>
    <path fill="#fff" stroke="#fff" stroke-width=".2" d="M53 239v-.4c0-.2.2-.4.4-.6l.7-.3h.2l.1.2v.1l-.1.1h-.1l-.5.3a1.5 1.5 0 0 0-.4.5H53c0 .1 0 .1 0 0l-.1.2Zm0 0c-.4 0 0-.7.4-1l1.1-.2c0 .3 0 .3-.3.4a1.4 1.4 0 0 0-.8.6c-.1.2-.2.3-.4.3Z" opacity=".3"/>
    <path fill="url(#h)" d="M76.4 240.4H50.5s2.4 2 13 2c10.5 0 12.9-2 12.9-2Z"/>
    <path fill="url(#i)" d="M121.4 327H118l-2.7-38.7h8.8l-2.8 38.7Z"/>
    <path fill="#127A87" d="M314.5 185.2h-203a11 11 0 0 0-11.2 11.1v56.8h225.3v-56.8c0-6.1-5-11-11.1-11Z"/>
    <path fill="url(#j)" d="M305.7 327h-3.3l-2.7-38.7h8.7l-2.7 38.7Z"/>
    <path fill="#18A3B4" d="M326.2 275H98.3v20.4h228V275Zm-113.9-30.8h-114V275h228v-30.8h-114Z"/>
    <path fill="#fff" stroke="#fff" stroke-width=".2" d="M212.3 244.3h98.6l-1.5 7.5a19 19 0 0 0-2.5-.6c-1.8-.4-4.5-1-8.3-1.5-7.6-1.2-19.5-2.4-36.9-2.6a308.3 308.3 0 0 0-46.6 2.8l-2.1.4-.6.2h-.2l-.4-.1-1.8-.4c-1.6-.3-4.2-.8-8.1-1.2-7.9-.8-21-1.5-42.2-1.3-21.2.3-33 1.8-39.5 3.2a30.7 30.7 0 0 0-7.4 2.5l-.2.2-5-9.1h104.7Z" opacity=".1"/>
    <path fill="url(#k)" d="M104 210.4s16.7-10.5 26-13a68.6 68.6 0 0 1 25 1.2c7 9.3 10.6 19.1 11.4 33.6 0 0-11.5 10-26.1 12.9-14.7 2.8-27 0-27 0l-9.2-34.7Z"/>
    <path fill="#18A3B4" d="M104 210.4s6.5 6 9.6 14.2c3 8.3-.3 20.5-.3 20.5a65.3 65.3 0 0 1-9.2-34.7Z"/>
    <path fill="#127A87" d="M196.8 269c-12.4 4-61.6 3.6-72.6-1.3-8-3.5-10.5-12.2-13.2-17.5l-3-6h-9.7V275h114v-15.4s-2.1 5-15.5 9.3Z"/>
    <path fill="#127A87" d="M316.6 244.2a174 174 0 0 0-3.1 6c-2.7 5.3-5.2 14-13.1 17.5-11 4.9-60.3 5.3-72.7 1.2-13.3-4.4-15.4-9.3-15.4-9.3V275h114v-30.8h-9.7Z"/>
    <path fill="url(#l)" d="M117.8 295.4H95.6l-9-68a10.4 10.4 0 0 1 9-11.7l1.7-.2c5.7-.7 10.9 3.3 11.6 9l8.9 71Z"/>
    <path fill="url(#m)" d="M326.4 293.7h-231v3.7h231v-3.7Z"/>
    <path stroke="#fff" stroke-width=".9" d="M264.4 206.8c-14.6 17.6-14.5 31.8-12.6 36.7 13 6.3 44 2.6 57.7 0-15-8.3-1.4-28 7.4-36.7a78.7 78.7 0 0 0-52.5 0Zm52.6.5c3 3.2 6 15-7.3 36.3"/>
    <path stroke="#fff" stroke-width=".9" d="M272.7 215.9c-5 3-13.3 10.2-7.4 15.2"/>
    <path fill="url(#n)" d="M304.5 293.4h22l8.8-66a10 10 0 0 0-8.9-11.3l-1.6-.3a10.2 10.2 0 0 0-11.6 8.7l-8.7 69Z"/>
    <path fill="url(#o)" d="m351.8 239.3.6-3c1.4-.4 6.7-2.2 5-3.8-1.4-1.5-3.8 1.6-4.8 3.2.5-2 1.2-4 1.9-5.8 1.5-.2 7.2-1.4 5.6-3.4-1.3-1.8-4 1.1-5.3 2.6 1-2.3 2-4.5 3.3-6.7 1.4 1 8.8 6 9.3 1.8.6-4-7.3-2.5-9.2-2a72 72 0 0 1 2.5-4.1c2 .2 11.9 1 11-3.9-.8-4.4-8 1-10.5 3.1 2.4-3.5 5-6.6 7.4-9.4 1.6 1.1 10.7 6.8 10.5 1.6-.1-4.9-8-2.6-10.2-2a96.8 96.8 0 0 1 4.1-4.2c2 .5 12.6 2.9 10.7-1.5-1.6-3.7-7.2-.9-9.8.6 2.1-2 4-3.7 5.9-5.1 1.6.7 9.5 4.2 10.3 0 .8-4-7.1-1.5-9.8-.5 3.4-2.8 5.9-4.4 6.5-4.8 2.4-.2 12.7-1 9.9-5.2-2.8-4-8.3 2.4-10 4.6h-.1l-3.7 2.6c1.7-2.5 6.7-10.9 2.2-11.3-4.9-.5-3.1 9.8-2.7 11.8a91 91 0 0 0-6.2 5c.3-.5 5.5-11 .3-11.2-5.4-.2-.5 10.9-.3 11.3l-4.6 4.3c.4-2.4 1.9-12.5-2-10.5-4 2 .8 9.3 1.7 10.8l-.5.5c-2 2-4 4.2-5.6 6.3 1-3 4-13.4-2-11.4-6.4 2.2.2 10.6 1.5 12-2 2.5-3.7 5-5.3 7.4.4-2.7 1.6-11.7-2.8-10.4-4.7 1.5 1.3 9.5 2.5 11l-.2.2a66.2 66.2 0 0 0-3 5.5c0-2.4 0-9.8-3-8.4-3.1 1.4 1.7 7.6 2.8 8.9a56.7 56.7 0 0 0-3 7.2c0-1.4-.8-7-2.6-6-2 1 1.9 5.5 2.6 6.3a49.2 49.2 0 0 0-1.4 6.2h.2c.1 0 .3 0 .3-.2Z"/>
    <path fill="url(#p)" d="M289 160.4c-6.7.8-1 10.7 5.1 12.3 6.2 1.7 1.2 10.3 7.7 16 6.5 5.8 12 1 14.8 4 2.8 3-3.5 11.1 1.7 15.8 5.1 4.6 15.4 2.5 18 6.6 2.5 4-2.6 7.7 1.2 12 3.9 4.3 9.4 7 9.6 11.8.2 4.8 5.2-20.2 1.3-25.1-4-5 1.8-17-6.6-24-8.3-7-11-.3-14.4-4-3.3-3.7-3.4-10.9-8.6-15.7-5.1-4.8-10.7-.6-16.4-3.5-3.3-1.7-3-7.5-13.3-6.2Z"/>
    <path stroke="#fff" stroke-linecap="round" stroke-linejoin="round" stroke-width=".7" d="M292.2 165.2s45 31.3 52.8 55.5c7.8 24.1 8.4 28.7 8.4 28.7"/>
    <path stroke="#fff" stroke-linecap="round" stroke-linejoin="round" stroke-width=".7" d="M313.1 171.6c0 5.3.3 8.6 3.6 13.1-4.4-2-8.1-2.3-13.2-1.8m32.9 7.5c-.3 8.3 1 14 5.2 22.7-7-7-12.7-10.4-20-10"/>
    <path fill="url(#q)" d="m348.4 237.3.5-4.4c-1.7-1.6-7.8-7.6-4.9-8.7 2.5-1 4.3 4.9 5 7.6v-9c-1.8-1.3-8.7-6.8-5.8-8.4 2.5-1.4 4.8 4.3 5.8 7.2a132 132 0 0 0-1.3-11.2c-2.4.3-14.1 1.8-13-4.1 1-5.8 10.6 1.7 12.9 3.6l-1.5-7.2c-2.6-1-16-6.9-12.6-12.7 3-5.4 10 6.8 12.3 11.3a156 156 0 0 0-5.4-17.6c-2.6.3-17.1 1.6-14.6-5.2 2.5-6.4 11.7 2 14.3 4.5a181.5 181.5 0 0 0-3.5-8.5c-2.9-.7-17.7-4.8-13.3-9.4 3.7-4 9.9 3.8 12.5 7.6-1.8-4-3.6-7.8-5.3-11-2.5 0-14.3-.9-13.5-7.1.7-5.8 10 3 13 6.2-3.2-6-5.7-10-6.3-11-3.1-1.8-16.3-10-10.6-13.7 5.4-3.6 9.7 9 10.9 13l.2.1 3.6 6c-1-4.5-4-19.1 2.2-16.6 6.6 2.7-.3 15.3-1.7 17.6 1.7 3 3.7 6.7 5.8 11-.1-.9-2.3-18.6 4.7-15.2 7 3.5-4.3 15-4.7 15.3 1.4 2.8 2.7 5.8 4.1 9 .5-3.5 3.1-18 7.3-12.7 4.2 5.4-5.2 12-7 13.2a175.9 175.9 0 0 1 5 13.5c0-4.8.6-20.9 7.6-14 7.4 7.3-5 14-7.3 15a164 164 0 0 1 3.7 13.6c.6-4 3.1-16.8 8.2-12 5.5 5.2-5.9 11.7-8 12.9v.5a113 113 0 0 1 1.6 9.4c1-3.2 4.4-13.1 7.6-9.2 3.4 4-5.6 9-7.6 10 .5 4 .7 8 .6 11.7.8-1.9 4.2-8.8 6.2-6.2 2 2.7-5 6-6.2 6.5a75.5 75.5 0 0 1-1 9.3h-.2a.5.5 0 0 1-.3-.5Z"/>
    <path fill="url(#r)" d="m362.1 252-4.2-17.7h-15.2l-4.3 17.7a119.8 119.8 0 0 0 0 56.1l4.3 17.7h15.2l4.2-17.7a119.8 119.8 0 0 0 0-56.1Z"/>
    <path fill="#333" d="M34.4 196.2h-2.2v42.5h2.2v-42.5Z"/>
    <path fill="url(#s)" d="M38.7 202.7H38v16h.7v-16Z"/>
    <path fill="url(#t)" d="M38.3 222.4c1.1 0 2-1.3 2-2.9 0-1.5-.9-2.8-2-2.8s-2 1.3-2 2.8c0 1.6.9 3 2 3Z"/>
    <path fill="url(#u)" d="M42.2 173.1H24.4L6.1 203.7h54.5l-18.4-30.6Z"/>
    <path fill="url(#v)" d="M49.4 242.5c0-3.3-7.2-6-16-6-9 0-16.1 2.7-16.1 6h32Z"/>
    <path fill="url(#w)" d="M37.2 173.1h-7.7l-8 30.6h23.7l-8-30.6Z"/>
    <path fill="#333" d="M150 217.3h64.4l-29.7 20.8-34.7-20.8Zm34.4-102.9s2.4-1.6 5.8-.5c3.5 1.1 7.3 6.9 8.9 12.9 1.6 6 .8 14.8-5.1 21.6-5 5.7-5.6 6.3-13.4 6.3-8.5 0-9.7-1.8-13.7-7.5a23.6 23.6 0 0 1-3-20.1c2.4-7 7-13.8 12.8-14 5.7-.3 7.7 1.3 7.7 1.3Z"/>
    <path fill="url(#x)" d="M162 161.3c-4 4-8.8 26.1-8.8 26.1l13 5-4.3-31Z"/>
    <path fill="url(#y)" d="m199.4 160.6-2 31.8 13-5.1s-7.6-25.9-11-26.7Z"/>
    <path fill="url(#z)" d="m172.4 158.2-10.5 3.1s-1 9.3 0 15.8 4.4 15.3 4.4 15.3h31s3.3-9.2 3.8-14.8c.5-6-1.7-17-1.7-17l-10.1-2.3-17-.1Z"/>
    <path fill="#FFCA99" d="M175.2 147.2s1.3 8.2-.4 9.7c-1.4 1.2-2.7 1.4-2.7 1.4s2.6 5.4 8.2 5.4c6.5 0 8.8-5.4 8.8-5.4s-1.5-.1-3-1.4c-1.8-1.7-.9-9.7-.9-9.7h-10Z"/>
    <path fill="#FFA856" d="M175.7 153s1.1 3.3 4.4 3.4c3.4 0 5-2.9 5-2.9l-9.4-.5Z"/>
    <path fill="#FFCA99" d="M180.3 154.6c4.5.3 8.6-4.2 10.1-6.7a55 55 0 0 0 2.6-15c-.2-2.6-2.5-13-12.7-12.4-10.1.6-10.2 8.7-10.7 12.3a41 41 0 0 0 1.8 15c2.1 3.3 5 6.6 9 6.8Z"/>
    <path fill="#FFCA99" d="M169.6 137.3s-3.3-2-3.3.7c0 3.3 4.2 5.7 4.2 5.7l-.9-6.4Zm21.9 6s4.7-2.5 4.7-5c0-2.6-3.6-1.2-3.6-1.2l-1.1 6.2Z"/>
    <path fill="#333" d="M183.2 122.2s0 3.1-10 8c-4 2-3.6 7.1-3.6 7.1s-5-10.2-1.3-13c3.7-3 10.8-6.8 16.4-5 5.6 2 11.5 3.9 11.5 8.6 0 3.2-3.4 9.2-3.4 9.2s-1.2 0-2.5-2.8c0-6.4-7.1-12.1-7.1-12.1Z"/>
    <path fill="url(#A)" d="M215.4 182.6h-68.7l6.2 37.1h56.5l6-37.1Z"/>
    <path fill="#FFCA99" d="M179.7 245.4a87.2 87.2 0 0 1-21.4 2.6c-7.8.2-13.9-1.3-14.2-3.9-.4-2.6 14.5-4.2 14.5-4.2s7.3-6 11-4.3c3.8 1.9 10 9.8 10 9.8Z"/>
    <path fill="url(#B)" d="M175 240.2a23.7 23.7 0 0 0-5.4-4.6c-3.7-1.8-11 4.3-11 4.3s-14.9 1.6-14.5 4.2c.3 2.2 4.7 3.6 10.7 3.8.1-.3 1-3.1 5-5a57.2 57.2 0 0 1 15.3-2.7Z"/>
    <path fill="#333" d="M179.7 236.4s13.8-6.7 19-11.2a64.6 64.6 0 0 1 19.6-10.8c4.3-1.1 14.2-3.9 18 1.8 5 7.5-4.1 17.3-12 21.5-8.6 4.6-27.2 5.1-32.4 6l-12.2 1.7v-9Z"/>
    <mask id="C" fill="#fff">
      <path d="M182.9 234.7a234.3 234.3 0 0 0 7.5-3.7c2.4-1.3 4.9-2.6 7.1-4.2 2.3-1.5 4.5-3.2 6.8-4.8l3.4-2.4a136.4 136.4 0 0 1 .1.2 443.8 443.8 0 0 0-10 7.4l-.9.6-.9.5a48 48 0 0 1-5.4 3 148.9 148.9 0 0 1-7.8 3.5l.1-.1Z"/>
    </mask>
    <path fill="#fff" d="M182.9 234.7a234.3 234.3 0 0 0 7.5-3.7c2.4-1.3 4.9-2.6 7.1-4.2 2.3-1.5 4.5-3.2 6.8-4.8l3.4-2.4a136.4 136.4 0 0 1 .1.2 443.8 443.8 0 0 0-10 7.4l-.9.6-.9.5a48 48 0 0 1-5.4 3 148.9 148.9 0 0 1-7.8 3.5l.1-.1Z"/>
    <path fill="#fff" d="M182.9 234.7v-.2.2Zm3.8-1.8-.1-.2v.2Zm3.7-1.9v.2-.2Zm7.1-4.2v-.1.1Zm6.8-4.8.1.1Zm3.4-2.4-.1-.1h.1Zm3.5-2.3-.1-.2v.2Zm0 0Zm-3.4 2.5.1.1v-.1Zm-3.3 2.5-.1-.2.1.2Zm-6.7 4.9v.1-.1Zm-.9.6v-.2.2Zm-.9.5.1.2v-.2Zm-1.8 1.1v-.1.1Zm-3.6 2v.1-.1Zm-3.8 1.8v.2-.2ZM183 235v.2-.2Zm-.2 0 .2-.1h-.2Zm.2 0 3.7-1.9-.1-.3-3.8 1.8.2.3Zm3.7-1.9 3.8-1.8-.2-.3-3.7 1.8.1.3Zm3.8-1.8c2.4-1.3 4.9-2.6 7.1-4.2l-.2-.3a60.2 60.2 0 0 1-7.1 4.2l.2.3Zm7.1-4.2 6.8-4.9-.2-.2-6.8 4.8.2.3Zm6.8-4.9 3.4-2.4-.2-.2-3.4 2.4.2.2Zm3.4-2.4 3.4-2.3-.1-.3-3.5 2.4.2.2Zm3.4-2.3h-.1l.3-.2h-.3l.1.2Zm-.1 0v-.2l.2.3v-.3l-.2.2Zm0-.2-3.4 2.4.2.3a141 141 0 0 1 3.4-2.4l-.2-.3Zm-3.4 2.4c-1 .9-2.2 1.7-3.3 2.5l.2.3 3.3-2.5-.2-.3Zm-3.3 2.5-6.7 5 .2.2 6.7-4.9-.2-.3Zm-6.7 5-.9.5.2.3.9-.6-.2-.3Zm-.9.5-.9.6.2.3 1-.6-.3-.3Zm-.9.6-1.7 1 .1.4 1.8-1.1-.2-.3Zm-1.7 1-3.7 2 .1.3c1.3-.6 2.5-1.2 3.7-2l-.1-.2Zm-3.7 2-3.8 1.9.2.3a151 151 0 0 0 3.7-1.9l-.1-.3Zm-3.8 1.9-3.8 1.7.2.3 3.8-1.7-.2-.3Zm-3.8 1.7-.2.1c0 .2.2.2.4.2l-.2-.3Zm0 0v-.3c-.2 0-.3.3-.2.4l.3-.1Z" mask="url(#C)"/>
    <path fill="#333" d="M204.7 241.4v8.6c-21.7-1-51.7-4.4-65.7-14.7-14-10.2-13-17-10.4-21 2.6-4 11.6-4.8 17.3-3 5.8 2 24.7 18.2 35.7 22.2 7.4 2.7 23 7.9 23 7.9Z"/>
    <path fill="#fff" stroke="#fff" stroke-width=".2" d="M204.7 241.4a247.2 247.2 0 0 1-24-8.2 67.1 67.1 0 0 1-16.5-9.6 116.8 116.8 0 0 0 10.8 6.7 164.1 164.1 0 0 0 17.6 7.3 249 249 0 0 0 12 3.8Z"/>
    <path fill="#FFCA99" d="M204.7 241.4s.6-3.7 3.7-4.5c3.2-.7 6.3 4.2 9.2 4.5 3 .3 15.2-.4 15.9 1.8.7 2.2-10.5 5.4-17.1 6.3-6.6 1-11.7.5-11.7.5v-8.6Z"/>
    <path fill="url(#D)" d="m225.4 247.5 4.2-1.4c2.5-1 4.2-2 3.9-3-.7-2.1-13-1.4-15.9-1.7-3-.3-6-5.2-9.2-4.5-3.1.8-3.7 4.5-3.7 4.5s15.3 3 17.7 4.3c2.4 1.3 3 1.8 3 1.8Z"/>
    <path fill="#fff" d="M183.3 205.4a2.3 2.3 0 1 0-4.5-.7 2.3 2.3 0 0 0 4.5.7Z"/>
    <path fill="#fff" d="M181 208.7c-2 0-3.7-1.7-3.7-3.7a.3.3 0 0 1 .7 0 3 3 0 0 0 6 0 .3.3 0 0 1 .8 0c0 2-1.7 3.7-3.8 3.7Z"/>
    <path stroke="#503116" stroke-linecap="round" stroke-miterlimit="10" stroke-width=".5" d="M169.5 139s-1.5-.9-1.5 0c-.1.9 1.6 2 1.6 2m22.9-2s1.6-.9 1.6 0-1.7 2-1.7 2"/>
    <path stroke="#0C528D" stroke-width=".9" d="M11 248.3V321c0 .8.2 1.8.7 2.5 2 3.6 4.4 2 5.8.1.6-.8.8-1.8.8-2.8v-72.5c0-1-.2-2-.8-2.9-2-3-4.2-1.7-5.6 0a5 5 0 0 0-.9 3Zm59.7 0V321c0 .8.2 1.8.7 2.5 2 3.6 4.4 2 5.8.1.6-.8.8-1.8.8-2.8v-72.5c0-1-.2-2-.8-2.9-2-3-4.3-1.7-5.6 0-.7.8-.9 1.9-.9 3Z"/>
    <path fill="#0C528D" d="M70.8 295.2H18.3v-6.4h52.5v6.4Zm7.6-46.4H10.7v-6.4h67.7v6.4Z"/>
    <path stroke="#0C528D" stroke-width=".9" d="M18.3 266.1V255c0-3.5 2.9-6.3 6.4-6.3h39.7c3.5 0 6.3 2.8 6.3 6.3v11.2c0 3.6-2.8 6.4-6.3 6.4H24.7a6.4 6.4 0 0 1-6.4-6.4Z"/>
    <path fill="#0C528D" d="M43.9 259.3c-1.1 0-1.8 1.2-2 1.8.8 3.1 3.7 1.7 4.1.6.4-1.2-.7-2.4-2.1-2.4Z"/>
  </g>
  <defs>
    <linearGradient id="b" x1="188.8" x2="188.7" y1="326.5" y2="314.7" gradientUnits="userSpaceOnUse">
      <stop stop-color="#fff"/>
      <stop offset=".5" stop-color="#FEFAE6"/>
      <stop offset="1" stop-color="#FFE5E5"/>
    </linearGradient>
    <linearGradient id="c" x1="190.3" x2="190.3" y1="114.6" y2="226.9" gradientUnits="userSpaceOnUse">
      <stop stop-color="#F8EEE5"/>
      <stop offset="1" stop-color="#fff"/>
    </linearGradient>
    <linearGradient id="d" x1="70.3" x2="56.3" y1="237.3" y2="230.7" gradientUnits="userSpaceOnUse">
      <stop stop-color="#FCC"/>
      <stop offset=".6" stop-color="#FFCA99"/>
      <stop offset="1" stop-color="#F8EEE5"/>
    </linearGradient>
    <linearGradient id="e" x1="50.5" x2="52.9" y1="238.4" y2="238.4" gradientUnits="userSpaceOnUse">
      <stop stop-color="#F99"/>
      <stop offset="1" stop-color="#F66"/>
    </linearGradient>
    <linearGradient id="f" x1="57.9" x2="60.5" y1="239.8" y2="239.8" gradientUnits="userSpaceOnUse">
      <stop stop-color="#F99"/>
      <stop offset="1" stop-color="#F66"/>
    </linearGradient>
    <linearGradient id="g" x1="52.6" x2="58.2" y1="239.2" y2="239.2" gradientUnits="userSpaceOnUse">
      <stop stop-color="#F99"/>
      <stop offset="1" stop-color="#F33"/>
    </linearGradient>
    <linearGradient id="h" x1="76.4" x2="50.5" y1="241.4" y2="241.4" gradientUnits="userSpaceOnUse">
      <stop stop-color="#F99"/>
      <stop offset=".3" stop-color="#FFCA99"/>
      <stop offset="1" stop-color="#F99"/>
    </linearGradient>
    <linearGradient id="i" x1="115.4" x2="124.2" y1="307.6" y2="307.6" gradientUnits="userSpaceOnUse">
      <stop stop-color="gray"/>
      <stop offset="1" stop-color="#08375E"/>
    </linearGradient>
    <linearGradient id="j" x1="299.7" x2="308.4" y1="307.6" y2="307.6" gradientUnits="userSpaceOnUse">
      <stop stop-color="gray"/>
      <stop offset="1" stop-color="#08375E"/>
    </linearGradient>
    <linearGradient id="k" x1="166.4" x2="148.4" y1="196.6" y2="250.7" gradientUnits="userSpaceOnUse">
      <stop stop-color="#E7F2ED"/>
      <stop offset="1" stop-color="#E7F2ED" stop-opacity="0"/>
    </linearGradient>
    <linearGradient id="l" x1="99.5" x2="109.2" y1="388.7" y2="212" gradientUnits="userSpaceOnUse">
      <stop stop-color="#CFE5DC"/>
      <stop offset=".7" stop-color="#A5EAF3"/>
      <stop offset="1" stop-color="#127A87"/>
    </linearGradient>
    <linearGradient id="m" x1="95.4" x2="326.4" y1="295.5" y2="295.5" gradientUnits="userSpaceOnUse">
      <stop stop-color="#4D4D4D"/>
      <stop offset="1" stop-color="#08375E"/>
    </linearGradient>
    <linearGradient id="n" x1="317.4" x2="326.6" y1="384" y2="212.4" gradientUnits="userSpaceOnUse">
      <stop stop-color="#CFE5DC"/>
      <stop offset=".7" stop-color="#A5EAF3"/>
      <stop offset="1" stop-color="#127A87"/>
    </linearGradient>
    <linearGradient id="o" x1="349.9" x2="394.3" y1="235.5" y2="217.6" gradientUnits="userSpaceOnUse">
      <stop stop-color="#0C515A"/>
      <stop offset=".6" stop-color="#127A87"/>
      <stop offset="1" stop-color="#FFCA99"/>
    </linearGradient>
    <linearGradient id="p" x1="312.6" x2="317.2" y1="332" y2="156.4" gradientUnits="userSpaceOnUse">
      <stop stop-color="#CFE5DC"/>
      <stop offset=".7" stop-color="#A5EAF3"/>
      <stop offset="1" stop-color="#127A87"/>
    </linearGradient>
    <linearGradient id="q" x1="351.2" x2="331.3" y1="209.2" y2="167.8" gradientUnits="userSpaceOnUse">
      <stop stop-color="#0C515A"/>
      <stop offset=".6" stop-color="#127A87"/>
      <stop offset="1" stop-color="#FFCA99"/>
    </linearGradient>
    <linearGradient id="r" x1="336.3" x2="281.6" y1="211.9" y2="297" gradientUnits="userSpaceOnUse">
      <stop stop-color="#B3B0E8"/>
      <stop offset=".9" stop-color="#08375E"/>
    </linearGradient>
    <linearGradient id="s" x1="38.3" x2="42.7" y1="201" y2="220.3" gradientUnits="userSpaceOnUse">
      <stop stop-color="#999"/>
      <stop offset=".1" stop-color="#0C528D"/>
      <stop offset=".8" stop-color="#08375E"/>
      <stop offset="1" stop-color="#1A1A1A"/>
    </linearGradient>
    <linearGradient id="t" x1="38.3" x2="38.4" y1="216.1" y2="223.4" gradientUnits="userSpaceOnUse">
      <stop stop-color="#999"/>
      <stop offset=".1" stop-color="#0C528D"/>
      <stop offset=".8" stop-color="#08375E"/>
      <stop offset="1" stop-color="#1A1A1A"/>
    </linearGradient>
    <linearGradient id="u" x1="33" x2="31.4" y1="203.5" y2="171.7" gradientUnits="userSpaceOnUse">
      <stop stop-color="#127A87"/>
      <stop offset=".5" stop-color="#A5EAF3"/>
      <stop offset="1" stop-color="#CFE5DC"/>
    </linearGradient>
    <linearGradient id="v" x1="33.3" x2="33.3" y1="235.9" y2="243.4" gradientUnits="userSpaceOnUse">
      <stop stop-color="#999"/>
      <stop offset=".1" stop-color="#0C528D"/>
      <stop offset=".8" stop-color="#08375E"/>
      <stop offset="1" stop-color="#1A1A1A"/>
    </linearGradient>
    <linearGradient id="w" x1="31.3" x2="33.2" y1="239.5" y2="171.6" gradientUnits="userSpaceOnUse">
      <stop stop-color="#CFE5DC"/>
      <stop offset=".7" stop-color="#A5EAF3"/>
      <stop offset="1" stop-color="#127A87"/>
    </linearGradient>
    <linearGradient id="x" x1="159.8" x2="159.8" y1="184" y2="152.5" gradientUnits="userSpaceOnUse">
      <stop stop-color="#FCC"/>
      <stop offset="1" stop-color="#FFA856"/>
    </linearGradient>
    <linearGradient id="y" x1="203.9" x2="203.9" y1="183.9" y2="151.7" gradientUnits="userSpaceOnUse">
      <stop stop-color="#FCC"/>
      <stop offset="1" stop-color="#FFA856"/>
    </linearGradient>
    <linearGradient id="z" x1="181.1" x2="181.4" y1="201.5" y2="162" gradientUnits="userSpaceOnUse">
      <stop stop-color="#FFA856"/>
      <stop offset=".2" stop-color="#FFCA99"/>
      <stop offset=".6" stop-color="#FFE5CC"/>
      <stop offset="1" stop-color="#F8EEE5"/>
    </linearGradient>
    <linearGradient id="A" x1="149.5" x2="144" y1="173.5" y2="221.6" gradientUnits="userSpaceOnUse">
      <stop stop-color="#B3B0E8"/>
      <stop offset=".9" stop-color="#08375E"/>
    </linearGradient>
    <linearGradient id="B" x1="159.6" x2="159.6" y1="234" y2="250" gradientUnits="userSpaceOnUse">
      <stop stop-color="#999"/>
      <stop offset=".1" stop-color="#0C528D"/>
      <stop offset=".8" stop-color="#08375E"/>
      <stop offset="1" stop-color="#1A1A1A"/>
    </linearGradient>
    <linearGradient id="D" x1="219.1" x2="219.1" y1="235.8" y2="249.3" gradientUnits="userSpaceOnUse">
      <stop stop-color="#999"/>
      <stop offset=".1" stop-color="#0C528D"/>
      <stop offset=".8" stop-color="#08375E"/>
      <stop offset="1" stop-color="#1A1A1A"/>
    </linearGradient>
    <clipPath id="a">
      <path fill="#fff" d="M0 0h400v440H0z"/>
    </clipPath>
  </defs>
</svg>
