<svg xmlns="http://www.w3.org/2000/svg" width="440" height="440" fill="none">
  <g clip-path="url(#a)">
    <path fill="#E7F3FD" fill-rule="evenodd" d="M311.3 176.5c-46.6 0-72-63-136.5-10.3-16 13-66.6-24.7-81.7 37.8-2.8 11.7-19.1 17.7-37 26.9-28.2 14.3-7.5 64.7 19 65 26.7.2 222.1-.5 222.1-.5s105-119 14.1-119Z" clip-rule="evenodd"/>
    <path fill="#AAD1C2" fill-rule="evenodd" d="m405.5 282.9.7-.6s5.6-7.5 3.4-7.7c-1.3-.2-3.5 3.7-5 6.8l-.7-.9c1.6-7.4 4.1-22.2-1.2-23.7-3.6-1-6.3 6.1-8 13.3-6.9-6.5-13.3-10.6-13.3-10.6s15-17.6-13.2-33c-28.2-15.3-44.7 23.8-44.7 23.8s-27.7-26.4-54.3-16.6c-19 7-16.5 18-21.2 25.9-.7-6.7-2.3-15.7-6.6-14.7-4.8 1.2.7 11.6 4.3 17.5-.5.5-1 1-1.6 1.3-4-3-10.2-7-13-5.3-3.4 2.2.9 5.1 10 7-4.3 2-11 3.2-21.5 3.2-38-.2-28.2 27.9-28.2 27.9l219.5.5c-.5-5-2.6-9.7-5.4-14.1Z" clip-rule="evenodd"/>
    <path fill="#FFCA99" fill-rule="evenodd" d="m222.3 210 2.2.6s6-2 9.2 3.8c0 0 1.1 2.5-1 2.6-2 0-1.3-.2-4.3 0s-5.7-.9-6.7-2.7l-2.7-2 3.3-2.3Z" clip-rule="evenodd"/>
    <path fill="#08375E" fill-rule="evenodd" d="M178 296h-16.4c-.7-.6-.6-3-.6-4.5l.1-1.3s5.3-4.2 6.1-1c.3.9.8 1.7 1.5 2.3a14 14 0 0 0 6.2 2.5c2 .2 2.9 1.5 3.1 2Zm17 0h-14.3c-.7-.4-.7-2.5-.7-3.9l.1-1.1s4.8-3.7 5.6-1c.1.5.4 1 .7 1.4 1.5 1.8 4.5 2.6 6.3 2.8 2.1.3 2.3 1.6 2.3 1.8Z" clip-rule="evenodd"/>
    <path fill="#127A87" fill-rule="evenodd" d="M192 221v.9l-1.7 17.4v1l-1 10.7-.1 1.1-.7 7.4a954 954 0 0 0-1.4 16.1c-.3 5.8-1.2 15.4-1.2 15.4l-.2.1a7 7 0 0 1-5 .7c1.8.2-1 0-1.2 0 0 0 0-4.3-.9-10.4a197.8 197.8 0 0 1-1.2-10.8v-.9l-.4-5.5v-2.8l-.1-.2a3683.3 3683.3 0 0 1-.9-40.8V219l10 1.2 6 .7Z" clip-rule="evenodd"/>
    <path fill="#0C515A" fill-rule="evenodd" d="M182.8 236.2c-.8 6.8-3.8 23.9-5.1 30.8l-.6-5.4v-.7c-.2-1.4-.3-3-.3-4.4v-1.6l-.1-.7v-.2l-.7-29.6c4.1-1.4 8 .2 6.8 11.8Z" clip-rule="evenodd"/>
    <path fill="#127A87" fill-rule="evenodd" d="M181 219.8s-1 17.7-9.2 50.9c-5.5 16.2-2.6 20.7-2.6 20.7s-7 1.2-9.2 0c0 0-.2-29.8 3.2-37.9 2.2-5.4.6-9.1 0-21.5-.2-4.1 0-13 0-13l21.2 1-3.4-.2Z" clip-rule="evenodd"/>
    <path fill="#FFCA99" fill-rule="evenodd" d="m155.5 228-.6 4.2s-4.3 4.5 0 9.8c0 0 2 2 2.8.2 1-1.8.3-1.2 1.7-3.8 1.3-2.6.2-5.9-.5-7l.2-3.4h-4.3.7Z" clip-rule="evenodd"/>
    <path fill="#FFCA99" d="M186 154.6c.4 1.1-.5 10.5-.2 12 .5 1.8 0 2.2 1 2.5-.2 2.5.2 5.4-1.1 6.7-1.4 1.2-7.6 4.1-9.3 3.3-2.1-1-6-8-3.7-9.5 3-.8 3.3-2 3.6-3.7.7-5.4.7-7.5.7-10 .2-1.4 8.7-2.5 9-1.3Z"/>
    <path fill="#994A00" d="M185.3 163.5v2.6c0 .6-2.7 1.6-4.4.7-1.5-.9-4.8-3.6-2.2-4a18 18 0 0 1 6.6.7Z"/>
    <path fill="#503116" d="M174.5 147.7c-.8 1.5-.5 2.5-1.3 5.2 0 .1-.1 2.2 1.1 4.8.5.9 2.3 5.3 2.3 5.3l1.1-2.9c.1-1-1-3.4-.6-4 .3-.3.8-2.5 1.6-.9.1-1.2.8-3.9.8-3.9l-1.2-5.4s-2.4-.6-3.8 1.8Z"/>
    <path fill="#FFCA99" d="M185.5 149c1.8.9 3.3 1.4 3.6 3.4.3 2.3-.8 7.5-1.3 9-.6 2.3-1.5 4.4-2.4 5-.6.4-2.7.7-4.8-.2-3-1.4-4-4.1-4.3-7.3-.5-8.3.5-12.6 9.2-9.9Z"/>
    <path fill="#503116" d="M177.2 155.5c0-.2-1-1.1-1.4-1.1l1.7-8.1c6.3-3 10.6 0 12 1.8h-1.7c1.2.5 2 2.4 2.3 3.3h-.6c.2.6.5.7.6.7-1.8.7-3.6-1.1-6.2-2.1-2-.8-3.8-.4-4.4 0 0 .3 0 1.3-.9 2.5a5.8 5.8 0 0 0-.7 3.6l-.4.4-.3-1Z"/>
    <path fill="#FFCA99" d="M175.2 155.4c-.2 1.6 1 3.4 1.4 3.6 1.3.6 1.1.1 1.1-1.2 0-1 .3-2.3-.9-3.2-1-1-1.3-.4-1.6.8Z"/>
    <path fill="#08375E" fill-rule="evenodd" d="m222 210-.8 1.5c-.5.7-1.4 1.2-1.4 1.2s-5.8-3-10.6-6.3l-1.1-.7a22.5 22.5 0 0 1-4.4-3.7l-.3-.4c-2.7-3.5-7.4-11.5-7.4-11.5l-.1 1c-.2 1.6-2 5-2.4 10.5-.6 8.5 1 11.4-1 23.9-17 2-23.6 1.2-29 0-1.5 0-1.2-3-1.4-3-.1-2 1.4-6 1.7-7 1-3.4 1.4-8.5 1.7-11 .4-4 .6-14 .7-15.6v-.2l-.1.2c0 .3-1.7 7.7-2.3 12.1l-4.3 30.5-5-1s.8-25.6.8-31.8c.5-1.6 1.2-25.1 8.5-27.7 2.2-.8 6.8-1.1 12.2-3.5.2 2.4 4.4 2.9 7 2.9 1.8 0 2.9-1 3.4-2.3 6.5 1.7 7.5 2.6 9.6 4.9 6.3 6.8 11.8 18.4 15.1 24 2.2 3.6 10.9 13 10.9 13Z" clip-rule="evenodd"/>
    <path fill="#FFCA99" fill-rule="evenodd" d="M222.1 214.3s3 1 4 .4c1-.7-2.4-1.1-2.4-1.9 0-.7-1.6 1.5-1.6 1.5Z" clip-rule="evenodd"/>
    <path fill="#08375E" fill-rule="evenodd" d="M209.2 206.4a33 33 0 0 1-5-3.8l-.8-1c-2.7-3.5-7.4-11.5-7.4-11.5l-.1 1s-.3-3.5 1.6-1.9c2 1.7 7.9 12.6 9.4 14.7.6.8 1.5 1.7 2.3 2.5ZM169.5 221c-1.3 2.3-2.2 4.8-4.5 5l-2-.5c-1-.3-1.2-1.9-1-3 .5-7 2.9-12.1 3.2-15 .4-4.5 1-16.7 1-18.5.5 0 3.5.4 4.1 10.1.8 10.7 1.7 17.7-.8 21.9Z" clip-rule="evenodd"/>
    <path stroke="#1A1A1A" d="M0 295.8h440"/>
  </g>
  <defs>
    <clipPath id="a">
      <path fill="#fff" d="M0 0h440v440H0z"/>
    </clipPath>
  </defs>
</svg>
