<svg xmlns="http://www.w3.org/2000/svg" width="440" height="440" fill="none">
  <path fill="#AAD1C2" fill-rule="evenodd" d="M402.2 181c-46 0-71.2-60.4-134.9-10-15.9 12.6-65.9-23.6-80.8 36.4-2.7 11.2-18.8 17-36.6 25.7-27.8 13.8-7.3 62.2 19 62.4 26.2.2 219.4-.5 219.4-.5s103.7-114 14-114Z" clip-rule="evenodd"/>
  <path fill="#18A3B4" fill-rule="evenodd" d="m62.7 287.5-.5-.3s-3.2-4.3-2-4.4c.8-.1 2.1 2.1 3 3.9l.4-.5c-1-4.3-2.4-12.7.7-13.6 2-.6 3.6 3.5 4.7 7.6 4-3.7 7.7-6 7.7-6s-31.7-26.6-8-40.6 41.6 35.3 41.6 35.3 16.2-15.1 31.7-9.5c11 4 9.6 10.3 12.3 14.8.4-3.8 1.4-9 3.9-8.4 2.8.7-.5 6.6-2.6 10l1 .8c2.3-1.7 6-4.1 7.5-3 2 1.2-.5 2.8-5.8 4 2.5 1 6.4 1.7 12.5 1.7 22.1 0 16.4 16 16.4 16l-127.7.3c.3-2.8 1.5-5.6 3.2-8Z" clip-rule="evenodd"/>
  <path fill="#FFCA99" fill-rule="evenodd" d="M261.5 294.1c0 .6-.4 1-.9 1.2a9 9 0 0 1-4.2 0h-.8c-1.7-.1-1.6.4-4.8.4-3.7 0-5-1.3-5.1-1.8-.1-.5 1.5-.8 3.3-1.2h.2l.8-.2c2.1-.5 4.2-1.2 5-3.2.7-2.2.5-8.7.5-8.7h6.5s-1.7 7.2-1.5 9.2c.1 1.1.6 1.4.8 2.4v.2c.2.6.3 1.1.2 1.7Z" clip-rule="evenodd"/>
  <path fill="#18A3B4" fill-rule="evenodd" d="m269.1 223.9-2 9.6a49.7 49.7 0 0 0-1 19.7c.3 10.8-4.6 30.3-4.6 30.3s-1.3.6-3.5.5c-1.1 0-2.8-.8-2.8-.8s-.5-12.1-.5-28.4c0-11.8-2.4-27.4-2.8-36.6-.3-5.5.3-12.9.3-12.9s9.6-7.7 13-3.7c3.5 3.9 6 10.7 3.9 22.3Z" clip-rule="evenodd"/>
  <path fill="#127A87" fill-rule="evenodd" d="m266 250.6.2 2.6c-7.2-10.4-8.8-33.2-8.8-33.2l7.9 3.8s.9 4.3 1.8 9.7a46 46 0 0 0-1 17.1Z" clip-rule="evenodd"/>
  <path fill="#FFCA99" fill-rule="evenodd" d="M282.3 294c0 .6-.4 1-.9 1.2a9 9 0 0 1-4.2.1 16.6 16.6 0 0 0-.8 0c-1.7-.2-1.6.3-4.8.3-3.7 0-5-1.2-5-1.8-.2-.4 1.4-.8 3.2-1.2h.2l.8-.2c2.1-.5 4.2-1.1 5-3.2.7-2.2-.4-8.5-.4-8.5l6-.5s-.3 7.2-.1 9.3c0 1.1.6 1.7.8 2.7v.2c.2.5.3 1 .2 1.7Z" clip-rule="evenodd"/>
  <path fill="#18A3B4" fill-rule="evenodd" d="M281.5 284.1s-1.6.7-2.7 1c-1.1.2-3.4-.3-3.4-.3a190.3 190.3 0 0 0-13.1-51.5c-1-2.2-5-12.9-5.6-15.6-2-8 0-7.2 0-7.2l17.6-2s2.2 1 3.2 12.5c.3 3.5.4 18.3.8 21.1.4 2.7 1 5 1.5 6.4 3.3 8 1.7 35.6 1.7 35.6Z" clip-rule="evenodd"/>
  <path fill="#994A00" fill-rule="evenodd" d="M282.3 294a1.4 1.4 0 0 1-.9 1.3c-1 .3-2.5.3-4.2 0a14.5 14.5 0 0 0-.7 0h-.1c-1.4-.1-1.6.2-3.3.3h-2.6c-2.9-.2-3.9-1.3-4-1.7-.2-.5 1.4-.8 3.2-1.3.5.3 2.8 1.3 5.6 1 2.5-.2 5-1.2 6.8-1.5v.2c.2.6.3 1.2.2 1.8Zm-20.8.1c0 .6-.4 1-.9 1.2-1 .4-2.5.3-4.2.1h-.8c-1-.1-1.4 0-2.3.2h-4.5c-2.2-.3-3-1.2-3.1-1.7-.2-.4 1.5-.8 3.3-1.2.4.2 2.7 1.3 5.5 1 2.5-.3 5-1.3 6.8-1.6v.2c.2.6.3 1.2.2 1.8Z" clip-rule="evenodd"/>
  <path fill="#FFE5CC" fill-rule="evenodd" d="m290.1 208 1.8 2c1 .7 1.2 1.1 1.9 1.3 1.7.6 5 2.2 5.2 5.4 0 0 0 1.8-1.8 1.2-1.8-.6-1-.5-3.5-1.3s-3.4-3.3-3.7-4.2l-2-1.9 2.1-2.5Z" clip-rule="evenodd"/>
  <path fill="#994A00" fill-rule="evenodd" d="M254.4 155.6c-.5-5 1-12.7 10.7-11.5 9.7 1.3 12.8 10.8 10.8 15-2 4.3 2.8 5.3 4.3 10 1.3 3.8 1.8 8.7 3.9 10.9 6.7 7-6.5 17.9-14.4 15.6-14.5-4.2-16.4-4.8-15.9-16.2.3-5.8 4.8-8 2-9.7-7-4.1 0-3.1-1.4-14.1Z" clip-rule="evenodd"/>
  <path fill="#FFCA99" fill-rule="evenodd" d="M270.9 201.3c2 5 2.7 9.5 2.7 9.5l-21.5.3s.3-17.3-.7-23.5c-1-6 6-19.5 6-19.5l2.4-.3.5-2c.2-1.5.1-2.8 0-3.5v-.6l7-2.1h.2l.3 4.5c.4 3.4.8 4 .9 4.2 1.8.2 3.8.6 6 1.2 0 0-5.8 26.7-3.8 31.8Z" clip-rule="evenodd"/>
  <path fill="#FFE5CC" fill-rule="evenodd" d="M228 185.2s-1.6-3.5-3.3-3.7c-1.7-.1-7.2-1-7.6-.2-.3.7 0 3.3 1.2 4.3 1.2.9 8.5 2.4 8.5 2.4l1.2-2.8Z" clip-rule="evenodd"/>
  <path fill="#FAD738" fill-rule="evenodd" d="M284.8 196c-1-7.4-5-22.7-7.7-25.2-2.4-2.2-7.5-2.4-7.5-2.4-1 1.7-4.7 5.8-9.2 5-2.5-.3-3-4.7-3-5.3-.8 0-6.5 1-8.1 3.9-2.5 4.3-5.2 17-7.9 16.9a213 213 0 0 1-13.4-4.7s-2 1.9-1.7 4.2a127.7 127.7 0 0 0 13.2 7.7c1.9.8 3.4 1.2 4.3 1l.8-.3a15 15 0 0 0 3.6-3.7 55.5 55.5 0 0 0 2.4-3.3c.3 4 .6 8.5.3 12a46 46 0 0 0 0 9.8c1 3 7.9 3.9 14.4 3.6 3-.2 5.2-.3 6.8-.7 2.3-.5 3.3-1.5 4-3.3.8-1.7-2.6-9.8-2.9-13.3-.3-3.2.2-5.8 1-8.4 2.3 5.3 4.7 9 5 9.9.6 1.7 10.4 12.6 10.4 12.6s.8-.2 1.4-.6c.6-.4 1-1 1-1-1.8-4-7.2-14.4-7.2-14.4Z" clip-rule="evenodd"/>
  <path fill="#F8CD07" fill-rule="evenodd" d="M276.1 211.2c-.7 1.9-1.8 2.8-4 3.3-3-.6-5-6.2-6.1-9-1.2-3.1 5-19.5 6.7-19.3 1.3 0 1.5 2.2 1.6 3.3-.9 2.6-1.4 5.1-1 8.4.2 3.5 3.6 11.6 2.8 13.3Zm-25.6-21.3-2.3 3.3a19.5 19.5 0 0 1-3.7 3.6 1 1 0 0 1-.7.3c-.9.2-2.4-.2-4.3-1h3.3c1.8-.3 2.4-2.3 5.3-5.3 1.8-1.8 2.3-1.5 2.4-1Z" clip-rule="evenodd"/>
  <path fill="#FFA856" fill-rule="evenodd" d="M267.5 159.9s-2.7 5-7.2 5.8c.2-1.4.1-2.7 0-3.4v-.6l7-2.1.2.3Z" clip-rule="evenodd"/>
  <path fill="#FFCA99" fill-rule="evenodd" d="M258.4 162.2s8.7 1.8 9.7-3.7c1-5.4 2.8-8.8-2.7-10.1-5.5-1.4-7 .5-7.8 2.2-.7 1.8-1.4 11 .8 11.6Z" clip-rule="evenodd"/>
  <path fill="#994A00" fill-rule="evenodd" d="m269.7 148.7-3.6-4s-4.3-1.5-8.6 2.7c-1.8 1.8-1.5 5.4-.5 7.5 0 0 1.5-4.5 4.2-5.4a6 6 0 0 0 1.8-1c.3.8 1 2 2.3 3.5 2.9 3 2.3 9.4 2.3 9.4s4.7-9.8 2.1-12.7Z" clip-rule="evenodd"/>
  <path stroke="#1A1A1A" d="M0 295.6h440"/>
</svg>
