<svg xmlns="http://www.w3.org/2000/svg" width="440" height="440" fill="none">
  <g clip-path="url(#a)">
    <path fill="#E7F3FD" fill-rule="evenodd" d="M231.3 197.6c-40 0-62-46.5-117.5-7.6-13.8 9.7-57.4-18.3-70.3 28-2.4 8.6-16.5 13-32 19.8-24.1 10.6-6.3 47.9 16.6 48 22.9.2 191.1-.3 191.1-.3s90.4-88 12.1-88Z" clip-rule="evenodd"/>
    <path fill="#AAD1C2" fill-rule="evenodd" d="m433.8 269.5.8-.6s6.4-8.7 3.9-9c-1.5-.2-4.1 4.4-5.9 7.9l-.7-1c1.9-8.6 4.7-25.6-1.3-27.4-4.2-1.2-7.3 7-9.3 15.4-7.9-7.5-15.3-12.2-15.3-12.2s17.4-20.4-15-38.1c-32.5-17.7-51.4 27.4-51.4 27.4s-32-30.5-62.5-19.2c-21.8 8-18.9 21-24.4 30-.7-7.8-2.6-18.2-7.6-17-5.5 1.4.9 13.4 5 20.2l-1.8 1.5c-4.5-3.4-11.8-8.2-15-6.1-3.9 2.6 1 5.9 11.6 8-5 2.4-12.7 3.7-24.7 3.7-43.6-.2-32.4 32.2-32.4 32.2l252.2.6c-.6-5.7-3-11.2-6.2-16.3Z" clip-rule="evenodd"/>
    <path fill="#4D4D4D" fill-rule="evenodd" d="m232.1 253.5-47.9 7.6a4.4 4.4 0 0 1-5-3.7l-14.3-89.6a4.4 4.4 0 0 1 3.7-5.2l48-7.5a4.4 4.4 0 0 1 5 3.7l14.2 89.6a4.5 4.5 0 0 1-3.7 5.1Z" clip-rule="evenodd"/>
    <path fill="#E6E6E6" fill-rule="evenodd" d="m228.4 242.4-42.8 6.8c-1.5.2-2.8-.7-3-2.2l-12.3-77.5c-.2-1.5.7-2.8 2.2-3l42.8-6.8c1.5-.3 2.8.7 3 2.2l12.3 77.5c.3 1.5-.7 2.8-2.2 3Zm-16 11.2-6.4 1c-1.5.3-2.9-.7-3.1-2.2-.2-1.5.7-2.8 2.2-3l6.5-1c1.5-.3 2.8.7 3 2.2.3 1.4-.7 2.8-2.2 3Z" clip-rule="evenodd"/>
    <path fill="#E6E6E6" fill-rule="evenodd" d="m200.4 204.4-15.2 2.4c-.2 0-.4 0-.5-.4 0-.2.1-.4.4-.5l15-2.3c.3 0 .5 0 .5.3s0 .5-.2.5Zm2.3 2.7-17.4 2.8a.7.7 0 0 1-.6-.4c0-.3.2-.5.4-.5l17.4-2.8c.3 0 .5.1.5.4 0 .3 0 .5-.3.5Zm3.6 2.7-21 3.3c-.3 0-.5-.1-.5-.4 0-.3 0-.5.3-.5l21-3.3c.2 0 .5 0 .5.4 0 .2 0 .4-.3.5Z" clip-rule="evenodd"/>
    <path fill="#4D4D4D" d="M194.6 217a11 11 0 0 1-.4 6.2c-.7 1.5-2 2.3-3.8 2.6-1.8.3-3.2-.2-4.4-1.4a10.8 10.8 0 0 1-2.3-5.7 11 11 0 0 1 .4-6.3c.7-1.4 2-2.3 3.8-2.6a5 5 0 0 1 4.4 1.4c1 1.3 1.9 3.2 2.3 5.8Zm-7.6 1.2c.3 1.9.7 3.2 1.1 4 .5.8 1.1 1 1.9 1 .8-.1 1.2-.7 1.4-1.5.3-1 .2-2.3 0-4.2-.4-1.9-.8-3.2-1.3-4-.4-.8-1-1.1-1.8-1-.8.1-1.3.6-1.5 1.5-.2.9-.1 2.3.2 4.2Zm9.3-.3c-.5-3-.2-5.5.9-7.2 1-1.7 2.9-2.7 5.4-3.1 1-.2 1.6-.2 2.2-.2l.4 2.6-2 .1c-1 .2-2 .5-2.6 1-.7.4-1.1 1-1.4 1.7a7 7 0 0 0-.1 3h.1a3.4 3.4 0 0 1 3-2.4c1.5-.2 2.6 0 3.5.8 1 .7 1.5 1.9 1.8 3.4.3 1.6 0 3-.8 4.2-.8 1-2 1.7-3.6 2-1.2.2-2.2 0-3.2-.3-1-.4-1.7-1-2.3-2a9 9 0 0 1-1.3-3.6Zm6.3 3.3a2 2 0 0 0 1.5-1c.3-.5.4-1.2.2-2a3 3 0 0 0-.8-1.8c-.4-.3-1-.5-1.7-.4-.6.1-1.2.4-1.6 1a2 2 0 0 0-.4 1.6c0 .8.4 1.5 1 2a2 2 0 0 0 1.8.6Zm7.4-.3c0-.6 0-1 .3-1.4.2-.3.7-.6 1.3-.7.6 0 1 0 1.4.3.4.2.6.7.7 1.2.1.6 0 1-.3 1.5-.2.3-.7.6-1.2.6-.6.1-1.1 0-1.5-.2-.4-.3-.6-.7-.7-1.3Zm6.2-1c0-.5 0-1 .3-1.4.2-.3.7-.5 1.3-.6.6-.1 1 0 1.4.2.4.3.6.7.7 1.3.1.5 0 1-.3 1.4a2 2 0 0 1-1.2.7c-.6 0-1.1 0-1.5-.3-.4-.3-.6-.7-.7-1.2Zm-26.3 34.6c-.1-.6 0-1 .2-1.4.3-.4.7-.6 1.4-.7.5 0 1 0 1.4.3.4.2.6.6.7 1.2 0 .6 0 1-.3 1.4-.3.4-.7.6-1.3.7-.6.1-1 0-1.4-.2-.4-.3-.6-.7-.7-1.3Z"/>
    <path fill="#FFA856" fill-rule="evenodd" d="m298.6 280.8-68.9-17.4 10.7-42.4 28.2 33.2 40.7-15.8" clip-rule="evenodd"/>
    <path fill="#CC6300" fill-rule="evenodd" d="m263.3 247.8-33 15.9 68.8 17.4-21.7-29.7-4.8 2.2-.4-.2-3 1.2-4.4-5.1-1.5-1.7Z" clip-rule="evenodd"/>
    <path fill="#FFA856" fill-rule="evenodd" d="m263 250-33 13.7 68.8 17.4-23.7-28.1c-4.4-5.4-5.2-5.8-12-3Z" clip-rule="evenodd"/>
    <path fill="#F8CD07" fill-rule="evenodd" d="M275.6 254.1c7-3.2 33.7-16 33.7-16l-68.8-17.3 23.1 30.3c4.2 5.8 5 6.3 12 3Z" clip-rule="evenodd"/>
    <path fill="#4D4D4D" d="M279.7 245a9 9 0 0 1-1.2 2.6c-.5.8-1.1 1.3-1.8 1.6a3 3 0 0 1-2.3.2c-.5 0-.9-.3-1.2-.7-.4-.3-.6-.7-.6-1.2h-.2c-1 .7-2 1-3.2.6a4 4 0 0 1-2.6-1.8c-.6-1-.7-2-.3-3.3a4.8 4.8 0 0 1 2.2-3.2 5 5 0 0 1 4-.4 12.5 12.5 0 0 1 3.6 1.5l-1.5 5c-.2 1 0 1.5.4 1.7.5 0 1-.2 1.4-.7.4-.6.7-1.4 1-2.5.3-1.1.3-2.2 0-3.1-.2-1-.7-1.8-1.5-2.5a7.6 7.6 0 0 0-6.6-1.4 6 6 0 0 0-3 1.9c-.8 1-1.4 2.1-1.7 3.5-.5 2-.4 3.5.4 4.8a6.3 6.3 0 0 0 4 2.7 14.3 14.3 0 0 0 5.4.3l-.5 2c-1.7.2-3.4.1-5.2-.3a9 9 0 0 1-5.7-3.6 7.8 7.8 0 0 1-.8-6.4 10 10 0 0 1 2.3-4.4c1.1-1.2 2.5-2 4-2.5 1.7-.4 3.4-.4 5.2 0a9 9 0 0 1 3.9 2c1 1 1.7 2 2 3.4.4 1.3.4 2.7 0 4.2Zm-11-1.4c-.4 1.5 0 2.4 1.2 2.7.6.1 1.2 0 1.6-.3.4-.4.8-1 1.1-2l.7-2.3-1.1-.4a3 3 0 0 0-2.3.3c-.6.4-1 1.1-1.2 2Z"/>
    <g filter="url(#b)">
      <path fill="#1A1A1A" d="M168.2 275.2a16 16 0 0 0 16-16 16 16 0 0 0-16-16 16 16 0 0 0-16 16 16 16 0 0 0 16 16Z"/>
    </g>
    <path fill="#62AB8D" d="M168.2 275.2a16 16 0 0 0 16-16 16 16 0 0 0-16-16 16 16 0 0 0-16 16 16 16 0 0 0 16 16Z"/>
    <path fill="#62AB8D" fill-rule="evenodd" d="M161.8 250c-.4.7-1.3.9-2 .4l-7.5-5.1a8.7 8.7 0 0 1-2.5-12.1c2.7-4 8.1-5 12.2-2.3l7.4 5c.7.5.9 1.4.4 2-.4.6-1.3.8-1.9.3l-7.5-5a6 6 0 0 0-8.3 1.5 6 6 0 0 0 1.7 8.3l7.6 5.1c.7.5.8 1.4.4 2Z" clip-rule="evenodd"/>
    <path fill="#fff" fill-rule="evenodd" d="M170 260a3 3 0 0 0-1.3-5.3 3 3 0 0 0-2.2 5.2c.1.1.2.3 0 .4l-1.4 2.7c-.2.3 0 .8.4.8h5.4c.4 0 .7-.5.5-.8l-1.6-2.7.1-.4Z" clip-rule="evenodd"/>
  </g>
  <defs>
    <clipPath id="a">
      <path fill="#fff" d="M0 0h440v440H0z"/>
    </clipPath>
    <filter id="b" width="34.2" height="34.4" x="151.1" y="241" color-interpolation-filters="sRGB" filterUnits="userSpaceOnUse">
      <feFlood flood-opacity="0" result="BackgroundImageFix"/>
      <feColorMatrix in="SourceAlpha" result="hardAlpha" values="0 0 0 0 0 0 0 0 0 0 0 0 0 0 0 0 0 0 127 0"/>
      <feOffset dy="-1"/>
      <feGaussianBlur stdDeviation=".6"/>
      <feColorMatrix values="0 0 0 0 0 0 0 0 0 0 0 0 0 0 0 0 0 0 0.17 0"/>
      <feBlend in2="BackgroundImageFix" result="effect1_dropShadow_296_1804"/>
      <feBlend in="SourceGraphic" in2="effect1_dropShadow_296_1804" result="shape"/>
    </filter>
  </defs>
</svg>
