<svg xmlns="http://www.w3.org/2000/svg" width="342" height="182" fill="none">
  <g clip-path="url(#a)">
    <path fill="#333" d="M225.5 116h-1.3v-10.1l-.3.4-1.9 1.5-.7-.9 3-2.3h1.2V116Zm7.9-7c1.2 0 2.1.3 2.8 1a3 3 0 0 1 1 2.4c0 1.1-.3 2-1 2.7-.8.7-1.9 1-3.2 1-1.3 0-2.3-.1-3-.6v-1.2l1.4.5c.6.2 1.1.2 1.6.2 1 0 1.7-.2 2.2-.6.5-.4.7-1 .7-1.9 0-1.6-1-2.4-3-2.4l-1.9.3-.7-.5.5-5.3h5.6v1.2H232l-.3 3.4a9 9 0 0 1 1.8-.2Zm12 7v-5.5c0-.7-.1-1.3-.5-1.6-.3-.3-.8-.5-1.5-.5-.9 0-1.5.2-2 .7-.3.5-.5 1.3-.5 2.4v4.5h-1.3v-12.2h1.3v3.7l-.1 1.1a4 4 0 0 1 1.2-1c.4-.2 1-.3 1.6-.3 1 0 1.8.2 2.3.7.5.5.8 1.3.8 2.4v5.6h-1.3Zm-109.9 0h-1.3v-10.1l-.3.4-1.9 1.5-.7-.9 3-2.3h1.2V116Zm11.8 0h-7.5v-1.1l3-3 1.8-2 .7-1.2.2-1.2c0-.6-.2-1-.6-1.4-.3-.4-.8-.6-1.5-.6-.5 0-1 .1-1.3.3-.5.1-1 .4-1.5.8l-.6-.9c1-.8 2.2-1.3 3.4-1.3 1 0 2 .3 2.5.8a3 3 0 0 1 1 2.3c0 .7-.3 1.4-.7 2.1-.4.7-1.1 1.6-2.3 2.7l-2.5 2.4v.1h6v1.2Zm8.1 0v-5.5c0-.7-.1-1.3-.5-1.6-.3-.3-.8-.5-1.5-.5-.9 0-1.5.2-2 .7-.3.5-.5 1.3-.5 2.4v4.5h-1.3v-12.2h1.3v3.7l-.1 1.1a4 4 0 0 1 1.2-1c.4-.2 1-.3 1.6-.3 1 0 1.8.2 2.3.7.5.5.8 1.3.8 2.4v5.6h-1.3Zm-100.2-6.5c0 4.4-1.8 6.7-5.2 6.7l-1.5-.2v-1.1l1.5.2c1.2 0 2.1-.4 2.8-1.2.6-.7 1-2 1-3.5l-1.2 1c-.5.2-1 .3-1.6.3a3 3 0 0 1-2.4-1c-.6-.5-.9-1.4-.9-2.4 0-1.2.3-2.2 1-2.9.7-.6 1.5-1 2.6-1a3.5 3.5 0 0 1 3.4 2.4c.3.7.5 1.6.5 2.7Zm-3.9-4c-.7 0-1.3.3-1.7.7a3 3 0 0 0-.6 2c0 .8.2 1.4.5 1.8.4.4 1 .7 1.8.7a3 3 0 0 0 1.3-.3c.4-.2.7-.5.9-.8l.3-1c0-.6 0-1.1-.3-1.6-.2-.4-.5-.8-.9-1-.4-.3-.8-.5-1.3-.5Zm12 10.5v-5.5c0-.7-.2-1.3-.5-1.6-.3-.3-.8-.5-1.5-.5-1 0-1.6.2-2 .7-.4.5-.6 1.3-.6 2.4v4.5h-1.3v-12.2h1.3v4.8c.3-.4.6-.7 1.1-1 .5-.2 1-.3 1.6-.3 1 0 1.8.2 2.4.7.5.5.8 1.3.8 2.4v5.6h-1.3ZM9.4 104.4c1 0 1.9.3 2.5.7a2.5 2.5 0 0 1 .4 3.5c-.4.6-1 1-1.7 1.4 1 .4 1.6.9 2 1.4.4.4.6 1 .6 1.6 0 1-.3 1.7-1 2.3a4 4 0 0 1-2.7.9c-1.2 0-2.2-.3-2.8-.8-.7-.6-1-1.3-1-2.3 0-1.3.8-2.3 2.4-3-.8-.5-1.3-1-1.6-1.4a3 3 0 0 1-.4-1.6c0-.8.3-1.5.9-2 .6-.4 1.4-.7 2.4-.7ZM7 113.1c0 .6.2 1.1.6 1.5.4.3 1 .5 1.8.5s1.4-.2 1.9-.5c.4-.4.6-1 .6-1.5 0-.6-.2-1-.6-1.4a5 5 0 0 0-2.1-1.1 5 5 0 0 0-1.7 1c-.4.5-.5 1-.5 1.5Zm2.4-7.6c-.6 0-1.2.1-1.5.4-.4.3-.6.8-.6 1.3s.2.9.5 1.2c.3.4.9.7 1.7 1a4 4 0 0 0 1.6-1c.3-.3.4-.7.4-1.2s-.2-1-.5-1.3c-.4-.3-1-.4-1.6-.4ZM21.3 116v-5.5c0-.7-.2-1.3-.5-1.6-.3-.3-.8-.5-1.5-.5-1 0-1.6.2-2 .7-.4.5-.6 1.3-.6 2.4v4.5h-1.3v-12.2h1.3v4.8l1-1a5 5 0 0 1 1.7-.3c1 0 1.8.2 2.4.7.5.5.8 1.3.8 2.4v5.6h-1.3Zm11.4-2.6H31v2.6h-1.3v-2.6h-5.5v-1.2l5.4-7.7H31v7.7h1.7v1.2Zm-3-1.2v-3.8l.1-2.5-.7 1.2-3.6 5h4.2Zm7.7-3.2c1.2 0 2.1.3 2.8 1a3 3 0 0 1 1 2.4c0 1.1-.3 2-1.1 2.7-.8.7-1.8 1-3.1 1s-2.3-.1-3-.6v-1.2l1.4.5c.5.2 1 .2 1.6.2 1 0 1.6-.2 2.1-.6.5-.4.8-1 .8-1.9 0-1.6-1-2.4-3-2.4l-2 .3-.6-.5.4-5.3h5.7v1.2H36l-.3 3.4a9 9 0 0 1 1.8-.2Zm275.1 7h-1.3v-10.1l-.3.4-1.9 1.5-.7-.9 3-2.3h1.2V116Zm8-11.6c1.1 0 2 .3 2.6.7.6.5.9 1.2.9 2a3 3 0 0 1-.5 1.6c-.4.5-1 .9-1.7 1.3 1 .4 1.6.9 2 1.4.3.4.5 1 .5 1.6 0 1-.3 1.7-1 2.3a4 4 0 0 1-2.7.9c-1.2 0-2.1-.3-2.8-.8a3 3 0 0 1-1-2.3c0-1.3.8-2.3 2.4-3a7 7 0 0 1-1.5-1.4 3 3 0 0 1-.5-1.6c0-.8.3-1.5 1-2a4 4 0 0 1 2.4-.7Zm-2.4 8.7c0 .6.2 1.1.7 1.5.4.3 1 .5 1.8.5s1.4-.2 1.8-.5c.4-.4.7-1 .7-1.5 0-.6-.2-1-.6-1.4-.5-.4-1.2-.8-2.2-1.1l-1.7 1a3 3 0 0 0-.5 1.5Zm2.5-7.6c-.7 0-1.2.1-1.6.4-.3.3-.5.8-.5 1.3s.1.9.4 1.2c.4.4 1 .7 1.7 1 .8-.3 1.3-.6 1.6-1 .3-.3.5-.7.5-1.2s-.2-1-.6-1.3c-.4-.3-.9-.4-1.5-.4Zm11.8 10.5v-5.5c0-.7-.1-1.3-.5-1.6-.3-.3-.8-.5-1.5-.5-.9 0-1.5.2-2 .7-.3.5-.5 1.3-.5 2.4v4.5h-1.3v-12.2h1.3v3.7l-.1 1.1a4 4 0 0 1 1.2-1c.4-.2 1-.3 1.6-.3 1 0 1.8.2 2.3.7.5.5.8 1.3.8 2.4v5.6h-1.3Zm5.8-28H3.2v1h335v-1Zm-105.5 1h-1v10h1V89Zm-90 0h-1v10h1V89Zm-87 0h-1v10h1V89Zm-31.5 0h-1v10h1V89Zm295.5 0h-1v10h1V89Z"/>
    <path fill="gray" fill-opacity=".4" d="M338.2 50H3.2v1h335v-1Zm0-30H3.2v1h335v-1Z"/>
    <mask id="b" width="30" height="15" x="0" y="144" maskUnits="userSpaceOnUse" style="mask-type:alpha">
      <path fill="#008580" d="M30 144H0v15h30v-15Z"/>
    </mask>
    <g mask="url(#b)">
      <path fill="#008580" d="M30 144H0v15h30v-15Z"/>
      <circle cx="20.6" cy="145.8" r=".6" fill="#371F1F"/>
      <circle cx="20.6" cy="150.2" r=".6" fill="#371F1F"/>
      <circle cx="20.6" cy="154.7" r=".6" fill="#371F1F"/>
      <circle cx="20.6" cy="159.1" r=".6" fill="#371F1F"/>
      <circle cx="22.8" cy="143.6" r=".6" fill="#371F1F"/>
      <circle cx="22.8" cy="148" r=".6" fill="#371F1F"/>
      <circle cx="22.8" cy="152.4" r=".6" fill="#371F1F"/>
      <circle cx="22.8" cy="156.9" r=".6" fill="#371F1F"/>
      <circle cx="25" cy="145.8" r=".6" fill="#371F1F"/>
      <circle cx="25" cy="150.2" r=".6" fill="#371F1F"/>
      <circle cx="25" cy="154.7" r=".6" fill="#371F1F"/>
      <circle cx="25" cy="159.1" r=".6" fill="#371F1F"/>
      <circle cx="27.2" cy="143.6" r=".6" fill="#371F1F"/>
      <circle cx="27.2" cy="148" r=".6" fill="#371F1F"/>
      <circle cx="27.2" cy="152.4" r=".6" fill="#371F1F"/>
      <circle cx="27.2" cy="156.9" r=".6" fill="#371F1F"/>
      <circle cx="29.4" cy="145.8" r=".6" fill="#371F1F"/>
      <circle cx="29.4" cy="150.2" r=".6" fill="#371F1F"/>
      <circle cx="29.4" cy="154.7" r=".6" fill="#371F1F"/>
      <circle cx="29.4" cy="159.1" r=".6" fill="#371F1F"/>
      <circle cx="9.6" cy="143.6" r=".6" fill="#371F1F"/>
      <circle cx="9.6" cy="148" r=".6" fill="#371F1F"/>
      <circle cx="9.6" cy="152.4" r=".6" fill="#371F1F"/>
      <circle cx="9.6" cy="156.9" r=".6" fill="#371F1F"/>
      <circle cx="11.8" cy="145.8" r=".6" fill="#371F1F"/>
      <circle cx="11.8" cy="150.2" r=".6" fill="#371F1F"/>
      <circle cx="11.8" cy="154.7" r=".6" fill="#371F1F"/>
      <circle cx="11.8" cy="159.1" r=".6" fill="#371F1F"/>
      <circle cx="14" cy="143.6" r=".6" fill="#371F1F"/>
      <circle cx="14" cy="148" r=".6" fill="#371F1F"/>
      <circle cx="14" cy="152.4" r=".6" fill="#371F1F"/>
      <circle cx="14" cy="156.9" r=".6" fill="#371F1F"/>
      <circle cx="16.2" cy="145.8" r=".6" fill="#371F1F"/>
      <circle cx="16.2" cy="150.2" r=".6" fill="#371F1F"/>
      <circle cx="16.2" cy="154.7" r=".6" fill="#371F1F"/>
      <circle cx="16.2" cy="159.1" r=".6" fill="#371F1F"/>
      <circle cx="18.4" cy="143.6" r=".6" fill="#371F1F"/>
      <circle cx="18.4" cy="148" r=".6" fill="#371F1F"/>
      <circle cx="18.4" cy="152.4" r=".6" fill="#371F1F"/>
      <circle cx="18.4" cy="156.9" r=".6" fill="#371F1F"/>
      <circle cx=".8" cy="143.6" r=".6" fill="#371F1F"/>
      <circle cx=".8" cy="148" r=".6" fill="#371F1F"/>
      <circle cx=".8" cy="152.4" r=".6" fill="#371F1F"/>
      <circle cx=".8" cy="156.9" r=".6" fill="#371F1F"/>
      <circle cx="3" cy="145.8" r=".6" fill="#371F1F"/>
      <circle cx="3" cy="150.2" r=".6" fill="#371F1F"/>
      <circle cx="3" cy="154.7" r=".6" fill="#371F1F"/>
      <circle cx="3" cy="159.1" r=".6" fill="#371F1F"/>
      <circle cx="5.2" cy="143.6" r=".6" fill="#371F1F"/>
      <circle cx="5.2" cy="148" r=".6" fill="#371F1F"/>
      <circle cx="5.2" cy="152.4" r=".6" fill="#371F1F"/>
      <circle cx="5.2" cy="156.9" r=".6" fill="#371F1F"/>
      <circle cx="7.4" cy="145.8" r=".6" fill="#371F1F"/>
      <circle cx="7.4" cy="150.2" r=".6" fill="#371F1F"/>
      <circle cx="7.4" cy="154.7" r=".6" fill="#371F1F"/>
      <circle cx="7.4" cy="159.1" r=".6" fill="#371F1F"/>
    </g>
    <path fill="#333" d="M42.9 149.4h-2.2v7.6h-1.3v-7.6H38v-.5l1.5-.5v-.5c0-2 1-3.1 2.8-3.1.4 0 1 0 1.6.2l-.4 1-1.2-.2c-.5 0-.9.2-1.1.5-.3.3-.4.9-.4 1.6v.5H43v1Zm2.9 7.6h-1.3v-12.2h1.3V157Zm4-8.6v5.6c0 .7 0 1.2.4 1.6.3.3.8.5 1.5.5.9 0 1.5-.3 2-.8.4-.5.6-1.3.6-2.4v-4.5h1.3v8.6h-1.1l-.2-1.1a4 4 0 0 1-1.2 1c-.4.1-1 .3-1.6.3-1 0-1.8-.3-2.3-.8-.5-.5-.8-1.3-.8-2.4v-5.6h1.3Zm9.8 8.6h-1.3v-8.6h1.3v8.6Zm-1.4-10.9.2-.6c.2-.2.4-.2.6-.2.2 0 .4 0 .5.2.2.1.3.3.3.6s-.1.5-.3.7l-.5.2c-.2 0-.4 0-.6-.2l-.2-.7Zm10 9.8c-.7.8-1.6 1.3-2.8 1.3-1 0-2-.4-2.6-1.2a5 5 0 0 1-.9-3.3c0-1.4.3-2.5 1-3.2a3 3 0 0 1 2.5-1.2c1.2 0 2.1.4 2.7 1.2h.1v-4.7h1.2V157h-1l-.2-1.1Zm-2.6.2a3 3 0 0 0 2-.7c.3-.5.5-1.3.5-2.4v-.3c0-1.2-.2-2-.6-2.6-.4-.5-1-.7-1.9-.7a2 2 0 0 0-1.8.9c-.4.5-.6 1.4-.6 2.5 0 1 .2 1.9.6 2.4.4.6 1 .9 1.8.9Zm10.2 1a4 4 0 0 1-3-1.1c-.7-.8-1-1.8-1-3.2a5 5 0 0 1 1-3.3c.6-.8 1.5-1.2 2.7-1.2 1 0 1.9.3 2.5 1a4 4 0 0 1 1 2.8v.9h-6c0 1 .3 1.7.8 2.2.5.6 1.2.8 2 .8 1 0 1.9-.2 2.8-.6v1.2a6.7 6.7 0 0 1-2.8.6Zm-.3-7.7c-.7 0-1.3.2-1.7.6-.4.5-.6 1.1-.7 1.9h4.5c0-.8-.2-1.4-.6-1.9a2 2 0 0 0-1.5-.6Z"/>
    <mask id="c" width="30" height="15" x="111" y="144" maskUnits="userSpaceOnUse" style="mask-type:alpha">
      <path fill="#703399" d="M141 144h-30v15h30v-15Z"/>
    </mask>
    <g mask="url(#c)">
      <path fill="#703399" d="M141 144h-30v15h30v-15Z"/>
      <path stroke="#fff" stroke-width=".5" d="M130.3 130v39m2-39v39m2-39v39m2-39v39m2-39v39m2-39v39m-20-39v39m2-39v39m2-39v39m2-39v39m2-39v39m-16-39v39m2-39v39m2-39v39m2-39v39"/>
    </g>
    <path fill="#333" d="M155.9 155.9h-.1c-.6.8-1.5 1.3-2.7 1.3a3 3 0 0 1-2.6-1.2 5 5 0 0 1-1-3.3c0-1.4.4-2.5 1-3.2a3 3 0 0 1 2.6-1.2c1.2 0 2 .4 2.7 1.2v-4.7h1.3V157h-1l-.2-1.1Zm-2.6.2c.9 0 1.5-.3 1.9-.7.4-.5.6-1.3.6-2.4v-.3c0-1.2-.2-2-.6-2.6-.4-.5-1-.7-2-.7a2 2 0 0 0-1.7.9c-.4.5-.6 1.4-.6 2.5 0 1 .2 1.9.6 2.4.4.6 1 .9 1.8.9Zm10.2 1a4 4 0 0 1-3-1.1c-.8-.8-1.1-1.8-1.1-3.2a5 5 0 0 1 1-3.3c.7-.8 1.6-1.2 2.7-1.2s2 .3 2.6 1a4 4 0 0 1 1 2.8v.9h-6c0 1 .3 1.7.8 2.2.5.6 1.1.8 2 .8 1 0 1.8-.2 2.7-.6v1.2a6.6 6.6 0 0 1-2.7.6Zm-.4-7.7c-.7 0-1.2.2-1.6.6-.4.5-.7 1.1-.8 1.9h4.5c0-.8-.2-1.4-.5-1.9a2 2 0 0 0-1.6-.6Zm11.6 7.6v-5.5c0-.7-.2-1.3-.5-1.6-.3-.3-.8-.5-1.5-.5-.9 0-1.5.2-2 .7-.4.5-.6 1.3-.6 2.4v4.5h-1.3v-8.6h1l.3 1.2a4 4 0 0 1 1.2-1c.5-.2 1-.3 1.6-.3 1 0 1.8.2 2.3.7.5.5.8 1.3.8 2.4v5.6h-1.3Zm9.5-2.3c0 .8-.3 1.4-1 1.8-.5.4-1.3.7-2.4.7-1.1 0-2-.2-2.7-.6v-1.2a6.5 6.5 0 0 0 2.7.7c.7 0 1.2-.1 1.6-.3.4-.3.5-.6.5-1a1 1 0 0 0-.4-.9l-1.7-.8-1.7-.8c-.3-.2-.6-.5-.7-.8a2 2 0 0 1-.3-1c0-.7.3-1.2.9-1.6a4 4 0 0 1 2.3-.6c1 0 1.8.2 2.7.5l-.5 1.1a5 5 0 0 0-2.3-.5c-.6 0-1 0-1.4.3-.3.1-.5.4-.5.8l.2.5c.1.2.3.4.6.5l1.5.6a5 5 0 0 1 2 1.2c.4.3.6.8.6 1.4Zm5.7 2.5a4 4 0 0 1-3-1.2c-.7-.8-1-1.8-1-3.2a5 5 0 0 1 1-3.3c.6-.8 1.5-1.2 2.7-1.2 1 0 1.9.3 2.5 1a4 4 0 0 1 1 2.8v.9h-6c0 1 .3 1.7.8 2.2.5.6 1.2.8 2 .8 1 0 1.9-.2 2.8-.6v1.2a6.7 6.7 0 0 1-2.8.6Zm-.3-7.8c-.7 0-1.3.2-1.7.6-.4.5-.6 1.1-.7 1.9h4.5c0-.8-.2-1.4-.6-1.9a2 2 0 0 0-1.5-.6Z"/>
    <path fill="#CA0216" d="M252.7 144h-36v15h36v-15Z"/>
    <path fill="#333" d="M266.5 156a4.6 4.6 0 0 0 1.1 0v1h-.6l-.7.2c-1.7 0-2.5-1-2.5-2.7v-5h-1.2v-.7l1.2-.5.6-1.8h.7v2h2.5v1H265v5c0 .5.1.9.4 1.2.2.2.6.4 1 .4Zm6.8-7.7h1l-.2 1.3-1-.1c-.6 0-1.2.2-1.7.8a3 3 0 0 0-.7 2.1v4.6h-1.3v-8.6h1l.2 1.6 1.2-1.3c.4-.3 1-.4 1.5-.4Zm6.2 8.9a4 4 0 0 1-3-1.2c-.7-.8-1-1.8-1-3.2a5 5 0 0 1 1-3.3c.6-.8 1.5-1.2 2.7-1.2 1 0 1.9.3 2.5 1a4 4 0 0 1 1 2.8v.9h-6c0 1 .3 1.7.8 2.2.5.6 1.2.8 2 .8 1 0 1.9-.2 2.8-.6v1.2a6.7 6.7 0 0 1-2.8.6Zm-.3-7.8c-.7 0-1.3.2-1.7.6-.4.5-.6 1.1-.7 1.9h4.5c0-.8-.2-1.4-.6-1.9a2 2 0 0 0-1.5-.6Zm.9-2h-.9a11.6 11.6 0 0 1-2.2-2.5v-.2h1.6a11.5 11.5 0 0 0 1.5 2.4v.2Zm10.3 7.3a2 2 0 0 1-.9 1.8c-.6.4-1.4.7-2.5.7s-2-.2-2.6-.6v-1.2a6.5 6.5 0 0 0 2.6.7c.7 0 1.2-.1 1.6-.3.4-.3.6-.6.6-1a1 1 0 0 0-.5-.9c-.3-.2-.8-.5-1.7-.8l-1.7-.8c-.3-.2-.6-.5-.7-.8a2 2 0 0 1-.3-1c0-.7.3-1.2.9-1.6a4 4 0 0 1 2.3-.6c1 0 1.8.2 2.7.5l-.4 1.1c-.9-.4-1.7-.5-2.4-.5-.6 0-1 0-1.4.3-.3.1-.4.4-.4.8l.1.5.6.5 1.5.6a5 5 0 0 1 2 1.2c.4.3.6.8.6 1.4Zm12.1 1.2c-.7.8-1.6 1.3-2.7 1.3-1.2 0-2-.4-2.7-1.2a5 5 0 0 1-.9-3.3c0-1.4.3-2.5 1-3.2.6-.8 1.4-1.2 2.6-1.2a3 3 0 0 1 2.6 1.2h.1v-4.7h1.2V157h-1l-.2-1.1Zm-2.6.2a3 3 0 0 0 2-.7c.3-.5.5-1.3.5-2.4v-.3c0-1.2-.2-2-.6-2.6-.4-.5-1-.7-1.9-.7a2 2 0 0 0-1.8.9c-.4.5-.6 1.4-.6 2.5 0 1 .2 1.9.6 2.4.5.6 1 .9 1.8.9Zm10.2 1a4 4 0 0 1-3-1.1c-.7-.8-1-1.8-1-3.2a5 5 0 0 1 1-3.3c.6-.8 1.5-1.2 2.7-1.2 1 0 1.9.3 2.5 1a4 4 0 0 1 1 2.8v.9h-6c0 1 .3 1.7.8 2.2.5.6 1.2.8 2 .8 1 0 1.9-.2 2.8-.6v1.2a6.7 6.7 0 0 1-2.8.6Zm-.3-7.7c-.7 0-1.3.2-1.7.6-.4.5-.6 1.1-.7 1.9h4.5c0-.8-.2-1.4-.6-1.9a2 2 0 0 0-1.5-.6Zm11.5 7.6v-5.5c0-.7-.1-1.3-.4-1.6-.4-.3-.9-.5-1.5-.5-1 0-1.6.2-2 .7-.4.5-.6 1.3-.6 2.4v4.5h-1.3v-8.6h1l.2 1.2h.1c.3-.4.6-.7 1.1-1 .5-.2 1-.3 1.6-.3 1 0 1.8.2 2.4.7.5.5.7 1.3.7 2.4v5.6h-1.3Zm9.5-2.3a2 2 0 0 1-.9 1.8c-.6.4-1.4.7-2.5.7s-2-.2-2.6-.6v-1.2a6.5 6.5 0 0 0 2.7.7 3 3 0 0 0 1.5-.3c.4-.3.6-.6.6-1a1 1 0 0 0-.5-.9l-1.6-.8-1.7-.8c-.4-.2-.6-.5-.8-.8a2 2 0 0 1-.2-1c0-.7.2-1.2.8-1.6a4 4 0 0 1 2.3-.6c1 0 1.9.2 2.8.5l-.5 1.1c-.9-.4-1.6-.5-2.3-.5-.7 0-1.1 0-1.4.3-.4.1-.5.4-.5.8 0 .2 0 .4.2.5 0 .2.3.4.5.5l1.5.6a5 5 0 0 1 2 1.2c.4.3.6.8.6 1.4Zm5.8 2.5a4 4 0 0 1-3-1.2c-.8-.8-1.1-1.8-1.1-3.2a5 5 0 0 1 1-3.3c.7-.8 1.6-1.2 2.7-1.2s2 .3 2.6 1a4 4 0 0 1 1 2.8v.9h-6c0 1 .3 1.7.8 2.2.5.6 1.1.8 2 .8 1 0 1.8-.2 2.7-.6v1.2a6.7 6.7 0 0 1-2.7.6Zm-.4-7.8c-.7 0-1.2.2-1.6.6-.4.5-.7 1.1-.8 1.9h4.5c0-.8-.2-1.4-.5-1.9a2 2 0 0 0-1.6-.6Z"/>
    <mask id="d" width="11" height="15" x="49" y="67" maskUnits="userSpaceOnUse" style="mask-type:alpha">
      <rect width="10" height="15" x="49.9" y="67" fill="#009C97" rx="5"/>
    </mask>
    <g mask="url(#d)">
      <rect width="10" height="15" x="49.9" y="67" fill="#009C97" rx="5"/>
      <circle cx="50.5" cy="66.7" r=".6" fill="#371F1F"/>
      <circle cx="50.5" cy="71.2" r=".6" fill="#371F1F"/>
      <circle cx="50.5" cy="75.6" r=".6" fill="#371F1F"/>
      <circle cx="50.5" cy="80.1" r=".6" fill="#371F1F"/>
      <circle cx="50.5" cy="82.3" r=".6" fill="#371F1F"/>
      <circle cx="52.7" cy="68.9" r=".6" fill="#371F1F"/>
      <circle cx="52.7" cy="73.4" r=".6" fill="#371F1F"/>
      <circle cx="52.7" cy="77.8" r=".6" fill="#371F1F"/>
      <circle cx="52.7" cy="82.3" r=".6" fill="#371F1F"/>
      <circle cx="54.9" cy="66.7" r=".6" fill="#371F1F"/>
      <circle cx="54.9" cy="71.2" r=".6" fill="#371F1F"/>
      <circle cx="54.9" cy="75.6" r=".6" fill="#371F1F"/>
      <circle cx="54.9" cy="80.1" r=".6" fill="#371F1F"/>
      <circle cx="57.1" cy="68.9" r=".6" fill="#371F1F"/>
      <circle cx="57.1" cy="73.4" r=".6" fill="#371F1F"/>
      <circle cx="57.1" cy="77.8" r=".6" fill="#371F1F"/>
      <circle cx="57.1" cy="82.3" r=".6" fill="#371F1F"/>
      <circle cx="59.4" cy="66.7" r=".6" fill="#371F1F"/>
      <circle cx="59.4" cy="71.2" r=".6" fill="#371F1F"/>
      <circle cx="59.4" cy="75.6" r=".6" fill="#371F1F"/>
      <circle cx="59.4" cy="80.1" r=".6" fill="#371F1F"/>
      <circle cx="59.4" cy="82.3" r=".6" fill="#371F1F"/>
    </g>
    <mask id="e" width="11" height="15" x="168" y="67" maskUnits="userSpaceOnUse" style="mask-type:alpha">
      <rect width="10" height="15" x="168.2" y="67" fill="#009C97" rx="5"/>
    </mask>
    <g mask="url(#e)">
      <rect width="10" height="15" x="168.2" y="67" fill="#009C97" rx="5"/>
      <circle cx="168.8" cy="66.7" r=".6" fill="#371F1F"/>
      <circle cx="168.8" cy="71.2" r=".6" fill="#371F1F"/>
      <circle cx="168.8" cy="75.6" r=".6" fill="#371F1F"/>
      <circle cx="168.8" cy="80.1" r=".6" fill="#371F1F"/>
      <circle cx="168.8" cy="82.3" r=".6" fill="#371F1F"/>
      <circle cx="171" cy="66.7" r=".6" fill="#371F1F"/>
      <circle cx="171" cy="68.9" r=".6" fill="#371F1F"/>
      <circle cx="171" cy="73.4" r=".6" fill="#371F1F"/>
      <circle cx="171" cy="77.8" r=".6" fill="#371F1F"/>
      <circle cx="171" cy="82.3" r=".6" fill="#371F1F"/>
      <circle cx="173.2" cy="66.7" r=".6" fill="#371F1F"/>
      <circle cx="173.2" cy="71.2" r=".6" fill="#371F1F"/>
      <circle cx="173.2" cy="75.6" r=".6" fill="#371F1F"/>
      <circle cx="173.2" cy="80.1" r=".6" fill="#371F1F"/>
      <circle cx="175.4" cy="66.7" r=".6" fill="#371F1F"/>
      <circle cx="175.4" cy="68.9" r=".6" fill="#371F1F"/>
      <circle cx="175.4" cy="73.4" r=".6" fill="#371F1F"/>
      <circle cx="175.4" cy="77.8" r=".6" fill="#371F1F"/>
      <circle cx="175.4" cy="82.3" r=".6" fill="#371F1F"/>
      <circle cx="177.6" cy="66.7" r=".6" fill="#371F1F"/>
      <circle cx="177.6" cy="71.2" r=".6" fill="#371F1F"/>
      <circle cx="177.6" cy="75.6" r=".6" fill="#371F1F"/>
      <circle cx="177.6" cy="80.1" r=".6" fill="#371F1F"/>
      <circle cx="177.6" cy="82.3" r=".6" fill="#371F1F"/>
    </g>
    <mask id="f" width="11" height="15" x="314" y="67" maskUnits="userSpaceOnUse" style="mask-type:alpha">
      <rect width="10" height="15" x="314.5" y="67" fill="#009C97" rx="5"/>
    </mask>
    <g mask="url(#f)">
      <rect width="10" height="15" x="314.5" y="67" fill="#009C97" rx="5"/>
      <circle cx="315.1" cy="66.7" r=".6" fill="#371F1F"/>
      <circle cx="315.1" cy="71.2" r=".6" fill="#371F1F"/>
      <circle cx="315.1" cy="75.6" r=".6" fill="#371F1F"/>
      <circle cx="315.1" cy="80.1" r=".6" fill="#371F1F"/>
      <circle cx="315.1" cy="82.3" r=".6" fill="#371F1F"/>
      <circle cx="317.3" cy="66.7" r=".6" fill="#371F1F"/>
      <circle cx="317.3" cy="68.9" r=".6" fill="#371F1F"/>
      <circle cx="317.3" cy="73.4" r=".6" fill="#371F1F"/>
      <circle cx="317.3" cy="77.8" r=".6" fill="#371F1F"/>
      <circle cx="317.3" cy="82.3" r=".6" fill="#371F1F"/>
      <circle cx="319.5" cy="66.7" r=".6" fill="#371F1F"/>
      <circle cx="319.5" cy="71.2" r=".6" fill="#371F1F"/>
      <circle cx="319.5" cy="75.6" r=".6" fill="#371F1F"/>
      <circle cx="319.5" cy="80.1" r=".6" fill="#371F1F"/>
      <circle cx="321.7" cy="66.7" r=".6" fill="#371F1F"/>
      <circle cx="321.7" cy="68.9" r=".6" fill="#371F1F"/>
      <circle cx="321.7" cy="73.4" r=".6" fill="#371F1F"/>
      <circle cx="321.7" cy="77.8" r=".6" fill="#371F1F"/>
      <circle cx="321.7" cy="82.3" r=".6" fill="#371F1F"/>
      <circle cx="323.9" cy="66.7" r=".6" fill="#371F1F"/>
      <circle cx="323.9" cy="71.2" r=".6" fill="#371F1F"/>
      <circle cx="323.9" cy="75.6" r=".6" fill="#371F1F"/>
      <circle cx="323.9" cy="80.1" r=".6" fill="#371F1F"/>
      <circle cx="323.9" cy="82.3" r=".6" fill="#371F1F"/>
    </g>
    <mask id="g" width="11" height="15" x="18" y="67" maskUnits="userSpaceOnUse" style="mask-type:alpha">
      <rect width="10" height="15" x="18.9" y="67" fill="#009C97" rx="5"/>
    </mask>
    <g mask="url(#g)">
      <rect width="10" height="15" x="18.9" y="67" fill="#009C97" rx="5"/>
      <circle cx="19.5" cy="66.7" r=".6" fill="#371F1F"/>
      <circle cx="19.5" cy="71.2" r=".6" fill="#371F1F"/>
      <circle cx="19.5" cy="75.6" r=".6" fill="#371F1F"/>
      <circle cx="19.5" cy="80.1" r=".6" fill="#371F1F"/>
      <circle cx="19.5" cy="82.3" r=".6" fill="#371F1F"/>
      <circle cx="21.7" cy="68.9" r=".6" fill="#371F1F"/>
      <circle cx="21.7" cy="73.4" r=".6" fill="#371F1F"/>
      <circle cx="21.7" cy="77.8" r=".6" fill="#371F1F"/>
      <circle cx="21.7" cy="82.3" r=".6" fill="#371F1F"/>
      <circle cx="23.9" cy="66.7" r=".6" fill="#371F1F"/>
      <circle cx="23.9" cy="71.2" r=".6" fill="#371F1F"/>
      <circle cx="23.9" cy="75.6" r=".6" fill="#371F1F"/>
      <circle cx="23.9" cy="80.1" r=".6" fill="#371F1F"/>
      <circle cx="26.1" cy="68.9" r=".6" fill="#371F1F"/>
      <circle cx="26.1" cy="73.4" r=".6" fill="#371F1F"/>
      <circle cx="26.1" cy="77.8" r=".6" fill="#371F1F"/>
      <circle cx="26.1" cy="82.3" r=".6" fill="#371F1F"/>
      <circle cx="28.4" cy="66.7" r=".6" fill="#371F1F"/>
      <circle cx="28.4" cy="71.2" r=".6" fill="#371F1F"/>
      <circle cx="28.4" cy="75.6" r=".6" fill="#371F1F"/>
      <circle cx="28.4" cy="80.1" r=".6" fill="#371F1F"/>
      <circle cx="28.4" cy="82.3" r=".6" fill="#371F1F"/>
    </g>
    <mask id="h" width="11" height="15" x="137" y="67" maskUnits="userSpaceOnUse" style="mask-type:alpha">
      <rect width="10" height="15" x="137.4" y="67" fill="#009C97" rx="5"/>
    </mask>
    <g mask="url(#h)">
      <rect width="10" height="15" x="137.4" y="67" fill="#009C97" rx="5"/>
      <circle cx="137.9" cy="66.7" r=".6" fill="#371F1F"/>
      <circle cx="137.9" cy="71.2" r=".6" fill="#371F1F"/>
      <circle cx="137.9" cy="75.6" r=".6" fill="#371F1F"/>
      <circle cx="137.9" cy="80.1" r=".6" fill="#371F1F"/>
      <circle cx="137.9" cy="82.3" r=".6" fill="#371F1F"/>
      <circle cx="140.1" cy="66.7" r=".6" fill="#371F1F"/>
      <circle cx="140.1" cy="68.9" r=".6" fill="#371F1F"/>
      <circle cx="140.1" cy="73.4" r=".6" fill="#371F1F"/>
      <circle cx="140.1" cy="77.8" r=".6" fill="#371F1F"/>
      <circle cx="140.1" cy="82.3" r=".6" fill="#371F1F"/>
      <circle cx="142.4" cy="66.7" r=".6" fill="#371F1F"/>
      <circle cx="142.4" cy="71.2" r=".6" fill="#371F1F"/>
      <circle cx="142.4" cy="75.6" r=".6" fill="#371F1F"/>
      <circle cx="142.4" cy="80.1" r=".6" fill="#371F1F"/>
      <circle cx="144.6" cy="66.7" r=".6" fill="#371F1F"/>
      <circle cx="144.6" cy="68.9" r=".6" fill="#371F1F"/>
      <circle cx="144.6" cy="73.4" r=".6" fill="#371F1F"/>
      <circle cx="144.6" cy="77.8" r=".6" fill="#371F1F"/>
      <circle cx="144.6" cy="82.3" r=".6" fill="#371F1F"/>
      <circle cx="146.8" cy="66.7" r=".6" fill="#371F1F"/>
      <circle cx="146.8" cy="71.2" r=".6" fill="#371F1F"/>
      <circle cx="146.8" cy="75.6" r=".6" fill="#371F1F"/>
      <circle cx="146.8" cy="80.1" r=".6" fill="#371F1F"/>
      <circle cx="146.8" cy="82.3" r=".6" fill="#371F1F"/>
    </g>
    <mask id="i" width="11" height="15" x="286" y="67" maskUnits="userSpaceOnUse" style="mask-type:alpha">
      <rect width="10" height="15" x="286.6" y="67" fill="#009C97" rx="5"/>
    </mask>
    <g mask="url(#i)">
      <rect width="10" height="15" x="286.6" y="67" fill="#009C97" rx="5"/>
      <circle cx="287.2" cy="66.7" r=".6" fill="#371F1F"/>
      <circle cx="287.2" cy="71.2" r=".6" fill="#371F1F"/>
      <circle cx="287.2" cy="75.6" r=".6" fill="#371F1F"/>
      <circle cx="287.2" cy="80.1" r=".6" fill="#371F1F"/>
      <circle cx="287.2" cy="82.3" r=".6" fill="#371F1F"/>
      <circle cx="289.4" cy="66.7" r=".6" fill="#371F1F"/>
      <circle cx="289.4" cy="68.9" r=".6" fill="#371F1F"/>
      <circle cx="289.4" cy="73.4" r=".6" fill="#371F1F"/>
      <circle cx="289.4" cy="77.8" r=".6" fill="#371F1F"/>
      <circle cx="289.4" cy="82.3" r=".6" fill="#371F1F"/>
      <circle cx="291.6" cy="66.7" r=".6" fill="#371F1F"/>
      <circle cx="291.6" cy="71.2" r=".6" fill="#371F1F"/>
      <circle cx="291.6" cy="75.6" r=".6" fill="#371F1F"/>
      <circle cx="291.6" cy="80.1" r=".6" fill="#371F1F"/>
      <circle cx="293.9" cy="66.7" r=".6" fill="#371F1F"/>
      <circle cx="293.9" cy="68.9" r=".6" fill="#371F1F"/>
      <circle cx="293.9" cy="73.4" r=".6" fill="#371F1F"/>
      <circle cx="293.9" cy="77.8" r=".6" fill="#371F1F"/>
      <circle cx="293.9" cy="82.3" r=".6" fill="#371F1F"/>
      <circle cx="296.1" cy="66.7" r=".6" fill="#371F1F"/>
      <circle cx="296.1" cy="71.2" r=".6" fill="#371F1F"/>
      <circle cx="296.1" cy="75.6" r=".6" fill="#371F1F"/>
      <circle cx="296.1" cy="80.1" r=".6" fill="#371F1F"/>
      <circle cx="296.1" cy="82.3" r=".6" fill="#371F1F"/>
    </g>
    <mask id="j" width="11" height="15" x="256" y="67" maskUnits="userSpaceOnUse" style="mask-type:alpha">
      <rect width="10" height="15" x="256.6" y="67" fill="#009C97" rx="5"/>
    </mask>
    <g mask="url(#j)">
      <rect width="10" height="15" x="256.6" y="67" fill="#009C97" rx="5"/>
      <circle cx="257.2" cy="66.7" r=".6" fill="#371F1F"/>
      <circle cx="257.2" cy="71.2" r=".6" fill="#371F1F"/>
      <circle cx="257.2" cy="75.6" r=".6" fill="#371F1F"/>
      <circle cx="257.2" cy="80.1" r=".6" fill="#371F1F"/>
      <circle cx="257.2" cy="82.3" r=".6" fill="#371F1F"/>
      <circle cx="259.4" cy="66.7" r=".6" fill="#371F1F"/>
      <circle cx="259.4" cy="68.9" r=".6" fill="#371F1F"/>
      <circle cx="259.4" cy="73.4" r=".6" fill="#371F1F"/>
      <circle cx="259.4" cy="77.8" r=".6" fill="#371F1F"/>
      <circle cx="259.4" cy="82.3" r=".6" fill="#371F1F"/>
      <circle cx="261.6" cy="66.7" r=".6" fill="#371F1F"/>
      <circle cx="261.6" cy="71.2" r=".6" fill="#371F1F"/>
      <circle cx="261.6" cy="75.6" r=".6" fill="#371F1F"/>
      <circle cx="261.6" cy="80.1" r=".6" fill="#371F1F"/>
      <circle cx="263.9" cy="66.7" r=".6" fill="#371F1F"/>
      <circle cx="263.9" cy="68.9" r=".6" fill="#371F1F"/>
      <circle cx="263.9" cy="73.4" r=".6" fill="#371F1F"/>
      <circle cx="263.9" cy="77.8" r=".6" fill="#371F1F"/>
      <circle cx="263.9" cy="82.3" r=".6" fill="#371F1F"/>
      <circle cx="266.1" cy="66.7" r=".6" fill="#371F1F"/>
      <circle cx="266.1" cy="71.2" r=".6" fill="#371F1F"/>
      <circle cx="266.1" cy="75.6" r=".6" fill="#371F1F"/>
      <circle cx="266.1" cy="80.1" r=".6" fill="#371F1F"/>
      <circle cx="266.1" cy="82.3" r=".6" fill="#371F1F"/>
    </g>
    <mask id="k" width="10" height="29" x="108" y="53" maskUnits="userSpaceOnUse" style="mask-type:alpha">
      <rect width="10" height="28.5" x="108" y="53.5" fill="#703399" rx="5"/>
    </mask>
    <g mask="url(#k)">
      <rect width="10" height="28.5" x="108" y="53.5" fill="#703399" rx="5"/>
      <path stroke="#fff" stroke-width=".5" d="M109.3 50.6v37.1m2-37.1v37.1m2-37.1v37.1m2-37.1v37.1m2-37.1v37.1"/>
    </g>
    <mask id="l" width="10" height="29" x="80" y="53" maskUnits="userSpaceOnUse" style="mask-type:alpha">
      <rect width="10" height="28.5" x="80" y="53.5" fill="#703399" rx="5"/>
    </mask>
    <g mask="url(#l)">
      <rect width="10" height="28.5" x="80" y="53.5" fill="#703399" rx="5"/>
      <path stroke="#fff" stroke-width=".5" d="M81.3 50.6v37.1m2-37.1v37.1m2-37.1v37.1m2-37.1v37.1m2-37.1v37.1"/>
    </g>
    <mask id="m" width="10" height="29" x="199" y="53" maskUnits="userSpaceOnUse" style="mask-type:alpha">
      <rect width="10" height="28.5" x="199" y="53.5" fill="#703399" rx="5"/>
    </mask>
    <g mask="url(#m)">
      <rect width="10" height="28.5" x="199" y="53.5" fill="#703399" rx="5"/>
      <path stroke="#fff" stroke-width=".5" d="M200.3 50.6v37.1m2-37.1v37.1m2-37.1v37.1m2-37.1v37.1m2-37.1v37.1"/>
    </g>
    <mask id="n" width="10" height="29" x="227" y="53" maskUnits="userSpaceOnUse" style="mask-type:alpha">
      <rect width="10" height="28.5" x="227" y="53.5" fill="#703399" rx="5"/>
    </mask>
    <g mask="url(#n)">
      <rect width="10" height="28.5" x="227" y="53.5" fill="#703399" rx="5"/>
      <path stroke="#fff" stroke-width=".5" d="M228.3 50.6v37.1m2-37.1v37.1m2-37.1v37.1m2-37.1v37.1m2-37.1v37.1"/>
    </g>
  </g>
  <defs>
    <clipPath id="a">
      <path fill="#fff" d="M0 0h341.3v182H0z"/>
    </clipPath>
  </defs>
</svg>
