<svg xmlns="http://www.w3.org/2000/svg" width="50" height="50" fill="none">
  <path fill="#F8EEE5" d="M49.3 37.7H.9S-.3 30 2 25.5c2.6-5.2 5.6-3.1 6.7-5.2 1.6-2.8 1.1-14 11-13.3 5.7.5 8 9.3 9.8 9.3 2.3 0 5.6-3.8 11.5-1.5 10.2 4 8.4 23 8.4 23Z"/>
  <path fill="#FFCA99" d="m14.2 20.2-.1-.4-.2-.3c-.4-.3-1-.1-1.2.3V19a1 1 0 0 0-.2-.5.7.7 0 0 0-.6-.2l-.6.3-.3.2v.2l-.1.2V19c0-.3 0-.7-.2-1 0-.3-.3-.7-.6-.8a1 1 0 0 0-1 .2 2 2 0 0 0-.6 1.1V20h-.3c-.1-.1-.2-.1-.4 0-.1 0-.3.3-.3.5l-.4-.4a.8.8 0 0 0-.4-.3c-.2 0-.3 0-.5.2s-.3.6-.1 1H14l.2-.9ZM44.5 26c.1-.4 0-.9-.3-1a.6.6 0 0 0-.9.2c.1-.3.2-.8-.1-1-.3-.1-.7 0-1 .3v.1c.3-.5.4-1 .4-1.6 0-.5 0-1-.4-1.4-.5-.3-1-.4-1.5-.1-.5.2-1 .6-1.2 1.1a3 3 0 0 0-.4 1.6c0-.3-.2-.6-.3-.8 0-.2-.2-.4-.4-.5a1 1 0 0 0-.7 0c-.4 0-.9.3-1 .7v.1c0-.6 0-1-.3-1.5a2 2 0 0 0-.9-.9c-.4-.2-1 0-1.4.2-.4.2-.7.7-.8 1.2-.1.7.2 1.2.4 1.8 0 0 0 .1 0 0-.4-.1-.7-.2-1 0-.3.1-.4.4-.3.7 0 0 0 .1 0 0a1 1 0 0 0-.6-.4c-.3-.1-.7 0-1 .3a1 1 0 0 0-.2 1h13.9ZM32 17.2c.2-.2.3-.4.2-.7 0-.2-.1-.4-.3-.4-.3-.1-.8 0-.8.3H31V16c0-.1 0-.3-.2-.4h-.4c-.2 0-.5.2-.6.5 0 .1-.1.1 0 0v-.7c0-.2 0-.4-.2-.6a.8.8 0 0 0-.6-.3c-.3 0-.6.1-.8.3l-.3.2-.2.2v.2-.2c0-.3 0-.6-.2-.9-.1-.3-.4-.6-.7-.6-.3-.1-.6 0-.8.3-.3.2-.4.6-.5 1v1h-.1l-.3-.7c-.2-.2-.4-.4-.6-.4a1 1 0 0 0-.7.3c-.3.4-.3 1 0 1.4h-.1l-.4-.2c-.2 0-.5 0-.6.2v.7H32Z"/>
  <path fill="#900" d="M35.2 28.6v3l-.1 1.3v.1l-.2 1.3v.2a76.5 76.5 0 0 1-.1 1.6l-.2 1.6h-1.2l.2-1.7v-.2A108 108 0 0 0 34 33v-.2a101.3 101.3 0 0 0 .3-2.6v-7.6l-.2-.9v-.1a22.7 22.7 0 0 0-.3-1.7c-.4-1.8-.9-2.3-1-2.4.4.4.4-.3.8.5l.8 1.8.2.7v.2a18 18 0 0 1 .5 3l.1 1v1.5l.1 1v1.4Z"/>
  <path fill="#900" d="M34.3 19.9a1 1 0 0 1-.5.2v-.2l.5-.1Zm.2.8a.9.9 0 0 1-.6.1v-.1l.6-.2v.2Zm.2.9a.9.9 0 0 1-.7.1v-.1l.7-.1Zm.2 1-.6.1h-.2v-.1l.8-.1v.1Zm.1 1.1-.6.2h-.2v-.2l.8-.1v.1Zm.1 1.2a1 1 0 0 1-.4 0h-.4l.8-.1Zm.1 1.3a1 1 0 0 1-.5 0h-.4v-.1h.9Zm0 1.2a1 1 0 0 1-.5.1h-.4v-.1s.6.1 1-.1v.1Zm0 1.2v.1a1 1 0 0 1-.5.1 2 2 0 0 1-.5 0v-.2c.1 0 .7.2 1 0Zm0 1.4v.2a1 1 0 0 1-.5 0 2 2 0 0 1-.6 0V30c.2 0 .8.3 1.1 0Zm-.1 1.4v.2a1 1 0 0 1-.4 0h-.6v-.2c.1 0 .7.2 1 0Zm-.1 1.5v.1a1 1 0 0 1-.4.1L34 33v-.2c.2 0 .8.3 1.2 0Zm0 1.4v.2h-.4c-.3 0-.7 0-.8-.2.2 0 .8.2 1.1 0Zm-.2 1.7a1 1 0 0 1-.4.1l-.8-.1v-.2c.2.1.8.3 1.2.1Z" opacity=".5" style="mix-blend-mode:multiply"/>
  <path fill="#3D9773" d="m30 18.1-.4.7h.4l.4-.1.2-.3v.2h.5l.8-.3-.2.2H33l.5.1c0-.2-.3-.5-.5-.7a4.5 4.5 0 0 0-2.5-1.3l.8.6-1.2-.6a4 4 0 0 0-.6 0l.3.3h-.1l-.5-.2-.4.1-.4.1 1 .4-1.3-.1-.5.3.3.2h-.5l-.2.2-.1.2h.8l-1 .3a3.3 3.3 0 0 0-.4 1l1.5-.2.3-.7-.1.7.3-.1h.3l.2-.6-.1.5.5-.1.3-.6.3-.2Z"/>
  <path fill="#62AB8D" d="m33.3 14.8-.4-1-.1.7-.2.6.2.4-.2-.1v.8l.4.9-.2-.1.5 1.3.3.5a38.1 38.1 0 0 1 .8-2.5l.2-.6a6 6 0 0 0-.6.5l.6-.8.2-.4a5 5 0 0 0-.4 0l.4-.2.1-.3.2-.2c-.3 0-.6.1-.8.3.2-.3.5-.5.8-.6l.2-.4H35v-.1h.3l.1-.2.1-.2h-.7l.9-.2.4-.7.2-.2-.9-.1c-.3 0-.6 0-.9.2l-.3.9v-.8l-.3.3a4 4 0 0 0-.3.3v.8l-.1-.6-.5.6.2.8v.4h.1Z"/>
  <path fill="#62AB8D" d="m36.2 12-.9.5c-.3.1-.5.3-.7.6a4 4 0 0 0-1 1.7c-.1.7-.2 1.3-.1 2a11 11 0 0 0 0 1 11 11 0 0 1 0-2 6.3 6.3 0 0 1 .5-2 3.7 3.7 0 0 1 1.3-1.4 3.1 3.1 0 0 1 .9-.3Z"/>
  <path fill="#258A62" d="m35 15 .3-.9-.5.5a5 5 0 0 0-.4.5v.4l-.1-.2a5 5 0 0 0-.4.8l-.1 1-.1-.3c-.1.6-.2 1.2-.1 1.5v.6a14.5 14.5 0 0 1 2-2.7l-.8.3 1-.5.3-.3h-.3v-.1h.4l.2-.3.3-.1h-.8l1-.3.4-.2-.2-.2h.5l.2-.2-.7-.1h1l.7-.3.2-.1a3 3 0 0 0-1.6-.5l-.6.6.3-.6-.4.1-.4.1-.3.6h-.1l.2-.5-.6.4a5 5 0 0 0-.3.7l-.2.4Z"/>
  <path fill="#62AB8D" d="M39 13.8a5 5 0 0 0-2 .3 4.9 4.9 0 0 0-1.7 1 4.7 4.7 0 0 0-1.1 1.7 7 7 0 0 0-.6 2 8.2 8.2 0 0 1 .5-2A4.6 4.6 0 0 1 37 14a5 5 0 0 1 2-.2Zm-12.5 5.6 1.5-1.2 1.8-.6a4.5 4.5 0 0 1 2.9.5l.8.5a6.8 6.8 0 0 0-1.7-.8 4.8 4.8 0 0 0-3.8.5 6.6 6.6 0 0 0-1.5 1.1Z"/>
  <path fill="#3D9773" d="M36.6 17c.3 0 .5.3.7.5h-.8l-.4-.1.1.2a6 6 0 0 0-.5.1 3 3 0 0 0-.8.1l.2.1-1.1.7-.4.3.1-1a3.8 3.8 0 0 1 2-2.3 2 2 0 0 0-.6 1c.2-.4.6-.8 1-1l.6-.2-.2.3h.1l.4-.4a8.2 8.2 0 0 1 .8 0l-.8.6 1.3-.5.6.2-.3.3h.1l.4-.2.2.1.3.2c-.3 0-.6.2-.8.3l1-.1a3.5 3.5 0 0 1 .8.8 21.8 21.8 0 0 1-1.5.3l-.6-.5.3.5h-.6c-.2 0-.3-.2-.5-.4 0 .2.2.3.3.5h-.5L37 17h-.4Z"/>
  <path fill="#62AB8D" d="M40.6 17a7.7 7.7 0 0 0-4-.6 4.1 4.1 0 0 0-1.8.8l-.7.8-.5.8.5-.9.7-.7a3.7 3.7 0 0 1 1.8-.9 5.1 5.1 0 0 1 2.1 0l2 .7Z"/>
  <path fill="#62AB8D" d="M31 20.4v.8l.3-.3.2-.3v-.3l.1.2.4-.4c0-.2.2-.4.4-.6v.2l1-.7.4-.2a3.6 3.6 0 0 0-3.4 0l.9.1-1.2.3-.5.4h.4v.1l-.5.1-.3.3-.2.4 1-.4-1 .7-.2.6h.3l-.3.2v.6l.6-.5-.6.7.2.8.1.3 1-1.1a6 6 0 0 1-.1-.7c0 .2.2.4.3.5l.1-.2.2-.2a5 5 0 0 1-.2-.6l.3.5.3-.4-.2-.6.1-.3Z"/>
  <path fill="#62AB8D" d="M29.1 23.5a6.6 6.6 0 0 1 .7-2.7l.5-.8a3.5 3.5 0 0 1 2.4-1.2h1a5.3 5.3 0 0 0-1.8.2 3.5 3.5 0 0 0-1.5 1l-.5.8a5.8 5.8 0 0 0-.6 1.7l-.2 1Z"/>
  <path fill="#62AB8D" d="m36.8 19.3.2.8-.3-.1-.3-.1-.2-.3v.2l-.6-.2-.6-.5.1.3L34 19l-.5-.2a5.3 5.3 0 0 1 2.4-1h.7l-.8.4A6 6 0 0 1 37 18l.5.1-.3.3h.1l.5-.2.3.2.4.2c-.4 0-.7 0-1 .2l1.2.1.4.5h-.3v.1h.4l.2.3v.3l-.7-.2.8.5c.1.3.1.6 0 .8v.3a4 4 0 0 0-.6-.4l-.6-.3-.1-.7v.6h-.3l-.2-.2-.1-.5v.5l-.4-.2-.2-.6-.2-.2Z"/>
  <path fill="#62AB8D" d="m39.5 21.4-.4-.8A4 4 0 0 0 37 19a5 5 0 0 0-1.7-.3 8.2 8.2 0 0 0-1 0h1c.5 0 1.1 0 1.7.2a4.1 4.1 0 0 1 2.1 1.6 3.9 3.9 0 0 1 .4.9Zm-8.9-5c-.3 0-.6.2-.8.3l.4.2.4.2h.4l-.2.1.5.3.9.3h-.3l1.6 1.1a6 6 0 0 0-1.6-3.5l.3 1-.7-1.1-.5-.4v.4l-.3-.5-.4-.2a4 4 0 0 0-.4-.1l.6.8-1.1-.8h-.7l.2.3h-.1l-.3-.3-.3.1-.3.1.7.5a5 5 0 0 0-1-.4 3 3 0 0 0-1 .8l1.6.5.6-.4-.4.5h.3l.3.2.5-.3a4 4 0 0 0-.4.3l.5.2.6-.2h.4Z"/>
  <path fill="#3D9773" d="m32.5 15.1-.1-.9.4.5.3.4v.5l.1-.2c.2.2.3.5.3.7v1l.2-.3v1.5l-.1.5a10.3 10.3 0 0 0-.8-1.5l-1-1 .8.2-.9-.5-.3-.3h.3v-.1l-.4-.1-.2-.2-.2-.2.7.1-1-.4-.3-.4h.3v-.1h-.4l-.1-.2-.2-.2h.7l-.9-.2-.6-.8h.8l.8.2.4.7-.2-.6a10.5 10.5 0 0 0 .6.3l.2.6.1.1-.1-.6.5.5.2.6.1.4Z"/>
  <path fill="#62AB8D" d="M29.1 13a6 6 0 0 1 1.6.9 7.2 7.2 0 0 1 2.6 3.9 8.9 8.9 0 0 0-1.3-2.5 7.5 7.5 0 0 0-2.9-2.4Z"/>
  <path fill="#900" d="M40.6 26.6v1.5l-.1 1.3v.1l-.1 1.2v.2l-.2 1.2v.1l-.3 1.3v.1a36 36 0 0 1-.7 3v.1l-.4 1h-1a35.6 35.6 0 0 0 1.4-4.3l.2-1.3V32l.3-1.2v-.1l.2-1.3a44 44 0 0 0 .3-2.7v-.1l.1-2.5.3-.2v2.7Z"/>
  <path fill="#CC6300" d="M40.6 26.6v.2h-.4v-.2h.4Zm0 1.4v.1H40v-.2l.5.1Zm-.1 1.4v.1a1.7 1.7 0 0 1-.6 0v-.2h.6Zm-.1 1.3a43.7 43.7 0 0 1-.2.2l-.5-.1v-.1h.7Zm-.2 1.4v.1h-.9V32l.8.1Zm-.2 1.4-.1.1c-.2 0-.5 0-.7-.2h.7Zm-.4 1.5-.8-.1v-.2c.3.2.6.2.8.2Zm-.4 1.6v.1c-.3 0-.6 0-1-.2l.1-.1.9.2Z" opacity=".4" style="mix-blend-mode:multiply"/>
  <path fill="#62AB8D" d="M40.7 22v-.7a4.7 4.7 0 0 0-.4.7v.3l-.1.5.1.6h-.1l.2.9.1.3a10.7 10.7 0 0 1 .9-2c-.2 0-.3.2-.5.3l.5-.5.2-.2h-.2l.3-.2.2-.2c-.2 0-.4 0-.5.2l.6-.4s0-.2.2-.2l-.2-.1h.2l.1-.2h.1-.5l.6-.2.4-.4.1-.1h-1l-.3.5.1-.4-.2.1-.3.2v.4-.3c-.2 0-.3.2-.4.3v.8Z"/>
  <path fill="#62AB8D" d="M38.5 25.5v.6s0-.2.2-.3l.2-.2v-.2.1l.4-.2c0-.2.2-.3.3-.4v.1c.3-.1.5-.3.8-.3l.3-.1a2 2 0 0 0-1.2-.4 2.6 2.6 0 0 0-1.2.4h.6c-.3 0-.6 0-.8.2-.2 0-.2.1-.3.2h.2v.1a4 4 0 0 0-.4 0c0 .1 0 .2-.2.3l-.1.2.6-.2-.7.5-.2.3h.3l-.3.2v.3l.4-.2-.5.4a2.6 2.6 0 0 0 0 .8c.4-.2.6-.5.8-.7v-.5l.1.3.2-.1.1-.2v-.4.3l.3-.2v-.5l.1-.2Z"/>
  <path fill="#62AB8D" d="M37 27.7c0-.4.2-.9.4-1.3s.4-.8.7-1l.5-.5a2.3 2.3 0 0 1 1.3-.4l.6.1h-1.3l-1 .8-.8 1a6.3 6.3 0 0 0-.4 1.3Zm.9-3.8a3 3 0 0 0-.4.5l.3-.1h.3l.2-.2v.1h.4l.6-.1h-.1l1 .2h.3a3.3 3.3 0 0 0-2.3-1.4l.6.5-.9-.4a3 3 0 0 0-.4 0l.2.2H37l-.3.1c.3 0 .5 0 .7.2a4 4 0 0 0-1 0l-.3.3h.2-.3l-.1.2-.1.2h.5c-.2 0-.5 0-.7.2a2.6 2.6 0 0 0-.3.7l1-.4.3-.4-.1.4h.2l.2-.2.2-.3v.3l.3-.1.3-.4.2-.1Z"/>
  <path fill="#62AB8D" d="M35.3 25.1a3.7 3.7 0 0 1 2.4-1.5 3.6 3.6 0 0 1 2.1.3l.6.4a6.3 6.3 0 0 0-1.3-.5 4 4 0 0 0-1.4-.1 3.4 3.4 0 0 0-1.3.5 4 4 0 0 0-1.1.9Z"/>
  <path fill="#3D9773" d="m38.9 22.6-.6.1.3.2.3.1h.2v.1l.3.2.5.3h-.2l.6.7.2.3v-1.3a3 3 0 0 0-.8-1.2l.2.7c0-.3-.2-.6-.4-.8a3 3 0 0 0-.4-.3v.3l-.2-.4a4.7 4.7 0 0 0-.5-.2l.4.6-.7-.6a3 3 0 0 0-.4 0v.2l-.2-.2h-.4l.5.4-.7-.3a2.7 2.7 0 0 0-.7.3l1 .4.5-.1-.4.2h.2l.3.2.3-.2h.1a4 4 0 0 0-.3.2l.3.2.4-.1h.3Z"/>
  <path fill="#62AB8D" d="M36.2 21.8a4.6 4.6 0 0 1 2.7.5 3.4 3.4 0 0 1 1.4 1.6l.2.7a4.6 4.6 0 0 0-.6-1.3 3.5 3.5 0 0 0-1-1 4.2 4.2 0 0 0-2-.5h-.7Zm6.8-1.5a3.4 3.4 0 0 0-2 1.7l-.4 1.3v1.3a5.7 5.7 0 0 1 .1-2 3.9 3.9 0 0 1 .6-1.2 3.3 3.3 0 0 1 1.7-1.1Z"/>
  <path fill="#3D9773" d="m42.7 22.1.7-.4a3.5 3.5 0 0 0-1 .2c-.2 0-.2.2-.3.2l-.1.1V22l-.5.4-.4.7V23a3.4 3.4 0 0 0-.5 1v.6c.2-.4.6-.8 1-1a3.2 3.2 0 0 1 1-.5 2 2 0 0 0-.6 0c.3-.1.5-.1.8 0l.3-.1-.1-.2.3.1h.4l-.5-.3c.3 0 .6.2.8.4h.4v-.2l.1.3h.4l-.3-.4.5.5a30.5 30.5 0 0 0 .9.2c-.2-.4-.5-.8-.9-1h-.6l.4-.2-.2-.2a4 4 0 0 0-.4-.1 4 4 0 0 0-.5.1l.4-.2a3 3 0 0 0-.6 0c-.2 0-.4 0-.5.2l-.4.1Z"/>
  <path fill="#62AB8D" d="M46 23.4a7 7 0 0 0-2.3-1H43c-.2 0-.5 0-.8.2-.2 0-.4.2-.6.4l-.5.6-.4.8c0-.3.2-.5.3-.8l.5-.6.7-.5.8-.2h.9l.7.3c.6.2 1 .4 1.5.8Z"/>
  <path fill="#62AB8D" d="m43.2 23.5.6-.2a3.3 3.3 0 0 0-1-.2l-.2.2V23l-.6.2c-.2 0-.4.2-.5.4v-.2a3 3 0 0 0-1 1.1 5.3 5.3 0 0 1 1.8-.3h.4a2 2 0 0 0-.5-.3c.3 0 .5.2.7.3h.3v-.1l.1.2.2.1h.2l-.3-.4c.2.2.4.3.5.6l.3.1v-.2l.1.3h.1l.2.2-.1-.6.3.7.4.3h.2l-.3-1.1a4 4 0 0 0-.6-.2h.5l-.2-.2-.2-.2H44l.4-.1-.5-.3H43Z"/>
  <path fill="#62AB8D" d="M45.4 25.6A4.6 4.6 0 0 0 44 24a2.8 2.8 0 0 0-1.4-.4l-.7.2-.6.2-.6.4a4.6 4.6 0 0 1 1.2-.7c.5-.1 1-.2 1.4 0 .5 0 1 .3 1.3.6l1 1.2Z"/>
  <path fill="#62AB8D" d="m43.3 25.5.7.3-.3-.4-.3-.4H43v-.1h.1l-.6-.4a3 3 0 0 0-.7 0l.1-.1a2.6 2.6 0 0 0-1.1 0l-.4.2 1.2.5a2.7 2.7 0 0 1 .8.7l-.2-.6.3.7.2.3V26v.3l.2.2v.2l.1-.6v.9l.2.3.2-.2v.1l-.1.2v.2l.1.2.2-.6-.1.8a13.5 13.5 0 0 0 .3.7l.4-1.2-.3-.5.3.3v-.6l-.4-.3v-.1l.3.3-.1-.6-.5-.3-.3-.2Z"/>
  <path fill="#62AB8D" d="M44 28.7a6.3 6.3 0 0 0-.4-2.2l-.4-.7a2.6 2.6 0 0 0-1.1-1l-.7-.1a4 4 0 0 0-.8 0c.3 0 .5-.1.8 0l.7.1.7.4.5.6.3.7.2.7c.1.5.2 1 .1 1.5Z"/>
  <path fill="#900" d="M31.5 37.8h-.8l-.4-1.9v-.1l-.2-1.3v-.1a30.5 30.5 0 0 1-.2-2.2v-4.6l.2-1.6.2.2V30a35.7 35.7 0 0 0 .1 2.1v.1l.2 1v.1l.1 1.1v.1l.3 1.3.5 2Z"/>
  <path fill="#CC6300" d="M30.3 27.6a105.7 105.7 0 0 0-.1.1h-.3v-.1h.4Zm0 1.2a1 1 0 0 1-.4 0v-.1h.4v.1Zm0 1.2a1.2 1.2 0 0 1-.5 0v-.2h.5v.2Zm0 1.1a1.1 1.1 0 0 1-.5 0v-.2h.5v.2Zm.1 1.1H30v-.1h.5v.1Zm.2 1.1a1 1 0 0 1-.6 0h.6Zm.1 1.2a1.2 1.2 0 0 1-.7 0v-.1h.7v.1Zm.3 1.4a1 1 0 0 1-.7 0v-.1h.7Z" opacity=".4" style="mix-blend-mode:multiply"/>
  <path fill="#62AB8D" d="M29.6 24.4v-.6l.2.3.2.3v.3l.1-.1.1.5v.5h.1v.8l-.1.4a9.7 9.7 0 0 0-1-1.8l.4.3a3 3 0 0 0-.5-.4l-.2-.2h.2l-.3-.1v-.2h-.2.5l-.6-.2-.2-.2.2-.1h-.3v-.1l-.2-.1h.5l-.6-.1-.4-.3-.1-.1c.3-.2.7-.2 1-.1l.3.4-.1-.4a2.8 2.8 0 0 0 .4.2l.2.4v-.3l.3.3v.4l.1.3Z"/>
  <path fill="#62AB8D" d="m32.1 27.3.1.5-.2-.2-.2-.2v-.2h-.1v.1l-.3-.1a2 2 0 0 0-.4-.3 3 3 0 0 0-.7-.1H30c.3-.3.7-.5 1-.5a2.4 2.4 0 0 1 1.2.1h-.6l.8.1.3.2h-.2v.1h.4l.1.2.2.2-.6-.1c.3 0 .5.2.7.3l.2.3h-.2l.3.2v.3l-.4-.2c.2 0 .4.2.5.3v.7l-.7-.5V28l-.1.4-.1-.2h-.2v-.4.3l-.3-.3v-.3l-.2-.2Z"/>
  <path fill="#62AB8D" d="M33.8 29c-.2-.4-.3-.7-.6-1-.2-.4-.4-.7-.8-1l-.5-.3a2 2 0 0 0-1.1-.1l-.6.1h1.1c.4 0 .8.2 1.1.4.3.2.6.5.8.9a5.5 5.5 0 0 1 .6 1Zm-1.3-3.3.3.4h-.5L32 26l-.4.1h-.5.1a5.3 5.3 0 0 0-1.1.4c.1-.3.4-.7.8-1a3 3 0 0 1 1-.5l-.4.4.7-.4h.4l-.2.1h.1l.3-.1a4.2 4.2 0 0 1 .5 0l-.6.3.9-.1.3.2h-.2l.1.1h.4l.1.2H34l.6.2a2.3 2.3 0 0 1 .4.6l-1-.2a4 4 0 0 0-.3-.4l.2.4h-.2l-.2-.1a3 3 0 0 0-.2-.3l.1.3H33l-.3-.4h-.2Z"/>
  <path fill="#62AB8D" d="M35 26.5a3.4 3.4 0 0 0-2.4-1 3.3 3.3 0 0 0-1.9.5l-.5.4a5.7 5.7 0 0 1 1.1-.6 3.7 3.7 0 0 1 1.3-.3 3 3 0 0 1 1.2.3 3.6 3.6 0 0 1 1.1.7Z"/>
  <path fill="#3D9773" d="M31.4 24.7h.5l-.2.2-.3.2h-.2.1a4 4 0 0 0-.3.3l-.4.4h.2a4 4 0 0 0-.5.6l-.1.4c-.1-.4-.2-.8 0-1.3a2.8 2.8 0 0 1 .4-1.1l-.1.6c0-.3.2-.5.3-.8l.3-.2v.2c0-.2.1-.3.2-.3l.2-.2.2-.1a4 4 0 0 0-.3.5l.6-.6h.3v.1l.2-.2h.3l-.3.4.5-.4a2.4 2.4 0 0 1 .7.2l-.8.6h-.5.3l-.1.1-.2.2-.4-.1.3.1-.3.2h-.6Z"/>
  <path fill="#62AB8D" d="M33.7 23.6a4.2 4.2 0 0 0-2.4.9 3.1 3.1 0 0 0-1.1 2.2 4.3 4.3 0 0 1 .4-1.2 3.3 3.3 0 0 1 .8-1 3.8 3.8 0 0 1 1.7-.8h.6Zm-6.3-.4.6.1a3.1 3.1 0 0 1 2 2.2l.2 1.3a5.1 5.1 0 0 0-.4-1.9 3.4 3.4 0 0 0-.8-1 3 3 0 0 0-1.6-.7Z"/>
  <path fill="#3D9773" d="m27.9 24.8-.6-.3a3.1 3.1 0 0 1 1 0c0 .1 0 .2.2.2l.5.2.5.6v-.2a3 3 0 0 1 .6 1l.1.4a5 5 0 0 0-1-.8 3 3 0 0 0-1-.2l.5-.2-.7.1h-.3v-.2l-.2.2h-.2l-.2.1.4-.4-.6.4-.4.1v-.2l-.1.3h-.2l-.2.1.3-.5-.4.6a21.6 21.6 0 0 1-.8.2l.7-1 .6-.1h-.5l.2-.2c.2 0 .3-.2.3-.2h.5-.4l.6-.2.5.1.3.1Z"/>
  <path fill="#62AB8D" d="M25.1 26.3a6.3 6.3 0 0 1 2-1c.2-.2.4-.2.6-.2h.8l.6.3.6.5.4.7-.4-.7-.5-.5a2 2 0 0 0-.7-.3l-.8-.1c-.2 0-.5 0-.7.2a1 1 0 0 0-.7.3 6 6 0 0 0-1.2.8Z"/>
  <path fill="#62AB8D" d="M27.7 26H27a3 3 0 0 1 .8-.3l.2.1h.1l-.1-.1h.5l.6.3c.3 0 .6.3.8.5l.2.2a4.8 4.8 0 0 0-1.6 0h-.4l.4-.3-.6.4h-.2v-.1l-.2.2-.1.1-.1.1.1-.4-.3.5-.3.2v-.2.3h-.2l-.1.2v-.5l-.1.6-.4.3-.2.2c0-.4 0-.8.2-1.1l.4-.3-.4.1.2-.2.1-.3h.5-.4l.4-.4h.8Z"/>
  <path fill="#62AB8D" d="M26 28.3a4.1 4.1 0 0 1 1.1-1.6 2.5 2.5 0 0 1 1.2-.5h.6l.6.2c.3 0 .4.2.6.3a4 4 0 0 0-1.2-.5l-1.3.1-1 .8a4 4 0 0 0-.7 1.2Z"/>
  <path fill="#62AB8D" d="m27.8 28-.6.3.2-.4.3-.4.2-.1c0-.2.2-.3.4-.4l.6-.2a2.4 2.4 0 0 1 1-.2l.3.1-1 .6a2.5 2.5 0 0 0-.6.8v-.6l-.1.7-.1.3-.1-.2v.5l-.1.2-.2-.5.1.7v.3l-.2-.1v.6a5 5 0 0 1-.2-.5c0 .3 0 .5.2.7a11.3 11.3 0 0 1-.2.7c-.3-.3-.4-.7-.5-1l.2-.6-.3.4V29l.3-.3v-.1l-.3.3v-.5l.5-.4.2-.2Z"/>
  <path fill="#62AB8D" d="M27.7 30.9a5.7 5.7 0 0 1 0-2l.2-.7.4-.6a2.3 2.3 0 0 1 1.1-.7l.7-.1h-.7l-.6.3-.5.5-.4.5-.3.7v2.1Z"/>
  <path fill="#FFCA99" d="M25.1 38.5s3.5-2.4 9.3-2.4c5.7 0 8.3 1.9 10.5 2.5H25Z"/>
  <path fill="#D2F5F9" d="M0 38.9c0 .8 11.2 1.5 25 1.5s25-.7 25-1.5c0-1-11.2-1.6-25-1.6S0 38 0 38.9Z"/>
  <path fill="#62AB8D" d="M4.9 38.5s1.5-2.3.5-3.2c-.6-.5-.9 1.2-.9 1.2s-.3-3.2-1.4-2.5c-.5.3.6 3.3.6 3.3s-.8-1.6-1.4-1.2c-1 .7 1.4 2.3 1.4 2.3h1.2Zm-3.5-2.3s-.2-.4 0-.7c.2-.1.4-.3.7-.3-.3.1-.5.2-.6.4-.2.2 0 .5 0 .6h-.1Zm4.6-1c-.1-.2-.2-.4-.4-.4H5s.4-.2.7-.1l.3.4Z"/>
  <path fill="#D2F5F9" d="m4.3 38.4-.8-3.6.9 3.6h-.1Zm-.4 0-1.5-1.7L4 38.3h-.1Zm.6 0 .6-2.6h.1l-.6 2.7Z"/>
  <path fill="#62AB8D" d="M45.1 38.7s-2-3.5-.6-4c.8-.3 1 3 1 3s.1-3.6 1.3-3.2c.8.4-.3 3-.3 3s1.2-1 1.4-.3c.2 1-1.2 1.5-1.2 1.5h-1.6Z"/>
  <path fill="#D2F5F9" d="m45.5 38.7-1-3h.1l1 3h-.1Zm.2 0 .7-3.2-.6 3.2Zm.3 0 1.3-1c0-.1 0 0 0 0 .1 0 .1 0 0 0l-1.1 1H46Z"/>
  <path fill="#62AB8D" d="M43.7 34.5s.3-.6.9-.5c-.5 0-.9.5-.9.5Zm4.8 2.7-.1-.5c-.2-.2-.5-.2-.5-.2l.5.1c.2.2.2.4.1.6Zm-30.6 1.5H3V26.3l7.4-7.5 7.4 7.5v12.4Z"/>
  <path fill="#AAD1C2" d="M30.8 26.3h-13v12.5h13V26.3Z"/>
  <path fill="#0C528D" d="M31.6 26.4h-13L10.5 18h13.3l7.8 8.3Z"/>
  <path fill="#08375E" d="m2 27.8-.7-.7 9.2-9 8.1 8.3-.3 1-7.8-8L2 27.9Z"/>
  <path fill="#0C528D" d="M31.1 27.4H18.2l.4-1h13l-.5 1Z"/>
  <path fill="#62AB8D" d="M3.1 26.7v1.5l7.5-7.3 7.3 7.9h13v-1.4H18.2l-7.8-8L3 26.7Z" opacity=".2" style="mix-blend-mode:multiply"/>
  <path fill="#62AB8D" d="M23.1 31H21v4.6h2.2V31Z"/>
  <path fill="#AAD1C2" d="M11.4 31H9.2v4.6h2.2V31Z"/>
  <path fill="#62AB8D" d="M28.1 31H26v4.6h2V31Z"/>
  <path fill="#0C528D" d="M11.5 26.3a1.1 1.1 0 1 1-2.3 0 1.1 1.1 0 0 1 2.3 0Zm18.1-.7-6.2-6.7h-.2l-10.7-.1s-.1 0 0 0l6.5 6.8h10.6Z"/>
  <path fill="#62AB8D" d="m29.6 25.6-6.2-6.7h-.2l-10.7-.1s-.1 0 0 0l6.5 6.8h10.6Zm-13-2.6h2l1.1 1.2H18L16.7 23Zm9-1.5h-1.9l-1.1-1.2h1.8l1.2 1.2Zm-6.3 0h-2L16 20.3h2l1.2 1.2Zm-1-1.2h2l1 1.2h-1.9l-1.2-1.2Zm1 1.3 1.2 1.3h-2l-1-1.3h1.9Zm.2 0h2l1.2 1.3h-2l-1.2-1.3Zm2.2 0h2l1.1 1.3h-2l-1.1-1.3Zm1.1 1.4 1.2 1.2h-2L20.8 23h2Zm.2 0h2l1 1.2h-1.9L23 23Zm.8-1.4h1.9l1.1 1.3H25l-1.2-1.3Zm-.3 0-2-.1-1.1-1.2h2l1.1 1.2Zm-3.2-1.4L19.2 19h2l1 1.2h-2Zm-.2 0h-2l-1-1.2h2l1 1.2Zm-2.1 0h-2L14.9 19h2l1 1.1Zm-.9 1.3h-1.9L14 20.3h2l1.1 1.2Zm.1.1 1.2 1.2h-1.8l-1.2-1.2h1.8Zm1.5 1.4h2l1.1 1.2H20L18.7 23Zm3.3 1.3 1 1.2h-1.9l-1-1.2H22Zm.1 0h2l1 1.2h-1.9l-1-1.2Zm2.2 0h1.9l1 1.2h-1.9l-1-1.2ZM25 23h2l1.1 1.2h-1.8L25 23Zm-1.7-4 1 1h-1.9l-1-1h1.9Zm-8.6-.1 1.1 1.1h-1.9l-.9-1h1.8Zm4.3 6.4-1-1h2l1 1h-2Zm10.2 0h-1.7l-1.1-1h1.8l1 1ZM19 39.3s-2.1-4.2-.3-4.1c.7 0 1.3 3.3 1.3 3.3s-.1-3 1.4-2.5c.8.2-.4 2.5-.4 2.5s1-1.5 1.7-1c1 .6-.9 1.8-.9 1.8h-2.7Zm-.9 0S17.7 37 17 37c-.6 0 0 1.5.4 2.2h.8Z"/>
  <path fill="#D2F5F9" d="m19.6 39.3-.9-3.3.8 3.3h.1Zm.8 0 .6-2.6c0-.1 0 0 0 0l-.7 2.6Zm-2.7 0-.6-1.5.5 1.5h.1Zm3.3 0 1.2-1.3-1.3 1.3h.1Z"/>
  <path fill="#62AB8D" d="M19.6 35s-.4-1-1-1.1H18v.1h.7c.6.1 1 1 1 1Z"/>
  <path fill="#FFCA99" d="M27.8 39c3 0 5.4-.2 5.4-.4 0-.3-2.4-.5-5.4-.5-3 0-5.5.2-5.5.5 0 .2 2.5.4 5.5.4Z"/>
  <path fill="#fff" d="m27.4 24.8-.1-.1-.2-.8.1-.2.2.1.2.8-.1.2Z"/>
  <path fill="#CC6300" d="m33.8 26.6.2-.2-.3-.2a6.8 6.8 0 0 0-6-2l-.3.2H27a6.9 6.9 0 0 0-4.7 4.3v.3c.2.7 2.6.2 6-.5 3.4-.8 5.7-1.3 5.5-2Z"/>
  <path fill="#FF9633" d="M26.2 24.7A7.4 7.4 0 0 0 22 29v.1c0 .2.3.3.7.3a6 6 0 0 1 3.5-4.7Zm2.3-.5a7.5 7.5 0 0 1 5.7 2.1v.1c0 .2-.1.4-.5.6-1-1.9-3.6-3-5.2-2.8Zm-.8.1a3 3 0 0 0-.7.1 4.6 4.6 0 0 0-1.2 4.6l1.5-.3.4-.1h.2l.4-.1 1-.3 1.5-.3a4.6 4.6 0 0 0-3.1-3.6Z"/>
  <path fill="#FFCA99" d="M33.8 26.6c0 .2 0 .4-.4.8-.6.4-1.5.8-2.7 1.2h-2.4a6 6 0 0 0-2.2 1c-1.2.1-2.2.2-3 0-.3-.1-.3-.2-.3-.5-.1-.4.2-.8.8-1.4l3-1h1.3c.4 0 1-.3 1.2-.6l3-.3c1.2.3 1.6.4 1.7.8Z"/>
  <path fill="#CC6300" d="M22 29.1c0 .3.5.5 1.1.6 0-.7.2-1.4.5-2-1 .5-1.7 1-1.6 1.4Zm12.2-2.7c.1.3-.2.6-.8 1-.2-.6-.6-1.2-1.2-1.6 1.2 0 2 .2 2 .6Zm-7.7.3c-.3.8-.4 2-.4 2.9a26 26 0 0 0 4.6-1c-.3-1-.9-1.9-1.6-2.5a26.7 26.7 0 0 0-2.6.6Z"/>
  <path fill="#FCEB9C" d="M27.8 26.4h-.1l2.7 12.1h.3L28 26.3h-.2Z"/>
  <path fill="#FEF5CD" d="M31.9 35.5s-.1-.1-.2 0l-3.8 1.4c0 .2-.2.3-.3.5l4.2-1.7v-.2Z"/>
  <path fill="#FEF5CD" d="m31.3 38.6-4.6-7v-.3h.3l4.5 7.1-.2.2Z"/>
  <path fill="#CC6300" d="M30.1 36.5c-2.8 0-3-4.4-3.1-5.1l-.1-.1h-3.1l-.2.1c.1 1 .7 5 3.4 5h3.1Z"/>
  <path fill="#F33" d="M29.2 36.5h.9c-1.1 0-1.8-.7-2.3-1.6.3.6.8 1.2 1.4 1.6Z"/>
  <path fill="#FEF5CD" d="M26.8 38.4 29 35h.2c.1 0 .1 0 0 .2L27 38.6l-.2-.2Z"/>
  <path fill="#CC6300" d="M27.2 36.5c1.2-.2 1.3-.8 1.4-1H32c-.1.4-.6 1-1.8 1H27h.2Z"/>
  <path fill="#CC6300" d="m31.9 35.6-.1-.2h-3.2v.2h3.3Z"/>
  <path fill="#FEFAE6" d="M28.8 35.5s-.2-.1-.2 0l-3.8 1.4c0 .2-.2.3-.3.5l4.2-1.7v-.2Z"/>
  <path fill="#FEFAE6" d="m28 38.6-4.4-7.1v-.2h.2l4.5 7.1-.3.2Z"/>
  <path fill="#FEFAE6" d="m23.6 38.4 2.3-3.3h.2c.1 0 .1 0 0 .2l-2.3 3.3-.2-.2Z"/>
</svg>
