<svg xmlns="http://www.w3.org/2000/svg" width="50" height="50" fill="none">
  <path fill="#F8EEE5" d="M49.3 38.7H.9S-.3 31 2 26.5c2.6-5.2 5.6-3.1 6.7-5.2 1.6-2.8 1.1-14 11-13.3 5.7.5 8 9.3 9.8 9.3 2.3 0 5.6-3.8 11.5-1.5 10.2 4 8.4 23 8.4 23Z"/>
  <path fill="#FFE5CC" d="m14.2 21.2-.1-.4-.2-.3c-.4-.3-1-.1-1.2.3V20a1 1 0 0 0-.2-.5.7.7 0 0 0-.6-.2l-.6.3-.3.2v.2l-.1.2V20c0-.3 0-.7-.2-1 0-.3-.3-.7-.6-.8a1 1 0 0 0-1 .2 2 2 0 0 0-.6 1.1V21h-.3c-.1-.1-.2-.1-.4 0-.1 0-.3.3-.3.5l-.4-.4a.8.8 0 0 0-.4-.3c-.2 0-.3 0-.5.2s-.3.6-.1 1H14l.2-.9Z"/>
  <path fill="#FFCA99" d="M44.5 27c.1-.4 0-.9-.3-1a.6.6 0 0 0-.9.2c.1-.3.2-.8-.1-1-.3-.1-.7 0-1 .3v.1c.3-.5.4-1 .4-1.6 0-.5 0-1-.4-1.4-.5-.3-1-.4-1.5-.1-.5.2-1 .6-1.2 1.1a3 3 0 0 0-.4 1.6c0-.3-.2-.6-.3-.8 0-.2-.2-.4-.4-.5a1 1 0 0 0-.7 0c-.4 0-.9.3-1 .7v.1c0-.6 0-1-.3-1.5a2 2 0 0 0-.9-.9c-.4-.2-1 0-1.4.2-.4.2-.7.7-.8 1.2-.1.7.2 1.2.4 1.8 0 0 0 .1 0 0-.4-.1-.7-.2-1 0-.3.1-.4.4-.3.7 0 0 0 .1 0 0a1 1 0 0 0-.6-.4c-.3-.1-.7 0-1 .3a1 1 0 0 0-.2 1h13.9ZM32 18.2c.2-.2.3-.4.2-.7 0-.2-.1-.4-.3-.4-.3-.1-.8 0-.8.3H31V17c0-.1 0-.3-.2-.4h-.4c-.2 0-.5.2-.6.5 0 .1-.1.1 0 0v-.7c0-.2 0-.4-.2-.6a.8.8 0 0 0-.6-.3c-.3 0-.6.1-.8.3l-.3.2-.2.2v.2-.2c0-.3 0-.6-.2-.9-.1-.3-.4-.6-.7-.6-.3-.1-.6 0-.8.3-.3.2-.4.6-.5 1v1h-.1l-.3-.7c-.2-.2-.4-.4-.6-.4a1 1 0 0 0-.7.3c-.3.4-.3 1 0 1.4h-.1l-.4-.2c-.2 0-.5 0-.6.2v.7H32Z"/>
  <path fill="#CFE5DC" d="M0 38.9c0 .8 11.2 1.5 25 1.5s25-.7 25-1.5c0-1-11.2-1.6-25-1.6S0 38 0 38.9Z"/>
  <path fill="#005231" d="M4.9 38.5s1.5-2.3.5-3.2c-.6-.5-.9 1.2-.9 1.2s-.3-3.2-1.4-2.5c-.5.3.6 3.3.6 3.3s-.8-1.6-1.4-1.2c-1 .7 1.4 2.3 1.4 2.3h1.2Zm-3.5-2.3s-.2-.4 0-.7c.2-.1.4-.3.7-.3-.3.1-.5.2-.6.4-.2.2 0 .5 0 .6h-.1Zm4.6-1c-.1-.2-.2-.4-.4-.4H5s.4-.2.7-.1l.3.4Z"/>
  <path fill="#CFE5DC" d="m4.3 38.4-.8-3.6.9 3.6h-.1Zm-.4 0-1.5-1.7L4 38.3h-.1Zm.6 0 .6-2.6h.1l-.6 2.7Z"/>
  <path fill="#005231" d="M45.1 38.7s-2-3.5-.6-4c.8-.3 1 3 1 3s.1-3.6 1.3-3.2c.8.4-.3 3-.3 3s1.2-1 1.4-.3c.2 1-1.2 1.5-1.2 1.5h-1.6Z"/>
  <path fill="#CFE5DC" d="m45.5 38.7-1-3h.1l1 3h-.1Zm.2 0 .7-3.2-.6 3.2Zm.3 0 1.3-1c0-.1 0 0 0 0 .1 0 .1 0 0 0l-1.1 1H46Z"/>
  <path fill="#005231" d="M43.7 34.5s.3-.6.9-.5c-.5 0-.9.5-.9.5Zm4.8 2.7-.1-.5c-.2-.2-.5-.2-.5-.2l.5.1c.2.2.2.4.1.6Z"/>
  <path fill="#62AB8D" d="M17.9 38.7H3V26.3l7.4-7.5 7.4 7.5v12.4Z"/>
  <path fill="#AAD1C2" d="M30.8 26.3h-13v12.5h13V26.3Z"/>
  <path fill="#0C528D" d="M31.6 26.4h-13L10.5 18h13.3l7.8 8.3Z"/>
  <path fill="#08375E" d="m2 27.8-.7-.7 9.2-9 8.1 8.3-.3 1-7.8-8L2 27.9Z"/>
  <path fill="#0C528D" d="M31.1 27.4H18.2l.4-1h13l-.5 1Z"/>
  <path fill="#62AB8D" d="M3.1 26.7v1.5l7.5-7.3 7.3 7.9h13v-1.4H18.2l-7.8-8L3 26.7Z" opacity=".2" style="mix-blend-mode:multiply"/>
  <path fill="#62AB8D" d="M23.1 31H21v4.6h2.2V31Z"/>
  <path fill="#AAD1C2" d="M11.4 31H9.2v4.6h2.2V31Z"/>
  <path fill="#62AB8D" d="M28.1 31H26v4.6h2V31Z"/>
  <path fill="#0C528D" d="M11.5 26.3a1.1 1.1 0 1 1-2.3 0 1.1 1.1 0 0 1 2.3 0Z"/>
  <path fill="#08375E" d="m29.6 25.6-6.2-6.7h-.2l-10.7-.1s-.1 0 0 0l6.5 6.8h10.6Z"/>
  <path fill="#62AB8D" d="m29.6 25.6-6.2-6.7h-.2l-10.7-.1s-.1 0 0 0l6.5 6.8h10.6Zm-13-2.6h2l1.1 1.2H18L16.7 23Zm9-1.5h-1.9l-1.1-1.2h1.8l1.2 1.2Zm-6.3 0h-2L16 20.3h2l1.2 1.2Zm-1-1.2h2l1 1.2h-1.9l-1.2-1.2Zm1 1.3 1.2 1.3h-2l-1-1.3h1.9Zm.2 0h2l1.2 1.3h-2l-1.2-1.3Zm2.2 0h2l1.1 1.3h-2l-1.1-1.3Zm1.1 1.4 1.2 1.2h-2L20.8 23h2Zm.2 0h2l1 1.2h-1.9L23 23Zm.8-1.4h1.9l1.1 1.3H25l-1.2-1.3Zm-.3 0-2-.1-1.1-1.2h2l1.1 1.2Zm-3.2-1.4L19.2 19h2l1 1.2h-2Zm-.2 0h-2l-1-1.2h2l1 1.2Zm-2.1 0h-2L14.9 19h2l1 1.1Zm-.9 1.3h-1.9L14 20.3h2l1.1 1.2Zm.1.1 1.2 1.2h-1.8l-1.2-1.2h1.8Zm1.5 1.4h2l1.1 1.2H20L18.7 23Zm3.3 1.3 1 1.2h-1.9l-1-1.2H22Zm.1 0h2l1 1.2h-1.9l-1-1.2Zm2.2 0h1.9l1 1.2h-1.9l-1-1.2ZM25 23h2l1.1 1.2h-1.8L25 23Zm-1.7-4 1 1h-1.9l-1-1h1.9Zm-8.6-.1 1.1 1.1h-1.9l-.9-1h1.8Zm4.3 6.4-1-1h2l1 1h-2Zm10.2 0h-1.7l-1.1-1h1.8l1 1Z"/>
  <path fill="#005231" d="M19 39.3s-2.1-4.2-.3-4.1c.7 0 1.3 3.3 1.3 3.3s-.1-3 1.4-2.5c.8.2-.4 2.5-.4 2.5s1-1.5 1.7-1c1 .6-.9 1.8-.9 1.8h-2.7Zm-.9 0S17.7 37 17 37c-.6 0 0 1.5.4 2.2h.8Z"/>
  <path fill="#CFE5DC" d="m19.6 39.3-.9-3.3.8 3.3h.1Zm.8 0 .6-2.6c0-.1 0 0 0 0l-.7 2.6Zm-2.7 0-.6-1.5.5 1.5h.1Zm3.3 0 1.2-1.3-1.3 1.3h.1Z"/>
  <path fill="#005231" d="M19.6 35s-.4-1-1-1.1H18v.1h.7c.6.1 1 1 1 1Z"/>
</svg>