<svg xmlns="http://www.w3.org/2000/svg" width="444" height="231" fill="none">
  <g clip-path="url(#a)">
    <path fill="#FFE5CC" d="M339.6 168H81.2C56.7 175.5 42 184.9 42 192.8c0 18.7 81.7 45.5 182.5 36.3 100.8-9.1 182.5-15 182.5-36.3 0-12.1-26.3-19.2-67.4-24.8Z"/>
    <path fill="#fff" d="M381.1-73H278.3V58.8h102.8V-72.9Z"/>
    <mask id="b" width="104" height="132" x="278" y="-73" maskUnits="userSpaceOnUse" style="mask-type:luminance">
      <path fill="#fff" d="M381.1-73H278.3V58.8h102.8V-72.9Z"/>
    </mask>
    <g mask="url(#b)">
      <path fill="#CFE5DC" d="M394.4-64c-13.1-35.6-62.1-30-76.4-6.7-12.2 19.8-2.4 30.9-32.9 52.5-9.2 6.5-16.5 13-15.6 25.3 1 12.7-2.4 34 4.7 44.9 7.7 1.8 7.8-20 34-26 6-1.3 12.8-1.4 17.7-5.2 6.8-5.4 9.5-22.1 32-21.5 10 .3 34.1 14.8 43.3 6.5-.5.5-2.3-57.6-6.8-69.8Z"/>
      <path fill="#CFE5DC" d="M429 40c-13-35.6-62-30-76.4-6.6-12.2 19.7-2.4 30.8-32.9 52.4-9.2 6.5-16.5 13-15.6 25.3 1 12.7-2.4 34 4.7 44.9 7.7 1.8 7.8-20 34-25.9 6-1.3 12.8-1.5 17.7-5.3 6.8-5.4 9.5-22.1 32-21.4 10.1.3 34.1 14.7 43.3 6.4-.5.5-2.3-57.6-6.8-69.8Z"/>
      <path fill="#AAD1C2" d="M279.6 16C280.8 10.8 295 1.3 299.8.7c36.4-4.4 28.7-14.7 39.9-29.2 8.9-11.6 19 .5 27.3 1 13.4.6 19.1-10.5 31.5-7.3a158 158 0 0 0-4-29.2c-3.7-10-28.2-38.1-31.7-14.8-4.1 28.4-21.1 17.3-28.1 28.7-3.7 6-2 14.2-6.6 20.3-6.6 8.6-10.6 16.3-29.7 19.6-9.8 1.7-15.7 13-18.9 26.2Zm53.7 14.6c-22-3.1-21 17.5-37.8 20.4a49.9 49.9 0 0 0-31.2 21.7c-5.2 8.7-23.3 17-19.5 26.6.4 1.1 18.6-7.7 21.3-11.5a74.2 74.2 0 0 1 34.2-22c9.6-2.4 20.6-30.7 33-35.2Z"/>
    </g>
    <path fill="#fff" d="M175.8-165H52.2v265h123.6v-265Z"/>
    <path fill="#F8EEE5" d="M116.9-169.4H111v273.7h5.8v-273.7Z"/>
    <path fill="#F8EEE5" d="M180.5 32.6h-133v4.6h133v-4.6Z"/>
    <path fill="#F8EEE5" d="M175.8-165v265H52.2v-265h123.6Zm7-7H45.2v279h137.4v-279Zm165.9 318.7h-90.4l-4.4-4.3v-60l4.4-4.4h90.4l4.3 4.4v60l-4.3 4.3Zm-89.3-6h88.2V84.1h-88.2v56.4Z"/>
    <path fill="#F8EEE5" d="M348.7 110.2h-90.4v4.4h90.4v-4.4Z"/>
    <path fill="#F99" d="M316.8 91.2h-7v19h7v-19Z"/>
    <path fill="#F8EEE5" d="M313.3 97a1 1 0 1 0 0-2.2 1 1 0 0 0 0 2.2Zm0 9.6a1 1 0 1 0 0-2.2 1 1 0 0 0 0 2.2Z"/>
    <path fill="#F99" d="M324.8 92h-6.1v18.2h6.1V92.1Z"/>
    <path fill="#FFE5CC" d="M324.3 131.7c-.7 2.4-2.8 4.6-5.5 6.2a19.2 19.2 0 0 1-19.3 0c-2.7-1.6-4.9-3.8-5.5-6.2-.3-1 30.6-1 30.3 0Z"/>
    <path fill="#F8EEE5" d="M324.8 106.5h-6.1v1.4h6.1v-1.4Z"/>
    <path fill="#F99" d="M308.2 92h-4.3v18.2h4.3V92.1Z"/>
    <path fill="#F8EEE5" d="M308.2 100.7h-4.3v1.3h4.3v-1.3Zm0-6h-4.3V96h4.3v-1.3ZM306 99a.7.7 0 1 0 0-1.3.7.7 0 0 0 0 1.3Z"/>
    <path fill="#F99" d="M302.5 93.2H297v17h5.5v-17Z"/>
    <path fill="#F8EEE5" d="M302.5 103H297v1.2h5.5V103Zm0 4.9H297v1.2h5.5V108Z"/>
    <path fill="#F99" d="m347.5 92.5-6.7-1.5-4.1 17.7 6.7 1.5 4-17.7Z"/>
    <path fill="#F8EEE5" d="m337.8 103.6-.3 1.3 6.7 1.6.3-1.4-6.7-1.5Zm-.6 2.9-.2.6 6.7 1.5.2-.5-6.7-1.6Z"/>
    <path fill="#F99" d="m347.4 123-5.3-1.3-4.1 17.7 5.3 1.2 4-17.7Z"/>
    <path fill="#F8EEE5" d="m338.8 136-.3 1 5.3 1.2.3-1-5.3-1.3Zm2.7-11.8-.2 1 5.3 1.2.2-1-5.3-1.2Z"/>
    <path fill="#08375E" d="M65.4 137.3c3.3-6.8-18.2 4-6.7 2.6 2.8-.4 3.5-2 6.7-2.6Z"/>
    <path fill="#08375E" d="M62 138.7c.4 0 2.6-1.8 3.8-1 1.2.8 2 5.2 3.3 7.2.2 0 .9 0 .9-.4s-.1-.8-1.1-1.3c-.8-.4-1.7-6-3.5-5.9-1-.2-2.3.7-3.5 1.4Z"/>
    <path fill="#08375E" d="M55.7 59c7.7 13.3 9.3 28.3 11.9 52.2 1 10.3 2.8 17 3 33.6l-2.5.2c-.5-11.6-1-65.2-13.4-85.5l1-.5Zm13.4-5.8c-1 10.9-.5 48.7 1 68.6.9 10 0 8.5.5 23l-2.5.1c1-10.3 0-29 0-32.9-.5-26.9-.8-48.5-.2-58.4l1.2-.4Z"/>
    <path fill="#62AB8D" d="M86.7 17.5c-1.8-5.3-3.2-9.8-5.7-10.4C65.7 3.7 49.7 70 72.2 53.8c5.8-4.1 10.3-.4 12.7-14.1 0 0 4.3-15 1.8-22.2Z"/>
    <path fill="#08375E" d="M68.9 45.7a88.8 88.8 0 0 0-.9 10.8c.8 1 1-.7 1-1.1.3-13.5 5.1-36.1 11-45.8 1.5-2.4-6.7 7.3-11.1 36Zm-9.2 44c1.6 4.6 4.5 11.5 6.5 25.6 1 6.5 3.6 13.1 3.3 25.3l-1.5.2c0-9.6-2.7-24.8-2.8-25.8-1.7-14.6-5-21.1-6.3-25l.8-.3Z"/>
    <path fill="#62AB8D" d="M22.6 30.5c-2.9 0 2.7 12 3 12.5 6 17.4 32.2 28.5 33.2 23.6 1-5 9.4-36-36.2-36Z"/>
    <path fill="#08375E" d="M59 67c.4 0 0-1.1 0-1.1-.8-1.9-2.1-5.7-5.9-10.3C45 45.4 36.4 41 31.3 37.6c-5-3-7.3-5.6-6-4 10.1 7.8 26 15.2 33 32.6 0 0 .3.7.7.7Z"/>
    <path fill="#3D9773" d="M60 82c-5.3-6.2-9-7.3-12.7-7.2-3 0-2 7.6 2.3 14.5 1.1 1.8 8.5 4.4 10.2 1.6 1.2-2.1 2.6-6 .2-8.8Z"/>
    <path fill="#08375E" d="M49.6 76.5C53 79.3 57.1 86.2 59 90c.2.5 1.2 1 .6-.5L58 87.2c-5-8.6-9-11.6-8.4-10.7Z"/>
    <path fill="#3D9773" d="M76.8 62.5c-1.5-5.9 4.4-13.3 16.5-20.7 7.4-4.5 16.6-12.2 16.7-12.2 1.2 7.4-5 9.6-11 18.2C90.4 60 79.3 72.2 76.8 62.5Z"/>
    <path fill="#08375E" d="M81.5 65.6c.4-2.4-9.5-8.7 6.8-16.7C104 41.3 110 36.3 110 29.6c8 14.7-27 35.7-28.5 36Z"/>
    <path fill="#08375E" d="M94.7 55.9C89 59 84.3 64.6 81.5 65.6c-.4.3-1.9 2.3-2.3 3-6.5 10.4-7.4 22.1-8.5 38.9-.9 12.8-2.7 30.1-2.6 35l2 .9c-.5-8 2-38.1 2.6-45.9a77 77 0 0 1 4.1-22c1-2 3.2-6.1 4.7-8 4.4-5.7 12-10.6 13.2-11.6Z"/>
    <path fill="#08375E" d="M44.6 92.2c10 5.3 15.2 9 19.3 21.2a323 323 0 0 1 5.4 29.4l-1.8.5c-.7-8-1.4-10.4-2.2-15.8-1.5-10-3.3-19.4-8.8-25.4A49.5 49.5 0 0 0 44 93.2l.5-1Z"/>
    <path fill="#3D9773" d="M117 74.9c-29.5-5-39.2 18.5-30.4 20.1 6.7 1.3 10.5 3.2 26-11.3 7.8-7.4 7-8.4 4.5-8.8Z"/>
    <path fill="#08375E" d="M87.6 91.4a51 51 0 0 0-8.1 8.7c-6 8.4-8.3 20-10 30.8-.4 2.5.3 10.8.3 10.8s1.1 3 1.1-.6c.2-19.3 4.7-33.6 10.6-42a73 73 0 0 1 35.6-22.8c-3 .5-13.2 2.8-29.5 15.1Z"/>
    <path fill="#08375E" d="M84.9 129.8c6.2 4.7 15.7 7 .8 5.6-20.2-1.9-12.8-15-.8-5.6Z"/>
    <path fill="#08375E" d="M80 133.5c-1 0-5-3-7-1.6-2.1 1.5-3.3 9.5-5.5 13.1-.4 0-1.6 0-1.7-.7 0-.7.2-1.4 2-2.3 1.3-.8 2.7-10.8 5.7-10.7 1.7-.4 4.2 1 6.4 2.2Z"/>
    <path fill="#3D9773" d="M61.3 96.9c-4.3-4.6-17-4.9-18.8-5.1-8.6-1.2-6.9-.8-17.4 5.6-5.6 3.4 11.4 9.2 16.5 7.1 4.2-1.7 4-2.7 7.6-1.9 4 1 17.2 0 12-5.7Z"/>
    <path fill="#08375E" d="M27.4 99.5c1 .3 3.1.6 6-1a22 22 0 0 1 8.6-2.8l4.3-.7c-1.5 0-6 .2-8.5 1-2 .7-3.4 1.4-5 2.2-3.8 1.9-7.1.8-5.4 1.3Z"/>
    <path fill="#3D9773" d="M72.6 117.9c-.3-.2-6.7-2.7-12.2-4.2-3.7-1-8.6 1.3-9 8.3-.6 6.7 2 12 3.9 11.5 7.5-2.3 21.8-10.5 17.3-15.6Z"/>
    <path fill="#08375E" d="m64.4 115-.5-.2c-2 3.1-3.7 7.3-4.5 9.2a69.3 69.3 0 0 1-3.1 7c2.6-3.2 4.3-10.7 8.3-16h-.2Z"/>
    <path fill="#994A00" d="M79.4 177.3c-5.6.8-16 1-21.5 0a6.4 6.4 0 0 1-4.5-3.5 47 47 0 0 1-3-32c.3-.7 35.7-.7 36 0 3.2 9.9 2 21.4-2.5 31.8a6.6 6.6 0 0 1-4.5 3.7Z"/>
    <path fill="#127A87" d="M329.6 39.2c1.3 6.3 2 14 2 16.6-.2 4-2.9 7.3-3.7 4.7-2.1-6.4 1-13.9 1.7-21.3Z"/>
    <path fill="#258A62" d="m331.4 57.2-.2-.4-.2-.4-.4-.4-.2-.4v-.4l-.2-.5-.3-.4-.2-.3v-.5l-.6-.8-.1-.4-.1-.5-.2-.4-.2-.4-.1-.5-.1-.4-.1-.5-.3-.4v-.4l-.2 1 .1.2.2.9.1.4.2.4.3.4v.5l.3.3.2.5.1.4.2.4.1.4.4.4v.5l.3.3.2.4.3.4v.4l.4.4.1.5.2-.7Zm-2.8-11.7.2.4v.5l.1.4v.5l.2.4.2.5v.9l.4.8v.5l.2.4.2.5v.9l.2.4.3.4.2.4v1l.3.4.4-.1-.3-.4v-1l-.3-.4v-.4l-.2-.5-.2-.4-.2-.4v-.5l-.2-.4V50l-.2-.5V49l-.2-.5-.2-.4v-.4l-.1-.5-.2-.4v-.5l-.1-.9-.2-.4v-.7l-.2.7v.5Z"/>
    <path fill="#62AB8D" d="M315.4 48.5c2.9 5.2 3.5 6.5 5.8 9.5.7 1 6.4 10.9 3.5 11-2.8.2-.9-2.5-3.4-3.6-4.8-2.2-5-7.3-6-16.9Z"/>
    <path fill="#258A62" d="m324.5 64.4-.2-.4-.6-.3-.4-.3h-.4l-.4-.4-.4-.2h-.5l-.4-.3-.4-.2-.4-.2-.3-.3h-.5l-.3-.5-.9-.3-.3-.4-.6-.7-.5-.1-.2-.3.1.5.2.1.3.4.4.2.4.3.3.3.3.3.4.3h.5l.3.3.4.3.3.3.5.1.4.2.4.3.4.2h.5l.4.2.3.4h.5l.4.2Zm-8.4-8.2h.2l.5.8.2.5.7.6.2.4.4.2.3.4.3.3.3.3.3.5h.5l.3.4.3.4.4.2.3.4.4.2.3.3.4.3.5.1.8.5.3.3-.3-.6-.3-.4-.4-.2-.5-.1-.3-.3-.3-.4-.5-.2-.4-.2-.3-.4-.3-.3-.3-.4-.5-.1-.4-.3-.2-.5-.3-.3-.3-.3-.4-.3-.2-.5-.7-.6-.3-.3-.2-.5-.3-.3-.2-.3v.7Z"/>
    <path fill="#62AB8D" d="M328.3 16c3.4 10.9 11.4 22 6.9 42.8-1.3 5.8-2 8.3-2.4 8.4C322.2 71.7 330 53 331 48c1.9-9.7-2-17.3-2.8-32Z"/>
    <path fill="#258A62" d="M330.7 33.6v.7l.3-.4v-.5l.1-.4.1-.5-.1-.5.1-.4v-1l.2-.4v-.5l.2-.4-.3-.5.1-.5.2-.5-.1-.4v-1l.2-.4-.1-.5v-.8l-.4-1-.1.5v.4l.2.5v.9l-.2.5.1.4v1l-.2.4.2.5v.5l-.3.4.1.5v.4l-.2.5v1.8l-.1.5v.2Zm4.8 22.1-.3.3-.3.3-.3.3-.4.2-.3.4-.4.1-.4.3-.2.4-.4.2-.5.2-.3.4-.2.3-.5.2-.3.3-.4.3-.2.5-.2.3-.5.2-.3.4-.2.4-.2.4-.3.3-.2.5v.4l.2.1.3-.3.3-1 .4-.3.3-.3.3-.4.2-.4.4-.3.4-.3.1-.5.4-.2.4-.3.5-.2.3-.3.3-.4.5-.2.3-.3.3-.3.4-.2.3-.5.4-.1.4-.3.1-.3.1-.6-.3.3ZM332.7 29v1l-.2.4v.9l-.2.5-.2.4.1.5-.3.4v.9l-.2.5-.2.4v.9l-.3.4v1.2l.2-.1v-.5l.1-.5.2-.4.3-.9v-.5l.2-.4.2-.4-.2-.5.2-.5.2-.4.2-.4v-1l.2-.4v-1l.2-.4v-.2l-.2-.6-.2.3v.5Z"/>
    <path fill="#258A62" d="m327.5 63.6.1-.4.1-.4.3-.4V62l.2-.4.4-.3v-.4l.4-.3.3-.4.3-.3.3-.4.2-.4.3-.3.3-.3.4-.3.2-.4.2-.4.4-.2.3-.4.4-.3.2-.4.4-.2.2-.5.4-.2.3-.3.2-.5.4-.2.3-.4.3-.4.2-.4.4-.3.2-.4.1-.4.1-.2v-1.1.8l-.3.4-.3.3-.2.4-.2.5-.4.2-.3.3-.3.4-.2.4-.3.4-.4.2-.3.3-.3.3-.2.4-.5.2-.5.8-.3.3-.4.3-.3.4-.2.4-.4.3-.6.6-.2.5-.4.3-.3.3v.5l-.6.8-.3.3-.1.5-.1.4v.1l-.1.8h.2Zm3.5-14.4.3-.4.3-.3.2-.4.2-.5.3-.3.5-.8V46l.4-.3.2-.4v-.5l.2-.4.3-.4.3-.4v-.4l.2-.5.3-.4v-.5l.2-.4.2-.4.1-.4.3-.4-.1-.6.1-.4.3-.4v-.3l-.1-.8-.2.2-.1.4v.5l-.2.4-.2.5v.4l-.2.5-.2.4-.1.4-.1.5-.2.4-.3.4v.5l-.4.4-.1.4v.5l-.3.4-.3.4-.2.4v.5l-.4.3-.3.4-.2.4v.5l-.3.4-.4.3-.1.2-.4 1.3.3-.4.3-.4Z"/>
    <path fill="#FFF5F5" d="M331 35.2v-.4l-.2-.5.1.9Z"/>
    <path fill="#86BEA7" d="M337.3 33a32.4 32.4 0 0 1 4.2 22.5c-.6 6-2.5 9.3-4.7 10-5.7 1.7-5.7 2-5.4 0 1.2-7.8 5.1-5.4 6.8-15.8.8-5.1-.5-8.7-.9-16.6Z"/>
    <path fill="#FFF5F5" d="M341.3 43.1v.2-.2Z"/>
    <path fill="#258A62" d="m341.2 57.3-.3.4-.2.4-.4.3-.5.2-.3.3-.3.4h-.4l-.5.3-.4.2-.3.4-.3.2-.5.1-.4.2-.4.3-.4.3h-.4l-.4.4-.3.3-.4.2-.4.2-.4.3-.3.3-.4.2-.4.3-.3.2-.2.4-.1.5.4-.3.4-.2.3-.4.3-.3.5-.2.2-.5.9-.4.4-.3h.4l.3-.5.4-.2.4-.3h.5l.4-.2.3-.4h.5l.3-.4.4-.2.4-.3.4-.2.3-.4.5-.1.2-.4.4-.2V58l.2-.8h-.1Zm-2.7-7.8.3-.3.3-.4.4-.3.1-.4.4-.3.3-.4V47l.3-.4.3-.4.2-.4v-.5l.3-.3.1-.3-.1-1-.3.3v.5l-.2.4v.5l-.3.4v.5l-.5.3-.1.4-.3.4-.1.5-.4.2-.4.4-.1.5-.4.2-.1.5v.3-.1l.3-.4Zm1.5-10.8v1.1l-.1.4v.9l-.2.4-.2.4v1l-.4.4.1.5-.2.4v.4l-.3.4v.5l-.2.4v.4l-.1 1.3v-.2l.2-1 .3-.3v-.5l.2-.5.1-.4.3-.4v-.9l.1-.5.2-.4.3-.4v-1l.1-.4.2-.5-.1-.4v-.4l-.2-.7Z"/>
    <path fill="#86BEA7" d="M320.4 42.3c1.5-5.7 4.5-12 5-18 1.9 13.4-2.9 16.6.1 28 .6 2.3 3.9 9.6 3.8 13.2 0 1.6-3.2 2.4-4.5 1a31.6 31.6 0 0 1-4.4-24.2Z"/>
    <path fill="#258A62" d="m328.8 62.1-.4-.4-.2-.3-.3-.4-.3-.3-.5-.2-.1-.5h-.5l-.2-.5-.3-.4h-.5l-.3-.5-.4-.2-.3-.3-.4-.3-.3-.3-.4-.2-.3-.4-.4-.2-.3-.4-.4-.2-.3-.4-.3-.4-.4-.1-.2-.5-.3-.4-.4-.4.1 1 .2.1.4.2.3.4.2.4.4.3.5.2.2.4.4.4.3.3.5.1.4.3.2.5.4.3.3.2.5.3.2.4.8.5.4.3.3.4.3.3.4.2.3.4.2.4.3.4.4.3-.2-.8Zm-8.6-18 .2.5.2.3.2.5.4.3v.4l.5.3.3.3v.5l.6.2v.5l.5.3.3.2.3.4.3.4.3.3.4.3.2.4h.1l-.1-.6-.3-.5-.4-.2-.4-.3-.2-.4-.3-.4-.4-.2-.3-.4-.1-.5-.5-.2-.2-.4-.2-.4-.6-.7-.2-.5-.2-.4-.2-.4-.2-.4-.1.7.1.1Zm4.2-14.3v.5l.1.4.2.5-.2.5.3.4-.2.5v.4l.3.5-.1.5.2.4v1.4l.2.5-.2.4.2.5-.1.5.1.2.3-2-.2-.4.1-.5v-.4l-.2-.4v-1.4l-.2-.4V31l-.2-.4v-1.4l-.1-.4-.3 1Zm-3.2 10.4v.5l.4.9.1.4v.5l.4.4v.5l.2.4.3.4.1.4.1.5.3.4.3.3v.5l.3.5.2.4.4.3.3.3v.4-.7l-.1-.2-.2-.4-.1-.5-.3-.3-.4-.4v-.5l-.4-.3v-.5l-.1-.4-.4-.3v-.5l-.3-.4v-.5l-.3-.4v-.4l-.3-.4v-.5l-.2-.4v-.5l-.2-.3-.2.6v.2Z"/>
    <path fill="#B3B3B3" d="M321.2 65.5a13 13 0 0 0-2.8 7.7c0 5.6 4.9 8.3 11 8.3 6 0 11-2.7 11-8.3a13 13 0 0 0-2.9-7.7h-16.3Z"/>
    <path fill="#CC6300" d="m380.6 225.5-1.2.2-1 .1-1 .2-1-.2-1-1-1 1.2h-2l-1-.6-1 .6-1-.5-2 .5h-1l-1-.8-1-.4-1 .3-1 1-1-.7-1-.4-1 .4-1 .4h-1l-1 .2h-1l-1-.8-1 .9-1-1.3-1 1-1-.6-1-.2h-1l-.9-.2-1 1-1-1-1 1h-1l-1-.2-1 .3-1-.7h-1l-1-.3h-1l-1 .2-1 .6-1-.8-1 .6-1-.2-1-.2-1 .8-1-1-1-.1h-1l-1 .1h-1l-1 .5h-1l-1-.6-1 1.1-1-.7h-1l-1 .9-1-.1h-1l-1-.6-.9-.6-1 .5-1 .2-1 .4-1-.4h-1l-1-.2-1-.4-1-.2-1 .5-1 .5-1-.7-1 1.1-1-.4-1-.7-1 .3h-1l-1 .3-1-.7-1 .5h-1l-1 .6h-1l-1-1.1h-1l-1 .2-1 1-1-.2h-1l-1-.2-1-.8-1 .4-1-.3-.9-.1h-1l-1 .2-1-.3-1 1.3-1-.5-1-.4-1 .8-1-.2-1-.6-1-.2-1 .8h-1l-1-1-1 .2-1-.1-1 .2h-2l-1-.1-1 .4-1-.2-1 .1-1-.1-1-.2-1 .2-1 .9-1-.1-1-.6-1 .5-1-.7h-1.9l-1 .6-1 .1-1-.3h-1l-1 .5-1-1.2-1 1.1-1-.9-1 .4-1 .3-1-1-1 .6-1-.3-1 1-1-1.4-1 .5-1 .9-1-.9-1-.3-1 .8h-1l-1-.7-1-.2h-1l-1 1-1-.5-1-.2-1 .5h-1l-1-.1-1 .1-1 .3h-.9l-1-.2-1-.5-1 .7-1 .2-1-.3h-1l-1-.2h-1l-1-.1h-1l-1-.6-1 .7-1-.8-1 1.3-1-.7-1-.4-1-.3-1 .4h-1l-1-.3h-1l-1 .5h-1l-1 .5-1-.5h-2l-1 .3-1-.5-1 .6-1-1-.9.5-1-.1-1-.1-1 .4-1 .2-1-.6h-1l-1 1-1-1.2-1 .6-1 .1h-1l-1-.2-1 .3h-1l-1-.4-1 .5-1 .3h-1l-1-.6-1-.2-1 .3-1-.1-1 .3h-1l-1 .1-1-.8-1 .4-1-.4-1 .6-1-.7-1 .9-.9.1-1-.6-1 .3-1-.5-1 .5-1-.1-1-.3-1 .1-1-.3-1 1-1-.9-1 .5-1-.1-1 .3-1-.3-1 .4-1-1h-1l-1 .6-1-.6-1 1.1-1-1.1-1-.1-1 1-1 .2-1-.6h-2l-1 .2h-1l-1-.6-1 1-1-.5h-.9l-1-.2h-1l-1 .8-1-.6h-1l-1-.2-1 .2-1 .3-1-.5h-1l-1-.1h-1l-1 .8-1 .1-2-1.1-1-.1-1.3.7.6-1.2 1.3-.3v-1.3l.3-1 1.3-.3.4-.9v-1.2l.9-.6.3-1 .7-.7.7-.8-.2-1.3.4-.9 1.2-.4.2-1 .3-1 1-.7.8-.6-.1-1.3.9-.6.1-1 1.3-.4-.6-1.5 1.6-.2-.2-1.4.8-.6.3-1 .1-1.1.7-.8 1.4-.3-.3-1.3.5-1 1.4-.2-.1-1.3.7-.7.6-.8.4-1 .5-.8.8-.7-.2-1.3.5-.8 1.1-.5v-1.2l1-.5 1 .4 1-.8 1 .6 1-.8.9 1 1-1.1 1 .6 1-.7 1 1.4 1-.6 1 .5 1-1.2 1 1.2 1-1 1 .2 1 .8 1-.9 1 1 1-1.3 1 1.2 1-1.2h1l1 .2 1 .9 1-1h1l1 .9 1-.5 2-.2 1-.4 1 .9 1-.7.9.5 1 .4 1-1 1 .3 1 .2h1l1 .6h1l1-1.1 1 .9 1-.2h1l1-.8 1 .8 1-.6 1 .8 1-.7 1 .7 1-1 1 .3 1 .8 1-.4 1 .2 1-.4 1-.5 1 .5 1 .2 1-.7h2l.9 1.2 1-.4 1-.1 1 .5 1-1 1 .4h1l1 .8 1-1.1h1l1-.2 1 .7h2l1-.5 1 .6 1-.8 1 .7 1-.1 1-.4h1l1 .1 1 .7h1l1-.7 1 .3 1 .7 1-1.4 1 .8.9-.3h1l1 .8 1-.5 1 .1 1 .4 1-.3h1l1-.1h1l1 .5 1-.2 1-.3 1 .1 1-.4 1 .1 1-.4 1 .2h1l1 .7 1-.1 1-.7h1l1 .4 1 .3 1-1 1 .7 1-.4 1 .8.9-.4 1-.7 1 .4 1-.4 1 1 1-.2 1 .3h1l1-1h1l1 .8 1-.2 1 .4 1-.4 1 .1 1-.4 1 .7 1 .1 1-1 1 .6 1 .5 1-.1 1-.4 1-.4 1 .3 1-.4 1 .5 1 .1 1 .2 1-.3.9-.1 1 .3 1 .1 1-.5 1 .3 1-.5 1 .7 1-.7 1 .4 1-.2 1 .4 1-.9 1 .3h1l1 .5 1-.7 1-.2 1 1h1l1-.3 1 .1 1 .4 1-.2 1-.3 1-.5 1-.1h1l1 .5 1-.3.9.1 1 .2 1 .7 1-1.1 1 .7 1-.2 1-.7 1 1.3 1-.3 1-.6 1 .3 1 .3 1-.8 1 .4 1-.6h1l1 .8 1-.8 1 .4 1 .1 1-.6 1 .7 1-.3 1 .2h1l1 .1 1 .4 1-.6 1-.3h.9l1 .9 1-.3 1 .1 1-.4 1 .6 1 .3 1-.4 1 .2 1-1 1 1 1-.4 1-.7 1 1h1l1-.7h1l1 .3 1 .3 1-.2 1 .5h1l1-1.2 1 .5.3 1 .2 1 1.2.5-.2 1.3.5 1 1.2.3.3 1 1 .5.3 1v1.2l1.3.4-.4 1.4 1.6.2v1.2l.4.9 1 .6v1.1l1.2.5.4.9.5.9-.4 1.3 1.6.3v1.1l1 .6-.2 1.3.2 1 1 .6.4 1 .9.5-.2 1.3 1.6.2.2 1 .6.9-.4 1.4 1.1.5.2 1 1.2.5.5.8.4 1 .9.6.2 1v1.2l.4 1 1.1.6Z"/>
    <path fill="#CC6300" d="m379.4 225-1 .1-1 .2-1-.2-1-1-1 1.2h-2l-1-.6-1 .7-1-.6-2 .5h-1l-1-.8-1-.4-1 .3-1 1-1-.7-1-.4-1 .4-1 .4h-1l-1 .2h-1l-1-.8-1 .9-1-1.2-1 .9-1-.6-1-.2h-1l-.9-.2-1 1-1-1-1 1h-1l-1-.2-1 .3-1-.7h-1l-1-.3h-1l-1 .3-1 .5-1-.8-1 .6-1-.2-1-.2-1 .8-1-1-1-.1h-1l-1 .1h-1l-1 .5h-1l-1-.6-1 1.1-1-.7h-1l-1 .9-1-.1h-1l-1-.6-.9-.6-1 .5-1 .2-1 .4-1-.4h-1l-1-.2-1-.4-1-.2-1 .5-1 .5-1-.7-1 1.1-1-.4-1-.7-1 .3h-1l-1 .3-1-.7-1 .5h-1l-1 .6h-1l-1-1.1h-1l-1 .2-1 1-1-.1h-1l-1-.3-1-.8-1 .4-1-.3-.9-.1h-1l-1 .2-1-.3-1 1.3-1-.5-1-.4-1 .8-1-.2-1-.6-1-.2-1 .8h-1l-1-1-1 .2h-3l-1 .1-1-.1-1 .4-1-.2-1 .1h-1l-1-.3-1 .2-1 .9-1-.1-1-.6-1 .5-1-.7-1 .1h-.9l-1 .5-1 .2-1-.3-1-.1-1 .5-1-1.2-1 1.1-1-.9-1 .4-1 .3-1-1-1 .6-1-.3-1 1-1-1.4-1 .5-1 1-1-1-1-.3-1 .8h-1l-1-.7-1-.2h-1l-1 1-1-.5-1-.2-1 .5h-1l-1-.1-1 .1-1 .3h-.9l-1-.2-1-.5-1 .7-1 .2-1-.3h-1l-1-.2h-1l-1-.1h-1l-1-.6-1 .7-1-.7-1 1.2-1-.7-1-.4-1-.3-1 .4h-1l-1-.3h-1l-1 .5h-1l-1 .6-1-.6h-2l-1 .3-1-.5-1 .6-1-1-.9.6-1-.2-1-.1-1 .5-1 .1-1-.6h-1l-1 1-1-1.2-1 .6-1 .1h-1l-1-.2-1 .3h-1l-1-.4-1 .5-1 .3h-1l-1-.6-1-.2-1 .3h-1l-1 .2h-1l-1 .1-1-.8-1 .4-1-.4-1 .6-1-.7-1 .9-.9.1-1-.6-1 .3-1-.5-1 .5-1-.1-1-.3-1 .1-1-.3-1 1-1-.9-1 .5-1-.1-1 .3-1-.3-1 .4-1-1h-1l-1 .6-1-.6-1 1.1-1-1.1-1-.1-1 1.1-1 .1-1-.5-1-.1h-1l-1 .2h-1l-1-.6-1 1.1-1-.6h-.9l-1-.2h-1l-1 .8-1-.6h-1l-1-.2-1 .2-1 .3-1-.5h-1l-1-.1h-1l-1 .8-1 .1-2-1-.9-.2h-.1l-.8.5-.5 1 1.4-.8 1 .1 2 1.1 1-.1 1-.7 1-.1 1 .2 1-.1 1 .5 1-.3 1-.2 1 .2h1l1 .6.9-.8h1l1 .2h1l1 .6 1-1 1 .5h1l1-.3 1 .1h1l1 .6 1-.1 1-1.1h1l1 1.2 1-1.1 1 .6 1-.6h1l1 1 1-.4 1 .3 1-.3 1 .1 1-.5 1 1 1-1.1 1 .3 1-.1 1 .3h1l1-.4.9.5 1-.3 1 .6 1-.1 1-1 1 .8 1-.6 1 .4 1-.4 1 .8 1-.1h1l1-.3 1 .1 1-.3 1 .2 1 .5h1l1-.2 1-.5 1 .5h1l1-.4 1 .3 1-.1 1-.1 1-.6 1 1.3 1-1.2 1 .1 1 .6 1-.2.9-.4h1l1 .2 1-.4 1 .9 1-.6 1 .5 1-.4 1 .2h1l1 .4 1-.5h1l1-.5h1l1 .3h1l1-.4 1 .3 1 .4 1 .7 1-1.3 1 .8 1-.7 1 .7 1-.1h1l1 .1 1 .2h1l1 .3 1-.2.9-.7 1 .5 1 .1h1l1-.2 1-.1 1 .2 1-.1 1-.5 1 .2 1 .6 1-1 1-.1 1 .2 1 .6 1 .1 1-.8 1 .3 1 .9 1-1 1-.4 1 1.4 1-1 1 .3 1-.6 1 1 1-.3 1-.4 1 1 1-1.2 1 1.2 1-.5h1l.9.3h1l1-.6h1l1-.1 1 .7 1-.5 1 .6h1l1-.8 1-.2 1 .2 1 .1h2l1-.3 1 .1h2l1-.2h1l1-.1 1 1h1l1-.8 1 .2 1 .6 1 .2 1-.8 1 .4 1 .5 1-1.3.9.3 1-.2h1l1 .1 1 .3 1-.4 1 .8 1 .2h1l1 .2 1-1 1-.2h1l1 1h1l1-.6h1l1-.4 1 .7 1-.3h1l1-.3 1 .7 1 .4 1-1 1 .6 1-.5 1-.5 1 .2 1 .4 1 .2h1l1 .4.9-.4 1-.2 1-.5 1 .6 1 .6h2l1-.9h1l1 .8 1-1.1 1 .7h1l1-.6h1l1-.1h1l1 .1 1 1 1-.8 1 .2 1 .2 1-.6 1 .8 1-.6 1-.2h1l1 .2h1l1 .8 1-.3 1 .3h.9l1-1 1 .8 1-.9 1 .3h1l1 .1 1 .6 1-1 1 1.3 1-1 1 .9h1l1-.2h1l1-.4 1-.4 1 .4 1 .7 1-1 1-.3 1 .4 1 .8h1l2-.5 1 .5 1-.6 1 .6h2l1-1.2.9 1 1 .2 1-.2h1l1.2-.3-.9-.5h-.3Z" opacity=".3" style="mix-blend-mode:multiply"/>
    <path fill="#F8EEE5" d="M284.6 224.4v-1l-.3-.8.6-1.3-.9-.9.4-1.1-1-1v-.6l.5-1.2-.5-1.2-.4-1-.4-.8.1-1-.3-.9.3-1-.3-1.3-.6-.7.5-1-1-1.1v-.7l.2-1.1-.4-1.2-.5-.8.3-1-.5-2.2-.7-.9v-.7l-.1-1.2-.4-1-.1-.7.3-1.3-.7-1v-.8l-.2-1-.5-1v-.8l.1-.6h-.4l-.9-.4-.2.8v1.3l.5 1 .2.8v1.2l.6.8-.2.9v1.1l.5 1v1l.2 1.2.7.9.3 1.6-.3 1.3.7 1 .3.7-.2 1 .1 1.3.6.7-.5 1.2 1 1 .2.7-.3 1 .3 1-.1 1.2.6 1 .3 1 .3.7-.5 1 .2 1.4.7.7-.4 1.1.8.9-.4.9.4 1.1v1l.2.6h.3l1-.3-.1-.5Zm29 .9.5-.2-.5-1-.5-.8-.2-.8.2-1.2-.8-.9v-.9l-.3-1.2-.7-1-.4-.6.2-1-.7-1-.2-1-.3-.8v-1.1l-.4-1.2-.6-.7v-1.1l-.8-1-.3-.7v-.9l-.4-1-.1-1.2-.5-.7.1-1-.4-1.4-.9-.7v-.6l.1-1.2-.4-1.1-.6-1-.6-.8v-1l-.6-1-.2-.7v-1.2l-.7-1-.2-.6.2-1.1-.4-1.4h-1.4l.4 1.4-.2 1.1.3 1.3.6.7v1l.3 1 .5 1v1l.9 1 .4.8.3.7-.2 1 .2 1.4 1 .9.2.6-.2 1.2.6 1 .2.8.3 1v1l.5 1.2.6.7v1l.8 1 .3.7-.1 1 .4 1.1.2 1 .5.8v1.1l.5 1.1.7.8.2.7-.2 1.3.8.8-.1 1 .3 1 .5 1 .4.8.9-.2Zm29.6-.1-1.3-1-.2-.6.1-1.3-1.3-1.9-.6-.7-.3-.8-.6-.9-.1-1-.6-.8-.2-1-.4-1-.3-1-.6-.7v-1l-.8-2-.5-1-.6-.8-.8-.8-.2-.7-.1-1-.5-1.2-.6-.7-.2-1-.8-.8v-.8l-.5-1-.9-1.7.2-1.3-1-.7v-1l-.6-1-.4-.8-.3-1-.5-.9-.3-.8-.3-1-.4-1.2-1.3-1-.9.6h-.7l1.7 1.3.3.7.3 1 .4 1 .4.8.4 1 .4 1 .4.7v1.3l.9.6-.1 1 1 1.9.4.8.1 1.2.8.8.2 1 .7.8.3.7.2 1 .3 1.2 1 .8.4.7.4.9.7 1.7v1.2l.8.9.2.8.4 1 .2 1 .6.8.1 1 .6 1 .4 1 .7.8 1 1.4-.1 1 1.3 1.7-.3.4.2.1 1-.3h.4l.3-.4Zm-88.6-.7.4 1.5h.8l.6-.4-.4-1.2.1-.8.5-1.2-.5-1.1-.2-.8.2-1-.1-1 .3-1-.4-1.2-.3-.7.5-1-.6-1.1v-1l-.3-.8.6-1-.5-2.1-.3-2v-.7l.4-1.1-.4-1.2-.2-.9.1-1-.3-.8.6-1-.8-2 .5-1-.4-1.1v-.8l.2-1v-2l-.2-1.2-.2-1.1-.6-.9v-.4h-1.4v.8l.7 1 .1.8.1 1v2.8l-.1 1.2.3.8-.5 1 .7 2-.4 1 .3 1-.1 1 .3 1.2.2.7-.4 1 .1 1.1.3 2 .4 1.7-.6 1.1.4 1.1v1l.5 1-.5.9.5 1.2.2.7-.2 1 .1 1-.2 1 .3 1.2.3.8-.3.7-.2 1.3Zm115.9-.1-.3-.7v-1.2l-.6-1.2-1-.7-.4-.7-.3-.8-.3-1-.7-1-.7-.6v-1l-.6-1.2-1-.5v-1l-.8-.8-.3-.7-.2-1.2-.9-.8-.4-.8-.4-.8-.4-1.3-1.1-.5-.3-.6V204l-1-.7-.5-.8-.7-.9-.5-.6-.1-.9-.3-1.3-.8-.8-.4-1-.8-.5v-1l-1.6-2.7-.4-1-.9-.6v-1l-.8-1-.9-.5-.1-1h-.5l-.8.6.2 1.2 1 .7.5.6.1 1.2 1 .7.4.7 1.4 2.6.1 1.2 1 .8.4.8.6.7.2.8.2 1.2.7 1 .6.7.5 1 .8.6v.7l.6 1.4 1 .6.4.7.4 1 .5.8.7.8.2.9.4 1.1.7.6v1.3l1.3.6.3.6v1.2l1 1 .4.5.2.9.5 1 .6 1 1 .7.3.6v1.1l.4 1.2.5.6.6.3 1-.6-1-1ZM206.2 188l-.3.1-1-.7-.1.1v1.4l-.3.9-.1 1-.5.7-.6 1.3.2 1-.4 1 .3 1.2-.3 1.8-.1.9-.6.9-.2 1.2.1.8-1 1 .5 1.2-.3.6-.5 1.3.3 1-.3.7-.7 1.2.4 1-.4.9v1l-.2 1-.2 1v.9l-.8 1 .3 1-.6.8-.1 1.3v1l-.3 1v1.7l-1 1 .5 1.3-.3.5.4.1h1l.2-.1.3-.5-.5-1 .7-.7.2-1.2v-1l.2-1v-1.8l.9-1-.4-1.1.6-.8v-1.2l.2-.9.3-1v-1l.5-1-.4-1.1.4-.7.6-1.2-.3-1 .2-.8.6-1.2-.4-1 .8-.7v-2l.6-1 .1-1 .2-1 .2-1.2-.3-1 .5-.9-.2-1 .3-.8.6-1 .1-1 .4-1V188Zm23.8 3-.3-1v-1.8l-.8.3-.6.1v1.4l.2 1-.1.8-.5 1 .2 1-.3 1 .2 1.2.2 1.7-.7 1 .6 1.3v.7l-.2 1v3l-.2.8-.8 1.1.7 1.3v.6l-.7 1 .5 1.1-.5 1 .2 1.1.1 1v1.7l-.5 1v1l-.1 1.1.1 1-.2 1v1l-.4 1.8v1.6l.8-.1.6.1v-1.4l.5-2-.1-1 .2-1-.1-1v-1.8l.7-1v-2l-.2-1.2-.2-.8.6-1-.4-1 .6-.8-.1-1.4-.4-.8.4-.7.3-1.2v-3l.1-1 .1-1.1-.4-.8.5-.8-.2-2.3-.2-.9.4-1-.2-1 .3-.7.2-1.2Zm-96.8-3.7-1 1.5-.2.8-.7.7-.2 1-1 .4-.7.9-.6 1.2.1 1-.8.4-.8 1.2.2 1.2-.5.6-.5.9-.4.9-.8.7-.3 1-1.5 1.5-.2 1-.7.8-.2 1-1 .6v1.2l-.8.6-.3 1-.6 1-.2 1-.3.7-1 .8-.1 1.1-.5.7-.5.8-1.1.7v1.3l-.5.6-.8.8-.4 1-.6.7-.5.9-.8 1.8-1 .7-.2 1.3 1 .5.3-.1.2-1 .9-.5.8-2 .4-.8.7-.8.3-1 .7-.5.8-1.1v-1l.8-.5.6-1 .7-1 .1-.9.8-.6.6-1v-1.1l.6-.8.3-1 .9-.7v-1l1-.6.2-1.1.7-.8.2-1 1.5-1.4.2-1 .8-.7.4-1 .4-.8.8-1-.1-1.3.3-.5 1.3-.6-.2-1.5.3-.7.5-.6 1.2-.6.3-1.2.8-.7.2-1.2.4-.9-.7-.9Zm25 .3-1 .6-.5-.4-.2.8-.9.9v1.2l-.3.7-1.3 2.6-.9.9v1.2l-.5.8-.2 1-.5.6-.9.8-.3 1.2-.2 1-.5.9v1l-.6.4-.8 1.3.2 1.2-.4.6-.5 1-.5 1-.1.9-.6.7-.7 1v.9l-1.1.7.3 1.4-.3.6-1 .7-.2 1.3-.2.8-.5.7-.6 1-.4 1.1v1l-.3.7-1 .6-.7 1.2.3 1.5.8-.2h.6l-.2-1 .3-.5 1-.7.6-1.2v-1.2l.2-.7.4-.8.8-.8.3-1.2v-.8l.9-.6.6-1.3-.2-1 .8-.6.2-1.1.4-.7.8-1 .2-1 .3-.8.5-.9.7-1-.2-1.2.3-.6 1-.8v-1.3l.4-.7.2-1.1.3-.8.6-.7.8-1 .2-1 .6-1v-.9l.7-.6 1.3-2.8.6-1v-1l.7-.7.4-1.8Zm23.8.2-1 .4-.6-.1-.5.6.2 1.2-.3.7-.3 1.1v1l-.4.8-.6 1-.1 1.1-.2.8-.8.7-.4 1.3v1l-.2.8-.2 1-.8.8v1.1l-.7 1 .2 1.1-.3.7-.3 1-.6.9-.3 1-.4 1v1.2l-.2.8-.5 1v1l-.5.7-.3 1-.6 1 .1 1.2-.4.8-.1 1-.8 1.7-.7 1-.2 1-.3.9-1 1.8h.2l1-.2.7-.4.3-.6.4-1 .2-1 .5-.7 1-2 .1-1 .5-1v-1l.4-.8.3-1 .5-1 .1-1 .4-.9.2-1.2v-1l.4-.8.2-.9.7-.9.2-1 .6-1-.2-1.1.5-.8v-1l.8-.8.2-1.1.4-1-.1-1.1.2-.7.8-.8.3-1.2.2-1 .4-.7.5-1.1V192l.3-.9.4-1-.1-1 1.2-1.6-.6.3Z" style="mix-blend-mode:soft-light"/>
    <path fill="#FFE5CC" d="M292.4 211c0 7-35.9 11-80 9.2-44.3-1.8-80.1-6-80.1-9.2 0-3.3 35.8-7.5 80-9.3 44.2-1.8 80 2.3 80 9.3Z" style="mix-blend-mode:multiply"/>
    <path fill="#0D7D50" d="M275.9 119.3c-6.2-.9-16.2-.4-16.2-12.6V78c0-48 3-48-56.2-48-61.3 0-55.8 0-55.8 48v28.7c0 12.2-10 11.7-16.2 12.6l21.9 50.8c16.6-1.3 84-1.3 100.7 0l21.8-50.8Z"/>
    <path fill="#0D7D50" d="M262.2 126c0-6.7-7.5-3.3-7.6-15.4 0 0 .2-26.9 0-32.6-.2-16.2-20.9-48.2-52.6-48.2-31.8 0-49.6 32-49.8 48.2v32.7c0 12.2-6.8 8.6-6.8 12.9l11.8 46.5a1008 1008 0 0 1 89.5 0l15.5-44.1Z" opacity=".1" style="mix-blend-mode:multiply"/>
    <path fill="#0D7D50" d="M254.6 110.6s.2-26.9 0-32.6a45 45 0 0 0-8.8-23v.4s4.6 46.3-.4 62.5c-4.8 15.5-16.9 5.4-43.1 5.4-26.3 0-38.7 10.7-41.1-5.4-5.6-37 0-64 0-64.6-5.8 8.7-8.9 18-9 24.7v32.7c0 12.2-6.8 8.6-6.8 12.9l11.8 46.5c14.8-1.3 74.8-1.3 89.5 0l15.5-44.1c0-6.7-7.5-3.3-7.6-15.4Z" opacity=".1" style="mix-blend-mode:multiply"/>
    <path fill="#0D7D50" d="M248 134.5c-5.2-3.3 0-9.7 1.5-17.8 2.2-11.5 2.2-31.3 2.2-31.3a94 94 0 0 0-3.3-23 166 166 0 0 1-2.3 60.2c-4 13.4-17.7 3.4-44 3.4-26.2 0-39.7 11.5-42-4.5-3.8-24.7-4-48-2.3-59.2a90 90 0 0 0-1.7 25.2c.9 14.9 1 21.2 1.7 29 1.1 12.2 4.7 16.7 1.3 19.5-2.7 2.2-5.5 4.7-9.3 4.9l7.4 29.2a1008 1008 0 0 1 89.5 0l10.7-30.3c-4.8.2-5.5-3-9.3-5.3Z" opacity=".1" style="mix-blend-mode:multiply"/>
    <path fill="#0D7D50" d="M204 164c-13.3 0-26.4-1.9-39-5.6-3.7-1.2-7.2-5-7.2-8.6l.7-7.5a10 10 0 0 1 6.4-8.6 137 137 0 0 1 39-6.3c12 0 24.4 2 39 6.2a10 10 0 0 1 6.5 8.7l.7 7.5c0 3.5-3.6 7.4-7.1 8.6a139 139 0 0 1-39 5.6Z" opacity=".1" style="mix-blend-mode:multiply"/>
    <path fill="#0D7D50" d="M166.8 77.1c16.6 5 37-17 64.1-16.8 22.5.1 4.5-25-31.2-26-35-1-46.4 38.8-32.9 42.8Z" opacity=".1" style="mix-blend-mode:screen"/>
    <path fill="#0D7D50" d="M174 62.9c7.8-3.4 14.6-8.4 22.8-11.2 1.9-.7 18.7-4.6 26.1-5.4 2-.2 2.8-2.7 1.3-4-9.8-8.2-47.2-8.8-56.3 15.5-1.9 5 2.3 6.7 6.1 5Zm-23.6 45.2c-2.6-1.7 1 11.5-17.7 11.3l5 7.7c4-2.3 6-4 10-7.8 3.2-2.8 4.3-10 2.7-11.2Zm106.6 0c2.7-1.7-1 11.5 17.7 11.3l-4.9 7.7c-4-2.3-6-4-10.1-7.8-3.2-2.8-4.3-10-2.6-11.2Z" opacity=".1" style="mix-blend-mode:screen"/>
    <path fill="#503116" d="M159.9 212h-4.3c-.6 0-1.1-1.5-1-3.3.5-12 1.7-23.7 3.2-34.6H169c-1.7 11.2-5 23.3-7.8 35.8-.3 1.3-.8 2-1.2 2Z"/>
    <path fill="#503116" d="M159.9 212h-1c9.6-29 4.7-38-2-31l1-7h11c-1.7 11.3-5 23.4-7.8 36-.3 1.2-.8 2-1.2 2Z" opacity=".4" style="mix-blend-mode:multiply"/>
    <path fill="#503116" d="M154.6 209.6c0 1.4.5 2.4 1 2.4h4.3c.4 0 .9-.8 1.2-2v-.4h-6.5Z" opacity=".3" style="mix-blend-mode:multiply"/>
    <path fill="#503116" d="M154.9 211.2c.2.5.4.8.7.8h4.3c.2 0 .5-.3.7-.8H155Z" opacity=".3" style="mix-blend-mode:multiply"/>
    <path fill="#503116" d="M167.6 181.5c.5-2.5 1-5 1.3-7.4h-11l-.5 3.3c1.7-2.5 9.3-.8 10.2 4Z" opacity=".4" style="mix-blend-mode:multiply"/>
    <mask id="c" width="15" height="38" x="154" y="174" maskUnits="userSpaceOnUse" style="mask-type:luminance">
      <path fill="#fff" d="M159.9 212h-4.3c-.6 0-1.1-1.5-1-3.3.5-12 1.7-23.7 3.2-34.6H169c-1.7 11.2-5 23.3-7.8 35.8-.3 1.3-.8 2-1.2 2Z"/>
    </mask>
    <g mask="url(#c)">
      <path fill="#503116" d="M153.8 188c2.1-2 4.2-3.9 6.5-4.1 3.3-.3 6 2.4 9.2 3 4.3.8 4.4 1.8-.1 1-6-1.2-9.4-5-15.4 1-2.8 2.9-3 2-.2-.9Zm19.2-3.4c4.6-1 .8-1-.5-.9-4.2.5-6.7-4.9-9.6-8.5 2.4 5.2 5.6 10.4 10 9.4Zm-18.5 10c4.4-2.9 8.4-3.6 12.8-3.6 6.2 0 4.7-1 .8-1-4.7 0-9 .6-13.7 3.7-5.1 3.4-5 4.4 0 1Zm9.4 13.4c3.3-1 3.3-2.2 0-1-7.5 2.4-13.8 11-21.4 16.1 7.5-4 14-12.7 21.4-15Zm-3.2-3.2c7.2-4.5 6.6-5.3-.8-.5-7.4 4.7-6.7 5.2.8.5Z" opacity=".1" style="mix-blend-mode:screen"/>
    </g>
    <path fill="#503116" d="M247.6 212h4.3c.6 0 1-1.5 1-3.3-.6-12-1.8-23.7-3.3-34.6h-11.1c1.7 11.2 5 23.3 7.9 35.8.2 1.3.7 2 1.2 2Z"/>
    <path fill="#503116" d="M247.6 212h1c-9.6-29-4.8-38 2-31l-1-7h-11.1c1.7 11.3 5 23.4 7.9 36 .2 1.2.7 2 1.2 2Z" opacity=".4" style="mix-blend-mode:multiply"/>
    <path fill="#503116" d="M246.3 209.6v.3c.3 1.3.8 2 1.3 2h4.3c.5 0 .9-1 1-2.3h-6.6Z" opacity=".3" style="mix-blend-mode:multiply"/>
    <path fill="#503116" d="M246.8 211.2c.2.5.5.8.8.8h4.3c.2 0 .5-.3.7-.8h-5.8Z" opacity=".3" style="mix-blend-mode:multiply"/>
    <path fill="#503116" d="M240 181.6c1.6-3.8 7.8-5.2 10.3-2.6l-.7-5h-11.1l1.4 8 .2-.4Z" opacity=".4" style="mix-blend-mode:multiply"/>
    <mask id="d" width="15" height="38" x="238" y="174" maskUnits="userSpaceOnUse" style="mask-type:luminance">
      <path fill="#fff" d="M247.6 212h4.3c.6 0 1-1.5 1-3.3-.6-12-1.8-23.7-3.3-34.6h-11.1c1.7 11.2 5 23.3 7.9 35.8.2 1.3.7 2 1.2 2Z"/>
    </mask>
    <g mask="url(#d)">
      <path fill="#503116" d="M238.4 194.4c3.5.7 7 2 10.5.7 2.9-1 5-4.3 7.3-7 1.8-2.2 5.3-5.3.4.8-2.3 2.9-4.5 6.1-7.6 7.2-3.4 1.3-7.1 0-10.6-.7-7.4-1.4-7.4-2.4 0-1Zm1-4.4c3.8 1 16.5 2.5 16.2-8-.4-5-4.3-5.8-6.5-6.3-1.5-.5-8-.8-8.4-3.5.3 4.1 10.7 4 12.7 6.3 4.7 5.7-2 9.6-4.5 10.4-5 1.7-10.4.8-15.4-1.9-4.1-2.2 2 2.1 5.9 3Zm18.7 4.7c3.9-3 3.9-4.1-.3-1a26 26 0 0 1-14.1 6 22 22 0 0 0 14.4-5Zm-22.5-12.9c3.4 1.5 7.6 6.6 11.2 5 3.8-1.6-1.1-6-2.8-7.2-2.1-1.5-4.3-2.5-6.4-3.5-1.2-.6-2.8-1-3.4-3.2 1 4.3 6.3 5.4 8.4 6.8 1.4.9 7 4.2 4 6.2-3.3 2.2-8.8-4.5-12.3-5.5-4.3-1.1-3.3-.5 1.3 1.4Zm10 28.7c5.8-6.2 12-14 19-12.6 2.6.5 2.4-.7-.5-1.1-6.9-1-13 6.6-18.9 12.7-6.6 7-6.1 7.8.3 1Z" opacity=".1" style="mix-blend-mode:screen"/>
    </g>
    <path fill="#0D7D50" d="M258 128.6c-1.8 3.9-4.5 13.3-6.2 17.1a24.6 24.6 0 0 1-20.4 14.3c-17.2 2-37.7 2-55 0-9-1-17-6.1-20.4-14.3-1.6-3.8-4.4-13.2-6.1-17-3-6.8-10.3-9.4-18-9.4-1.8 0-3.1 1.8-2.6 3.4a294 294 0 0 0 21.5 46.7c1.6 2.2 3.9 4 6.6 5 21.8 7.8 71 8 93 0 2.7-1 5.1-2.8 6.7-5.2a326.4 326.4 0 0 0 21.4-46.4c.6-1.7-.7-3.5-2.6-3.5-7.6 0-15 2.6-18 9.3Z"/>
    <path fill="#0D7D50" d="M258 128.6c-1.8 3.9-4.5 13.3-6.2 17.1a24.6 24.6 0 0 1-20.4 14.3c-17.2 2-37.7 2-55 0-9-1-17-6.1-20.4-14.3-1.6-3.8-4.4-13.2-6.1-17-4.4-13.2-10.3-9.4-18-9.4-1.8 0-3.1 1.8-2.6 3.4a294 294 0 0 0 21.5 46.7c1.6 2.2 3.9 4 6.6 5 21.8 7.8 71 8 93 0 2.7-1 5.1-2.8 6.7-5.2a326.5 326.5 0 0 0 21.4-46.4c.6-1.7-.7-3.5-2.6-3.5-7.6 0-14.4-4.8-18 9.3Z" opacity=".3" style="mix-blend-mode:multiply"/>
    <path fill="#0D7D50" d="M231.4 159.3c-17.2 2-37.7 2-55 0-7.7-.8-14.6-4-18.6-10.2v.2c0 4.3 3.4 9.5 7.6 11A109 109 0 0 0 204 166c13 0 26 0 38.5-5.6 4.3-1.5 7.7-6.8 7.7-11v-.3c-4 6.2-10.9 9.4-18.7 10.2Z" opacity=".1" style="mix-blend-mode:multiply"/>
    <path fill="#0D7D50" d="M249.5 149.9c-4 5.7-10.7 7.3-18.1 8-17.2 2-37.7 2-55 0-7.4-.7-14-2.3-18-8 .5 4 3.6 7.8 7.4 9.1 22 7.6 54.2 7.6 76.2 0 3.8-1.3 7-5.2 7.5-9.1Zm5 20.5c-23.9 7.8-77.5 7.8-101.3-.1l-2.5-1.1v.2c1.7 2.2 4 4 6.7 5 21.8 7.8 71 8 93 0 2.7-1 5-2.7 6.6-5l-2.5 1Z" opacity=".1" style="mix-blend-mode:multiply"/>
    <path fill="#0D7D50" d="M277.8 120.1v.6a346 346 0 0 1-21.2 46.5c-1.6 2.4-4 4.2-6.8 5.2-21.6 7.9-70.3 7.8-92 0-2.6-1-5-2.8-6.5-5A295.3 295.3 0 0 1 130 120c-.7.7-1 1.7-.7 2.6 2.8 8 14.4 36.4 21.5 46.7 1.6 2.2 3.9 4 6.6 5 21.8 7.8 71 8 93 0 2.7-1 5.1-2.8 6.7-5.2a326.5 326.5 0 0 0 21.4-46.4c.3-1 0-2-.7-2.7Z" opacity=".1" style="mix-blend-mode:multiply"/>
    <path fill="#0D7D50" d="M159.1 149.8c0 3.1 2.7 6.8 6 8 25.4 7.4 52.3 7.4 77.6 0 3.4-1.2 6-4.9 6-8v-7.5c0-3.2-2.6-6.9-6-8a123.8 123.8 0 0 0-77.6 0 9.3 9.3 0 0 0-6 8v7.5Z"/>
    <path fill="#0D7D50" d="M244.8 142a144.2 144.2 0 0 1-81.7 0 8.8 8.8 0 0 1-3.5-2.1 7 7 0 0 0-.5 2.4v7.5c0 3.1 2.7 6.9 6 8 25.2 8 52.5 8 77.6 0 3.4-1.1 6-4.9 6-8v-7.5a7 7 0 0 0-.5-2.4 7 7 0 0 1-3.4 2Z" opacity=".3" style="mix-blend-mode:multiply"/>
    <path fill="#0D7D50" d="M243.3 134.5c2 2 3.9 4.9 3.9 7v5.6c0 3-2.6 6.5-5.8 7.5a127.4 127.4 0 0 1-75 0 8.6 8.6 0 0 1-5.7-7.5v-5.7c0-2 1.8-5 3.9-6.9a9.3 9.3 0 0 0-5.5 7.8v7.5c0 3.1 2.7 6.9 6 8 25.2 8 52.5 8 77.6 0 3.4-1.1 6-4.9 6-8v-7.5c0-3-2.4-6.5-5.4-7.8Z" opacity=".1" style="mix-blend-mode:multiply"/>
    <path fill="#0D7D50" d="M243.5 156.4c-25.7 8-53.5 8-79.2 0a9 9 0 0 1-4.2-3.2c1 2 2.9 3.9 5 4.6 25.2 8 52.5 8 77.6 0 2.2-.7 4-2.5 5-4.6a9 9 0 0 1-4.2 3.2Z" opacity=".3" style="mix-blend-mode:multiply"/>
    <path fill="#0D7D50" d="M245.8 141.3a151.6 151.6 0 0 1-85.2-.6c.8.5 1.6 1 2.5 1.3 26.5 7.8 55.2 7.8 81.7 0 .8-.3 1.7-.8 2.4-1.3-.4.2-.9.5-1.4.6Z" opacity=".2" style="mix-blend-mode:screen"/>
    <path fill="#0D7D50" d="M166.6 139c-5.1 2.9 11.6 5.4 37.3 5.5 25.8 0 42.5-2.6 37.3-5.5a101 101 0 0 0-37.3-6.5 98 98 0 0 0-37.3 6.5Z" opacity=".1" style="mix-blend-mode:screen"/>
    <path fill="#FFE5CC" d="M357 202.4c0 1.9-18 3.4-35.8 2.9-17.7-.5-35.4-2.4-31.2-3.6 7.3-2 21.3-2 32.7-1.8 17.7.2 34.3.6 34.3 2.5Z" style="mix-blend-mode:multiply"/>
    <path fill="#503116" d="M321 204.9h-1.2c-.5 0-.9-.5-.9-1-.2-17.3 0-34.6.5-51.9h5.4c-.8 17.3-1.8 34.6-3 51.8 0 .6-.4 1-.9 1Z"/>
    <mask id="e" width="7" height="53" x="318" y="152" maskUnits="userSpaceOnUse" style="mask-type:luminance">
      <path fill="#fff" d="M321 204.9h-1.2c-.5 0-.9-.5-.9-1-.2-17.3 0-34.6.5-51.9h5.4c-.8 17.3-1.8 34.6-3 51.8 0 .6-.4 1-.9 1Z"/>
    </mask>
    <g mask="url(#e)">
      <path fill="#503116" d="M315.3 220.6c.2-5.9.6-11.8 1.5-17.6.4-2.7 1-5.5 1-8.3 0-2.4-.5-4.4-1-6.5-.3-1.6-.5-3.2-.4-5 .2-2.7 1-5 1.5-7.6.5-3.4 0-14-2.7-8.3 2.7-6.5 3.5 4.8 3 8.4-.9 4.8-2 7.7-1.1 12.3.4 2.2 1 4.2 1 6.7 0 2.8-.7 5.6-1.1 8.4-1 5.7-1.3 11.7-1.7 17.5Zm-1-9.2c.4-3 1.3-5.8 1.8-8.8.5-3 1.7-13-.6-13.7-1.2-.2-1.7 3-2 4.7-.2 1.2-.8 6.6-1.5 6.7 1 0 1.8-8.6 2.5-10 1.7-3.3 2 2.5 2 4.6A57 57 0 0 1 315 207a46 46 0 0 0-1.3 13.3c0-3 0-6 .5-9Zm2.9-36.7c0-3.7-1.2-5.6-2.6-1.9.5-.8 1.2-2.2 1.8-1.6.6.5.6 2.8.5 3.9-.2 3.4-1.7 5.6-2.8 8 1.5-2 3-4.8 3-8.4Zm1 37.9a51 51 0 0 1 .8-10.1c.7-4.9 1.1-8.8.4-13.2-1-5.7-1.6-9.7.5-15.5 1-3.2 3.7-10.6 5.8-9.5 2.1 2 1.2 9.1 2 12.8-.7-3.6 0-8.3-1-11.6-1.2-4-3.4-.5-4.7 2.4-2 4.6-4.2 9.8-3.8 15.7.3 3.1 1 5.8 1.3 8.9.3 3-.2 6.3-.7 9.4-.5 3.7-1 7-.8 10.8a64.7 64.7 0 0 1 .3-.1Zm3.8-9.2c.3-2.6.8-5.1.8-7.7 0-2.1-.2-4.2-.3-6.2-.2-3-1.4-13 1-14.6 2.7-1.8 1.3 8.8 2.3 10.8-1-2.3.8-12.9-2.2-11.3-2.7 1.4-1.7 10.9-1.4 14.2.1 2.3.5 4.6.4 7 0 2.6-.5 5.2-.8 7.7-.8 5.7 0 10.4-.2 16 .4-5.5-.3-10.4.4-16Zm1.4-6.4v-12.1c.1-1.2.2-4.9.8-3.8.3.7.3 3.6.4 4.8a257.4 257.4 0 0 1-.2-4.5c-.5-3-1 .7-1 2.5-.5 8.2.3 16-.3 24.3.4-3.7.3-7.7.3-11.2Zm-.7-44.7c-.9 2.4-1.9 1.8-2.3-.6-.3-2.1.3-4.7.5-7 .2-3.5-.7-6.3-.7-9.8-.2 3.7.7 6.8.4 10.4-.2 2.2-.7 4.7-.3 6.8.5 3.2 1.9 2.7 2.8-.2 1-3.3 1.8-7.4 2-11a59 59 0 0 1-2.4 11.4Zm.5-5.9c-.2.8-1 3.7-1.6 4-.6-1.4.5-7 .8-8.8.3-2.3.6-4.7.7-7.1-.5 4.7-1.5 9.4-1.8 14.2-.1 3.4.8 1.8 1.4 0a58 58 0 0 1 .5-2.3Zm-10.4 65.5c.6-2.7 2-5.8 2-8.8-.1-3.2-1.5.4-1.9 1.7-.5 1.7-1 3.4-1.3 5-.3 1-.5 2.3-1 2.7 1-.5 1.7-4.9 2.2-6.5.3-1.1 1.5-5.4 1.7-2.8.3 2.9-1.7 6.8-2.2 9.6-.6 3.5-.5 7 0 10.2-.2-3.6-.3-7.5.5-11.1Zm8-6.2c.2-5.6.8-10.9.6-16.4-.2-5.2-.7-11 .8-16.2.5-1.8 1.4-4.2 2.5-4.4h.2c.2 0 .4.2.6.5 1.3 2.3 1.2 6.8 1.7 10-.3-3.1-.1-10.3-2.2-11h-.2c-1.3.2-2.4 3-3 5.2-1.3 5.1-.9 10.8-.7 16 .2 5.7-.4 11.1-.6 16.9-.2 5.6 0 10.8 0 16.3.1-5.7 0-11.2.3-16.9Zm4-53.5c-.5 3-1.9 8.1-3.7 6.5-1.7-1.5-1.9-6.7-2-10 0-3 .8-9.6-.6-11.5.7 1.2.5 3.7.5 5.6v6.4c0 3.3.3 8.4 2 9.9 2 2 3.6-4 4-7.3.6-4.4.7-8.9 1.5-13.2-1 4.4-1 9-1.8 13.6Zm-4.8 12.1c2.3 1.3 5.8-4.4 6-9.3-.5 4.8-4.3 11-6.4 8.4-2.5-2.8-2-12.6-2-17.6-.3 5.2-.8 16.8 2.4 18.5Zm7.5-21.8c-2.2 7.2.7 17.2 1.2 24.8.2-8.5-2.8-16.3-1.2-24.8Zm-9.8 21.3c-.4-2-.5-6.2-1.5-7.2.7 1.5.9 5.4 1.3 7.4.8 3.4 5.2.7 2.4 6 3.3-5.9-1.2-2.5-2.2-6.2Z" opacity=".1" style="mix-blend-mode:screen"/>
    </g>
    <path fill="#503116" d="M321 204.9h-1.2c-.5 0-.9-.5-.9-1-.2-17.3 0-34.6.5-51.9h5.4c-.8 17.3-1.8 34.6-3 51.8 0 .6-.4 1-.9 1Z" opacity=".2" style="mix-blend-mode:multiply"/>
    <path fill="#503116" d="M321 204.3h-2c.2.3.4.6.8.6h1.1c.4 0 .7-.3.8-.7l-.6.1Z" opacity=".7" style="mix-blend-mode:multiply"/>
    <path fill="#503116" d="M321 204.9c.1-5.5 1.7-30 2.2-43.1.3-6.6-3-7.6-4-4.6l.2-5.2h5.4c-.8 17.3-1.8 34.6-3 51.8 0 .6-.4 1-.9 1Z" opacity=".3" style="mix-blend-mode:multiply"/>
    <path fill="#503116" d="M302.9 201.6h-1.2c-.5 0-.7-.4-.6-1 3-16 6.6-32 10.4-48h5.3c-4 16-8.4 32-12.8 48-.2.6-.7 1-1.1 1Z"/>
    <mask id="f" width="16" height="50" x="301" y="152" maskUnits="userSpaceOnUse" style="mask-type:luminance">
      <path fill="#fff" d="M302.9 201.6h-1.2c-.5 0-.7-.4-.6-1 3-16 6.6-32 10.4-48h5.3c-4 16-8.4 32-12.8 48-.2.6-.7 1-1.1 1Z"/>
    </mask>
    <g fill="#503116" mask="url(#f)">
      <path d="M299 205.4c.9-4 2-8 3.8-11.8.8-1.7 1.9-3.4 2.2-5.3.2-1.8-.3-3.3-.7-5a7.2 7.2 0 0 1 0-3.7c.5-1.8 1.9-3.1 2.7-4.7 1-2.2 1.3-10-2.8-6.9 4.2-3.6 4.2 4.7 3 7-1.4 3-3.4 4.6-2.6 8.2.4 1.7 1 3.4.7 5.1-.3 2-1.4 3.7-2.2 5.5-1.8 3.7-3 7.7-4 11.6Z" opacity=".1" style="mix-blend-mode:screen"/>
      <path d="M297 204.5c.3-3.5 1.1-6 3-8.9a20 20 0 0 0 3.4-8c.2-1.4.3-5.7-2.3-4-1 .8-3 6.5-4.3 6.1.9.2 2.2-3.4 2.6-4.2.6-1 1.6-3.1 3.2-2.5 3 1.4.4 8-.6 9.8-1 2-2.4 3.6-3.3 5.5-1 2-1.3 4-1.7 6.2Zm4.1-25.8c1.8-1.3 4-2.3 4.6-4.6.2-.7.4-2.3-.3-3-.7-.6-1.8.1-2.6.5 2.3-2 3.8-.2 3.3 2.3s-2.8 3.9-5 4.8Zm.3 29.7a25 25 0 0 0 1.8-8c.1-2.7 1-5 2-7.3 1-2 2-4 2-6.4 0-2.2-1-4.4-1-6.7 0-4.4 3.5-7.2 6.7-9.5 2.1-1.6 5.3-3.2 6.6 0 1.1 2.8-.3 5.8.3 8.6-.8-2.9 1.2-7.6-1.6-9.8-2.6-1.6-7 2.7-8.8 4.5-3.3 3.3-3 6.3-2.2 10.6.6 3.4-.3 6-1.8 9.2-1 2.2-1.8 4.3-2 6.8a20 20 0 0 1-2 8Z" opacity=".1" style="mix-blend-mode:screen"/>
      <path d="M307.9 205.2c.8-3.8.2-7.4 1.8-11.2.7-1.6 1.6-3.2 1.9-5 .3-1.7.1-3.4 0-5.1 0-2.4-.4-9.5 3.4-9.4 4.3 0 .7 6.7 1.9 8.7-1.2-1.8 1.8-8.7-2-8.4-3.6.2-2.9 7.6-2.9 9.8 0 1.5.2 3-.1 4.5-.3 1.8-1.2 3.4-2 5-1.4 3.7-1 7.4-2 11.1Z" opacity=".1" style="mix-blend-mode:screen"/>
      <path d="M312 196.7c1.6-5.6.3-11.7 1.6-17.4.2-1.2 1.3-3.6 2.1-1.2.8 2.3.6 5.4.3 7.7 0-1.4 0-2.9-.2-4.3 0-1 .1-3-.5-3.7-1-1.1-1.4 1.5-1.6 2.3-.5 2.8-.5 5.8-.6 8.7-.1 2.5 0 5.5-1 7.9Zm9-45.2c-.8 2.5-2.2 5.1-4 7-1.5 1.7-3.5 1.5-3.9-1-.2-1.6.7-3.1 1.1-4.6.8-2.5-.1-5 .5-7.4-.3 2.4.6 4.7 0 7.1-.4 1.5-1.5 3.1-1.3 4.7.3 1.9 1.6 2.7 3 1.4 2-1.8 3.4-4.8 4.5-7.2Z" opacity=".1" style="mix-blend-mode:screen"/>
      <path d="M320.4 150a13 13 0 0 1-3.6 6c-1 1.1-2.4 1.8-1.9-.4.9-3.3 2.6-6.2 3.8-9.3-.3 1.6-1 3.1-1.7 4.7-.5 1.2-2.5 4.6-1.9 5.9.9 0 2.2-1.7 2.6-2.2a22 22 0 0 0 2.7-4.7Zm-24.5 52.6c-.3-2.4 0-4.9 1-7 1-1.8 4-3.9 4-6 0-1.9-2 .7-2.6 1.3-.8 1-2.2 3.8-3.7 3.7.8 0 1.2-.8 1.6-1.4l2.3-3c.7-.8 2.9-2.8 2.7-.5-.2 2.1-2.5 3.7-3.6 5.4a15 15 0 0 0-1.7 7.5Zm10.3 4.5c.3-3.9.7-7.6 1.5-11.4.8-4 2.2-7.6 2.5-11.7.2-3.7.2-7.9 2.6-11 1-1.2 2.6-2.8 4.4-2.4h.3c2.8 1.4 1.8 6.3 2 8.7-.4-2.5.2-5.6-1.4-7.8l-.7-.5-.3-.1c-1.5-.3-3 1-3.9 2.1-2.5 3-2.5 7.3-2.7 11-.3 4-1.5 7.5-2.4 11.4-1 3.9-1.3 7.8-2 11.7Z" opacity=".1" style="mix-blend-mode:screen"/>
      <path d="M323 150.5c-1.6 2.7-2.1 5.8-3.4 8.7-1 2.1-3.5 5.7-6.2 3.5-2.1-1.6-2-5.4-1.7-7.7.1-1.5.4-3 .7-4.5.2-1.3.6-3-.2-4.1 1.7 1.8.1 6.2-.2 8.4-.3 2.3-.5 6 1.6 7.7 2.3 1.9 4.7-1.3 5.6-3.2 1.4-2.9 1.8-6.2 3.8-8.8Z" opacity=".1" style="mix-blend-mode:screen"/>
      <path d="M310 152c-.2 3.6-2 10.3 1 13.2 2.8 2.6 8.5-.2 9.5-3.4-.6 3.4-6 6-9 4.2-4-2.4-2.2-10.3-1.4-14Zm.5 16.7c-1.7-1-2-2.4-2.5-4.3-.3-1.5-.2-3.5-1-4.9 1.2 1 1 3.3 1.3 4.8.5 1.9 1 3 2.2 4.4Z" opacity=".1" style="mix-blend-mode:screen"/>
    </g>
    <path fill="#503116" d="M302.9 201.6h-1.2c-.5 0-.7-.4-.6-1 3-16 6.6-32 10.4-48h5.3c-4 16-8.4 32-12.8 48-.2.6-.7 1-1.1 1Z" opacity=".2" style="mix-blend-mode:multiply"/>
    <path fill="#503116" d="M301.3 201h-.2c0 .4.3.6.6.6h1.2c.4 0 .9-.4 1-1l.1-.2a2 2 0 0 1-1.3.7h-1.4Z" opacity=".7" style="mix-blend-mode:multiply"/>
    <path fill="#503116" d="M302.9 201.6c.8-1.9 6-23 8.4-32.4 2.9-10.9 2.7-17.3-.7-12.8l1-3.8h5.2c-4 16-8.4 32-12.8 48-.2.6-.7 1-1.1 1Z" opacity=".3" style="mix-blend-mode:multiply"/>
    <path fill="#503116" d="M342.5 201.6h1.2c.5 0 .7-.4.6-1-3-16-6.6-32-10.4-48h-5.3c4 16 8.4 32 12.8 48 .2.6.7 1 1.1 1Z"/>
    <mask id="g" width="17" height="50" x="328" y="152" maskUnits="userSpaceOnUse" style="mask-type:luminance">
      <path fill="#fff" d="M342.5 201.6h1.2c.5 0 .7-.4.6-1-3-16-6.6-32-10.4-48h-5.3c4 16 8.4 32 12.8 48 .2.6.7 1 1.1 1Z"/>
    </mask>
    <g fill="#503116" mask="url(#g)">
      <path d="M332.4 145.7c1.5 3.8 2.9 7.8 3.4 11.9.3 1.9.3 3.9 1.2 5.7.7 1.5 2 2.5 3.3 3.7.9.9 1.7 1.8 2.1 3 .6 1.8.1 3.7.4 5.5.3 2.4 4.3 9 6.1 4.1-1.5 5.4-6.1-1.5-6.5-4-.4-3.4.3-5.8-2.4-8.4-1.2-1.1-2.5-2.2-3.3-3.8-.9-1.8-1-3.9-1.2-5.8-.6-4-1.9-8-3.1-12Z" opacity=".1" style="mix-blend-mode:screen"/>
      <path d="M334.6 145.4c1.7 3 2.4 5.5 2.4 9 0 2.9.4 5.9 1.6 8.5.7 1.3 3 4.9 4.2 2 .4-1.1-1.2-7 .2-7.4-.9.4 0 4 .1 5 .1 1.2.4 3.4-1.2 3.8-3.3.6-4.7-6.4-5-8.5-.3-2.1 0-4.3-.3-6.4-.2-2.1-1.2-4-2-6Zm10.9 23.6c-.7 2.1-2 4.2-1.2 6.4.2.7 1 2.2 1.8 2.3 1 .1 1.5-1 1.9-1.8-.7 3-3 2.3-4-.1s.2-4.8 1.5-6.8ZM329 145.8a22 22 0 0 0 3 7.7c1.3 2.3 1.8 4.6 2.2 7.2.3 2.2.7 4.4 2 6.3 1.3 1.9 3.2 3.2 4.5 5.1 2.5 3.6 1 7.9-.3 11.7-.8 2.4-2.6 5.5-5.5 3.5-2.5-1.6-3-5-5-7 2.3 2 3.3 7 6.7 7.4 3.1-.2 4.4-6.1 4.9-8.6 1-4.6-1-7-4-10.1-2.5-2.5-3.1-5.2-3.7-8.6-.3-2.5-.9-4.6-2.2-6.8a20 20 0 0 1-2.7-7.8Z" opacity=".1" style="mix-blend-mode:screen"/>
      <path d="M325.1 150.8c1.5 3.6 4 6.3 4.8 10.3.3 1.7.5 3.6 1.2 5.2.6 1.6 1.8 3 2.7 4.3 1.4 2 5.7 7.6 2.5 9.7-3.6 2.3-4.4-5.2-6.4-6.2 2 .8 3.3 8.2 6.4 5.8 2.8-2-2-7.9-3.2-9.7-.8-1.2-1.8-2.5-2.4-3.8-.7-1.7-.8-3.5-1.2-5.3-.7-3.8-3.2-6.7-4.4-10.3Z" opacity=".1" style="mix-blend-mode:screen"/>
      <path d="M326.4 160.2c1.8 5.5 6.3 9.9 8.4 15.3.5 1.2.9 3.7-1.1 2.2s-3.4-4.2-4.6-6.3l2.6 3.5c.6.7 1.6 2.6 2.5 2.8 1.5.3.4-2 0-2.8-1.1-2.6-2.8-5-4.3-7.6-1.3-2.2-3-4.5-3.5-7.1Zm17.8 42.4a18 18 0 0 1-.7-8c.4-2.2 2-3 3.8-1.2 1.1 1.1 1.2 3 1.6 4.4.8 2.5 3 4 3.8 6.4-1.1-2.1-3.1-3.6-4-6-.5-1.4-.5-3.3-1.6-4.5-1.2-1.4-2.7-1.4-3.2.5-.6 2.6-.2 5.8.3 8.4Zm-7.7-56.4c1.6 2 2.8 4.1 3 6.6.3 2-1.1 5.3.1 7 1.1 1.6 1.4-1.7 1.5-2.5.1-1.3-.3-4.3 1-5.1-.6.5-.6 1.4-.6 2 0 1.4 0 2.6-.2 3.9-.1 1-.9 3.9-2 1.9-1-1.9 0-4.5 0-6.5 0-2.6-1.4-5-2.8-7.3Z" opacity=".1" style="mix-blend-mode:screen"/>
      <path d="M325.5 148.2c1.9 3.5 3.7 6.8 5.1 10.4 1.5 3.8 2.4 7.5 4.4 11 1.9 3.3 4.2 6.7 4 10.6-.1 1.6-.7 3.9-2.4 4.5l-.3.1c-3 .5-4.9-4.2-6.4-6 1.7 1.9 3 4.7 5.5 5.7h1.1c1.5-.7 2-2.6 2.1-4 .4-3.9-2-7.5-3.9-10.7-2-3.4-2.9-7-4.3-10.7-1.4-3.8-3.2-7.2-5-10.9Zm17.5 56.4c-.1-3-1.5-6-2-9-.4-2.3-.2-6.8 3.2-6.4 2.7.2 4.7 3.3 5.7 5.4l2 4.2c.5 1.1 1 2.8 2.4 3.3-2.5-.6-3.6-5.1-4.6-7-1-2.2-3-5.4-5.5-5.6-3-.3-3.3 3.6-3 5.7.5 3.2 2 6.2 1.8 9.4Z" opacity=".1" style="mix-blend-mode:screen"/>
      <path d="M352.9 196.2c-1.8-3.2-4-9.7-8.2-10.4-3.7-.7-6.9 4.9-6 8-1.3-3 1.7-8.2 5.2-8.4 4.8-.3 7.6 7.3 9 10.8Zm-17.9-5.8c1.8 5 7.2 10.9 5.3 16.6 1-6.5-4.4-10.7-5.4-16.6Zm8.3-7.8c2 0 3 .9 4.4 2.2 1.2 1 2.1 2.8 3.6 3.5-1.6-.2-2.7-2.3-3.8-3.3a9.3 9.3 0 0 0-4.2-2.4Z" opacity=".1" style="mix-blend-mode:screen"/>
    </g>
    <path fill="#503116" d="M342.5 201.6h1.2c.5 0 .7-.4.6-1-3-16-6.6-32-10.4-48h-5.3c4 16 8.4 32 12.8 48 .2.6.7 1 1.1 1Z" opacity=".2" style="mix-blend-mode:multiply"/>
    <path fill="#503116" d="M342.5 201.6a1474 1474 0 0 1-8.7-33.7c-3.6-14.4-1-15 1.1-11l-1-4.3h-5.3c4 16 8.4 32 12.8 48 .2.6.7 1 1.1 1Z" opacity=".4" style="mix-blend-mode:multiply"/>
    <path fill="#503116" d="M344.1 201h-1.4c-.4 0-.9-.1-1.3-.4.2.6.7 1 1.1 1h1.2c.3 0 .6-.2.6-.6h-.2Z" opacity=".7" style="mix-blend-mode:multiply"/>
    <path fill="#503116" d="M335.6 151.8c-.4 1.3-6.2 2.4-12.9 2.4s-12.5-1-13-2.4l-.3-7H336c-.1.6-.2 6.4-.4 7Z"/>
    <mask id="h" width="28" height="11" x="309" y="144" maskUnits="userSpaceOnUse" style="mask-type:luminance">
      <path fill="#fff" d="M335.6 151.8c-.4 1.3-6.2 2.4-12.9 2.4s-12.5-1-13-2.4l-.3-7H336c-.1.6-.2 6.4-.4 7Z"/>
    </mask>
    <g fill="#503116" mask="url(#h)">
      <path d="m308.7 150.3-.6.3v.5l.8-.5c2.2-1.3 3.6-3 5.1-4.8 3.3-3.7 6.7-3.5 11.3-4.9 3.5-1 12.8-8 5.3-8.4 6.8.7-2 7-5.4 8-2.4.8-5 .8-7.4 1.9-1.7.7-3 2-4.1 3.2-1.5 1.7-3 3.5-5 4.7Z" opacity=".1" style="mix-blend-mode:screen"/>
      <path d="M334.7 142.4c-5.3-.5-11.3-1-16 2.8-2.6 2-4.3 4.4-6.8 6.4-1.2 1-2.5 1.6-3.8 2.2v.3c2.3-1 4.4-2.4 6.4-4.4 4.2-4.3 7.2-7.1 13.7-7.3 3.5 0 11.7-.2 12.2 3.2-.2 4-7 6.5-9.7 9.6 2.7-2.8 7.3-4.3 9.4-7.5 2.5-3.8-2-5-5.4-5.3Z" opacity=".1" style="mix-blend-mode:screen"/>
      <path d="m336.5 146.7-.1-.3c-1.1-1.7-4.2-1.7-6.5-1.4-5.3.7-10 4.3-14.3 7.2-2.4 1.7-5 3-7.5 4.3v.4a61 61 0 0 0 7.7-4.4c4.4-3 9.1-6.6 14.6-7.2 1.9-.2 4.6-.2 5.5 1.3l.2.3v1c-1.2 3.1-5 5.3-7.6 7.7 2.5-2.2 8.9-5.5 8-8.9Z" opacity=".1" style="mix-blend-mode:screen"/>
      <path d="M330.2 148c-3-3.1-10.5 3.3-13.2 5.3-1.8 1.4-3.7 3-5.7 4.3L308 159v.3c1.1-.4 2.2-.8 3.2-1.4 1.9-1 3.5-2.4 5.2-3.7 2.4-1.9 10.1-8.7 13.2-6.1 3.5 2.8-6.7 6.3-7.6 8.8 1.2-2.6 11.6-5.5 8.1-9Z" opacity=".1" style="mix-blend-mode:screen"/>
      <path d="m321 155.3-5 3.3c3-1.6 6.6-3.8 8.8-6 2.2-2-1.3-.9-3 0-4.8 2.3-9.2 5.3-13.7 8.1v.2l2.5-1.5c3.5-2.1 6.9-4.3 10.5-6.2 1-.6 4.3-2.3 3.8-1-.4.9-3 2.3-4 3Z" opacity=".1" style="mix-blend-mode:screen"/>
    </g>
    <path fill="#503116" d="M335.6 151.8c-.4 1.3-6.2 2.4-12.9 2.4s-12.5-1-13-2.4l-.3-7H336c-.1.6-.2 6.4-.4 7Z" opacity=".4" style="mix-blend-mode:multiply"/>
    <path fill="#503116" d="M335.6 151.8c0 .2-.3.5-.8.7-3.4-2.9-23-2.9-25-.7l-.1-1.3-.3-5.7H336c-.1.6-.2 6.4-.4 7Z" opacity=".4" style="mix-blend-mode:multiply"/>
    <path fill="#503116" d="M322.7 154c-6.4 0-12-1-13-2.3.4 1.4 6.3 2.5 13 2.5s12.5-1 13-2.4c-1 1.2-6.6 2.2-13 2.2Z" opacity=".4" style="mix-blend-mode:multiply"/>
    <path fill="#503116" d="M353.4 145c-.9 2.6-14.7 4.6-30.7 4.6s-29.7-2-30.7-4.7l-1-3.3h63.4l-1 3.3Z"/>
    <path fill="#503116" d="M353.4 145c-.9 2.6-14.7 4.6-30.7 4.6s-29.7-2-30.7-4.7l-1-3.3h63.4l-1 3.3Z" opacity=".4" style="mix-blend-mode:multiply"/>
    <path fill="#503116" d="M322.7 149.1c-15.3 0-28.5-1.9-30.7-4.3v.1c.9 2.7 14.7 4.7 30.7 4.7s29.8-2 30.7-4.7c-2.2 2.3-15.4 4.2-30.7 4.2Z" opacity=".5" style="mix-blend-mode:multiply"/>
    <path fill="#503116" d="M322.7 146c17.5 0 31.7-2 31.7-4.4 0-2.4-14.2-4.4-31.7-4.4s-31.7 2-31.7 4.4c0 2.4 14.2 4.4 31.7 4.4Z"/>
    <path fill="#503116" d="M328.9 144.5c12 0 21.6-1.3 21.6-3 0-1.6-9.7-3-21.6-3-11.9 0-21.6 1.4-21.6 3 0 1.7 9.7 3 21.6 3Z" opacity=".1" style="mix-blend-mode:screen"/>
    <path fill="#503116" d="M331.4 143.3c7.7 0 14-.8 14-1.8s-6.3-1.8-14-1.8-14 .8-14 1.8 6.3 1.8 14 1.8Z" opacity=".1" style="mix-blend-mode:screen"/>
    <path fill="#503116" d="M323.2 145.4c-7.9 0-15-.3-20.6-1l.5-.5-1.1.5-1.4-.2c-.4 0 3.3-1.4 3.3-1.4s-5 1.2-5.3 1.1c-4.4-.7-7-1.6-7-2.6 0-.6 1-1.1 2.7-1.6-2.1.5-3.3 1.2-3.3 1.9 0 2.4 14.2 4.4 31.7 4.4 15.5 0 28.5-1.6 31.2-3.6-3.6 1.7-16 3-30.7 3Z" opacity=".3" style="mix-blend-mode:screen"/>
    <g clip-path="url(#i)">
      <path fill="#FFCA99" d="m209.5 193.1-13.5 8.5 8.5 13.4 13.4-8.4-8.4-13.5Z"/>
      <path fill="#E6E6E6" d="m206.6 229 22.9-14.4.8 1.2c.3.6.1 1.4-.4 1.7l-21 13.2a1 1 0 0 1-1.4-.3l-.9-1.4Z"/>
      <path fill="#FFCA99" d="m229.4 214.6-7.2 4.4-9.6 6-6 3.8-5.7-16.5a35 35 0 0 0 15.7-9.7l12.8 12Z"/>
      <path fill="#FFE5CC" d="M213 220.6c.2 1.5 0 3-.5 4.5l-6 3.7-5.6-16.5 2.5-.8c1-.2 2.1-.2 3.2 0 4.4 1.2 6.2 6 6.5 9Zm16.4-6-7.2 4.4a11 11 0 0 1-4.3-1.4c-2.6-1.6-6.3-5.3-5.3-9.7.1-.9.5-1.6.9-2.3a30 30 0 0 0 3.1-3l12.8 12Z" opacity=".6"/>
      <path fill="#fff" d="M206.6 229a18 18 0 0 1 2.3-7.7c.4-.7 4.9-8 13-8.4a15 15 0 0 1 7.5 1.7L206.6 229Zm6.7-18.4a.5.5 0 1 1 .7-.7.5.5 0 0 1-.7.7Zm.6-.6a.3.3 0 1 0-.5.5.3.3 0 0 0 .5-.5Zm-1.3-1.4a.5.5 0 1 1 .6-.7.5.5 0 0 1-.6.7Zm.5-.6Zm1.5 4.7a.5.5 0 1 1 .6-.7.5.5 0 0 1-.6.7Zm.5-.6a.3.3 0 1 0 0 .4c.1 0 .1-.2 0-.4Z"/>
      <path fill="#fff" d="M216 214.6a.5.5 0 1 1 .6-.8.5.5 0 0 1-.6.8Zm.5-.6a.3.3 0 1 0-.4.5.3.3 0 0 0 .4-.5Zm-8.3.4-.1-.2a.5.5 0 1 1 .1.2Zm.6-.6h-.3l-.2.1a.3.3 0 0 0 .1.5h.2a.3.3 0 0 0 .3-.4l-.1-.2Zm-2-.9-.2-.2a.5.5 0 1 1 .2.2Zm.5-.6h-.3l-.2.3a.3.3 0 1 0 .5-.3Zm2.3 4.2-.1-.2a.5.5 0 1 1 .1.2Zm.6-.6h-.4c-.2 0-.3.2-.3.3a.3.3 0 1 0 .6-.3Zm.4 2.7-.1-.2a.5.5 0 1 1 .1.2Zm.6-.6h-.5v.3a.3.3 0 0 0 .3.2.3.3 0 0 0 .2-.5Z"/>
      <path fill="#fff" d="M216.3 214.3a16.3 16.3 0 0 0-5.6 4h.1a97.4 97.4 0 0 1 4-6c-.7.3-1.5 0-2.3.1-.5 0-.9.2-1.3.4l-1.3.6-1.6.8a85.2 85.2 0 0 1 3.7-5l.3-.3.2-.3c.2-.1.3-.3.5-.2 0 0 .1-.1 0-.1-.4-.2-.7.3-.9.6a91.1 91.1 0 0 0-3.8 5.4l1.5-.7 1.3-.7a4 4 0 0 1 1.3-.3h1.2c.4 0 .8 0 1.2-.2a105.2 105.2 0 0 0-4 6 16.1 16.1 0 0 1 5.6-4v-.1Z"/>
      <path fill="#fff" d="M212.8 208.2c-.4-.3-1-.2-1.5 0l-.7.5-.4.2h-.4a1 1 0 0 0-.5.2l-.1.1v.2-.5h-.1a48.8 48.8 0 0 1-2.3 4h.1l1-.8 1.4-.4 2.9-1 1.6-.4v-.1a39.7 39.7 0 0 1-4 5.7 50.4 50.4 0 0 1 4-1.3l1.2-.4h1.2c0 .1 0 0 0 0-.3-.2-.7-.2-1-.1-.5 0-.9.2-1.3.3a51.6 51.6 0 0 0-4.1 1.4v.1a39.6 39.6 0 0 0 4-5.8l-3 1-1.4.4-1.4.5c-.5.2-.9.5-1.2 1h.1a48.7 48.7 0 0 0 2.3-4h-.1v.4c0 .1.2.1.2 0l.1-.2.4-.2h.4l.4-.2c.4-.2.9-.6 1.4-.7.3 0 .5 0 .8.2v-.1Z"/>
      <path fill="#fff" d="M209.3 209.1c.5-.4.7-1 .8-1.7l.2-.7v-.7c0-.2-.2-.4-.4-.4-.3-.1-.6 0-.8 0l-.3.3-.3.3-.4.8.2 1 .3 1v.2c0 .1.2.1.2 0a2 2 0 0 0-.3-1.1c-.1-.4-.4-.6-.7-.8l-.5-.1a1 1 0 0 0-.5 0l-.5.5a3.4 3.4 0 0 0-.8 1v.3l.1.2a3.5 3.5 0 0 0 .9.6h.9a13.6 13.6 0 0 1 1.4-.5l.4-.1c.1-.1 0-.2 0-.2a1 1 0 0 1-.3.2l-.6.1-1 .4h-.5c-.3 0-.5 0-.8-.3l-.2-.1-.2-.2v-.3l.2-.2c.2-.4.4-.7.8-1l.5-.3h.4c.3.1.6.3.8.6.2.3.3.7.3 1v.3h.2l-.3-1-.1-.5-.1-.4.1-.8a3.2 3.2 0 0 1 .6-.6c.3-.2 1-.4 1.1 0v1.4c-.2.6-.3 1.3-.9 1.7v.1Z"/>
      <path fill="#1A1A1A" d="M183.7 109.8h44.7c1 0 2 .8 2 1.9v36c0 1-1 1.9-2 1.9h-31.8c-8.2 0-14.8-6.6-14.8-14.8v-23.1c0-1 .9-2 2-2Z"/>
      <path fill="#333" d="M228.3 34.7c-.5-2.8 1-3.5 0-6 0-.2-1.4-3.3-3.8-3.6-1.6-.2-2.2 1-3.3.4-1.3-.5-.9-2-2.3-3.7-1.4-1.5-3.9-2.4-5.4-1.6-1.2.6-1 1.8-2 2.3-1.7.8-3.1-1.9-6.6-2-.2 0-3.5-.2-4.4 1.6-.7 1.2.2 2.5-.6 3.2-.6.6-1.3 0-2.9.2-1.8.3-3 1.5-3.5 1.9a8 8 0 0 0-1.9 3c-.8 2.5.2 4.4.6 6.5 0 2.3-2.8 3-3.1 4.7-.3 1.7 2.2 2.2 2.2 4 0 2.3-3.7 2.7-4.6 5.4-.9 2.8 1.8 4.4 2.1 7.6.6 6.2-9.3 9.2-8.8 12.4 1 7.7 62.4 8.2 63.4 1.2.5-3.2-11.7-6.8-11.1-13.6.2-2.3 1.9-4 1-6.7-1-2.8-3.2-3.2-3.4-5.7-.2-2.3 1.8-2.7 1.8-5.1 0-2.8-2.6-3-3.4-6.4Z"/>
      <path fill="#FCEB9C" d="M231.7 122a65.2 65.2 0 0 1-50.6.4c.9-10.8 2-26.4 2.4-36.2l.2-6.9.7-15.3a90.3 90.3 0 0 1 46.2.1l.6 17v2.5l.2 2.6.3 35.8Z"/>
      <path fill="#FFCA99" d="M217.9 62.7v.5a8.6 8.6 0 0 1-8 8 8.6 8.6 0 0 1-8.8-8.7 8 8 0 0 0 4.5-7.5h8.8c-.2.3-1 2.8.5 5.2 1 1.7 2.4 2.3 3 2.5Z"/>
      <path fill="#FFA856" d="M217.9 62.7v.5a29 29 0 0 1-12.4-6.6c.1-.7.1-1.3 0-1.6h8.9c-.2.3-1 2.8.5 5.2 1 1.7 2.4 2.3 3 2.5Z" opacity=".6"/>
      <path fill="#FFCA99" d="M210.3 57.7c6.1 0 11-7 11-15.4 0-8.6-4.9-15.5-11-15.5-6 0-11 7-11 15.5s5 15.4 11 15.4Z"/>
      <path fill="#FFCA99" d="M201 45c.5 2 .2 3.6-.6 3.8-.7.1-1.7-1.2-2.1-3.1-.5-1.9-.2-3.5.6-3.7.8-.2 1.7 1.2 2.2 3Zm18.8-.3c-.4 1.9-.1 3.5.6 3.7.8.2 1.8-1.2 2.2-3 .4-2 .1-3.6-.6-3.7-.8-.2-1.8 1.1-2.2 3Z"/>
      <path fill="#333" d="M214.3 27.4c.5 1.4-.9 3.7-2.2 5-3 3-5.6 1.2-8.8 3.5a12 12 0 0 0-4.1 6.5c-.1-1-.7-6.5 2.4-11.2.3-.4 2.7-4 7-5 1.5-.3 5-.6 5.7 1.2Z"/>
      <path fill="#333" d="M209.2 30.6a22 22 0 0 0 4.3 2c2.4 1 3.3.8 4.3 1.6 1.3.8 2.7 2.6 3.4 7a18 18 0 0 0 0-6.2c-.3-1.6-.9-4.8-2.9-6.4-2.3-1.9-6-1-9 2Z"/>
      <path fill="#FCC" d="M221.5 45.4c0 1-.3 1.7-.6 1.7s-.5-.8-.5-1.7c0-1 .2-1.7.5-1.7s.6.8.6 1.7Zm-21.3.1c0 1-.3 1.7-.6 1.7s-.5-.8-.5-1.7c0-1 .2-1.7.5-1.7s.6.7.6 1.7Z" opacity=".6"/>
      <path fill="#333" d="m214.2 197.5-19 7c-1.8.7-3.7-.3-4.4-2a160.3 160.3 0 0 1-25.1-68.2 11 11 0 0 1 6.6-14.2 16 16 0 0 1 20.5 9.4 285.2 285.2 0 0 1 23.4 63.6l-2 4.4Z"/>
      <path fill="#FCEB9C" d="M165.4 119.6c-4.6-2-2.4-18.2 2-30a69.8 69.8 0 0 1 17-25.6l16.6 6a68.1 68.1 0 0 1-16.8 37.3c-1.6 1.8-13.5 14.7-18.8 12.3Zm88.3-1c4.4-2 1.8-17.7-3.2-29.3a65.6 65.6 0 0 0-19.9-25.2l-14.4 7.2a66.5 66.5 0 0 0 18.2 36c1.7 1.5 14 13.9 19.3 11.3Z"/>
      <path fill="#1A174F" d="m214 98.8-15.4-2.2a1 1 0 0 1-.9-1.2l4.1-29.4c.1-.6.7-1 1.2-1l15.5 2.3c.5 0 1 .6.9 1.2l-4.2 29.4c0 .6-.6 1-1.2.9Z"/>
      <path fill="#FFA856" d="M217.8 87.8c0 .7-.5 1.2-1 1.7a7 7 0 0 1-.8.7c-4.6 3.3-10.8 2.2-16.2 4-1.4.5-2.6 1.2-3.8 2a64 64 0 0 1-4-5.5l-.2-.8c.2-1.2 1.7-2 2.7-2.6.7-.5 1-1 1.5-1.6l.2-.3c1.3-2 3.1-3.7 3.1-3.7l4.5-5.5c.5-.6 1.3-1.5 2-1.4.5.2.8.8 1 1.3 0 .5-.2 1-1 2.5-.7 1.7-1 2-.8 2.1.3.3 1.8-.8 2.2-1 2.2-1.7 3-3.3 3.6-3 .3 0 .3.9.3 1.2 0 1.2-.5 2.1-1.5 3.5l-2 3s4.6-4.8 6.2-5.6c.3-.1.5-.3.9-.2.6 0 1 .6 1 1.1 0 .6-.3 1-.6 1.4l-4 4.7c1.4-1.5 3-3 5-4 .4 0 .8-.2 1.1 0 .4.3.5.6.4 1-.9 3-4.3 3.7-6.2 5.8l3.7-2c.4-.2.8-.4 1.3-.3.9.1 1.5.8 1.4 1.5Z"/>
      <path fill="#FFCA99" d="M200 81c-.1.7.2 1.2.6 1.8l.7.8c3.7 4.3 10 4.7 14.8 7.6 1.3.8 2.3 1.7 3.3 2.7a64 64 0 0 0 5-4.4c.2 0 .5-.3.5-.7.1-1.1-1.2-2.2-2-3.1-.5-.6-.8-1.2-1.1-1.9l-.1-.3a29 29 0 0 0-2.3-4.4 93 93 0 0 0-3.1-6.3c-.3-.7-.9-1.8-1.6-1.8-.5 0-1 .5-1.2 1-.2.5-.1 1 .3 2.6.4 1.9.5 2.2.3 2.3-.3.2-1.6-1.2-1.8-1.5-1.8-2.1-2.3-3.9-2.9-3.8-.4 0-.6.9-.6 1.2-.3 1.2 0 2.2.7 3.8l1.3 3.3s-3.4-5.7-4.8-6.9l-.8-.4c-.7 0-1.2.4-1.3 1-.1.4.1 1 .4 1.4l2.8 5.5a17.7 17.7 0 0 0-4.1-5c-.3-.2-.6-.4-1-.3-.5.2-.6.5-.6 1 .1 3 3.3 4.5 4.8 7-1.2-1-2-2-3.2-2.9-.3-.2-.7-.5-1.2-.5-1 0-1.6.5-1.8 1.2Z"/>
      <path fill="#FEF5CD" d="M247 119.4c2 .2 5.8.6 7.9-1.8 1.8-2 1.4-5 1.2-6.3-.7-4.6-3.7-8.9-15.3-17.2-4.4-3.2-10.3-7.2-17.8-11.4l-8.8 12.8a230 230 0 0 0 20.9 18.6c1.9 1.5 6 4.7 12 5.3Zm-75 .3c-1.8.2-5.7.6-7.8-1.8-1.8-2-1.4-5-1.2-6.3.7-4.6 3.7-8.9 15.3-17.2 4.4-3.2 10.3-7.2 17.8-11.4l8.8 12.8a230.5 230.5 0 0 1-20.9 18.6 23.4 23.4 0 0 1-12 5.3Z"/>
      <path fill="#FFCA99" d="m218.8 203.5-12.8-8.2-8.2 12.8 12.8 8.2 8.2-12.8Z"/>
      <path fill="#E6E6E6" d="M205.9 231.1 186 218.3a1 1 0 0 1-.3-1.4l.9-1.4 21.7 14-.8 1.3c-.3.5-1 .7-1.6.3Z"/>
      <path fill="#FFCA99" d="m208.3 229.5-6.8-4.4-9.1-6-5.7-3.7 12-11.5a33.7 33.7 0 0 0 14.8 9.7l-5.2 16Z"/>
      <path fill="#FFE5CC" d="M196.5 217.7c-1.3.8-2.7 1.2-4.2 1.4l-5.6-3.7 12-11.5c.5.5 1 1.2 1.8 1.8a8 8 0 0 1 1.2 2.8c.8 4.3-2.8 7.8-5.2 9.2Zm11.8 11.8-6.8-4.4a11 11 0 0 1-.5-4.4c.3-2.8 2-7.5 6.3-8.5a7 7 0 0 1 2.3-.2l4 1.6-5.3 16Z" opacity=".6"/>
      <path fill="#fff" d="M186.6 215.5a16 16 0 0 1 7.6-1c.7 0 8.9 1 12.5 7.9 1.5 2.7 1.6 5.4 1.6 7.1l-21.7-14Zm18.6-1.5a.5.5 0 1 1 1 .2.5.5 0 1 1-1-.3Zm.8.2a.3.3 0 1 0-.6-.2.3.3 0 0 0 .6.2Zm.7-1.7a.5.5 0 1 1 .8.3.5.5 0 0 1-.8-.3Zm.7.2a.3.3 0 0 0-.6-.2.3.3 0 0 0 .6.2Zm-3.5 3.2a.5.5 0 1 1 .8.3.5.5 0 0 1-.8-.3Zm.7.2c0-.1 0-.3-.2-.4a.3.3 0 1 0 .2.4Z"/>
      <path fill="#fff" d="M202.9 217.9a.5.5 0 1 1 .8.2.5.5 0 1 1-.8-.2Zm.7.2a.3.3 0 1 0-.6-.2.3.3 0 0 0 .6.2Zm-3.8-7.1a.5.5 0 0 1 .5-.2.5.5 0 0 1 .4.4.5.5 0 0 1-.5.5.5.5 0 0 1-.4-.6Zm.8.3-.1-.3h-.2a.3.3 0 0 0-.3.2.3.3 0 0 0 .5.2v-.1Zm0-2.1.1-.2a.5.5 0 0 1 .8.4.5.5 0 0 1-.5.4c-.1 0-.3 0-.3-.2a.5.5 0 0 1-.1-.4Zm.7.2a.3.3 0 0 0-.5-.3.3.3 0 0 0 .2.5.3.3 0 0 0 .3-.2Zm-2.7 3.7.1-.2a.5.5 0 1 1-.1.2Zm.7.2v-.2a.3.3 0 1 0-.5.3.3.3 0 0 0 .5 0Zm-2.1 1.5.1-.2c.1 0 .2-.1.4 0a.5.5 0 1 1-.5.2Zm.7.3a.3.3 0 1 0-.6-.2.3.3 0 0 0 .6.2Z"/>
      <path fill="#fff" d="M203.2 218a15.6 15.6 0 0 0-5.7-3.2v.1a97.6 97.6 0 0 1 6.8 1c-.5-.5-.6-1.3-1-2l-.8-1-1.1-.8-1.3-1a81.8 81.8 0 0 1 5.8 1.2h.4l.3.1c.2.1.4.2.4.4h.1c0-.4-.6-.5-.9-.6a78.6 78.6 0 0 0-6.2-1l1.2.9 1.1.9.9 1 .4 1c.2.3.3.7.6 1l.1-.1a103.1 103.1 0 0 0-6.8-1 15.2 15.2 0 0 1 5.6 3.2h.1Z"/>
      <path fill="#fff" d="M207.1 212.5c.1-.5-.3-1-.6-1.2l-.7-.5-.3-.3-.3-.3c0-.2-.1-.3-.3-.3 0 0 0-.1-.2 0h-.2a49.4 49.4 0 0 1 .5-.3 48 48 0 0 1-4.4-.4v.2c.4 0 .8.2 1.1.5l1 1 2 2.1 1 1.2a38.4 38.4 0 0 1-6.5-1.1 49.4 49.4 0 0 1 2.7 2.8l.8 1c.3.2.5.6.5 1h.1c0-.4-.2-.7-.4-1l-.7-1a48.3 48.3 0 0 0-3-3v.2a38.6 38.6 0 0 0 6.6 1 4299.5 4299.5 0 0 1-3-3.2l-1-1c-.3-.3-.7-.6-1.2-.7v.2a47.3 47.3 0 0 0 4.4.3v-.1a60 60 0 0 1-.4.4h.3l.2.2.2.4.3.2c.4.4.9.6 1.2 1 .2.2.2.5.2.7h.1Z"/>
      <path fill="#fff" d="M204.9 209.8c.5.3 1.2.2 1.8 0h.6l.7-.4.2-.5c0-.2-.2-.5-.4-.6l-.4-.2-.4-.1c-.2 0-.5-.1-.8 0-.3 0-.5.3-.7.5l-.8.7-.2.1v.1l1-.7c.2-.2.3-.5.3-.9v-.5a1 1 0 0 0-.4-.4l-.5-.2a3.1 3.1 0 0 0-1.2-.3h-.3l-.1.3a3.4 3.4 0 0 0-.2 1l.2.6.3.2a10.7 10.7 0 0 1 .9 1l.3.3h.1a.9.9 0 0 1-.2-.3l-.4-.4a11 11 0 0 0-.7-.7l-.2-.2-.1-.3v-1l.1-.3h.5c.4 0 .8 0 1.2.3.2 0 .3.1.4.3l.2.4c0 .3 0 .6-.2.9l-.8.7-.2.1v.1l.8-.6.4-.3.3-.3c.3-.1.5-.2.8-.1a3 3 0 0 1 .7.2c.3.1.8.6.5 1l-.6.3-.6.2c-.6 0-1.3.2-1.9 0 0-.1-.1 0 0 0Z"/>
      <path fill="#333" d="m220 204.5-19.5-5.2c-1.9-.5-3-2.4-2.5-4.2a283.2 283.2 0 0 1 18.7-70.3c.2-.7 1.3-4.4 5.2-6.7a11 11 0 0 1 8.4-1.1 16 16 0 0 1 11.3 19.6 227.3 227.3 0 0 1-17.4 65.5l-4.2 2.4Z"/>
      <path fill="#1A174F" d="M205.3 69a.9.9 0 1 0 0-1.8.9.9 0 0 0 0 1.7Z"/>
      <path fill="#1A174F" d="M205.4 68.4a.4.4 0 1 0 0-.8.4.4 0 0 0 0 .8Zm2 .2a.4.4 0 1 0 0-.9.4.4 0 0 0 0 .9Z"/>
    </g>
    <g clip-path="url(#j)">
      <path fill="#FF7C00" d="M11.4 199.8s-1.2-14.5 11.6-16c6.5-.7 45.8-1.6 56.4.6 9.3 2 8 11.5 7.7 15.2-.2 3.8-4.1 12.1-4.1 12.1l-62.3-1.5-9.3-10.4Z"/>
      <path fill="#957B04" d="M17.3 198.6c16.2-2.4 47.3-4 62.7.5v14.2l-62.7-.6v-14Z"/>
      <path fill="#F8EEE5" d="M68 197.9s2.1-3.7 3.5-3.1c1.3.5.9 2.2.9 2.2s1.6-3.2 3.4-2.4c1 .5 1 2.8 1 2.8s2.5-1 2.7 1c.2 2.2-2.4 2.1-2.4 2.1s.7 1.1-.4 2c-1 .7-3-.8-3-.8s.1 1.9-1.2 2c-1.4.1-3.3-1.4-3.3-1.4s.4 2-.6 1.6c-1-.3-3.8-2.6-3.8-2.6l3.3-3.4Z"/>
      <path fill="#F8EEE5" d="M30 193.3s-3-.8-3.6.2c-.6 1 0 2.4 0 2.4s-3.2.4-3.1 2.1c0 1.8 2 1.8 2 1.8s-2.5 1.4-2 3.2c.4 1.8 2.4 1.4 2.4 1.4s-.2 2.2 1 2.7c1 .4 2.2-1.4 2.2-1.4s1.3 2.2 3.3 2.2c2 0 2.1-2.2 2.1-2.2s.9 1.4 2.5 1.4c1.7 0 1.4-1.4 1.4-1.4s1.6 2.2 3.6 2.2 3.3-2.2 3.3-2.2 2 1.2 3.8 1c1.8-.3 2.4-2.3 2.4-2.3s1.3 2.4 3.1 2.2c1.8-.1 2.4-2.5 2.4-2.5s2 1.6 4 1c2.1-.5 1.5-2.5 1.5-2.5s3.1 1.3 4.7 1.2c1.5-.1 1.6-2.7 1.6-2.7s4 1.4 4.8-.7c.8-2-.5-3.8-.5-3.8s3.8-2.6 2-4.4c-1.5-1.2-3.4-.5-3.4-.5s.2-2.5-2.2-3.2c-2.6-.7-4 1.2-4 1.2s-1-3.4-3.7-3.4-2.7 2.4-2.7 2.4-.8-1.7-2.5-1.5c-1.7.3-2 1.5-2 1.5s-1.2-2.3-5-2c-3.7.4-4.2 4-4.2 4L30 193.3Z"/>
      <path fill="#999" d="M32.4 177.6c.2-.7-.2-1.2-1.3-1.4-1.4-.3-1.8.7-1.8.7s-2.6.7-3 2c-.5 1.1.2 1.3.2 1.3s-3 2.2-3 3.6 1.6 1 1.6 1-2 2.7-1.8 3.8c.3 1 1.9.4 1.9.4s-1.6 2.5-.5 3.2c1 .7 2-.6 2-.6s.1 1 1.3 1c1.7 0 2-4.2 2-4.2s.3 1 1.4.9c1-.1-.2-4-.2-4s1 .7 1.7 0c.7-.8-.9-4.5-.9-4.5s1.3.5 1.3-1.1c0-1.5-.9-2-.9-2Z"/>
      <path fill="#333" d="m28.7 189.9 15.4.4.3 1.8s-2.2 2.5-8 2.5c-5.7 0-7.7-2.3-7.7-2.3v-2.4Z"/>
      <path fill="#999" d="M29.4 200.5s5-.1 9.1 2.2c4.2 2.2 5 5 4.5 5.1-.4.1-1.2-.4-1.2-.4s.9 1.1.3 1.2c-.6.1-1.4-1-1.4-1s.5 1.3 0 1.4c-.6 0-2.6-2.3-6.6-3.7-4.1-1.3-6.9-1-6.9-1l2.2-3.8Z"/>
      <path fill="#F8EEE5" d="M26.9 205.1s2.7.8 3-.3c.2-1-2.2-1.4-2.2-1.4s1.6 0 1.8-.5c.1-.6-1-1.2-1-1.2s1.6.3 2.1-.6c.5-1-2.4-2.2-2.4-2.2L27 205Z"/>
      <path fill="#FAD738" d="M35.2 198c1 0 1.8-.8 1.8-1.9 0-1-.8-1.9-1.8-1.9s-1.9.9-1.9 2c0 1 .8 1.9 1.9 1.9Z"/>
      <path stroke="#B3B3B3" stroke-linecap="round" stroke-linejoin="round" stroke-width=".6" d="M36.3 196.4a1.1 1.1 0 1 0-2.2-.5 1.1 1.1 0 0 0 2.2.5Zm-1.1-1.9s-.8-1.4 0-3.4"/>
      <path fill="#F8EEE5" d="M30.4 177.7s2.2-1.7 6-1.6A13 13 0 0 1 43 178a8.3 8.3 0 0 1 .9 6.2s1.5-.4 2.2.7c.8 1-.4 2.2-.4 2.2s1.6.2 1.5 1.8c0 1.5-2 1.4-2 1.4s.6 1.2-.8 1.8c-1.4.6-2.2-.6-2.2-.6s-.4 1.7-1.7 1.7c-1.4 0-1.7-1.8-1.7-1.8s-.5 1-1.4 1c-.9-.1-1-1.3-1-1.3s0 2.2-2.1 2c-2.2 0-2.3-1.6-2.3-1.6s-.6 1-1.8.7c-1.1-.3-.9-1.6-.9-1.6s-.8.8-1.4.5c-.9-.4-.6-1.2-.6-1.2s-.7.6-1.2-.2c-.6-1 .5-1.7.5-1.7s-1.1 0-.9-1.3c.2-1 1.5-1.2 1.5-1.2s-.4-1.2.3-1.5c.9-.4 1.8 0 1.8 0s-1.6-3.4 1.1-6.3Z"/>
      <path fill="#333" d="M31.6 185.3c-.2.5 1 .5 1 .5s0 1 .6 1 .8-.8.8-.8 1.2 0 1.3-.5c.2-.9-3.5-1.3-3.7-.2Z"/>
      <path fill="#999" d="M40.7 177.7c-.1-.7.3-1.3 1.5-1.5 1.4-.3 1.9.7 1.9.7s2.7.8 3.2 2c.5 1.4-.2 1.6-.2 1.6s3 2.3 3 3.8c0 1.4-1.6 1-1.6 1s2.2 3 2 4c-.4 1.1-2 .4-2 .4s1.6 2.7.5 3.5c-1.2.7-2.2-1.6-2.2-1.6s-.1 2-1.3 2c-1.8 0-2.2-4.4-2.2-4.4s-.3 1-1.4.9c-1.1-.2.2-4.3.2-4.3s-1.2.8-1.9 0 1-4.7 1-4.7-1.4.5-1.4-1.2c0-1.6 1-2.2 1-2.2Zm26.8 15.8s1.3-2.4 3-1.7c1.6.7 1.2 2.5 1.2 2.5s1.8 0 2 1.4c.4 1.5-1.3 1.5-1.3 1.5s2 1.7 1.7 3.4c-.4 1.6-2.2.2-2.2.2s1 2.5.4 3.2c-.6.8-1.8-.7-1.8-.7s.6 1.8-.5 2.5-1.7 0-1.7 0-.1 1.2-.9 1.4c-1 .4-1.6-.4-1.6-.4s-3.4 4.1-4.2 3.5c-.5-.4.2-1.3.2-1.3s-1.2.9-1.5.4c-.3-.4.5-1.3.5-1.3s-1.1.8-1.4.3c-.2-.6 2.7-3.1 2.7-3.1s-.8-.2-.7-1.3c0-1 1-1.5 1-1.5s-1-.6-.5-2.1c.7-1.6 1.8-1.9 1.8-1.9s-.9-1-.3-2.2c.5-1 2.3-1.3 2.3-1.3s-.1-2.4 1.8-1.5Z"/>
      <path stroke="#333" stroke-linecap="round" stroke-linejoin="round" stroke-width=".6" d="M32.3 188.3c.4-.3.7-.6 1-1.1.2.5.6 1 1 1.3m-1-2.2v.9"/>
      <path stroke="#F8EEE5" stroke-linecap="round" stroke-linejoin="round" stroke-width=".6" d="M44.1 179.5s3.1 2.6 2.5 4c-.3.7-1.5-.1-1.5-.1s2 3 1.4 3.8c-.5.8-1.5-.6-1.5-.6m24.3 8.5s-1.3 0-1.4 1c-.1 1 .9 1 .9 1s-3 1-3.4 2.8c-.3 1.8 1.9 1.5 1.9 1.5s-1.2 1.1-.7 1.7c.5.7 1.7-.1 1.7-.1m-5.4 2.2c.6.3 1.2.2 2-.3-.3.4 0 1.5.5 1.6m-38.3-23.3s-1.1.3-1.2-.7c-.2-1 1.9-2.3 1.9-2.3s-.5-.3-.5-.7c0-.7 1.6-1.4 1.6-1.4"/>
      <path fill="#999" d="M42.7 200.1s-5 0-9.2 2.2c-4.2 2.2-5 5-4.5 5.1.5.2 1.2-.4 1.2-.4s-.8 1.1-.3 1.2c.6.1 1.4-1 1.4-1s-.5 1.3 0 1.4c.6.1 2.6-2.3 6.7-3.7 4-1.3 6.8-1 6.8-1l-2.1-3.8Z"/>
      <path fill="#F8EEE5" d="M45.1 204.7s-2.7.8-3-.3c-.1-1 2.2-1.3 2.2-1.3s-1.6 0-1.7-.6c-.2-.6.9-1.2.9-1.2s-1.6.3-2.1-.6c-.5-1 2.4-2.2 2.4-2.2l1.3 6.2Z"/>
      <path stroke="#F8EEE5" stroke-linecap="round" stroke-linejoin="round" stroke-width=".6" d="M35.6 206a17.7 17.7 0 0 1 7.1-2m-.7-3.9c-2.2 0-6 .8-8.5 2.2a13 13 0 0 0-2.9 2"/>
      <path stroke="#B3B3B3" stroke-linecap="round" stroke-linejoin="round" stroke-width=".6" d="M53.5 201c.2 0 2.5-1-.9-1.8-1.7-.4-4-.1-4-.1s.7-1-.5-1.5c-1.3-.5-2.7.3-2.7.3m7-5.3s1.8-1.1 3.2-.4c1.2.7.3 1.8.3 1.8s2.4-.8 3.5-.2c1.1.6.3 1.3.3 1.3"/>
      <path fill="#FFA856" d="M87.4 196c4.2 5.2-.3 18.3-4.4 19.4-4.1 1.1-67.2.8-68.9-.6-3-2.4-4.8-14-1.5-17 3.2-3 8.8-2 10.3 1.3 1.6 3.5 1.2 10.7 1.2 10.7h50.5s-1.7-8.2 1.2-13c1.6-2.8 10-2.8 11.6-.9Z"/>
    </g>
  </g>
  <defs>
    <clipPath id="a">
      <path fill="#fff" d="M0 0h444v231H0z"/>
    </clipPath>
    <clipPath id="i">
      <path fill="#fff" d="M162.8 19.9h93.5v211.4h-93.5z"/>
    </clipPath>
    <clipPath id="j">
      <path fill="#fff" d="M10.8 170H89v46H10.8z"/>
    </clipPath>
  </defs>
</svg>
