<svg xmlns="http://www.w3.org/2000/svg" width="121" height="121" fill="none">
  <path fill="#F8EEE5" d="M33.3 13.3C18.5 12.6-2 24.6 1.3 41.5c2 8 9.2 13.7 12.1 21.3 5.7 13.9-2.8 35.6 19.2 37 5.6.5 11.5.2 16.8 1.5 7 1.7 14.6 6.9 21.7 2.8 4.4-2.3 7.5-7 11.8-9.7 3.3-2.3 7.1-3.7 10.5-5.8a26.7 26.7 0 0 0 12-20.8c-.6-7.2-13.5-10-4.3-20.8 4.8-5.8 2.3-15.1.9-22.6-1-7.3-6-12.4-13.7-11.2-5.8.7-7.9 5.2-13.4 5.9-2.2.2-4.2 2-13.2.9-10.6-1.3-17.5-6-28.2-6.7h-.2Z"/>
  <path fill="#0D7D50" d="M113 91.1a15 15 0 0 0 7.4-1.8c.3-1.5.6-3 .3-4.7-3.3 3.4-6 3.2-6.6 3 1.9-.2 5.2-3.5 5.8-5.3-.8-2.2-1.9-4-.7-6.3-3 .3-6.4-.1-9-.9a7.7 7.7 0 0 0-1.5 7.3c-.9-1-1-2.3-1-3.5 0-1.4.3-2.8 1-3.9-3.3-.2-6.2 2-6.9 3.1 0 2.6 1.1 5 3.2 7-2-.7-4.2-4.7-4-5.9a7 7 0 0 0-.8 8.1c.8 1.6 2.7 4.4 6.4 3.7-2.3 2-11.7 3.6-13.6 6l.4.3c2-2.3 11.4-4 13.7-6-.8 1.8-.3 3.5.7 4.7a6 6 0 0 0 8 .7c2-1.4 3.7-3.8 4.5-6-3 2-6.2 1-7.4.4Zm-1.3-12a5 5 0 0 1 2.4-2 9 9 0 0 0-2 3.4l-.5 1h-.2l-.1-.1c-.3-.5 0-1.6.4-2.3Zm3 16.6c-.6.2-1.7-.1-2.3-.6-1-.8-1.6-1.9-1.7-2.6.8 1 2 1.8 3.1 2.4.4.2.7.3 1 .6v.1l-.2.1Z"/>
  <path fill="url(#a)" d="M115.2 59.4a6 6 0 0 0 1 5.2 17.2 17.2 0 0 1-4.4 3.2c-1.2.6-1.4 1.1-.3.8 1.9-.5 3.7-1.4 5.1-2.8.3 1.7.2 3.4-.3 5-1.3 1-3 1.7-4.6 2-1.7.4-3 .1-4.4-.5a4 4 0 0 0-2.1-.4c-.4 0-1 .3-1 .7 0 .4.3.6.6.8 1.6.7 3.6 1 5.5.8 2-.1 4.1-1.5 6-2.4-.7 2-1.9 4.4-3.2 6.1a12 12 0 0 1-4.8 4.4c-1.1 0-2.2-.4-3.1-.9-1-.5-1.8-1.1-2.7-1.7-.4-.2-1.2 0-.8.5.8 1 2.7 2.8 5.8 3a11.5 11.5 0 0 1-6 2.1c-1.1-1.3-2-3-2.7-4.6l-.4-.5a.6.6 0 0 0-.6 0c-.3.1-.3.5-.2.7a7.5 7.5 0 0 0 3.2 4.5 6 6 0 0 1-3.8-1.3 6 6 0 0 1-2-3.1c-.2-.9-.3-1.8 0-2.8.2-.9 1-1.8 2-2.3-1.6.8-3.2 1.6-5 1.6a4 4 0 0 1-3.8-2.4c-.5-1.4-.1-3.2 1.2-4.7a3 3 0 0 0 1.6 3.4c.1 0 .3.2.4.1.2 0 .3-.3.3-.4l-.2-.5c-1-1.3-1.7-2.8-2-4.3a7.3 7.3 0 0 1 3.5-5.5 20 20 0 0 0 0 3.9c.3 1.2.7 2.5 1.4 3.5.1.2.3.3.6.2l.2-.3-.2-.4a11.3 11.3 0 0 1-1-7.1 13 13 0 0 1 5.2-3.2c-2 2.4-3.2 6.8-2 8 .1.1 1.2 1 1.5-.1.4-1.4-.6-2.8-.4-4.2.2-1.4.8-2.9 2-4 2-1.1 4.5-1.6 6.7-1.3-1 .2-1.5 1-2 1.7-.7 1.1-1.2 2.2-1.7 3.4-.2.8.2 1 .6.4l1-2a8 8 0 0 1 3.3-3.3l2.2 1a7 7 0 0 0 2.5.6c.9 0 1.8-.2 2.4-.6Z"/>
  <path fill="#0D7D50" d="M113.8 65.8s-21.8 2-23.7 27.9h1s.3-22.9 22.7-27.9Z"/>
  <path fill="#258A62" d="M88.4 83c.7-.3 1.3-.7 1.8-1.2 1.3-1.3 1.1-3.6 0-5a8.3 8.3 0 0 0-4.7-3c-.7-.1-1.4-.2-2-.5a8 8 0 0 1-2-1.1c.3 1.3.1 2.8-.4 4 .9.7 2 1 3.1 1.2-1.1.6-2.5.5-3.6 0-.7 1.2-1.6 2.3-2.2 3.6-.8 1.5-1.2 3.3-.4 4.8 1 1.6 3.3 2 5 1.3a5.8 5.8 0 0 0 2.8-3.1c1.3 3.3 2.3 6.6 3 10l.7-.2A67 67 0 0 0 86.2 83c.7.3 1.5.2 2.2 0Zm-6 .1a2 2 0 0 1-1.5 0c-.4 0-.8-.3-1-.6l.8.1c1 0 1.8 0 2.8-.3-.3.4-.7.7-1.1.8Z"/>
  <path fill="url(#b)" d="M108.6 105.3h-8.1a13 13 0 0 0 8.4-12.3H81.5c0 5.6 3.6 10.4 8.5 12.3h-7.4a1 1 0 0 0-1 1c0 .4.5.8 1 .8h26c.5 0 1-.4 1-.9s-.5-1-1-1Z"/>
  <path fill="#957B04" d="m83.2 84.5 3.6 22.7h-2l-6.6-23.7 5 1Zm-66.7 1.1L13 108.4h2l6.6-23.8-5 1Z"/>
  <path fill="#503116" d="m15 89.3 4.8 1.8 1.2-3.7-6 1.9Z"/>
  <path fill="#957B04" d="m52.7 85.6 3.6 22.8h-2l-6.7-23.8 5.1 1Z"/>
  <path fill="#503116" d="m53.4 90-3.9 1.6-1.1-3.8 5 2.2Zm30.4-1.5-3.6 2.3-1-3.5 4.6 1.2Z"/>
  <path fill="#005231" d="m47.5 31.9 33.1-1.4v26.2l-37.6.8 4.5-25.6Z"/>
  <path fill="#3D9773" d="M28 51s5.3-.3 5-6l-1-5.6s-1-7 4.5-7.6h9.1s3 0 2.7 3l-5.5 51.7s.1 2.8-10.4 2.8L28.2 51Z"/>
  <path fill="#0D7D50" d="M24 50.7c2 .3 8.2.2 11.3 0 3.2-.2 4.1-2.8 3.9-6-.2-3.2-.4-1.7-.2-5.2s1.5-7.6 7.5-7.7h5.4s2.2-.2 2 2.8l-4.2 51.6s0 2.9-8 2.8l-24.9-.1.6-28.7s-.7-5.8 3.2-9.4c0 0 1.4-.4 3.4-.1Z"/>
  <path fill="#005231" d="M17.9 78s4.9-9 21.5-10.6c0 0 10.4-.3 14.7.6l-.6 11.7-35.5-1-.1-.8Z"/>
  <path fill="#3D9773" d="M68.5 51s4-.2 3.8-6l-1-5.5S69 30.8 75 30.7l7.1.3s2.2.9 2 3.9l-4.3 51.8s.1 3-8 2.8L68.4 51Z"/>
  <path fill="#005231" d="M56.1 51.2H74s4-.3 3.9-6l-1-5.6s-2.3-9 3.7-9.1l7 .3s2.2 1.1 2 4.2l-4.3 51.8s.1 3-8 2.8l-26.9.4L53 60.7s-.6-5.8 3.2-9.5Z"/>
  <path fill="#3D9773" d="M20 50.3s-7.3 0-8.3 10.3l.1 26.1s0 2.8 7.5 3.5l30.2-.1s5.4.4 5.2-5.3l.1-23.7s1-8.4 6-10.3h-6.3s-5.6 2.7-6.4 9.7L47.8 77l-29.8.1.5-17.2s-1.4-5.3 5-9c0 0-1.2-.6-3.5-.6Z"/>
  <defs>
    <linearGradient id="a" x1="90" x2="115.5" y1="79.6" y2="58.1" gradientUnits="userSpaceOnUse">
      <stop stop-color="#F8CD07"/>
      <stop offset=".8" stop-color="#0D7D50"/>
    </linearGradient>
    <linearGradient id="b" x1="109.5" x2="81.5" y1="100.1" y2="100.1" gradientUnits="userSpaceOnUse">
      <stop stop-color="#CC6300"/>
      <stop offset="1" stop-color="#FFA856"/>
    </linearGradient>
  </defs>
</svg>
