<svg xmlns="http://www.w3.org/2000/svg" width="50" height="50" fill="none">
  <g clip-path="url(#a)">
    <path fill="#F8EEE5" d="m17.2 41.5-5.7-1C3.2 38.3-2 28.2.8 22.2V22c3-5.7 6-3.4 7.3-5.7C9.8 13.3 9.3 1.3 20 2c6.2.5 8.6 10 10.6 10 2.5 0 6-4 12.4-1.6 3.5 1.4 7.4 6.7 7 12.2-.9 14.6-12.7 21.6-32.7 18.9Z"/>
    <path fill="#CFE5DC" d="m23.2 25.9-7.7 1.6-.9-1.2c0-.2-4.1.6-5.8 1-1.1.3-2.3.5-2.2.9l.7 1.2c-3 .8-5.4 1.5-5.5 1.9a52 52 0 0 0 4 9c.2.2 20 7.6 20.6 7 3.5-4.2-3.2-21.4-3.2-21.4ZM8 28.6l3.8-1c1-.1 2.3-.4 2.4-.2l.2.3-6 1.4-.4-.5Z"/>
    <path fill="#258A62" d="M26.8 14.8 23 15l-3.2.7.2 1 6.4-.7c.4 0 .8-1 .8-1l-.4-.3Z"/>
    <path fill="#0D7D50" d="m26.7 15-.5 1 .7 1.4 1.1-.3-.5-1.3-.8-.8Zm-7.4.5s-.4-.2-.5 0l-.3 1 1 2 1.2-.3-.6-1.6-.8-1.1Z"/>
    <path fill="#62AB8D" d="m28.7 17-1.6-2.7c-.1-.2-4.2.2-5.9.5-1.2.2-2.5.5-2.4.7l1.4 2.8 1.3-.3s-1.3-1.9-1.2-2c.1 0 2.5-.5 3.9-.6.9-.1 2.2-.3 2.3-.1.2 0 1 1.9 1 1.9l1.2-.2Zm-4 3.1L11 22.8l3.7 12.6s22.8-4.8 23.7-5.4c1-.7-1.4-7-1.4-7.2a27 27 0 0 0-1.7-4.3l-11.7 1 1.2.6Z"/>
    <path fill="#005231" d="m35 19 3.5 10.8h.3a89 89 0 0 0-.3-8.6c0-1.1-.2-5.4-.5-5.4s-3.1 3-3 3.2Z"/>
    <path fill="#08375E" d="M38 15.8 35 19s-23 3.4-24 5c-1.1 1.5-.8-3-.5-3.4.3-.5 2.4-1.1 4-1.4 1.7-.2 24.6-3.8 23.5-3.4Z"/>
    <path fill="#0D7D50" d="M10.4 20s0-.2.3-.5a466 466 0 0 1 27.5-4.1c.2.1.3 1.5.4 2.2 0 .6.8 12.2.7 12.3 0 .2-.3.6-.5 0-.1-.7-.6-14-1.2-13.8-.5.2-26 3.8-25.9 4.1l3.2 15-.3.2-4.2-15.3Z"/>
    <path fill="#005231" d="M8.3 23.4c.2.3 6 12.1 6.1 12h.3l-4-15.8c0-.3-2.6 3.5-2.4 3.8Z"/>
    <path fill="#08375E" d="M15.3 35c0 .2.2.3.4.4 2 1.1 9.8 4.3 9.8 4.3l23-6.9-9.7-3h-.6L15.3 35Z"/>
    <path fill="#B3B3B3" d="m40.7 34.5-1.4.4v.2l1.5-.4v-.2Z"/>
    <path fill="#CC6300" d="m40 34.4-4 1.1.2.8 4.1-1.1-.2-.8Z"/>
    <path fill="#CC6300" d="m37.1 35-1.3.4.3 1 1.3-.3-.3-1Z"/>
    <path fill="#FFA856" d="m36.1 35.1-.4.1.3 1.4.5-.1-.4-1.4Z"/>
    <path fill="#62AB8D" d="m38.4 35.2-.9.2v.1l.9-.2Zm.6-.1h-.3v.1h.3V35Zm.5-.1s0-.1 0 0h-.3v.1h.3V35Z"/>
    <path fill="#106EBC" d="m14.7 35.4 1.2-.1-.1.1L39.2 30l-.2-.3h-.2l-.6.2-22.7 5-.6.3-.2.2Z"/>
    <path fill="#106EBC" d="M48 33a207 207 0 0 0-8.7-2.7c-1.2-.4-.5-.6-.5-.6s7 2 9.6 2.9c-.2 0-.3.2-.5.3Z"/>
    <path fill="#B3B0E8" d="M30 32.4s-.3-.2-.4.2l-.1.4a9 9 0 0 0 1 2.2l.6-1-.4-.8-.8-1Z"/>
    <path fill="#8D89DC" d="m35.6 32.7-.7.8c-.1.2-4.3 1.8-4.4 1.7 0-.1.2-.7.6-1 .4-.3 4.2-1.9 4.5-1.5Z"/>
    <path fill="#D0E7FB" d="M35.2 31.6s-.4-1.2-.6-1.1l-2.9 1c-1 .3-2.2.8-2 1l.8 1.7c.1.3 0 .5.6.4.4-.2 4.4-1.7 4.4-2 .1-.1-.2-.7-.3-1Z"/>
    <path fill="#A1D0F7" d="M32.6 31.7a.8.8 0 0 0-.2.4.8.8 0 0 0 1.4.6c.2-.3.2-.8-.1-1a.8.8 0 0 0-1.1 0Z"/>
    <path fill="#62AB8D" d="M32.4 32v.1l.6.1-.6-.2Zm-.4 1.3v.2h.3v-.2H32Zm-.2-.4v.1c0 .1.2 0 .2 0 0-.1-.1 0-.2 0Zm-.2-.5v.2h.2v-.2h-.2Zm-.2-.4c-.1 0 0 0 0 .1h.2v-.2h-.2Zm0 1.6v.2h.2v-.2h-.2Zm-.3-.5v.2h.2v-.2h-.2Zm-.1-.4c-.1 0-.1.1 0 .2h.1v-.2H31Zm-.3-.5v.2h.2v-.2h-.2Z"/>
    <path fill="#FFA856" d="M17.9 32.3v.3l2.3 5.9c0 .2.2.3.4.2L34.8 34c.1 0 .2 0 .1-.2l-.1-.1-16.7-1.5-.2.1ZM20 34l8.6.6-7.4 2.4-1.2-3Z"/>
    <path fill="#0C528D" d="M38.8 30.7s-.3-.4-.4 0l-.2.7.4.7c0 .2.5-.6.5-.6l-.3-.8Zm-.3 1.5s-9 2.2-9.2 2.5c-.3.3 0 1 .2 1.1.3 0 9.5-2.3 9.6-2.5.1-.2 0-1.2-.6-1Z"/>
    <path fill="#AAD1C2" d="M40.6 34c-.6-.7.2-.7.2-.9 0-.5-.3-1.2-.6-1.3h-.5c-.1 0-.6-.7-.7-1.2-.1-.4-.4-.2-.5-.1l.2 1.1c.1.2-.4.7-.4.7s.5 0 .6.5c.1.4-.1.7-.1.7l.4.3s-.3 1.4 0 1.6c.2.1.8.2 1.3 0 .4-.1.5-.3.7-.4.2-.2 0-.4-.6-1Z"/>
    <path fill="#0C528D" d="M40.2 35.3c.5 0 .9-.3.9-.5s-.5-.3-1-.2c-.5 0-1 .3-.9.5 0 .2.5.3 1 .2Z"/>
    <path fill="#62AB8D" d="m30 34.8 4.8-1 .2-.9 1.4-.7 1 .4v.6l-1-.3-.8.7.2 1 1 .4.9-.7v.6l-.6.8-1.5-.1-.6-.8-5 1v-1Z"/>
    <path fill="#0D7D50" d="M19.9 36a.3.3 0 0 0-.3.4l.4 1.9c0 .2.2.3.4.2l10.4-2a.3.3 0 0 0 .3-.4l-.4-1.9c0-.2-.2-.3-.4-.3L19.9 36Z"/>
    <path fill="#AAD1C2" d="m31.5 35.9.1.4 6.2-1.6h.1l.9-.2-.2-.5-.8.3h-.1l-6.2 1.6Z"/>
    <path fill="#CC6300" d="M24.6 36.8c-.2 0-.3.3-.2.5l.3 1.3c0 .2.3.4.5.3l4.8-1.2.3-.2.8-.6h.2l.7.1h.1v-.2l-.4-1.6a.2.2 0 0 0-.2 0l-.6.3h-1.4l-4.9 1.3Z"/>
    <path fill="#62AB8D" d="M20.2 37.3c.2.6.1 1.2 0 1.2-.2 0-.4-.4-.5-1-.2-.6-.2-1.2 0-1.2.1 0 .4.4.5 1Z"/>
    <path fill="#CC6300" d="M24.9 39v-1.1c-.1-.5-.4-1-.5-.9-.2 0-.2.5 0 1 0 .6.3 1 .5 1Z"/>
    <path fill="#72B8F3" d="m34 36.7.8-.4v-.1h-.9l.2.5Z"/>
    <path fill="#A1D0F7" d="m28.8 37.5.2 1 5-1.7s.3-.1.2-.4c-.1-.3-.3-.3-.3-.3l-5.1 1.4Z"/>
    <path fill="#08375E" d="m29.1 36.9-.2.1v1c.2.5.5.9.8.8.2 0 .3-.6.1-1-.1-.6-.5-1-.7-1Z"/>
    <path fill="#0C528D" d="M29 37c-.3 0-.4.5-.2 1 .1.5.5.9.7.8.2 0 .3-.5.1-1-.1-.5-.4-.9-.7-.8Z"/>
    <path fill="#0D7D50" d="m24.4 39.3.6-1 4-1.1.4 1.4-5.3 1.6c0-.3.1-.7.3-1Z"/>
    <path fill="#0D7D50" d="M29 37.2c-.2 0-.2.4-.1.8s.4.7.5.6c.2 0 .3-.4.1-.8 0-.4-.3-.7-.5-.6Z"/>
    <path fill="#005231" d="M16.7 43.3c.3 0 9.5 4 9.7 4 .6 0-.6-7.7-.6-7.7l-6.3-2.4c-2.7-1.2-5.3-2.3-5-1.7 0 .3 1.9 7.7 2.2 7.8Z"/>
    <path fill="#352E9E" d="m42 32.8-.2-.1v1h.3v-.9Z"/>
    <path fill="#6861D1" d="M43.9 33v-.4h-.4L42 33v.8l1.8-.5V33Z"/>
    <path fill="#8D89DC" d="M43.5 32.3h-.1l-.4.1-.8.2-.4.1.2.3 1-.1.7-.3h.2l-.4-.3Z"/>
    <path fill="#6861D1" d="m41.1 33.9-.5-.2v1.7h.6l.1-.8-.2-.7Z"/>
    <path fill="#6861D1" d="m44.3 33.5 2.2-.5v.7c0 .2-.2.2-.3.2l-5 1.4v-1.2l3-.6Z"/>
    <path fill="#8D89DC" d="m46.5 33-1.5.4h-.1a142.9 142.9 0 0 1-1.4.4l-.6.1-1.8.4-.5-.6.7-.2.8-.2h.1l1.6-.3.5-.2c1-.2 1.4-.3 1.5-.2.3 0 .7.3.7.4Z"/>
    <path fill="#106EBC" d="M25.8 39.7h-.4c-2-.4-10-4.4-10.7-4.4.1-.2.6-.3.6-.3.4.1 10 4.2 10.3 4.2.5 0 21.6-6.2 22.2-6.3l-.2-.1.6-.3.8.2c.2.1.2.2.1.3H49l-23 6.7Z"/>
    <path fill="#3D9773" d="M49.1 33s-.7 7.4-1.3 7.7c-.6.2-21.3 6.8-21.4 6.5l-.9-7.5h.1l23.5-6.8Z"/>
  </g>
  <defs>
    <clipPath id="a">
      <path fill="#fff" d="M0 0h50v50H0z"/>
    </clipPath>
  </defs>
</svg>
