<svg xmlns="http://www.w3.org/2000/svg" width="230" height="60">
  <g fill="none">
    <path fill="#2183F0" stroke="#034EA2" d="M2.2.5C1.2.5.5 1.5.5 2.7v54.8c0 1.2.7 2 1.7 2h225.5c1 0 1.8-.8 1.8-2V2.7c0-1.3-.8-2.2-1.8-2.2H2.2Z"/>
    <path fill="#FFF" d="M85.5 26.3a7 7 0 0 1-3.4.6l-3.2-.1v-1.6l3 .2c1 0 1.8 0 2.3-.3.7-.3 1-1 1-1.9 0-1-.5-1.6-1.6-2l-2-.5c-1.8-.6-2.8-1.5-2.8-3.4 0-1.1.4-2.2 1.4-2.8.9-.6 2-.7 3.1-.7l3 .1v1.5l-2.8-.2c-.8 0-1.5 0-2 .3-.7.3-1 1-1 1.7 0 1 .6 1.6 1.5 2 .6 0 1.3.3 2.1.5 2 .5 3 1.5 3 3.5-.1 1.2-.6 2.4-1.6 3m3.3-7.8a41 41 0 0 0 1.6-4.9h1.8c-.5 1.8-1.3 3.5-1.9 5h-1.5Zm5.8-5h1.8v1.8h-1.8v-1.8Zm1.6 13.3h-1.5v-9.3h1.6v9.3Zm9.7 0-.1-.5c-1 .3-2.1.7-3.3.7-1 0-1.9-.3-2.6-1-.8-.8-1.2-2.1-1.2-3.9 0-1.8.6-3.2 1.6-4 .8-.6 1.8-.9 3-.9a5 5 0 0 1 2.2.5v-4h1.7v13h-1.3Zm-.3-1.7v-6c-.6-.3-1.3-.5-2-.5-2.1 0-3.1 1-3.1 3.5s1 3.6 2.5 3.6c1 0 1.8-.4 2.6-.6m8.3 2a4 4 0 0 1-3-1c-.8-1-1.1-2.3-1.1-4 0-1.5.3-3 1.3-3.8.8-.6 1.7-1 3-1 1 0 2 .3 2.8 1 1.1 1 1.2 2.4 1.2 4.3h-6.7c0 2.1 1 3.2 2.8 3.2 1.2 0 2.3-.3 3.6-.6v1.3c-1.2.2-2.6.5-4 .5m.2-8.6c-1.8 0-2.4 1.2-2.5 3h5c-.1-2-.8-3-2.5-3m13.2 8.4v-6c0-1.6-.8-2.2-2.2-2.2-.8 0-1.6.3-2.8.6v7.5h-1.6v-9.2h1.4v.5c1.2-.3 2.4-.8 3.5-.8 1 0 2 .3 2.7 1 .6.8.7 1.6.7 2.6v6h-1.7Zm7.8.3c-1 0-2-.4-2.5-1.6-.3-.7-.4-1.6-.4-2.5v-4.1h-1.5v-1.3h1.5l.2-2.9h1.5v2.9h2.7v1.3h-2.7v4l.1 1.7c.2.8.7 1.2 1.5 1.2l1.4-.2v1.3l-1.8.1m4-13.5h1.7v1.8H139v-1.8Zm1.6 13.3H139v-9.3h1.7l-.1 9.3Zm9.4 0v-8h-4.3v8h-1.6v-8h-1.5v-1.2h1.5c0-1.4.3-2.5 1.1-3.3.8-.7 2-.9 3.5-.9l2.5.2v1.2l-2.5-.2c-2.4 0-3 1-3 2.8h6v9.3H150Zm8.3.3a4 4 0 0 1-3-1c-.8-1-1.1-2.3-1.1-4 0-1.5.3-3 1.4-3.8.7-.6 1.6-1 2.9-1 1 0 2 .3 2.8 1 1.1 1 1.2 2.4 1.2 4.3h-6.7c.1 2.1 1 3.2 2.9 3.2 1 0 2.2-.3 3.5-.6v1.3c-1.2.2-2.6.5-3.9.5m0-8.6c-1.7 0-2.3 1.2-2.4 3h5c0-2-.8-3-2.5-3m6.7 8.4v-9.3h1.4v.6c1.4-.5 2.2-.9 3.3-.9h.2v1.5h-.3c-1 0-1.7.2-3 .6v7.5h-1.6Zm18.1 0v-.5c-1.2.3-2.3.7-3.4.7a3 3 0 0 1-2.1-.7c-.6-.5-.9-1.2-.9-2.2 0-1 .4-1.9 1.3-2.4a6 6 0 0 1 2.4-.4l2.5.1V21c0-1.8-.8-2.4-2.8-2.4-.8 0-1.6 0-2.4.2v-1.4l2.6-.2c1.2 0 2.5.1 3.3 1 .8.8 1 1.7 1 3v5.7h-1.5v-.1Zm-.3-4.2-2.4-.1c-1.6 0-2.2.6-2.2 1.6s.7 1.7 1.9 1.7c.8 0 1.8-.3 2.7-.6v-2.6Zm6.8 4.2-3.6-9.3h1.8l2.8 7.7h.1l2.7-7.7h1.7l-3.6 9.3zm10.5.3a4 4 0 0 1-2.9-1c-.9-1-1.2-2.3-1.2-4 0-1.5.3-3 1.4-3.8.7-.6 1.6-1 2.9-1 1 0 2 .3 2.8 1 1.2 1 1.2 2.4 1.2 4.3h-6.7c.1 2.1 1 3.2 2.9 3.2 1 0 2.2-.3 3.5-.6v1.3c-1.2.2-2.6.5-3.9.5m.1-8.6c-1.8 0-2.4 1.2-2.5 3h5c0-2-.7-3-2.5-3m9.8 8.7c-1 0-2-.3-2.6-1-.9-1-1.2-2.3-1.2-4 0-1.5.4-3.1 1.6-4 .8-.7 2-.9 3-.9l2.3.2v1.4l-2-.2c-2.3 0-3.1 1.1-3.1 3.5 0 2.2.8 3.6 2.6 3.6.8 0 1.8-.3 2.7-.5v1.3c-1.1.3-2.2.5-3.3.5M81.6 41.7v5h-2.1V34.2h8.1v1.7h-6V40h5.3v1.7zm8.8 5v-9.3H92l.1.6c1.3-.5 2.2-.8 3.4-.8h.2V39h-.6a8 8 0 0 0-2.8.6v7.2h-2Zm13.1 0v-.5a10 10 0 0 1-3.5.8 3 3 0 0 1-2.1-.8c-.6-.5-.9-1.2-.9-2.1 0-1 .4-2 1.4-2.5.7-.4 1.5-.5 2.4-.5.7 0 1.6 0 2.4.2V41c0-1.7-.6-2.2-2.6-2.2L98 39v-1.6l2.8-.1c1.3 0 2.6.1 3.4.8.9.8 1 1.8 1 3.1v5.6h-1.8Zm-.3-4c-.7-.2-1.5-.2-2.1-.2-1.6 0-2.1.5-2.1 1.5 0 .8.6 1.5 1.7 1.5.8 0 1.7-.2 2.5-.5v-2.4Zm12.2 4V41c0-1.6-.7-2-2-2-.7 0-1.6 0-2.5.5v7.3h-2v-9.3h1.7l.1.6c1.2-.4 2.3-.8 3.5-.8 1 0 2 .2 2.6 1 .6.7.8 1.6.8 2.7v5.8h-2.2Zm8.7.3c-1 0-2-.3-2.7-1-.9-.9-1.2-2.3-1.2-3.8 0-1.6.4-3.1 1.6-4 .9-.8 2-1 3.2-1l2.3.2v1.7l-2-.1c-2.1 0-3 1-3 3.3 0 2 .8 3.2 2.5 3.2.8 0 1.8-.2 2.7-.5v1.6c-1.2.1-2.3.4-3.4.4m9.2 0c-1 0-2.2-.3-3-1-1-.9-1.3-2.3-1.3-4 0-1.5.4-3 1.4-3.9.8-.7 1.7-1 3-1 1 0 2.2.3 3 1 1 1 1.3 2.4 1.3 4.4H131c0 2 1 3 2.7 3 1.1 0 2.3-.3 3.5-.6v1.6c-1.2.2-2.7.5-4 .5m.1-8.4c-1.6 0-2.1 1-2.2 2.6h4.6c-.1-1.8-.7-2.6-2.4-2.6m11.8 8.4c-1.3 0-2.6-.3-3.6-1.4-1.2-1.2-1.6-3-1.6-5.1 0-2.1.6-4.2 2.1-5.5 1.2-1 2.7-1 4.3-1h2.9v2l-2.8-.2c-3.2 0-4.4 1.8-4.4 4.8 0 2.8 1.2 4.6 3.7 4.6 1.2 0 2.5-.3 3.7-.7v1.8a13 13 0 0 1-4.3.8M153 46c-1-.7-1.4-2.1-1.4-4 0-1.7.4-3 1.4-3.9.8-.7 2-1 3.2-1 1.2 0 2.4.3 3.3 1 1 .8 1.4 2.2 1.4 4 0 1.7-.4 3-1.4 3.9-.8.7-2 1-3.3 1-1.2 0-2.4-.3-3.2-1m5.8-4c0-2.1-.7-3.3-2.6-3.3-1.9 0-2.5 1-2.5 3.3 0 2.2.7 3.5 2.5 3.5 2 0 2.6-1 2.6-3.4m11.6 4.6V41c0-1.6-.8-2-2.1-2-.7 0-1.6 0-2.5.5v7.3h-2v-9.3h1.7l.1.6c1.2-.4 2.3-.8 3.5-.8 1 0 2 .2 2.6 1 .6.7.8 1.6.8 2.7v5.8h-2.1Zm12.2 0V41c0-1.6-.8-2-2-2-.8 0-1.6 0-2.6.5v7.3h-2v-9.3h1.8v.6c1.3-.4 2.4-.8 3.5-.8 1 0 2 .2 2.7 1 .6.7.7 1.6.7 2.7v5.8h-2.1Zm8.8.3a5 5 0 0 1-3-1c-.8-.9-1.2-2.3-1.2-4 0-1.5.4-3 1.4-3.9.8-.7 1.7-1 3-1 1 0 2.2.3 3 1 1 1 1.2 2.4 1.2 4.4h-6.5c0 2 1 3 2.7 3 1 0 2.3-.3 3.5-.6v1.6c-1.2.2-2.7.5-4 .5m.1-8.4c-1.6 0-2.1 1-2.2 2.6h4.5c-.1-1.8-.7-2.6-2.3-2.6M202 47c-1 0-2-.3-2.7-1-.9-.9-1.2-2.3-1.2-3.8 0-1.6.4-3.1 1.6-4 .9-.8 2-1 3.2-1l2.3.2v1.7l-2-.1c-2.1 0-3 1-3 3.3 0 2 .8 3.2 2.5 3.2.8 0 1.8-.2 2.7-.5v1.6c-1.1.1-2.3.4-3.4.4m9.2 0c-1 0-2-.3-2.5-1.5-.3-.7-.4-1.5-.4-2.5v-4H207v-1.6h1.4l.3-2.8h1.8v2.8h2.7V39h-2.7v3.6c0 .7 0 1.3.2 1.7.1.7.6 1 1.3 1l1.4-.2v1.6l-2 .3M15 17.2v26.9l24 13.6 24-13.6V17.2L39 3.7z"/>
    <path fill="#034EA2" d="m51.7 30.7-6.8-12-5.9-10v44l19-11z"/>
    <path fill="#0069CC" d="m44.9 18.8 6.8 11.9 6.3-11-7.7-4.4z"/>
    <path fill="#ED1C24" d="M50.3 15.3 39 8.7l5.9 10z"/>
    <path fill="#0069CC" d="M44.9 18.8 39 8.7z"/>
    <path fill="#ED1C24" d="M58 41.7v-22l-6.3 11z"/>
    <path fill="#0069CC" d="m26.4 30.7 6.8-12 5.8-10v44l-19-11z"/>
    <path fill="#ED1C24" d="m33.2 18.8-6.8 11.9-6.4-11 7.7-4.4z"/>
    <path fill="#034EA2" d="M27.7 15.3 39 8.7l-5.8 10zM20 41.7v-22l6.4 11zm24.2-8.8h1l.7.1c-.1.6-.9.6-1.2 1.2h-.2c-.2 0 0 .4-.3.4h-.5c.2.3.5.5.9.4 0 0 .2 0 .2.3v-.1h.1v.3c-.1.3-.5.2-.7.2h1.4c.3-.2 0-.8.3-1-.1 0 0-.2-.2-.2l.3-.3.4-.2c0-.1-.3-.2-.2-.4.3-.2.7-.6.5-1l-.8-.2h-1c-.4 0-.7.2-1 .3l-1.2.7 1.5-.5Z"/>
    <path fill="#FFF" d="m50.2 36.4-.6-.9c-.3-.4-.6-.7-.7-1.3-.2-.5 0-.9 0-1.4 0-.9-.3-1.8-.5-2.7l-.5-1.3c0-.3-.1-.5-.3-.8-.1 0-.1-.3 0-.4l.7-.6c.1-.3 0-.7-.3-1-.4 0-.3.5-.7.7h-.1c-.1-.2 0-.3.1-.4v-.1l-.6-.2a5.2 5.2 0 0 0-2.5-1.6h.7c.5.2 1 0 1.3 0 .4-.2.4-.7.5-1v-.3c0-.2-.2-.4-.3-.5l-.2-.3a10 10 0 0 0-8.2-2.6c-2.2.2-4.8.8-7.9 2.3h-.3c-.5.3-1.2.7-1.7 1.2-.5.6-.9 1.3-1 2-.8.6-1.3 1.3-1.8 2-.5 1-1.2 2-1.2 3v.2l.2 1c.2.6.4 1.3.4 2l.3 1c.2.3 0 .7.2 1 .1.2.1.4.4.5v.3h.2v.3c.5.6 1 1.1 1.4 1.8.2.3-.6.2-1 0-.5-.2-1-.7-1.5-1.1.2.5 1.1 1 .6 1.3-.2.2-.6-.1-.7.1-.1.1 0 .3 0 .4-.4-.3-.8-.1-1.1-.3-.3 0-.4-.5-.6-.5l-2.4-.3h-.2c-.8-.1-1.5-.2-2.2-.1v.8c.7-.1 1.3-.3 2-.3h.8-.9l-2 .7v.8c.3 0 .8 0 1.1.2.4 0 .9.1 1.3.3l1.5.7c.3.1.4.3.6.5.4.2.8.2 1 0h.4c1-.3 1.9-.5 2.5-1.3v.1c-.1.5-.1 1-.5 1.5l.1.3h.1l.2.1c-.4.1-.6.2-.8.5h.2l-.4.2.1.1v.2l-.4.2c.2.2.4 0 .7 0-.7.3-1.2.7-1.9.9v.1c0 .1.3 0 .4 0l-1 .5 2 1.2c.9-.5 1.7-1 2.4-1.8-.1.6-.5 1-1 1.5l-.8.6 1.5.8a4 4 0 0 1 1-.6l.4.1c.5-.5 1-1.1 2-1v.2-.1l-.7.6h.1l.8-.5-.1.3-2 1.8 8.1 4.7 1-1.3c1.5-2.2 3.7-5.1 4.4-5.8.3-.2.5-.2.9-.2l3.1.3h.4c.3.2.7 0 1.1 0 .5-.2 1-.4 1.2-1 .1-.4.2-.9 0-1.3-.5-.5.3-.7.6-1 .1-.4-.2-.6-.2-.8-.1-.1-.4-.1-.4-.3.4-.2 1-.6.7-1-.1-.4-.5-.8-.1-1.2.4-.2 1-.2 1.2-.6.5-.9-.2-1.5-.6-2Zm-2.6-3 .2.3-.4.2-.3.3.1.2c-.2.4.2 1-.2 1a2 2 0 0 1-1.5 0c.3 0 .6.1.8-.1V35H46l-.1-.2c-.4 0-.7-.1-1-.4.2 0 .4-.2.6 0 .2 0 .1-.4.3-.5h.2c.3-.5 1-.7 1.1-1 0-.2-.3-.2-.5-.2h-1c-.6.1-1 .1-1.4.4.3-.3.7-.5 1.2-.7l.9-.3h1c.4 0 .8 0 .9.2-.1.5-.4.9-.7 1.1Z"/>
  </g>
</svg>
