<svg xmlns="http://www.w3.org/2000/svg" width="216" height="60" fill="none">
  <path fill="#000091" d="M0 0h216v60H0z"/>
  <path fill="#fff" d="M74 26.3c.6 0 1 0 1.5-.2s.9-.4 1.2-.7a3.2 3.2 0 0 0 1-2.4c0-1-.3-1.7-.9-2.2-.5-.5-1.2-1-1.9-1.3l-1.9-1c-.6-.4-.9-.9-.9-1.5 0-.5.2-1 .5-1.3.4-.3.8-.5 1.3-.5.6 0 1 .2 1.5.4.4.3.8.7 1.1 1.2l1.2-1c-.4-.6-1-1-1.6-1.4a4.3 4.3 0 0 0-3.5-.3c-.5.1-.8.4-1.1.7a3 3 0 0 0-1 2.2c0 1 .3 1.7.9 2.2l1.9 1.3 2 1c.5.4.8.9.8 1.5 0 .5-.2 1-.5 1.3a2 2 0 0 1-1.5.6c-.6 0-1.1-.2-1.6-.4-.5-.3-1-.7-1.4-1.2l-1.1 1c.5.7 1.1 1.2 1.8 1.5.6.3 1.4.5 2.3.5Zm6.7-7.6 1.8-4.5h-1.7l-1.4 4.5h1.3Zm4.8-3.4c.3 0 .5-.1.7-.3.2-.2.3-.5.3-.8a1 1 0 0 0-.3-.7 1 1 0 0 0-.7-.2 1 1 0 0 0-.7.2 1 1 0 0 0-.3.7c0 .3.1.6.3.8.2.2.4.3.7.3Zm.7 10.7v-8.5h-1.4V26h1.4Zm6.7.3c.6 0 1.2 0 1.7-.3.5-.2 1-.6 1.3-1v1h1.5V13.3h-1.5v5.1a3.9 3.9 0 0 0-3-1.3 4.3 4.3 0 0 0-3.2 1.4c-.3.4-.6.9-.8 1.5a5 5 0 0 0 .8 5 4.2 4.2 0 0 0 3.2 1.3Zm.2-1.3a3 3 0 0 1-2.2-1 2 2 0 0 1-.6-1c-.2-.4-.2-.8-.2-1.3 0-.4 0-.8.2-1.2.1-.4.3-.8.6-1a2.9 2.9 0 0 1 2.2-1 3.3 3.3 0 0 1 2.8 1.6v3.3c-.3.5-.7.9-1.2 1.2-.5.2-1 .4-1.6.4Zm11.2 1.3c.8 0 1.5-.1 2.1-.5a4 4 0 0 0 1.6-1.2l-1.1-.8a3.1 3.1 0 0 1-2.6 1.2 3 3 0 0 1-2.3-.9c-.5-.6-.8-1.4-.8-2.3h6.5a7 7 0 0 0 0-1c0-.5 0-1-.2-1.4a3.3 3.3 0 0 0-2-2 4.4 4.4 0 0 0-3.4 0c-.5.3-1 .6-1.3 1L100 20a5.3 5.3 0 0 0 0 3.6 4.3 4.3 0 0 0 2.4 2.4c.6.3 1.2.4 2 .4Zm2-5.7h-5a3 3 0 0 1 1-1.7c.4-.3 1-.5 1.7-.5s1.2.2 1.7.6c.4.5.6 1 .6 1.6Zm5.3 5.4v-6a4 4 0 0 1 1-1c.5-.4 1-.5 1.6-.5a2 2 0 0 1 1.6.6c.4.4.5 1 .5 1.8v5h1.5v-5c0-1.3-.3-2.2-1-2.8-.6-.7-1.4-1-2.3-1-.7 0-1.2.2-1.7.4-.4.2-.8.6-1.2 1v-1h-1.4V26h1.4Zm12.5.1h.8l.7-.2v-1.3l-.5.2h-.8a2 2 0 0 1-1.2-.3c-.3-.3-.5-.7-.5-1.4v-4.3h3v-1.3h-3v-2.2h-1.4v2.2h-1.6v1.3h1.6V23c0 1 .2 1.8.7 2.3.6.5 1.3.7 2.2.7Zm4.4-10.8c.3 0 .5-.1.7-.3.2-.2.3-.5.3-.8a1 1 0 0 0-.3-.7 1 1 0 0 0-.7-.2 1 1 0 0 0-.7.2 1 1 0 0 0-.3.7c0 .3 0 .6.3.8.2.2.4.3.7.3Zm.7 10.7v-8.5h-1.4V26h1.4Zm5 0v-7.2h3v-1.3h-3v-1.1c0-.6.1-1 .4-1.3.3-.3.7-.5 1.2-.5a1.6 1.6 0 0 1 1.3.6l.9-1-1-.7-1.2-.2a2.9 2.9 0 0 0-3 3.1v1H131v1.4h1.6V26h1.5Zm5.4-10.7c.3 0 .5-.1.7-.3.2-.2.3-.5.3-.8a1 1 0 0 0-.3-.7 1 1 0 0 0-.7-.2 1 1 0 0 0-.7.2 1 1 0 0 0-.3.7c0 .3.1.6.3.8.2.2.4.3.7.3Zm.7 10.7v-8.5H139V26h1.4Zm7 .3c.8 0 1.5-.1 2.1-.5.6-.3 1.1-.7 1.5-1.2l-1-.8a3.1 3.1 0 0 1-2.6 1.2 3 3 0 0 1-2.3-.9c-.6-.6-.9-1.4-.9-2.3h6.5a7.2 7.2 0 0 0 .1-1c0-.5 0-1-.2-1.4a3.3 3.3 0 0 0-2-2c-.5-.2-1-.3-1.6-.3-.6 0-1.2.2-1.7.4-.6.2-1 .5-1.4 1-.4.4-.6.9-.9 1.4a5.3 5.3 0 0 0 0 3.6 4.3 4.3 0 0 0 2.5 2.4c.5.3 1.2.4 1.9.4Zm2-5.7h-5c.1-.7.4-1.3 1-1.7.4-.3 1-.5 1.6-.5.7 0 1.3.2 1.7.6.5.5.7 1 .7 1.6Zm5.3 5.4v-5.8c.3-.4.6-.8 1-1 .4-.3.8-.4 1.4-.4a2.8 2.8 0 0 1 .8 0v-1.4h-.3l-.4-.1c-.5 0-1 .1-1.4.3a4 4 0 0 0-1 1v-1.1h-1.5V26h1.4Zm12.2.3c.5 0 1-.1 1.6-.4a3 3 0 0 0 1.2-1v1h1.5v-5.6a3 3 0 0 0-1-2.3c-.6-.6-1.4-.9-2.5-.9-.7 0-1.4.2-2 .5a4 4 0 0 0-1.4 1.2l1 .8c.3-.4.6-.7 1-.9.4-.2.9-.3 1.4-.3.6 0 1 .2 1.4.5.4.3.6.8.6 1.4v.6l-2.8.4c-1 .2-1.6.5-2.1 1a2 2 0 0 0-.7 1.6c0 .7.2 1.3.7 1.8a3 3 0 0 0 2 .6Zm.2-1.2c-.5 0-.9-.1-1.2-.4-.3-.2-.4-.5-.4-.9 0-.3.1-.7.4-1 .3-.2.7-.3 1.3-.4l2.5-.5v1.6c-.3.5-.6 1-1 1.2a3 3 0 0 1-1.6.4Zm10.8.9 3.3-8.5h-1.5l-2.7 7-2.8-7h-1.5l3.3 8.5h1.9Zm8.9.3c.8 0 1.5-.1 2-.5a4 4 0 0 0 1.6-1.2l-1-.8a3.1 3.1 0 0 1-2.6 1.2 3 3 0 0 1-2.3-.9c-.6-.6-.9-1.4-.9-2.3h6.5a7.2 7.2 0 0 0 .1-1c0-.5 0-1-.2-1.4a3.3 3.3 0 0 0-2-2c-.5-.2-1-.3-1.6-.3-.6 0-1.2.2-1.8.4-.5.2-1 .5-1.3 1-.4.4-.7.9-.9 1.4a5.3 5.3 0 0 0 0 3.6 4.3 4.3 0 0 0 2.4 2.4c.6.3 1.3.4 2 .4Zm2-5.7h-5c.1-.7.4-1.3.9-1.7.5-.3 1-.5 1.7-.5s1.3.2 1.7.6c.4.5.7 1 .7 1.6Zm7.7 5.7c.8 0 1.5-.1 2.1-.5.6-.3 1.1-.7 1.5-1.2l-1.1-.9a2.9 2.9 0 0 1-2.5 1.3 3.1 3.1 0 0 1-2.2-1l-.7-1a3.5 3.5 0 0 1 .7-3.6 3.1 3.1 0 0 1 3.7-.6l1 1 1.1-1a4.5 4.5 0 0 0-3.6-1.7c-.7 0-1.3.2-1.9.4a4.4 4.4 0 0 0-2.7 4.2 4.8 4.8 0 0 0 1.3 3.2c.4.5.8.8 1.4 1 .6.3 1.2.4 2 .4ZM72.6 45v-5.3h4v-2.2h-4v-3h4.8v-2.1H70V45h2.6Zm8.6 0v-5.7l.8-.8a3.8 3.8 0 0 1 2.4-.3V36a2.6 2.6 0 0 0-.8-.1c-.5 0-1 0-1.4.3l-1 .7V36H79v9h2.3Zm7.2.4a3.7 3.7 0 0 0 2.7-1.2v.8h2.3v-5.9c0-.5 0-1-.2-1.4-.2-.4-.5-.8-.8-1a2 2 0 0 0-1.2-.8 5 5 0 0 0-1.8-.3 5 5 0 0 0-2.2.5 4 4 0 0 0-1.6 1.3l1.7 1.3c.2-.4.5-.7.9-.8.3-.2.7-.3 1.2-.3s.9.1 1.2.4c.3.3.5.7.5 1.1v.3l-2.7.4a4 4 0 0 0-2.3 1c-.5.5-.8 1.1-.8 1.8 0 .9.3 1.5.9 2 .6.5 1.3.8 2.2.8Zm.5-1.9c-.4 0-.7 0-1-.2a.9.9 0 0 1-.3-.8c0-.3.1-.5.3-.7a2 2 0 0 1 1-.4l2.2-.4v1.3l-.9.9c-.4.2-.8.3-1.3.3Zm9.4 1.5v-6l.8-.8a2 2 0 0 1 1.3-.5c.6 0 1 .2 1.3.6.4.3.5.8.5 1.4V45h2.3v-5.4a5 5 0 0 0-.2-1.8c-.2-.5-.5-.9-.8-1.2a3 3 0 0 0-1.1-.8l-1.4-.2c-.6 0-1.1 0-1.6.3-.4.2-.8.5-1 .8v-.8H96V45h2.3Zm13.2.4a4.8 4.8 0 0 0 3.8-1.9l-1.8-1.3-.8.7-1.2.3c-.8 0-1.4-.2-1.9-.8-.5-.5-.7-1.1-.7-2a2.6 2.6 0 0 1 2.6-2.7 2.4 2.4 0 0 1 2 1.1l1.8-1.4a4.7 4.7 0 0 0-3.8-1.8c-.8 0-1.5.1-2.1.4a4.7 4.7 0 0 0-3 4.5c0 .6.2 1.3.4 1.9a4.6 4.6 0 0 0 2.6 2.6c.6.2 1.3.4 2 .4Zm9.6 0a6 6 0 0 0 2.3-.5c.7-.3 1.2-.8 1.6-1.4l-1.6-1.3c-.2.4-.5.6-1 .8a3 3 0 0 1-1.3.3 3 3 0 0 1-1.9-.6c-.5-.4-.7-1-.8-1.8h6.3a5.9 5.9 0 0 0 .2-1.3 4 4 0 0 0-1.2-2.9 4.1 4.1 0 0 0-3-1.1c-.7 0-1.4.1-2 .4a4.3 4.3 0 0 0-2.3 2.6 5.6 5.6 0 0 0 0 3.8 4.5 4.5 0 0 0 2.5 2.6c.7.2 1.4.4 2.2.4Zm1.5-6.2h-4c0-.6.3-1 .7-1.3.4-.3.9-.4 1.4-.4.6 0 1 .2 1.4.5.3.4.5.8.5 1.2Zm10.7 6.2a7 7 0 0 0 3-.7c1-.5 1.7-1.1 2.3-1.9l-2-1.5a4 4 0 0 1-1.4 1.2 4 4 0 0 1-4.8-.8 3 3 0 0 1-.9-1.3c-.2-.5-.3-1-.3-1.7a4.6 4.6 0 0 1 1.2-3 3.9 3.9 0 0 1 3-1.3c.6 0 1.3.2 1.8.5.6.3 1 .8 1.4 1.3l2-1.6a6.6 6.6 0 0 0-5.3-2.6 6.8 6.8 0 0 0-4.8 2c-.6.6-1 1.3-1.4 2.1a6.8 6.8 0 0 0 1.4 7.3 6.7 6.7 0 0 0 4.8 2Zm11.4 0a5.1 5.1 0 0 0 3.6-1.5c.4-.4.8-1 1-1.5a5 5 0 0 0 0-3.8 4.6 4.6 0 0 0-2.6-2.6c-.6-.3-1.3-.4-2-.4A5.1 5.1 0 0 0 141 37c-.5.4-.8 1-1 1.6a5.1 5.1 0 0 0 1 5.3 4.9 4.9 0 0 0 3.6 1.5Zm0-2.2c-.7 0-1.4-.2-1.9-.8-.5-.5-.7-1.1-.7-2a2.5 2.5 0 0 1 2.6-2.7c.7 0 1.3.3 1.8.8s.8 1.2.8 2-.3 1.4-.8 2c-.5.5-1 .7-1.8.7ZM154 45v-6l.8-.8a2 2 0 0 1 1.3-.5c.6 0 1 .2 1.4.6.3.3.4.8.4 1.4V45h2.4v-5.4a5 5 0 0 0-.3-1.8c-.2-.5-.5-.9-.8-1.2a3 3 0 0 0-1.1-.8l-1.4-.2c-.6 0-1.1 0-1.5.3-.5.2-.9.5-1.2.8v-.8h-2.3V45h2.3Zm11.1 0v-6l.8-.8a2 2 0 0 1 1.3-.5c.6 0 1 .2 1.4.6.3.3.4.8.4 1.4V45h2.4v-5.4c0-.7-.1-1.3-.3-1.8-.2-.5-.5-.9-.8-1.2a3 3 0 0 0-1.1-.8l-1.4-.2c-.6 0-1.1 0-1.5.3-.5.2-.8.5-1.2.8v-.8h-2.3V45h2.3Zm13.3.4a6 6 0 0 0 2.3-.5c.6-.3 1.2-.8 1.6-1.4l-1.6-1.3a3 3 0 0 1-2.3 1c-.8.1-1.4 0-1.9-.5-.5-.4-.8-1-.9-1.8h6.4a6.3 6.3 0 0 0 .2-1.3 4 4 0 0 0-1.2-2.9 4.1 4.1 0 0 0-3-1.1c-.8 0-1.4.1-2 .4a4.3 4.3 0 0 0-2.4 2.6 5.6 5.6 0 0 0 0 3.8 4.5 4.5 0 0 0 2.6 2.6c.6.2 1.3.4 2.2.4Zm1.5-6.2h-4.1c.1-.6.4-1 .8-1.3.4-.3.8-.4 1.4-.4.6 0 1 .2 1.4.5.3.4.5.8.5 1.2Zm8.8 6.2a4.8 4.8 0 0 0 3.8-1.9l-1.8-1.3-.8.7-1.2.3c-.8 0-1.4-.2-1.9-.8-.5-.5-.8-1.1-.8-2 0-.7.3-1.4.8-1.9s1.1-.8 1.8-.8a2.4 2.4 0 0 1 2.1 1.1l1.8-1.4a4.7 4.7 0 0 0-3.8-1.8c-.8 0-1.5.1-2.1.4a4.7 4.7 0 0 0-3 4.5c0 .6.2 1.3.4 1.9a4.6 4.6 0 0 0 2.6 2.6c.6.2 1.3.4 2 .4Zm9.6-.2h1l.7-.3v-2l-.6.2a5 5 0 0 1-.8 0c-.4 0-.7-.1-1-.3-.3-.2-.4-.6-.4-1.1V38h2.8v-2h-2.8v-2.3H195v2.2h-1.7V38h1.7v3.7c0 1.1.3 2 .8 2.6.6.6 1.4.9 2.6.9ZM35.4 4.9a1 1 0 0 0-1 0L13.2 17a1 1 0 0 0-.4.7v24.4c0 .3.2.6.4.7L34.4 55c.3.2.7.2 1 0l21.2-12c.2-.1.4-.4.4-.7V17.8a1 1 0 0 0-.4-.7L35.4 4.9Z"/>
  <path fill="#0063CB" d="m34.9 49.7-16.6-9.5c-.2-.1-.4-.4-.4-.6V20.8c0-.2.2-.5.4-.6l16.6-9.6"/>
  <path fill="#000091" d="M18 39.5V20.7c0-.2 0-.5.3-.6l16.6-9.5"/>
  <path fill="#E1000F" fill-rule="evenodd" d="m29 20.7-5.6 9.6-5-10.2 5.9-3.4 5 3.4-.4.6Z" clip-rule="evenodd"/>
  <path fill="#000091" d="M34.9 49.7 51.5 40c.2 0 .3-.3.3-.5V20.7c0-.2-.1-.4-.3-.5l-16.6-9.6"/>
  <path fill="#E1000F" d="M51.8 39.5V20.7c0-.2-.1-.5-.3-.5l-16.6-9.6"/>
  <path fill="#0063CB" fill-rule="evenodd" d="m40.4 20 6 10.2L51.2 20l-6-3.4-5 3.4Z" clip-rule="evenodd"/>
  <path fill="#fff" fill-rule="evenodd" d="M41.2 19.6c.3.2.7.4 1 .8 0 .2.2.5.1.7 0 .3-.1.7-.4.8-.3.2-.7.2-1.1 0h-.6c.7.3 1.5.7 2 1.4l.5.2v.1c0 .2-.2.2-.1.3h.1c.3 0 .3-.6.6-.4.3.1.4.5.3.8l-.7.5v.3l.3.7.3 1.2c.2.7.4 1.6.4 2.3 0 .5-.2.8 0 1.2 0 .5.3.8.5 1.1l.6.9.2.3.1.2c.3.3.5.7.3 1.2-.1.3-.7.3-1 .5-.4.2-.1.7 0 1 .3.4-.3.7-.7.9l.4.2c0 .3.3.4.2.7l-.3.2v.1c-.3.2-.5.4-.3.7.3.3.1.7 0 1.1-.2.5-.6.7-1 .8a2 2 0 0 1-1 0h-.3c-.9-.2-1.7-.4-2.6-.4l-.8.2-.6.5-.1.2-.1.1-.4.6-.1.1-.4 1c-.4 1.2-.2 2.3 0 2.5.2.2 2.2.8 4 1.4-3.1 2.5-5.6 3.8-7.5 3.8a33 33 0 0 1-13.2-5.2c1.5 0 1.3.6 2.7 0 .7-.4 2.2-1 2.7-1.6l.8-1 1.8-1.7.6-.4.1-.3-.7.5s-.1-.1 0-.2l.5-.4c-.8-.2-1.3.3-1.8.7h-.2c-.8.2-1.4.9-2.1 1.2v-.1c-.4 0-.7.3-1 .3-.5.2-.9.1-1.3.1l-2 .3-1 .4v.2c-.2 0-.3.2-.4.3-.4.1-.6.4-.9.7-.3.3 0-.6.3-.8v-.2l-.2.1c-.2.1-.1-.5 0-.6l.6-.3v-.1l-.7.4v-.3h.2c1-.7 2.2-1 3.4-1.1h.4a12 12 0 0 0 2.1-.5l.5-.3.8-.5c.4-.3.7-.7.9-1.2l-.1-.1c-.7.7-1.5 1.3-2.3 1.7-1.1.6-2.3.5-3.5.6h.3c0-.3 0-.3.2-.4h.1l.2-.1h.2c-.2-.3-.5.1-.7 0l.1-.4h.2l.2-.2c.7-.5 1.5-.8 2.2-1.2-.2 0-.2.1-.4 0l.1-.2c.6-.1 1-.4 1.6-.7-.2 0-.3.2-.5 0l.3-.1v-.3c0-.1.2 0 .3-.2h-.2c.2-.2.4-.3.7-.3l-.2-.1v-.3l.4-1.3H25c-.5.6-1.4.8-2.2 1h-.3a1 1 0 0 1-1 0l-.4-.5-1.3-.6a9.5 9.5 0 0 0-4-.6c.5-.3 1.1-.4 1.8-.5.8-.3 1.7-.6 2.6-.6h-.5l-2.3.3-1.5.4c-.3.2-.5.5-.8.4v-.2c.5-.6 1.2-1.2 2-1.3 1-.1 1.8 0 2.8.1l2 .4c.2 0 .3.4.5.5.3 0 .6 0 1 .2v-.3c.2-.2.4 0 .6 0 .5-.3-.3-.8-.5-1.2.4.3.7.7 1.3 1 .2 0 .9.2.7 0-.2-.7-.7-1.1-1.2-1.7v-.2l-.1-.1v-.2c-.3-.1-.2-.3-.3-.5-.2-.2 0-.6-.2-1l-.2-.8-.5-2.6c0-1 .6-1.7 1.1-2.6.4-.7.8-1.3 1.5-1.7.1-.6.6-1.2 1-1.7s1-.8 1.6-1l1.4-.6c.5-.2 7.2-1.6 10.5 0l.3.2.8.4ZM15.7 34.8c0 .3-.2.5-.4.5l1.2.3c0 .2-.2.1-.2.1.2.2.6 0 .8.2-.2.2-.3 0-.5 0 1.7.5 3.4.9 4.7 1.9-1.1.6-2.3.8-3.6 1h-.4v.2l-.6.1c-.1.2-.4.2-.6 0h.2-.4v-.2l-.9.3c-.3 0-.2-1.7 0-1.8v-.2c-.3 0-.4-.5-.3-.5.3-.1.5-.1.7-.3-.4 0-.5-1.3.1-1.6h.2Zm2.4 4.8c-.4.4-.8.2-1.1.4h-.3c0-.3.2-.3.4-.4h.2c.2-.2.3-.3.4-.2.1.2.3.1.4.2Zm-2-7v-.4c-.6.6-1.8.4-.6-.2a2 2 0 0 1 1.3.1c-.1.2-.4.2-.6.3ZM41.9 29h-.1c-.3 0-.6.2-.8.3-.4 0-.7.3-1 .5.3-.2.7-.2 1.1-.3h1.5c-.2.5-.8.6-1.1 1h-.2c-.2.1-.1.4-.2.4h-.5c.2.2.5.4.8.3l.1.3.2-.1v.3l-.3.1H41h1.3c.3 0 0-.6.2-.8l-.1-.2.3-.3c.1 0 .2 0 .3-.2l-.2-.2c.3-.2.6-.5.5-.8 0-.2-.5-.2-.7-.3h-.8Z" clip-rule="evenodd"/>
</svg>
