<svg xmlns="http://www.w3.org/2000/svg" width="60" height="60" fill="none">
  <g clip-path="url(#a)">
    <path fill="#FFE5CC" fill-rule="evenodd" d="M7.6 42.2C2.1 34.5 5 30.2 6.2 28c2.6-4 7.1-.8 15.1-8.5 8-7.8 3.4-9.3 12.2-12.5 8.7-3.1 8.8 6.2 16.2 4 7.5-2 14.7 5.4 12.4 11.1-2.4 5.7-6.7 13.5-12.3 12.3-5.6-1.1-6.5-.6-10 1.8-3.2 2.3-1.4 6.6-4.5 10-2.4 3-8.3 4-10.2-.7-1.9-4.7-6.4-3.7-9.4-2-2.8 1.7-7 .2-8-1.3Z" clip-rule="evenodd"/>
    <path fill="#fff" fill-rule="evenodd" d="m48.6 32.2.8-.8-.4-.3-.3-.4-.6-.6-.8.8.7.7.3.3.3.3Zm-6.5-8 1-.6-.2-.5-.2-.4-.2-.4-.2-.4-1 .5.2.4.2.4.2.5.2.5ZM44 27l.9-.6-.6-.8-.5-.8-1 .7.6.8.6.8Zm2.2 2.8.8-.9-1.2-1.4-.8.8 1.2 1.5Zm-7.6-15.5 1.1-.2-.2-1.9h-1l.1 2Zm.8 3.4 1-.3-.2-1-.2-.8-1.1.2.2 1 .3 1Zm1.2 3.3 1-.4-.4-1-.3-.8-1 .4.3 1 .4.8Z" clip-rule="evenodd"/>
    <path fill="#FFA856" fill-rule="evenodd" d="m54.6 47.4-31.7 1c-.7.1-1.3-.5-1.4-1.3l-.8-22.8 33-1.1c.8 0 1.4.6 1.4 1.4l.8 21.3c0 .8-.6 1.5-1.3 1.5Z" clip-rule="evenodd"/>
    <path fill="#FFA856" fill-rule="evenodd" d="m40.9 26.1-20 .7-.2-3.7c0-.8.6-1.5 1.3-1.5l17.3-.6c.8 0 1.5.6 1.5 1.4l.1 3.7Z" clip-rule="evenodd"/>
    <path fill="#FFCA99" fill-rule="evenodd" d="M30.4 39.2c0 .4.3.7.7.7l18.7-.7c.4 0 .7-.3.7-.7L50 20l-20.1.7.6 18.5ZM45.1 9.6l-15 .6c-.3 0-.6.3-.6.7l.3 9.8L50 20l-.2-5.7L45 9.6Z" clip-rule="evenodd"/>
    <path fill="#FFA856" fill-rule="evenodd" d="M45.2 13.7c0 .4.4.7.7.7l3.9-.1L45 9.6l.1 4Z" clip-rule="evenodd"/>
    <path fill="#fff" d="m31.5 17.2 16.1-.6V16l-16 .6v.5Zm.1 1.8 16-.7v-.5l-16 .6v.5Zm0 1.7 16.1-.6v-.6l-16 .6v.6Zm.1 1.7 16-.6v-.6l-16 .7v.5Zm0 1.7 16.1-.6V23l-16 .6v.5Zm.1 1.8 16-.7v-.5l-16 .6v.6Zm.1 1.7 16-.6v-.6L32 27v.6Zm.1 1.7 16-.6v-.5l-16.1.6v.5Zm0 1.7 16-.6V30l-16 .6v.5Z"/>
    <path fill="#FAD738" fill-rule="evenodd" d="m59.2 27.5-20 1v-2.2c0-.8.5-1.5 1.3-1.5l17.3-.6c.7 0 1.4.6 1.4 1.4v2Z" clip-rule="evenodd"/>
    <path fill="#FAD738" fill-rule="evenodd" d="m54.7 47.4-31.9 1a1 1 0 0 1-1-1.2l2.1-18.4c.1-.8.7-1.3 1.4-1.4l32.8-1c.7 0 1.2.5 1 1.2l-3 18.4c0 .8-.7 1.4-1.4 1.4Z" clip-rule="evenodd"/>
    <path fill="#0C528D" fill-rule="evenodd" d="M47.2 31.8v5.6c0 3-1.5 5.8-4 7.2l-.4.3a1 1 0 0 1-.3.1l-.3.1-1 .3-.5-.1h-.2l-.2-.2-.3-.1a9.5 9.5 0 0 1-5.3-8.2l-.1-5.4a12.1 12.1 0 0 0 2.2-.2l.8-.1c1.2-.3 2.4-.7 3.2-1.2.8.5 1.9 1 3 1.3l1.5.4h.5l.2.1h1l.2.1Z" clip-rule="evenodd"/>
    <path fill="#0C528D" fill-rule="evenodd" d="m47.1 31.6.1 5.4v.2c0 3-1.6 5.8-4 7.3H43l-.4.2-.3.2-.4.1-.9.3-.5-.2h-.2L40 45l-.3-.2a9.5 9.5 0 0 1-5.2-8.2l-.2-5.4H36l.7-.1.8-.2c1.2-.2 2.4-.6 3.2-1.1.8.5 1.8 1 3 1.3l1.5.4h.7l.4.1h.8Z" clip-rule="evenodd"/>
    <path fill="#18A3B4" fill-rule="evenodd" d="m40.8 29.8.3 15.6-.5-.2h-.2L40 45a9.5 9.5 0 0 1-5.3-8.3l-.1-5.5a12.2 12.2 0 0 0 2.2-.1l.9-.1c1.2-.3 2.4-.7 3.2-1.2Z" clip-rule="evenodd"/>
    <path fill="#127A87" fill-rule="evenodd" d="M46 32.7V37a8 8 0 0 1-1.4 4.6 7.6 7.6 0 0 1-3.6 2.6 8.2 8.2 0 0 1-5.3-7.4v-4.3c1.6-.2 3.5-.6 5-1.3a17 17 0 0 0 5.2 1.5Z" clip-rule="evenodd"/>
    <path fill="#fff" fill-rule="evenodd" d="m43.3 35.5-2.8 2.8-1.3-1.3a.5.5 0 0 0-.7 0c-.2.2-.2.5 0 .8l1.6 1.6.4.2.4-.1 3.3-3.2c.2-.2.2-.5 0-.7a.6.6 0 0 0-.9 0Z" clip-rule="evenodd"/>
    <path fill="#0C528D" fill-rule="evenodd" d="M46 32.7v.2c-1.6-.2-3.6-.7-5-1.6a16 16 0 0 1-5.2 1.3L36 37c0 1.5.5 3 1.3 4.3-1-1.4-1.5-3-1.5-4.5v-4.3c1.6-.1 3.6-.5 5-1.3 1.6.9 3.6 1.4 5.3 1.6Z" clip-rule="evenodd"/>
    <path fill="#A5EAF3" d="M14 17c-3 5.6-1.3 12.5 3.7 15.5 5 2.9 11.5.7 14.4-5 3-5.6 1.3-12.5-3.7-15.5-5-2.9-11.5-.7-14.4 5Z" opacity=".1"/>
    <path fill="#08375E" fill-rule="evenodd" d="M24.5 9.6A12 12 0 0 1 35.4 23a12.7 12.7 0 0 1-13 11.8c-3.7-.2-6.9-2.1-8.8-5a12.4 12.4 0 0 1-2.2-8.2c.2-2.1.9-4 1.9-5.8 2.4-3.9 6.6-6.3 11.2-6Zm-8.6 20c1.6 1.9 4 3 6.6 3.2 5.7.3 10.7-4.1 11.1-10 .5-6-3.7-11-9.3-11.3-3.5-.2-6.7 1.4-8.8 4a11.2 11.2 0 0 0-2.3 6c-.3 3.2.8 6 2.7 8.2Z" clip-rule="evenodd"/>
    <path fill="#08375E" fill-rule="evenodd" d="M14.4 30.3 13 31.6l.7 1 1.5-1.4-1-.9Zm-2.1.8L0 42.1l2 2.4 12.1-11-1.8-2.4Z" clip-rule="evenodd"/>
    <path fill="#1489EB" fill-rule="evenodd" d="m12.3 30.7-.5.4 2.3 2.7.5-.5-2.3-2.6Z" clip-rule="evenodd"/>
  </g>
  <defs>
    <clipPath id="a">
      <path fill="#fff" d="M0 0h60v60H0z"/>
    </clipPath>
  </defs>
</svg>
