<svg xmlns="http://www.w3.org/2000/svg" width="60" height="60" fill="none">
  <path fill="#FFE5CC" fill-rule="evenodd" d="M16.8 38.8c-3.5-3.8-2.1-6.1-1.5-7.3 1.3-2.3 4-.8 8-5.2 4.2-4.4 1.5-5 6.3-7C34.4 17 35 22 39 20.5c4.1-1.4 8.5 2.2 7.5 5.3-1 3-3 7.3-6.3 7-3.2-.4-3.7-.1-5.5 1.3-1.8 1.5-.6 3.6-2 5.6-1.3 1.6-4.6 2.4-5.9 0-1.3-2.4-3.8-1.6-5.3-.6-1.6 1-4 .4-4.7-.4Z" clip-rule="evenodd"/>
  <path fill="#FFA856" fill-rule="evenodd" d="M40 37.7c-.3.5-2.5.1-2.8-1a2 2 0 0 1 .8-1.8h.4c.5 0 .9 1 1.4 2l.1.4c.1.3.1.4 0 .4Z" clip-rule="evenodd"/>
  <path fill="#FFCA99" d="m60 43-.2-.2-.8-.5-.2-.2-1-.6h-.2l-.2-.2c-.5-.4-1.3-.9-2-1.8v-.1l-.4-.7c-.6-1.4-.8-2.9-.9-3.7 0 0-.3-2.3-.9-4.5l-.4-1.3-.5-1.2v-.2l-.8-1.3c-.6-1-.7-1.6-1-1.8H50a2 2 0 0 0-.6.5c-.3.8-.2 1.3 0 1.7l.8 1.6a5.6 5.6 0 0 1 .3 1.3v1.7l-.5 2.7a134 134 0 0 1-12-7.6c-1.1-.8-1.5-.9-1.8-.8-.2.1-.3.3-.4.6v.5c0 .4.1.7.9 1.4l1.7 1.5 1.1 1v8.8l-.2 1.1V42a3 3 0 0 0 1.2 1.5l.2.1 2.6 1.1 1.2.6 2.3 1c.9.4 2.1.8 3.8 1.1l.4.1.3.2 6 3.4a7.6 7.6 0 0 1 2.8-8.2Z"/>
  <path fill="#FFA856" fill-rule="evenodd" d="M41.4 43.2c-.2.3-1.9-1-2-1.1l-1.3-1.3-.2-.2-.4-.4v-.3a.8.8 0 0 1 0-.9c0-.2.2-.3.3-.4.3 0 .7.4 1.6 1.5v.1c1.4 1.9 2.2 2.8 2 3Zm-1.4-12c-.4-.4-1.2-.3-1.3-.3-.2 0-.5 0-1 .3-.1.2-.8.6-.8 1.3 0 .7.7 1.2 1 1.3.2.2.5.3.7.3.3.1.7.2 1 .1.8-.3 1.3-2.2.4-3Zm-4.4-4.3c0 .4.2.7 1 1.4l1.7 1.5.8.7.3.1h.2l-.2.1h.2c.1-.2 0-.4-.2-.6-1-1.5-2.5-1.5-3.3-3l-.4-.7v.5Z" clip-rule="evenodd"/>
  <path fill="#FFA856" fill-rule="evenodd" d="M50 40.9v1.9c0 .3-.2.6-.3.8l-.6.6-1.1.2h-5.4l-1.2-.5-1-.5a3.1 3.1 0 0 1-1.1-1.5c-.2-.4-.2-.8 0-1.2h10.4l.2.2Z" clip-rule="evenodd"/>
  <path fill="#FFA856" fill-rule="evenodd" d="M51.3 42.2c-.1.2-1.4-.2-1.8-1.1v-.7l.9 1 .9.8Z" clip-rule="evenodd"/>
  <path fill="#FFCA99" d="m60 43-.1-.2-.8-.5-.3-.2-1-.6h-.2l-.2-.2c-.5-.4-1.3-.9-2-1.8v-.1l-.3-.7c-.7-1.4-.8-2.9-1-3.7 0 0-.3-2.3-.9-4.5a31 31 0 0 0-.4-1.3l-.5-1.2v-.2l-.7-1.3c-.7-1-.8-1.6-1-1.8a27.9 27.9 0 0 1 1.7 4.6l.5 2.3.1 1c.3 1.7.9 5.8 1.2 6.7a7.3 7.3 0 0 0 2.8 3.4c.6.5 1.2.9 2 1.3a8 8 0 0 1 1.1-1Z"/>
  <path fill="#1A1A1A" fill-rule="evenodd" d="M39.3 42.1c0 .4 0 .6.2.9l.2.2.3.3.3.2h8c.3 0 .6 0 .8-.2.3-.1.4-.3.5-.5.2-.3.3-.5.3-.8V23.4l-.2-.4c-.3-.4-.8-.8-1.4-.8h-7.4c-.5 0-1 .3-1.3.7-.2.2-.3.6-.3 1V42Z" clip-rule="evenodd"/>
  <path fill="#258A62" d="M49.3 23.8H40V42h9.4V23.8Z"/>
  <path fill="#333" fill-rule="evenodd" d="M45 23c0-.2-.2-.3-.4-.3-.1 0-.3.1-.3.3 0 .2.2.3.3.3.2 0 .3-.1.3-.3Z" clip-rule="evenodd"/>
  <path fill="#fff" d="M44.6 36.2a3.8 3.8 0 1 0 0-7.7 3.8 3.8 0 0 0 0 7.7Z"/>
  <path fill="#3D9773" fill-rule="evenodd" d="M47.2 30.7H47l-.8.8-.3.4-.4.4-.7.8-.3.4-.2-.2-.6-.6-.4-.2-.3-.3a8 8 0 0 0-.6-.5h-.2v.1l.5.7.3.3.3.3.6.6.3.3.1.2h.4V34l.2-.2.4-.4.6-.9.4-.4.3-.5.6-.8v-.2Z" clip-rule="evenodd"/>
  <path fill="#106EBC" fill-rule="evenodd" d="M48.6 23.8 40 40.2V23.8h8.7Z" clip-rule="evenodd" opacity=".1"/>
  <path fill="#FFCA99" fill-rule="evenodd" d="m40.5 37-.6.3c-.8.3-2 .2-2.5-.4l-.2-.3c-.2-.5-.1-1.1.3-1.4.1-.2.3-.2.5-.3h.4c.7-.2 1.7-.3 2.2.2.6.6.4 1.4 0 1.8Zm.2 2.2c-.2.5-.5.7-1.1 1h-.2l-.5.2c-.7.3-.8.3-1 .2a1 1 0 0 1-.4-.4v-.3a.8.8 0 0 1 0-.9l.3-.3.3-.2c.7-.4 2-.7 2.5-.1.2.3 0 .8 0 .8Zm-.4-7.6c-.8-.7-2.4-.7-3.1 0-.4.5-.5 1.3 0 1.8.3.2.6.2 1 .3.7 0 1.7.3 2.2-.3.5-.5.3-1.3-.1-1.8Z" clip-rule="evenodd"/>
  <path fill="#1A1A1A" d="M49.3 24H40v1.8h9.3V24Z"/>
  <path fill="#fff" d="M49.3 24H40v1.8h9.3V24Z"/>
  <path fill="#0D7D50" fill-rule="evenodd" d="M48.3 24.5h.4v.2h-.4l-.1-.1v-.1Zm0 .4h.4v.2h-.4l-.1-.1v-.1Z" clip-rule="evenodd"/>
  <path fill="#FFCA99" d="M28.5 21.4a1 1 0 0 0-.4-.6c-.3 0-.7 0-2 .8l-1.6 1.1c-1 .9-4 2.7-10.9 6.8l-.4-2.7-.1-1.3v-1.1l.3-.8c.3-.8.7-1 .9-1.7.1-.3.2-.9 0-1.7l-.7-.5H13c-.3.2-.4.7-1 1.8l-.1.1a10.7 10.7 0 0 0-.8 1.5l-.5 1.3-.4 1.3c-.7 2.3-1 4.7-1 4.7-.1.9-.3 2.4-1 3.9l-.3.6-.1.1c-.7 1-1.5 1.6-2 2h-.3l-.2.2-1 .6-.3.2-.8.5-.3.2-.2.1L0 40.4a7.6 7.6 0 0 1 3.1 8.4l9.2-5.2.3-.2h.3c1.8-.4 3.2-.8 4-1.2 1-.3 1.5-.7 2.5-1.1l1.2-.6 2.7-1.2a4 4 0 0 0 1.2-1l.3-.6c.3-.8 0-1.4-.1-2.5V26l1-1 2-1.6c.7-.7.9-1 1-1.5l-.2-.5Z"/>
  <path fill="#FFA856" fill-rule="evenodd" d="M25.8 30.2c.6.1 1.3 1.5.8 2.5s-2 1.3-2.5.9c-.2-.2 0-.7.1-1.2.1-.1.8-2.2 1.6-2.2Zm.9 5.3c0 .2-.2.4-.5.7l-.2.2-1.4 1.4s-1.8 1.4-2 1.2c-.2-.2.6-1.3 2-3.2h.1c1-1.3 1.3-1.7 1.7-1.6l.3.4v1Zm-2.7-9c.7-.8 2-.5 2.8.1 0 .1.5.6.5 1.2 0 .7-.8 1.1-1 1.3a2 2 0 0 1-.7.2c-.1 0-.7.2-1 .1-.9-.3-1.5-2-.6-3Zm4.6-4.5c0 .4-.2.7-1 1.4L25.8 25l-.8.7-.3.1h-.3l.2.2-.2-.1c0-.2 0-.4.2-.6 1-1.6 2.6-1.6 3.5-3l.4-1 .1.7Z" clip-rule="evenodd"/>
  <path fill="#FFA856" fill-rule="evenodd" d="M24.5 38.3c-.4.5-.8.8-1.2 1l-2.7 1.3-1.2.5H15c-.3 0-.7 0-1-.3l-.5-.5a2 2 0 0 1-.2-.9v-2l.2-.2h11v1.1Z" clip-rule="evenodd"/>
  <path fill="#FFA856" fill-rule="evenodd" d="M12.2 38s1.4-.3 1.8-1.3c.1-.2.2-.6 0-.6l-.9.9-1 1Zm.8-18.3-.9 1.8-1 3-.5 2.4-.1 1-1 4.6s-.2 1.2-.6 2.3c-.4 1-1.9 2.1-3 2.8a58 58 0 0 1-5.2 3.2l-.6-.4 2.7-1.6H3l.3-.3.8-.5c.1 0 .2 0 .3-.2a5290.8 5290.8 0 0 1 1.2-.7l.2-.2c.6-.3 1.4-.8 2-1.8l.1-.1.4-.7c.7-1.5.9-3 1-3.9 0 0 .3-2.4 1-4.6 0-.5.2-1 .4-1.4L11 23a74.9 74.9 0 0 0 .8-1.5c.7-1.1.8-1.7 1-1.9Z" clip-rule="evenodd"/>
  <path fill="#A1D0F7" fill-rule="evenodd" d="M24.8 38.8c0 .3 0 .6-.2.9l-.2.2-.4.3-.3.1-.3.1h-8c-.4 0-.7 0-1-.2l-.5-.5a2 2 0 0 1-.3-1V19.3l.2-.4c.3-.5.8-.8 1.4-.8h7.9c.5 0 1 .3 1.3.6.3.3.4.7.4 1v19.2Z" clip-rule="evenodd"/>
  <path fill="#fff" d="M24.2 19.7h-10v18.9h10v-19Z"/>
  <path stroke="#0C528D" d="M24.2 19.7h-10v18.9h10v-19Z"/>
  <path fill="#FFCA99" fill-rule="evenodd" d="M24.7 27c.3-.6 1-.8 1.7-.6.7.4 1 1.2.8 1.9-.2.5-.8.7-1 .8 0 0-.9.2-1.4-.3-.3-.2-.3-.7-.3-.9 0-.2-.1-.6.2-1Zm-1 5.4c.7.8 2.4.8 3 0 .5-.5.5-1.4 0-1.8-.2-.2-.5-.3-1-.3-.6-.1-1.6-.3-2.1.2-.5.6-.3 1.4.1 2Zm3 3.1c0 .4-.2.6-.5.7 0 0-.3.1-1-.2l-.5-.2c-.7-.3-1-.5-1.1-1 0 0-.2-.5 0-.9.5-.6 1.8-.3 2.5.1l.3.2.3.4v1Z" clip-rule="evenodd"/>
  <path fill="#106EBC" fill-rule="evenodd" d="m23.5 19.6-9.2 17.1v-17h9.2Z" clip-rule="evenodd" opacity=".1"/>
  <path fill="#3D9773" d="M17.4 20.1c0 .2.1.4.3.4.1 0 .3 0 .3-.2s0-.3-.2-.4c-.2 0-.3 0-.4.2Zm7.9-5.8c0 .2.1.3.3.4.1 0 .3 0 .3-.2s0-.4-.2-.4-.3 0-.4.2Zm1.5-.7c0 .2.1.4.3.4.1 0 .3 0 .3-.2s0-.3-.2-.4c-.2 0-.3 0-.4.2Zm1.6-.5c0 .2 0 .3.2.4.2 0 .3 0 .4-.2 0-.2-.1-.4-.3-.4-.1 0-.3 0-.3.2Zm3.5-.7c-.2 0-.3 0-.3.2s.1.3.3.3c.2 0 .3 0 .3-.2s-.1-.3-.3-.3Zm-1.9.4c0 .1 0 .3.2.3s.3 0 .4-.2l-.3-.4c-.1 0-.3.1-.3.3ZM18.7 19c0 .2 0 .4.2.4s.3 0 .3-.2 0-.3-.2-.4c-.2 0-.3 0-.3.2Zm14.8-6.6c-.1 0-.3.1-.3.3l.3.3c.2 0 .3-.1.3-.3l-.3-.3ZM19.9 18c0 .1 0 .3.2.3s.3 0 .4-.2c0-.1-.1-.3-.3-.3-.1 0-.3 0-.3.2Zm1.3-1c0 .1 0 .3.2.3s.3 0 .4-.2c0-.1-.1-.3-.3-.3-.1 0-.3 0-.3.2Zm2.8-1.9c-.1.2 0 .4.1.4.2 0 .4 0 .4-.2s0-.3-.2-.4c-.2 0-.4 0-.4.2Zm-1.5.9c0 .2.1.3.3.4.1 0 .3 0 .3-.2s0-.4-.2-.4-.3 0-.4.2Zm20.3 2.5c0 .1 0 .3.2.3s.3 0 .4-.2l-.3-.4c-.1 0-.3.1-.3.3Zm1.9 2.6c0 .2 0 .3.3.4.1 0 .3 0 .3-.2s0-.3-.2-.4c-.2 0-.4 0-.4.2Zm-9.6-8.4c-.1 0-.3.1-.3.3l.3.3c.2 0 .3-.1.3-.3l-.3-.3Zm10.5 9.8c0 .2 0 .3.2.4.2 0 .3 0 .4-.2 0-.2-.1-.3-.3-.4-.1 0-.3 0-.3.2Zm.8 1.5c0 .1 0 .3.2.3s.3 0 .4-.2c0-.2-.1-.3-.3-.4-.1 0-.3 0-.3.3Zm-2.6-4.2c0 .1 0 .3.2.3s.3 0 .4-.2c0-.1-.1-.3-.3-.3-.1 0-.3 0-.3.2Zm-7.4-6.4c0 .2 0 .3.2.4.2 0 .4 0 .4-.2s0-.3-.3-.4c-.1 0-.3 0-.3.2Zm1.4.7c0 .2.1.4.3.4.1 0 .3 0 .3-.2s0-.3-.2-.4c-.2 0-.3 0-.4.2Zm2.7 1.9c0 .2 0 .4.2.4s.4 0 .4-.2c0-.1 0-.3-.3-.3-.1 0-.3 0-.3.2Zm1.2 1.2c0 .2 0 .4.2.4s.4 0 .4-.2 0-.3-.3-.4c-.1 0-.3 0-.3.2ZM39.2 15c0 .2 0 .4.3.4.1 0 .3 0 .3-.2s0-.3-.2-.4c-.2 0-.4 0-.4.2Zm7.9 10.4c0 .2.1.3.3.4.1 0 .3 0 .3-.2s0-.3-.2-.4c-.2 0-.3 0-.4.2Z"/>
  <path fill="#0D7D50" d="M41.5 24.9a9.5 9.5 0 0 0 0 .6h-1.3v-1.3h1.2v.7Z"/>
  <path fill="#3D9773" d="m41.2 24.5-.2.1h.1-.3l.3-.1-.2-.2.4.2v.3-.3Z"/>
  <path fill="#0D7D50" d="M40.6 25.3h-.1V25h-.1v.2h-.1l.2.1Z"/>
  <path fill="#3D9773" d="m40.7 24.6.2.1h-.2l-.1.2v-.2l-.2.2.1-.2h-.1.2l.1-.1Zm.1.6v.1h-.1.2v-.1Z"/>
  <path fill="#fff" d="m41.2 24.5-.2.1h.1-.3l.3-.1-.2-.2.4.1v.4-.3Zm-.6.8-.1-.1h-.1V25v.1h-.2l.2.1v.1h.2Zm.1-.7.2.2h-.2v.1l-.1-.1-.2.1.1-.2h-.1.2l.1-.1Zm.2.6h-.1l-.1.1h.1l.2-.1h-.1Z"/>
  <path fill="#333" d="M41.9 24.4v.4h.2l.2-.1-.1-.1v-.3h-.3Zm.1 0h.1v.4H42v-.4Zm.8 0h-.1v.2l-.2-.2h-.1v.4-.3l.3.3v-.4Zm.2 0v.4-.2l.3-.1c0-.1 0-.2-.2-.2H43Zm0 0h.2v.1h-.1Zm.6 0v.4-.2h.1l.3-.1-.2-.2h-.2Zm.1 0h.1v.1Zm.4 0-.2.4h.5l-.2-.5Zm0 .1.1.1v-.1Zm.4-.1v.4h.1v-.4h.2v.1h-.1l.1.3h.1v-.3l-.2-.1h-.2Zm.6 0H45v.4h.1v-.4Zm.1 0v.4h.2l.3-.1-.2-.1.1-.1-.1-.2h-.3Zm.2 0h.1v.1h-.1v.1h.1l-.1.2v-.4Zm.6 0h-.1l-.2.4h.5l-.2-.4Zm0 .1v.1h-.2l.1-.1Zm.2 0 .2.1v.1h-.2v.1h.2l.2-.1-.2-.2h.1v-.1h-.3Zm-4 .5c-.2 0-.2.1-.2.2l.1.1h.1l-.1.1c-.2 0-.2 0-.2-.2 0-.1 0-.2.2-.2h.1Zm.3 0 .2.4h-.1v-.1h-.4l.2-.3h.1Zm0 .2Zm.5-.2h.1v.4l-.2-.2.1-.1h-.1v.3h-.1V25h.2Zm.4 0c.2 0 .2 0 .2.2 0 0 0 .2-.2.2h-.2V25h.2Zm0 0v.3l.1-.1-.1-.2Zm.4 0v.4-.4Zm.4 0H44v.1h.2v.1H44v.2-.4h.2Z"/>
  <path fill="#08375E" d="M19 27.5v.4h-.2V27h.5v.2H19v.2h.4v.1H19Zm.5.4v-.6h.3l-.2.1v.5h-.1Zm.9 0H20v-.4h.3l-.1-.2H20h.4v.6Zm0-.3H20c0 .1 0 .2.2.2h.1v-.2Zm.8.3v-.4c0-.1 0-.2-.2-.2h-.2v.6-.6h.4v.7c.1 0 0 0 0 0Zm.5 0h-.2v-.6h.4-.1c-.2 0-.2.1-.2.3 0 .1 0 .2.2.2h.1l-.2.1Zm.6 0h-.2v-.6h.4l.1.3h-.4l.1.2h.3l-.3.1Zm0-.6v.2h.2l-.1-.2Z"/>
  <path fill="#F33" d="m19.1 28.9-.3-.1V28h.7-.2c-.2 0-.3.2-.3.4s0 .3.3.3h.2l-.3.2Zm.5-.1v-.5l.3-.1h.2l.1.3v.3h-.6Zm.4-.3-.1-.2c-.1 0-.2 0-.2.2s0 .3.2.3l.1-.3Zm.8.3v-.4l-.1-.1h-.2v.5-.6h.5v.7h-.2Zm.9 0v-.4l-.2-.1h-.1v.5h-.1v-.6h.5v.7h-.1Zm.6.1h-.2v-.7l.2-.1h.2l.1.4h-.4s0 .2.2.2h.2-.3Zm0-.6-.1.2h.3c0-.2 0-.2-.2-.2Zm.7.6h-.2v-.6h.4-.1c-.2 0-.2.1-.2.3l.1.2h.2-.2Zm.7 0-.2-.1v-.5h-.1l.1-.3h.1v.2h.2v.1h-.2v.4h.2v.1h-.1Z"/>
  <path fill="#fff" d="M14.8 26.9v2l1.7 1 1.8-1v-2l-1.8-1-1.7 1Z"/>
  <path fill="#0C528D" d="m16.5 25.8-1.8 1V29l1.8 1 1.9-1v-2.1l-1.9-1Zm1.8 3.2-1.8 1-1.7-1v-2.1l1.7-1 1.8 1v2Z"/>
  <path fill="#106EBC" d="m17.4 26.8-.8-.4-.8.4-.6.4v1.5l1.4.8 1.3-.8v-1.5l-.5-.4Z"/>
  <path fill="#08375E" d="m17.5 28-.5-1-.4-.6v3l1.3-.7-.4-.8Z"/>
  <path fill="#106EBC" d="m17 27 .5 1 .4-.8-.5-.4-.4.3Z"/>
  <path fill="#F33" d="m17.4 26.8-.8-.4.4.7.4-.3Zm.6 1.9v-1.5l-.5.7.4.8Z"/>
  <path fill="#106EBC" d="m15.7 28 .5-1 .4-.6v3l-1.4-.7.5-.8Z"/>
  <path fill="#F33" d="m16.2 27-.5 1-.5-.8.6-.4.4.3Z"/>
  <path fill="#08375E" d="m15.8 26.8.8-.4-.4.7-.4-.3Zm-.6 1.9v-1.5l.5.7-.5.8Z"/>
  <path fill="#0C528D" d="M17 28h.1v.2H17v.1h.1V28H17Z"/>
  <path fill="#fff" d="M17.4 28.3v-.1c-.1 0 0 0 0-.1l-.1-.2v-.2c0-.1 0 0 0 0h-.1v-.1l-.2-.1h.2v-.1c-.1-.1-.3-.3-.6-.3l-.6.2h-.1l-.1.2-.1.2-.1.2v.4h.1l.1.2-.1-.1c0 .1 0 0 0 0v.1h-.4s0-.1-.1 0h.1-.1l.1.1h.1v.1h.4v.1h-.2v.1l.2.1h.1v.1h.1s0-.1.1 0l.5.4v-.1l.3-.4h.5v-.4l.1-.1v-.2Zm-.2-.2v.1c0 .1 0 .1-.1 0l.1-.1H17h.1c.1 0 .2-.1.2 0Z"/>
</svg>
