<svg xmlns="http://www.w3.org/2000/svg" width="60" height="60" fill="none">
  <path fill="#FFE5CC" fill-rule="evenodd" d="M6.3 45.7c3.3 7 10 4 13.4 6 3.4 2 9.1 11 16.8 2.7 7.7-8.4 1.7-11.6 14-15.3 12.4-3.6 12.1-19 2.1-25.8-10-7-14 2.2-18.2-7.9-4.3-10-17.4-1.6-19.1 7-1.8 8.7-10.7 5-12.8 8.3-2.2 3.4-4 10.5-.6 14 3.4 3.6 3.1 8.4 4.4 11Z" clip-rule="evenodd"/>
  <path fill="#fff" fill-rule="evenodd" d="M49.9 43.5 31.8 40a.7.7 0 0 1-.5-.8l5-24.7c.1-.4.5-.6.8-.6L53 17l1.2 1.9 1 1.6L50.7 43c0 .3-.4.6-.7.5Z" clip-rule="evenodd"/>
  <path stroke="#FF9633" stroke-width=".4" d="M49.9 43.5 31.8 40a.7.7 0 0 1-.5-.8l5-24.7c.1-.4.5-.6.8-.6L53 17l1.2 1.9 1 1.6L50.7 43c0 .3-.4.6-.7.5Z" clip-rule="evenodd"/>
  <path fill="#FF7C00" fill-rule="evenodd" d="m53 17 2.3 3.5L53 20a.7.7 0 0 1-.6-.8L53 17Z" clip-rule="evenodd"/>
  <path fill="#FFA856" fill-rule="evenodd" d="m50.5 28.3-13.3-2.6a.4.4 0 0 1-.3-.4c0-.2.2-.3.4-.3l13.4 2.6c.2 0 .3.2.3.4s-.3.4-.5.3ZM51 26l-13.4-2.7a.4.4 0 0 1-.2-.4c0-.2.2-.3.4-.3l13.4 2.7c.1 0 .3.2.2.4 0 .2-.2.3-.4.3Zm-1 4.5-13.3-2.6a.4.4 0 0 1-.3-.4c0-.2.3-.4.5-.3l13.3 2.6c.2 0 .4.2.3.4 0 .2-.2.3-.4.3Zm-.8 4.3-13.4-2.6a.4.4 0 0 1-.2-.4c0-.2.2-.3.4-.3l13.4 2.6c.2 0 .3.2.2.4 0 .2-.2.4-.4.3ZM43.5 36l-8.1-1.6a.4.4 0 0 1-.3-.5c0-.1.2-.3.4-.2l8.1 1.5c.2 0 .3.3.3.5s-.3.3-.4.2Z" clip-rule="evenodd"/>
  <path fill="#CC6300" fill-rule="evenodd" d="m42.5 21.7.3-.5.6-3.2-.1-.6a.8.8 0 0 0-.5-.3l-3.1-.6a1 1 0 0 0-1 .7l-.5 3.1c-.1.5.1.9.6 1l3 .5.7-.1Z" clip-rule="evenodd"/>
  <path fill="#0C528D" fill-rule="evenodd" d="m35.7 14.8.4 11.6v.4c.1 6.8-3.2 13-8.2 16.6l-.2.1-.9.6-.6.4a3 3 0 0 1-.8.4l-2 .8-1-.2-.5-.1-.4-.2h-.1l-.5-.2h-.1A18.8 18.8 0 0 1 9.3 28.1l-.5-11.6 3.5-.5 1.3-.4c.6 0 1.1-.3 1.8-.4 2.5-.8 5-2 6.7-3.2 1.7 1 4 1.8 6.3 2.2l3.4.5c.4.1.8.2 1.1.1h.4l1 .1c.5 0 .7-.4 1-.3l.4.2Z" clip-rule="evenodd"/>
  <path fill="#0C528D" fill-rule="evenodd" d="m35.5 14.5.4 11.6v.4a20 20 0 0 1-8.3 16.6h-.1l-.9.7-.7.4a17.3 17.3 0 0 1-2.7 1.2c-.4 0-.7-.2-1.1-.3h-.4l-.5-.2-.6-.2A18.8 18.8 0 0 1 9 27.8l-.6-11.7c1 0 2.3-.3 3.5-.5l1.3-.3 1.8-.5a23 23 0 0 0 6.7-3.1c1.8 1 4 1.7 6.4 2.2l3.4.5h1l.5.1h2.4Z" clip-rule="evenodd"/>
  <path fill="#18A3B4" fill-rule="evenodd" d="m21.8 11.7 1.3 33.7c-.4-.1-.7-.3-1.1-.3h-.4l-.5-.3H21l-.5-.1A18.8 18.8 0 0 1 9 27.6L8.5 16c1 0 2.2-.3 3.5-.5l1.3-.3 1.8-.5a26 26 0 0 0 6.7-3.1Z" clip-rule="evenodd"/>
  <path fill="#127A87" fill-rule="evenodd" d="m33 17 .4 9.2A17.5 17.5 0 0 1 23 42.8a16 16 0 0 1-8-5.3 16.8 16.8 0 0 1-3.7-10l-.4-9.2c3.5-.6 7.8-1.9 11-3.7 3.2 1.5 7.6 2.3 11 2.4Z" clip-rule="evenodd"/>
  <path fill="#fff" fill-rule="evenodd" d="m27.6 23.1-6 6.5L19 27c-.5-.5-1.2-.4-1.7 0-.4.5-.4 1.3 0 1.8l3.7 3.4.8.3c.3 0 .7-.1.9-.4l6.7-7.4c.5-.5.4-1.2 0-1.7-.5-.4-1.3-.4-1.7.1Z" clip-rule="evenodd"/>
  <path fill="#0C528D" fill-rule="evenodd" d="M33 17v.4c-3.4-.2-7.6-1-10.8-2.5a32.7 32.7 0 0 1-10.8 3.8l.3 9.2a17 17 0 0 0 3 9.2 18 18 0 0 1-3.4-9.6l-.3-9.2c3.5-.6 7.7-1.9 11-3.7 3.2 1.5 7.6 2.3 11 2.4Z" clip-rule="evenodd"/>
</svg>
