<svg xmlns="http://www.w3.org/2000/svg" width="60" height="60" fill="none">
  <path fill="#F8EEE5" fill-rule="evenodd" d="M43.8 33c1-4.1 3.9-1.3 6.7-2 2.8-.6 3.9-2.9 7.3.4 3.5 3.4-1.4 3-1.5 6 0 3.2 1 4.2-1.8 5.6-2.8 1.4-4.6.4-5.2-2.9-.6-3.3-3.5-1.2-5-3-1.3-1.7-.7-3.3-.5-4.1Z" clip-rule="evenodd"/>
  <path fill="#fff" fill-rule="evenodd" d="M8.8 30.2H9v-.5h-.3v.5ZM16 21l.1.4.6-.3-.2-.3-.5.3Zm-1 .6.2.3.2-.1.3-.2-.2-.3a9 9 0 0 0-.5.3Zm-1 .6.3.3.2-.2.3-.1-.2-.4-.3.2-.2.2Zm5-2.4.2.4.2-.1.3-.1v-.4l-.4.1-.3.1Zm-1 .4.1.3h.3l.3-.2-.1-.3h-.3l-.3.2Zm-1 .4.1.3h.3l.3-.2-.2-.3h-.2l-.3.2Zm5.3-1.6v.3h.6v-.4h-.6Zm-1.1.2v.4l.4-.1h.3l-.1-.4h-.3l-.3.1Zm-1.1.3.1.3h.4l.2-.1-.1-.4h-.1l-.2.1h-.3Zm5.4-1v.4h.7v-.4h-.7Zm-1.1.1v.4h.7v-.4h-.7Zm-1.1.2.1.4h.3l.3-.1v-.4h-.7Zm5.6-.4v.4h.6v-.3h-.6Zm-1.2 0v.4h.7v-.4h-.7Zm-1.1.1v.3h.7v-.4h-.7Zm5.6.2v.4h.5v-.3l-.5-.1Zm-1.2-.1v.3l.6.1v-.4h-.5Zm-1-.1v.4h.5v-.4H30Zm5.4.8v.4h.2l.3.1.1-.3h-.3l-.3-.2Zm-1.1-.3v.4l.3.1h.3v-.3h-.3l-.3-.1Zm-1-.1-.1.3h.3l.3.1V19h-.2l-.3-.1Zm5.3 1.5-.2.3.3.1.3.1.1-.3-.2-.1-.3-.1Zm-1.1-.4v.3l.2.1.3.1.1-.3-.3-.1-.3-.1Zm-1-.4-.1.4h.3l.3.2v-.4h-.2l-.3-.2Zm5 2.3-.2.3h.2l.1.1.3.2.2-.3-.3-.2h-.1l-.2-.1Zm-.9-.6-.2.3.3.2.2.1.2-.3-.3-.2-.2-.1Zm-1-.5-.2.3.6.3.1-.3-.5-.3Zm4.6 3.1-.3.2.1.1.1.1.3.2.2-.2-.2-.2-.1-.1-.1-.1Zm-.8-.8-.3.3.3.2.2.2.2-.3-.2-.2-.2-.2Zm-.9-.6-.2.3.2.1.2.2.3-.3-.3-.2-.2-.1Z" clip-rule="evenodd"/>
  <path fill="#F8EEE5" fill-rule="evenodd" d="M.8 34c.3-3.5 3-1.5 5.3-2.5 2.2-1 2.7-3 6-.7 3.4 2.2-.7 2.6-.3 5.2.4 2.5 1.4 3.3-.7 4.8-2.1 1.5-3.7 1-4.7-1.6-1-2.7-3-.5-4.5-1.8-1.4-1.2-1.1-2.6-1-3.3Z" clip-rule="evenodd"/>
  <path fill="#fff" fill-rule="evenodd" d="m12 36 .2-.3-.1-.1h-.2l-.2-.3-.2.3.2.2.2.1Zm-2.5-2.2.3-.3h-.1l-.1-.2-.1-.1V33l-.4.2.1.1.1.1.1.2Zm.7.8.3-.3-.2-.2-.2-.2-.3.3.2.2.2.2Zm.8.7.3-.3-.4-.3-.3.2.5.4Zm-3-4.4.3-.2-.2-.5h-.3l.1.7Zm.3 1 .3-.2v-.2l-.2-.3-.3.1v.3l.2.3Zm.5 1 .3-.2-.1-.3-.2-.2-.3.1.2.3.1.3Z" clip-rule="evenodd"/>
  <path fill="#FFA856" fill-rule="evenodd" d="M14.6 40.4 4.2 42.2a.5.5 0 0 1-.5-.3l-1.2-7 10.8-2c.2 0 .5.2.5.4l1.2 6.6c0 .2-.2.5-.4.5Z" clip-rule="evenodd"/>
  <path fill="#FFA856" fill-rule="evenodd" d="m9.2 34.4-6.6 1.2-.2-1.2c0-.2.1-.5.4-.5l5.6-1c.3 0 .5.1.6.4l.2 1.1Z" clip-rule="evenodd"/>
  <path fill="#FFCA99" fill-rule="evenodd" d="m6.3 39 .3.2 6.1-1.1c.1 0 .2-.1.2-.3l-1-5.7-6.6 1.2 1 5.7Zm3.5-9.9L5 30c-.2 0-.3.1-.2.3l.5 3 6.6-1.2-.3-1.8-1.8-1.2Z" clip-rule="evenodd"/>
  <path fill="#FFA856" fill-rule="evenodd" d="m10 30.4.3.2 1.3-.3-1.8-1.2.3 1.3Z" clip-rule="evenodd"/>
  <path fill="#fff" d="m11 31-5.3 1 5.3-.8V31Zm0 .5-5.2 1v.1l5.3-.9v-.2Zm.1.5L6 33v.2l5.3-1v-.1Zm.1.6-5.2 1v.1l5.2-1Zm.1.5-5.2 1v.1l5.2-.9v-.2Zm.1.6-5.3 1 5.3-.9v-.1Zm.1.5-5.3 1v.1l5.3-1Zm.1.6-5.3.9v.1l5.3-.9v-.1Zm.1.5-5.3 1 5.3-.8v-.2Z"/>
  <path fill="#FAD738" fill-rule="evenodd" d="m15.3 34-6.6 1.2v-.6c-.1-.3 0-.5.3-.6l5.6-1c.3 0 .5.2.6.4v.6Z" clip-rule="evenodd"/>
  <path fill="#FAD738" fill-rule="evenodd" d="M14.6 40.4 4.2 42.2a.3.3 0 0 1-.4-.3V36c0-.2 0-.5.3-.5L15 33.7c.2 0 .4.1.4.4l-.2 5.8c0 .2-.2.5-.5.5Z" clip-rule="evenodd"/>
  <path fill="#72B8F3" fill-rule="evenodd" d="m56.2 42.6-10.4-1.9a.5.5 0 0 1-.3-.5l1.2-7 10.8 1.9c.3 0 .4.3.4.5l-1.2 6.6c0 .2-.3.4-.5.4Z" clip-rule="evenodd"/>
  <path fill="#72B8F3" fill-rule="evenodd" d="m53.1 35-6.5-1 .2-1.2c0-.3.3-.4.5-.4l5.7 1c.2 0 .4.3.3.5l-.2 1.2Z" clip-rule="evenodd"/>
  <path fill="#FFCA99" fill-rule="evenodd" d="M48.9 38.4c0 .1 0 .3.2.3l6.1 1 .3-.1 1-5.8-6.6-1.1-1 5.7Z" clip-rule="evenodd"/>
  <path fill="#FFCA99" fill-rule="evenodd" d="m55.6 30.3-5-.8s-.2 0-.2.2l-.5 3 6.6 1.1.3-1.7-1.2-1.8Z" clip-rule="evenodd"/>
  <path fill="#FFA856" fill-rule="evenodd" d="m55.4 31.6.1.3 1.3.2-1.2-1.8-.2 1.3Z" clip-rule="evenodd"/>
  <path fill="#fff" d="m56 32.5-5.3-1v.2l5.2 1v-.2Zm-.1.5-5.3-1v.3l5.2.9V33Zm-.1.5-5.3-.9v.2l5.2 1v-.3Zm-.1.5-5.3-.8v.1l5.2 1V34Zm-.1.6-5.3-1v.3l5.3.9v-.2Zm-.1.6-5.3-1v.2l5.3 1v-.2Zm-.1.5-5.3-1v.2l5.3 1v-.2Zm-.1.5-5.3-.9v.2l5.3.9v-.2Zm-.1.6-5.3-1v.2l5.3 1v-.2Z"/>
  <path fill="#0C528D" fill-rule="evenodd" d="m59 36.8-6.6-1.1.2-.7c0-.2.2-.4.5-.3l5.6 1c.3 0 .4.2.4.5l-.1.6Z" clip-rule="evenodd"/>
  <path fill="#0C528D" fill-rule="evenodd" d="m56.2 42.6-10.4-1.9a.3.3 0 0 1-.3-.4l2-5.5c0-.2.3-.4.5-.3l10.7 1.9c.3 0 .4.2.3.4l-2.2 5.5c0 .2-.3.3-.6.3Z" clip-rule="evenodd"/>
  <path fill="#18A3B4" d="M8.6 32.4c.2 0 .4-.2.4-.4s-.2-.3-.4-.3c-.3 0-.5.1-.5.3 0 .2.2.4.5.4Zm9-8.4c.2 0 .4-.1.4-.3 0-.2-.2-.4-.4-.4s-.4.2-.4.4.2.4.4.4Zm1.8-1c.2 0 .4-.2.4-.4s-.2-.3-.4-.3-.4.1-.4.3c0 .2.2.4.4.4Zm1.9-1c.2 0 .4-.1.4-.3 0-.2-.2-.4-.4-.4s-.4.2-.4.4.2.4.4.4Zm4.1-1.2c.2 0 .4-.2.4-.4s-.2-.3-.4-.3-.4.1-.4.3c0 .2.2.4.4.4Zm-2.1.5c.2 0 .4-.2.4-.4 0-.1-.2-.3-.4-.3s-.4.2-.4.3c0 .2.2.4.4.4ZM9.9 30.9c.2 0 .4-.2.4-.4s-.2-.3-.4-.3-.4.1-.4.3c0 .2.2.4.4.4Zm17.7-10.4c.2 0 .4-.2.4-.4s-.2-.3-.4-.3c-.3 0-.4.1-.4.3 0 .2.1.4.4.4Zm-16.3 8.9c.2 0 .4-.2.4-.4s-.2-.3-.4-.3-.4.1-.4.3c0 .2.2.4.4.4Zm1.4-1.4c.3 0 .4-.2.4-.4s-.1-.4-.4-.4c-.2 0-.4.2-.4.4s.2.3.4.3Zm3.2-2.7c.2 0 .4-.2.4-.4s-.2-.3-.4-.3-.4.1-.4.3c0 .2.2.4.4.4Zm-1.6 1.3c.2 0 .4-.2.4-.4s-.2-.3-.4-.3c-.3 0-.4.1-.4.3 0 .2.1.4.4.4Zm27.1-1.3c.3 0 .4-.2.4-.4s-.1-.3-.4-.3c-.2 0-.4.1-.4.3 0 .2.2.4.4.4Zm3.2 2.7c.2 0 .4-.2.4-.4s-.2-.3-.4-.3-.4.1-.4.3c0 .2.2.4.4.4Zm-14.9-7.5c.3 0 .4-.2.4-.4s-.1-.3-.4-.3c-.2 0-.4.1-.4.3 0 .2.2.4.4.4ZM46 29.4c.3 0 .5-.2.5-.3 0-.2-.2-.4-.4-.4-.3 0-.4.2-.4.4 0 .1.1.3.4.3Zm1.5 1.6c.2 0 .4-.3.4-.5s-.2-.3-.4-.3c-.3 0-.4.1-.4.3 0 .2.1.4.4.4ZM43 26.6c.3 0 .5-.2.5-.4s-.2-.3-.4-.3c-.3 0-.4.1-.4.3 0 .2.1.4.4.4Zm-11.1-5.8c.2 0 .4-.2.4-.4s-.2-.3-.4-.3-.4.1-.4.3c0 .2.2.4.4.4Zm2.1.5c.2 0 .4-.2.4-.4 0-.1-.2-.3-.4-.3s-.4.2-.4.3c0 .2.2.4.4.4Zm4 1.7c.1 0 .3-.2.3-.4s-.2-.3-.4-.3-.4.1-.4.3c0 .2.2.4.4.4Zm1.7 1c.2 0 .4 0 .4-.3 0-.2-.2-.3-.4-.3s-.4.1-.4.3c0 .2.2.4.4.4ZM36 22c.2 0 .4-.1.4-.3 0-.2-.2-.4-.4-.4s-.4.2-.4.4.2.4.4.4Z"/>
  <path fill="#FFCA99" fill-rule="evenodd" d="m38.2 27 .2.2h6.1c.2 0 .3-.1.3-.3v-5.7h-6.6V27Zm5.1-9h-4.9l-.2.2v3h6.6v-1.7L43.3 18Z" clip-rule="evenodd"/>
  <path fill="#FFA856" fill-rule="evenodd" d="M43.3 19.2c0 .2.1.3.2.3h1.3L43.3 18v1.2Z" clip-rule="evenodd"/>
  <path fill="#fff" d="M44 21.8h-5.2v.2H44v-.2Zm0 .6h-5.2v.1H44v-.1Zm0 .6h-5.2H44Zm0 .5h-5.2v.1H44v-.1Zm0 .5h-5.2v.2H44V24Zm0 .5h-5.2v.2H44v-.2Zm0 .5h-5.2v.2H44v-.1Zm0 .6h-5.2v.2H44v-.2Zm0 .5h-5.2v.2H44V26Z"/>
  <path fill="#FFCA99" fill-rule="evenodd" d="m28.1 23.5.2.2h5c.1 0 .2 0 .2-.2v-4.8h-5.4v4.8Zm4.2-7.5h-4c-.1 0-.2 0-.2.2v2.5h5.4v-1.5L32.3 16Z" clip-rule="evenodd"/>
  <path fill="#FFA856" fill-rule="evenodd" d="M32.3 17c0 .2 0 .2.2.2h1L32.3 16v1Z" clip-rule="evenodd"/>
  <path fill="#fff" d="M32.9 19.3h-4.3 4.3Zm0 .4h-4.3v.1h4.3v-.1Zm0 .5h-4.3 4.3Zm0 .4h-4.3v.1h4.3v-.1Zm0 .4h-4.3v.2h4.3V21Zm0 .5h-4.3v.1h4.3v-.1Zm0 .5h-4.3 4.3Zm0 .4h-4.3v.1h4.3v-.1Zm0 .5h-4.3 4.3Z"/>
  <path fill="#FFCA99" fill-rule="evenodd" d="m17 26.2.2.1h4.3l.2-.1V22H17v4Z" clip-rule="evenodd"/>
  <path fill="#FFCA99" fill-rule="evenodd" d="M20.6 19.8h-3.4l-.2.1v2.2h4.7v-1.3l-1-1Z" clip-rule="evenodd"/>
  <path fill="#FFA856" fill-rule="evenodd" d="m20.6 20.7.2.1h.9l-1-1v.9Z" clip-rule="evenodd"/>
  <path fill="#fff" d="M21.2 22.5h-3.7v.1h3.7Zm0 .5h-3.7 3.7Zm0 .3h-3.7v.1h3.7v-.1Zm0 .4h-3.7 3.7Zm0 .3h-3.7v.2h3.7V24Zm0 .4h-3.7v.2h3.7v-.2Zm0 .4h-3.7v.1h3.7Zm0 .4h-3.7v.1h3.7v-.1Zm0 .4h-3.7v.1h3.7v-.1Z"/>
</svg>
