<svg xmlns="http://www.w3.org/2000/svg" width="215.8" height="14.8">
  <path fill-rule="evenodd" d="M1.6.7v9h3.8V11H0V.7h1.6zm5.6 0-1 3.5H4.8L5.6.7h1.6zm4.1 3.7c.7 0 1.2.3 1.2 1v.8c-2.2 0-4.1.9-4.1 2.9 0 1.4.8 2.1 2 2.1a3 3 0 0 0 2.3-1c0 .8.8 1 1.4 1 .5 0 1-.1 1.3-.5V9.6l-.8.3c-.3 0-.5-.1-.5-.5V5.2c0-1.4-1-2.2-2.7-2.2-1.5 0-2.8.8-2.8 2.4l1.4.2c0-.9.6-1.2 1.3-1.2zM9.9 9c0-1 1.2-1.5 2.6-1.5v1.6c-.5.5-1.1.9-1.7.9s-.9-.4-.9-1zm9.9-3.4c0-.7-.4-1.2-1.2-1.2-.6 0-1.1.3-1.1.9 0 1.5 3.7 1.4 3.7 3.7 0 1.5-1 2.4-2.7 2.4a4 4 0 0 1-2.8-1.1l.6-1.2c.5.5 1.4.9 2.2.9.6 0 1.2-.2 1.2-1 0-1.1-3.7-1-3.7-3.6C16 4 17 3 18.7 3c1.8 0 2.6 1 2.6 2.3l-1.5.3zm6.6 0c0-.7-.4-1.2-1.2-1.2-.6 0-1.1.3-1.1.9 0 1.5 3.7 1.4 3.7 3.7 0 1.5-1 2.4-2.7 2.4a4 4 0 0 1-2.8-1.1l.6-1.2c.5.5 1.3.9 2.2.9.6 0 1.1-.2 1.1-1 0-1.2-3.6-1.1-3.6-3.7 0-1.3 1-2.3 2.6-2.3 1.9 0 2.6 1 2.6 2.3l-1.4.3zM31 3.3v5.4c0 1 .6 1.3 1.3 1.3s1.4-.4 1.4-1.3V3.3h1.6v5.3c0 1.8-1.3 2.7-3 2.7s-3-.9-3-2.7V3.3H31zm7.9 0V4c.6-.7 1.3-1 2-1 1.1 0 1.3 1 1.3 2.2l-1.3.2c0-.5-.1-.8-.5-.8-.5 0-1 .3-1.4.8v5.7h-1.6V3.3h1.5zm9.8 5.9c-.5.3-1.3.8-2.1.8-1.1 0-2-.6-2-2.3H49V6.4c0-2-.8-3.3-2.8-3.3S43 4.3 43 7.2c0 3 1.3 4.2 3.3 4.2 1.2 0 2-.5 2.6-1l-.2-1.2zM46 4.4c.9 0 1.3.6 1.3 2h-2.8c0-1.4.5-2 1.5-2zm6-1.1v5.4c0 1 .7 1.3 1.4 1.3s1.3-.4 1.3-1.3V3.3h1.7v5.3c0 1.8-1.3 2.7-3 2.7-1.8 0-3-.9-3-2.7V3.3H52zm8 0V4c.6-.7 1.3-1 2-1 1.1 0 1.3 1 1.3 2.2l-1.4.2c0-.5 0-.8-.5-.8s-.8.3-1.3.8v5.7h-1.6V3.3H60zm10.6 8.1c1 0 1.7-.5 2.3-1.2 0 .8.7 1.1 1.3 1.1a2 2 0 0 0 1.4-.5V9.6c-.4.3-.6.4-.9.4-.2 0-.4-.2-.4-.6V0l-1.6.3v3.2a5 5 0 0 0-2-.5C69.3 3 68 4.2 68 7.2c0 3.2 1.5 4.2 2.7 4.2zm.4-7c.7 0 1.1.2 1.6.4V9c-.4.4-1 .9-1.6.9-.8 0-1.4-.8-1.4-2.7 0-2.3.7-2.8 1.4-2.8zM78.4.7l-1 3.5H76l1-3.5h1.5zm3.1 2.6v5.4c0 1 .7 1.3 1.4 1.3s1.3-.4 1.3-1.3V3.3h1.6v5.3c0 1.8-1.3 2.7-3 2.7s-3-.9-3-2.7V3.3h1.7zM91.8 3c1.5 0 2.4.8 2.4 2.6V11h-1.6V6c0-1-.4-1.3-1.3-1.3-.6 0-1.2.2-1.7.6v6H88v-8h1.4V4a4 4 0 0 1 2.4-.9zm9.8 1a4 4 0 0 1 2.4-1c.8 0 1.4.3 1.8 1a5 5 0 0 1 2.5-1c1.5 0 2.2.8 2.2 2.6V11H109V5.8c0-1-.3-1.2-1.2-1.2-.5 0-1.1.2-1.6.6v6h-1.6v-5c0-1.2-.2-1.6-1.2-1.6a3 3 0 0 0-1.6.6v6H100v-8h1.5V4zm13.8 7.3c2.1 0 3.3-1.3 3.3-4 0-3-1-4.3-3.3-4.3-2 0-3.2 1.2-3.2 4.2 0 2.9 1.1 4.1 3.2 4.1zm0-1.4c-1 0-1.6-.6-1.6-2.7s.5-2.8 1.6-2.8 1.6.6 1.6 2.8c0 2-.5 2.7-1.6 2.7zm8.9-6.9c1.5 0 2.4.8 2.4 2.6V11H125V6c0-1-.4-1.3-1.3-1.3-.6 0-1.2.2-1.7.6v6h-1.6v-8h1.4V4a4 4 0 0 1 2.4-.9zm6.6 8.4c1 0 1.6-.5 2.2-1.2.1.8.8 1.1 1.4 1.1.5 0 1-.2 1.3-.5V9.6c-.3.3-.6.4-.8.4-.3 0-.5-.2-.5-.6V0l-1.6.3v3.2a5 5 0 0 0-2-.5c-1.4 0-2.7 1.2-2.7 4.2 0 3.2 1.4 4.2 2.7 4.2zm.4-7c.7 0 1.1.2 1.6.4V9c-.4.4-1 .9-1.6.9-.8 0-1.4-.8-1.4-2.7 0-2.3.7-2.8 1.4-2.8zm10.9 4.8c-.5.3-1.3.8-2.1.8-1.1 0-2-.6-2-2.3h4.4V6.4c0-2-.8-3.3-2.8-3.3-2 0-3.2 1.2-3.2 4.1 0 3 1.3 4.2 3.3 4.2 1.2 0 2-.5 2.6-1l-.2-1.2zm-2.6-4.8c1 0 1.3.6 1.3 2h-2.7c0-1.4.4-2 1.4-2zm10.6 7a3 3 0 0 0 2-1v4.1l1.7-.3v-11h-1.3V4c-.5-.4-1.3-.8-2.2-.8-1.5 0-2.9 1-2.9 4.2s1.4 4 2.7 4zm.5-7c.6 0 1.2.4 1.6.7V9c-.4.4-1 1-1.7 1s-1.4-.7-1.4-2.8c0-2 .7-2.7 1.5-2.7zm6.8-1.1v5.4c0 1 .6 1.3 1.3 1.3.7 0 1.3-.4 1.3-1.3V3.3h1.7v5.3c0 1.8-1.3 2.7-3 2.7-1.8 0-3-.9-3-2.7V3.3h1.7zm8-1.2V.4H164V2h1.6zm0 9V3.3H164V11h1.6zm10-5.2c0-.8-.4-1.5-1.3-1.5-1 0-1.4.6-1.4 2.8 0 2.3.6 2.8 1.8 2.8 1 0 1.5-.4 2-.7l.3 1.2c-.6.4-1.5.9-2.6.9-2 0-3.2-1.3-3.2-4.2 0-2.7 1-4.1 3.2-4.1 1.9 0 2.6 1.1 2.6 2.7l-1.4.1zm7.1-2.9c1.4 0 2.3.8 2.3 2.6V11h-1.6V6c0-1-.3-1.3-1.2-1.3a3 3 0 0 0-1.8.6v6h-1.6V.2l1.6-.2v3.8c.6-.5 1.3-.8 2.3-.8zm6.8 1.4c.7 0 1.2.3 1.2 1v.8c-2.2 0-4.1.9-4.1 2.9 0 1.4.9 2.1 2.1 2.1a3 3 0 0 0 2.3-1c0 .8.7 1 1.3 1 .6 0 1.1-.1 1.4-.5l-.1-1.1c-.3.2-.5.3-.8.3-.3 0-.4-.1-.4-.5V5.2c0-1.4-1.1-2.2-2.8-2.2-1.5 0-2.7.8-2.8 2.4l1.5.2c0-.9.5-1.2 1.2-1.2zM188 9c0-1 1.2-1.5 2.6-1.5v1.6c-.4.5-1 .9-1.7.9-.6 0-.9-.4-.9-1zm10.5-6c1.5 0 2.3.8 2.3 2.6V11h-1.6V6c0-1-.3-1.3-1.2-1.3a3 3 0 0 0-1.8.6v6h-1.6v-8h1.5V4a4 4 0 0 1 2.4-.9zM209 4.7h-1c.2.3.3.8.3 1.4 0 1.7-1.2 3-2.9 3l-.7-.1c-.3.2-.5.3-.5.6s.5.3 1.3.4c1.4.2 3.5.4 3.5 2.3 0 1.7-1.9 2.5-3.8 2.5-2 0-3.3-.7-3.3-2 0-.8.6-1.4 1.4-1.8-.3-.3-.6-.5-.6-1.1s.4-1 .9-1.4c-.7-.5-1-1.3-1-2.4 0-1.9 1.1-3 2.9-3 .4 0 .8 0 1.1.2h2.5v1.4zM204 6c0-1.3.5-1.7 1.4-1.7 1 0 1.5.4 1.4 1.7 0 1.2-.5 1.7-1.4 1.7-.8 0-1.4-.5-1.4-1.7zm-.5 6.6c0 .7.8.9 1.8.9s2-.4 2-1.1c0-1-1.3-1-2.5-1.1-.6.3-1.3.7-1.3 1.3zm11.9-3.4c-.5.3-1.2.8-2.1.8-1.1 0-1.9-.6-2-2.3h4.5V6.4c0-2-.8-3.3-2.9-3.3s-3.2 1.2-3.2 4.1c0 3 1.3 4.2 3.3 4.2 1.2 0 2-.5 2.7-1l-.3-1.2zm-2.6-4.8c1 0 1.4.6 1.4 2h-2.8c0-1.4.5-2 1.4-2z"/>
</svg>
