<svg xmlns="http://www.w3.org/2000/svg" width="189.3" height="40.5">
  <defs>
    <linearGradient id="a" x1="20.3" x2="20.3" y1="-1" y2="41.8" gradientUnits="userSpaceOnUse">
      <stop offset="0" stop-color="#1C7953"/>
      <stop offset=".6" stop-color="#7FCBAE"/>
      <stop offset="1" stop-color="#109A6B"/>
    </linearGradient>
    <linearGradient id="b" x1="20.3" x2="20.3" y1="-10.1" y2="38" gradientUnits="userSpaceOnUse">
      <stop offset="0" stop-color="#109A6B"/>
      <stop offset=".3" stop-color="#7FCBAE"/>
      <stop offset=".6" stop-color="#109A6B"/>
      <stop offset=".8" stop-color="#1C7953"/>
      <stop offset=".9" stop-color="#1B8059"/>
      <stop offset="1" stop-color="#12936B"/>
      <stop offset="1" stop-color="#00A67D"/>
    </linearGradient>
    <linearGradient id="c" x1="28" x2="28" y1="35.3" y2="4.2" gradientUnits="userSpaceOnUse">
      <stop offset="0" stop-color="#00B087"/>
      <stop offset="1" stop-color="#109A6B"/>
    </linearGradient>
    <linearGradient id="d" x1="8.6" x2="8.6" y1="35.3" y2="4.2" gradientUnits="userSpaceOnUse">
      <stop offset="0" stop-color="#00B087"/>
      <stop offset="1" stop-color="#109A6B"/>
    </linearGradient>
    <linearGradient id="e" x1="14.7" x2="14.7" y1="35.3" y2="4.2" gradientUnits="userSpaceOnUse">
      <stop offset="0" stop-color="#00B087"/>
      <stop offset="1" stop-color="#109A6B"/>
    </linearGradient>
    <linearGradient id="f" x1="19.9" x2="19.9" y1="35.3" y2="4.2" gradientUnits="userSpaceOnUse">
      <stop offset="0" stop-color="#00B087"/>
      <stop offset="1" stop-color="#109A6B"/>
    </linearGradient>
  </defs>
  <rect width="40.7" height="40.5" fill="url(#a)" rx="0" ry="0"/>
  <path fill="url(#b)" fill-rule="evenodd" d="M39.4 20.5c0 8.4.4 17.1.4 17.1 0 1-.7 1.6-1.4 1.6H3.2c-.8 0-1.4-.7-1.5-1.6 0 0-1-7.3-1-18.6s1-16.6 1-16.6c.1-1 .7-1.6 1.5-1.6h35.2c.7 0 1.4.7 1.4 1.6 0 0-.4 9.6-.4 18.1z"/>
  <g fill-rule="evenodd">
    <path fill="url(#c)" d="M31.6 11c-2.5 1.4-3.3 1.5-6 3.1v-.3c1.5-1.6 2.1-2.2 3-3.6-2.5.1-6.1.4-8.7 1v-.3A36 36 0 0 1 29 8.3a30 30 0 0 0-6-3.6v-.3c3.5.4 8 2 9.9 3.1l3.2-.4s-.2 1-1.9 2c.4 1.1-.6 7.3-1.4 8.9 0-2.5-.2-5.7-1-7z"/>
    <path fill="url(#d)" d="m13.2 32.8.1-.2c-1.3-.5-2.6-1-3.7-2 .3-.9.7-1.6 1.4-2.6v-.2c-1 .1-2.1.6-3.1.7-.8-1.3-1.1-3.2-1.5-5l-.1.3c-.3 2-.4 3.5 0 5.1-.9.2-1.6.3-2.3.6v.3l3 1.6c.7 1.4 1.4 2.3 2.4 3.4l.1-.3c-.1-.8-.4-1.4-.3-2.3 1.4.4 2.5.6 4 .6z"/>
    <path fill="url(#e)" d="M17 12.5s-.6 1-1 2.2h-.1c3.1.5 6 1.7 6.8 2.1l-.2.3c-3.2-.6-5-.5-6.2-.4-1.2.1-1.4.3-1.4.3-.7 1.5-1.1 4-1.3 4.9v.3c-.7-1.5-1.5-4.3-1.5-4.3-1.7.9-5.5 4.4-5.5 4.4 2.1-4.1 4.3-6 4.3-6-.8-.7-2.7-1-4-1.1v-.3c1-.3 2.7-.4 4-.4H13c1.3-1 3.2-2 3.8-2z"/>
    <path fill="url(#f)" d="m21 30.3-2 2.3c-1 .3-2.4.2-3.3.2l-.2.3c.7.4 1.5.6 2.3.8l-2 1.4-.2.2c1.3-.2 3-.8 4.2-1.5l1.7-.1.1-.3c0-.3-.3-.4-.3-.9a28 28 0 0 0 3-2.7v-.2c-.9.6-2.1 1.6-3.2 2l-.2-1.5z"/>
    <path fill="#FFF" d="M31.7 10.6c-2.5 1.5-3.2 1.6-6 3.3 1.6-1.7 2.1-2.4 3-4-2.4.2-6.1.5-8.7 1a35 35 0 0 1 9-2.7c-.5-.8-5-3.1-6.1-3.6 3.5.2 7.8 1.6 10 2.8L36 7c-.3.7-.3 1-1.8 2 .4 1.2-.6 7.3-1.4 8.9 0-2.5-.2-5.7-1.2-7.2zm-18.4 22a10 10 0 0 1-3.6-2.2c.4-1 .8-1.7 1.4-2.7l-3 .5c-.8-1.4-1.2-2.8-1.6-4.7-.2 2-.4 3.4 0 5.1l-2.3.8c1 .7 1.9 1.2 3 1.7.7 1.4 1.4 2.3 2.4 3.4-.2-.9-.3-1.6-.2-2.6 1.3.4 2.4.6 4 .7zm3.8-20.4a9 9 0 0 0-1.1 2.2c3.7.5 6.7 2.4 6.7 2.4a26 26 0 0 0-6.2-.4c-1.2.1-1.4.3-1.4.3-1 2-1.4 5.2-1.4 5.2a64 64 0 0 1-1.5-4.3c-1.7 1-5.4 4.4-5.4 4.4 2-4 4.2-6 4.2-6-.8-.7-2.6-1.1-4-1.2a16.2 16.2 0 0 1 6.2-.6c1.3-1 3.2-1.9 4-2zM21 30c-.6.9-1.2 1.6-1.9 2.3a13 13 0 0 1-3.5.5c.8.4 1.5.6 2.3.8a15 15 0 0 1-2.2 1.7c1.2-.3 2.9-.8 4.2-1.5l1.7-.1-.3-1.2c1.2-.9 2-1.7 3-2.7-1 .7-2 1.3-3.2 1.8V30z"/>
  </g>
  <path fill-rule="evenodd" d="M51 11.8V5.5h6.8c2.4 0 5 .8 5 3 0 1.4-1.1 2.6-2.9 3 2.4.7 3.6 2 3.6 3.7 0 2.7-3.3 3.6-6.3 3.6h-6.3v-.1c.2-1.7.2-5.7.2-7zm8.3-2.9c0-1.4-1-2-3.6-2l-1.2.2a207.8 207.8 0 0 0 0 10.1l1.6.1c2.5 0 3.9-.8 3.9-2.3a2 2 0 0 0-.5-1.2c-.6-.8-1.9-1.2-3.3-1.2h-.7l.7-1.9c1.3.1 2.3-.2 2.8-.8.2-.3.3-.6.3-1zm18.5-3.4h-3v3.3l.3 5a107.5 107.5 0 0 0-5.5-8.4h-3.7v.2l.2 6.2c0 1.2 0 5.2-.2 6.9H69V8.9c0 .4.2.7.7 1.5l5.7 8.4H78a106.4 106.4 0 0 1 0-13.2h-.1v-.1zm3.8 6.3c0-1.3 0-4.8-.2-6.2v-.1h5.9c2.8 0 6.1.7 6.1 3.8 0 2.7-2.3 4-7.3 4H85l.1 5.4v.1h-3.7v-.1c.2-1.7.2-5.7.2-7zm8-3.7c-.6-.7-1.8-1.1-3.6-1h-1v4.5h1c1.8 0 4-.4 4-2.3 0-.5-.2-.9-.4-1.2zm11.2 3.7-.2-6.2v-.1h5.9c2.8 0 6.2.7 6.2 3.8 0 2.7-2.4 4-7.4 4h-1.2c0 1.8 0 4.2.2 5.4v.1h-3.8v-.1c.3-1.7.3-5.7.3-7zm8-3.7c-.6-.7-1.9-1.1-3.6-1h-1v4.5h1c1.8 0 4-.4 4-2.3 0-.5-.1-.9-.4-1.2zm8.8-2.6h2.5l6 13.3h-3.7l-1.2-3.1h-5.3l-1 3v.1h-3.3l.1-.1c.7-1.6 5.2-11.3 5.9-13.2zm3 8.4c-1-2-1.7-3.9-2-4.5l-2 4.5h4zm7-8.3.2 6.2c0 1.2 0 5.2-.3 6.9v.1h3.8a106.4 106.4 0 0 1-.1-11.6l1-.1c1.8-.1 3 .3 3.5 1 .3.3.4.7.4 1.2 0 1.6-1.4 2.3-2.8 2.4h-1.1l.2.1a84 84 0 0 1 4.2 7h4l-.2-.2c0-.3-2.7-4.1-3.8-5.7v-.1c2-.6 3-1.8 3-3.5 0-3.1-3.4-3.8-6.2-3.9h-6l.2.2zm18.4-.1h-3.6l.1 6.3c0 1.1 0 5.2-.2 6.9h3.8a106.4 106.4 0 0 1 0-13.1v-.1h-.1zm3.6 6.3-.1-6.2v-.1h6.9c2.4 0 5 .8 5 3 0 1.4-1.3 2.6-3 3 2.4.7 3.6 2 3.6 3.7 0 2.7-3.3 3.6-6.3 3.6h-6.3v-.1c.2-1.7.2-5.7.2-7zm8.3-2.9c0-1.4-1-2-3.6-2l-1.2.2a207.8 207.8 0 0 0 0 10.1l1.6.1c2.5 0 3.8-.8 3.8-2.3a2 2 0 0 0-.4-1.2c-.7-.8-1.9-1.2-3.3-1.2h-.7l.7-1.9c1.3.1 2.2-.2 2.7-.8q.4-.4.4-1zm10.8-3.4h2.5l6 13.3h-3.7l-1.2-3.1H167l-1 3v.1h-3.3l.1-.1c.4-.9 5.2-11.2 5.9-13.2zm2.9 8.4c-1-2-1.7-3.9-2-4.5l-2 4.5 2 .1h2zm6.7-4.9c0 2.3 2.3 3.2 4.4 4 1.7.7 3.4 1.4 3.4 2.5 0 .4-.1.6-.3.9-.4.4-1.2.6-2.5.6-1.2 0-2.6-.5-4.2-1.2l-.6-.3v3h.4l.3.1c.8.2 2.3.6 3.8.6 3.9 0 6.3-1.6 6.3-4.2 0-2.4-2.5-3.4-4.6-4.3-1.6-.6-3.2-1.2-3.2-2.3 0-.2 0-1.2 2-1.2 1.5 0 3 .6 3.8 1l.8.3v-3l-.8-.1c-.7-.2-2-.4-3.3-.4-3.5 0-5.8 1.6-5.8 4zM60.2 25.8c-.6-.3-1.4-.7-2.5-.7-3 0-4 2.4-4 4.4 0 2.9 1.7 4.3 4 4.3 1.5 0 2.6-.7 3.6-1.6v2.5c-1 .4-2.2.8-4.1.8-4.2 0-6.9-2.7-6.9-6 0-3.5 2.8-6 7.4-6 1.1 0 2.2.1 3.2.4l-.7 2zm15.4 9.5c-.9-2-4.7-10.4-5.1-11.6h-2.3c-.6 1.7-4.5 10.2-5.2 11.6h2.8l1-2.7h4.6l1 2.7h3.2zm-6.5-8.1 1.6 3.9h-3.3l1.7-4zm13.7-3.5c2.4 0 5.3.7 5.3 3.4 0 1.4-.9 2.5-2.6 3 .2.5 3 4.7 3.5 5.2h-3.5c-.7-1.5-2.5-4.4-3.7-6.3h.8c1 0 2.5-.6 2.5-2 0-1.7-2-2-3-2h-1.3a140.9 140.9 0 0 0 0 10.2h-3.2l.2-6c0-2 0-4.5-.2-5.6h5.2zm19.7 5.8c0-3.2-1.9-5.8-6.8-5.8h-4.5c.2 1.5.2 4.5.2 5.6 0 2.3 0 4.5-.2 6h4.3c5.2 0 7-2.5 7-5.8zm-8.3-.2.1-4.1h.7c2.9-.1 4.4.8 4.4 4.2 0 3.6-1.5 4.5-4.3 4.5h-.8v-4.6zm14.2-5.6a97.3 97.3 0 0 0 0 11.6h-3.2c.2-1.6.2-5.1.2-6.1 0-1.1 0-4.2-.2-5.5h3.2zm12.4 0v1.6a104.9 104.9 0 0 0-5.8 0v3.4h4v1.8l-4-.2v5h-3.2c.2-1.6.2-5 .2-6l-.1-5.6h9z"/>
</svg>
