<svg xmlns="http://www.w3.org/2000/svg" width="150" height="150" fill="none">
  <g clip-path="url(#a)">
    <path fill="#FFE5CC" fill-rule="evenodd" d="M3 35.5C13-8.6 40.5 21.9 67.7 14.7c27.2-7.2 37.3-31.5 70.6 4.5 33.2 36-14.1 31.8-14.6 65-.6 33 9 44.5-17.7 59.2-26.7 14.8-44.3 4.9-49.9-31-5.5-36-33.8-12.6-47.4-31.9-13.6-19.2-7.5-36-5.5-45Z" clip-rule="evenodd"/>
    <path fill="#106EBC" fill-rule="evenodd" d="m73.7 46.7-3.8 7H42.4c-3.8-.1-6.8 2.9-6.5 6.4l3 31c.2 3.2 3 5.6 6.4 5.6l62 .4c3.5 0 6.3-2.5 6.6-5.6l3.6-41.5c.3-3.4-2.7-6.4-6.4-6.4l-31.5-.2a6.6 6.6 0 0 0-5.9 3.3Z" clip-rule="evenodd"/>
    <path fill="#fff" d="m39.9 56.2-.1 11.4 47.7.3V56.5L40 56.2Z"/>
    <path fill="#127A87" fill-rule="evenodd" d="m87 26.2 8.6 23c.7 1.9-.4 4-2.4 4.6L71.4 61a4 4 0 0 1-5-2.3L55 28.7c-.7-1.9.3-4 2.4-4.6l14.2-4.7L87 26.2Z" clip-rule="evenodd"/>
    <path fill="#FFCA99" fill-rule="evenodd" d="m87.7 24.8 8.6 23c.7 1.9-.3 4-2.4 4.6l-21.8 7.2a4 4 0 0 1-5-2.3l-11.3-30c-.7-1.9.4-4 2.4-4.6L72.5 18l15.2 6.8Z" clip-rule="evenodd"/>
    <path fill="#FF9633" fill-rule="evenodd" d="m87.7 24.8-11.3 3.7-4-10.5 15.3 6.8Z" clip-rule="evenodd"/>
    <path fill="#fff" d="m88.3 37.5-17.6 5.8.8 2.2 17.6-5.9-.8-2.1Zm1.4 3.9-17.5 5.8.8 2.2 17.6-5.8-.9-2.2Zm1.5 3.9-17.6 5.8.9 2.2L92 47.5l-.8-2.2Z"/>
    <path fill="#fff" fill-rule="evenodd" d="M69.3 45c.2.5-.1 1.2-.8 1.4-.6.2-1.3-.1-1.5-.7-.3-.6 0-1.3.7-1.5.7-.2 1.4.1 1.6.7Zm1.5 3.9c.2.6-.2 1.2-.8 1.4-.6.2-1.3 0-1.6-.7-.2-.6.2-1.2.8-1.4.6-.3 1.3 0 1.6.7Zm1.4 3.9c.3.6 0 1.2-.7 1.4-.7.2-1.4 0-1.6-.7-.2-.6.1-1.2.8-1.4.6-.2 1.3 0 1.5.7Z" clip-rule="evenodd"/>
    <path fill="#fff" d="m69.5 33.6-6.3 2.1 2.2 5.8 6.2-2-2.1-5.9Z"/>
    <path fill="#127A87" fill-rule="evenodd" d="m73.5 53.4-4.2 7.7-30-.2c-4 0-7.3 3.2-7 7l3.2 34.4c.3 3.4 3.3 6 7 6.1l67.5.4c3.7 0 6.8-2.6 7-6l4-45.8c.3-3.8-2.9-7-7-7l-34.2-.2a7.1 7.1 0 0 0-6.3 3.6Z" clip-rule="evenodd"/>
  </g>
  <defs>
    <clipPath id="a">
      <path fill="#fff" d="M0 0h150v150H0z"/>
    </clipPath>
  </defs>
</svg>
