<svg xmlns="http://www.w3.org/2000/svg" width="150" height="150" fill="none">
  <path fill="#FFE5CC" fill-rule="evenodd" d="M142.7 43c13 21.7 5.4 32.5 1.6 38.1-7 10.5-18 1-39.5 20.2-21.5 19.3-9.9 24.4-32.6 31.2-22.8 6.8-21.5-18.2-40.8-14-19.3 4.3-36.7-17.1-30-32 6.8-14.9 18.8-34.8 32.9-30.7 14 4.2 16.4 3 25.4-2.8S64.8 35.5 73 26.6c6.7-7.3 21.8-8.7 26 4.2 4.2 12.8 15.8 10.9 23.4 7 7.6-4 17.8.7 20.4 5.1Z" clip-rule="evenodd"/>
  <path fill="#1A1A1A" fill-rule="evenodd" d="m134.3 109.8-2.3.6-7 1.9a162.8 162.8 0 0 0-10.9 3.3l-11 4h-.4L90.8 123a148 148 0 0 0-11.3 3.5l-6.9 2.5-2.4.8c-.3.1-.4.4-.3.5l1.5 1.5c.1.2.5.2.8.1l2.6-.6h.6l3.4 2.4c-.5.5-.6 1.1-.4 1.6l.7 1.4c0 .2.4.3.8.4.5 0 1 0 1.5-.2.3 0 .6-.2.8-.4l1.3-1.1c1.5 0 3.2-.1 4.8-.6l3-.8 2.4-.7 3-1 3.7-1.5c2.1-.8 3.4-2 3.3-3l-.1-4.2h.1l1.5-.4 1-.4a15.7 15.7 0 0 0 2.4-.7l.1-.1 6.4 2.2c1.7.6 4 .5 6.3 0l3.9-1a53.6 53.6 0 0 0 5.3-1.7l2.7-1a7.2 7.2 0 0 0 3-1.9h2.3l1-.1 1-.6c0-.3 0-.5-.3-.6l-1.7-1a6 6 0 0 0-2.6-.6l-2-2.8s0-.2.2-.2l2.3-.9c.2 0 .3-.2.2-.4l-1.6-1.4c-.1-.1-.5-.2-.8 0Zm-9.2 3.4a138 138 0 0 0-10 3l-3 1c-1.1.5-2 1-2.5 1.7l.5-.2 15.5-5.7-.5.2Zm-6.4 4.7.7-.2 13-4.5.5.5 1.4 2h-.3a288 288 0 0 0-15.3 2.2Zm16.1.7c-.4.4-1 .8-1.9 1.1a71 71 0 0 1-11 3.5l-.7.2c-2 .4-4 .4-5.4-.1l-5.3-2.2 2-.7c3.4-1.1 7-1.7 10.5-1.7l11.8-.1Zm-40.3 4.2-3.2.8A97.7 97.7 0 0 0 81 127l-.5.2 17.3-4.6.6-.1a10 10 0 0 0-3.8.4Zm4.6 1.8a23 23 0 0 0-8.2 4.2l-6.5 5.7c1 0 2 0 3-.3a85.2 85.2 0 0 0 11.4-3.7l.7-.2c1.8-.7 2.8-1.8 2.6-2.7l-.7-3.6-2.2.5H99Zm-19 8-.3.1-2.4-1.7-.5-.5 14.4-4 .8-.3c-4.2 2-8.3 4.2-12 6.4Z" clip-rule="evenodd" opacity=".1"/>
  <path fill="#1A1A1A" fill-rule="evenodd" d="m74.2 127.3 2.2 1.8 17.4-5.3 5.1-1.4 6.4-1.6a13 13 0 0 0 2.2-.7l3.7-1.7c3.4-1.5 7.7-2.3 12-2.4l15.5-.2c1.1 0 1.7-.6 1-1l-2-1a8.6 8.6 0 0 0-4.5-.5 232.3 232.3 0 0 0-34 6.9l-25 7.1Z" clip-rule="evenodd"/>
  <path fill="#1A1A1A" fill-rule="evenodd" d="m131.7 107.5 2.4 1.6-15.2 6a72 72 0 0 0-4.3 1.8l-5 2.4-2.2.8-4.5 1.2c-4 1-7.2 2.8-8.9 5l-6.2 7.5c-.5.5-2 .6-2.4 0l-1.1-1.3c-.6-.7-.4-1.6.7-2.4 7.3-5.2 15.9-9.8 25.5-13.8l21.2-8.8Z" clip-rule="evenodd"/>
  <path fill="#1A1A1A" fill-rule="evenodd" d="m131.8 108.6-2.1.7-6.7 1c-3.3.4-6 2.3-9.6 3.2l-9.7 3.9v1c-.1 0-.2 0-.3-1l-10.9 3.3c-3.5 1.4-10 3-13.1 5l-3 2-2.3-.3c-.2.1 0 1.2.1 1.3l2 1.5s.2.1.4 0l2.4-.6h1l5.4 3.1c2 1.1 5.4 1.3 8.2.5l2.7-.9c1.7-.5 3.3-1 4.8-1.7l3.2-1.4c1.7-.7 2.6-1.8 2.2-2.9l-1.8-5c-.2-.5.2-1 1.1-1.3.9-.3 2-.4 2.8-.1l8.7 2.7c1.7.5 4 .5 6 0l3.4-1 4.8-1.7 2.3-1c2.4-1 3.2-2.5 1.9-3.8-1.2-1.2-2.4-3.2-3.4-4l1.9-.8c.1 0 .1-.2 0-.2v-1.2l-2.4-.3Zm3.5 6.8-3.2-3.1c-1.3-1.3-4.7-1.7-7.4-.9l-1.1.3c-3.2 1-6.2 2-9 3.1l-2.7 1c-2.8 1.2-3.3 2.4-.6 3.4l5.9 2.2c.5-.2.6-.1 1 0 .3 0 .8.2 2 .1l3.5-.6c4-1 7.6-2 10.3-3.3.8-.3 2.3-1.2 1.3-2.2Zm-31.2 7.2 1.8 3.6c.4.9-.5 1.2-1.4 1.5l-.2.1-1 .5c-3 1.5-6.6 2.5-10.5 3.8h-.1c-.5.2-1 .1-6.3-.2l-4.1-2.3c-2.9-3.2-2.6-3.3-1-3.5l1.6-.3 1-.4c3-1.2 6.1-2.3 9.4-3.3l2.9-.9c3.2-.9 7-.2 7.9 1.4Z" clip-rule="evenodd"/>
  <path fill="#333" fill-rule="evenodd" d="m131.7 107.5-2.1.6-6.4 1.8c-3.4 1-6.6 2.1-9.7 3.3l-9.8 4h-.4l-10.9 3.3c-3.5 1-6.9 2.2-10 3.5l-6.1 2.5-2.1.8c-.1 0-.2.1-.1.2l2 1.5c0 .1.2.1.4 0l2.4-.6h1l5.4 3.2c2 1 5.3 1.2 8.2.4l2.6-.8c1.8-.6 3.4-1.1 5-1.8l3.1-1.4c1.7-.7 2.6-1.8 2.2-2.8l-1.9-5.1c-.1-.5.3-1 1.2-1.3.8-.3 2-.4 2.8-.1l8.7 2.7c1.7.5 4 .5 5.9 0l3.5-1a48 48 0 0 0 4.8-1.7l2.3-1c2.4-1 3.2-2.6 1.9-3.8l-3.7-3.5c-.1-.2 0-.4.3-.5l1.9-.8s.1-.2 0-.2l-2-1.4h-.4Zm3.2 6.7-3.2-3c-1.3-1.4-4.7-1.8-7.4-1l-1 .3c-3.2 1-6.3 2-9.2 3.1l-2.5 1c-2.9 1.2-3 3.2-.3 4.2l5.9 2.1c1.6.6 3.9.6 5.8.1l.6-.1c3.7-1 7-2.2 10-3.5 1.8-.9 2.3-2.2 1.3-3.2Zm-31.2 7.3 1.8 3.5c.5 1-.2 2.1-1.9 2.8l-.6.3a66.5 66.5 0 0 1-10.3 3.6c-2.4.7-5 .5-6.6-.4l-4.8-2.7c-2-1-1.4-3 1.2-4l1-.4c3-1.2 6.1-2.3 9.4-3.2l2.9-.9c3.2-1 7-.3 7.9 1.4Z" clip-rule="evenodd"/>
  <path fill="#fff" fill-rule="evenodd" d="m103.6 127.8-.6.3a66.5 66.5 0 0 1-10.3 3.6c-2.4.7-5 .5-6.6-.4l-4.8-2.7c-2-1-1.4-3 1.2-4l1-.4c3-1.2 6.1-2.3 9.4-3.2l2.9-.9c3.2-1 7-.3 7.9 1.3l1.8 3.6c.5 1-.2 2-1.9 2.8Z" clip-rule="evenodd" opacity=".2"/>
  <path fill="#fff" fill-rule="evenodd" d="M83.5 124.2a87 87 0 0 1 4.9-1.8l.2.1-5 1.9-.9.4c-1.2.4-2 1.1-2.2 1.8-.2.7.2 1.4 1.1 1.9l4.8 2.7c1.4.8 4 1 6.2.4a65.8 65.8 0 0 0 10.2-3.6l.6-.3c1.5-.7 2.2-1.7 1.8-2.6l-1.9-3.6c-.3-.7-1.4-1.3-2.8-1.5a9.7 9.7 0 0 0-4.5.2l-3 .9-4.4 1.4h-.2l4.5-1.5 3-.9c3-1 7-.3 7.8 1.3l1.8 3.6c.5 1-.2 2-1.9 2.8l-.6.3a58.5 58.5 0 0 1-10.3 3.6c-2.4.7-5 .5-6.6-.4l-4.8-2.7c-2-1-1.4-3 1.2-4l1-.4Z" clip-rule="evenodd" opacity=".1"/>
  <path fill="#CCC" fill-rule="evenodd" d="m78.7 127.1-2.3.7H76l.1-.2 2.2-.8h.6c.2.1 0 .2-.2.3Z" clip-rule="evenodd"/>
  <path fill="#fff" fill-rule="evenodd" d="m123 121 .7-.1c3.6-1 7-2.2 9.9-3.5 1.8-.9 2.4-2.2 1.3-3.2l-3.2-3c-1.3-1.4-4.7-1.8-7.4-1l-1 .3c-3.2 1-6.2 2-9.1 3.1l-2.6 1c-2.8 1.2-3 3.2-.3 4.2l6 2.1c1.5.6 3.8.6 5.7.1Z" clip-rule="evenodd" opacity=".1"/>
  <path fill="#fff" fill-rule="evenodd" d="m103.6 127.8-.5.3a66.5 66.5 0 0 1-10.4 3.6c-2.3.7-5 .5-6.6-.4l-4.8-2.7c-2-1-1.4-3 1.2-4l1-.4c3-1.2 6.1-2.3 9.4-3.2l2.9-.9c3.2-1 7-.3 7.9 1.3l1.8 3.6c.5 1-.2 2-1.9 2.8ZM123 121l.7-.1c3.6-1 7-2.2 9.9-3.5 1.8-.9 2.4-2.2 1.3-3.2l-3.2-3c-1.3-1.4-4.7-1.8-7.4-1l-1 .3c-3.2 1-6.2 2-9.1 3.1l-2.6 1c-2.8 1.2-3 3.2-.3 4.2l6 2.1c1.5.6 3.8.6 5.7.1Z" clip-rule="evenodd" opacity=".2"/>
  <path fill="#fff" fill-rule="evenodd" d="M114.2 113.6a75.7 75.7 0 0 1 9-3l1.1-.4c2.7-.8 6.1-.4 7.4 1l3.2 3c1 1 .6 2.3-1.3 3.2a61.1 61.1 0 0 1-10 3.5l-.6.1c-2 .5-4.2.5-5.8-.1l-5.9-2.1c-2.7-1-2.5-3 .3-4.1l2.6-1Zm9.2-3-4.9 1.6-4.2 1.5-2.6 1c-1.2.6-2 1.3-2 2 0 .8.6 1.5 1.8 2l5.9 2c1.5.6 3.6.6 5.4.2l.7-.2a69.5 69.5 0 0 0 9.8-3.5c1.7-.8 2.3-2 1.3-3l-3.2-3c-.6-.6-1.7-1-3-1.2a11 11 0 0 0-4 .4l-1 .3Z" clip-rule="evenodd" opacity=".1"/>
  <path fill="#CCC" fill-rule="evenodd" d="m130 109.4 1.9-.8c.1 0 .1 0 0-.1h-.3l-2.2.6c-.2 0-.3.2-.2.3h.7Z" clip-rule="evenodd"/>
  <path fill="#333" fill-rule="evenodd" d="M97 77.8H71.3c-.4 0-.7-.4-.7-.8 0-.5.3-.8.7-.8H97c.4 0 .7.4.7.8s-.3.8-.7.8Z" clip-rule="evenodd"/>
  <g filter="url(#a)">
    <path fill="#1A1A1A" fill-rule="evenodd" d="M50.3 49.3c0-2.4 1.7-4.4 3.9-4.4H96l8.2 7.3v59.4c0 2.5-1.8 4.4-4 4.4h-46c-2.2 0-4-2-4-4.4V49.3Z" clip-rule="evenodd"/>
  </g>
  <path fill="#fff" fill-rule="evenodd" d="M50.3 49.3c0-2.4 1.7-4.4 3.9-4.4H96l8.2 7.3v59.4c0 2.5-1.8 4.4-4 4.4h-46c-2.2 0-4-2-4-4.4V49.3Z" clip-rule="evenodd"/>
  <path fill="#D9D8F3" fill-rule="evenodd" d="m104.5 52-9.4-.4V44l9.4 8Z" clip-rule="evenodd"/>
  <path fill="#333" fill-rule="evenodd" d="M95 82.4H57.8c-.6 0-1-.3-1-.8 0-.4.5-.8 1-.8H95c.6 0 1 .4 1 .8 0 .5-.5.8-1 .8Zm0-17.8H57.8c-.6 0-1-.4-1-.9 0-.4.5-.8 1-.8H95c.6 0 1 .4 1 .8 0 .5-.5.9-1 .9Zm0 4.4H57.8c-.6 0-1-.4-1-.8 0-.5.5-.8 1-.8H95c.6 0 1 .3 1 .8 0 .4-.5.8-1 .8Zm0 4.4H57.8c-.6 0-1-.4-1-.8 0-.5.5-.8 1-.8H95c.6 0 1 .4 1 .8s-.5.8-1 .8Zm-10.7 27.9H57.8c-.6 0-1-.3-1-.8 0-.4.5-.8 1-.8h26.5c.6 0 1 .4 1 .8 0 .5-.4.8-1 .8ZM95 96.8H57.8c-.6 0-1-.3-1-.8 0-.4.5-.8 1-.8H95c.6 0 1 .4 1 .8 0 .5-.5.8-1 .8ZM95 60H57.8c-.6 0-1-.3-1-.8 0-.4.5-.8 1-.8H95c.6 0 1 .4 1 .8 0 .5-.5.9-1 .9ZM80.8 87h-23c-.6 0-1-.4-1-.9 0-.4.5-.8 1-.8h23c.6 0 1 .4 1 .8 0 .5-.4.8-1 .8Z" clip-rule="evenodd"/>
  <path fill="#127A87" fill-rule="evenodd" d="M74.2 54.4c.7.8 1.9.7 2.6 0L87 42.6c.4-.4.6-1 .6-1.5 0-1.1-.9-2-1.9-2H81V15c0-1.1-1-2-2-2h-7.4c-1 0-1.9 1-1.9 2.1v24.1H65c-1 0-1.8 1-1.8 2 0 .6.2 1.1.6 1.5l10.3 11.7Z" clip-rule="evenodd"/>
  <defs>
    <filter id="a" width="56.4" height="73.6" x="49" y="44.7" color-interpolation-filters="sRGB" filterUnits="userSpaceOnUse">
      <feFlood flood-opacity="0" result="BackgroundImageFix"/>
      <feColorMatrix in="SourceAlpha" result="hardAlpha" values="0 0 0 0 0 0 0 0 0 0 0 0 0 0 0 0 0 0 127 0"/>
      <feOffset dy="1"/>
      <feGaussianBlur stdDeviation=".6"/>
      <feColorMatrix values="0 0 0 0 0 0 0 0 0 0 0 0 0 0 0 0 0 0 0.35 0"/>
      <feBlend in2="BackgroundImageFix" result="effect1_dropShadow_290_2577"/>
      <feBlend in="SourceGraphic" in2="effect1_dropShadow_290_2577" result="shape"/>
    </filter>
  </defs>
</svg>
