<svg xmlns="http://www.w3.org/2000/svg" width="150" height="150" fill="none">
  <g clip-path="url(#a)">
    <path fill="#FFE5CC" fill-rule="evenodd" d="M12.9 78.7c3.7-16 74-56.6 111-7.1 37 49.4-4.3 102.5-57.7 66.7C13 102.5 9.6 92.6 13 78.7Z" clip-rule="evenodd"/>
    <path fill="#CCC" fill-rule="evenodd" d="m129.8 20.2-3.4-.4.6-5a4.3 4.3 0 0 0-3.8-4.7l-84-10a4.3 4.3 0 0 0-4.8 3.7L20.2 119.7a4.3 4.3 0 0 0 3.7 4.7l84.1 10.1c2.4.3 4.5-1.3 4.8-3.7l8.2-66.6 3.3.4c2.5.3 4.7-1.4 5-3.8l4.4-35.7a4.4 4.4 0 0 0-3.9-5Z" clip-rule="evenodd"/>
    <path fill="#0C528D" fill-rule="evenodd" d="m129.8 20.2-3.4-.4.6-5a4.3 4.3 0 0 0-3.8-4.7l-84-10a4.3 4.3 0 0 0-4.8 3.7L20.2 119.7a4.3 4.3 0 0 0 3.7 4.7l84.1 10.1c2.4.3 4.5-1.3 4.8-3.7l8.2-66.6 3.3.4c2.5.3 4.7-1.4 5-3.8l4.4-35.7a4.4 4.4 0 0 0-3.9-5Z" clip-rule="evenodd"/>
    <path fill="#43A1EF" fill-rule="evenodd" d="M97.3 131.4 129.9 27 55.7 3.9 23.2 108.3l74 23.1Z" clip-rule="evenodd"/>
    <path fill="#E7F3FD" fill-rule="evenodd" d="M106 127.7 123.7 20 47.1 7.6 29.2 115.5l76.7 12.2Z" clip-rule="evenodd"/>
    <path fill="#fff" d="M36.5 9.3 33.8 117l77.6 2 2.7-107.9-77.6-2Z"/>
    <path fill="#1A1A1A" fill-rule="evenodd" d="m42.9 108.2 7.8.2 12.5.3 2.9.1.1-.1-.1-.2-7.9-.2-12.5-.3-2.8-.1-.2.1c0 .1 0 .2.2.2Z" clip-rule="evenodd"/>
    <path fill="#FFCA99" fill-rule="evenodd" d="M61.3 31.1h3l3.3.2h4l4.4.2h4.4l4 .2H88l2.5.2h1.2c.9 0 1.7-.6 1.7-1.3 0-.8-.7-1.4-1.5-1.5h-3.1l-3.2-.1-4-.1-4.4-.1-4.4-.2h-4.1l-3.5-.2h-3.7c-.8 0-1.6.5-1.6 1.3 0 .7.6 1.4 1.5 1.4Z" clip-rule="evenodd"/>
    <path fill="#0C528D" fill-rule="evenodd" d="M61.2 35.9h4.4l4.7.2 5.8.2 6.4.1 6.4.2 6 .2h5l3.7.2h1.7c.6 0 1.2-.4 1.1-.9 0-.5-.4-.9-1-.9h-1.2L101 35l-4.7-.1-5.8-.2-6.4-.2-6.4-.1-6-.2-5-.1L63 34h-1.7c-.6 0-1.2.3-1.1.8 0 .5.4 1 1 1Zm-.2 5.2h1.2l3.2.1 4.8.2 5.8.1 6.3.2 6.5.1 6 .2 5 .1 3.7.1h1.7c.6 0 1.1-.3 1.1-.8s-.4-1-1-1h-4.4l-4.8-.2-5.8-.2H84l-6.5-.2-6-.1-5-.2h-3.6l-1.8-.1c-.6 0-1 .4-1 .9s.3.9 1 1Zm-7-11.6c0-.6-.3-1-.7-1.4-.3-.3-.7-.5-1.2-.5h-3.5l-2.2-.1H45c-.5 0-1 0-1.4.4-.3.3-.5.8-.6 1.3v3.2l-.1 2.3V37c.3.7.9 1.2 1.7 1.2h.9l2.1.1H50l1.6.1h.2a1.8 1.8 0 0 0 1.9-1.8V35a2392.7 2392.7 0 0 0 .1-5.5ZM52.3 37h.1a.7.7 0 0 0 .1-.5v-.8a1026 1026 0 0 1 .2-3.9v-2.6l-.1-.2-.1-.1-.2-.1h-1.1l-1.8-.1-2.1-.1h-2.7l-.1.1v.1c-.2 0-.2.2-.2.3v.9l-.1 1.8V34l-.1 1.8v.8l.1.1v.1h.1l.2.2h2.9l2 .1h1.8l.7.1h.3l.1-.1Zm-7.9-8.4Zm-.3 8Z" clip-rule="evenodd"/>
    <path fill="#FFCA99" fill-rule="evenodd" d="M60.7 53.6h.8l2.2.1 3.3.1 4 .1 4.4.1 4.4.1 4 .1 3.5.1h2.5l1.2.1c.9 0 1.7-.6 1.7-1.3 0-.8-.7-1.4-1.5-1.4h-.9l-2.2-.1H85l-4-.2-4.4-.1-4.4-.1L68 51l-3.5-.1H62l-1.2-.1c-.8 0-1.6.6-1.6 1.3 0 .8.6 1.4 1.5 1.4Z" clip-rule="evenodd"/>
    <path fill="#0C528D" fill-rule="evenodd" d="M60.3 68.9h3.4l3.6.2h4.5l4.8.2 5 .1 4.5.2h4l2.7.1h1.3c.6 0 1.1-.3 1.1-.8s-.4-1-1-1h-3.4l-3.6-.1-4.4-.2h-5l-4.8-.2-4.6-.1-3.9-.1-2.8-.1h-1.3c-.6 0-1.1.3-1.1.8s.4 1 1 1Zm.1-5.2h4.2l4.5.2 5.5.1 6 .2 6.1.1 5.7.2 4.8.1 3.4.1h1.7c.6 0 1.1-.4 1.1-.9 0-.4-.4-.9-1-.9h-1.1l-3-.1-4.6-.1-5.5-.2-6-.1-6.1-.2-5.7-.1-4.8-.1-3.4-.1h-1.7c-.6-.1-1 .3-1 .8s.4 1 1 1Zm.2-5.3h1.1l3 .1 4.6.1 5.5.2 6 .1 6 .2 5.7.1 4.8.2h3.5l1.6.1c.6 0 1.2-.4 1.1-.9 0-.5-.4-1-1-1h-4.1l-4.6-.2-5.4-.1-6-.2-6.2-.1-5.6-.2h-4.8l-3.5-.2h-1.6c-.6 0-1.1.4-1.1.9s.4.9 1 1ZM53.4 52c0-.5-.2-1-.7-1.4-.3-.3-.7-.4-1.2-.4h-1.2L48 50l-2.2-.1h-1.3c-.5 0-1 .1-1.4.4-.3.4-.5.8-.5 1.3v1.1a2804.7 2804.7 0 0 1-.2 4.5v2.2c.3.7 1 1.2 1.7 1.3h3l2.4.1h1.8a1.8 1.8 0 0 0 1.9-1.8v-3.7l.1-2.2v-1Zm-1.2 2.3v-2.7l-.1-.1H52c-.1-.2-.2-.2-.3-.2h-1l-1.8-.1h-2.1L45 51h-1l-.1.1a1.7 1.7 0 0 0-.2.1v.2l-.1.2v2.7a2395 2395 0 0 1-.2 3.8v.9l.1.2.1.1.2.1H45l1.8.1h2l1.8.1h1.2v-.1l.1-.1v-.2l.1-.1v-.9l.1-1.9v-2Zm-8.3-3Zm-.3 8Z" clip-rule="evenodd"/>
    <path fill="#FFCA99" fill-rule="evenodd" d="M60 81.4h3l3.2.2h4l4.4.2 4.4.1 4.1.1 3.5.1h2.5l1.2.1c.9 0 1.7-.6 1.6-1.3 0-.8-.6-1.4-1.5-1.4h-.8l-2.2-.1-3.3-.1-4-.1-4.3-.1-4.4-.1-4.2-.2h-3.4l-2.5-.1H60c-.9 0-1.7.6-1.6 1.3 0 .7.6 1.4 1.5 1.4Z" clip-rule="evenodd"/>
    <path fill="#0C528D" fill-rule="evenodd" d="M59.8 86.2H61l3.2.1 4.8.1 5.8.2 6.4.1 6.4.2 6 .2 5 .1 3.7.1h1.7c.6 0 1.1-.4 1.1-.8 0-.6-.5-1-1-1H103l-3.2-.1-4.8-.1-5.8-.2-6.3-.2-6.5-.1-6-.2-5-.1-3.6-.1H60c-.6 0-1 .3-1 .8s.4 1 1 1Zm-.1 5.2h1.2l3.2.1 4.8.2 5.8.1 6.3.2 6.5.2 6 .1 5 .1 3.6.1h1.8c.6 0 1-.3 1-.8s-.4-1-1-1h-4.2l-4.8-.2-5.8-.1-6.4-.2-6.4-.2-6-.1-5-.2h-3.7l-1.7-.1c-.6 0-1.1.4-1.1.9s.4 1 1 1Zm-7.7-13c.4.3.6.8.6 1.4a143.6 143.6 0 0 1-.1 5.5v1.5l-.2.7c-.1.4-.4.7-.7.9-.3.2-.7.2-1 .2h-4.2l-2.1-.1h-1a1.8 1.8 0 0 1-1.7-2V85a2862.2 2862.2 0 0 1 .2-4.4v-1.1c0-.5.2-1 .6-1.3.4-.3.8-.5 1.3-.5H45l2.3.1 2.2.1h1.3c.4 0 .9.2 1.2.5Zm-.6 3.7v-2l.1-.5v-.1l-.1-.2a2.4 2.4 0 0 0-.1-.1l-.4-.2H46l-1.8-.1h-1v.1H43v.2l-.1.2v.9l-.1 1.8v2.1l-.1 1.8a10 10 0 0 1 0 .7v.3l.1.1h.1l.2.2h1l1.8.1H48l1.8.1h1l.1-.1h.1v-.1l.1-.2.1-.1v-2.8l.1-2ZM43.2 79Zm-.2 8Z" clip-rule="evenodd"/>
    <path fill="#FFCA99" fill-rule="evenodd" d="M90 102.4a4.6 4.6 0 0 1 9 2 4.8 4.8 0 0 1-3 4.1c-1.8.7-3.8.2-5-1.1a4.6 4.6 0 0 1-1-5Zm1.8 1.8c0 1.3 1 2.5 2.4 2.5.7 0 1.4-.2 1.8-.7a2.5 2.5 0 0 0-1.6-4.3c-1.4 0-2.6 1-2.6 2.5Z" clip-rule="evenodd"/>
    <path fill="#fff" fill-rule="evenodd" d="M94.4 100.7c2 0 3.5 1.7 3.5 3.6h.1c0-2-1.6-3.7-3.6-3.8v.2Zm-.2 7.1c-2 0-3.5-1.7-3.5-3.7h-.1c0 2 1.6 3.7 3.6 3.8v-.1Z" clip-rule="evenodd"/>
    <path fill="#0C528D" fill-rule="evenodd" d="M89 104a5.3 5.3 0 0 1 9.1-3.5c.2.2.6-.1.4-.3a5.9 5.9 0 0 0-6.3-1.4c-2.2.9-3.7 3-3.7 5.3 0 .3.5.3.5 0Zm10.6.4c0 2-1.3 3.9-3.2 4.7-2 .8-4.1.4-5.7-1-.2-.2-.6.2-.3.4 1.6 1.5 4 2 6.2 1a5.7 5.7 0 0 0 3.6-5.1c0-.3-.6-.4-.6 0Z" clip-rule="evenodd"/>
  </g>
  <defs>
    <clipPath id="a">
      <path fill="#fff" d="M0 0h150v150H0z"/>
    </clipPath>
  </defs>
</svg>
