<svg xmlns="http://www.w3.org/2000/svg" width="150" height="150" fill="none">
  <path fill="#FFE5CC" fill-rule="evenodd" d="M18.6 114.2c8.2 14.8 22.4 7.5 30 11.3 7.6 3.8 21.3 22.8 36.6 3.2 15.4-19.7 2-25.7 28.2-35.7 26.1-10 23.1-43.5.4-57.3C91.1 22 84 42.7 73.2 21.2c-10.9-21.5-37.9-1-40.3 18.4-2.4 19.4-22.3 12.3-26.4 20-4 7.8-7 23.7 1 31 7.9 7.4 8 18.1 11 23.6Z" clip-rule="evenodd"/>
  <path fill="#127A87" fill-rule="evenodd" d="m102 71.3 5.5 5.8L148.7 60 102 71.3Z" clip-rule="evenodd"/>
  <path fill="#106EBC" fill-rule="evenodd" d="m104 52.2-4 6.2 2.7 6-6.2 1-5.5 12 59-17.8-46-7.4Z" clip-rule="evenodd"/>
  <path fill="#127A87" fill-rule="evenodd" d="m102.7 64.4-2.8-6 32 1.5-29.2 4.5ZM46.8 81.3c0 .5.4.8.8.8h.1c.4 0 .8-.4.8-.9l-.2-4v-2.5c0-.5-.3-.9-.7-.9-.5 0-.9.4-.9.8v2.5l.1 4.2Zm3.5 13.8a.8.8 0 0 1-.8-.6c-.8-2.1-1.4-4.3-1.9-6.5a.8.8 0 0 1 1.7-.3A49 49 0 0 0 51 94a.8.8 0 0 1-.7 1Zm5.9 11.1c.1.3.4.4.6.4a.8.8 0 0 0 .7-1.4 42.6 42.6 0 0 1-3.7-5.4.8.8 0 0 0-1.1-.3c-.4.2-.6.8-.3 1.2 1 1.9 2.4 3.8 3.8 5.5Zm10.4 9.3-.5-.1a44.1 44.1 0 0 1-5.3-4.2.8.8 0 0 1 0-1.2c.2-.3.8-.3 1 0 1.7 1.4 3.4 2.8 5.2 4a.8.8 0 0 1-.4 1.5Zm11.7 5.6h.2a.8.8 0 0 0 .3-1.6c-2.1-.6-4.2-1.4-6.1-2.3a.8.8 0 1 0-.7 1.5c2 1 4.1 1.7 6.3 2.4Zm13.3 2.4h-.1a72 72 0 0 1-6.7-.9.8.8 0 0 1-.6-1c0-.4.5-.6 1-.6 2 .4 4.2.7 6.4.9a.8.8 0 0 1 0 1.6Zm8 .3h-1.4a.8.8 0 0 1-.8-.8c0-.5.4-.9.8-.8l6.6-.1c.5 0 .9.3.9.8 0 .4-.4.8-.8.8l-5.3.1ZM13.8 23c.1.4.4.6.8.6h.2c2-.6 4-1 6.2-1.1h.1c.5 0 .9-.4.9-.9 0-.4-.5-.8-.9-.8H21c-2.3.2-4.5.6-6.5 1.2-.5.1-.7.6-.6 1Zm20 2.7-.5-.1a20 20 0 0 0-5.8-2.5.8.8 0 0 1-.6-1c.1-.4.6-.7 1-.6 2.3.5 4.4 1.5 6.3 2.7.4.3.5.8.2 1.2-.1.2-.4.3-.6.3ZM3 30.5l.5.2c.2 0 .5-.2.6-.4A17 17 0 0 1 9 26.2a.8.8 0 0 0-1-1.4 18.8 18.8 0 0 0-5 4.5c-.4.4-.3.9 0 1.2Zm39 5.3a.8.8 0 0 1-.7-.4 28 28 0 0 0-3.4-5.5.8.8 0 1 1 1.3-1c1.3 1.6 2.5 3.6 3.6 5.7a.8.8 0 0 1-.8 1.2ZM.7 42.6a.8.8 0 0 0 1.6-.4c0-.4-.2-.7-.3-1a14.4 14.4 0 0 1-.2-5.2c0-.5-.2-.9-.7-1-.4 0-.9.3-1 .7a14.2 14.2 0 0 0 .3 5.8l.3 1.1Zm45.2 6a.8.8 0 0 1-.8-.8c-.4-2.2-.8-4.4-1.4-6.4-.2-.4 0-.9.5-1 .5-.1 1 .1 1 .6.7 2 1.2 4.2 1.6 6.5 0 .5-.3 1-.7 1h-.2ZM7.3 54.4a.8.8 0 0 0 1.1 0c.4-.3.4-.8 0-1.1A27.1 27.1 0 0 1 4.8 48a.8.8 0 0 0-1-.3c-.5.2-.6.7-.4 1.1 1 2 2.4 3.9 4 5.6ZM47 61.8a.8.8 0 0 1-.8-.9v-.3l-.3-6.3c0-.4.3-.8.8-.9.4 0 .8.4.9.8.2 2.1.2 4.3.2 6.4v.3c0 .5-.3.9-.8.9Zm-28.8.6h.4c.3 0 .6 0 .7-.4.2-.4 0-.9-.4-1-2-1-3.9-2.2-5.6-3.4a.8.8 0 1 0-1 1.4c1.8 1.2 3.8 2.4 5.9 3.4ZM31 66.7h-.2a70.4 70.4 0 0 1-6.5-1.8.8.8 0 0 1-.5-1c.2-.4.6-.7 1-.5a55.3 55.3 0 0 0 6.4 1.7.8.8 0 0 1-.2 1.6Zm45.5.1c0 .5.4.8.8.8l6.7-.9c.4 0 .8-.5.7-1 0-.4-.5-.7-1-.6l-6.5.8c-.5 0-.8.5-.7 1Zm-32.4 1.8c-2.3-.1-4.6-.4-6.7-.7a.8.8 0 0 1-.7-1c0-.4.5-.7 1-.6l6.5.7a.8.8 0 0 1 0 1.6Zm19.1-.6c0 .4.4.7.9.7 2.2 0 4.4-.2 6.7-.4a.8.8 0 0 0-.2-1.7l-6.6.5c-.4 0-.8.4-.8.9ZM51 69a142.5 142.5 0 0 0 6.6 0c.5 0 .9-.4.8-.9 0-.4-.3-.8-.8-.8H51a.8.8 0 0 0 0 1.7Z" clip-rule="evenodd"/>
</svg>
