<svg xmlns="http://www.w3.org/2000/svg" width="150" height="150" fill="none">
  <path fill="#FFE5CC" fill-rule="evenodd" d="M10.8 122c-16.4-20.2-10-32.6-7-39 5.8-12 18.3-4.1 37.6-27.6 19.4-23.5 6.8-26.8 29.1-37.7C93 6.8 95 32.7 114.2 25.1c19.2-7.6 40 11.5 35 28-4.7 16.4-14.3 39-29.2 37.1-15-1.9-17.3-.3-25.7 7.3-8.4 7.5-2.7 18.9-9.8 29.4-5.9 8.7-21 12.7-27.2.2-6-12.5-17.7-8.6-24.9-3.3-7.2 5.4-18.3 2.3-21.6-1.7Z" clip-rule="evenodd"/>
  <path fill="#0C528D" fill-rule="evenodd" d="m119.5 31.8-3-.3.3-4.2c.1-2-1.4-3.9-3.5-4L39.6 18a3.8 3.8 0 0 0-4 3.4L28 123.1c-.2 2 1.4 3.8 3.5 4l73.7 5.3c2 .1 3.9-1.4 4-3.5l4.4-58.4 3 .2c2 .2 4-1.4 4-3.5l2.5-31.3c.1-2.1-1.5-4-3.6-4.1Z" clip-rule="evenodd"/>
  <g filter="url(#a)">
    <rect width="73" height="100" x="36" y="25" fill="#fff" rx="3"/>
  </g>
  <rect width="56" height="2" x="44" y="35" fill="#127A87" rx="1"/>
  <rect width="58" height="2" x="44" y="65" fill="#127A87" rx="1"/>
  <rect width="56" height="2" x="44" y="70" fill="#127A87" rx="1"/>
  <rect width="44" height="2" x="44" y="75" fill="#127A87" rx="1"/>
  <rect width="30" height="2" x="44" y="80" fill="#127A87" rx="1"/>
  <rect width="17" height="2" x="44" y="85" fill="#127A87" rx="1"/>
  <rect width="56" height="2" x="44" y="40" fill="#127A87" rx="1"/>
  <rect width="45" height="2" x="44" y="45" fill="#127A87" rx="1"/>
  <path fill="#127A87" fill-rule="evenodd" d="m48 101.3-2.3 1.9-.9-1a.4.4 0 0 0-.6 0c-.1.2-.2.4 0 .6l1.2 1.2.3.1h.3l2.5-2.2c.2-.1.2-.4 0-.5a.4.4 0 0 0-.5 0Z" clip-rule="evenodd"/>
  <rect width="40" height="2" x="58" y="98.4" fill="#127A87" rx="1"/>
  <rect width="29" height="2" x="58" y="102.4" fill="#127A87" rx="1"/>
  <rect width="23" height="2" x="58" y="106.4" fill="#127A87" rx="1"/>
  <circle cx="72.5" cy="67.5" r="23.5" fill="#127A87"/>
  <path fill="#fff" fill-rule="evenodd" d="M81 59.6 69.2 70.8 64 66c-1-.8-2.4-.8-3.2 0a2 2 0 0 0 0 3l6.8 6.5c.5.4 1 .6 1.6.6.6 0 1.2-.2 1.7-.6v-.1l13.5-12.6a2 2 0 0 0 0-3 2 2 0 0 0-3.2 0Z" clip-rule="evenodd"/>
  <path stroke="#127A87" stroke-width=".4" d="M93.4 114.7a4.5 4.5 0 1 1 8.2 3.6 4.5 4.5 0 0 1-8.2-3.6Zm1.7 1.7a2.4 2.4 0 1 0 4.8.2 2.4 2.4 0 0 0-4.8-.2Z" clip-rule="evenodd"/>
  <path fill="#127A87" fill-rule="evenodd" d="M70.1 115.7h7.1l11.2-.2H91l.2-.1-.2-.1h-7l-11.3.1h-2.6l-.1.1.1.2Z" clip-rule="evenodd"/>
  <rect width="7" height="7" x="43" y="99" stroke="#127A87" rx="1"/>
  <defs>
    <filter id="a" width="77" height="104" x="34" y="25" color-interpolation-filters="sRGB" filterUnits="userSpaceOnUse">
      <feFlood flood-opacity="0" result="BackgroundImageFix"/>
      <feColorMatrix in="SourceAlpha" result="hardAlpha" values="0 0 0 0 0 0 0 0 0 0 0 0 0 0 0 0 0 0 127 0"/>
      <feOffset dy="2"/>
      <feGaussianBlur stdDeviation="1"/>
      <feComposite in2="hardAlpha" operator="out"/>
      <feColorMatrix values="0 0 0 0 0 0 0 0 0 0 0 0 0 0 0 0 0 0 0.65 0"/>
      <feBlend in2="BackgroundImageFix" result="effect1_dropShadow_290_2506"/>
      <feBlend in="SourceGraphic" in2="effect1_dropShadow_290_2506" result="shape"/>
    </filter>
  </defs>
</svg>
