<svg xmlns="http://www.w3.org/2000/svg" width="150" height="150" fill="none">
  <g fill-rule="evenodd" clip-path="url(#a)" clip-rule="evenodd">
    <path fill="#FFE5CC" d="M8.5 38.2c7.3-23.5 20-23.4 26.6-23.6 12.2-.3 12.4 14.3 40.3 20.8 28 6.5 24-6 43.8 8.8 19.8 14.7.8 28.2 16.5 41.6 15.6 13.5 11.4 40.2-3.8 43.3-15.1 3-37.4 4.8-43.5-9.2-6.1-14-8.5-15.3-18.6-19.3-10-4-16 6-27.7 4.4-9.7-1.2-20.4-12.8-13.9-23.7 6.5-11-2.4-19.4-10.2-23.4-7.8-4-11-15-9.5-19.7Z"/>
    <path fill="#106EBC" d="M106 131.8H53.3a4.9 4.9 0 0 1-4.9-4.8V28c0-2.7 2.2-4.8 4.9-4.8h52.5c2.7 0 4.9 2.1 4.9 4.8v99c0 2.7-2.2 4.8-4.9 4.8Z"/>
    <path fill="#fff" d="M103.2 118h-47a3 3 0 0 1-2.9-2.8V29.7a3 3 0 0 1 3-3h47a3 3 0 0 1 2.8 3v85.4a3 3 0 0 1-2.9 3Z"/>
    <path fill="#62AB8D" d="m96.4 59.3-3.1 3.2-1.4-1.4a.6.6 0 1 0-.8.8l1.8 1.8.4.2c.1 0 .3 0 .4-.2l3.6-3.6c.2-.2.2-.6 0-.8a.6.6 0 0 0-.9 0Z"/>
    <path fill="#62AB8D" d="M87 61.5a7 7 0 1 1 14.2 0 7 7 0 0 1-14.1 0Zm1.3 0c0 3.2 2.6 5.9 5.8 5.9a6 6 0 0 0 0-11.8 5.9 5.9 0 0 0-5.8 5.9Z"/>
    <path fill="#62AB8D" d="M94 70c-3.5 0-6.5-2-7.8-5a1 1 0 0 0-.9-.6h-24c-1 0-1.8.8-1.8 1.7v11.2c0 1 .7 1.8 1.7 1.8h27.6l2 3.7 1.5-3.7H98c1 0 1.7-.8 1.7-1.8v-7.6a1 1 0 0 0-1.4-.9A8.4 8.4 0 0 1 94 70Z"/>
    <path fill="#E6E6E6" d="M79.4 69.3H62.9a.5.5 0 0 1-.5-.5c0-.3.2-.5.5-.5h16.5c.3 0 .5.2.5.5s-.2.5-.5.5ZM82 72H62.9a.5.5 0 0 1-.5-.5c0-.3.2-.5.5-.5h19c.3 0 .6.2.6.5s-.3.5-.5.5Zm4 3.3H62.8a.5.5 0 0 1-.5-.5c0-.3.2-.5.5-.5h23c.3 0 .5.2.5.5s-.2.5-.5.5Zm-2.7 51.5h-7.1a3 3 0 1 1 0-5.8h7a3 3 0 1 1 0 5.8Z"/>
  </g>
  <defs>
    <clipPath id="a">
      <path fill="#fff" d="M0 0h150v150H0z"/>
    </clipPath>
  </defs>
</svg>
