<svg xmlns="http://www.w3.org/2000/svg" width="150" height="150" fill="none">
  <g clip-path="url(#a)">
    <path fill="#FFE5CC" fill-rule="evenodd" d="M7.2 22.7C20 11.4 11.7 17.6 24.4 4.6c12.8-13 93 4.7 93.7 26 .6 21.2-1.9 30.2 20.8 36.1 22.7 6 12.6 96.2-50.2 81.7C25.8 134-18 45.4 7.2 22.7Z" clip-rule="evenodd"/>
    <path fill="#1A1A1A" fill-rule="evenodd" d="m123.2 127.5-12 .8h-.8l-1.7 7.4-30-3.8-42.4 7.6L23.7 17.3 112 4.5l2.6 26.6 6.3 78.6 2.4 17.8Z" clip-rule="evenodd" opacity=".1"/>
    <path fill="#E6E6E6" fill-rule="evenodd" d="m120.3 125-28 4.5-57.5 6.5L22.2 14l87-10 9.3 90.4 1.8 30.7Z" clip-rule="evenodd"/>
    <path fill="#1A1A1A" fill-rule="evenodd" d="m106.1 129.7-45.9-3.2-27-2.2L34.6 3.7l88.9 7.2-4 27.8-4.9 29.1-4.7 41.8-3.9 20Z" clip-rule="evenodd" opacity=".1"/>
    <path fill="#E6E6E6" fill-rule="evenodd" d="m106.8 130.5-28.3-1.8-57.5-6.5L33.5 0l87 9.8-9.2 90.4-4.5 30.3Z" clip-rule="evenodd"/>
    <path fill="#1A1A1A" fill-rule="evenodd" d="m109 126.8-4.2.3-13.2 2.4-57.3 1.8-.4-3.6h-7.2V8.3l89 4.1-.1 19.8v34l-.1 27.6v16.5l1.2 15.2-7.6 1.2Z" clip-rule="evenodd" opacity=".1"/>
    <path fill="#fff" fill-rule="evenodd" d="m111.7 126.3-28.3 1.3H25.6V4.8H113v90.9l-1.4 30.6Z" clip-rule="evenodd"/>
    <path fill="#0C528D" fill-rule="evenodd" d="M100.7 40.8H38.3c-.3 0-.6-.1-.8-.3-.2-.2-.4-.5-.4-.9 0-.6.6-1.1 1.2-1.1h62.4c.3 0 .6 0 .8.3.2.2.4.5.4.8 0 .4-.2.7-.4.9-.2.2-.5.3-.8.3Zm0 9H38.3a1 1 0 0 1-.8-.4c-.2-.2-.4-.5-.4-.8 0-.3.2-.6.4-.8.2-.3.5-.4.8-.4h62.4c.3 0 .6.1.8.4a1.2 1.2 0 0 1 0 1.6 1 1 0 0 1-.8.4Zm0 9H38.3c-.3 0-.6-.2-.8-.4-.2-.2-.4-.5-.4-.8 0-.7.6-1.2 1.2-1.2h62.4c.7 0 1.2.5 1.2 1.2 0 .3-.2.6-.4.8-.2.2-.5.4-.8.4Zm0 8.9H38.3c-.6 0-1.2-.5-1.2-1.2 0-.3.2-.6.4-.8.2-.2.5-.3.8-.3h62.4c.3 0 .6 0 .8.3.2.2.4.5.4.8 0 .7-.5 1.2-1.2 1.2Zm0 9H38.3c-.3 0-.6-.1-.8-.3-.2-.3-.4-.6-.4-.9 0-.3.2-.6.4-.8.2-.2.5-.4.8-.4h62.4c.3 0 .6.2.8.4.2.2.4.5.4.8 0 .3-.2.6-.4.9-.2.2-.5.3-.8.3Zm0 9H38.3c-.3 0-.6-.2-.8-.4-.2-.2-.4-.5-.4-.8 0-.7.6-1.2 1.2-1.2h62.4c.7 0 1.2.5 1.2 1.2 0 .3-.2.6-.4.8-.2.2-.5.4-.8.4Zm0 8.9H38.3c-.6 0-1.2-.5-1.2-1.2 0-.6.6-1.1 1.2-1.1h62.4c.7 0 1.2.5 1.2 1.1 0 .7-.5 1.2-1.2 1.2Zm-17.7 9H38.2c-.6 0-1.2-.5-1.2-1.2 0-.3.2-.6.4-.8.2-.2.5-.4.8-.4h44.6c.3 0 .6.2.8.4.2.2.4.5.4.8 0 .7-.5 1.2-1.2 1.2Zm5.2-74.8H55.7a1 1 0 0 1-.8-.4c-.2-.2-.3-.5-.3-.8 0-.3 0-.6.3-.8.2-.3.5-.4.8-.4h32.5c.6 0 1.1.6 1.1 1.2 0 .7-.5 1.2-1 1.2Z" clip-rule="evenodd" opacity=".4"/>
    <path fill="#0C515A" fill-rule="evenodd" d="m139 61.6-.3 5.2c.5 0 .9.5.8 1l-.1 4a455.2 455.2 0 0 1-7.7 73c0 .2-.3.4-.6.4a.6.6 0 0 1-.5-.6l-.7-9.2 6.3-75.2 1.9.2c.6 0 1 .5 1 1.2Z" clip-rule="evenodd" opacity=".2"/>
    <path fill="#4D4D4D" fill-rule="evenodd" d="m135.5 70-1.6-.1a1 1 0 0 1-.7-.4 1 1 0 0 1-.3-.7l.7-8.7c0-.6.5-1 1-1h.9l.8.2c.5 0 1 .5.9 1l-.7 8.8c0 .6-.5 1-1 1Z" clip-rule="evenodd"/>
    <path fill="#1A1A1A" fill-rule="evenodd" d="M135.8 70h-.4a.7.7 0 0 1-.7-.7l.7-9c0-.1 0-.3.2-.4l.5-.2h.4c.2 0 .4.2.5.3l.2.5-.7 9s0 .3-.2.4l-.5.2Z" clip-rule="evenodd" opacity=".2"/>
    <path fill="#127A87" fill-rule="evenodd" d="m129.5 95.4 6.3.5 2.2-28.4c0-.8-.5-1.5-1.2-1.5l-3.7-.3c-.8 0-1.4.5-1.5 1.3l-2 28.4Zm-1 45.5c-1-7.5.2-32.7.8-41.3l6.2.5c-.6 9.1-3 33.8-5.1 41l-1.8-.2Z" clip-rule="evenodd"/>
    <path fill="#666" fill-rule="evenodd" d="m137.7 72 .3-4.5c0-.8-.5-1.5-1.2-1.5l-3.7-.3c-.8 0-1.4.5-1.5 1.3l-.3 4.5 6.4.5Z" clip-rule="evenodd"/>
    <path fill="#333" fill-rule="evenodd" d="m137.7 72 .3-4c0-.8-.5-1.4-1.2-1.5l-3.8-.3c-.7 0-1.3.5-1.4 1.2l-.3 4.1 6.4.5Z" clip-rule="evenodd"/>
    <path fill="#E6E6E6" fill-rule="evenodd" d="M128.6 140.8c0 2 .2 3.5.6 3.6.5 0 1-1.5 1.2-3.4l-1.8-.2Z" clip-rule="evenodd"/>
    <path fill="#333" d="m129.6 95.5-.3 4.1 6.4.5.3-4.1-6.4-.5Z"/>
    <path fill="#1A1A1A" fill-rule="evenodd" d="m131.8 148.3-2.8-.2 6-81.1c0-.2 0-.3.2-.4l.4-.2 1.5.1c.6 0 1.1.7 1 1.4l-6.2 80.4Z" clip-rule="evenodd" opacity=".3"/>
    <path fill="#1A1A1A" fill-rule="evenodd" d="M137.3 67.6 135 89c-.1.8-.8 1.4-1.6 1.4l2.6-24 1.3 1.2Z" clip-rule="evenodd" opacity=".1"/>
    <path fill="#666" fill-rule="evenodd" d="M133.1 90.4c.4 0 .7-.2.7-.5l2.3-23.8c0-.2-.3-.2-.7-.2l-1-.1c-.3 0-.6-.1-.6.2l-1.3 23.8c0 .3.3.5.6.6Z" clip-rule="evenodd"/>
    <path fill="#333" fill-rule="evenodd" d="M133.4 90.4c.3 0 .5-.2.5-.4l2-22.5c0-.2-.1-.5-.4-.5h-.8c-.3 0-.5.1-.5.4l-1.3 22.5c0 .2.2.4.5.5Z" clip-rule="evenodd"/>
    <path fill="#1A1A1A" fill-rule="evenodd" d="M8 54.9c9.7-11.5 25.3-13.9 35-5.2 8.6 7.7 9.7 21.5 3.1 32.5l3 10.2-10.3-1.7c-9.4 7.5-22 8.1-30.3.7-9.7-8.7-9.9-25-.3-36.5Z" clip-rule="evenodd" opacity=".1"/>
    <path fill="#0C528D" fill-rule="evenodd" d="M35.3 86.3 49 90.5 45 76l-9.6 10.3Z" clip-rule="evenodd"/>
    <path fill="#0C528D" d="M25.7 91.3a25.3 25.3 0 0 0 24.6-25.9 25.3 25.3 0 0 0-24.7-25.8A25.3 25.3 0 0 0 1 65.5c0 14.3 11 25.8 24.7 25.8Z"/>
    <path fill="#fff" fill-rule="evenodd" d="m24 63.7-1.7 1.2 2.4 7.2a13.2 13.2 0 0 0 5.2-2l-1.3-3.8 1.5-1.5 1.6-2.4c.4-1 .7-2 .9-3.1.2-1.7-.5-3.7-.5-3.7-1.3-4-4.6-5.4-4.6-5.4-3.2-1.3-8 .5-8 .5l-1.8.7a15.3 15.3 0 0 0-3.2 2l-1.7 1.3 1.3 2.3c.5.7 1 1.4 1.7 2a22.3 22.3 0 0 1 3.2-2.4l1.5-.6c2-.8 3.6-.3 3.6-.3 1.6.5 2.2 2.3 2.2 2.3.4 1.2.2 2.2.2 2.2-.2.7-.5 1.4-1 2L24 63.6Zm2.3 15.1c.3 1 .8 2 1.3 3a18.9 18.9 0 0 0 5.9-2.2 21.4 21.4 0 0 0-2.1-6.2 19.5 19.5 0 0 0-6 2.2c.3 1.1.5 2.2.9 3.2Z" clip-rule="evenodd"/>
  </g>
  <defs>
    <clipPath id="a">
      <path fill="#fff" d="M0 0h150v150H0z"/>
    </clipPath>
  </defs>
</svg>
