<svg xmlns="http://www.w3.org/2000/svg" width="150" height="150" fill="none">
  <g clip-path="url(#a)">
    <path fill="#A1D0F7" d="m53.2 62.2-17.3 77h3.2l17.4-74.6-3.3-2.4Z"/>
    <path fill="#FFE5CC" d="M29.4 135.6c8.1-2 16-5 23.3-8.9a34 34 0 0 1 26.7-3.2c19.1 6.3 33.8-8.3 44.3-2.2 10.6 6 14.3 23-1.1 22-15.5-1-20.6 7.6-37.5 6.6-16.8-.9-62.9-1.1-68-7-2.7-3 4.7-5.5 12.3-7.3Z"/>
    <path fill="#CCC" d="m24 140.1 51.7 6.6 23.5-6.8-55.3-9-16.9 5.4-3 3.8Z"/>
    <path fill="#FFE5CC" d="M109.5 134.9c5.4 0 9.8-1 9.8-2.3 0-1.3-4.4-2.3-9.8-2.3s-9.8 1-9.8 2.3c0 1.3 4.4 2.3 9.8 2.3Z"/>
    <path fill="#CCC" d="M92.4 114.3s1-2.4 10.3-2.4 11 1.6 11 1.6l-.5 2.2-7.7 4.9-8.5-2c-.2 0-5.2-2.8-4.6-4.3Z"/>
    <path stroke="#005231" stroke-linecap="round" stroke-linejoin="round" stroke-width="2" d="M107.2 94.1s-4 10-4.1 22.1m-5.5-23.7s5.4 10 5.5 20.2"/>
    <path stroke="#005231" stroke-linecap="round" stroke-linejoin="round" stroke-width="2" d="M104.6 82.3s-3 21.2-1.5 32.5"/>
    <path fill="#4D4D4D" d="M92.4 114.3s-1.8 19.9 11.1 19.3c12.9-.5 10.1-20 10.1-20 .1 3.2-21 3.9-21.2.7Z"/>
    <path fill="#62AB8D" d="M99 88.7s6 3.2 10.3 1.5c4.1-1.6-.6-1-1.7-2.2-1.1-1.2 2.4.2 3.3.3.9 0 3.5-2 3.3-4-.1-2-3.2.9-3.6-.8-.5-1.7-.5-.2 2.8-1.5 2.7-1.1 3.3-4.4 2.7-5-1-.8-3.4 1.3-4 .7-.7-.6 3.2-1.7 2.4-5a37 37 0 0 1-.8-3.8s-.6.8-2.8 1.8c-1.9.9-3.2.7-3.6 3-.5 2.4-1.8 2.4-1.1-.4.7-2.7-.7-3-1.6-.9-.8 2-1.6 4.6-2 5.3-.3.8-.2.8 0-1.2 0-2-1.4-2.8-2.2-2.1-.8.6-1.5 6.2-.1 7.7 2.2 2.3 1.2 3.7-.4.1-1.5-3.5-2.6-4-3.2-1.5-.5 2.4.5 6.5 2.3 8Z"/>
    <path fill="#258A62" d="M103.7 85c2.4-1 7.5-2.6 8.9 0 0 0-3.4 1.5-3.9 1.4-.9 0-.7.4.5 1.8 1 1.3 3.3-1.7-1 0-2.8 1.2-5.3-.1-6.8-1.4.7-.7 1.5-1.5 2.3-1.9Z"/>
    <path fill="#62AB8D" d="M89.9 99c.6-.9 2-2.2 3.6-3 .2-.1.5 0 .2-.7-.2-.7-1.2 0-1.8.4-1 .7-2.2 2.7-2.5 2.3-.5-.7 1.1-6.2 3.2-6.7a9 9 0 0 1 2.8-.7c1-.1 2-.7.8-1.7-.6-.5-1.9-.5-2.7-.5-.3 0-.5-.3-.5-.6l.2-.3 1.1-.8c4.2-2.6 8.6 1.2 8.6 1.2 2 1.3 4.7 4.2 4.3 7-.5 2.8-1 2.3-2.8-1.3-1.8-3.6-3.7.1-1.7.7 1.9.7 2.6 7.2 1.8 8.1-.8 1-2.8.3-2.8-2 0-2.2-.4-3.4-.7-2.5-.3.9-.1-.2 0 2.4.2 2.6-2.4 5-2.4 5s-.4-7-1-4.4c-.7 2.6-.5 4.2-2.6 5.8-2.1 1.6-5 3-5 3s0-2.3-.5-4.8A8 8 0 0 1 90 99Z"/>
    <path fill="#3D9773" d="M97.5 101c.7-2.7 1 4.3 1 4.3s2.7-2.4 2.5-5c-.1-2.5-.3-1.5 0-2.4.3-.8.6.4.7 2.6 0 2.2 2 2.8 2.8 2 .8-1 0-7.5-1.9-8.1-1.9-.7 0-4.4 1.8-.8 1.9 3.6 2.3 4.1 2.7 1.3.5-2.7-2.2-5.6-4.2-7l-.4-.2a99 99 0 0 0-12.3 21.9c.7-.4 3-1.5 4.8-2.9 2-1.6 2-3.1 2.5-5.8Z"/>
    <path fill="#62AB8D" d="M111.8 93.3c4 .7 5.8 4 7 5 0-.6 0-1.6.2-2.5a4 4 0 0 0-1.9-4 11.7 11.7 0 0 0-5.6-1.8c3.6 0 3.6-.7 5 0a7 7 0 0 1-2-2 6.4 6.4 0 0 0-7.5-2.7c-1.5 1.4-.3 3.4-.3 3.4-1.2-1.5-2.4-2.1-4.8-1-.9.7-2.4 2-1.7 6.4.2 1.3.5 2.4.8 3.3.7-2.4 3-4.1 3-4.1-.7 1-1 1.9-1.2 2.9a7.7 7.7 0 0 0 1.9 6.8l1 1.6c-.1-1.5-.3-5.7 1.7-7.4l-.6 2.2c-.6 3.3.8 6.6 3.5 8.5l4.7 3.3s1-4.5 3.3-8.7v-.1c.5-1 .4-2 0-2.8a12.6 12.6 0 0 0-6.5-6.3Z"/>
    <path fill="#3D9773" d="M118.4 102.3c.4-1 .4-2 0-2.9a12.6 12.6 0 0 0-6.5-6.2c3.9.7 5.8 4 7 5 0-.6 0-1.6.2-2.5a4 4 0 0 0-1.9-4 11.7 11.7 0 0 0-5.6-1.8c3.6 0 3.6-.7 5 0a7 7 0 0 1-2-2 6.4 6.4 0 0 0-7.5-2.8c-1.6 1.5-.3 3.5-.3 3.5l-.8-.8a98.5 98.5 0 0 1 9 23.2s1-4.5 3.2-8.7l.1-.1Z"/>
    <path fill="#fff" d="M114.6 98.2c-.3-.3-.6-.4-1-.4s-.8.3-.3 1.2c.8 1.5 2.7 2 3.2 3.3.5 1.2 2-1 0-2.6l-2-1.5Z"/>
    <path fill="#0C528D" d="m72.3 136.6 18.2-6.4-3-3.9-17.3 6.2 2 4.1Zm-6.6-13 18.1-6.4-2.9-3.9-17.3 6.1 2 4.2ZM56 109.3l18.2-6.3-3-3.9-17.2 6.1 2 4.1Zm-7-15.4 18.2-6.4-3-3.9L47 89.7l2 4.3Zm-2.8-9.1 17.4-7.6-4.7-10-17.3 6.1 4.6 11.5Z"/>
    <path fill="#0C528D" d="m53.2 62.2 17 33.9 23.7 43.6 2.9 1-40.3-77-3.3-1.5Z"/>
    <path fill="#A1D0F7" d="m40 68.6-16 71.5h3l15.1-66-2.1-5.5Z"/>
    <path fill="#0C528D" d="M41.6 62s-6.1 5.5-3 15c2 5.8 33.9 68.9 33.9 68.9l2.5.8-.1-3-34.1-71.4.8-10.4Z"/>
    <path fill="#43A1EF" d="M75 146.7 43.2 83.2s-11-19.1 2.9-24.2c12.2-4.5 19.4 13.8 19.4 13.8l33.7 67-2.4.8-39.7-75s-2.5-5.8-10-3.2c-7.4 2.6-5.3 11-2.8 16.7 2.5 5.7 33.5 66.9 33.5 66.9l-2.8.7Z"/>
    <path fill="#72B8F3" d="M70 119.3s-1.3 0-.9-.8 2.2-4.1 2.1-5c0-1 3.2 0 3.2 0s.4 1.6.5 3.1c0 1.6 1 3.2-4.8 2.7Zm-8.3-19.9s-.5 1.2-.8 1.3c-.3 0-4.4 1-4.4 1.7 0 .6 0 .8 1.2 1 1.1 0 7.1.5 7.8.2.6-.3 0-4.5 0-4.5l-3.8.3Z"/>
    <path fill="#CC6300" d="M48.3 36.4s-2.1-1-1.9-3.5c.3-2.5 2.5-.8 2.5-.8l1.7 3.2-1 1.6-1.3-.5Z"/>
    <path fill="#CC6300" d="m48.1 36.4 4 9.9c.2.6 1.7 2.3 6.2 1l4.8-1.4-4.7-6.6-3 2.6s-3.6-5.6-4.8-6.6l-2.5 1.1Z"/>
    <path fill="#F8CD07" d="M54.4 36.4s4.2 8.4 7.7 10.7l.4 11.6s9.6 3.6 15 .7l.8-.6s3.6-17.3.1-21.1c-3.2-3.5-4.3-3-4.3-3l-7.2-.2c-2.3.2-4.3 1.9-6.3 3.7l-4.2-3-2 1.2Z"/>
    <path fill="#FAD738" d="M49.9 35c2.6 0 4.8-1.8 4.8-4.2 0-2.3-2.2-4.3-4.8-4.3-2.7 0-4.9 2-4.9 4.3 0 2.4 2.2 4.3 4.9 4.3Z"/>
    <path fill="#06292D" d="M72.5 30s1.6-1 1.5-3c-.1-2-.4-2.6-.4-2.6L71 24l1.5 6Z"/>
    <path fill="#CC6300" d="M66.8 34.8c-.3-.2 1-.5 1.2-.7l1-1.5c.1-.5-1.1-2.5-1.1-2.5l5.1-1.3s-.9 1.5-.6 2.4c.1.6.4 1.2.7 1.6.1.4-.1.7-.3 1 0 .3-2.1 1.7-2.3 1.5-1.1 1.6-.2.4-.2.4s-3-.3-3.5-.9Z"/>
    <path fill="#CC6300" d="M73.7 35.5c.3-.3-.4-2.3-.6-2.7l-.6-1.6c-.3-1.6.5-2.4.5-2.4l-3.8 1c.4.2 1.2.6 2.1 1.3 1 .7.6 3.3.3 4 .5-.1 1.8.6 2 .4Z"/>
    <path fill="#CC6300" d="m66.8 24.7-.3 3.2c-.3 1.6 0 3.9 1.7 4.3 1.3.2 3.4-1.2 4.4-3.2.8-1.3.9-3.6.9-3.6l-6.7-.7Z"/>
    <path fill="#CC6300" d="M72.5 27s.6-.6 1.3 0c.7.7-.4 2.7-1.7 2l.4-2Zm-5.2 2.7-.2.1c.2.3.4.6.8.7.4 0 .7-.2 1-.4 0-.1 0-.3-.2-.3-.4.3-1 .4-1.4-.1Z"/>
    <path fill="#CC6300" d="M70 31.8s1.7-1.8 1.7-2.9c0-1-.6-2.5.2-2.7.8-.2.9 1.8.9 1.8l-.2 1.2s-1 1.8-2.6 2.6Z"/>
    <path fill="#06292D" d="M66.7 25s2.5 1.4 3.8 1.1c1.3-.2 1.3.3 1.3.3s0 1.5.5 1.9c.5.4 1.6-2.7 1.6-2.7L68.2 23l-1.4 1.5s-.3.5 0 .6Z"/>
    <path fill="#0C528D" d="M66.6 23.8s.4-3.3 4.3-3c3.9.3 3.1 5 3.1 5l-4.1-.7-3.3-.3v-1Z"/>
    <path fill="#43A1EF" d="M64.9 24.6a.2.2 0 0 1-.2-.2c0-.2.1-.6.7-.6.7 0 4.6 0 7 .8 0 0 .6.3.2.8l-7.7-.8Z"/>
    <path fill="#0C528D" d="M40.2 27.5c-1.3-.4-2-1.7-1.7-3 1-4.2 3.8-12.3 10.5-12.3 7.3 0 10.3 7.7 11.3 11.6.3 1.3-.4 2.7-1.6 3a32.7 32.7 0 0 1-18.5.7Z"/>
    <path fill="#CC6300" d="M49 31.4s.5 2.6 2.2 3.3l3.4 1.7 2-1.1c0-.2-1.8-4-2.1-4-.3 0-4.3-2.6-5.1-2.4-.9.2-.4 2.5-.4 2.5Z"/>
    <path stroke="#CC6300" stroke-linecap="round" stroke-linejoin="round" stroke-width=".5" d="m74.2 38.5-8.7 3.8a60 60 0 0 0-9-6.8"/>
    <path fill="#06292D" d="m66.4 28.9.5.9c.2.5.5 1.2 1.2 1.2.5 0 1-.7 1.4-.9.9-.3 2.2-.1 2.1 0 0 0-1 2.4-3 2.3-1.5 0-2.6-1.7-2.2-3.5Z"/>
    <path fill="#06292D" d="M66.4 28.9a29.4 29.4 0 0 0 5 1.2l-1 .5-2.4-.8h-1.4l-.2-1Z"/>
    <path fill="#06292D" d="M71.6 30s1.2-2.7 1.2-3.3c0-.7-.8.1-.8.1a7.9 7.9 0 0 1-1.7 3.5l1.3-.3Z"/>
    <path fill="#4D4D4D" d="M62.6 60v2.5s-10.2 14.3-9.6 18c.3 2 8.6 19.3 8.6 19.3s2.5.7 4.2-.6c0 0-1-13.9-4.8-17.6L68.8 70l-.9-8.5-5.3-1.7Z"/>
    <path fill="#4D4D4D" d="M68 61.6s1 27.4 1.6 28.7c.6 1.4 1.4 23.2 1.4 23.7s3.3 1.5 4.3 0c1-1.4 4.7-17.3 1.8-24.2 0 0 2.4-17.8 1.7-22.1-.6-4.3-1.7-6.1-1.7-6.1h-9.2Z"/>
    <path fill="#FBE16A" d="M74 34.7h-1.6c-.2 1.3 4.1 3.7 4.7 5.3.8 2 1 5.6 0 7.8-1 2.1-2.8 5.3-4.2 9a8 8 0 0 1-2.5 3.6c2.5.2 5 0 7-1l.9-.7s3.6-17.3.1-21c-3.2-3.6-4.3-3-4.3-3Z"/>
    <path fill="#4D4D4D" d="M68 33.4c-1 .7.8 2.2 5.5 0l1.4 1.3c-1 .4-7.6 3.6-8-.2l1.2-1Z"/>
    <path stroke="#CC6300" stroke-linecap="round" stroke-linejoin="round" stroke-width=".5" d="M62.1 47.1s2 2.6 4.2 1.6 8.3-3 8.3-3"/>
    <path fill="#1A1A1A" d="M75.3 114c1-1.4 4.7-17.3 1.8-24.2 0 0 2.4-17.8 1.7-22.1a18 18 0 0 0-1.3-5.2c-.9 7.7-3 25.6-3 27.4 0 2.3 1.4 9.8 1 16.4-.1 4.1-2 6.8-3.6 8.3 1 .3 2.7.4 3.4-.6Z"/>
    <path fill="#0C528D" d="M72 61.5s.2 7.5 4.5 6.7c4.3-1 5.1-1.3 4-5.6-1-4.2-8.4-1-8.4-1Z"/>
    <path fill="#A1D0F7" d="M62.6 60a1 1 0 0 1-.6-.7V58s-.1-.6.6-.7c.6-.1 0 1.7 5.7 2.3 5.8.6 10.1-1.3 10.1-1.3l.2 3.7s-10.5.3-13.7-1c-1.1-.5-1.8-.7-2.2-1Z"/>
    <path fill="#43A1EF" d="M72.3 59.7s.8 0 1.2 1.2c.4 1.4 1 3.6 3.6 3.1 4.6-.9 3.6-2 3.5-3-.2-1.1-.5-3.1-2.5-3-2 .3-5.8 1.7-5.8 1.7Z"/>
    <path stroke="#0C528D" stroke-linecap="round" stroke-linejoin="round" d="m77.8 62.4.6 1.9"/>
    <path fill="#0C528D" d="M73.4 61.4s1 3.4 3.7 2.6c2.6-.8 4-.7 3.5-2.8"/>
    <path stroke="#0C528D" stroke-linecap="round" stroke-linejoin="round" d="M73.4 61.4s1 3.4 3.7 2.6c2.6-.8 4-.7 3.5-2.8"/>
    <path fill="#1A1A1A" d="M63 75.7c-3.6 3.4-3 2-3.3 5-.4 2.9 2.4 8.3 3.8 13 .9 3.1-.3 5.1-1.2 6.2.8.1 2.3.2 3.4-.7 0 0-1-13.9-4.7-17.6L68.7 70l-.2-1.9c-1.4 1.7-3.3 5.5-5.5 7.5Z"/>
    <path fill="#0C528D" d="M48.9 12.3h-.4c1.6 2.1 5.5 8.3 4.5 15.9 2.3-.4 4.2-.9 5.6-1.3 1.2-.4 2-1.8 1.6-3-1-4-4-11.6-11.3-11.6Z"/>
    <path stroke="#72B8F3" stroke-linecap="round" stroke-linejoin="round" d="M39.2 24.7s8.2 4 20-.6M49.2 0v13.4"/>
    <path fill="#72B8F3" d="M50.3 13.4c0 .1-.5.3-1.1.3-.6 0-1-.2-1-.3 0-.2.4-.3 1-.3s1 .1 1 .3Z"/>
    <path fill="#999" d="M103 133s7.1-2.1 5.6-16c0 0 2.8-.4 4-1.3 0 0 2.7 16.5-9.6 17.2Z"/>
  </g>
  <defs>
    <clipPath id="a">
      <path fill="#fff" d="M0 0h150v150H0z"/>
    </clipPath>
  </defs>
</svg>
