<svg xmlns="http://www.w3.org/2000/svg" width="150" height="150" fill="none">
  <g clip-path="url(#a)">
    <path fill="#FFE5CC" fill-rule="evenodd" d="M117.2 5.3c11.7 11.2 5.2 3.9 18.4 15 13.3 11.1 4.7 90.3-14.8 92.9-19.5 2.5-28 1-31.3 23.5-3.2 22.5-87.3 21-80-41 7.2-62 84.3-112.6 107.7-90.4Z" clip-rule="evenodd"/>
    <path fill="#fff" d="M120.3 9H25.7v118.4h94.6V9Z"/>
    <path stroke="#E6E6E6" stroke-width="2" d="M120.3 9H25.7v118.4h94.6V9Z"/>
    <path fill="#0C528D" d="M109.1 40.2H37V42h72v-1.8Z"/>
    <path fill="#0C528D" d="M103.3 43.5H37v1.8h66.4v-1.8Zm-16.9 3.3H36.9v1.8h49.5v-1.8Zm8.4 3.3h-58V52h58v-2Zm-32.6 3.4H36.9v1.7h25.3v-1.7Z" opacity=".3"/>
    <path fill="#0C528D" d="M109.1 61.3H37V63h72v-1.7Z"/>
    <path fill="#0C528D" d="M103.3 64.6H37v1.7h66.4v-1.7Zm-16.9 3.3H36.9v1.7h49.5V68Zm8.4 3.3h-58v1.7h58v-1.7Zm-32.6 3.3H36.9v1.7h25.3v-1.7Z" opacity=".3"/>
    <path fill="#0C528D" d="M109.1 82.3H37v1.8h72v-1.8Z"/>
    <path fill="#0C528D" d="M103.3 85.7H37v1.7h66.4v-1.7ZM86.4 89H36.9v1.7h49.5V89Zm8.4 3.3h-58V94h58v-1.7Zm-32.6 3.3H36.9v1.7h25.3v-1.7Z" opacity=".3"/>
    <path fill="#0C528D" d="M109.1 103.4H64v1.7h45v-1.7Z"/>
    <path fill="#0C528D" d="M105.5 106.7H64v1.7h41.5v-1.7ZM95 110H64v1.8h31V110Zm5.1 3.3H64v1.8h36v-1.8Zm-20.3 3.3H64v1.8h15.8v-1.8Z" opacity=".3"/>
    <path fill="#0C528D" d="M109.1 19.1H37v1.7h72v-1.7Z"/>
    <path fill="#0C528D" d="M103.3 22.4H37v1.7h66.4v-1.7Zm-16.9 3.3H36.9v1.8h49.5v-1.8Zm8.4 3.3h-58v1.8h58V29Zm-32.6 3.3H36.9v1.8h25.3v-1.8Z" opacity=".3"/>
    <path fill="#4D4D4D" fill-rule="evenodd" d="M36.9 118.8h15.9V103h-16v16Zm14.1-1.7H38.6v-12.4H51V117Z" clip-rule="evenodd"/>
    <path fill="#FFCA99" fill-rule="evenodd" d="M45 115.4c-.2 0-.4 0-.6-.3l-4.9-4.9a.9.9 0 0 1 1.3-1.2l4.2 4.3 11.2-11.1a.9.9 0 0 1 1.2 1.2l-11.7 11.8-.7.2Z" clip-rule="evenodd"/>
    <path fill="#0C528D" d="m103 46.7-38.9 39 10.6 10.5 39-39L103 46.7Z"/>
    <path fill="#0C528D" d="m113.6 36.1-10.5 10.6 10.5 10.5 10.6-10.5L113.6 36Z"/>
    <path fill="#F33" fill-rule="evenodd" d="m127 43.9-2.8 2.8-10.6-10.5 2.8-2.8a3.1 3.1 0 0 1 4.4 0l6.2 6.1a3.1 3.1 0 0 1 0 4.4Z" clip-rule="evenodd"/>
    <path fill="#1A1A1A" d="m106.3 49.9-39 39 4.2 4 39-38.9-4.2-4.1Z" opacity=".1"/>
    <path fill="#1A1A1A" d="m110.4 54-39 39 3.3 3.2 39-39-3.3-3.2Z" opacity=".3"/>
    <path fill="#fff" d="m106 43.7-.1.3 10.5 10.5.2-.2-10.5-10.6Zm1-1-.2.2 10.5 10.6.2-.2L107 42.7Zm1-.9-.2.2 10.5 10.6.3-.2L108 41.8Zm1-1-.3.2 10.6 10.6.2-.2L109 40.8Zm.9-1-.2.2 10.5 10.6.2-.2L110 39.8Zm1-.9-.2.2 10.5 10.6.2-.3L111 39Z" opacity=".5"/>
    <path fill="#1A1A1A" fill-rule="evenodd" d="m121 43.5 3.2 3.2 2.8-2.8a3.1 3.1 0 0 0 0-4.4l-1-1-5 5Z" clip-rule="evenodd" opacity=".3"/>
    <path fill="#1A1A1A" d="m121.8 34.4-5 5 4.2 4 5-5-4.2-4Z" opacity=".1"/>
    <path fill="#FFE5CC" fill-rule="evenodd" d="M64.1 85.7 57 103.4l17.7-7.2L64 85.7Z" clip-rule="evenodd"/>
    <path fill="#4D4D4D" fill-rule="evenodd" d="m59.2 98-2.2 5.4 5.4-2.2-3.2-3.2Z" clip-rule="evenodd"/>
    <path fill="#0C528D" d="m116.8 39.4-10.5 10.5 4 4.1L121 43.4l-4-4Z"/>
    <path fill="#0C528D" d="M121 43.4 110.3 54l3.3 3.2 10.5-10.5-3.3-3.3Z"/>
  </g>
  <defs>
    <clipPath id="a">
      <path fill="#fff" d="M0 0h150v150H0z"/>
    </clipPath>
  </defs>
</svg>
