<svg xmlns="http://www.w3.org/2000/svg" width="150" height="156" fill="none">
  <path fill="#FFE5CC" fill-rule="evenodd" d="M142.7 40c13 24 5.4 35.9 1.6 42-7 11.5-18 1-39.5 22.1s-9.9 26.7-32.6 34.2c-22.8 7.5-21.5-20-40.8-15.3-19.3 4.7-36.7-18.8-30-35.1 6.8-16.3 18.8-38.2 32.9-33.6 14 4.5 16.4 3.3 25.4-3.1s5.1-19.3 13.2-29c6.7-8 21.8-9.5 26 4.6 4.2 14 15.8 12 23.4 7.6 7.6-4.3 17.8.9 20.4 5.7Z" clip-rule="evenodd"/>
  <path fill="#1A1A1A" fill-rule="evenodd" d="M107.9 96.1 76.7 120c-.4.3-.3.9 0 1l34.5 13.7h.4l31.2-23.9c.4-.2.3-.9 0-1L108.2 96h-.4Zm-2 2.5c-.4.3-.2.6.3.8.4.2 1.1.2 1.4 0 .3-.3.2-.7-.3-.8-.5-.2-1.2-.2-1.5 0ZM104 101c-.5-.2-.6-.6-.3-.8.3-.3 1-.3 1.4-.1.5.2.7.5.4.8-.3.2-1 .2-1.5 0Zm-2.3.7c-.3.3-.2.6.3.8.5.2 1.1.2 1.4 0 .3-.3.2-.6-.3-.8-.5-.2-1.1-.2-1.4 0Zm-1.8 2.4c-.4-.2-.6-.6-.3-.8.3-.2 1-.3 1.5 0 .4.1.6.5.3.7-.3.2-1 .3-1.5 0Zm-2.3.8c-.3.2-.2.5.3.7.5.2 1.1.2 1.4 0 .3-.3.2-.6-.3-.8-.5-.2-1.1-.2-1.4 0Zm-1.7 2.3c-.5-.2-.7-.6-.4-.8.4-.2 1-.3 1.5 0 .5.1.6.5.3.7-.3.2-1 .3-1.4 0Zm-2.3.7c-.3.2-.1.5.4.7.4.2 1 .2 1.4 0 .3-.3.2-.6-.3-.8-.5-.2-1.2-.2-1.5 0Zm-1.7 2.3c-.5-.2-.6-.6-.3-.8.3-.2 1-.3 1.4 0 .5.1.7.5.4.7-.4.3-1 .3-1.5 0Zm-2.3.8c-.3.2-.2.6.3.7.5.2 1.1.2 1.4 0 .3-.3.2-.6-.3-.8-.5-.2-1.1-.2-1.4 0Zm-1.8 2.3c-.4-.2-.6-.5-.3-.8.3-.2 1-.3 1.5 0 .4.1.6.5.3.7-.3.3-1 .3-1.5 0Zm-2.3.8c-.3.2-.2.6.3.8.5.2 1.1.1 1.4-.1.3-.3.2-.6-.3-.8-.5-.2-1.1-.1-1.4 0Zm-1.7 2.3c-.5-.2-.7-.5-.4-.8.3-.2 1-.2 1.5 0 .5.1.6.5.3.7-.3.3-1 .3-1.4.1Zm-2.4.8c-.3.2-.2.6.3.8.5.2 1.2.1 1.4-.1.3-.2.2-.6-.3-.8-.5-.2-1.1-.1-1.4.1Zm-1.7 2.3c-.5-.2-.6-.5-.3-.8.3-.2 1-.2 1.4 0 .5.2.6.5.3.7-.3.3-1 .3-1.4.1Z" clip-rule="evenodd" opacity=".1"/>
  <path fill="#333" fill-rule="evenodd" d="m107 94.5-31.2 23.8c-.3.3-.3 1 .1 1l34.5 13.7h.4l31.2-23.8c.3-.3.3-1-.1-1l-34.5-13.7h-.4Zm-2 2.5c-.3.3-.2.6.3.8.5.2 1.1.2 1.4 0 .3-.3.2-.6-.3-.8-.5-.2-1.1-.2-1.4 0Zm-1.7 2.4c-.5-.2-.7-.6-.4-.8.3-.2 1-.3 1.5 0 .4.1.6.5.3.7-.3.2-1 .3-1.4 0Zm-2.4.7c-.3.3-.2.6.3.8.5.2 1.1.2 1.4 0 .3-.3.2-.6-.3-.8-.5-.2-1.1-.2-1.4 0Zm-1.7 2.4c-.5-.2-.7-.6-.4-.8.3-.2 1-.3 1.5 0 .5.1.6.5.3.7-.3.2-1 .3-1.4 0Zm-2.4.8c-.3.2-.1.5.3.7.5.2 1.2.2 1.5 0 .3-.3.1-.6-.4-.8-.4-.2-1-.2-1.4 0Zm-1.7 2.3c-.5-.2-.6-.5-.3-.8.3-.2 1-.3 1.4 0 .5.1.6.5.3.7-.3.2-1 .3-1.4 0Zm-2.2.7c-.3.2-.2.6.3.7.5.2 1.1.2 1.4 0 .3-.3.2-.6-.3-.8-.5-.2-1.1-.2-1.4 0Zm-1.7 2.3c-.5-.2-.7-.5-.4-.8.3-.2 1-.3 1.5 0 .4.1.6.5.3.7-.3.2-1 .3-1.4 0Zm-2.4.8c-.3.2-.2.6.3.8.5.1 1.1.1 1.4-.1.3-.3.2-.6-.3-.8-.5-.2-1.1-.1-1.4 0Zm-1.7 2.3c-.5-.2-.7-.5-.4-.8a2 2 0 0 1 1.5 0c.5.1.6.5.3.7-.3.3-1 .3-1.4.1Zm-2.4.8c-.3.2-.2.6.3.8.5.1 1.1.1 1.5-.1.3-.2.1-.6-.4-.8-.5-.2-1-.1-1.4.1Zm-1.7 2.3c-.5-.2-.6-.5-.3-.8.3-.2 1-.2 1.4 0 .5.2.6.5.3.7-.3.3-1 .3-1.4.1Zm-2.4.8c-.3.2-.1.6.4.8.4.2 1 .1 1.4 0 .3-.3.1-.7-.3-.9-.5-.2-1.2-.1-1.5.1ZM79 118c-.5-.2-.6-.5-.3-.7.3-.3 1-.3 1.4-.1.5.2.6.5.3.8-.3.2-1 .2-1.4 0Z" clip-rule="evenodd"/>
  <path fill="#C00" fill-rule="evenodd" d="m127.2 119.8-1.8-.7 8.4-6.5 1.8.7c1 .5 1.4 1.2.8 1.7l-6.1 4.6c-.7.5-2 .6-3.1.2Z" clip-rule="evenodd"/>
  <path fill="#CCC" fill-rule="evenodd" d="m106.2 91-29.6 24.5v2.7l34 13.3 31.1-23.8.2-2.5L106.2 91Zm-1 5.5c-.3.3-.1.6.3.8.5.1 1 .1 1.4-.1.3-.3.1-.6-.3-.8-.5-.1-1 0-1.4.1Zm-1.6 2.2c-.5-.1-.6-.5-.3-.7.3-.2.9-.3 1.4 0 .4 0 .6.4.3.7-.3.2-1 .2-1.4 0Zm-2.2.8c-.3.2-.2.5.3.7.4.2 1 .2 1.3 0 .3-.3.2-.6-.3-.8-.4-.2-1-.1-1.3 0Zm-1.7 2.2c-.4-.2-.6-.5-.3-.8.3-.2 1-.2 1.4 0 .5.1.6.5.3.7-.3.2-1 .3-1.4 0Zm-2.2.7c-.3.3-.1.6.3.8.5.1 1 0 1.4-.1.3-.3.1-.6-.3-.8-.5-.1-1 0-1.4.1Zm-1.6 2.2c-.5-.1-.6-.5-.3-.7.3-.2.9-.3 1.3 0 .5 0 .6.4.3.6-.3.3-.9.3-1.3.1Zm-2.1.6c-.3.3-.2.6.3.8.4.2 1 .1 1.3-.1.3-.2.2-.6-.3-.7-.4-.2-1-.2-1.3 0Zm-1.6 2.3c-.5-.2-.6-.5-.3-.8.3-.2.9-.2 1.3 0 .5.1.6.5.3.7-.3.2-.9.2-1.3 0Zm-2.3.7c-.3.2-.1.6.3.7.5.2 1 .2 1.4 0 .3-.3.1-.6-.3-.8-.5-.1-1-.1-1.4.1Zm-1.6 2.2c-.5-.2-.6-.5-.3-.7.3-.2.9-.3 1.3-.1.5.2.6.5.3.7-.3.3-.8.3-1.3.1Zm-2.2.7c-.3.3-.2.6.3.8.4.2 1 .1 1.3-.1.3-.2.2-.6-.3-.7-.5-.2-1-.2-1.3 0Zm-1.7 2.3c-.4-.2-.6-.6-.3-.8.3-.2 1-.2 1.4 0 .4.1.6.4.3.7-.3.2-1 .2-1.4 0Zm-2.2.7c-.3.2-.2.5.3.7.4.2 1 .2 1.4 0 .3-.3.1-.6-.3-.8-.5-.2-1.1-.1-1.4 0Zm-1.6 2.2c-.5-.2-.6-.5-.3-.7.3-.3.9-.3 1.3-.1.5.2.6.5.3.7-.3.2-.9.3-1.3 0Z" clip-rule="evenodd"/>
  <path fill="#999" fill-rule="evenodd" d="m110.2 127.1.3 4.4 31.2-23.8.2-2.6-31.7 22Z" clip-rule="evenodd"/>
  <path fill="#FBE16A" fill-rule="evenodd" d="m130.5 118-1.8-.6 8.4-6.5 1.8.7c1 .5 1.4 1.2.8 1.7l-6 4.6c-.7.5-2.1.6-3.2.1Z" clip-rule="evenodd"/>
  <path fill="#43A1EF" fill-rule="evenodd" d="m133.8 114.7-1.8-.7 8.4-6.4 1.8.7c1.1.4 1.4 1.2.8 1.6l-6 4.7c-.7.5-2.1.5-3.2.1Z" clip-rule="evenodd"/>
  <path fill="#666" fill-rule="evenodd" d="m76.6 115 1-2.1 29.2-21.4 1.7 1.3-28.2 22.8-3.7-.5Z" clip-rule="evenodd"/>
  <path fill="#333" fill-rule="evenodd" d="M107.1 90.4 76 114c-.3.3-.2 1 .2 1l34.4 13.7h.4l31.2-23.8c.3-.3.3-1-.1-1l-34.5-13.7h-.4Zm-2 2.5c-.3.2-.2.5.3.7a2 2 0 0 0 1.5 0c.3-.3.1-.6-.4-.8-.5-.2-1-.2-1.4 0Zm-1.7 2.3c-.5-.2-.6-.5-.4-.8.4-.2 1-.2 1.5 0s.6.5.3.7c-.3.3-1 .3-1.4.1Zm-2.4.8c-.3.2-.1.6.3.8.5.1 1.2.1 1.5-.1.3-.3.1-.6-.3-.8-.5-.2-1.2-.2-1.5 0Zm-1.7 2.3c-.5-.2-.6-.5-.3-.8.3-.2 1-.2 1.4 0 .5.2.6.5.3.7-.3.3-1 .3-1.4.1Zm-2.4.8c-.3.2-.1.6.4.8.4.2 1 .1 1.4-.1.3-.2.2-.6-.3-.8-.5-.2-1.2-.1-1.5.1Zm-1.7 2.3c-.5-.2-.6-.5-.3-.8.3-.2 1-.2 1.4 0 .5.2.6.5.4.7-.4.3-1 .3-1.5.1Zm-2.2.7c-.3.2-.2.6.3.8.5.2 1.2.1 1.5-.1.3-.2.1-.6-.4-.8-.4-.2-1-.1-1.4 0Zm-1.7 2.3c-.5-.2-.6-.5-.3-.7.3-.3 1-.3 1.4-.1.5.2.6.5.3.8-.3.2-1 .2-1.4 0Zm-2.4.8c-.3.2-.1.6.3.8.5.2 1.2.1 1.5-.1.3-.2.1-.6-.4-.8-.4-.2-1-.1-1.4.1Zm-1.7 2.3c-.5-.1-.6-.5-.3-.7.3-.3 1-.3 1.4-.1.5.2.6.5.3.8-.3.2-1 .2-1.4 0Zm-2.4.8c-.3.3-.1.6.4.8.4.2 1 .2 1.4 0 .3-.3.2-.7-.3-.9-.5-.1-1.2-.1-1.5.1Zm-1.7 2.4c-.5-.2-.6-.6-.3-.8.3-.2 1-.3 1.4 0 .5.1.7.5.4.7-.4.2-1 .3-1.5 0Zm-2.4.7c-.2.3-.1.6.4.8.5.2 1.1.2 1.4 0 .3-.3.2-.6-.3-.8a2 2 0 0 0-1.5 0Zm-1.7 2.4c-.5-.2-.6-.6-.3-.8.3-.2 1-.3 1.4 0 .5.1.7.5.4.7-.3.2-1 .3-1.5 0Z" clip-rule="evenodd"/>
  <path fill="#900" fill-rule="evenodd" d="m84.9 119.8-2 1.6-1-2.1-4.1.2 2-1.6 5 2Z" clip-rule="evenodd"/>
  <path fill="#fff" fill-rule="evenodd" d="M92.9 121.9 75 114.8l32.2-24.6 35.6 14.1L93 122Z" clip-rule="evenodd" opacity=".1"/>
  <path fill="#B3B3B3" fill-rule="evenodd" d="m124.6 105.7-13.6-5.4c-.7-.3-.9-.7-.5-1 .4-.3 1.2-.4 1.9-.1l13.7 5.4c.6.3.8.7.4 1-.4.3-1.2.3-1.9 0Zm-2.7 2.1-13.7-5.4c-.7-.3-.9-.7-.5-1 .4-.3 1.2-.3 1.9 0l13.7 5.3c.6.3.8.7.4 1-.4.3-1.2.3-1.8.1ZM119 110l-13.6-5.5c-.7-.2-.9-.7-.5-1 .4-.3 1.2-.3 1.9 0l13.7 5.4c.6.2.8.7.4 1-.4.2-1.2.3-1.8 0Z" clip-rule="evenodd" opacity=".5"/>
  <path stroke="#333" stroke-linecap="round" d="m79.6 113.2-.4-.6c-.5-.7-1.2-1-1.9-.7-.5.2-.9.8-1 1.5m5.5-1.9-.4-.6c-.5-.7-1.2-1-1.9-.7-.5.2-.9.8-1 1.5m5.5-1.9-.4-.6c-.5-.7-1.2-1-1.9-.7-.5.2-.9.8-1 1.5m5.5-1.9-.4-.6c-.5-.7-1.2-1-1.9-.7-.4.2-.9.8-1 1.5m5.5-1.9-.4-.6c-.5-.7-1.2-1-1.9-.7-.5.2-.9.8-1 1.5m5.5-1.9-.4-.6c-.5-.7-1.2-1-1.9-.7-.5.2-.9.8-1 1.5m5.5-1.9-.4-.6c-.5-.7-1.2-1-1.9-.7a2 2 0 0 0-1 1.5m5.5-1.9-.4-.6c-.5-.7-1.2-1-1.9-.7a2 2 0 0 0-1 1.5m5.5-1.9-.4-.6c-.5-.7-1.2-1-1.9-.7a2 2 0 0 0-1 1.5m5.5-1.8-.4-.7c-.5-.7-1.2-1-1.9-.7a2 2 0 0 0-1 1.5m5.5-1.8-.4-.7c-.5-.7-1.2-1-1.9-.7a2 2 0 0 0-1 1.5m5.5-1.8-.4-.7c-.5-.7-1.2-1-1.9-.7a2 2 0 0 0-1 1.5"/>
  <path stroke="#333" stroke-linecap="round" d="m106 92.9-.4-.7c-.5-.7-1.2-1-2-.7-.4.3-.8.8-1 1.6"/>
  <path fill="#1A1A1A" fill-rule="evenodd" d="M89.1 70.3H63.4c-.4 0-.7-.4-.7-1 0-.4.4-.8.7-.8h25.7c.4 0 .7.4.7.9s-.3.9-.7.9Z" clip-rule="evenodd"/>
  <g filter="url(#a)">
    <path fill="#1A1A1A" fill-rule="evenodd" d="M42.4 39c0-2.6 1.8-4.8 4-4.8h41.8l8.2 8v65.1c0 2.7-1.7 4.9-3.9 4.9H46.3c-2.1 0-3.9-2.2-3.9-4.9V39Z" clip-rule="evenodd"/>
  </g>
  <path fill="#fff" fill-rule="evenodd" d="M42.4 39c0-2.6 1.8-4.8 4-4.8h41.8l8.2 8v65.1c0 2.7-1.7 4.9-3.9 4.9H46.3c-2.1 0-3.9-2.2-3.9-4.9V39Z" clip-rule="evenodd"/>
  <path fill="#E6E6E6" fill-rule="evenodd" d="m96.6 42-9.3-.5v-8.3l9.3 8.8Z" clip-rule="evenodd"/>
  <path fill="#1A1A1A" fill-rule="evenodd" d="M87.1 75.3H50c-.6 0-1-.4-1-.9s.4-.8 1-.8h37c.6 0 1 .4 1 .8 0 .5-.4 1-1 1Zm0-19.6H50c-.6 0-1-.4-1-.9s.4-.8 1-.8h37c.6 0 1 .4 1 .8 0 .5-.4 1-1 1Zm0 4.9H50c-.6 0-1-.4-1-.9s.4-.9 1-.9h37c.6 0 1 .4 1 .9s-.4.9-1 .9Zm0 4.8H50c-.6 0-1-.4-1-.8 0-.6.4-1 1-1h37c.6 0 1 .5 1 1 0 .4-.4.8-1 .8ZM76.5 96H50c-.6 0-1-.4-1-.8 0-.5.4-1 1-1h26.5c.6 0 1 .5 1 1s-.4.9-1 .9Zm10.6-4.9H50c-.6 0-1-.4-1-.9s.4-.9 1-.9h37c.6 0 1 .5 1 1 0 .4-.4.8-1 .8Zm0-40.3H50c-.6 0-1-.4-1-.9s.4-.9 1-.9h37c.6 0 1 .4 1 1 0 .4-.4.8-1 .8ZM73 80.3H50c-.6 0-1-.4-1-1 0-.4.4-.8 1-.8h23c.6 0 1 .4 1 .9s-.4.9-1 .9Z" clip-rule="evenodd"/>
  <path fill="#0C528D" fill-rule="evenodd" d="M127.4 74c.7-.9.7-2.3 0-3.2L117 58.1c-.4-.4-.8-.6-1.3-.6-1 0-1.8 1-1.8 2.2v5.9H92.6c-1 0-1.8 1-1.8 2.3v9.3c0 1.2.8 2.2 1.8 2.2H114v5.8c0 1.3.8 2.3 1.8 2.3.5 0 1-.3 1.3-.7L127.4 74Z" clip-rule="evenodd"/>
  <defs>
    <filter id="a" width="56.4" height="80.4" x="41.2" y="34" color-interpolation-filters="sRGB" filterUnits="userSpaceOnUse">
      <feFlood flood-opacity="0" result="BackgroundImageFix"/>
      <feColorMatrix in="SourceAlpha" result="hardAlpha" values="0 0 0 0 0 0 0 0 0 0 0 0 0 0 0 0 0 0 127 0"/>
      <feOffset dy="1"/>
      <feGaussianBlur stdDeviation=".6"/>
      <feColorMatrix values="0 0 0 0 0 0 0 0 0 0 0 0 0 0 0 0 0 0 0.35 0"/>
      <feBlend in2="BackgroundImageFix" result="effect1_dropShadow_290_2487"/>
      <feBlend in="SourceGraphic" in2="effect1_dropShadow_290_2487" result="shape"/>
    </filter>
  </defs>
</svg>
