<svg xmlns="http://www.w3.org/2000/svg" width="150" height="150" fill="none">
  <path fill="#FFE5CC" fill-rule="evenodd" d="M10.9 54.7c3.7-16 74-56.6 111-7.1 37 49.4-4.3 102.5-57.7 66.7C11 78.5 7.6 68.6 11 54.7Z" clip-rule="evenodd"/>
  <path fill="#106EBC" fill-rule="evenodd" d="m118 119.5-22.6-.4-46-2.8 5-97.7 69.6 4.2-3.7 72.3-2.3 24.4Z" clip-rule="evenodd"/>
  <path fill="#106EBC" fill-rule="evenodd" d="m113.9 115.2-3.4.3-10.6 2L54 119l-.3-3H48V15l71.2 3.5-.2 16.7v66.2l1 12.8-6.1 1Z" clip-rule="evenodd"/>
  <path fill="#fff" fill-rule="evenodd" d="m117.7 114.9-22.6 1H49V18h69.8v72.4l-1.1 24.5Z" clip-rule="evenodd"/>
  <path fill="#0C528D" fill-rule="evenodd" d="M108.9 46.7H59a.9.9 0 0 1-.6-.2 1 1 0 0 1-.3-.7c0-.5.4-1 1-1h49.7l.6.3c.2.2.3.4.3.7 0 .2-.1.5-.3.7l-.6.2Zm0 7.2H59a.9.9 0 0 1-.6-.3 1 1 0 0 1-.3-.7l.3-.6.6-.3h50c.2 0 .5.1.6.3l.3.6c0 .3-.1.5-.3.7-.1.2-.4.3-.6.3Zm0 7.1H59a.9.9 0 0 1-.6-.2 1 1 0 0 1-.3-.7c0-.5.4-1 1-1h49.7c.5 0 .9.5.9 1 0 .2-.1.5-.3.7l-.6.2Zm0 7.2H59a1 1 0 0 1-.9-1c0-.2.1-.5.3-.6l.6-.3h50c.2 0 .5 0 .6.3.2.1.3.4.3.6 0 .6-.4 1-1 1Zm0 7.1H59a.9.9 0 0 1-.6-.3 1 1 0 0 1-.3-.6c0-.3.1-.5.3-.7l.6-.3h50c.2 0 .5.1.6.3.2.2.3.4.3.7 0 .2-.1.5-.3.6-.1.2-.4.3-.6.3Zm0 7.2H59a.9.9 0 0 1-.6-.3 1 1 0 0 1-.3-.7c0-.5.4-1 1-1h49.7c.5 0 .9.5.9 1 0 .3-.1.5-.3.7-.1.2-.4.3-.6.3Zm0 7.1H59a1 1 0 0 1-.9-1c0-.4.4-.9 1-.9h49.7c.5 0 .9.5.9 1s-.4 1-1 1Zm-14.2 7.2H59.1a1 1 0 0 1-.9-1c0-.2.1-.5.3-.6l.6-.3h35.6c.3 0 .5 0 .6.3.2.1.3.4.3.6 0 .5-.4 1-.9 1ZM84.8 39H59a.9.9 0 0 1-.6-.2 1 1 0 0 1-.3-.6c0-.3.1-.5.3-.7.1-.2.4-.3.6-.3h26c.4 0 .8.4.8 1 0 .5-.4.9-.9.9Z" clip-rule="evenodd" opacity=".4"/>
  <path fill="#1A1A1A" fill-rule="evenodd" d="M18.8 22.8c11.4-12 30.1-14.3 41.7-5.4 10.4 8 11.7 22.2 3.8 33.7l3.5 10.5-12.3-1.8c-11.3 7.8-26.4 8.4-36.3.8-11.6-9-11.8-26-.4-37.8Z" clip-rule="evenodd" opacity=".1"/>
  <path fill="#106EBC" fill-rule="evenodd" d="m54.4 54.7 13 4.3-3.8-15-9.2 10.7Z" clip-rule="evenodd"/>
  <path fill="#106EBC" d="M39.7 60.2c16.4 0 29.7-12 29.6-26.6C69.3 18.9 56 7 39.6 7 23.3 7 10 19 10 33.6c0 14.7 13.4 26.6 29.7 26.6Z"/>
  <circle cx="39" cy="34" r="4" fill="#fff"/>
  <circle cx="53" cy="34" r="4" fill="#fff"/>
  <circle cx="25" cy="34" r="4" fill="#fff"/>
</svg>
