<svg xmlns="http://www.w3.org/2000/svg" width="150" height="150" fill="none">
  <g clip-path="url(#a)">
    <path fill="#FFE5CC" fill-rule="evenodd" d="M7.9 72.7c3.7-16 74-56.6 111-7.1 37 49.4-4.3 102.5-57.7 66.7C8 96.5 4.6 86.6 8 72.7Z" clip-rule="evenodd"/>
    <path fill="#106EBC" fill-rule="evenodd" d="m99.8 131.6-9.6.6h-.6l-1.4 6-24-3-33.7 6-10-97.4 70.3-10.2 2 21.2 5.1 62.6 1.9 14.2Z" clip-rule="evenodd" opacity=".9"/>
    <path fill="#E6E6E6" fill-rule="evenodd" d="M97.5 129.6 75 133.2l-45.8 5.2-10-97.3 69.3-8 7.5 72 1.4 24.5Z" clip-rule="evenodd"/>
    <path fill="#1A1A1A" fill-rule="evenodd" d="m86.2 133.3-36.6-2.5L28 129l1.3-96 70.8 5.7-3.3 22.1L93 84.1l-3.7 33.3-3.1 16Z" clip-rule="evenodd" opacity=".1"/>
    <path fill="#106EBC" fill-rule="evenodd" d="m86.7 134-22.5-1.5-45.9-5.1 10-97.4 69.3 7.8-7.3 72-3.6 24.2Z" clip-rule="evenodd"/>
    <path fill="#106EBC" fill-rule="evenodd" d="m86.6 132.4-3.4.2-10.5 1.9-45.7 1.4-.3-2.9H21V38l70.9 3.3-.1 15.8v62.2l1 12-6.2 1Z" clip-rule="evenodd"/>
    <path fill="#fff" fill-rule="evenodd" d="m90.7 130.7-22.6 1H22V33.8h69.8v72.4l-1.1 24.5Z" clip-rule="evenodd"/>
    <path fill="#0C528D" fill-rule="evenodd" d="M81.9 62.5H32a.9.9 0 0 1-.6-.2 1 1 0 0 1-.3-.7c0-.5.4-1 .9-1h49.8l.6.3c.2.2.3.4.3.7 0 .2-.1.5-.3.7l-.6.2Zm0 7.2H32a.9.9 0 0 1-.6-.3 1 1 0 0 1-.3-.7c0-.2.1-.5.3-.6.1-.2.4-.3.6-.3h49.8c.2 0 .4 0 .6.3.2.1.3.4.3.6 0 .3-.1.5-.3.7l-.6.3Zm0 7.1H32a.9.9 0 0 1-.6-.2 1 1 0 0 1-.3-.7c0-.5.4-1 .9-1h49.8c.5 0 .9.5.9 1 0 .2-.1.5-.3.7l-.6.2Zm0 7.2H32a1 1 0 0 1-.9-1c0-.2.1-.5.3-.6.1-.2.4-.3.6-.3h49.8c.2 0 .4 0 .6.3.2.1.3.4.3.6 0 .6-.4 1-1 1Zm0 7.1H32a.9.9 0 0 1-.6-.3 1 1 0 0 1-.3-.6c0-.3.1-.5.3-.7.1-.2.4-.3.6-.3h49.8l.6.3c.2.2.3.4.3.7 0 .2-.1.5-.3.6l-.6.3Zm0 7.2H32a.9.9 0 0 1-.6-.3 1 1 0 0 1-.3-.7c0-.5.4-1 .9-1h49.8c.5 0 .9.5.9 1 0 .3-.1.5-.3.7l-.6.3Zm0 7.1H32a1 1 0 0 1-.9-1c0-.4.4-.9.9-.9h49.8c.5 0 .9.5.9 1s-.4 1-1 1Zm-14.2 7.2H32.1a1 1 0 0 1-.9-1c0-.2.1-.5.3-.6.1-.2.4-.3.6-.3h35.6c.2 0 .5 0 .6.3.2.1.3.4.3.6 0 .5-.4 1-.9 1Zm-9.9-57.7H32a.9.9 0 0 1-.6-.3 1 1 0 0 1-.3-.7c0-.2 0-.4.3-.6.1-.2.4-.3.6-.3h26c.4 0 .8.4.8 1 0 .5-.4.9-.9.9Z" clip-rule="evenodd" opacity=".4"/>
    <path fill="#127A87" fill-rule="evenodd" d="M66 54.1c.8.7 2.2.7 3 0L81.2 44c.4-.4.6-.8.6-1.3 0-1-1-1.8-2.1-1.8H74V19.8c0-1-1-1.8-2.2-1.8h-8.9c-1.2 0-2.2.8-2.2 1.8V41h-5.5c-1.2 0-2.2.8-2.2 1.8 0 .5.2 1 .6 1.3L66 54Z" clip-rule="evenodd"/>
    <rect width="42" height="20" x="13" y="18" fill="#127A87" rx="10"/>
    <path fill="#fff" d="M33.7 23.3c.4.3.4.9 0 1.2l-8.1 8.2a.9.9 0 0 1-1.3 0l-4-4a.9.9 0 0 1 0-1.3c.3-.4.9-.4 1.2 0l3.5 3.5 7.5-7.6c.3-.4.9-.4 1.2 0ZM45.4 34H43v-8.9l-.8.8-1.3 1-1.2-1.4 3.7-3h2V34Z"/>
    <circle cx="110" cy="93" r="10" fill="gray"/>
    <path fill="#fff" d="M114.4 99h-8v-1.7l2.9-2.9c.8-.8 1.4-1.4 1.6-1.8.3-.3.5-.6.6-1l.2-.8c0-.5-.2-.8-.4-1-.3-.3-.6-.4-1-.4a3 3 0 0 0-1.3.3 5 5 0 0 0-1.3.9l-1.3-1.6 1.4-1a6 6 0 0 1 2.7-.6c.7 0 1.3.1 1.8.4a3 3 0 0 1 1.7 2.7c0 .5 0 1-.2 1.5s-.5 1-.9 1.4c-.4.5-1 1.2-2 2l-1.5 1.5h5V99Z"/>
    <path fill="gray" fill-rule="evenodd" d="M149 114.4c.7-.9.7-2.3 0-3.1L138.5 99c-.3-.5-.8-.7-1.3-.7-1 0-1.8 1-1.8 2.2v5.7h-21.3c-1 0-1.9 1-1.9 2.3v9c0 1.2.9 2.2 1.9 2.2h21.3v5.6c0 1.2.9 2.2 1.9 2.2.5 0 1-.2 1.3-.6l10.3-12.5Z" clip-rule="evenodd"/>
    <rect width="5" height="13.3" x="105.7" y="106.7" fill="gray" rx="1"/>
    <rect width="5" height="13.3" x="99" y="106.7" fill="gray" rx="1"/>
    <rect width="5" height="13.3" x="99" y="106.7" fill="gray" rx="1"/>
    <rect width="3.3" height="13.3" x="94" y="106.7" fill="gray" rx="1"/>
    <rect width="3.3" height="13.3" x="94" y="106.7" fill="gray" rx="1"/>
    <rect width="3.3" height="13.3" x="89" y="106.7" fill="gray" rx="1"/>
    <rect width="3.3" height="13.3" x="89" y="106.7" fill="gray" rx="1"/>
    <rect width="3.3" height="13.3" x="84" y="106.7" fill="gray" rx="1"/>
    <rect width="3.3" height="13.3" x="84" y="106.7" fill="gray" rx="1"/>
    <rect width="3.3" height="13.3" x="79" y="106.7" fill="gray" rx="1"/>
    <rect width="3.3" height="13.3" x="79" y="106.7" fill="gray" rx="1"/>
  </g>
  <defs>
    <clipPath id="a">
      <path fill="#fff" d="M0 0h150v150H0z"/>
    </clipPath>
  </defs>
</svg>
