<svg xmlns="http://www.w3.org/2000/svg" width="65" height="66" fill="none">
  <circle cx="32.5" cy="32.8" r="32.5" fill="#BE5555"/>
  <path fill="#fff" d="M31.2 18.5c-5.5 3.6-4.8 9.9-3.8 12.6l2.7-2.4C28.5 23.3 35 18 39.7 20s8.7 6.7 1.6 14.7c-7 8-4.1 13.7-8 15-3 1.2-4.6-1-5-2H25c.3 4.8 5 5.8 7.2 5.6 9.6-1.7 3.2-7 11.2-15.9 6.4-7 5.4-13 4-15l10.6-10-2-2L45.8 20c-.8-1.5-7.6-6-14.5-1.5Z"/>
  <path fill="#fff" d="m12 57.3-2-1.9 22.7-22 2.3 2-23 22Zm24.8-32L35 23.5c1.3-1 4.6-2.2 6.8.3 2.2 2.6.9 5.4 0 6.5L40 28.5c.4-.7.8-2.4-.3-3.2a2.6 2.6 0 0 0-3 0Z"/>
</svg>
