<svg xmlns="http://www.w3.org/2000/svg" width="150" height="150" fill="none">
  <path fill="#FFE5CC" fill-rule="evenodd" d="M136.9 42c12.2 17.8 5.1 26.7 1.6 31.2-6.6 8.6-16.8.8-36.7 16.5-20 15.7-9.2 19.8-30.4 25.4-21.1 5.5-20-15-38-11.5-17.9 3.5-34-14.1-27.9-26.3C11.8 65.2 23 49 36 52.3c13 3.4 15.3 2.5 23.7-2.2 8.4-4.8 4.7-14.4 12.3-21.6 6.2-6 20.2-7 24.1 3.4 4 10.5 14.7 9 21.8 5.8 7.1-3.2 16.6.7 19 4.3Z" clip-rule="evenodd"/>
  <path fill="#FFA856" fill-rule="evenodd" d="m88.6 84.8-76.4-.3.2-46.3 38 27 38.3-26.8" clip-rule="evenodd"/>
  <path fill="#994A00" fill-rule="evenodd" d="M42.6 59.7 12.2 84.5l76.4.3-30.4-25.1-4.5 3.5h-.4l-3 2-5.8-4.3-1.9-1.2Z" clip-rule="evenodd"/>
  <path fill="#FFA856" fill-rule="evenodd" d="m43.2 61.9-31 22.6 76.4.3s-26-18.4-32-22.8c-6-4.5-7-4.8-13.4-.1Z" clip-rule="evenodd"/>
  <path fill="#CC6300" fill-rule="evenodd" d="M57.6 63.4c6.4-5 31.1-25 31.1-25l-76.3-.2s26 20.4 31.9 25.2c6 4.9 7 5.2 13.3 0Z" clip-rule="evenodd"/>
  <path fill="#fff" d="M12.2 48.3a10.7 10.7 0 1 0 0-21.5c-6 0-10.9 4.8-10.9 10.8 0 5.9 4.9 10.7 10.9 10.7Z"/>
  <path fill="#62AB8D" fill-rule="evenodd" d="M0 37.8a12.4 12.4 0 0 1 24.9 0c0 6.8-5.6 12.3-12.5 12.3C5.6 50.1 0 44.6 0 37.8Zm2.1 0C2.1 43.5 6.7 48 12.4 48c5.8 0 10.4-4.5 10.4-10.2 0-5.6-4.6-10.2-10.4-10.2-5.7 0-10.3 4.6-10.3 10.2Z" clip-rule="evenodd"/>
  <path fill="#62AB8D" fill-rule="evenodd" d="M16.4 34 11 39.4l-2.4-2.3A1 1 0 0 0 7 37a1 1 0 0 0 0 1.4l3.2 3.2a1 1 0 0 0 1.5 0l6.2-6.2c.4-.4.4-1 0-1.5a1 1 0 0 0-1.5 0Z" clip-rule="evenodd"/>
  <path fill="#FFCA99" fill-rule="evenodd" d="m102 93.2 2 10.6c.2.6 0 1.3-.5 1.7L97 113l-1.2-5 2.3-6-1.2-6.8M70.7 93l-2 10.6c-.3.6 0 1.3.4 1.7l8 9.3-.3-6.9-2.2-6 1.2-6.6" clip-rule="evenodd"/>
  <path fill="#18A3B4" fill-rule="evenodd" d="M100.5 86.3c-.9-1.3-3.5-3.2-4.8-3.7-1.6-.8-8.6.2-9.3.2-.7 0-7.5-1-9-.2-1.4.5-4 2.4-4.9 3.7-1 1.7-2.9 7.3-2.9 7.3l6.5 3.1v14.8H97V96.7l6.5-3.1" clip-rule="evenodd"/>
  <path fill="#FFCA99" fill-rule="evenodd" d="M86.8 85c-2 0-2.8-1-2.8-1.7s.5-1.3 1.2-1.3h3.3c.7 0 1.2.6 1.2 1.3" clip-rule="evenodd"/>
  <path fill="#333" fill-rule="evenodd" d="m92.8 74.6.3-4c0-.9-.3-1.8-1-2.2-1.4-1-3.6-2.4-4.8-2.6-3-.2-3.6 1-5.3 1.7-.9.3-1.6 1.3-1.6 2.4l-.1 4.7v2l6 2.8 5.4-2" clip-rule="evenodd"/>
  <path fill="#FFCA99" fill-rule="evenodd" d="M91.6 78.5V80c0 .5-.2 1-.7 1.5-1 .9-3.3 2.4-4.3 2.4s-3-1.3-4.3-2.3a2 2 0 0 1-.8-1.6l-.2-1.7-.7-.4-.3-.5-.4-2.5.5-.7.7 2.6h.5v-4l.2-.1c.5.4 1.5 1.1 2.6 1.1 3.4 0 5.6-1.1 6.3-1.5.2 0 .4 0 .4.2V77h.8l.5-2.6.4.3v2c0 .3 0 .5-.2.7" clip-rule="evenodd"/>
  <path fill="#E6E6E6" fill-rule="evenodd" d="M97.4 116.3H75.3c-.5 0-1-.6-1-1.1V100c0-.6.5-1.1 1-1.1h22c.4 0 1 .5 1 1v15.2" clip-rule="evenodd"/>
  <path fill="#FFCA99" fill-rule="evenodd" d="m100.5 120.2.5 4.3-3.3-.4-.5-3.9" clip-rule="evenodd"/>
  <path fill="#F66" fill-rule="evenodd" d="m100.1 119.9.4 4.6s2.9-.5 3.9-.5c1.4-.2 5.1.5 5.5 0 .1-.6-.5-6.8-.7-7-.4-.3-3.8 1.7-5 2.1" clip-rule="evenodd"/>
  <path fill="#106EBC" fill-rule="evenodd" d="M64.9 108.7s-4.2-2-4.8 4.4c-.6 5.4 3.7 6.8 3.7 6.8l33.8 6 .5-7" clip-rule="evenodd"/>
  <path fill="#E6E6E6" fill-rule="evenodd" d="m104.2 122.7-.3-2.3c0-.2 0-.2.2-.2l.1.2.2 2.3h-.2Zm-1.3.1-.4-2.2c0-.2 0-.2.2-.2s.2 0 .2.2l.1 2.2h-.1Z" clip-rule="evenodd"/>
  <path fill="#FFCA99" fill-rule="evenodd" d="m71.5 119.3-.5 4.3 3.1-.2.5-4" clip-rule="evenodd"/>
  <path fill="#F33" fill-rule="evenodd" d="m71.9 119-.4 4.6-3.9-.8c-1.4-.2-5.1.6-5.5 0-.1-.5.5-6.7.9-7 .3-.4 3.7 1.6 5 2" clip-rule="evenodd"/>
  <path fill="#106EBC" fill-rule="evenodd" d="M107.3 108s4.1-2.1 4.8 4.4c.5 5.4-3.8 6.7-3.8 6.7l-34 5.8-.5-7" clip-rule="evenodd"/>
  <path fill="#E6E6E6" fill-rule="evenodd" d="m67.8 121.7-.2-.2.3-2.2c0-.2.2-.2.2-.2.2 0 .2.2.2.2m.7 2.7-.2-.3.3-2.2c0-.2.2-.2.2-.2.2 0 .2.2.2.2" clip-rule="evenodd"/>
  <path fill="#CCC" fill-rule="evenodd" d="M88.3 107.7c0 .6-.8 1.2-2 1.2-1 0-2.1-.6-2.1-1.2 0-.5.9-1 2-1" clip-rule="evenodd"/>
  <path fill="#1A1A1A" fill-rule="evenodd" d="M139 125.4h-.1a.6.6 0 0 1-.3-.8l9.4-26.1-14.3-13.8-5.7 3c-.3.1-.6 0-.7-.3-.2-.3 0-.7.2-.8l6-3.2.7.1L149 98c.2.1.2.4.1.6l-9.5 26.5" clip-rule="evenodd"/>
  <path fill="#0C528D" fill-rule="evenodd" d="m127.7 91.2-2.9-4.3 3.7-2.8c1-.9 2.6-.6 3.4.6.8 1.1.6 2.8-.5 3.6" clip-rule="evenodd"/>
  <path fill="#B3B3B3" fill-rule="evenodd" d="M125.4 98.4 117.8 87a5.8 5.8 0 0 1 8.5 1.5l.5.7c2 3 1.4 7-1.4 9.2Z" clip-rule="evenodd"/>
  <path fill="gray" fill-rule="evenodd" d="M144.9 126h-10.7c0-1.7 1.2-3 2.7-3h5.2c1.5 0 2.8 1.3 2.8 3m4.6-26.7c-.7.7-1.8.8-2.5 0l-2.5-2.4a2 2 0 0 1-.1-2.7c.6-.8 1.8-.8 2.5-.1l2.5 2.5" clip-rule="evenodd"/>
  <path fill="gray" fill-rule="evenodd" d="M146.8 103.5a2 2 0 0 1-1.2-2.4l1-3.5c.2-1 1.2-1.6 2.1-1.3a2 2 0 0 1 1.2 2.4l-1 3.5c-.2 1-1.2 1.6-2.1 1.3Z" clip-rule="evenodd"/>
  <path fill="#1A1A1A" fill-rule="evenodd" d="M148 99.7c-.8 0-1.5-.6-1.5-1.5 0-1 .6-1.7 1.4-1.7.9 0 1.6.6 1.6 1.5 0 1-.6 1.7-1.4 1.7Z" clip-rule="evenodd"/>
</svg>
