<svg xmlns="http://www.w3.org/2000/svg" width="150" height="150" fill="none">
  <path fill="#FFE5CC" fill-rule="evenodd" d="M142.7 42.6c13 19.4 5.4 29 1.6 34-7 9.3-18 .8-39.5 18-21.5 17.1-9.9 21.6-32.6 27.7-22.8 6.1-21.5-16.2-40.8-12.4-19.3 3.8-36.7-15.3-30-28.5 6.9-13.4 18.9-31 33-27.4 14 3.7 16.4 2.7 25.4-2.5S64.8 35.9 73 28c6.7-6.5 21.8-7.7 26 3.7 4.2 11.5 15.8 9.8 23.4 6.3 7.6-3.5 17.8.7 20.4 4.6Z" clip-rule="evenodd"/>
  <path fill="#1A1A1A" fill-rule="evenodd" d="M39.7 126.3h.5c.7-.4 1-1.3.8-2l-23.3-66 35.4-35 14.2 7.5c.6.4 1.5 0 1.8-.7.3-.7 0-1.6-.6-2l-15-8c-.6-.2-1.2-.1-1.6.3L15.1 56.7c-.4.4-.6 1.1-.3 1.7l23.6 67" clip-rule="evenodd"/>
  <path fill="gray" fill-rule="evenodd" d="m67.5 40 7.2-10.8-9.2-7.2a5.8 5.8 0 0 0-8.5 1.5 7 7 0 0 0 1.4 9.2" clip-rule="evenodd"/>
  <path fill="#0C515A" fill-rule="evenodd" d="M70.4 55.8 89 27c-6.7-5.4-16-3.8-20.8 3.7L67 32.5a18 18 0 0 0 3.3 23.3Z" clip-rule="evenodd"/>
  <path fill="gray" fill-rule="evenodd" d="M55.6 130H29v-.2c0-4.1 3-7.4 6.9-7.4h13c3.7 0 6.8 3.3 6.8 7.4M22.8 74.5c-2.3 1-5-.1-6.2-2.5l-4-8.4c-1-2.3-.2-5 2-6 2.3-1 5.1.2 6.2 2.5l4 8.4c1.2 2.4.2 5-2 6Z" clip-rule="evenodd"/>
  <path fill="gray" fill-rule="evenodd" d="M25.7 49a4.9 4.9 0 0 1-.3 6.6l-6.5 6.7c-1.8 1.8-4.7 2-6.3.1a4.9 4.9 0 0 1 .3-6.6l6.4-6.7c1.8-1.9 4.7-2 6.4-.1Z" clip-rule="evenodd"/>
  <path fill="#1A1A1A" fill-rule="evenodd" d="M19.6 60c-.1 2-2 3.6-4.3 3.4-2.3-.2-4-2-3.8-4.1.1-2.1 2-3.7 4.3-3.5 2.3.2 4 2 3.8 4.2Z" clip-rule="evenodd"/>
  <path fill="#333" fill-rule="evenodd" d="M103.5 89.4H77.8a.7.7 0 0 1 0-1.4h25.7c.4 0 .7.3.7.7 0 .4-.3.7-.7.7Z" clip-rule="evenodd"/>
  <g filter="url(#a)">
    <path fill="#1A1A1A" fill-rule="evenodd" d="M56.8 64a4 4 0 0 1 3.9-3.9h41.9l8.2 6.5v52.9a4 4 0 0 1-4 4h-46a4 4 0 0 1-4-4V64Z" clip-rule="evenodd"/>
  </g>
  <path fill="#fff" fill-rule="evenodd" d="M56.8 64a4 4 0 0 1 3.9-3.9h41.9l8.2 6.5v52.9a4 4 0 0 1-4 4h-46a4 4 0 0 1-4-4V64Z" clip-rule="evenodd"/>
  <path fill="#CCC" fill-rule="evenodd" d="m111 66.4-9.3-.4v-6.7l9.3 7.1Z" clip-rule="evenodd"/>
  <path fill="#106EBC" fill-rule="evenodd" d="M62.8 98.5h11.3V87.1H62.8v11.4Zm10-1.4h-8.6v-8.6h8.6V97Z" clip-rule="evenodd"/>
  <path fill="#18A3B4" fill-rule="evenodd" d="m68.2 95.4-2.8-2.3 1-1.1 1.6 1.3 2.8-3 1.2.9-3.8 4.2Z" clip-rule="evenodd"/>
  <path fill="#106EBC" fill-rule="evenodd" d="M62.8 98.5h11.3V87.1H62.8v11.4Zm10-1.4h-8.6v-8.6h8.6V97Z" clip-rule="evenodd"/>
  <path fill="#333" fill-rule="evenodd" d="M103.5 93.4H77.8a.7.7 0 0 1 0-1.4h25.7c.4 0 .7.3.7.7 0 .4-.3.7-.7.7Zm0-15.9H77.8a.7.7 0 0 1 0-1.4h25.7c.4 0 .7.3.7.7 0 .4-.3.7-.7.7Z" clip-rule="evenodd"/>
  <path fill="#106EBC" fill-rule="evenodd" d="M62.8 82.7h11.3V71.3H62.8v11.4Zm10-1.4h-8.6v-8.6h8.6v8.6Z" clip-rule="evenodd"/>
  <path fill="#18A3B4" fill-rule="evenodd" d="m68.2 79.6-2.8-2.3 1-1.1 1.6 1.3 2.8-3.1 1.2 1-3.8 4.2Z" clip-rule="evenodd"/>
  <path fill="#106EBC" fill-rule="evenodd" d="M62.8 82.7h11.3V71.3H62.8v11.4Zm10-1.4h-8.6v-8.6h8.6v8.6Z" clip-rule="evenodd"/>
  <path fill="#333" fill-rule="evenodd" d="M96.2 110.2H77.8a.7.7 0 0 1 0-1.4h18.4c.4 0 .7.3.7.7 0 .4-.3.7-.7.7Z" clip-rule="evenodd"/>
  <path fill="#106EBC" fill-rule="evenodd" d="M62.8 114.4h11.3V103H62.8v11.4Zm10-1.4h-8.6v-8.6h8.6v8.6Z" clip-rule="evenodd"/>
  <path fill="#E6E6E6" fill-rule="evenodd" d="m68.2 111.3-2.8-2.3 1-1.1 1.6 1.3 2.8-3.1 1.2 1-3.8 4.2Z" clip-rule="evenodd"/>
  <path fill="#18A3B4" fill-rule="evenodd" d="m68.2 111.3-2.8-2.3 1-1.1 1.6 1.3 2.8-3.1 1.2 1-3.8 4.2Z" clip-rule="evenodd"/>
  <path fill="#106EBC" fill-rule="evenodd" d="M62.8 114.4h11.3V103H62.8v11.4Zm10-1.4h-8.6v-8.6h8.6v8.6Z" clip-rule="evenodd"/>
  <path fill="#333" fill-rule="evenodd" d="M103.5 106.2H77.8a.7.7 0 0 1 0-1.4h25.7a.7.7 0 0 1 0 1.4Zm0-32.7H77.8a.7.7 0 0 1 0-1.5h25.7c.4 0 .7.4.7.8s-.3.7-.7.7Zm-9.8 23.9H77.8a.7.7 0 0 1 0-1.4h16c.4 0 .7.3.7.7 0 .4-.4.7-.8.7Z" clip-rule="evenodd"/>
  <defs>
    <filter id="a" width="56.4" height="65.7" x="55.6" y="59.9" color-interpolation-filters="sRGB" filterUnits="userSpaceOnUse">
      <feFlood flood-opacity="0" result="BackgroundImageFix"/>
      <feColorMatrix in="SourceAlpha" result="hardAlpha" values="0 0 0 0 0 0 0 0 0 0 0 0 0 0 0 0 0 0 127 0"/>
      <feOffset dy="1"/>
      <feGaussianBlur stdDeviation=".6"/>
      <feColorMatrix values="0 0 0 0 0 0 0 0 0 0 0 0 0 0 0 0 0 0 0.35 0"/>
      <feBlend in2="BackgroundImageFix" result="effect1_dropShadow_290_2352"/>
      <feBlend in="SourceGraphic" in2="effect1_dropShadow_290_2352" result="shape"/>
    </filter>
  </defs>
</svg>
