<svg xmlns="http://www.w3.org/2000/svg" width="150" height="155" fill="none">
  <path fill="#FFE5CC" fill-rule="evenodd" d="M93.3 150c-18 13-28.1-4-38.4-3.8-10.4.2-36.7 15.2-40.3-17.2-3.5-32.4 14.2-32-6.8-59S11.2 4.3 43.6.9C76-2.6 70.2 26.3 95 6.7c25-19.6 40 20.6 30.4 45.3-9.8 24.6 15.4 27.6 14.8 39.3-.6 11.7-7.6 32.4-20.5 36.7-12.9 4.2-19.8 17-26.5 22Z" clip-rule="evenodd"/>
  <path fill="#08375E" fill-rule="evenodd" d="m43.3 63.8-.7-2.3c-1-3.1-3.7-5-6.6-4.7L8.6 60.5c-3.4.5-5.8 4-5.4 8l7.8 77.3c.2 2.7 2.4 4.6 4.7 4.3l98-13.3c2.4-.3 4.1-2.7 3.8-5.4l-6.7-66.9c-.3-2.7-2.4-4.6-4.7-4.3l-57 7.7c-2.5.4-5-1.4-5.8-4.1Z" clip-rule="evenodd"/>
  <path fill="#FFCA99" d="m46.2 30.2-31 7 8.3 49.5 31-7-8.3-49.5Z"/>
  <g opacity=".7">
    <path fill="#FFCA99" d="m46.2 30.2-31 7 8.3 49.5 31-7-8.3-49.5Z"/>
    <path fill="#fff" fill-rule="evenodd" d="m42 42-19.2 4.5c-.9.2-1.8-.5-2-1.6-.1-1 .5-2 1.4-2.3l19-4.4c1-.2 1.9.5 2 1.5a2 2 0 0 1-1.3 2.4Zm1.3 8.2-19 4.4c-1 .3-1.9-.4-2-1.5-.2-1 .4-2.1 1.3-2.3l19-4.4c1-.2 1.9.5 2 1.5.3 1-.3 2.1-1.3 2.3Zm1.4 8.2-19 4.4c-1 .2-1.9-.5-2-1.5-.2-1.1.4-2.1 1.3-2.3l19-4.5c1-.2 1.9.5 2 1.6.3 1-.3 2.1-1.3 2.3Z" clip-rule="evenodd"/>
  </g>
  <path fill="#fff" fill-rule="evenodd" d="M46.2 66.6 27 71c-1 .2-1.9-.5-2-1.6a2 2 0 0 1 1.3-2.3l19-4.4c1-.2 2 .5 2 1.6.3 1-.3 2-1.2 2.3ZM42.3 76l-13.8 3.2c-1 .2-1.9-.5-2-1.6a2 2 0 0 1 1.3-2.3l13.9-3.2c.9-.2 1.8.5 2 1.6.2 1-.4 2-1.4 2.3Z" clip-rule="evenodd"/>
  <path fill="#FFCA99" d="m90.1 20.6-31.2 5 6 50 31.3-5-6-50Z"/>
  <path fill="#fff" fill-rule="evenodd" d="m83.8 49.3-5.4.9c-.9.1-1.8-.6-1.9-1.7-.1-1.1.5-2.1 1.5-2.3l5.3-.8c1-.2 1.8.6 2 1.7 0 1-.6 2-1.5 2.2Z" clip-rule="evenodd"/>
  <path fill="#FFCA99" d="m90.1 20.6-31.3 5 6.1 50 31.3-5-6-50Z"/>
  <path fill="#fff" fill-rule="evenodd" d="m85.5 32.2-19.3 3c-1 .2-1.8-.5-2-1.6 0-1.1.6-2.1 1.5-2.2L85 28.3c1-.2 1.8.6 2 1.7 0 1-.6 2-1.5 2.2Zm.9 8.3-19.2 3c-1 .2-1.8-.6-2-1.7 0-1 .6-2 1.5-2.2l19.3-3c1-.2 1.8.6 1.9 1.7.1 1-.5 2-1.5 2.2ZM73.5 51l-5.4.8c-.9.1-1.8-.6-1.9-1.7-.1-1 .5-2 1.5-2.2L73 47c1-.1 1.8.6 2 1.7 0 1.1-.6 2.1-1.5 2.2Zm14.9 6-19.3 3c-1 .2-1.8-.6-2-1.6 0-1.1.6-2.1 1.6-2.3l19.2-3c1-.2 1.8.6 2 1.7 0 1-.6 2-1.5 2.2Zm-4.3 9.1-14 2.2c-1 .2-1.8-.6-2-1.7 0-1 .6-2 1.5-2.2l14-2.2c1-.2 1.8.6 2 1.7.1 1-.6 2-1.5 2.2Z" clip-rule="evenodd"/>
  <path fill="#FFCA99" d="m60.7 28-31.5 3L33 81.4l31.5-3.2-3.8-50.3Z"/>
  <path fill="#FFCA99" d="m60.7 28-31.5 3L33 81.4l31.5-3.2-3.8-50.3Z"/>
  <path fill="#fff" fill-rule="evenodd" d="m55.4 39.2-19.4 2c-.9 0-1.7-.7-1.8-1.8 0-1.1.6-2 1.6-2.2l19.4-2c.9 0 1.7.8 1.8 1.9 0 1-.6 2-1.6 2.1Zm.6 8.3-19.3 2c-1 0-1.8-.7-1.9-1.8 0-1.1.7-2 1.6-2.2l19.4-1.9c1-.1 1.8.7 1.8 1.8.1 1-.6 2-1.5 2.1Zm.7 8.3-19.4 2c-1 0-1.8-.7-1.8-1.8-.1-1.1.6-2 1.5-2.1l19.4-2c1-.1 1.8.7 1.9 1.8 0 1-.7 2-1.6 2.1Zm.6 8.4-19.4 2c-1 0-1.7-.8-1.8-1.9-.1-1 .6-2 1.5-2.1l19.4-2c1 0 1.8.7 1.9 1.8 0 1-.6 2-1.6 2.2ZM52.6 73l-14 1.4c-1 .1-1.8-.7-1.9-1.8 0-1 .6-2 1.6-2.1l14-1.5c1 0 1.8.8 1.9 1.8 0 1.1-.6 2.1-1.6 2.2Z" clip-rule="evenodd"/>
  <path fill="#FFCA99" d="m99 25.4-31.6 2 2.3 50.3 31.5-2L99 25.5Z"/>
  <path fill="#FFCA99" d="m99 25.4-31.6 2 2.3 50.3 31.5-2L99 25.5Z"/>
  <path fill="#fff" fill-rule="evenodd" d="M93.4 36.5 74 37.6c-1 0-1.8-.8-1.8-1.9 0-1 .7-2 1.6-2l19.5-1.1c1 0 1.7.8 1.8 1.9 0 1-.7 2-1.7 2Zm.4 8.4-19.5 1c-.9.1-1.7-.7-1.7-1.8s.6-2 1.6-2.1l19.4-1c1-.1 1.8.7 1.8 1.8 0 1-.7 2-1.6 2ZM80 54l-5.3.3c-1 0-1.8-.8-1.8-2 0-1 .7-2 1.6-2L80 50c1 0 1.7.8 1.8 2 0 1-.7 2-1.7 2Zm10.4-.6-5.3.3c-1 0-1.8-.8-1.8-1.9 0-1 .7-2 1.6-2l5.4-.4c1 0 1.7.8 1.8 2 0 1-.7 2-1.7 2Zm4.1 8.1L75 62.6c-.9 0-1.7-.8-1.7-1.9-.1-1 .6-2 1.6-2l19.4-1.1c1 0 1.8.7 1.8 1.8s-.7 2-1.6 2.1Zm-5 8.6-14.1.8c-1 0-1.8-.8-1.8-1.9 0-1 .7-2 1.6-2l14.2-.8c.9 0 1.7.8 1.7 1.9 0 1-.7 2-1.6 2Z" clip-rule="evenodd"/>
  <path fill="#0C528D" fill-rule="evenodd" d="m52 65.2-.4-2.2c-.7-3-3.3-5-6.2-4.6L18 62c-3.4.5-6.1 4-6 7.9l1.5 75.6c0 2.7 2 4.6 4.4 4.2l98-13.2a5.3 5.3 0 0 0 4.2-5.4l-1.4-65.4c0-2.7-2-4.6-4.3-4.3l-57 7.7c-2.5.4-4.7-1.3-5.3-4Z" clip-rule="evenodd"/>
  <path fill="#0C528D" fill-rule="evenodd" d="m52 65.2-.4-2.2c-.7-3-3.3-5-6.2-4.6L18 62c-3.4.5-6.1 4-6 7.9l1.5 75.6c0 2.7 2 4.6 4.4 4.2l98-13.2a5.3 5.3 0 0 0 4.2-5.4l-1.3-65.4c-.1-2.7-2-4.6-4.4-4.3l-57 7.7c-2.5.4-4.7-1.3-5.3-4Z" clip-rule="evenodd"/>
  <path fill="#FFCA99" fill-rule="evenodd" d="m146.7 71.2 3.3-41.7-7-6.3-21.7-2.3-3.8 47.2 29.2 3.1Z" clip-rule="evenodd"/>
  <g fill-rule="evenodd" clip-rule="evenodd">
    <path fill="#FFCA99" d="m146.7 71.2 3.3-41.7-7-6.3-21.7-2.3-3.8 47.2 29.2 3.1Z"/>
    <path fill="#994A00" d="m150 29.5-7-6.3 1.8 7.5 5.2-1.2Z"/>
    <path fill="#fff" d="M144.7 38.1c-.1 1.6-1.3 2.7-2.6 2.6L126.3 39c-1.3-.1-2.3-1.5-2.2-3 .2-1.6 1.3-2.7 2.7-2.6l15.7 1.7c1.4.1 2.3 1.5 2.2 3Zm-5.4 7.6c0 1.5-1.3 2.7-2.6 2.5l-11-1.2c-1.3-.1-2.3-1.5-2.2-3 .1-1.5 1.3-2.7 2.6-2.5l11 1.1c1.4.2 2.4 1.6 2.2 3Z"/>
  </g>
  <path fill="#0C528D" d="M117.2 76.5a10 10 0 0 0 10-10.2c0-5.7-4.4-10.3-10-10.3-5.5 0-10 4.6-10 10.3 0 5.6 4.5 10.2 10 10.2Z"/>
  <path fill="#fff" d="M117.2 74.5a8 8 0 0 0 8-8.2 8 8 0 0 0-8-8.2 8 8 0 0 0-8 8.2 8 8 0 0 0 8 8.2Z"/>
  <path fill="#0C528D" fill-rule="evenodd" d="m122.2 65.5-3.6-.4.5-3.6-2.6-.3-.4 3.6-3.5-.4-.3 2.6 3.5.4-.4 3.6 2.5.3.4-3.6 3.6.4.3-2.6Z" clip-rule="evenodd"/>
</svg>
