<svg xmlns="http://www.w3.org/2000/svg" width="150" height="150" fill="none">
  <path fill="#FFE5CC" fill-rule="evenodd" d="M15.7 45C24 11.4 46.5 34.7 69 29.2c22.5-5.5 30.8-24 58.3 3.4 27.4 27.3-11.7 24.1-12 49.3-.5 25.2 7.4 33.9-14.6 45-22 11.3-36.6 3.8-41.2-23.5-4.6-27.3-27.9-9.6-39.1-24.2C9 64.6 14 51.8 15.7 45Z" clip-rule="evenodd"/>
  <path fill="#18A3B4" fill-rule="evenodd" d="M0 105.7V39.5a6 6 0 0 1 6-6.2h122.7a6 6 0 0 1 6 6.2v66.2a6 6 0 0 1-6 6.1H6a6 6 0 0 1-6-6Z" clip-rule="evenodd"/>
  <path fill="#fff" fill-rule="evenodd" d="M15.7 102.3V43.1c0-2 1.6-3.6 3.6-3.6h106c2 0 3.6 1.6 3.6 3.6v59.2c0 2-1.6 3.7-3.6 3.7h-106c-2 0-3.6-1.6-3.6-3.7Z" clip-rule="evenodd"/>
  <path fill="#E6E6E6" fill-rule="evenodd" d="M4.2 77.2v-9c0-2 1.6-3.6 3.7-3.6 2 0 3.6 1.6 3.6 3.7v8.9c0 2-1.6 3.6-3.6 3.6s-3.7-1.6-3.7-3.6Z" clip-rule="evenodd"/>
  <path fill="#FFCA99" fill-rule="evenodd" d="M36.5 106V50.4c0-1.3 1-2.4 2.4-2.4h58.6l5.6 5.7 5 5V106H36.5Z" clip-rule="evenodd"/>
  <path fill="#fff" fill-rule="evenodd" d="M96.9 90.4H47.7a1.3 1.3 0 0 1 0-2.7h49.2c.7 0 1.3.7 1.3 1.4s-.6 1.3-1.3 1.3Zm0-8.9H47.7a1.3 1.3 0 0 1 0-2.6h49.2c.7 0 1.3.6 1.3 1.3 0 .7-.6 1.3-1.3 1.3Zm0 17H47.7a1.3 1.3 0 0 1 0-2.7h49.2a1.3 1.3 0 0 1 0 2.7Z" clip-rule="evenodd"/>
  <path fill="#994A00" fill-rule="evenodd" d="M97.5 48 108 58.7h-8.2a2.4 2.4 0 0 1-2.4-2.4V48Z" clip-rule="evenodd" opacity=".8"/>
  <path fill="#FF9633" fill-rule="evenodd" d="M141.3 27.8c-.3 0-.6 0-.8-.3-.5-.5-.5-1.3 0-1.7l5.5-5.6c.5-.5 1.2-.5 1.7 0 .5.4.5 1.2 0 1.7l-5.5 5.6-.9.3Zm-10.3 0c-.7 0-1.3-.5-1.3-1.2v-7.4c0-.6.6-1.2 1.2-1.2.7 0 1.2.6 1.2 1.2v7.4c0 .7-.5 1.2-1.2 1.2Zm-9.9-.1c-.3 0-.6-.2-.8-.4l-5.2-5.2c-.5-.5-.5-1.3 0-1.8.5-.4 1.2-.4 1.7 0l5.2 5.3c.4.5.4 1.2 0 1.7-.3.2-.6.4-.9.4Zm27.7 10.8h-7.2c-.6 0-1.2-.5-1.2-1.2s.6-1.2 1.2-1.2h7.2c.7 0 1.2.5 1.2 1.2s-.5 1.2-1.2 1.2Zm-2.4 13.7c-.3 0-.6 0-.9-.3l-5-5.2c-.5-.4-.5-1.2 0-1.7.4-.5 1.2-.5 1.7 0l5 5.2c.5.4.5 1.2 0 1.7-.2.2-.5.3-.8.3Z" clip-rule="evenodd"/>
</svg>
