<svg xmlns="http://www.w3.org/2000/svg" width="77" height="74" fill="none">
  <path fill="#fff" stroke="#0D7D50" stroke-width=".5" d="m65.2 14.6-.2.2-.1-.2-6.6 3.4-.6.2-6 3.2c3-3.4 4.5-5.3 6.6-8.4l.3-.5-.6.1-4.4.5c-4.8.6-10.3 1.2-14.8 2.1a80.2 80.2 0 0 1 20.5-6h.3l-.2-.3c-.1-.3-.5-.6-.9-1L57 6.8A72.2 72.2 0 0 0 45.7.6c3.8.4 8 1.3 11.9 2.4 4.3 1.2 8.3 2.8 10.7 4.3h.3c.9-.4 2-.6 3.2-.7l2-.2 2-.2c-.4.6-.6 1.2-1.1 1.8-.6.7-1.6 1.6-3.3 2.7l-.2.1.1.2.2 1.5v2.4a65.7 65.7 0 0 1-3.2 16.3 63 63 0 0 0-.5-8.6c-.4-3.3-1.2-6.2-2.6-8Zm-52 46.6v.2a22 22 0 0 0 7 4.8c-2.5-.3-5-.7-7-1.3h-.3v.2a11 11 0 0 0 0 5.4c-2.2-2-3.6-4.2-5-7.4h-.1l-6.3-3.6-1-.5 3.1-1 2.2-.7h.3V57a38 38 0 0 1-.2-10.7C6.6 50 7.7 53 9.4 56v.2h.3l6.7-1.1c-1.4 2.1-2.4 4-3.2 6.1Zm15.4-36.9v.3h.2a40.7 40.7 0 0 1 15 5 41.2 41.2 0 0 0-13.8-.5 15.9 15.9 0 0 0-3.5.4v.3-.3h-.1v.2A38 38 0 0 0 23 41.6a78.3 78.3 0 0 1-3.1-9.5h-.3.3l-.1-.4-.3.2a75.4 75.4 0 0 0-12.1 9.8 64.6 64.6 0 0 1 9.3-13.2l.2-.3-.2-.1c-1-1-2.7-1.7-4.5-2.2l-3.8-.6c2.1-.6 5.4-1 8.1-1H22v-.1a36.4 36.4 0 0 1 9-4.9c-1 1.6-2 4-2.4 5Zm7 41.9h.1V66l1.6-1.8c.9-1 1.8-2.1 2.6-3.3 0 1.1.1 2.2.4 3.4l.1.3h.3l5.2-3a167 167 0 0 1-5.1 4.4l-.1.1v.2l.4 1.3v.2l.3 1c-1 .2-2.5.2-3.9.2h-.1a29 29 0 0 1-9 3.5c1-.6 1.7-1.3 2.6-2 .5-.5 1-1 1.7-1.4l.4-.3-.5-.1c-1.5-.3-2.7-.9-4.1-1.4h-.2c2.6-.2 4.7-.6 7.3-1.2Z"/>
</svg>
