<svg xmlns="http://www.w3.org/2000/svg" width="97" height="55" fill="none">
  <path fill="#666" d="M.488 1.406v13.023l8.35 13.246-8.35 13.262v13.024h96.29V1.406H.488Z"/>
  <path fill="#fff" d="M12.941 16.922c0-1.86.99-2.41 2.29-2.43 1.22-.03 2.6.15 3.27.37v1.41c-.74-.07-2.41-.13-2.83-.13-.71-.02-1.11.04-1.11.91v.46c0 .74.26.9.91.9h1.34c1.66 0 2 1.45 2 2.49v.63c0 2.13-1.2 2.53-2.34 2.53-1.45 0-2.39-.1-3.27-.38v-1.41c.46.05 1.87.14 2.95.14.49 0 1.04-.09 1.04-.81v-.51c0-.54-.15-.88-.76-.88h-1.3c-2.04 0-2.18-1.67-2.18-2.49v-.81l-.01.01Zm9.36.182c1.78 0 2.6.23 2.6 2.49 0 1.21-.6 1.71-1.71 1.71h-1.95c0 1.23.42 1.3 1.3 1.3.94 0 1.39 0 2.25-.14v1.21c-.87.36-2.18.36-3.15.36-1.56 0-2.02-1-2.02-3.51 0-2.93.73-3.43 2.68-3.43m.47 2.9c.34 0 .51-.18.51-.51 0-.86-.11-1.02-.89-1.02-.85 0-1.17.06-1.16 1.53h1.54Zm3.011-2.842h1.36l.25.86c.43-.46 1-.93 1.76-.93.27 0 .52.01.68.08v1.74c-.16-.02-.54-.03-.89-.03-.67 0-1.16.12-1.56.76v4.35h-1.62v-6.82l.02-.01Zm6.186 0 1.35 4.72 1.38-4.72h1.72l-2.22 6.82h-1.81l-2.15-6.82h1.73Zm5.063-2.148c0-.19.09-.32.28-.32h1.21c.17 0 .26.14.26.32v1.14c0 .19-.1.3-.26.3h-1.21c-.16 0-.28-.12-.28-.3v-1.14Zm.06 2.15h1.62v6.82h-1.62v-6.82Zm4.579-.06c.6 0 1.81.04 2.83.4v1.12s-1.11-.08-2.13-.08c-.74 0-1.1.05-1.1 2.06 0 1.75.27 2 1.1 2 1.06 0 2.22-.12 2.22-.12v1.13c-.9.51-1.95.42-2.91.44-1.15 0-2.02-.66-2.02-3.48s.84-3.47 2.02-3.47m6.129.01c1.77 0 2.6.23 2.6 2.49 0 1.21-.6 1.71-1.71 1.71h-1.95c0 1.23.42 1.3 1.29 1.3.94 0 1.39 0 2.25-.14v1.21c-.87.36-2.18.36-3.14.36-1.56 0-2.02-1-2.02-3.51 0-2.93.73-3.43 2.68-3.43m.47 2.9c.34 0 .51-.18.51-.51 0-.86-.11-1.02-.89-1.02-.85 0-1.17.06-1.16 1.53h1.54Zm6.49 1.459c-.51-.36-.68-1.21-.68-1.89 0-1.63.74-2.43 2.13-2.43h3.73v1.07l-.68.23c.11.28.23.52.23 1.33 0 .98-.37 2.29-2.1 2.29h-1.42c-.18 0-.47 0-.47.3s.21.35.47.35h1.88c1.11 0 1.81.64 1.81 2.02v.74c0 .98-.41 1.98-1.92 1.98h-1.73c-1.09 0-1.91-.63-1.91-1.98v-.87l.54-.62c-.32-.2-.59-.67-.59-1.32 0-.54.21-1.04.71-1.21m1.69-.83h.65c.61 0 .79-.44.78-1.06-.02-.71-.22-.98-.79-.98h-.62c-.66 0-.76.47-.76.98 0 .63.17 1.06.75 1.06m0 5.38h.96c.58 0 .65-.32.65-.72v-.5c0-.38-.14-.62-.6-.62h-1.24c-.23 0-.49-.05-.49-.05v1.13c0 .68.32.75.73.75m4.17-8.831h1.36l.25.86c.43-.46 1-.93 1.76-.93.27 0 .52.01.68.08v1.74c-.16-.02-.54-.03-.89-.03-.67 0-1.16.12-1.56.76v4.35h-1.62v-6.82l.02-.01Zm4.641 4.441c0-.99.48-1.87 1.8-1.87 0 0 1.8.01 1.8 0 0 0 .01-.42 0-.44 0-.73-.31-.84-.82-.84s-2.07.11-2.58.15v-1.11c.81-.35 1.65-.45 2.8-.46 1.32 0 2.22.5 2.22 2.19v4.76h-1.28l-.34-.75c-.07.15-.93.85-1.87.83-1.18-.04-1.73-.93-1.73-1.82v-.64Zm2.19 1.01c.68 0 1.41-.53 1.41-.53v-1.25l-1.48.13c-.43.04-.5.4-.5.69v.33c0 .57.28.62.57.62m3.632-5.081.99-.37.27-1.9h1.35v1.9h1.37v1.37h-1.37v2.73c0 1.01.21 1.22.52 1.35 0 0 .69.27.77.27v1.1h-1.41c-.91 0-1.51-.63-1.51-2.44v-3.02h-.99v-1l.01.01Zm4.669-.358h1.62v4.57c0 .68.27.92.68.92.65 0 1.01-.18 1.48-.59v-4.9h1.62v6.82h-1.3l-.32-.73c-.61.41-1.01.84-1.95.84-1.43 0-1.83-1.1-1.83-2.4v-4.54.01Zm6.348-2.15c0-.19.09-.32.28-.32h1.22c.17 0 .26.14.26.32v1.14c0 .19-.1.3-.26.3h-1.22c-.16 0-.28-.12-.28-.3v-1.14Zm.06 2.15h1.62v6.82h-1.62v-6.82Zm2.301.358.99-.37.27-1.9h1.35v1.9h1.37v1.37H87.1v2.73c0 1.01.21 1.22.52 1.35 0 0 .69.27.77.27v1.1h-1.41c-.91 0-1.51-.63-1.51-2.44v-3.02h-.99v-1l.01.01ZM12.75 31.725h1.71v-1.92h1.37v1.92h1.73v1.51h-1.73v1.91h-1.37v-1.91h-1.71v-1.51Zm8.61-1.493h1.33l.28.69c.38-.34 1.13-.77 1.86-.77 1.51 0 2 1.41 2 3.46s-.3 3.54-2 3.54c-.52 0-1.3-.16-1.86-.44v3.81h-1.61v-10.29Zm3.05 5.51c.51 0 .8-.33.8-2.07 0-1.52-.28-1.99-.8-1.99-.61 0-1.09.17-1.44.42v3.38c.42.18.88.26 1.44.26Zm3.38-5.508h1.36l.25.86c.43-.46 1-.93 1.76-.93.27 0 .52.01.68.08v1.74c-.16-.02-.54-.03-.89-.03-.67 0-1.16.12-1.56.76v4.35h-1.62v-6.82l.02-.01Zm4.73-2.16c0-.19.09-.32.28-.32h1.21c.17 0 .26.14.26.32v1.14c0 .19-.1.29-.26.29H32.8c-.16 0-.28-.11-.28-.29v-1.14Zm.06 2.15h1.62v6.82h-1.62v-6.82Zm4.462 3.41-2.12-3.4h1.95l1.13 2.04 1.15-2.04h1.96l-2.15 3.44 2.06 3.38h-1.87l-1.14-2.03-1.14 2.03h-1.95l2.12-3.42Zm7.508 1.038c0-.99.48-1.87 1.8-1.87 0 0 1.8.01 1.8 0 0 0 .01-.42 0-.44 0-.73-.31-.84-.82-.84s-2.07.11-2.58.15v-1.11c.81-.35 1.65-.45 2.8-.46 1.32 0 2.22.5 2.22 2.19v4.76h-1.28l-.34-.75c-.07.15-.93.85-1.87.83-1.18-.04-1.73-.93-1.73-1.82v-.64Zm2.19 1.01c.68 0 1.41-.53 1.41-.53v-1.25l-1.48.13c-.43.04-.5.4-.5.69v.33c0 .57.28.62.57.62m3.99-5.44h1.33l.28.69c.38-.34 1.13-.77 1.86-.77 1.51 0 2 1.41 2 3.46s-.3 3.54-2 3.54c-.52 0-1.3-.16-1.86-.44v3.81h-1.61v-10.29Zm3.05 5.51c.51 0 .8-.33.8-2.07 0-1.52-.28-1.99-.8-1.99-.61 0-1.09.17-1.44.42v3.38c.42.18.88.26 1.44.26Zm3.38-5.51h1.33l.28.69c.38-.34 1.13-.77 1.86-.77 1.51 0 2 1.41 2 3.46s-.3 3.54-2 3.54c-.52 0-1.3-.16-1.86-.44v3.81h-1.61v-10.29Zm3.05 5.51c.51 0 .8-.33.8-2.07 0-1.52-.28-1.99-.8-1.99-.61 0-1.09.17-1.44.42v3.38c.42.18.88.26 1.44.26Zm5.97-5.568c1.77 0 2.6.23 2.6 2.49 0 1.21-.6 1.71-1.71 1.71h-1.95c0 1.23.42 1.3 1.29 1.3.94 0 1.39 0 2.25-.14v1.21c-.87.36-2.18.36-3.14.36-1.56 0-2.02-1-2.02-3.51 0-2.93.73-3.43 2.68-3.43m.47 2.9c.34 0 .51-.18.51-.51 0-.86-.11-1.02-.89-1.02-.86 0-1.17.06-1.16 1.53h1.54Zm2.998-6.072h1.62v7.35c0 .99.22 1.2.53 1.34 0 0 .69.27.77.27v1.11h-1.33c-1.01 0-1.59-.62-1.59-2.43v-7.64Z"/>
</svg>